M48
METRIC,TZ
T1C0.400
T2C0.500
T3C0.800
T4C0.840
T5C0.850
T6C1.000
T7C1.016
T8C1.300
T9C4.100
%
G90
G05
T1
X114600Y-100425
X116150Y-88950
X119800Y-78700
X126500Y-90400
X127500Y-89500
X127600Y-92900
X127600Y-94400
X128800Y-85700
X128800Y-87000
X134700Y-122700
X135700Y-122700
X136300Y-112700
X136500Y-43700
X136500Y-49000
X136800Y-109495
X136800Y-122800
X137000Y-46500
X137400Y-115300
X137700Y-84000
X137700Y-123600
X138600Y-128100
X138684Y-84074
X138700Y-125800
X139100Y-123300
X139100Y-129900
X140843Y-86995
X140900Y-78600
X141200Y-84000
X141400Y-79500
X141900Y-112574
X142300Y-122800
X144200Y-121000
X144505Y-111200
X144948Y-110303
X145300Y-127300
X147509Y-117746
X147701Y-91567
X147800Y-98900
X147930Y-111290
X150749Y-107442
X151713Y-111600
X153200Y-108200
X154432Y-107315
X158000Y-117500
X158300Y-106400
X158600Y-129000
X158800Y-107700
X158800Y-122400
X159500Y-124600
X159500Y-126700
X161600Y-122300
X161793Y-125793
X162100Y-59400
X162200Y-113500
X162300Y-109800
X164200Y-117300
X164278Y-59725
X165000Y-120000
X165100Y-127800
X165800Y-121800
X166023Y-59987
X167100Y-130000
X169200Y-114300
X169200Y-132800
X170900Y-128700
X170900Y-133200
X171000Y-119500
X172553Y-120701
X172600Y-121700
X173300Y-98700
X175000Y-117500
X175300Y-128500
X176000Y-133000
X180252Y-98700
X182000Y-55200
X184000Y-94000
X184500Y-119200
X187500Y-90500
X190100Y-99300
X191500Y-128500
X193000Y-94000
X193300Y-96500
X194000Y-118900
X194800Y-96500
X198000Y-128100
X202700Y-108300
T2
X143650Y-108150
X147200Y-73600
X149000Y-78000
T3
X129900Y-51700
X129900Y-64400
X132440Y-51700
X132440Y-64400
X134980Y-51700
X134980Y-64400
X137520Y-51700
X137520Y-64400
X140060Y-51700
X140060Y-64400
X142600Y-51700
X142600Y-64400
X145140Y-51700
X145140Y-64400
X147680Y-51700
X147680Y-64400
X193000Y-115880
X193000Y-123500
X195540Y-115880
X195540Y-123500
X198080Y-115880
X198080Y-123500
X200620Y-115880
X200620Y-123500
X196850Y-51400
X198850Y-43900
T4
X125820Y-64000
X125820Y-66540
X125820Y-69080
X125820Y-71620
X125820Y-74160
X125820Y-76700
T5
X170300Y-94000
X173300Y-94000
T6
X165235Y-83940
X195715Y-71240
X170315Y-86480
X172855Y-83940
X162695Y-76320
X165235Y-71240
X177935Y-61080
X180475Y-61080
X175395Y-76320
X188095Y-68700
X183015Y-61080
X170315Y-81400
X185555Y-66160
X183015Y-63620
X177935Y-78860
X195715Y-78860
X162695Y-68700
X185555Y-78860
X167775Y-76320
X170315Y-71240
X195715Y-81400
X190635Y-83940
X193175Y-73780
X195715Y-68700
X177935Y-86480
X177200Y-123400
X177200Y-125940
X160155Y-78860
X193175Y-66160
X195715Y-66160
X185555Y-76320
X170315Y-68700
X165235Y-63620
X190635Y-63620
X193175Y-81400
X183015Y-68700
X170315Y-76320
X177935Y-71240
X183015Y-83940
X180475Y-86480
X195715Y-83940
X190635Y-78860
X195715Y-73780
X193175Y-63620
X160155Y-71240
X180475Y-73780
X177200Y-113400
X177200Y-115940
X172855Y-78860
X165235Y-73780
X167775Y-73780
X188095Y-83940
X183015Y-73780
X167775Y-66160
X188095Y-78860
X172855Y-71240
X185555Y-68700
X193175Y-86480
X185555Y-83940
X167775Y-86480
X158100Y-92520
X158100Y-95060
X158100Y-97600
X162695Y-83940
X175395Y-78860
X180900Y-123400
X180900Y-125940
X180900Y-128480
X193175Y-78860
X172855Y-76320
X177935Y-83940
X167775Y-81400
X193175Y-71240
X162695Y-71240
X161180Y-45900
X160155Y-76320
X170315Y-73780
X148480Y-45900
X158640Y-45900
X185555Y-73780
X180475Y-71240
X167775Y-63620
X172855Y-68700
X180475Y-63620
X156100Y-45900
X183015Y-86480
X160155Y-68700
X188095Y-76320
X160155Y-83940
X162695Y-78860
X183015Y-66160
X170315Y-66160
X195715Y-63620
X151020Y-45900
X153560Y-45900
X172855Y-66160
X175395Y-66160
X185555Y-61080
X188095Y-61080
X190635Y-61080
X160155Y-66160
X193175Y-61080
X188095Y-66160
X195715Y-61080
X167775Y-83940
X193175Y-83940
X185555Y-86480
X172855Y-86480
X180475Y-83940
X172855Y-63620
X170315Y-63620
X175395Y-68700
X175395Y-83940
X160155Y-86480
X172855Y-81400
X160155Y-81400
X165235Y-78860
X190635Y-76320
X167775Y-78860
X188095Y-73780
X172855Y-73780
X183015Y-71240
X193175Y-76320
X175395Y-73780
X160155Y-73780
X185555Y-71240
X175395Y-71240
X185555Y-63620
X183015Y-81400
X180475Y-78860
X190635Y-68700
X198255Y-71240
X175395Y-81400
X177935Y-76320
X198255Y-73780
X198255Y-76320
X198255Y-78860
X198255Y-81400
X165235Y-76320
X180900Y-113400
X162695Y-66160
X121412Y-112776
X121412Y-115316
X121412Y-117856
X121412Y-120396
X121412Y-122936
X170315Y-83940
X190635Y-73780
X198255Y-61080
X183015Y-78860
X162695Y-73780
X188095Y-63620
X195715Y-86480
X198255Y-63620
X198255Y-66160
X198255Y-68700
X180475Y-76320
X167775Y-71240
X193175Y-68700
X190635Y-66160
X180475Y-68700
X177935Y-68700
X160155Y-63620
X180900Y-115940
X180900Y-118480
X188095Y-86480
X165235Y-68700
X177935Y-81400
X162695Y-81400
X177935Y-66160
X175395Y-63620
X162695Y-86480
X188095Y-71240
X180475Y-81400
X175395Y-86480
X188095Y-81400
X195715Y-76320
X165235Y-66160
X162695Y-63620
X185555Y-81400
X190635Y-86480
X177935Y-73780
X190635Y-81400
X183015Y-76320
X170315Y-78860
X165235Y-86480
X167775Y-68700
X165235Y-81400
X190635Y-71240
X180475Y-66160
X177935Y-63620
T7
X128796Y-57000
X131336Y-57000
X133876Y-57000
X136416Y-57000
X137940Y-105260
X138956Y-57000
X141496Y-57000
X143020Y-105260
X144036Y-57000
X145560Y-105260
X146576Y-57000
X148100Y-105260
X150640Y-105260
X151656Y-57000
X153180Y-105260
X155720Y-57000
X155720Y-105260
X158260Y-57000
X160800Y-105260
X163340Y-57000
X163340Y-105260
X165880Y-57000
X165880Y-105260
X168420Y-57000
X168420Y-105260
X170960Y-57000
X170960Y-105260
X173500Y-57000
X173500Y-105260
X176040Y-105260
X178580Y-57000
X178580Y-105260
X183660Y-57000
X183660Y-105260
X186200Y-57000
X186200Y-105260
X188740Y-57000
X188740Y-105260
X191280Y-57000
X191280Y-105260
X193820Y-57000
X193820Y-105260
X130500Y-79740
X181120Y-57000
X130500Y-82280
X130500Y-84820
X130500Y-87360
X130500Y-89900
X130500Y-92440
X130500Y-94980
X149116Y-57000
X130500Y-97520
X130500Y-100060
X130500Y-102600
X130500Y-105140
X130500Y-107680
X130500Y-110220
X130500Y-112760
X130500Y-115300
X130500Y-117840
X130500Y-120380
X130500Y-122920
X140480Y-105260
X130500Y-125460
X130500Y-128000
X133040Y-79740
X133040Y-82280
X133040Y-84820
X133040Y-87360
X133040Y-89900
X133040Y-92440
X133040Y-94980
X133040Y-97520
X133040Y-100060
X133040Y-102600
X133040Y-105140
X133040Y-107680
X133040Y-110220
X133040Y-112760
X133040Y-115300
X133040Y-117840
X133040Y-120380
X133040Y-122920
X133040Y-125460
X160800Y-57000
X133040Y-128000
X196360Y-57000
X196360Y-105260
X198900Y-105260
X201440Y-105260
X203980Y-57000
X203980Y-59540
X203980Y-62080
X203980Y-64620
X203980Y-67160
X203980Y-69700
X203980Y-72240
X203980Y-74780
X203980Y-77320
X203980Y-79860
X203980Y-82400
X203980Y-84940
X203980Y-87480
X203980Y-90020
X203980Y-92560
X203980Y-95100
X203980Y-97640
X203980Y-100180
X206520Y-57000
X206520Y-59540
X206520Y-62080
X206520Y-64620
X206520Y-67160
X206520Y-69700
X206520Y-72240
X206520Y-74780
X206520Y-77320
X206520Y-79860
X206520Y-82400
X206520Y-84940
X206520Y-87480
X206520Y-90020
X206520Y-92560
X206520Y-95100
X206520Y-97640
X206520Y-100180
T8
X205000Y-44000
X205000Y-49000
T9
X113500Y-58800
X113500Y-81950
T0
M30
