; NON-PLATED HOLES START AT T1
; THROUGH (PLATED) HOLES START AT T100
M48
INCH
T1C0.125984
T2C0.165354
T100C0.038194
T101C0.035000
T102C0.042000
T103C0.015748
T104C0.059055
T105C0.040000
T106C0.031496
T107C0.031497
T108C0.030000
T109C0.039370
T110C0.038000
%
T1
X035411Y031280
X037661Y012280
T2
X001411Y021530
X001411Y030530
T100
X029911Y012280
X029911Y031280
X037911Y023280
X012911Y012280
X036911Y015280
X021911Y012280
X021911Y031280
X037911Y019280
X030911Y012280
X015311Y031280
X030911Y031280
X037911Y022280
X036911Y014280
X015911Y012280
X024911Y012280
X037911Y018280
X009311Y031280
X024911Y031280
X036911Y029280
X033911Y012280
X033911Y031280
X037911Y021280
X037911Y017280
X010311Y031280
X018911Y031280
X036911Y028280
X027911Y031280
X037911Y020280
X036911Y031280
X010911Y012280
X037911Y016280
X036911Y027280
X013311Y031280
X036911Y030280
X013911Y012280
X037911Y015280
X036911Y026280
X007311Y031280
X022911Y012280
X022911Y031280
X031911Y012280
X016311Y031280
X031911Y031280
X037911Y014280
X016911Y012280
X036911Y025280
X025911Y012280
X037911Y029280
X034911Y012280
X036911Y024280
X019911Y012280
X011311Y031280
X019911Y031280
X028911Y012280
X037911Y028280
X028911Y031280
X037911Y031280
X036911Y023280
X011911Y012280
X020911Y012280
X020911Y031280
X037911Y027280
X036911Y019280
X014311Y031280
X037911Y030280
X036911Y022280
X014911Y012280
X037911Y026280
X023911Y012280
X036911Y018280
X008311Y031280
X023911Y031280
X032911Y012280
X036911Y021280
X032911Y031280
X037911Y025280
X036911Y017280
X017911Y012280
X017911Y031280
X026911Y012280
X026911Y031280
X036911Y020280
X035911Y012280
X037911Y024280
X036911Y016280
X012311Y031280
T101
X019661Y026280
X005161Y003530
X016652Y033521
X017661Y006780
X020661Y030280
X020661Y026280
X031661Y023280
X005161Y002530
X029161Y013280
X017661Y005780
X029911Y006030
X035911Y017530
X032161Y007280
X023661Y030280
X022661Y021030
X031661Y022280
X032161Y010280
X023661Y025030
X023661Y026280
X029911Y005030
X035911Y016530
X017661Y030280
X017161Y021530
X031661Y021280
X017411Y014530
X017661Y026280
X023161Y017780
X035911Y015530
X020661Y019030
X021661Y005780
X033911Y006030
X012652Y036521
X016661Y032530
X031661Y020280
X006911Y037780
X006911Y036530
X035911Y014530
X027661Y010780
X033911Y005030
X012652Y035521
X021911Y019030
X021661Y030280
X006911Y035530
X002161Y009530
X027661Y006780
X024661Y030030
X021661Y026280
X012652Y034521
X022161Y010780
X006911Y034530
X012661Y006280
X002161Y008530
X033161Y007280
X012661Y037780
X023661Y021030
X010911Y037780
X010911Y036530
X022161Y006780
X005161Y009530
X011911Y010780
X025911Y030030
X033161Y010280
X012652Y033521
X024661Y025030
X035661Y023280
X016411Y018530
X011911Y006780
X006911Y033530
X002161Y007530
X018661Y030280
X010911Y035530
X023161Y013780
X005161Y008530
X002161Y010530
X018661Y026280
X035661Y022280
X003161Y019280
X025161Y013280
X024161Y017780
X031911Y017530
X006911Y032530
X002161Y006530
X025911Y025030
X010911Y034530
X005161Y007530
X020661Y014030
X035661Y021280
X005161Y010530
X031911Y016530
X002161Y005530
X010911Y033530
X031161Y007280
X005161Y006530
X016652Y036521
X022661Y030280
X035661Y020280
X031161Y010280
X021911Y014030
X031911Y015530
X022661Y025030
X022661Y026280
X002161Y004530
X012661Y032530
X010911Y032530
X005161Y005530
X016652Y035521
X034161Y007280
X016411Y014530
X031911Y014530
X017161Y025530
X034161Y010280
X002161Y003530
X005161Y004530
X017411Y018530
X016652Y034521
X015411Y010780
X019661Y030280
X016661Y006280
X003161Y015280
X024161Y013780
X016661Y037780
X015411Y006780
X017661Y010780
X002161Y002530
T102
X024161Y010780
X014911Y026780
X020911Y007780
X025161Y033280
X026661Y007800
X018411Y017010
X029661Y010760
X032411Y036280
X003891Y037780
X001411Y033030
X003411Y033030
X021161Y033030
X019661Y017010
X002411Y033030
X022161Y033030
X020161Y033030
X010661Y007780
X013911Y007800
X019661Y010780
X032411Y033300
X016411Y007780
X018411Y014030
X027661Y037030
X012911Y024280
X019661Y014030
X028661Y037030
X026661Y037030
X020911Y010760
X013911Y024280
X012911Y029280
X014911Y024280
X013911Y029280
X026661Y010780
X023911Y036760
X024161Y007800
X002421Y035289
X025411Y007780
X000911Y036530
X014911Y029280
X001421Y035289
X003421Y035289
X010661Y010760
X020911Y037280
X029661Y007780
X013911Y010780
X017931Y037280
X016411Y010760
X023911Y033780
X025161Y036260
X000911Y037780
X012911Y021780
X019661Y007800
X021161Y035280
X003891Y036530
X013911Y021780
X012911Y026780
X022161Y035280
X020161Y035280
X014911Y021780
X025411Y010760
X013911Y026780
T103
X005411Y012280
X028661Y015030
X033161Y016030
X001661Y026530
X028911Y002780
X012411Y014780
X027661Y018280
X013161Y016280
X010661Y004280
X037161Y003030
X012161Y016280
X028161Y018780
X003161Y006780
X012411Y004280
X035161Y018280
X016911Y016280
X025411Y029030
X002661Y012280
X006411Y003780
X021411Y016780
T104
X036411Y034811
X036411Y036780
T105
X008911Y016780
X008911Y008780
X007911Y022780
X007911Y014780
X008911Y022780
X007911Y006780
X008911Y014780
X007911Y019780
X008911Y006780
X008911Y019780
X007911Y020780
X007911Y012780
X008911Y020780
X007911Y004780
X008911Y012780
X007911Y017780
X008911Y004780
X007911Y009780
X008911Y017780
X008911Y009780
X007911Y010780
X008911Y010780
X007911Y015780
X007911Y007780
X008911Y015780
X008911Y007780
X007911Y021780
X007911Y013780
X008911Y021780
X007911Y005780
X008911Y013780
X007911Y018780
X008911Y005780
X008911Y018780
X007911Y011780
X007911Y003780
X008911Y011780
X007911Y016780
X008911Y003780
X007911Y008780
T106
X033911Y034280
X033911Y037233
T107
X018161Y036030
X025177Y017030
X024927Y021030
X025911Y021030
X005421Y035789
X005421Y034805
X024927Y023030
X018161Y033045
X025911Y023030
X026161Y015030
X018161Y034030
X025177Y015030
X018161Y035045
X005421Y033789
X005421Y032805
X026161Y017030
T108
X026911Y035280
X028911Y035280
X012911Y010280
X014411Y014530
X028911Y030030
X004161Y016530
X018661Y008280
X019161Y023280
X029911Y030030
X031661Y013530
X033661Y013530
X001411Y013780
X026911Y033280
X028911Y033280
X007661Y028530
X001411Y018780
X030911Y030030
X032911Y030030
X023161Y010280
X021161Y023280
X031911Y030030
X033911Y030030
X035911Y030030
X034911Y030030
X007661Y026530
X028911Y025030
X028661Y008280
X001411Y016780
X029911Y025030
X012911Y008280
X030911Y025030
X032911Y025030
X032411Y037280
X030411Y037280
X030911Y036280
X001411Y014780
X031911Y025030
X033911Y025030
X035911Y025030
X018661Y010280
X023411Y006030
X025411Y006030
X034911Y025030
X011411Y003780
X013411Y003780
X005661Y018030
X014661Y003780
X016661Y003780
X030911Y034280
X023161Y008280
X015411Y016530
X001411Y017780
X028661Y005780
X026661Y005780
X014411Y016530
X028661Y010280
X005661Y016030
X004161Y018530
X013911Y013780
X011911Y013780
X015411Y014530
X001411Y015780
T109
X027661Y017530
X030661Y016530
X027661Y021530
X030661Y020530
X030661Y017530
X027661Y022530
X030661Y021530
X027661Y023530
X030661Y022530
X027661Y014530
X030661Y023530
X027661Y015530
X030661Y014530
X027661Y016530
X030661Y015530
X027661Y020530
T110
X033661Y004030
X006161Y027530
X032661Y004030
X035661Y005280
X027911Y027280
X006161Y024530
X029911Y004030
X035661Y009780
X035661Y007280
X006161Y026530
X030911Y004030
X027911Y026280
X006161Y023530
X035661Y010780
X006161Y028530
X035661Y008780
X035661Y006280
X027911Y028280
X006161Y025530
T00
M30
