G04 MADE WITH FRITZING*
G04 WWW.FRITZING.ORG*
G04 DOUBLE SIDED*
G04 HOLES PLATED*
G04 CONTOUR ON CENTER OF CONTOUR VECTOR*
%ASAXBY*%
%FSLAX23Y23*%
%MOIN*%
%OFA0B0*%
%SFA1.0B1.0*%
%ADD10C,0.049370*%
%ADD11C,0.085000*%
%ADD12C,0.080000*%
%ADD13C,0.084000*%
%ADD14C,0.082917*%
%ADD15C,0.135984*%
%ADD16C,0.175354*%
%ADD17C,0.092000*%
%ADD18C,0.088000*%
%ADD19C,0.061496*%
%ADD20C,0.089370*%
%ADD21C,0.072992*%
%ADD22C,0.109055*%
%ADD23R,0.085000X0.085000*%
%ADD24R,0.080000X0.080000*%
%ADD25R,0.084000X0.084000*%
%ADD26R,0.092000X0.092000*%
%ADD27R,0.089370X0.089370*%
%ADD28R,0.072992X0.072992*%
%ADD29R,0.109055X0.109055*%
%ADD30R,0.001000X0.001000*%
%LNMASK1*%
G90*
G70*
G54D10*
X316Y678D03*
X1241Y1478D03*
X3316Y1603D03*
X2866Y1503D03*
X2141Y1678D03*
X1691Y1628D03*
X541Y1228D03*
X266Y1228D03*
X1241Y428D03*
X1066Y428D03*
X166Y2653D03*
X3716Y303D03*
X641Y378D03*
X2541Y2903D03*
X2891Y278D03*
G54D11*
X216Y1053D03*
X516Y1053D03*
X216Y953D03*
X516Y953D03*
X216Y853D03*
X516Y853D03*
X216Y753D03*
X516Y753D03*
X216Y653D03*
X516Y653D03*
X216Y553D03*
X516Y553D03*
X216Y453D03*
X516Y453D03*
X216Y353D03*
X516Y353D03*
X216Y253D03*
X516Y253D03*
G54D10*
X2816Y1878D03*
X2766Y1828D03*
X1216Y1628D03*
X1316Y1628D03*
G54D12*
X3591Y3003D03*
X3591Y2503D03*
X3491Y3003D03*
X3491Y2503D03*
X3391Y3003D03*
X3391Y2503D03*
X3291Y3003D03*
X3291Y2503D03*
X3191Y3003D03*
X3191Y2503D03*
X3091Y3003D03*
X3091Y2503D03*
X2991Y3003D03*
X2991Y2503D03*
X2891Y3003D03*
X2891Y2503D03*
G54D10*
X3516Y1828D03*
G54D11*
X3116Y728D03*
X3116Y1028D03*
X3216Y728D03*
X3216Y1028D03*
X3316Y728D03*
X3316Y1028D03*
X3416Y728D03*
X3416Y1028D03*
G54D13*
X891Y2278D03*
X891Y2178D03*
X891Y2078D03*
X891Y1978D03*
X891Y1878D03*
X891Y1778D03*
X891Y1678D03*
X891Y1578D03*
X891Y1478D03*
X891Y1378D03*
X891Y1278D03*
X891Y1178D03*
X891Y1078D03*
X891Y978D03*
X891Y878D03*
X891Y778D03*
X891Y678D03*
X891Y578D03*
X891Y478D03*
X891Y378D03*
X791Y2278D03*
X791Y2178D03*
X791Y2078D03*
X791Y1978D03*
X791Y1878D03*
X791Y1778D03*
X791Y1678D03*
X791Y1578D03*
X791Y1478D03*
X791Y1378D03*
X791Y1278D03*
X791Y1178D03*
X791Y1078D03*
X791Y978D03*
X791Y878D03*
X791Y778D03*
X791Y678D03*
X791Y578D03*
X791Y478D03*
X791Y378D03*
G54D14*
X2991Y1228D03*
X1391Y1228D03*
X3091Y1228D03*
X3191Y1228D03*
X3291Y1228D03*
X3391Y1228D03*
X3691Y2628D03*
X3491Y1228D03*
X3591Y1228D03*
X1431Y3128D03*
X1991Y1228D03*
X2091Y1228D03*
X2191Y1228D03*
X2291Y1228D03*
X3691Y1828D03*
X2391Y1228D03*
X2491Y1228D03*
X2591Y1228D03*
X2691Y1228D03*
X2191Y3128D03*
X3691Y3028D03*
X3691Y2228D03*
X3691Y1428D03*
X1031Y3128D03*
X1791Y1228D03*
X1791Y3128D03*
X3691Y2828D03*
X3691Y2428D03*
X3691Y2028D03*
X3391Y3128D03*
X3691Y1628D03*
X3291Y3128D03*
X3191Y3128D03*
X3091Y3128D03*
X2991Y3128D03*
X2891Y3128D03*
X2791Y3128D03*
X2691Y3128D03*
X831Y3128D03*
X1231Y3128D03*
X1631Y3128D03*
X1191Y1228D03*
X1591Y1228D03*
X2391Y3128D03*
X1991Y3128D03*
X3691Y3128D03*
X3691Y2928D03*
X3691Y2728D03*
X3691Y2528D03*
X3691Y2328D03*
X3691Y2128D03*
X3691Y1928D03*
X3691Y1728D03*
X3691Y1528D03*
X731Y3128D03*
X931Y3128D03*
X1131Y3128D03*
X1331Y3128D03*
X1531Y3128D03*
X1091Y1228D03*
X1291Y1228D03*
X1491Y1228D03*
X1691Y1228D03*
X2491Y3128D03*
X2291Y3128D03*
X2091Y3128D03*
X1891Y3128D03*
X3791Y3128D03*
X3791Y3028D03*
X3791Y2928D03*
X3791Y2828D03*
X3791Y2728D03*
X3791Y2628D03*
X3791Y2528D03*
X3791Y2428D03*
X3791Y2328D03*
X3791Y2228D03*
X3791Y2128D03*
X3791Y2028D03*
X3791Y1928D03*
X3791Y1828D03*
X3791Y1728D03*
X3791Y1628D03*
X3791Y1528D03*
X3791Y1428D03*
X2891Y1228D03*
G54D15*
X3766Y1228D03*
X3541Y3128D03*
G54D16*
X141Y3053D03*
G54D17*
X1491Y2428D03*
X1391Y2428D03*
X1291Y2428D03*
X1491Y2928D03*
X1391Y2928D03*
X1291Y2928D03*
X1491Y2678D03*
X1391Y2678D03*
X1291Y2678D03*
X1491Y2178D03*
X1391Y2178D03*
X1291Y2178D03*
G54D12*
X1191Y1378D03*
X1391Y1378D03*
G54D11*
X1191Y678D03*
X1191Y1078D03*
G54D17*
X2516Y3328D03*
X2516Y3626D03*
G54D11*
X316Y1928D03*
X316Y1528D03*
G54D16*
X141Y2153D03*
G54D18*
X616Y2853D03*
X616Y2753D03*
X616Y2653D03*
X616Y2553D03*
X616Y2453D03*
X616Y2353D03*
X3566Y528D03*
X3566Y628D03*
X3566Y728D03*
X3566Y1078D03*
X3566Y978D03*
X3566Y878D03*
X2791Y2828D03*
X2791Y2728D03*
X2791Y2628D03*
G54D11*
X2991Y603D03*
X3391Y603D03*
X2991Y503D03*
X3391Y503D03*
G54D18*
X2991Y403D03*
X3091Y403D03*
X3266Y403D03*
X3366Y403D03*
G54D11*
X3591Y1453D03*
X3191Y1453D03*
X2366Y3028D03*
X2366Y2628D03*
X2266Y3028D03*
X2266Y2628D03*
X3566Y2028D03*
X3166Y2028D03*
X3591Y1753D03*
X3191Y1753D03*
X2166Y3028D03*
X2166Y2628D03*
X1716Y2153D03*
X1716Y2553D03*
X3566Y2328D03*
X3166Y2328D03*
G54D17*
X2666Y3703D03*
X2766Y3703D03*
X2866Y3703D03*
G54D12*
X3041Y3728D03*
X3241Y3728D03*
X2891Y3528D03*
X2891Y3328D03*
X3091Y3428D03*
X3091Y3628D03*
X2691Y3528D03*
X2691Y3328D03*
G54D17*
X3241Y3628D03*
X3241Y3330D03*
G54D19*
X3391Y3428D03*
X3391Y3723D03*
X3391Y3428D03*
X3391Y3723D03*
G54D20*
X3066Y1453D03*
X2766Y1453D03*
X3066Y1553D03*
X2766Y1553D03*
X3066Y1653D03*
X2766Y1653D03*
X3066Y1753D03*
X2766Y1753D03*
X3066Y2053D03*
X2766Y2053D03*
X3066Y2153D03*
X2766Y2153D03*
X3066Y2253D03*
X2766Y2253D03*
X3066Y2353D03*
X2766Y2353D03*
G54D11*
X3591Y1553D03*
X3191Y1553D03*
X1866Y3028D03*
X1866Y2628D03*
X1966Y3028D03*
X1966Y2628D03*
X3566Y2128D03*
X3166Y2128D03*
X3591Y1653D03*
X3191Y1653D03*
X2066Y3028D03*
X2066Y2628D03*
X1766Y3028D03*
X1766Y2628D03*
X3566Y2228D03*
X3166Y2228D03*
G54D12*
X3366Y1353D03*
X3166Y1353D03*
G54D11*
X2066Y1403D03*
X2066Y1903D03*
G54D12*
X1916Y2328D03*
X2116Y2328D03*
G54D11*
X2591Y2503D03*
X2591Y3003D03*
X2191Y1903D03*
X2191Y1403D03*
X2466Y3003D03*
X2466Y2503D03*
X2416Y1778D03*
X2416Y1378D03*
X2266Y2103D03*
X2266Y2503D03*
X2316Y1778D03*
X2316Y1378D03*
X2366Y2103D03*
X2366Y2503D03*
G54D21*
X2518Y1703D03*
X2616Y1703D03*
X2493Y2303D03*
X2591Y2303D03*
X2518Y1503D03*
X2616Y1503D03*
X2493Y2103D03*
X2591Y2103D03*
G54D11*
X1741Y1853D03*
X1741Y1453D03*
X2166Y578D03*
X1766Y578D03*
X1666Y628D03*
X1266Y628D03*
G54D12*
X1866Y828D03*
X1866Y1028D03*
X1666Y378D03*
X1466Y378D03*
X1291Y828D03*
X1291Y1028D03*
X1341Y378D03*
X1141Y378D03*
G54D11*
X1766Y678D03*
X1766Y1078D03*
X1541Y678D03*
X1541Y1078D03*
G54D17*
X2091Y778D03*
X2091Y1076D03*
X1391Y1078D03*
X1391Y780D03*
X1641Y778D03*
X1641Y1076D03*
X1066Y778D03*
X1066Y1076D03*
X1966Y1403D03*
X1966Y1701D03*
X1966Y1078D03*
X1966Y780D03*
G54D12*
X2866Y828D03*
X2866Y1028D03*
X566Y1603D03*
X566Y1803D03*
X2316Y828D03*
X2316Y1028D03*
X766Y2853D03*
X766Y2653D03*
X416Y1653D03*
X416Y1853D03*
X2666Y578D03*
X2866Y578D03*
X2541Y603D03*
X2341Y603D03*
G54D11*
X2766Y678D03*
X2766Y1078D03*
X2216Y678D03*
X2216Y1078D03*
G54D17*
X2966Y778D03*
X2966Y1076D03*
X2541Y778D03*
X2541Y1076D03*
X2666Y1078D03*
X2666Y780D03*
X2416Y1078D03*
X2416Y780D03*
G54D11*
X2916Y1328D03*
X2516Y1328D03*
G54D12*
X1441Y1453D03*
X1441Y1653D03*
X1541Y1653D03*
X1541Y1453D03*
G54D11*
X1641Y1853D03*
X1641Y1453D03*
G54D17*
X1841Y1403D03*
X1841Y1701D03*
G54D11*
X1091Y3253D03*
X691Y3253D03*
X1266Y3253D03*
X1666Y3253D03*
X1091Y3553D03*
X691Y3553D03*
X1265Y3552D03*
X1665Y3552D03*
G54D21*
X542Y3281D03*
X542Y3379D03*
X1816Y3305D03*
X1816Y3403D03*
X542Y3481D03*
X542Y3579D03*
X1816Y3505D03*
X1816Y3603D03*
G54D17*
X91Y3653D03*
X389Y3653D03*
X2091Y3728D03*
X1793Y3728D03*
X91Y3778D03*
X389Y3778D03*
X2391Y3378D03*
X2391Y3676D03*
X341Y3303D03*
X241Y3303D03*
X141Y3303D03*
X2016Y3303D03*
X2116Y3303D03*
X2216Y3303D03*
X342Y3529D03*
X242Y3529D03*
X142Y3529D03*
X2016Y3528D03*
X2116Y3528D03*
X2216Y3528D03*
G54D11*
X1091Y3353D03*
X691Y3353D03*
X1265Y3352D03*
X1665Y3352D03*
X1091Y3653D03*
X691Y3653D03*
X1265Y3652D03*
X1665Y3652D03*
X1091Y3453D03*
X691Y3453D03*
X1265Y3452D03*
X1665Y3452D03*
X1091Y3778D03*
X691Y3778D03*
X1266Y3778D03*
X1666Y3778D03*
G54D22*
X3641Y3678D03*
X3641Y3481D03*
G54D23*
X216Y1053D03*
G54D24*
X2891Y2503D03*
X3491Y2503D03*
G54D23*
X3116Y728D03*
G54D25*
X791Y2278D03*
G54D26*
X1491Y2428D03*
X1491Y2928D03*
X1491Y2678D03*
X1491Y2178D03*
X2516Y3327D03*
X2666Y3703D03*
X3241Y3629D03*
G54D27*
X3066Y1453D03*
X3066Y2053D03*
G54D28*
X2518Y1703D03*
X2493Y2303D03*
X2518Y1503D03*
X2493Y2103D03*
G54D26*
X2091Y777D03*
X1391Y1079D03*
X1641Y777D03*
X1066Y777D03*
X1966Y1402D03*
X1966Y1079D03*
X2966Y777D03*
X2541Y777D03*
X2666Y1079D03*
X2416Y1079D03*
X1841Y1402D03*
G54D28*
X542Y3281D03*
X1816Y3305D03*
X542Y3481D03*
X1816Y3505D03*
G54D26*
X90Y3653D03*
X2092Y3728D03*
X90Y3778D03*
X2391Y3377D03*
X341Y3303D03*
X2016Y3303D03*
X342Y3529D03*
X2016Y3528D03*
G54D29*
X3641Y3678D03*
G54D30*
X136Y1918D02*
X146Y1918D01*
X132Y1917D02*
X150Y1917D01*
X129Y1916D02*
X153Y1916D01*
X126Y1915D02*
X155Y1915D01*
X124Y1914D02*
X157Y1914D01*
X123Y1913D02*
X159Y1913D01*
X121Y1912D02*
X160Y1912D01*
X120Y1911D02*
X162Y1911D01*
X118Y1910D02*
X163Y1910D01*
X117Y1909D02*
X164Y1909D01*
X116Y1908D02*
X166Y1908D01*
X115Y1907D02*
X167Y1907D01*
X114Y1906D02*
X168Y1906D01*
X113Y1905D02*
X169Y1905D01*
X112Y1904D02*
X170Y1904D01*
X111Y1903D02*
X170Y1903D01*
X110Y1902D02*
X171Y1902D01*
X109Y1901D02*
X172Y1901D01*
X109Y1900D02*
X173Y1900D01*
X108Y1899D02*
X173Y1899D01*
X107Y1898D02*
X174Y1898D01*
X107Y1897D02*
X175Y1897D01*
X106Y1896D02*
X175Y1896D01*
X106Y1895D02*
X176Y1895D01*
X105Y1894D02*
X176Y1894D01*
X105Y1893D02*
X177Y1893D01*
X104Y1892D02*
X177Y1892D01*
X104Y1891D02*
X178Y1891D01*
X103Y1890D02*
X178Y1890D01*
X103Y1889D02*
X178Y1889D01*
X103Y1888D02*
X179Y1888D01*
X102Y1887D02*
X179Y1887D01*
X102Y1886D02*
X179Y1886D01*
X102Y1885D02*
X179Y1885D01*
X102Y1884D02*
X180Y1884D01*
X102Y1883D02*
X180Y1883D01*
X101Y1882D02*
X180Y1882D01*
X101Y1881D02*
X180Y1881D01*
X101Y1880D02*
X180Y1880D01*
X101Y1879D02*
X180Y1879D01*
X101Y1878D02*
X180Y1878D01*
X101Y1877D02*
X180Y1877D01*
X101Y1876D02*
X180Y1876D01*
X101Y1875D02*
X180Y1875D01*
X102Y1874D02*
X180Y1874D01*
X102Y1873D02*
X180Y1873D01*
X102Y1872D02*
X179Y1872D01*
X102Y1871D02*
X179Y1871D01*
X102Y1870D02*
X179Y1870D01*
X103Y1869D02*
X179Y1869D01*
X103Y1868D02*
X178Y1868D01*
X103Y1867D02*
X178Y1867D01*
X104Y1866D02*
X178Y1866D01*
X104Y1865D02*
X177Y1865D01*
X105Y1864D02*
X177Y1864D01*
X105Y1863D02*
X176Y1863D01*
X106Y1862D02*
X176Y1862D01*
X106Y1861D02*
X175Y1861D01*
X107Y1860D02*
X175Y1860D01*
X107Y1859D02*
X174Y1859D01*
X108Y1858D02*
X173Y1858D01*
X109Y1857D02*
X173Y1857D01*
X109Y1856D02*
X172Y1856D01*
X110Y1855D02*
X171Y1855D01*
X111Y1854D02*
X170Y1854D01*
X112Y1853D02*
X169Y1853D01*
X113Y1852D02*
X169Y1852D01*
X114Y1851D02*
X168Y1851D01*
X115Y1850D02*
X167Y1850D01*
X116Y1849D02*
X165Y1849D01*
X117Y1848D02*
X164Y1848D01*
X118Y1847D02*
X163Y1847D01*
X120Y1846D02*
X162Y1846D01*
X121Y1845D02*
X160Y1845D01*
X123Y1844D02*
X159Y1844D01*
X125Y1843D02*
X157Y1843D01*
X126Y1842D02*
X155Y1842D01*
X129Y1841D02*
X153Y1841D01*
X132Y1840D02*
X150Y1840D01*
X136Y1839D02*
X145Y1839D01*
X136Y1818D02*
X146Y1818D01*
X132Y1817D02*
X150Y1817D01*
X129Y1816D02*
X153Y1816D01*
X126Y1815D02*
X155Y1815D01*
X124Y1814D02*
X157Y1814D01*
X123Y1813D02*
X159Y1813D01*
X121Y1812D02*
X160Y1812D01*
X120Y1811D02*
X162Y1811D01*
X118Y1810D02*
X163Y1810D01*
X117Y1809D02*
X164Y1809D01*
X116Y1808D02*
X166Y1808D01*
X115Y1807D02*
X167Y1807D01*
X114Y1806D02*
X168Y1806D01*
X113Y1805D02*
X169Y1805D01*
X112Y1804D02*
X170Y1804D01*
X111Y1803D02*
X170Y1803D01*
X110Y1802D02*
X171Y1802D01*
X109Y1801D02*
X172Y1801D01*
X109Y1800D02*
X173Y1800D01*
X108Y1799D02*
X173Y1799D01*
X107Y1798D02*
X174Y1798D01*
X107Y1797D02*
X175Y1797D01*
X106Y1796D02*
X175Y1796D01*
X106Y1795D02*
X176Y1795D01*
X105Y1794D02*
X176Y1794D01*
X105Y1793D02*
X177Y1793D01*
X104Y1792D02*
X177Y1792D01*
X104Y1791D02*
X178Y1791D01*
X103Y1790D02*
X178Y1790D01*
X103Y1789D02*
X178Y1789D01*
X103Y1788D02*
X179Y1788D01*
X102Y1787D02*
X179Y1787D01*
X102Y1786D02*
X179Y1786D01*
X102Y1785D02*
X179Y1785D01*
X102Y1784D02*
X180Y1784D01*
X102Y1783D02*
X180Y1783D01*
X101Y1782D02*
X180Y1782D01*
X101Y1781D02*
X180Y1781D01*
X101Y1780D02*
X180Y1780D01*
X101Y1779D02*
X180Y1779D01*
X101Y1778D02*
X180Y1778D01*
X101Y1777D02*
X180Y1777D01*
X101Y1776D02*
X180Y1776D01*
X101Y1775D02*
X180Y1775D01*
X102Y1774D02*
X180Y1774D01*
X102Y1773D02*
X180Y1773D01*
X102Y1772D02*
X179Y1772D01*
X102Y1771D02*
X179Y1771D01*
X102Y1770D02*
X179Y1770D01*
X103Y1769D02*
X179Y1769D01*
X103Y1768D02*
X178Y1768D01*
X103Y1767D02*
X178Y1767D01*
X104Y1766D02*
X178Y1766D01*
X104Y1765D02*
X177Y1765D01*
X105Y1764D02*
X177Y1764D01*
X105Y1763D02*
X176Y1763D01*
X106Y1762D02*
X176Y1762D01*
X106Y1761D02*
X175Y1761D01*
X107Y1760D02*
X175Y1760D01*
X107Y1759D02*
X174Y1759D01*
X108Y1758D02*
X173Y1758D01*
X109Y1757D02*
X173Y1757D01*
X109Y1756D02*
X172Y1756D01*
X110Y1755D02*
X171Y1755D01*
X111Y1754D02*
X170Y1754D01*
X112Y1753D02*
X169Y1753D01*
X113Y1752D02*
X169Y1752D01*
X114Y1751D02*
X168Y1751D01*
X115Y1750D02*
X167Y1750D01*
X116Y1749D02*
X165Y1749D01*
X117Y1748D02*
X164Y1748D01*
X118Y1747D02*
X163Y1747D01*
X120Y1746D02*
X162Y1746D01*
X121Y1745D02*
X160Y1745D01*
X123Y1744D02*
X159Y1744D01*
X125Y1743D02*
X157Y1743D01*
X126Y1742D02*
X155Y1742D01*
X129Y1741D02*
X153Y1741D01*
X132Y1740D02*
X150Y1740D01*
X136Y1739D02*
X145Y1739D01*
X136Y1718D02*
X146Y1718D01*
X132Y1717D02*
X150Y1717D01*
X129Y1716D02*
X153Y1716D01*
X126Y1715D02*
X155Y1715D01*
X124Y1714D02*
X157Y1714D01*
X123Y1713D02*
X159Y1713D01*
X121Y1712D02*
X160Y1712D01*
X120Y1711D02*
X162Y1711D01*
X118Y1710D02*
X163Y1710D01*
X117Y1709D02*
X164Y1709D01*
X116Y1708D02*
X166Y1708D01*
X115Y1707D02*
X167Y1707D01*
X114Y1706D02*
X168Y1706D01*
X113Y1705D02*
X169Y1705D01*
X112Y1704D02*
X170Y1704D01*
X111Y1703D02*
X170Y1703D01*
X110Y1702D02*
X171Y1702D01*
X109Y1701D02*
X172Y1701D01*
X109Y1700D02*
X173Y1700D01*
X108Y1699D02*
X173Y1699D01*
X107Y1698D02*
X174Y1698D01*
X107Y1697D02*
X175Y1697D01*
X106Y1696D02*
X175Y1696D01*
X106Y1695D02*
X176Y1695D01*
X105Y1694D02*
X176Y1694D01*
X105Y1693D02*
X177Y1693D01*
X104Y1692D02*
X177Y1692D01*
X104Y1691D02*
X178Y1691D01*
X103Y1690D02*
X178Y1690D01*
X103Y1689D02*
X178Y1689D01*
X103Y1688D02*
X179Y1688D01*
X102Y1687D02*
X179Y1687D01*
X102Y1686D02*
X179Y1686D01*
X102Y1685D02*
X179Y1685D01*
X102Y1684D02*
X180Y1684D01*
X102Y1683D02*
X180Y1683D01*
X101Y1682D02*
X180Y1682D01*
X101Y1681D02*
X180Y1681D01*
X101Y1680D02*
X180Y1680D01*
X101Y1679D02*
X180Y1679D01*
X101Y1678D02*
X180Y1678D01*
X101Y1677D02*
X180Y1677D01*
X101Y1676D02*
X180Y1676D01*
X101Y1675D02*
X180Y1675D01*
X102Y1674D02*
X180Y1674D01*
X102Y1673D02*
X180Y1673D01*
X102Y1672D02*
X179Y1672D01*
X102Y1671D02*
X179Y1671D01*
X102Y1670D02*
X179Y1670D01*
X103Y1669D02*
X179Y1669D01*
X103Y1668D02*
X178Y1668D01*
X103Y1667D02*
X178Y1667D01*
X104Y1666D02*
X178Y1666D01*
X104Y1665D02*
X177Y1665D01*
X105Y1664D02*
X177Y1664D01*
X105Y1663D02*
X176Y1663D01*
X106Y1662D02*
X176Y1662D01*
X106Y1661D02*
X175Y1661D01*
X107Y1660D02*
X175Y1660D01*
X107Y1659D02*
X174Y1659D01*
X108Y1658D02*
X173Y1658D01*
X109Y1657D02*
X173Y1657D01*
X109Y1656D02*
X172Y1656D01*
X110Y1655D02*
X171Y1655D01*
X111Y1654D02*
X170Y1654D01*
X112Y1653D02*
X169Y1653D01*
X113Y1652D02*
X169Y1652D01*
X114Y1651D02*
X168Y1651D01*
X115Y1650D02*
X167Y1650D01*
X116Y1649D02*
X165Y1649D01*
X117Y1648D02*
X164Y1648D01*
X118Y1647D02*
X163Y1647D01*
X120Y1646D02*
X162Y1646D01*
X121Y1645D02*
X160Y1645D01*
X123Y1644D02*
X159Y1644D01*
X125Y1643D02*
X157Y1643D01*
X126Y1642D02*
X155Y1642D01*
X129Y1641D02*
X153Y1641D01*
X132Y1640D02*
X150Y1640D01*
X136Y1639D02*
X145Y1639D01*
X136Y1618D02*
X146Y1618D01*
X132Y1617D02*
X150Y1617D01*
X129Y1616D02*
X153Y1616D01*
X126Y1615D02*
X155Y1615D01*
X124Y1614D02*
X157Y1614D01*
X123Y1613D02*
X159Y1613D01*
X121Y1612D02*
X160Y1612D01*
X120Y1611D02*
X162Y1611D01*
X118Y1610D02*
X163Y1610D01*
X117Y1609D02*
X164Y1609D01*
X116Y1608D02*
X166Y1608D01*
X115Y1607D02*
X167Y1607D01*
X114Y1606D02*
X168Y1606D01*
X113Y1605D02*
X169Y1605D01*
X112Y1604D02*
X170Y1604D01*
X111Y1603D02*
X170Y1603D01*
X110Y1602D02*
X171Y1602D01*
X109Y1601D02*
X172Y1601D01*
X109Y1600D02*
X173Y1600D01*
X108Y1599D02*
X173Y1599D01*
X107Y1598D02*
X174Y1598D01*
X107Y1597D02*
X175Y1597D01*
X106Y1596D02*
X175Y1596D01*
X106Y1595D02*
X176Y1595D01*
X105Y1594D02*
X176Y1594D01*
X105Y1593D02*
X177Y1593D01*
X104Y1592D02*
X177Y1592D01*
X104Y1591D02*
X178Y1591D01*
X103Y1590D02*
X178Y1590D01*
X103Y1589D02*
X178Y1589D01*
X103Y1588D02*
X179Y1588D01*
X102Y1587D02*
X179Y1587D01*
X102Y1586D02*
X179Y1586D01*
X102Y1585D02*
X179Y1585D01*
X102Y1584D02*
X180Y1584D01*
X102Y1583D02*
X180Y1583D01*
X101Y1582D02*
X180Y1582D01*
X101Y1581D02*
X180Y1581D01*
X101Y1580D02*
X180Y1580D01*
X101Y1579D02*
X180Y1579D01*
X101Y1578D02*
X180Y1578D01*
X101Y1577D02*
X180Y1577D01*
X101Y1576D02*
X180Y1576D01*
X101Y1575D02*
X180Y1575D01*
X102Y1574D02*
X180Y1574D01*
X102Y1573D02*
X180Y1573D01*
X102Y1572D02*
X179Y1572D01*
X102Y1571D02*
X179Y1571D01*
X102Y1570D02*
X179Y1570D01*
X103Y1569D02*
X179Y1569D01*
X103Y1568D02*
X178Y1568D01*
X103Y1567D02*
X178Y1567D01*
X104Y1566D02*
X178Y1566D01*
X104Y1565D02*
X177Y1565D01*
X105Y1564D02*
X177Y1564D01*
X105Y1563D02*
X176Y1563D01*
X106Y1562D02*
X176Y1562D01*
X106Y1561D02*
X175Y1561D01*
X107Y1560D02*
X175Y1560D01*
X107Y1559D02*
X174Y1559D01*
X108Y1558D02*
X173Y1558D01*
X109Y1557D02*
X173Y1557D01*
X109Y1556D02*
X172Y1556D01*
X110Y1555D02*
X171Y1555D01*
X111Y1554D02*
X170Y1554D01*
X112Y1553D02*
X169Y1553D01*
X113Y1552D02*
X169Y1552D01*
X114Y1551D02*
X168Y1551D01*
X115Y1550D02*
X167Y1550D01*
X116Y1549D02*
X165Y1549D01*
X117Y1548D02*
X164Y1548D01*
X118Y1547D02*
X163Y1547D01*
X120Y1546D02*
X162Y1546D01*
X121Y1545D02*
X160Y1545D01*
X123Y1544D02*
X159Y1544D01*
X125Y1543D02*
X157Y1543D01*
X126Y1542D02*
X155Y1542D01*
X129Y1541D02*
X153Y1541D01*
X132Y1540D02*
X150Y1540D01*
X136Y1539D02*
X145Y1539D01*
X136Y1518D02*
X146Y1518D01*
X132Y1517D02*
X150Y1517D01*
X129Y1516D02*
X153Y1516D01*
X126Y1515D02*
X155Y1515D01*
X124Y1514D02*
X157Y1514D01*
X123Y1513D02*
X159Y1513D01*
X121Y1512D02*
X160Y1512D01*
X120Y1511D02*
X162Y1511D01*
X118Y1510D02*
X163Y1510D01*
X117Y1509D02*
X164Y1509D01*
X116Y1508D02*
X166Y1508D01*
X115Y1507D02*
X167Y1507D01*
X114Y1506D02*
X168Y1506D01*
X113Y1505D02*
X169Y1505D01*
X112Y1504D02*
X170Y1504D01*
X111Y1503D02*
X170Y1503D01*
X110Y1502D02*
X171Y1502D01*
X109Y1501D02*
X172Y1501D01*
X109Y1500D02*
X173Y1500D01*
X108Y1499D02*
X173Y1499D01*
X107Y1498D02*
X174Y1498D01*
X107Y1497D02*
X175Y1497D01*
X106Y1496D02*
X175Y1496D01*
X106Y1495D02*
X176Y1495D01*
X105Y1494D02*
X176Y1494D01*
X105Y1493D02*
X177Y1493D01*
X104Y1492D02*
X177Y1492D01*
X104Y1491D02*
X178Y1491D01*
X103Y1490D02*
X178Y1490D01*
X103Y1489D02*
X178Y1489D01*
X103Y1488D02*
X179Y1488D01*
X102Y1487D02*
X179Y1487D01*
X102Y1486D02*
X179Y1486D01*
X102Y1485D02*
X179Y1485D01*
X102Y1484D02*
X180Y1484D01*
X102Y1483D02*
X180Y1483D01*
X101Y1482D02*
X180Y1482D01*
X101Y1481D02*
X180Y1481D01*
X101Y1480D02*
X180Y1480D01*
X101Y1479D02*
X180Y1479D01*
X101Y1478D02*
X180Y1478D01*
X101Y1477D02*
X180Y1477D01*
X101Y1476D02*
X180Y1476D01*
X101Y1475D02*
X180Y1475D01*
X102Y1474D02*
X180Y1474D01*
X102Y1473D02*
X180Y1473D01*
X102Y1472D02*
X179Y1472D01*
X102Y1471D02*
X179Y1471D01*
X102Y1470D02*
X179Y1470D01*
X103Y1469D02*
X179Y1469D01*
X103Y1468D02*
X178Y1468D01*
X103Y1467D02*
X178Y1467D01*
X104Y1466D02*
X178Y1466D01*
X104Y1465D02*
X177Y1465D01*
X105Y1464D02*
X177Y1464D01*
X105Y1463D02*
X176Y1463D01*
X106Y1462D02*
X176Y1462D01*
X106Y1461D02*
X175Y1461D01*
X107Y1460D02*
X175Y1460D01*
X107Y1459D02*
X174Y1459D01*
X108Y1458D02*
X173Y1458D01*
X109Y1457D02*
X173Y1457D01*
X109Y1456D02*
X172Y1456D01*
X110Y1455D02*
X171Y1455D01*
X111Y1454D02*
X170Y1454D01*
X112Y1453D02*
X169Y1453D01*
X113Y1452D02*
X169Y1452D01*
X114Y1451D02*
X168Y1451D01*
X115Y1450D02*
X167Y1450D01*
X116Y1449D02*
X165Y1449D01*
X117Y1448D02*
X164Y1448D01*
X118Y1447D02*
X163Y1447D01*
X120Y1446D02*
X162Y1446D01*
X121Y1445D02*
X160Y1445D01*
X123Y1444D02*
X159Y1444D01*
X125Y1443D02*
X157Y1443D01*
X126Y1442D02*
X155Y1442D01*
X129Y1441D02*
X153Y1441D01*
X132Y1440D02*
X150Y1440D01*
X136Y1439D02*
X145Y1439D01*
X136Y1418D02*
X146Y1418D01*
X132Y1417D02*
X150Y1417D01*
X129Y1416D02*
X153Y1416D01*
X126Y1415D02*
X155Y1415D01*
X124Y1414D02*
X157Y1414D01*
X123Y1413D02*
X159Y1413D01*
X121Y1412D02*
X160Y1412D01*
X120Y1411D02*
X162Y1411D01*
X118Y1410D02*
X163Y1410D01*
X117Y1409D02*
X164Y1409D01*
X116Y1408D02*
X166Y1408D01*
X115Y1407D02*
X167Y1407D01*
X114Y1406D02*
X168Y1406D01*
X113Y1405D02*
X169Y1405D01*
X112Y1404D02*
X170Y1404D01*
X111Y1403D02*
X170Y1403D01*
X110Y1402D02*
X171Y1402D01*
X109Y1401D02*
X172Y1401D01*
X109Y1400D02*
X173Y1400D01*
X108Y1399D02*
X173Y1399D01*
X107Y1398D02*
X174Y1398D01*
X107Y1397D02*
X175Y1397D01*
X106Y1396D02*
X175Y1396D01*
X106Y1395D02*
X176Y1395D01*
X105Y1394D02*
X176Y1394D01*
X105Y1393D02*
X177Y1393D01*
X104Y1392D02*
X177Y1392D01*
X104Y1391D02*
X178Y1391D01*
X103Y1390D02*
X178Y1390D01*
X103Y1389D02*
X178Y1389D01*
X103Y1388D02*
X179Y1388D01*
X102Y1387D02*
X179Y1387D01*
X102Y1386D02*
X179Y1386D01*
X102Y1385D02*
X179Y1385D01*
X102Y1384D02*
X180Y1384D01*
X102Y1383D02*
X180Y1383D01*
X101Y1382D02*
X180Y1382D01*
X101Y1381D02*
X180Y1381D01*
X101Y1380D02*
X180Y1380D01*
X101Y1379D02*
X180Y1379D01*
X101Y1378D02*
X180Y1378D01*
X101Y1377D02*
X180Y1377D01*
X101Y1376D02*
X180Y1376D01*
X101Y1375D02*
X180Y1375D01*
X102Y1374D02*
X180Y1374D01*
X102Y1373D02*
X180Y1373D01*
X102Y1372D02*
X179Y1372D01*
X102Y1371D02*
X179Y1371D01*
X102Y1370D02*
X179Y1370D01*
X103Y1369D02*
X179Y1369D01*
X103Y1368D02*
X178Y1368D01*
X103Y1367D02*
X178Y1367D01*
X104Y1366D02*
X178Y1366D01*
X104Y1365D02*
X177Y1365D01*
X105Y1364D02*
X177Y1364D01*
X105Y1363D02*
X176Y1363D01*
X106Y1362D02*
X176Y1362D01*
X106Y1361D02*
X175Y1361D01*
X107Y1360D02*
X175Y1360D01*
X107Y1359D02*
X174Y1359D01*
X108Y1358D02*
X173Y1358D01*
X109Y1357D02*
X173Y1357D01*
X109Y1356D02*
X172Y1356D01*
X110Y1355D02*
X171Y1355D01*
X111Y1354D02*
X170Y1354D01*
X112Y1353D02*
X169Y1353D01*
X113Y1352D02*
X169Y1352D01*
X114Y1351D02*
X168Y1351D01*
X115Y1350D02*
X167Y1350D01*
X116Y1349D02*
X165Y1349D01*
X117Y1348D02*
X164Y1348D01*
X118Y1347D02*
X163Y1347D01*
X120Y1346D02*
X162Y1346D01*
X121Y1345D02*
X160Y1345D01*
X123Y1344D02*
X159Y1344D01*
X125Y1343D02*
X157Y1343D01*
X126Y1342D02*
X155Y1342D01*
X129Y1341D02*
X153Y1341D01*
X132Y1340D02*
X150Y1340D01*
X136Y1339D02*
X145Y1339D01*
D02*
G04 End of Mask1*
M02*