G04 MADE WITH FRITZING*
G04 WWW.FRITZING.ORG*
G04 DOUBLE SIDED*
G04 HOLES PLATED*
G04 CONTOUR ON CENTER OF CONTOUR VECTOR*
%ASAXBY*%
%FSLAX23Y23*%
%MOIN*%
%OFA0B0*%
%SFA1.0B1.0*%
%ADD10C,0.084000*%
%ADD11C,0.175354*%
%ADD12C,0.049370*%
%ADD13C,0.085000*%
%ADD14C,0.080000*%
%ADD15C,0.088000*%
%ADD16C,0.140000*%
%ADD17C,0.082917*%
%ADD18C,0.135984*%
%ADD19C,0.092000*%
%ADD20C,0.061496*%
%ADD21C,0.089370*%
%ADD22C,0.072992*%
%ADD23C,0.109055*%
%ADD24R,0.084000X0.084000*%
%ADD25R,0.080000X0.080000*%
%ADD26R,0.085000X0.085000*%
%ADD27R,0.092000X0.092000*%
%ADD28R,0.089370X0.089370*%
%ADD29R,0.072992X0.072992*%
%ADD30R,0.109055X0.109055*%
%LNMASK0*%
G90*
G70*
G54D10*
X616Y2853D03*
X616Y2753D03*
X616Y2653D03*
X616Y2553D03*
X616Y2453D03*
X616Y2353D03*
G54D11*
X144Y3058D03*
X144Y2148D03*
G54D10*
X616Y2853D03*
X616Y2753D03*
X616Y2653D03*
X616Y2553D03*
X616Y2453D03*
X616Y2353D03*
G54D11*
X144Y3058D03*
X144Y2148D03*
G54D12*
X1366Y3678D03*
X3691Y1303D03*
X3816Y1303D03*
G54D13*
X2416Y3628D03*
X2416Y3228D03*
G54D12*
X3491Y2878D03*
X3491Y2703D03*
X3491Y2578D03*
X3066Y603D03*
X3116Y853D03*
X3591Y2878D03*
X2216Y2953D03*
X2016Y2953D03*
X966Y2653D03*
X716Y2553D03*
X391Y1953D03*
X616Y2203D03*
X641Y1753D03*
X2866Y1753D03*
X2966Y2353D03*
X3391Y2378D03*
X1502Y628D03*
G54D14*
X3591Y3003D03*
X3591Y2503D03*
X3491Y3003D03*
X3491Y2503D03*
X3391Y3003D03*
X3391Y2503D03*
X3291Y3003D03*
X3291Y2503D03*
X3191Y3003D03*
X3191Y2503D03*
X3091Y3003D03*
X3091Y2503D03*
X2991Y3003D03*
X2991Y2503D03*
X2891Y3003D03*
X2891Y2503D03*
G54D12*
X3866Y2078D03*
X1591Y3603D03*
X3166Y403D03*
X3716Y428D03*
X3816Y778D03*
X891Y3278D03*
X1541Y803D03*
X1891Y1228D03*
G54D13*
X3791Y228D03*
X3791Y628D03*
X3141Y228D03*
X3541Y228D03*
G54D15*
X191Y1553D03*
X291Y1553D03*
X391Y1553D03*
X491Y1553D03*
X591Y1553D03*
X191Y253D03*
X291Y253D03*
X391Y253D03*
X491Y253D03*
X591Y253D03*
X191Y853D03*
X191Y1153D03*
X191Y353D03*
X291Y353D03*
X391Y353D03*
X491Y353D03*
X591Y353D03*
X191Y1353D03*
X191Y1253D03*
X191Y1053D03*
X191Y753D03*
X191Y453D03*
X191Y953D03*
X191Y1453D03*
X191Y653D03*
X191Y553D03*
X291Y853D03*
X291Y1153D03*
X291Y1353D03*
X291Y1253D03*
X291Y1053D03*
X291Y753D03*
X291Y453D03*
X291Y953D03*
X291Y1453D03*
X291Y653D03*
X291Y553D03*
X391Y853D03*
X391Y1153D03*
X391Y1353D03*
X391Y1253D03*
X391Y1053D03*
X391Y753D03*
X391Y453D03*
X391Y953D03*
X391Y1453D03*
X391Y653D03*
X391Y553D03*
X491Y853D03*
X491Y1153D03*
X491Y1353D03*
X491Y1253D03*
X491Y1053D03*
X491Y753D03*
X491Y453D03*
X491Y953D03*
X491Y1453D03*
X491Y653D03*
X491Y553D03*
X591Y453D03*
X591Y553D03*
X591Y653D03*
X591Y753D03*
X591Y853D03*
X591Y953D03*
X591Y1053D03*
X591Y1153D03*
X591Y1253D03*
X591Y1353D03*
X591Y1453D03*
G54D13*
X1891Y728D03*
X1891Y1028D03*
X1991Y728D03*
X1991Y1028D03*
X2091Y728D03*
X2091Y1028D03*
X2191Y728D03*
X2191Y1028D03*
G54D16*
X1241Y2628D03*
X1241Y2828D03*
X1241Y2428D03*
X1241Y2228D03*
G54D12*
X1316Y1478D03*
X3316Y1603D03*
X2866Y1503D03*
X2141Y1678D03*
X1691Y1628D03*
X1241Y378D03*
X1066Y353D03*
X166Y2653D03*
X3566Y428D03*
X2541Y2903D03*
X3066Y278D03*
X2791Y1878D03*
X2766Y1828D03*
X1241Y1628D03*
X1341Y1628D03*
X3516Y1828D03*
G54D13*
X3091Y728D03*
X3091Y1028D03*
X3191Y728D03*
X3191Y1028D03*
X3291Y728D03*
X3291Y1028D03*
X3391Y728D03*
X3391Y1028D03*
G54D10*
X891Y2278D03*
X891Y2178D03*
X891Y2078D03*
X891Y1978D03*
X891Y1878D03*
X891Y1778D03*
X891Y1678D03*
X891Y1578D03*
X891Y1478D03*
X891Y1378D03*
X891Y1278D03*
X891Y1178D03*
X891Y1078D03*
X891Y978D03*
X891Y878D03*
X891Y778D03*
X891Y678D03*
X891Y578D03*
X891Y478D03*
X891Y378D03*
X791Y2278D03*
X791Y2178D03*
X791Y2078D03*
X791Y1978D03*
X791Y1878D03*
X791Y1778D03*
X791Y1678D03*
X791Y1578D03*
X791Y1478D03*
X791Y1378D03*
X791Y1278D03*
X791Y1178D03*
X791Y1078D03*
X791Y978D03*
X791Y878D03*
X791Y778D03*
X791Y678D03*
X791Y578D03*
X791Y478D03*
X791Y378D03*
G54D17*
X2991Y1228D03*
X1391Y1228D03*
X3091Y1228D03*
X3191Y1228D03*
X3291Y1228D03*
X3391Y1228D03*
X3691Y2628D03*
X3491Y1228D03*
X3591Y1228D03*
X1431Y3128D03*
X1991Y1228D03*
X2091Y1228D03*
X2191Y1228D03*
X2291Y1228D03*
X3691Y1828D03*
X2391Y1228D03*
X2491Y1228D03*
X2591Y1228D03*
X2691Y1228D03*
X2191Y3128D03*
X3691Y3028D03*
X3691Y2228D03*
X3691Y1428D03*
X1031Y3128D03*
X1791Y1228D03*
X1791Y3128D03*
X3691Y2828D03*
X3691Y2428D03*
X3691Y2028D03*
X3391Y3128D03*
X3691Y1628D03*
X3291Y3128D03*
X3191Y3128D03*
X3091Y3128D03*
X2991Y3128D03*
X2891Y3128D03*
X2791Y3128D03*
X2691Y3128D03*
X831Y3128D03*
X1231Y3128D03*
X1631Y3128D03*
X1191Y1228D03*
X1591Y1228D03*
X2391Y3128D03*
X1991Y3128D03*
X3691Y3128D03*
X3691Y2928D03*
X3691Y2728D03*
X3691Y2528D03*
X3691Y2328D03*
X3691Y2128D03*
X3691Y1928D03*
X3691Y1728D03*
X3691Y1528D03*
X731Y3128D03*
X931Y3128D03*
X1131Y3128D03*
X1331Y3128D03*
X1531Y3128D03*
X1091Y1228D03*
X1291Y1228D03*
X1491Y1228D03*
X1691Y1228D03*
X2491Y3128D03*
X2291Y3128D03*
X2091Y3128D03*
X1891Y3128D03*
X3791Y3128D03*
X3791Y3028D03*
X3791Y2928D03*
X3791Y2828D03*
X3791Y2728D03*
X3791Y2628D03*
X3791Y2528D03*
X3791Y2428D03*
X3791Y2328D03*
X3791Y2228D03*
X3791Y2128D03*
X3791Y2028D03*
X3791Y1928D03*
X3791Y1828D03*
X3791Y1728D03*
X3791Y1628D03*
X3791Y1528D03*
X3791Y1428D03*
X2891Y1228D03*
G54D18*
X3766Y1228D03*
X3541Y3128D03*
G54D19*
X1491Y2503D03*
X1491Y2403D03*
X1491Y2303D03*
X2066Y2478D03*
X1966Y2478D03*
X1866Y2478D03*
X1491Y2928D03*
X1491Y2828D03*
X1491Y2728D03*
X2066Y2228D03*
X1966Y2228D03*
X1866Y2228D03*
G54D14*
X1191Y1378D03*
X1391Y1378D03*
G54D13*
X1291Y728D03*
X1291Y1128D03*
G54D19*
X2516Y3328D03*
X2516Y3626D03*
G54D13*
X466Y1903D03*
X66Y1903D03*
G54D15*
X3566Y528D03*
X3566Y628D03*
X3566Y728D03*
X3566Y1078D03*
X3566Y978D03*
X3566Y878D03*
X2791Y2828D03*
X2791Y2728D03*
X2791Y2628D03*
G54D13*
X2991Y603D03*
X3391Y603D03*
X2991Y503D03*
X3391Y503D03*
G54D15*
X2991Y403D03*
X3091Y403D03*
X3266Y403D03*
X3366Y403D03*
G54D13*
X3591Y1453D03*
X3191Y1453D03*
X2366Y3028D03*
X2366Y2628D03*
X2266Y3028D03*
X2266Y2628D03*
X3566Y2028D03*
X3166Y2028D03*
X3591Y1753D03*
X3191Y1753D03*
X2166Y3028D03*
X2166Y2628D03*
X1666Y2953D03*
X1666Y2553D03*
X3566Y2328D03*
X3166Y2328D03*
G54D19*
X2666Y3703D03*
X2766Y3703D03*
X2866Y3703D03*
G54D14*
X3041Y3728D03*
X3241Y3728D03*
X2891Y3528D03*
X2891Y3328D03*
X3216Y3378D03*
X3216Y3578D03*
X2691Y3528D03*
X2691Y3328D03*
G54D19*
X3066Y3628D03*
X3066Y3330D03*
G54D20*
X3391Y3403D03*
X3391Y3698D03*
G54D21*
X3066Y1453D03*
X2766Y1453D03*
X3066Y1553D03*
X2766Y1553D03*
X3066Y1653D03*
X2766Y1653D03*
X3066Y1753D03*
X2766Y1753D03*
X3066Y2053D03*
X2766Y2053D03*
X3066Y2153D03*
X2766Y2153D03*
X3066Y2253D03*
X2766Y2253D03*
X3066Y2353D03*
X2766Y2353D03*
G54D13*
X3591Y1553D03*
X3191Y1553D03*
X1866Y3028D03*
X1866Y2628D03*
X1966Y3028D03*
X1966Y2628D03*
X3566Y2128D03*
X3166Y2128D03*
X3591Y1653D03*
X3191Y1653D03*
X2066Y3028D03*
X2066Y2628D03*
X1766Y3028D03*
X1766Y2628D03*
X3566Y2228D03*
X3166Y2228D03*
G54D14*
X3366Y1353D03*
X3166Y1353D03*
G54D13*
X2066Y1378D03*
X2066Y1878D03*
G54D14*
X2666Y2103D03*
X2666Y2303D03*
G54D13*
X2591Y2503D03*
X2591Y3003D03*
X2191Y1878D03*
X2191Y1378D03*
X2466Y3003D03*
X2466Y2503D03*
X2416Y1778D03*
X2416Y1378D03*
X2266Y2103D03*
X2266Y2503D03*
X2316Y1778D03*
X2316Y1378D03*
X2366Y2103D03*
X2366Y2503D03*
G54D22*
X2518Y1703D03*
X2616Y1703D03*
X2493Y2303D03*
X2591Y2303D03*
X2518Y1503D03*
X2616Y1503D03*
X2493Y2103D03*
X2591Y2103D03*
G54D13*
X1741Y1853D03*
X1741Y1453D03*
X2141Y603D03*
X1741Y603D03*
X1641Y628D03*
X1241Y628D03*
G54D14*
X1741Y828D03*
X1741Y1028D03*
X1666Y378D03*
X1466Y378D03*
X1391Y778D03*
X1391Y978D03*
X1341Y378D03*
X1141Y378D03*
G54D13*
X1591Y703D03*
X1591Y1103D03*
X1491Y703D03*
X1491Y1103D03*
G54D19*
X1191Y778D03*
X1191Y1076D03*
G54D14*
X2866Y803D03*
X2866Y1003D03*
X291Y1678D03*
X491Y1678D03*
X2441Y828D03*
X2441Y1028D03*
X766Y2853D03*
X766Y2653D03*
X291Y1803D03*
X491Y1803D03*
X2341Y578D03*
X2541Y578D03*
X2641Y328D03*
X2441Y328D03*
G54D13*
X2766Y678D03*
X2766Y1078D03*
X2316Y678D03*
X2316Y1078D03*
X2916Y1328D03*
X2516Y1328D03*
G54D14*
X1441Y1453D03*
X1441Y1653D03*
X2591Y828D03*
X2591Y1028D03*
X3791Y1103D03*
X3791Y903D03*
X1541Y1653D03*
X1541Y1453D03*
G54D13*
X1641Y1853D03*
X1641Y1453D03*
X1091Y3253D03*
X691Y3253D03*
X1266Y3253D03*
X1666Y3253D03*
X1091Y3553D03*
X691Y3553D03*
X1266Y3553D03*
X1666Y3553D03*
G54D22*
X542Y3281D03*
X542Y3379D03*
X1816Y3305D03*
X1816Y3403D03*
X542Y3481D03*
X542Y3579D03*
X1816Y3505D03*
X1816Y3603D03*
G54D19*
X91Y3653D03*
X389Y3653D03*
X2091Y3728D03*
X1793Y3728D03*
X91Y3778D03*
X389Y3778D03*
X2491Y3728D03*
X2193Y3728D03*
X341Y3303D03*
X241Y3303D03*
X141Y3303D03*
X2016Y3303D03*
X2116Y3303D03*
X2216Y3303D03*
X342Y3529D03*
X242Y3529D03*
X142Y3529D03*
X2016Y3528D03*
X2116Y3528D03*
X2216Y3528D03*
G54D13*
X1091Y3353D03*
X691Y3353D03*
X1265Y3352D03*
X1665Y3352D03*
X1091Y3653D03*
X691Y3653D03*
X1265Y3652D03*
X1665Y3652D03*
X1091Y3453D03*
X691Y3453D03*
X1266Y3453D03*
X1666Y3453D03*
X1091Y3778D03*
X691Y3778D03*
X1266Y3778D03*
X1666Y3778D03*
G54D23*
X3641Y3678D03*
X3641Y3481D03*
G54D24*
X616Y2853D03*
X616Y2853D03*
G54D25*
X2891Y2503D03*
X3491Y2503D03*
G54D26*
X1891Y728D03*
X3091Y728D03*
G54D24*
X791Y2278D03*
G54D27*
X1491Y2503D03*
X2066Y2478D03*
X1491Y2928D03*
X2066Y2228D03*
X2516Y3327D03*
X2666Y3703D03*
X3066Y3629D03*
G54D28*
X3066Y1453D03*
X3066Y2053D03*
G54D29*
X2518Y1703D03*
X2493Y2303D03*
X2518Y1503D03*
X2493Y2103D03*
G54D27*
X1191Y777D03*
G54D29*
X542Y3281D03*
X1816Y3305D03*
X542Y3481D03*
X1816Y3505D03*
G54D27*
X90Y3653D03*
X2092Y3728D03*
X90Y3778D03*
X2492Y3728D03*
X341Y3303D03*
X2016Y3303D03*
X342Y3529D03*
X2016Y3528D03*
G54D30*
X3641Y3678D03*
G04 End of Mask0*
M02*