G04 MADE WITH FRITZING*
G04 WWW.FRITZING.ORG*
G04 DOUBLE SIDED*
G04 HOLES PLATED*
G04 CONTOUR ON CENTER OF CONTOUR VECTOR*
%ASAXBY*%
%FSLAX23Y23*%
%MOIN*%
%OFA0B0*%
%SFA1.0B1.0*%
%ADD10C,0.039370*%
%ADD11C,0.075000*%
%ADD12C,0.074000*%
%ADD13C,0.072917*%
%ADD14C,0.070000*%
%ADD15C,0.082000*%
%ADD16C,0.078000*%
%ADD17C,0.051496*%
%ADD18C,0.079370*%
%ADD19C,0.062992*%
%ADD20C,0.099055*%
%ADD21R,0.075000X0.075000*%
%ADD22R,0.074000X0.074000*%
%ADD23R,0.082000X0.082000*%
%ADD24R,0.079370X0.079370*%
%ADD25R,0.062992X0.062992*%
%ADD26R,0.099055X0.099055*%
%ADD27R,0.070000X0.070000*%
%ADD28C,0.012000*%
%ADD29C,0.024000*%
%ADD30C,0.048000*%
%ADD31C,0.032000*%
%ADD32C,0.016000*%
%ADD33C,0.008000*%
%ADD34R,0.001000X0.001000*%
%LNCOPPER1*%
G90*
G70*
G54D10*
X3466Y1903D03*
G54D11*
X3116Y728D03*
X3116Y1028D03*
X3216Y728D03*
X3216Y1028D03*
X3316Y728D03*
X3316Y1028D03*
X3416Y728D03*
X3416Y1028D03*
G54D12*
X891Y2278D03*
X891Y2178D03*
X891Y2078D03*
X891Y1978D03*
X891Y1878D03*
X891Y1778D03*
X891Y1678D03*
X891Y1578D03*
X891Y1478D03*
X891Y1378D03*
X891Y1278D03*
X891Y1178D03*
X891Y1078D03*
X891Y978D03*
X891Y878D03*
X891Y778D03*
X891Y678D03*
X891Y578D03*
X891Y478D03*
X891Y378D03*
X791Y2278D03*
X791Y2178D03*
X791Y2078D03*
X791Y1978D03*
X791Y1878D03*
X791Y1778D03*
X791Y1678D03*
X791Y1578D03*
X791Y1478D03*
X791Y1378D03*
X791Y1278D03*
X791Y1178D03*
X791Y1078D03*
X791Y978D03*
X791Y878D03*
X791Y778D03*
X791Y678D03*
X791Y578D03*
X791Y478D03*
X791Y378D03*
G54D13*
X2991Y1228D03*
X1391Y1228D03*
X3091Y1228D03*
X3191Y1228D03*
X3291Y1228D03*
X3391Y1228D03*
X3691Y2628D03*
X3491Y1228D03*
X3591Y1228D03*
X1431Y3128D03*
X1991Y1228D03*
X2091Y1228D03*
X2191Y1228D03*
X2291Y1228D03*
X3691Y1828D03*
X2391Y1228D03*
X2491Y1228D03*
X2591Y1228D03*
X2691Y1228D03*
X2191Y3128D03*
X3691Y3028D03*
X3691Y2228D03*
X3691Y1428D03*
X1031Y3128D03*
X1791Y1228D03*
X1791Y3128D03*
X3691Y2828D03*
X3691Y2428D03*
X3691Y2028D03*
X3391Y3128D03*
X3691Y1628D03*
X3291Y3128D03*
X3191Y3128D03*
X3091Y3128D03*
X2991Y3128D03*
X2891Y3128D03*
X2791Y3128D03*
X2691Y3128D03*
X831Y3128D03*
X1231Y3128D03*
X1631Y3128D03*
X1191Y1228D03*
X1591Y1228D03*
X2391Y3128D03*
X1991Y3128D03*
X3691Y3128D03*
X3691Y2928D03*
X3691Y2728D03*
X3691Y2528D03*
X3691Y2328D03*
X3691Y2128D03*
X3691Y1928D03*
X3691Y1728D03*
X3691Y1528D03*
X731Y3128D03*
X931Y3128D03*
X1131Y3128D03*
X1331Y3128D03*
X1531Y3128D03*
X1091Y1228D03*
X1291Y1228D03*
X1491Y1228D03*
X1691Y1228D03*
X2491Y3128D03*
X2291Y3128D03*
X2091Y3128D03*
X1891Y3128D03*
X3791Y3128D03*
X3791Y3028D03*
X3791Y2928D03*
X3791Y2828D03*
X3791Y2728D03*
X3791Y2628D03*
X3791Y2528D03*
X3791Y2428D03*
X3791Y2328D03*
X3791Y2228D03*
X3791Y2128D03*
X3791Y2028D03*
X3791Y1928D03*
X3791Y1828D03*
X3791Y1728D03*
X3791Y1628D03*
X3791Y1528D03*
X3791Y1428D03*
X2891Y1228D03*
G54D14*
X141Y1953D03*
X141Y1853D03*
X141Y1753D03*
X141Y1653D03*
X141Y1553D03*
X141Y1453D03*
G54D15*
X1491Y2428D03*
X1391Y2428D03*
X1291Y2428D03*
X1491Y2928D03*
X1391Y2928D03*
X1291Y2928D03*
X1491Y2678D03*
X1391Y2678D03*
X1291Y2678D03*
X1491Y2178D03*
X1391Y2178D03*
X1291Y2178D03*
G54D14*
X1166Y953D03*
X1166Y853D03*
G54D11*
X1216Y678D03*
X1216Y1078D03*
G54D15*
X2516Y3328D03*
X2516Y3626D03*
G54D11*
X316Y2003D03*
X316Y1603D03*
G54D16*
X616Y2853D03*
X616Y2753D03*
X616Y2653D03*
X616Y2553D03*
X616Y2453D03*
X616Y2353D03*
X3591Y778D03*
X3691Y778D03*
X3791Y778D03*
X3791Y978D03*
X3691Y978D03*
X3591Y978D03*
X2791Y2828D03*
X2791Y2728D03*
X2791Y2628D03*
G54D11*
X2991Y603D03*
X3391Y603D03*
X2991Y503D03*
X3391Y503D03*
G54D16*
X3591Y478D03*
X3591Y378D03*
X3791Y478D03*
X3791Y378D03*
G54D11*
X3591Y1453D03*
X3191Y1453D03*
X2366Y3028D03*
X2366Y2628D03*
X2266Y3028D03*
X2266Y2628D03*
X3566Y2028D03*
X3166Y2028D03*
X3591Y1753D03*
X3191Y1753D03*
X2166Y3028D03*
X2166Y2628D03*
X1716Y2153D03*
X1716Y2553D03*
X3566Y2328D03*
X3166Y2328D03*
G54D15*
X2666Y3703D03*
X2766Y3703D03*
X2866Y3703D03*
G54D14*
X3041Y3728D03*
X3241Y3728D03*
X2891Y3528D03*
X2891Y3328D03*
X3091Y3428D03*
X3091Y3628D03*
X2691Y3528D03*
X2691Y3328D03*
G54D15*
X3241Y3628D03*
X3241Y3330D03*
G54D17*
X3391Y3428D03*
X3391Y3723D03*
X3391Y3428D03*
X3391Y3723D03*
G54D18*
X3066Y1453D03*
X2766Y1453D03*
X3066Y1553D03*
X2766Y1553D03*
X3066Y1653D03*
X2766Y1653D03*
X3066Y1753D03*
X2766Y1753D03*
X3066Y2053D03*
X2766Y2053D03*
X3066Y2153D03*
X2766Y2153D03*
X3066Y2253D03*
X2766Y2253D03*
X3066Y2353D03*
X2766Y2353D03*
G54D11*
X3591Y1553D03*
X3191Y1553D03*
X1866Y3028D03*
X1866Y2628D03*
X1966Y3028D03*
X1966Y2628D03*
X3566Y2128D03*
X3166Y2128D03*
X3591Y1653D03*
X3191Y1653D03*
X2066Y3028D03*
X2066Y2628D03*
X1766Y3028D03*
X1766Y2628D03*
X3566Y2228D03*
X3166Y2228D03*
G54D14*
X3366Y1353D03*
X3166Y1353D03*
G54D11*
X2066Y1403D03*
X2066Y1903D03*
G54D14*
X1916Y2328D03*
X2116Y2328D03*
G54D11*
X2591Y2503D03*
X2591Y3003D03*
X2191Y1903D03*
X2191Y1403D03*
X2466Y3003D03*
X2466Y2503D03*
X2416Y1778D03*
X2416Y1378D03*
X2266Y2103D03*
X2266Y2503D03*
X2316Y1778D03*
X2316Y1378D03*
X2366Y2103D03*
X2366Y2503D03*
G54D19*
X2518Y1703D03*
X2616Y1703D03*
X2493Y2303D03*
X2591Y2303D03*
X2518Y1503D03*
X2616Y1503D03*
X2493Y2103D03*
X2591Y2103D03*
G54D11*
X1741Y1853D03*
X1741Y1453D03*
X2191Y553D03*
X1791Y553D03*
X1666Y678D03*
X1666Y278D03*
G54D14*
X1891Y778D03*
X1891Y978D03*
X516Y578D03*
X516Y378D03*
X1316Y803D03*
X1316Y1003D03*
X616Y578D03*
X616Y378D03*
G54D11*
X1791Y653D03*
X1791Y1053D03*
X1566Y678D03*
X1566Y1078D03*
G54D15*
X2141Y778D03*
X2141Y1076D03*
X1416Y1078D03*
X1416Y780D03*
X1666Y778D03*
X1666Y1076D03*
X1066Y778D03*
X1066Y1076D03*
X1966Y1403D03*
X1966Y1701D03*
X2016Y1078D03*
X2016Y780D03*
G54D14*
X2866Y803D03*
X2866Y1003D03*
X566Y1728D03*
X566Y1928D03*
X2391Y803D03*
X2391Y1003D03*
X766Y2853D03*
X766Y2653D03*
X416Y1728D03*
X416Y1928D03*
X2516Y703D03*
X2516Y503D03*
X2391Y703D03*
X2391Y503D03*
G54D11*
X2766Y678D03*
X2766Y1078D03*
X2266Y678D03*
X2266Y1078D03*
G54D15*
X2966Y778D03*
X2966Y1076D03*
X2641Y778D03*
X2641Y1076D03*
X2866Y703D03*
X2866Y405D03*
X2516Y1078D03*
X2516Y780D03*
G54D11*
X2916Y1328D03*
X2516Y1328D03*
G54D14*
X1441Y1453D03*
X1441Y1653D03*
X1541Y1653D03*
X1541Y1453D03*
G54D11*
X1641Y1853D03*
X1641Y1453D03*
G54D15*
X1841Y1403D03*
X1841Y1701D03*
G54D11*
X1091Y3253D03*
X691Y3253D03*
X1266Y3253D03*
X1666Y3253D03*
X1091Y3553D03*
X691Y3553D03*
X1265Y3552D03*
X1665Y3552D03*
G54D19*
X542Y3281D03*
X542Y3379D03*
X1816Y3305D03*
X1816Y3403D03*
X542Y3481D03*
X542Y3579D03*
X1816Y3505D03*
X1816Y3603D03*
G54D15*
X91Y3653D03*
X389Y3653D03*
X2091Y3728D03*
X1793Y3728D03*
X91Y3778D03*
X389Y3778D03*
X2391Y3328D03*
X2391Y3626D03*
X341Y3303D03*
X241Y3303D03*
X141Y3303D03*
X2016Y3303D03*
X2116Y3303D03*
X2216Y3303D03*
X342Y3529D03*
X242Y3529D03*
X142Y3529D03*
X2016Y3528D03*
X2116Y3528D03*
X2216Y3528D03*
G54D11*
X1091Y3353D03*
X691Y3353D03*
X1265Y3352D03*
X1665Y3352D03*
X1091Y3653D03*
X691Y3653D03*
X1265Y3652D03*
X1665Y3652D03*
X1091Y3453D03*
X691Y3453D03*
X1265Y3452D03*
X1665Y3452D03*
X1091Y3778D03*
X691Y3778D03*
X1266Y3778D03*
X1666Y3778D03*
G54D20*
X3641Y3678D03*
X3641Y3481D03*
G54D10*
X2816Y1878D03*
X2766Y1828D03*
X1216Y1628D03*
X1316Y1628D03*
G54D14*
X3591Y3003D03*
X3591Y2503D03*
X3491Y3003D03*
X3491Y2503D03*
X3391Y3003D03*
X3391Y2503D03*
X3291Y3003D03*
X3291Y2503D03*
X3191Y3003D03*
X3191Y2503D03*
X3091Y3003D03*
X3091Y2503D03*
X2991Y3003D03*
X2991Y2503D03*
X2891Y3003D03*
X2891Y2503D03*
G54D21*
X3116Y728D03*
G54D22*
X791Y2278D03*
G54D23*
X1491Y2428D03*
X1491Y2928D03*
X1491Y2678D03*
X1491Y2178D03*
X2516Y3327D03*
X2666Y3703D03*
X3241Y3629D03*
G54D24*
X3066Y1453D03*
X3066Y2053D03*
G54D25*
X2518Y1703D03*
X2493Y2303D03*
X2518Y1503D03*
X2493Y2103D03*
G54D23*
X2141Y777D03*
X1416Y1079D03*
X1666Y777D03*
X1066Y777D03*
X1966Y1402D03*
X2016Y1079D03*
X2966Y777D03*
X2641Y777D03*
X2866Y704D03*
X2516Y1079D03*
X1841Y1402D03*
G54D25*
X542Y3281D03*
X1816Y3305D03*
X542Y3481D03*
X1816Y3505D03*
G54D23*
X90Y3653D03*
X2092Y3728D03*
X90Y3778D03*
X2391Y3327D03*
X341Y3303D03*
X2016Y3303D03*
X342Y3529D03*
X2016Y3528D03*
G54D26*
X3641Y3678D03*
G54D27*
X2891Y2503D03*
X3491Y2503D03*
G54D28*
X3467Y1352D02*
X3466Y1890D01*
D02*
X3491Y1328D02*
X3467Y1352D01*
D02*
X3616Y1328D02*
X3491Y1328D01*
D02*
X3667Y1277D02*
X3616Y1328D01*
D02*
X3667Y1077D02*
X3667Y1277D01*
G54D29*
D02*
X3191Y2879D02*
X3191Y2977D01*
D02*
X3167Y2852D02*
X3191Y2879D01*
D02*
X3067Y2828D02*
X3091Y2852D01*
D02*
X3091Y2852D02*
X3167Y2852D01*
D02*
X3091Y2852D02*
X3091Y2977D01*
D02*
X2821Y2828D02*
X3067Y2828D01*
D02*
X2991Y3098D02*
X2991Y3029D01*
D02*
X2891Y3098D02*
X2891Y3029D01*
D02*
X3642Y1552D02*
X3620Y1553D01*
D02*
X3642Y1652D02*
X3620Y1653D01*
D02*
X3664Y1642D02*
X3642Y1652D01*
D02*
X3664Y1542D02*
X3642Y1552D01*
G54D30*
D02*
X1067Y1977D02*
X1091Y2004D01*
D02*
X991Y2077D02*
X1016Y2104D01*
D02*
X1042Y2852D02*
X1391Y2852D01*
D02*
X1367Y2752D02*
X1391Y2728D01*
D02*
X1391Y2728D02*
X1391Y2721D01*
D02*
X1116Y2752D02*
X1367Y2752D01*
D02*
X1091Y2004D02*
X1091Y2728D01*
D02*
X1091Y2728D02*
X1116Y2752D01*
D02*
X933Y1978D02*
X1067Y1977D01*
D02*
X1016Y2104D02*
X1016Y2828D01*
D02*
X933Y2078D02*
X991Y2077D01*
D02*
X1391Y2852D02*
X1391Y2885D01*
D02*
X1016Y2828D02*
X1042Y2852D01*
G54D28*
D02*
X3491Y977D02*
X3667Y1077D01*
D02*
X3216Y928D02*
X3491Y977D01*
D02*
X2266Y2453D02*
X2266Y2480D01*
D02*
X2240Y2428D02*
X2266Y2453D01*
D02*
X1816Y2077D02*
X1817Y2377D01*
D02*
X1817Y2428D02*
X2240Y2428D01*
D02*
X1791Y2104D02*
X1791Y2403D01*
D02*
X1791Y2403D02*
X1817Y2428D01*
D02*
X1791Y2052D02*
X1816Y2077D01*
D02*
X1440Y2004D02*
X1491Y2052D01*
D02*
X1266Y2003D02*
X1440Y2004D01*
D02*
X1491Y2052D02*
X1791Y2052D01*
D02*
X1242Y1977D02*
X1266Y2003D01*
D02*
X1767Y2077D02*
X1791Y2104D01*
D02*
X1416Y2028D02*
X1467Y2077D01*
D02*
X1467Y2077D02*
X1767Y2077D01*
D02*
X1242Y2028D02*
X1416Y2028D01*
D02*
X842Y1704D02*
X867Y1728D01*
D02*
X816Y1704D02*
X842Y1704D01*
D02*
X1216Y1877D02*
X1216Y2004D01*
D02*
X1216Y2004D02*
X1242Y2028D01*
D02*
X1042Y1728D02*
X1216Y1877D01*
D02*
X867Y1728D02*
X1042Y1728D01*
D02*
X809Y1696D02*
X816Y1704D01*
G54D30*
D02*
X1367Y2077D02*
X1391Y2104D01*
D02*
X1191Y2077D02*
X1367Y2077D01*
D02*
X1016Y1877D02*
X1142Y1877D01*
D02*
X1142Y1877D02*
X1167Y1904D01*
D02*
X967Y1777D02*
X991Y1804D01*
D02*
X991Y1804D02*
X991Y1852D01*
D02*
X991Y1852D02*
X1016Y1877D01*
D02*
X1167Y1904D02*
X1167Y2052D01*
D02*
X1167Y2052D02*
X1191Y2077D01*
D02*
X1391Y2104D02*
X1391Y2135D01*
D02*
X933Y1777D02*
X967Y1777D01*
D02*
X791Y1836D02*
X791Y1820D01*
G54D28*
D02*
X2366Y2428D02*
X2366Y2480D01*
D02*
X2340Y2403D02*
X2366Y2428D01*
D02*
X2217Y2403D02*
X2340Y2403D01*
D02*
X1842Y2403D02*
X2217Y2403D01*
D02*
X1817Y2377D02*
X1842Y2403D01*
D02*
X942Y1703D02*
X1066Y1703D01*
D02*
X1242Y1853D02*
X1242Y1977D01*
D02*
X1066Y1703D02*
X1242Y1853D01*
D02*
X914Y1689D02*
X942Y1703D01*
G54D31*
D02*
X3566Y2628D02*
X3591Y2603D01*
D02*
X2827Y2628D02*
X3566Y2628D01*
D02*
X3591Y2603D02*
X3591Y2535D01*
G54D32*
D02*
X3566Y2428D02*
X3591Y2453D01*
D02*
X3442Y2428D02*
X3566Y2428D01*
D02*
X2942Y1303D02*
X3417Y1303D01*
D02*
X3417Y1303D02*
X3440Y1328D01*
D02*
X3440Y1328D02*
X3440Y1377D01*
D02*
X3440Y1377D02*
X3417Y1403D01*
D02*
X3417Y2403D02*
X3442Y2428D01*
D02*
X3417Y1403D02*
X3417Y2403D01*
D02*
X3591Y2453D02*
X3591Y2482D01*
D02*
X2933Y1312D02*
X2942Y1303D01*
G54D29*
D02*
X966Y1077D02*
X922Y1078D01*
G54D30*
D02*
X791Y2036D02*
X791Y2020D01*
G54D29*
D02*
X517Y477D02*
X760Y478D01*
D02*
X516Y404D02*
X517Y477D01*
D02*
X642Y378D02*
X760Y378D01*
D02*
X1093Y760D02*
X1192Y694D01*
D02*
X991Y803D02*
X1017Y777D01*
D02*
X1017Y777D02*
X1034Y778D01*
D02*
X991Y1053D02*
X991Y803D01*
D02*
X966Y1077D02*
X991Y1053D01*
D02*
X822Y1078D02*
X860Y1078D01*
D02*
X1491Y1028D02*
X1517Y1002D01*
D02*
X1517Y1002D02*
X1639Y1002D01*
D02*
X1639Y1002D02*
X1665Y980D01*
D02*
X1665Y980D02*
X1665Y876D01*
D02*
X1491Y1198D02*
X1491Y1028D01*
D02*
X1991Y1303D02*
X1966Y1328D01*
D02*
X2366Y1303D02*
X1991Y1303D01*
D02*
X1966Y1328D02*
X1966Y1371D01*
D02*
X2391Y1258D02*
X2391Y1278D01*
D02*
X2391Y1278D02*
X2366Y1303D01*
D02*
X3661Y2128D02*
X3595Y2128D01*
D02*
X3595Y2228D02*
X3661Y2228D01*
G54D31*
D02*
X2566Y2628D02*
X2491Y2628D01*
D02*
X2467Y2652D02*
X2465Y2876D01*
D02*
X2491Y2628D02*
X2467Y2652D01*
D02*
X2465Y2876D02*
X2466Y2969D01*
G54D29*
D02*
X1542Y2853D02*
X1567Y2877D01*
G54D31*
D02*
X2691Y2403D02*
X2666Y2428D01*
D02*
X2740Y2403D02*
X2691Y2403D01*
D02*
X2666Y2428D02*
X2666Y2577D01*
D02*
X2666Y2577D02*
X2642Y2603D01*
D02*
X2642Y2603D02*
X2591Y2603D01*
D02*
X2766Y2377D02*
X2740Y2403D01*
D02*
X2591Y2603D02*
X2566Y2628D01*
G54D29*
D02*
X1542Y2728D02*
X1542Y2853D01*
D02*
X1514Y2701D02*
X1542Y2728D01*
D02*
X1567Y2877D02*
X1942Y2877D01*
G54D31*
D02*
X2766Y2389D02*
X2766Y2377D01*
G54D29*
D02*
X1567Y2428D02*
X1591Y2453D01*
D02*
X1591Y2453D02*
X1591Y2803D01*
D02*
X1591Y2803D02*
X1616Y2828D01*
D02*
X1616Y2828D02*
X1842Y2828D01*
D02*
X1842Y2828D02*
X1867Y2803D01*
D02*
X1967Y2853D02*
X1966Y2657D01*
D02*
X1967Y3103D02*
X1970Y3107D01*
D02*
X1966Y3057D02*
X1967Y3103D01*
D02*
X2067Y3103D02*
X2070Y3107D01*
D02*
X2066Y3057D02*
X2067Y3103D01*
D02*
X1942Y2877D02*
X1967Y2853D01*
D02*
X1523Y2428D02*
X1567Y2428D01*
D02*
X1867Y2803D02*
X1866Y2657D01*
D02*
X1767Y3103D02*
X1770Y3107D01*
D02*
X1867Y3103D02*
X1870Y3107D01*
D02*
X1866Y3057D02*
X1867Y3103D01*
D02*
X1766Y3057D02*
X1767Y3103D01*
G54D28*
D02*
X3217Y3802D02*
X3241Y3778D01*
D02*
X3241Y3778D02*
X3241Y3749D01*
D02*
X1441Y3678D02*
X1441Y3552D01*
D02*
X1641Y3704D02*
X1691Y3728D01*
D02*
X1691Y3728D02*
X1767Y3802D01*
D02*
X1767Y3802D02*
X3217Y3802D01*
D02*
X1441Y3552D02*
X1441Y3278D01*
D02*
X1441Y3278D02*
X1417Y3254D01*
D02*
X1467Y3704D02*
X1641Y3704D01*
D02*
X1467Y3704D02*
X1441Y3678D01*
G54D30*
D02*
X3241Y3671D02*
X3241Y3691D01*
D02*
X3515Y3328D02*
X3541Y3352D01*
D02*
X3541Y3452D02*
X3567Y3478D01*
D02*
X3567Y3478D02*
X3589Y3479D01*
D02*
X3541Y3352D02*
X3541Y3452D01*
D02*
X3391Y3328D02*
X3515Y3328D01*
G54D33*
D02*
X891Y3528D02*
X891Y3278D01*
G54D28*
D02*
X1417Y3254D02*
X1289Y3253D01*
G54D33*
D02*
X917Y3252D02*
X1068Y3253D01*
G54D28*
D02*
X1441Y3552D02*
X1288Y3552D01*
G54D33*
D02*
X891Y3278D02*
X917Y3252D01*
D02*
X1068Y3553D02*
X917Y3552D01*
D02*
X917Y3552D02*
X891Y3528D01*
G54D30*
D02*
X2740Y2653D02*
X2754Y2646D01*
D02*
X2717Y2677D02*
X2740Y2653D01*
D02*
X2717Y2977D02*
X2717Y2677D01*
D02*
X2666Y3028D02*
X2717Y2977D01*
D02*
X2591Y3103D02*
X2666Y3028D01*
D02*
X2591Y3203D02*
X2591Y3103D01*
D02*
X2766Y3228D02*
X2617Y3228D01*
D02*
X2791Y3253D02*
X2766Y3228D01*
D02*
X2617Y3228D02*
X2591Y3203D01*
D02*
X2791Y3628D02*
X2791Y3253D01*
D02*
X2791Y3628D02*
X3054Y3628D01*
D02*
X2666Y3660D02*
X2665Y3628D01*
D02*
X2665Y3628D02*
X2791Y3628D01*
G54D29*
D02*
X1741Y3654D02*
X1775Y3702D01*
D02*
X1742Y3479D02*
X1741Y3654D01*
D02*
X1797Y3422D02*
X1742Y3479D01*
D02*
X2391Y3428D02*
X2366Y3453D01*
D02*
X2141Y3453D02*
X2116Y3478D01*
D02*
X2366Y3453D02*
X2141Y3453D01*
D02*
X2391Y3360D02*
X2391Y3428D01*
D02*
X2116Y3478D02*
X2116Y3496D01*
D02*
X440Y3528D02*
X374Y3529D01*
D02*
X467Y3552D02*
X440Y3528D01*
D02*
X465Y3628D02*
X467Y3552D01*
D02*
X491Y3654D02*
X465Y3628D01*
D02*
X663Y3653D02*
X491Y3654D01*
D02*
X1841Y3628D02*
X1835Y3622D01*
D02*
X2359Y3626D02*
X1841Y3628D01*
D02*
X3216Y928D02*
X3216Y999D01*
D02*
X3265Y880D02*
X3216Y928D01*
D02*
X3791Y828D02*
X3743Y880D01*
D02*
X3743Y880D02*
X3265Y880D01*
D02*
X3791Y808D02*
X3791Y828D01*
D02*
X1742Y2777D02*
X1767Y2753D01*
D02*
X1767Y2753D02*
X1766Y2657D01*
D02*
X1616Y2177D02*
X1642Y2203D01*
D02*
X1642Y2203D02*
X1641Y2453D01*
D02*
X1641Y2453D02*
X1641Y2753D01*
D02*
X1641Y2753D02*
X1666Y2779D01*
D02*
X1667Y2779D02*
X1742Y2777D01*
D02*
X1523Y2178D02*
X1616Y2177D01*
D02*
X2042Y2928D02*
X1523Y2928D01*
D02*
X2066Y2657D02*
X2067Y2903D01*
D02*
X2067Y2903D02*
X2042Y2928D01*
G54D31*
D02*
X2554Y3328D02*
X2660Y3328D01*
G54D29*
D02*
X1143Y864D02*
X1065Y902D01*
D02*
X1065Y902D02*
X1066Y1044D01*
D02*
X1188Y1078D02*
X1098Y1076D01*
G54D31*
D02*
X2241Y1853D02*
X2215Y1879D01*
D02*
X2491Y1853D02*
X2241Y1853D01*
D02*
X2566Y1777D02*
X2491Y1853D01*
D02*
X2666Y1777D02*
X2566Y1777D01*
D02*
X2691Y1753D02*
X2666Y1777D01*
D02*
X2730Y1753D02*
X2691Y1753D01*
G54D29*
D02*
X1666Y707D02*
X1666Y746D01*
G54D31*
D02*
X2842Y2428D02*
X2842Y2177D01*
D02*
X2742Y2453D02*
X2817Y2453D01*
D02*
X2717Y2479D02*
X2742Y2453D01*
D02*
X2842Y2177D02*
X2816Y2152D01*
D02*
X2717Y2603D02*
X2717Y2479D01*
D02*
X2617Y2653D02*
X2666Y2653D01*
D02*
X2666Y2653D02*
X2717Y2603D01*
D02*
X2817Y2453D02*
X2842Y2428D01*
D02*
X2816Y2152D02*
X2803Y2153D01*
D02*
X2591Y2677D02*
X2617Y2653D01*
D02*
X2591Y2969D02*
X2591Y2677D01*
G54D29*
D02*
X646Y2653D02*
X740Y2653D01*
D02*
X3541Y828D02*
X3570Y799D01*
D02*
X3365Y828D02*
X3541Y828D01*
D02*
X3317Y776D02*
X3365Y828D01*
D02*
X3317Y757D02*
X3317Y776D01*
D02*
X3391Y428D02*
X3391Y474D01*
D02*
X3441Y478D02*
X3391Y428D01*
D02*
X3561Y478D02*
X3441Y478D01*
G54D30*
D02*
X3391Y3328D02*
X3284Y3329D01*
D02*
X3391Y3390D02*
X3391Y3328D01*
G54D29*
D02*
X3191Y1724D02*
X3191Y1682D01*
D02*
X3166Y2328D02*
X3166Y2257D01*
D02*
X3191Y1524D02*
X3191Y1482D01*
D02*
X3166Y2099D02*
X3166Y2057D01*
D02*
X1543Y1376D02*
X1817Y1376D01*
D02*
X1817Y1376D02*
X1820Y1379D01*
D02*
X3097Y1553D02*
X3163Y1553D01*
D02*
X3090Y1734D02*
X3169Y1671D01*
G54D30*
D02*
X3791Y3228D02*
X3791Y3169D01*
D02*
X3691Y3228D02*
X3791Y3228D01*
D02*
X2917Y3252D02*
X2891Y3278D01*
D02*
X3641Y3252D02*
X2917Y3252D01*
D02*
X2891Y3278D02*
X2891Y3291D01*
D02*
X3691Y3228D02*
X3641Y3252D01*
D02*
X3691Y3169D02*
X3691Y3228D01*
D02*
X3128Y3628D02*
X3198Y3628D01*
G54D29*
D02*
X3096Y2146D02*
X3138Y2135D01*
G54D32*
D02*
X3085Y2329D02*
X3148Y2250D01*
G54D31*
D02*
X2400Y2503D02*
X2432Y2503D01*
G54D29*
D02*
X2466Y2103D02*
X2395Y2103D01*
D02*
X2291Y2303D02*
X2267Y2277D01*
D02*
X2267Y2277D02*
X2266Y2132D01*
D02*
X2466Y2303D02*
X2291Y2303D01*
D02*
X1091Y3424D02*
X1091Y3382D01*
D02*
X1265Y3423D02*
X1265Y3381D01*
D02*
X2771Y650D02*
X2841Y228D01*
D02*
X2841Y228D02*
X2536Y486D01*
D02*
X517Y253D02*
X1066Y253D01*
D02*
X1066Y253D02*
X1066Y553D01*
D02*
X1066Y553D02*
X1763Y553D01*
D02*
X516Y352D02*
X517Y253D01*
D02*
X2142Y603D02*
X2171Y573D01*
D02*
X2141Y746D02*
X2142Y603D01*
D02*
X2291Y228D02*
X2268Y649D01*
D02*
X2382Y478D02*
X2291Y228D01*
D02*
X2391Y1076D02*
X2391Y1029D01*
D02*
X2391Y1154D02*
X2391Y1076D01*
D02*
X2217Y1154D02*
X2391Y1154D01*
D02*
X2191Y1176D02*
X2217Y1154D01*
D02*
X2191Y1198D02*
X2191Y1176D01*
D02*
X2517Y1128D02*
X2517Y1110D01*
D02*
X2491Y1154D02*
X2517Y1128D01*
D02*
X2391Y1154D02*
X2491Y1154D01*
D02*
X2609Y1077D02*
X2548Y1078D01*
D02*
X642Y303D02*
X1017Y303D01*
D02*
X1017Y303D02*
X1017Y603D01*
D02*
X625Y353D02*
X642Y303D01*
D02*
X1573Y650D02*
X1659Y306D01*
D02*
X1491Y1328D02*
X1543Y1376D01*
D02*
X1491Y1258D02*
X1491Y1328D01*
D02*
X1517Y603D02*
X1550Y654D01*
D02*
X1017Y603D02*
X1517Y603D01*
G54D32*
D02*
X1419Y3149D02*
X1417Y3153D01*
D02*
X1417Y3153D02*
X1391Y3178D01*
D02*
X1217Y3178D02*
X1191Y3204D01*
D02*
X1391Y3178D02*
X1217Y3178D01*
D02*
X1191Y3204D02*
X1191Y3628D01*
D02*
X1191Y3628D02*
X1167Y3652D01*
D02*
X1167Y3652D02*
X1114Y3653D01*
G54D30*
D02*
X516Y3152D02*
X440Y3204D01*
D02*
X516Y2152D02*
X516Y3152D01*
D02*
X591Y2077D02*
X516Y2152D01*
D02*
X749Y2078D02*
X591Y2077D01*
D02*
X440Y3204D02*
X441Y3403D01*
D02*
X441Y3403D02*
X416Y3428D01*
D02*
X266Y3428D02*
X241Y3453D01*
D02*
X241Y3453D02*
X242Y3486D01*
D02*
X416Y3428D02*
X266Y3428D01*
D02*
X1866Y3228D02*
X1891Y3253D01*
D02*
X891Y2320D02*
X891Y3004D01*
D02*
X891Y3004D02*
X942Y3052D01*
D02*
X942Y3052D02*
X1691Y3053D01*
D02*
X1691Y3053D02*
X1716Y3078D01*
D02*
X1716Y3078D02*
X1716Y3203D01*
D02*
X1716Y3203D02*
X1741Y3228D01*
D02*
X1741Y3228D02*
X1866Y3228D01*
D02*
X2116Y3478D02*
X2116Y3485D01*
D02*
X2091Y3453D02*
X2116Y3478D01*
D02*
X1916Y3453D02*
X2091Y3453D01*
D02*
X1891Y3428D02*
X1916Y3453D01*
D02*
X1891Y3253D02*
X1891Y3428D01*
D02*
X691Y1977D02*
X667Y2004D01*
D02*
X691Y1904D02*
X691Y1977D01*
D02*
X716Y1877D02*
X691Y1904D01*
D02*
X667Y2004D02*
X491Y2004D01*
D02*
X491Y2004D02*
X391Y2104D01*
D02*
X749Y1877D02*
X716Y1877D01*
D02*
X391Y3104D02*
X241Y3203D01*
D02*
X241Y3203D02*
X241Y3260D01*
D02*
X391Y2104D02*
X391Y3104D01*
G54D29*
D02*
X1917Y1080D02*
X1891Y1054D01*
D02*
X1891Y1054D02*
X1820Y1053D01*
D02*
X1984Y1079D02*
X1917Y1080D01*
D02*
X1891Y1054D02*
X1891Y1004D01*
D02*
X2391Y1076D02*
X2295Y1078D01*
D02*
X2965Y902D02*
X2966Y810D01*
D02*
X2965Y902D02*
X2643Y902D01*
D02*
X3043Y1128D02*
X3043Y902D01*
D02*
X2165Y902D02*
X2139Y880D01*
D02*
X1717Y902D02*
X1665Y876D01*
D02*
X3417Y1076D02*
X3417Y1057D01*
D02*
X2117Y902D02*
X1717Y902D01*
D02*
X3043Y902D02*
X2965Y902D01*
D02*
X2643Y902D02*
X2642Y810D01*
D02*
X2139Y880D02*
X2141Y810D01*
D02*
X3043Y1128D02*
X3341Y1128D01*
D02*
X3341Y1128D02*
X3417Y1076D01*
D02*
X3043Y654D02*
X3043Y902D01*
D02*
X2991Y654D02*
X3043Y654D01*
D02*
X2991Y632D02*
X2991Y654D01*
D02*
X2643Y902D02*
X2165Y902D01*
D02*
X2139Y880D02*
X2117Y902D01*
D02*
X1665Y876D02*
X1666Y810D01*
D02*
X1966Y1577D02*
X1864Y1678D01*
D02*
X1966Y1435D02*
X1966Y1577D01*
D02*
X1667Y1704D02*
X1809Y1701D01*
D02*
X1642Y1677D02*
X1667Y1704D01*
D02*
X1641Y1482D02*
X1642Y1677D01*
G54D31*
D02*
X2416Y1412D02*
X2416Y1452D01*
D02*
X2391Y1477D02*
X2091Y1477D01*
D02*
X2091Y1477D02*
X2067Y1452D01*
D02*
X2416Y1452D02*
X2391Y1477D01*
D02*
X2067Y1452D02*
X2067Y1437D01*
D02*
X1067Y1652D02*
X1291Y1853D01*
D02*
X991Y1652D02*
X1067Y1652D01*
D02*
X967Y1628D02*
X991Y1652D01*
D02*
X1291Y1853D02*
X1291Y1928D01*
D02*
X1316Y1952D02*
X1466Y1953D01*
D02*
X1842Y2028D02*
X2642Y2028D01*
D02*
X942Y1477D02*
X967Y1504D01*
D02*
X2642Y2028D02*
X2716Y1977D01*
D02*
X1466Y1953D02*
X1516Y2003D01*
D02*
X1516Y2003D02*
X1816Y2004D01*
D02*
X1816Y2004D02*
X1842Y2028D01*
D02*
X2867Y1977D02*
X2891Y2004D01*
D02*
X1291Y1928D02*
X1316Y1952D01*
D02*
X922Y1477D02*
X942Y1477D01*
D02*
X967Y1504D02*
X967Y1628D01*
D02*
X2716Y1977D02*
X2867Y1977D01*
D02*
X2891Y2004D02*
X2891Y2404D01*
D02*
X3067Y2428D02*
X3091Y2452D01*
D02*
X2891Y2404D02*
X2916Y2428D01*
D02*
X2916Y2428D02*
X3067Y2428D01*
D02*
X3091Y2452D02*
X3091Y2477D01*
D02*
X1339Y1802D02*
X1343Y1876D01*
D02*
X1343Y1876D02*
X1365Y1902D01*
D02*
X1017Y1528D02*
X1339Y1802D01*
D02*
X1017Y1476D02*
X1017Y1528D01*
D02*
X939Y1402D02*
X1017Y1476D01*
D02*
X3242Y2428D02*
X3209Y2477D01*
D02*
X1365Y1902D02*
X1491Y1902D01*
D02*
X3216Y1928D02*
X3242Y1952D01*
D02*
X924Y1394D02*
X939Y1402D01*
D02*
X3242Y1952D02*
X3242Y2428D01*
D02*
X2691Y1928D02*
X3216Y1928D01*
D02*
X1865Y1954D02*
X1891Y1976D01*
D02*
X1491Y1902D02*
X1543Y1954D01*
D02*
X2616Y1977D02*
X2691Y1928D01*
D02*
X1891Y1976D02*
X2616Y1977D01*
D02*
X1543Y1954D02*
X1865Y1954D01*
D02*
X3291Y1904D02*
X3291Y2477D01*
D02*
X3267Y1877D02*
X3291Y1904D01*
D02*
X2835Y1878D02*
X3267Y1877D01*
D02*
X3342Y2428D02*
X3367Y2452D01*
D02*
X3367Y2452D02*
X3391Y2477D01*
D02*
X3391Y2477D02*
X3391Y2477D01*
D02*
X2785Y1828D02*
X3316Y1828D01*
D02*
X3342Y1852D02*
X3342Y2428D01*
D02*
X3316Y1828D02*
X3342Y1852D01*
D02*
X1067Y1428D02*
X1067Y1504D01*
D02*
X942Y1304D02*
X1067Y1428D01*
D02*
X1067Y1504D02*
X1202Y1616D01*
D02*
X924Y1294D02*
X942Y1304D01*
D02*
X1116Y1404D02*
X1116Y1452D01*
D02*
X1116Y1452D02*
X1302Y1616D01*
D02*
X917Y1204D02*
X1116Y1404D01*
G54D34*
X136Y1988D02*
X146Y1988D01*
X132Y1987D02*
X150Y1987D01*
X129Y1986D02*
X152Y1986D01*
X127Y1985D02*
X154Y1985D01*
X125Y1984D02*
X156Y1984D01*
X123Y1983D02*
X158Y1983D01*
X122Y1982D02*
X159Y1982D01*
X121Y1981D02*
X161Y1981D01*
X119Y1980D02*
X162Y1980D01*
X118Y1979D02*
X163Y1979D01*
X117Y1978D02*
X164Y1978D01*
X116Y1977D02*
X165Y1977D01*
X115Y1976D02*
X166Y1976D01*
X114Y1975D02*
X167Y1975D01*
X114Y1974D02*
X168Y1974D01*
X113Y1973D02*
X168Y1973D01*
X112Y1972D02*
X169Y1972D01*
X112Y1971D02*
X170Y1971D01*
X111Y1970D02*
X170Y1970D01*
X110Y1969D02*
X171Y1969D01*
X110Y1968D02*
X136Y1968D01*
X146Y1968D02*
X172Y1968D01*
X109Y1967D02*
X133Y1967D01*
X149Y1967D02*
X172Y1967D01*
X109Y1966D02*
X131Y1966D01*
X151Y1966D02*
X172Y1966D01*
X108Y1965D02*
X130Y1965D01*
X152Y1965D02*
X173Y1965D01*
X108Y1964D02*
X129Y1964D01*
X153Y1964D02*
X173Y1964D01*
X108Y1963D02*
X128Y1963D01*
X154Y1963D02*
X174Y1963D01*
X107Y1962D02*
X127Y1962D01*
X154Y1962D02*
X174Y1962D01*
X107Y1961D02*
X127Y1961D01*
X155Y1961D02*
X174Y1961D01*
X107Y1960D02*
X126Y1960D01*
X155Y1960D02*
X174Y1960D01*
X107Y1959D02*
X126Y1959D01*
X155Y1959D02*
X175Y1959D01*
X107Y1958D02*
X126Y1958D01*
X156Y1958D02*
X175Y1958D01*
X106Y1957D02*
X125Y1957D01*
X156Y1957D02*
X175Y1957D01*
X106Y1956D02*
X125Y1956D01*
X156Y1956D02*
X175Y1956D01*
X106Y1955D02*
X125Y1955D01*
X156Y1955D02*
X175Y1955D01*
X106Y1954D02*
X125Y1954D01*
X156Y1954D02*
X175Y1954D01*
X106Y1953D02*
X125Y1953D01*
X156Y1953D02*
X175Y1953D01*
X106Y1952D02*
X125Y1952D01*
X156Y1952D02*
X175Y1952D01*
X106Y1951D02*
X125Y1951D01*
X156Y1951D02*
X175Y1951D01*
X106Y1950D02*
X125Y1950D01*
X156Y1950D02*
X175Y1950D01*
X107Y1949D02*
X126Y1949D01*
X156Y1949D02*
X175Y1949D01*
X107Y1948D02*
X126Y1948D01*
X155Y1948D02*
X175Y1948D01*
X107Y1947D02*
X126Y1947D01*
X155Y1947D02*
X174Y1947D01*
X107Y1946D02*
X127Y1946D01*
X155Y1946D02*
X174Y1946D01*
X107Y1945D02*
X127Y1945D01*
X154Y1945D02*
X174Y1945D01*
X108Y1944D02*
X128Y1944D01*
X154Y1944D02*
X174Y1944D01*
X108Y1943D02*
X129Y1943D01*
X153Y1943D02*
X173Y1943D01*
X109Y1942D02*
X130Y1942D01*
X152Y1942D02*
X173Y1942D01*
X109Y1941D02*
X131Y1941D01*
X150Y1941D02*
X172Y1941D01*
X109Y1940D02*
X133Y1940D01*
X149Y1940D02*
X172Y1940D01*
X110Y1939D02*
X136Y1939D01*
X145Y1939D02*
X171Y1939D01*
X110Y1938D02*
X171Y1938D01*
X111Y1937D02*
X170Y1937D01*
X112Y1936D02*
X170Y1936D01*
X112Y1935D02*
X169Y1935D01*
X113Y1934D02*
X168Y1934D01*
X114Y1933D02*
X168Y1933D01*
X115Y1932D02*
X167Y1932D01*
X115Y1931D02*
X166Y1931D01*
X116Y1930D02*
X165Y1930D01*
X117Y1929D02*
X164Y1929D01*
X118Y1928D02*
X163Y1928D01*
X119Y1927D02*
X162Y1927D01*
X121Y1926D02*
X161Y1926D01*
X122Y1925D02*
X159Y1925D01*
X124Y1924D02*
X158Y1924D01*
X125Y1923D02*
X156Y1923D01*
X127Y1922D02*
X154Y1922D01*
X129Y1921D02*
X152Y1921D01*
X132Y1920D02*
X149Y1920D01*
X136Y1919D02*
X145Y1919D01*
X136Y1888D02*
X146Y1888D01*
X132Y1887D02*
X150Y1887D01*
X129Y1886D02*
X152Y1886D01*
X127Y1885D02*
X154Y1885D01*
X125Y1884D02*
X156Y1884D01*
X123Y1883D02*
X158Y1883D01*
X122Y1882D02*
X159Y1882D01*
X121Y1881D02*
X161Y1881D01*
X119Y1880D02*
X162Y1880D01*
X118Y1879D02*
X163Y1879D01*
X117Y1878D02*
X164Y1878D01*
X116Y1877D02*
X165Y1877D01*
X115Y1876D02*
X166Y1876D01*
X114Y1875D02*
X167Y1875D01*
X114Y1874D02*
X168Y1874D01*
X113Y1873D02*
X168Y1873D01*
X112Y1872D02*
X169Y1872D01*
X112Y1871D02*
X170Y1871D01*
X111Y1870D02*
X170Y1870D01*
X110Y1869D02*
X171Y1869D01*
X110Y1868D02*
X136Y1868D01*
X146Y1868D02*
X172Y1868D01*
X109Y1867D02*
X133Y1867D01*
X149Y1867D02*
X172Y1867D01*
X109Y1866D02*
X131Y1866D01*
X151Y1866D02*
X172Y1866D01*
X108Y1865D02*
X130Y1865D01*
X152Y1865D02*
X173Y1865D01*
X108Y1864D02*
X129Y1864D01*
X153Y1864D02*
X173Y1864D01*
X108Y1863D02*
X128Y1863D01*
X154Y1863D02*
X174Y1863D01*
X107Y1862D02*
X127Y1862D01*
X154Y1862D02*
X174Y1862D01*
X107Y1861D02*
X127Y1861D01*
X155Y1861D02*
X174Y1861D01*
X107Y1860D02*
X126Y1860D01*
X155Y1860D02*
X174Y1860D01*
X107Y1859D02*
X126Y1859D01*
X155Y1859D02*
X175Y1859D01*
X107Y1858D02*
X126Y1858D01*
X156Y1858D02*
X175Y1858D01*
X106Y1857D02*
X125Y1857D01*
X156Y1857D02*
X175Y1857D01*
X106Y1856D02*
X125Y1856D01*
X156Y1856D02*
X175Y1856D01*
X106Y1855D02*
X125Y1855D01*
X156Y1855D02*
X175Y1855D01*
X106Y1854D02*
X125Y1854D01*
X156Y1854D02*
X175Y1854D01*
X106Y1853D02*
X125Y1853D01*
X156Y1853D02*
X175Y1853D01*
X106Y1852D02*
X125Y1852D01*
X156Y1852D02*
X175Y1852D01*
X106Y1851D02*
X125Y1851D01*
X156Y1851D02*
X175Y1851D01*
X106Y1850D02*
X125Y1850D01*
X156Y1850D02*
X175Y1850D01*
X107Y1849D02*
X126Y1849D01*
X156Y1849D02*
X175Y1849D01*
X107Y1848D02*
X126Y1848D01*
X155Y1848D02*
X175Y1848D01*
X107Y1847D02*
X126Y1847D01*
X155Y1847D02*
X174Y1847D01*
X107Y1846D02*
X127Y1846D01*
X155Y1846D02*
X174Y1846D01*
X107Y1845D02*
X127Y1845D01*
X154Y1845D02*
X174Y1845D01*
X108Y1844D02*
X128Y1844D01*
X154Y1844D02*
X174Y1844D01*
X108Y1843D02*
X129Y1843D01*
X153Y1843D02*
X173Y1843D01*
X109Y1842D02*
X130Y1842D01*
X152Y1842D02*
X173Y1842D01*
X109Y1841D02*
X131Y1841D01*
X150Y1841D02*
X172Y1841D01*
X109Y1840D02*
X133Y1840D01*
X149Y1840D02*
X172Y1840D01*
X110Y1839D02*
X136Y1839D01*
X145Y1839D02*
X171Y1839D01*
X110Y1838D02*
X171Y1838D01*
X111Y1837D02*
X170Y1837D01*
X112Y1836D02*
X170Y1836D01*
X112Y1835D02*
X169Y1835D01*
X113Y1834D02*
X168Y1834D01*
X114Y1833D02*
X168Y1833D01*
X115Y1832D02*
X167Y1832D01*
X115Y1831D02*
X166Y1831D01*
X116Y1830D02*
X165Y1830D01*
X117Y1829D02*
X164Y1829D01*
X118Y1828D02*
X163Y1828D01*
X119Y1827D02*
X162Y1827D01*
X121Y1826D02*
X161Y1826D01*
X122Y1825D02*
X159Y1825D01*
X124Y1824D02*
X158Y1824D01*
X125Y1823D02*
X156Y1823D01*
X127Y1822D02*
X154Y1822D01*
X129Y1821D02*
X152Y1821D01*
X132Y1820D02*
X149Y1820D01*
X136Y1819D02*
X145Y1819D01*
X136Y1788D02*
X146Y1788D01*
X132Y1787D02*
X150Y1787D01*
X129Y1786D02*
X152Y1786D01*
X127Y1785D02*
X154Y1785D01*
X125Y1784D02*
X156Y1784D01*
X123Y1783D02*
X158Y1783D01*
X122Y1782D02*
X159Y1782D01*
X121Y1781D02*
X161Y1781D01*
X119Y1780D02*
X162Y1780D01*
X118Y1779D02*
X163Y1779D01*
X117Y1778D02*
X164Y1778D01*
X116Y1777D02*
X165Y1777D01*
X115Y1776D02*
X166Y1776D01*
X114Y1775D02*
X167Y1775D01*
X114Y1774D02*
X168Y1774D01*
X113Y1773D02*
X168Y1773D01*
X112Y1772D02*
X169Y1772D01*
X112Y1771D02*
X170Y1771D01*
X111Y1770D02*
X170Y1770D01*
X110Y1769D02*
X171Y1769D01*
X110Y1768D02*
X136Y1768D01*
X146Y1768D02*
X172Y1768D01*
X109Y1767D02*
X133Y1767D01*
X149Y1767D02*
X172Y1767D01*
X109Y1766D02*
X131Y1766D01*
X151Y1766D02*
X172Y1766D01*
X108Y1765D02*
X130Y1765D01*
X152Y1765D02*
X173Y1765D01*
X108Y1764D02*
X129Y1764D01*
X153Y1764D02*
X173Y1764D01*
X108Y1763D02*
X128Y1763D01*
X154Y1763D02*
X174Y1763D01*
X107Y1762D02*
X127Y1762D01*
X154Y1762D02*
X174Y1762D01*
X107Y1761D02*
X127Y1761D01*
X155Y1761D02*
X174Y1761D01*
X107Y1760D02*
X126Y1760D01*
X155Y1760D02*
X174Y1760D01*
X107Y1759D02*
X126Y1759D01*
X155Y1759D02*
X175Y1759D01*
X107Y1758D02*
X126Y1758D01*
X156Y1758D02*
X175Y1758D01*
X106Y1757D02*
X125Y1757D01*
X156Y1757D02*
X175Y1757D01*
X106Y1756D02*
X125Y1756D01*
X156Y1756D02*
X175Y1756D01*
X106Y1755D02*
X125Y1755D01*
X156Y1755D02*
X175Y1755D01*
X106Y1754D02*
X125Y1754D01*
X156Y1754D02*
X175Y1754D01*
X106Y1753D02*
X125Y1753D01*
X156Y1753D02*
X175Y1753D01*
X106Y1752D02*
X125Y1752D01*
X156Y1752D02*
X175Y1752D01*
X106Y1751D02*
X125Y1751D01*
X156Y1751D02*
X175Y1751D01*
X106Y1750D02*
X125Y1750D01*
X156Y1750D02*
X175Y1750D01*
X107Y1749D02*
X126Y1749D01*
X156Y1749D02*
X175Y1749D01*
X107Y1748D02*
X126Y1748D01*
X155Y1748D02*
X175Y1748D01*
X107Y1747D02*
X126Y1747D01*
X155Y1747D02*
X174Y1747D01*
X107Y1746D02*
X127Y1746D01*
X155Y1746D02*
X174Y1746D01*
X107Y1745D02*
X127Y1745D01*
X154Y1745D02*
X174Y1745D01*
X108Y1744D02*
X128Y1744D01*
X154Y1744D02*
X174Y1744D01*
X108Y1743D02*
X129Y1743D01*
X153Y1743D02*
X173Y1743D01*
X109Y1742D02*
X130Y1742D01*
X152Y1742D02*
X173Y1742D01*
X109Y1741D02*
X131Y1741D01*
X150Y1741D02*
X172Y1741D01*
X109Y1740D02*
X133Y1740D01*
X149Y1740D02*
X172Y1740D01*
X110Y1739D02*
X136Y1739D01*
X145Y1739D02*
X171Y1739D01*
X110Y1738D02*
X171Y1738D01*
X111Y1737D02*
X170Y1737D01*
X112Y1736D02*
X170Y1736D01*
X112Y1735D02*
X169Y1735D01*
X113Y1734D02*
X168Y1734D01*
X114Y1733D02*
X168Y1733D01*
X115Y1732D02*
X167Y1732D01*
X115Y1731D02*
X166Y1731D01*
X116Y1730D02*
X165Y1730D01*
X117Y1729D02*
X164Y1729D01*
X118Y1728D02*
X163Y1728D01*
X119Y1727D02*
X162Y1727D01*
X121Y1726D02*
X161Y1726D01*
X122Y1725D02*
X159Y1725D01*
X124Y1724D02*
X158Y1724D01*
X125Y1723D02*
X156Y1723D01*
X127Y1722D02*
X154Y1722D01*
X129Y1721D02*
X152Y1721D01*
X132Y1720D02*
X149Y1720D01*
X136Y1719D02*
X145Y1719D01*
X136Y1688D02*
X146Y1688D01*
X132Y1687D02*
X150Y1687D01*
X129Y1686D02*
X152Y1686D01*
X127Y1685D02*
X154Y1685D01*
X125Y1684D02*
X156Y1684D01*
X123Y1683D02*
X158Y1683D01*
X122Y1682D02*
X159Y1682D01*
X121Y1681D02*
X161Y1681D01*
X119Y1680D02*
X162Y1680D01*
X118Y1679D02*
X163Y1679D01*
X117Y1678D02*
X164Y1678D01*
X116Y1677D02*
X165Y1677D01*
X115Y1676D02*
X166Y1676D01*
X114Y1675D02*
X167Y1675D01*
X114Y1674D02*
X168Y1674D01*
X113Y1673D02*
X168Y1673D01*
X112Y1672D02*
X169Y1672D01*
X112Y1671D02*
X170Y1671D01*
X111Y1670D02*
X170Y1670D01*
X110Y1669D02*
X171Y1669D01*
X110Y1668D02*
X136Y1668D01*
X146Y1668D02*
X172Y1668D01*
X109Y1667D02*
X133Y1667D01*
X149Y1667D02*
X172Y1667D01*
X109Y1666D02*
X131Y1666D01*
X151Y1666D02*
X172Y1666D01*
X108Y1665D02*
X130Y1665D01*
X152Y1665D02*
X173Y1665D01*
X108Y1664D02*
X129Y1664D01*
X153Y1664D02*
X173Y1664D01*
X108Y1663D02*
X128Y1663D01*
X154Y1663D02*
X174Y1663D01*
X107Y1662D02*
X127Y1662D01*
X154Y1662D02*
X174Y1662D01*
X107Y1661D02*
X127Y1661D01*
X155Y1661D02*
X174Y1661D01*
X107Y1660D02*
X126Y1660D01*
X155Y1660D02*
X174Y1660D01*
X107Y1659D02*
X126Y1659D01*
X155Y1659D02*
X175Y1659D01*
X107Y1658D02*
X126Y1658D01*
X156Y1658D02*
X175Y1658D01*
X106Y1657D02*
X125Y1657D01*
X156Y1657D02*
X175Y1657D01*
X106Y1656D02*
X125Y1656D01*
X156Y1656D02*
X175Y1656D01*
X106Y1655D02*
X125Y1655D01*
X156Y1655D02*
X175Y1655D01*
X106Y1654D02*
X125Y1654D01*
X156Y1654D02*
X175Y1654D01*
X106Y1653D02*
X125Y1653D01*
X156Y1653D02*
X175Y1653D01*
X106Y1652D02*
X125Y1652D01*
X156Y1652D02*
X175Y1652D01*
X106Y1651D02*
X125Y1651D01*
X156Y1651D02*
X175Y1651D01*
X106Y1650D02*
X125Y1650D01*
X156Y1650D02*
X175Y1650D01*
X107Y1649D02*
X126Y1649D01*
X156Y1649D02*
X175Y1649D01*
X107Y1648D02*
X126Y1648D01*
X155Y1648D02*
X175Y1648D01*
X107Y1647D02*
X126Y1647D01*
X155Y1647D02*
X174Y1647D01*
X107Y1646D02*
X127Y1646D01*
X155Y1646D02*
X174Y1646D01*
X107Y1645D02*
X127Y1645D01*
X154Y1645D02*
X174Y1645D01*
X108Y1644D02*
X128Y1644D01*
X154Y1644D02*
X174Y1644D01*
X108Y1643D02*
X129Y1643D01*
X153Y1643D02*
X173Y1643D01*
X109Y1642D02*
X130Y1642D01*
X152Y1642D02*
X173Y1642D01*
X109Y1641D02*
X131Y1641D01*
X150Y1641D02*
X172Y1641D01*
X109Y1640D02*
X133Y1640D01*
X149Y1640D02*
X172Y1640D01*
X110Y1639D02*
X136Y1639D01*
X145Y1639D02*
X171Y1639D01*
X110Y1638D02*
X171Y1638D01*
X111Y1637D02*
X170Y1637D01*
X112Y1636D02*
X170Y1636D01*
X112Y1635D02*
X169Y1635D01*
X113Y1634D02*
X168Y1634D01*
X114Y1633D02*
X168Y1633D01*
X115Y1632D02*
X167Y1632D01*
X115Y1631D02*
X166Y1631D01*
X116Y1630D02*
X165Y1630D01*
X117Y1629D02*
X164Y1629D01*
X118Y1628D02*
X163Y1628D01*
X119Y1627D02*
X162Y1627D01*
X121Y1626D02*
X161Y1626D01*
X122Y1625D02*
X159Y1625D01*
X124Y1624D02*
X158Y1624D01*
X125Y1623D02*
X156Y1623D01*
X127Y1622D02*
X154Y1622D01*
X129Y1621D02*
X152Y1621D01*
X132Y1620D02*
X149Y1620D01*
X136Y1619D02*
X145Y1619D01*
X136Y1588D02*
X146Y1588D01*
X132Y1587D02*
X150Y1587D01*
X129Y1586D02*
X152Y1586D01*
X127Y1585D02*
X154Y1585D01*
X125Y1584D02*
X156Y1584D01*
X123Y1583D02*
X158Y1583D01*
X122Y1582D02*
X159Y1582D01*
X121Y1581D02*
X161Y1581D01*
X119Y1580D02*
X162Y1580D01*
X118Y1579D02*
X163Y1579D01*
X117Y1578D02*
X164Y1578D01*
X116Y1577D02*
X165Y1577D01*
X115Y1576D02*
X166Y1576D01*
X114Y1575D02*
X167Y1575D01*
X114Y1574D02*
X168Y1574D01*
X113Y1573D02*
X168Y1573D01*
X112Y1572D02*
X169Y1572D01*
X112Y1571D02*
X170Y1571D01*
X111Y1570D02*
X170Y1570D01*
X110Y1569D02*
X171Y1569D01*
X110Y1568D02*
X136Y1568D01*
X146Y1568D02*
X172Y1568D01*
X109Y1567D02*
X133Y1567D01*
X149Y1567D02*
X172Y1567D01*
X109Y1566D02*
X131Y1566D01*
X151Y1566D02*
X172Y1566D01*
X108Y1565D02*
X130Y1565D01*
X152Y1565D02*
X173Y1565D01*
X108Y1564D02*
X129Y1564D01*
X153Y1564D02*
X173Y1564D01*
X108Y1563D02*
X128Y1563D01*
X154Y1563D02*
X174Y1563D01*
X107Y1562D02*
X127Y1562D01*
X154Y1562D02*
X174Y1562D01*
X107Y1561D02*
X127Y1561D01*
X155Y1561D02*
X174Y1561D01*
X107Y1560D02*
X126Y1560D01*
X155Y1560D02*
X174Y1560D01*
X107Y1559D02*
X126Y1559D01*
X155Y1559D02*
X175Y1559D01*
X107Y1558D02*
X126Y1558D01*
X156Y1558D02*
X175Y1558D01*
X106Y1557D02*
X125Y1557D01*
X156Y1557D02*
X175Y1557D01*
X106Y1556D02*
X125Y1556D01*
X156Y1556D02*
X175Y1556D01*
X106Y1555D02*
X125Y1555D01*
X156Y1555D02*
X175Y1555D01*
X106Y1554D02*
X125Y1554D01*
X156Y1554D02*
X175Y1554D01*
X106Y1553D02*
X125Y1553D01*
X156Y1553D02*
X175Y1553D01*
X106Y1552D02*
X125Y1552D01*
X156Y1552D02*
X175Y1552D01*
X106Y1551D02*
X125Y1551D01*
X156Y1551D02*
X175Y1551D01*
X106Y1550D02*
X125Y1550D01*
X156Y1550D02*
X175Y1550D01*
X107Y1549D02*
X126Y1549D01*
X156Y1549D02*
X175Y1549D01*
X107Y1548D02*
X126Y1548D01*
X155Y1548D02*
X175Y1548D01*
X107Y1547D02*
X126Y1547D01*
X155Y1547D02*
X174Y1547D01*
X107Y1546D02*
X127Y1546D01*
X155Y1546D02*
X174Y1546D01*
X107Y1545D02*
X127Y1545D01*
X154Y1545D02*
X174Y1545D01*
X108Y1544D02*
X128Y1544D01*
X154Y1544D02*
X174Y1544D01*
X108Y1543D02*
X129Y1543D01*
X153Y1543D02*
X173Y1543D01*
X109Y1542D02*
X130Y1542D01*
X152Y1542D02*
X173Y1542D01*
X109Y1541D02*
X131Y1541D01*
X150Y1541D02*
X172Y1541D01*
X109Y1540D02*
X133Y1540D01*
X149Y1540D02*
X172Y1540D01*
X110Y1539D02*
X136Y1539D01*
X145Y1539D02*
X171Y1539D01*
X110Y1538D02*
X171Y1538D01*
X111Y1537D02*
X170Y1537D01*
X112Y1536D02*
X170Y1536D01*
X112Y1535D02*
X169Y1535D01*
X113Y1534D02*
X168Y1534D01*
X114Y1533D02*
X168Y1533D01*
X115Y1532D02*
X167Y1532D01*
X115Y1531D02*
X166Y1531D01*
X116Y1530D02*
X165Y1530D01*
X117Y1529D02*
X164Y1529D01*
X118Y1528D02*
X163Y1528D01*
X119Y1527D02*
X162Y1527D01*
X121Y1526D02*
X161Y1526D01*
X122Y1525D02*
X159Y1525D01*
X124Y1524D02*
X158Y1524D01*
X125Y1523D02*
X156Y1523D01*
X127Y1522D02*
X154Y1522D01*
X129Y1521D02*
X152Y1521D01*
X132Y1520D02*
X149Y1520D01*
X136Y1519D02*
X145Y1519D01*
X136Y1488D02*
X146Y1488D01*
X132Y1487D02*
X150Y1487D01*
X129Y1486D02*
X152Y1486D01*
X127Y1485D02*
X154Y1485D01*
X125Y1484D02*
X156Y1484D01*
X123Y1483D02*
X158Y1483D01*
X122Y1482D02*
X159Y1482D01*
X121Y1481D02*
X161Y1481D01*
X119Y1480D02*
X162Y1480D01*
X118Y1479D02*
X163Y1479D01*
X117Y1478D02*
X164Y1478D01*
X116Y1477D02*
X165Y1477D01*
X115Y1476D02*
X166Y1476D01*
X114Y1475D02*
X167Y1475D01*
X114Y1474D02*
X168Y1474D01*
X113Y1473D02*
X168Y1473D01*
X112Y1472D02*
X169Y1472D01*
X112Y1471D02*
X170Y1471D01*
X111Y1470D02*
X170Y1470D01*
X110Y1469D02*
X171Y1469D01*
X110Y1468D02*
X136Y1468D01*
X146Y1468D02*
X172Y1468D01*
X109Y1467D02*
X133Y1467D01*
X149Y1467D02*
X172Y1467D01*
X109Y1466D02*
X131Y1466D01*
X151Y1466D02*
X172Y1466D01*
X108Y1465D02*
X130Y1465D01*
X152Y1465D02*
X173Y1465D01*
X108Y1464D02*
X129Y1464D01*
X153Y1464D02*
X173Y1464D01*
X108Y1463D02*
X128Y1463D01*
X154Y1463D02*
X174Y1463D01*
X107Y1462D02*
X127Y1462D01*
X154Y1462D02*
X174Y1462D01*
X107Y1461D02*
X127Y1461D01*
X155Y1461D02*
X174Y1461D01*
X107Y1460D02*
X126Y1460D01*
X155Y1460D02*
X174Y1460D01*
X107Y1459D02*
X126Y1459D01*
X155Y1459D02*
X175Y1459D01*
X107Y1458D02*
X126Y1458D01*
X156Y1458D02*
X175Y1458D01*
X106Y1457D02*
X125Y1457D01*
X156Y1457D02*
X175Y1457D01*
X106Y1456D02*
X125Y1456D01*
X156Y1456D02*
X175Y1456D01*
X106Y1455D02*
X125Y1455D01*
X156Y1455D02*
X175Y1455D01*
X106Y1454D02*
X125Y1454D01*
X156Y1454D02*
X175Y1454D01*
X106Y1453D02*
X125Y1453D01*
X156Y1453D02*
X175Y1453D01*
X106Y1452D02*
X125Y1452D01*
X156Y1452D02*
X175Y1452D01*
X106Y1451D02*
X125Y1451D01*
X156Y1451D02*
X175Y1451D01*
X106Y1450D02*
X125Y1450D01*
X156Y1450D02*
X175Y1450D01*
X107Y1449D02*
X126Y1449D01*
X156Y1449D02*
X175Y1449D01*
X107Y1448D02*
X126Y1448D01*
X155Y1448D02*
X175Y1448D01*
X107Y1447D02*
X126Y1447D01*
X155Y1447D02*
X174Y1447D01*
X107Y1446D02*
X127Y1446D01*
X155Y1446D02*
X174Y1446D01*
X107Y1445D02*
X127Y1445D01*
X154Y1445D02*
X174Y1445D01*
X108Y1444D02*
X128Y1444D01*
X154Y1444D02*
X174Y1444D01*
X108Y1443D02*
X129Y1443D01*
X153Y1443D02*
X173Y1443D01*
X109Y1442D02*
X130Y1442D01*
X152Y1442D02*
X173Y1442D01*
X109Y1441D02*
X131Y1441D01*
X150Y1441D02*
X172Y1441D01*
X109Y1440D02*
X133Y1440D01*
X149Y1440D02*
X172Y1440D01*
X110Y1439D02*
X136Y1439D01*
X145Y1439D02*
X171Y1439D01*
X110Y1438D02*
X171Y1438D01*
X111Y1437D02*
X170Y1437D01*
X112Y1436D02*
X170Y1436D01*
X112Y1435D02*
X169Y1435D01*
X113Y1434D02*
X168Y1434D01*
X114Y1433D02*
X168Y1433D01*
X115Y1432D02*
X167Y1432D01*
X115Y1431D02*
X166Y1431D01*
X116Y1430D02*
X165Y1430D01*
X117Y1429D02*
X164Y1429D01*
X118Y1428D02*
X163Y1428D01*
X119Y1427D02*
X162Y1427D01*
X121Y1426D02*
X161Y1426D01*
X122Y1425D02*
X159Y1425D01*
X124Y1424D02*
X158Y1424D01*
X125Y1423D02*
X156Y1423D01*
X127Y1422D02*
X154Y1422D01*
X129Y1421D02*
X152Y1421D01*
X132Y1420D02*
X149Y1420D01*
X136Y1419D02*
X145Y1419D01*
D02*
G04 End of Copper1*
M02*