<?xml version="1.0" encoding="UTF-8" standalone="no"?>
<!-- Created with Inkscape (http://www.inkscape.org/) -->

<svg
   xmlns:dc="http://purl.org/dc/elements/1.1/"
   xmlns:cc="http://creativecommons.org/ns#"
   xmlns:rdf="http://www.w3.org/1999/02/22-rdf-syntax-ns#"
   xmlns:svg="http://www.w3.org/2000/svg"
   xmlns="http://www.w3.org/2000/svg"
   xmlns:sodipodi="http://sodipodi.sourceforge.net/DTD/sodipodi-0.dtd"
   xmlns:inkscape="http://www.inkscape.org/namespaces/inkscape"
   width="175.32899"
   height="226.56693"
   id="svg2"
   version="1.1"
   inkscape:version="0.48.2 r9819"
   sodipodi:docname="New document 1">
  <defs
     id="defs4">
    <clipPath
       id="clipPath3044"
       clipPathUnits="userSpaceOnUse">
      <path
         id="path3046"
         clip-rule="evenodd"
         d="m 55.92,727.5 501.66,0 0,-646.38 -501.66,0 0,646.38 z"
         inkscape:connector-curvature="0" />
    </clipPath>
  </defs>
  <sodipodi:namedview
     id="base"
     pagecolor="#ffffff"
     bordercolor="#666666"
     borderopacity="1.0"
     inkscape:pageopacity="0.0"
     inkscape:pageshadow="2"
     inkscape:zoom="1.8591563"
     inkscape:cx="219.34117"
     inkscape:cy="126.9193"
     inkscape:document-units="px"
     inkscape:current-layer="layer1"
     showgrid="false"
     fit-margin-top="0"
     fit-margin-left="0"
     fit-margin-right="0"
     fit-margin-bottom="0"
     inkscape:window-width="1270"
     inkscape:window-height="658"
     inkscape:window-x="0"
     inkscape:window-y="0"
     inkscape:window-maximized="0" />
  <metadata
     id="metadata7">
    <rdf:RDF>
      <cc:Work
         rdf:about="">
        <dc:format>image/svg+xml</dc:format>
        <dc:type
           rdf:resource="http://purl.org/dc/dcmitype/StillImage" />
        <dc:title></dc:title>
      </cc:Work>
    </rdf:RDF>
  </metadata>
  <g
     inkscape:label="Layer 1"
     inkscape:groupmode="layer"
     id="layer1"
     transform="translate(-339.06988,-248.46739)"
     style="display:inline">
    <path
       inkscape:connector-curvature="0"
       d="m 663.73442,972.3719 0.90004,0 0,-1.875 -0.90004,0 0,1.875 z"
       style="fill:#000000;fill-opacity:1;fill-rule:nonzero;stroke:none"
       id="path3014" />
    <path
       inkscape:connector-curvature="0"
       d="m 670.18442,56.3969 -19.05,25.5 24.15,0 0,-25.5"
       style="fill:#ffffff;fill-opacity:1;fill-rule:evenodd;stroke:none"
       id="path3030" />
    <text
       id="text3032"
       x="573.28442"
       y="75.221901"
       style="font-size:15px">
      <tspan
         style="font-size:17.47499847px;font-variant:normal;font-weight:bold;font-stretch:normal;writing-mode:lr-tb;fill:#ffffff;fill-opacity:1;fill-rule:nonzero;stroke:none;font-family:Arial;-inkscape-font-specification:Arial Bold"
         x="573.28442 584.95245 591.76251 601.49084 611.21918 620.94751 631.63696 638.44696"
         y="75.221901"
         sodipodi:role="line"
         id="tspan3034">Pressure</tspan>
    </text>
    <path
       inkscape:connector-curvature="0"
       d="m 358.09442,355.86565 c -5.08125,-0.0675 -8.6275,2.775 -10.8,7.2 -1.99624,5.675 -0.855,7.98625 2.16001,12.72125 5.31499,5.5075 15.01249,4.68625 18.72,-2.16 4.23625,-6.5375 0.0237,-15.8825 -7.44001,-17.52125 l -2.64,-0.24 z m 137.28375,0 c -5.08125,-0.0675 -8.62875,2.775 -10.8,7.2 -1.99624,5.675 -0.855,7.98625 2.16001,12.72125 5.31374,5.5075 15.01125,4.68625 18.71999,-2.16 4.235,-6.5375 0.0225,-15.8825 -7.43999,-17.52125 l -2.64001,-0.24 z m -146.64375,-4.32 c -9.85625,5.465 -12.09249,17.855 -5.76,27.12125 6.22,8.74 19.73,10.30875 27.6,2.88 m 134.16375,2.16 c 9.85625,-5.465 12.0925,-17.855 5.76,-27.12125 -6.21999,-8.74125 -19.72999,-10.30875 -27.59999,-2.88 M 375.61567,382.9869 c 10.63876,33.185 47.6175,47.92375 78.00125,30.72"
       style="fill:none;stroke:#000000;stroke-width:0.71999997;stroke-linecap:round;stroke-linejoin:bevel;stroke-miterlimit:10;stroke-opacity:1;stroke-dasharray:none"
       id="path3052" />
    <path
       inkscape:connector-curvature="0"
       d="m 348.49442,383.9469 51.36125,30 m -51.36125,-62.64125 51.36125,-30.00125 m 105.1225,30.00125 -51.36125,-30.00125 m 51.36125,62.6425 -51.36125,30"
       style="fill:none;stroke:#000000;stroke-width:0.71999997;stroke-linecap:round;stroke-linejoin:round;stroke-miterlimit:10;stroke-opacity:1;stroke-dasharray:none"
       id="path3054"
       sodipodi:nodetypes="cccccccc" />
    <path
       inkscape:connector-curvature="0"
       d="m 477.85817,352.26565 c -10.64,-33.18625 -47.61875,-47.92375 -78.0025,-30.72125 m -24.48,61.6825 -0.72,-1.44 -1.20125,-0.72 -1.44,0 -1.2,0.72 m 107.28375,-29.76125 0.72,1.44 1.2,0.72 1.44,0 1.2,-0.72"
       style="fill:none;stroke:#000000;stroke-width:0.71999997;stroke-linecap:round;stroke-linejoin:bevel;stroke-miterlimit:10;stroke-opacity:1;stroke-dasharray:none"
       id="path3056" />
    <path
       inkscape:connector-curvature="0"
       d="m 439.45692,248.82315 22.8,0 m -22.8,12.48 22.8,0 m -25.68,32.64125 28.56001,0 -2.88,-32.64125 m -25.68,32.64125 2.87999,-32.64125 0,-12.48 m 22.80001,0 0,12.48 m -22.80001,32.64125 0,15.12 m 22.80001,-15.12 0,15.12 m 2.88,5.04 -28.56001,0 0,0.96 m 28.56001,-0.96 0,13.92 m -25.68001,-18.96 -2.87999,5.04 m 28.56,0 -2.88,-5.04 -22.8,0 m -51.84126,165.605 2.88,0 m 2.88,-35.76125 -8.88,0 0,-20.88 m 8.88,20.88 0,-28.80125 m 6.24,28.80125 0,-25.20125 m 8.88,25.20125 0,-20.88 m 6.24,20.88 0,-19.2 m 8.88125,19.2 0,-18 m 6.24001,18 0,-18 m 8.87999,18 0,-19.2 m 15.12,19.2 0,-25.20125 m -8.87999,25.20125 0,-20.88 m 23.99999,20.88 0,-33.84125 m -8.87999,33.84125 0,-28.80125 m -60.48126,28.80125 8.88,0 m 6.24001,0 8.88125,0 m 36.48,0 8.88,0 m -24,0 8.88,0 m -24,0 8.88,0 m -52.08125,0 0,26.88125 m 4.56,-26.88125 0,26.88125 m 10.56,-26.88125 0,26.88125 m 4.56,-26.88125 0,26.88125 m 10.56,-26.88125 0,26.88125 m 4.56,-26.88125 0,26.88125 m 10.56125,-26.88125 0,26.88125 m 4.56,-26.88125 0,26.88125 m 10.56,-26.88125 0,26.88125 m 4.56,-26.88125 0,26.88125 m 10.56,-26.88125 0,26.88125 m 4.32,-26.88125 0,26.88125 m -64.08125,8.88 3.12,0 m 12,0 3.12,0 m -33.12,0 -0.96,-8.88 m 3.84,8.88 0.72,-8.88 m 11.28,8.88 -0.72,-8.88 m 15.84,8.88 -0.72,-8.88 m -11.28,8.88 0.72,-8.88 m 14.4,8.88 0.72,-8.88 m 14.40125,8.88 0.72,-8.88 m -4.56,0 0.72,8.88 3.12,0 m 14.88,0 0.96,-8.88 m -4.56,0 0.72,8.88 2.88,0 m 15.12,0 0.72,-8.88 m -4.32,0 0.72,8.88 2.88,0"
       style="fill:none;stroke:#000000;stroke-width:0.71999997;stroke-linecap:round;stroke-linejoin:round;stroke-miterlimit:10;stroke-opacity:1;stroke-dasharray:none"
       id="path3060"
       sodipodi:nodetypes="cccccccccccccccccccccccccccccccccccccccccccccccccccccccccccccccccccccccccccccccccccccccccccccccccccccccccccccccccccccc" />
    <path
       inkscape:connector-curvature="0"
       d="m 384.49567,418.02815 c 5.315,-0.56 5.315,-7.12125 0,-7.68125"
       style="fill:none;stroke:#000000;stroke-width:0.71999997;stroke-linecap:round;stroke-linejoin:bevel;stroke-miterlimit:10;stroke-opacity:1;stroke-dasharray:none"
       id="path3062"
       sodipodi:nodetypes="cc" />
    <path
       style="fill:none;stroke:#000000;stroke-width:0.69999999999999996;stroke-linecap:round;stroke-linejoin:miter;stroke-opacity:1;stroke-miterlimit:4;stroke-dasharray:none"
       d="m 45.73558,162.00464 0,-5.41981"
       id="path3501"
       inkscape:connector-curvature="0"
       transform="translate(339.06988,248.46739)" />
  </g>
</svg>
