G04 MADE WITH FRITZING*
G04 WWW.FRITZING.ORG*
G04 DOUBLE SIDED*
G04 HOLES PLATED*
G04 CONTOUR ON CENTER OF CONTOUR VECTOR*
%ASAXBY*%
%FSLAX23Y23*%
%MOIN*%
%OFA0B0*%
%SFA1.0B1.0*%
%ADD10R,3.937010X4.724420X3.921010X4.708420*%
%ADD11C,0.008000*%
%ADD12C,0.006000*%
%ADD13R,0.001000X0.001000*%
%LNSILK0*%
G90*
G70*
G54D11*
X4Y4720D02*
X3933Y4720D01*
X3933Y4D01*
X4Y4D01*
X4Y4720D01*
D02*
G54D12*
X2867Y1780D02*
X2930Y1780D01*
D02*
X2856Y1790D02*
X2856Y1849D01*
D02*
X2942Y1790D02*
X2942Y1849D01*
D02*
X2930Y1859D02*
X2867Y1859D01*
G54D13*
X2862Y1861D02*
X2867Y1861D01*
X2930Y1861D02*
X2935Y1861D01*
X2860Y1860D02*
X2866Y1860D01*
X2930Y1860D02*
X2937Y1860D01*
X2858Y1859D02*
X2866Y1859D01*
X2930Y1859D02*
X2939Y1859D01*
X2857Y1858D02*
X2866Y1858D01*
X2930Y1858D02*
X2940Y1858D01*
X2856Y1857D02*
X2866Y1857D01*
X2931Y1857D02*
X2941Y1857D01*
X2855Y1856D02*
X2864Y1856D01*
X2933Y1856D02*
X2942Y1856D01*
X2854Y1855D02*
X2861Y1855D01*
X2936Y1855D02*
X2942Y1855D01*
X2854Y1854D02*
X2860Y1854D01*
X2937Y1854D02*
X2943Y1854D01*
X2853Y1853D02*
X2859Y1853D01*
X2938Y1853D02*
X2943Y1853D01*
X2853Y1852D02*
X2858Y1852D01*
X2938Y1852D02*
X2944Y1852D01*
X2853Y1851D02*
X2858Y1851D01*
X2939Y1851D02*
X2944Y1851D01*
X2853Y1850D02*
X2858Y1850D01*
X2939Y1850D02*
X2944Y1850D01*
X2854Y1790D02*
X2858Y1790D01*
X2939Y1790D02*
X2943Y1790D01*
X2853Y1789D02*
X2858Y1789D01*
X2939Y1789D02*
X2944Y1789D01*
X2853Y1788D02*
X2858Y1788D01*
X2939Y1788D02*
X2944Y1788D01*
X2853Y1787D02*
X2859Y1787D01*
X2938Y1787D02*
X2944Y1787D01*
X2854Y1786D02*
X2859Y1786D01*
X2937Y1786D02*
X2943Y1786D01*
X2854Y1785D02*
X2860Y1785D01*
X2936Y1785D02*
X2943Y1785D01*
X2855Y1784D02*
X2862Y1784D01*
X2935Y1784D02*
X2942Y1784D01*
X2855Y1783D02*
X2866Y1783D01*
X2931Y1783D02*
X2941Y1783D01*
X2856Y1782D02*
X2866Y1782D01*
X2931Y1782D02*
X2941Y1782D01*
X2857Y1781D02*
X2866Y1781D01*
X2930Y1781D02*
X2940Y1781D01*
X2859Y1780D02*
X2866Y1780D01*
X2930Y1780D02*
X2939Y1780D01*
X2860Y1779D02*
X2866Y1779D01*
X2930Y1779D02*
X2937Y1779D01*
X2862Y1778D02*
X2867Y1778D01*
X2930Y1778D02*
X2935Y1778D01*
X2844Y1768D02*
X2862Y1768D01*
X2885Y1768D02*
X2888Y1768D01*
X2936Y1768D02*
X2959Y1768D01*
X2844Y1767D02*
X2863Y1767D01*
X2884Y1767D02*
X2889Y1767D01*
X2934Y1767D02*
X2961Y1767D01*
X2844Y1766D02*
X2863Y1766D01*
X2884Y1766D02*
X2889Y1766D01*
X2933Y1766D02*
X2962Y1766D01*
X2844Y1765D02*
X2863Y1765D01*
X2883Y1765D02*
X2889Y1765D01*
X2932Y1765D02*
X2962Y1765D01*
X2844Y1764D02*
X2863Y1764D01*
X2883Y1764D02*
X2889Y1764D01*
X2931Y1764D02*
X2963Y1764D01*
X2844Y1763D02*
X2863Y1763D01*
X2883Y1763D02*
X2889Y1763D01*
X2931Y1763D02*
X2963Y1763D01*
X2844Y1762D02*
X2861Y1762D01*
X2883Y1762D02*
X2889Y1762D01*
X2931Y1762D02*
X2964Y1762D01*
X2844Y1761D02*
X2850Y1761D01*
X2883Y1761D02*
X2889Y1761D01*
X2930Y1761D02*
X2937Y1761D01*
X2958Y1761D02*
X2964Y1761D01*
X2844Y1760D02*
X2850Y1760D01*
X2883Y1760D02*
X2889Y1760D01*
X2930Y1760D02*
X2936Y1760D01*
X2957Y1760D02*
X2964Y1760D01*
X2844Y1759D02*
X2850Y1759D01*
X2883Y1759D02*
X2889Y1759D01*
X2930Y1759D02*
X2936Y1759D01*
X2957Y1759D02*
X2963Y1759D01*
X2844Y1758D02*
X2850Y1758D01*
X2883Y1758D02*
X2889Y1758D01*
X2930Y1758D02*
X2936Y1758D01*
X2956Y1758D02*
X2963Y1758D01*
X2844Y1757D02*
X2850Y1757D01*
X2883Y1757D02*
X2889Y1757D01*
X2931Y1757D02*
X2935Y1757D01*
X2955Y1757D02*
X2963Y1757D01*
X2844Y1756D02*
X2850Y1756D01*
X2883Y1756D02*
X2889Y1756D01*
X2932Y1756D02*
X2934Y1756D01*
X2954Y1756D02*
X2962Y1756D01*
X2844Y1755D02*
X2850Y1755D01*
X2883Y1755D02*
X2889Y1755D01*
X2953Y1755D02*
X2961Y1755D01*
X2844Y1754D02*
X2850Y1754D01*
X2883Y1754D02*
X2889Y1754D01*
X2953Y1754D02*
X2961Y1754D01*
X2844Y1753D02*
X2850Y1753D01*
X2883Y1753D02*
X2889Y1753D01*
X2952Y1753D02*
X2960Y1753D01*
X2844Y1752D02*
X2850Y1752D01*
X2883Y1752D02*
X2889Y1752D01*
X2951Y1752D02*
X2959Y1752D01*
X2844Y1751D02*
X2850Y1751D01*
X2883Y1751D02*
X2889Y1751D01*
X2950Y1751D02*
X2958Y1751D01*
X2844Y1750D02*
X2850Y1750D01*
X2883Y1750D02*
X2889Y1750D01*
X2950Y1750D02*
X2958Y1750D01*
X2844Y1749D02*
X2850Y1749D01*
X2883Y1749D02*
X2889Y1749D01*
X2949Y1749D02*
X2957Y1749D01*
X2844Y1748D02*
X2850Y1748D01*
X2883Y1748D02*
X2889Y1748D01*
X2948Y1748D02*
X2956Y1748D01*
X2844Y1747D02*
X2850Y1747D01*
X2883Y1747D02*
X2889Y1747D01*
X2947Y1747D02*
X2955Y1747D01*
X2844Y1746D02*
X2850Y1746D01*
X2883Y1746D02*
X2889Y1746D01*
X2946Y1746D02*
X2954Y1746D01*
X2844Y1745D02*
X2850Y1745D01*
X2883Y1745D02*
X2889Y1745D01*
X2946Y1745D02*
X2954Y1745D01*
X2844Y1744D02*
X2850Y1744D01*
X2883Y1744D02*
X2889Y1744D01*
X2945Y1744D02*
X2953Y1744D01*
X2844Y1743D02*
X2850Y1743D01*
X2883Y1743D02*
X2889Y1743D01*
X2944Y1743D02*
X2952Y1743D01*
X2844Y1742D02*
X2850Y1742D01*
X2883Y1742D02*
X2889Y1742D01*
X2943Y1742D02*
X2951Y1742D01*
X2844Y1741D02*
X2850Y1741D01*
X2883Y1741D02*
X2889Y1741D01*
X2943Y1741D02*
X2951Y1741D01*
X2844Y1740D02*
X2850Y1740D01*
X2883Y1740D02*
X2889Y1740D01*
X2942Y1740D02*
X2950Y1740D01*
X2832Y1739D02*
X2833Y1739D01*
X2844Y1739D02*
X2850Y1739D01*
X2883Y1739D02*
X2889Y1739D01*
X2907Y1739D02*
X2907Y1739D01*
X2941Y1739D02*
X2949Y1739D01*
X2831Y1738D02*
X2835Y1738D01*
X2844Y1738D02*
X2850Y1738D01*
X2883Y1738D02*
X2889Y1738D01*
X2905Y1738D02*
X2909Y1738D01*
X2940Y1738D02*
X2948Y1738D01*
X2830Y1737D02*
X2835Y1737D01*
X2844Y1737D02*
X2850Y1737D01*
X2883Y1737D02*
X2889Y1737D01*
X2904Y1737D02*
X2910Y1737D01*
X2939Y1737D02*
X2947Y1737D01*
X2830Y1736D02*
X2836Y1736D01*
X2844Y1736D02*
X2850Y1736D01*
X2883Y1736D02*
X2889Y1736D01*
X2904Y1736D02*
X2910Y1736D01*
X2939Y1736D02*
X2947Y1736D01*
X2830Y1735D02*
X2836Y1735D01*
X2844Y1735D02*
X2850Y1735D01*
X2883Y1735D02*
X2889Y1735D01*
X2904Y1735D02*
X2910Y1735D01*
X2938Y1735D02*
X2946Y1735D01*
X2830Y1734D02*
X2836Y1734D01*
X2844Y1734D02*
X2850Y1734D01*
X2883Y1734D02*
X2889Y1734D01*
X2904Y1734D02*
X2910Y1734D01*
X2937Y1734D02*
X2945Y1734D01*
X2830Y1733D02*
X2836Y1733D01*
X2844Y1733D02*
X2850Y1733D01*
X2883Y1733D02*
X2889Y1733D01*
X2904Y1733D02*
X2910Y1733D01*
X2936Y1733D02*
X2944Y1733D01*
X2830Y1732D02*
X2836Y1732D01*
X2844Y1732D02*
X2850Y1732D01*
X2883Y1732D02*
X2889Y1732D01*
X2904Y1732D02*
X2910Y1732D01*
X2936Y1732D02*
X2944Y1732D01*
X2830Y1731D02*
X2836Y1731D01*
X2844Y1731D02*
X2850Y1731D01*
X2883Y1731D02*
X2889Y1731D01*
X2904Y1731D02*
X2910Y1731D01*
X2935Y1731D02*
X2943Y1731D01*
X2830Y1730D02*
X2836Y1730D01*
X2844Y1730D02*
X2850Y1730D01*
X2883Y1730D02*
X2889Y1730D01*
X2904Y1730D02*
X2910Y1730D01*
X2934Y1730D02*
X2942Y1730D01*
X2830Y1729D02*
X2836Y1729D01*
X2844Y1729D02*
X2850Y1729D01*
X2883Y1729D02*
X2889Y1729D01*
X2904Y1729D02*
X2910Y1729D01*
X2933Y1729D02*
X2941Y1729D01*
X2830Y1728D02*
X2836Y1728D01*
X2844Y1728D02*
X2850Y1728D01*
X2883Y1728D02*
X2889Y1728D01*
X2904Y1728D02*
X2910Y1728D01*
X2932Y1728D02*
X2941Y1728D01*
X2830Y1727D02*
X2836Y1727D01*
X2844Y1727D02*
X2850Y1727D01*
X2883Y1727D02*
X2889Y1727D01*
X2904Y1727D02*
X2910Y1727D01*
X2932Y1727D02*
X2940Y1727D01*
X2960Y1727D02*
X2962Y1727D01*
X2830Y1726D02*
X2836Y1726D01*
X2844Y1726D02*
X2850Y1726D01*
X2883Y1726D02*
X2889Y1726D01*
X2904Y1726D02*
X2910Y1726D01*
X2931Y1726D02*
X2939Y1726D01*
X2959Y1726D02*
X2963Y1726D01*
X2830Y1725D02*
X2836Y1725D01*
X2844Y1725D02*
X2850Y1725D01*
X2883Y1725D02*
X2889Y1725D01*
X2904Y1725D02*
X2910Y1725D01*
X2931Y1725D02*
X2938Y1725D01*
X2958Y1725D02*
X2963Y1725D01*
X2830Y1724D02*
X2836Y1724D01*
X2844Y1724D02*
X2850Y1724D01*
X2883Y1724D02*
X2890Y1724D01*
X2904Y1724D02*
X2910Y1724D01*
X2930Y1724D02*
X2937Y1724D01*
X2958Y1724D02*
X2964Y1724D01*
X2830Y1723D02*
X2836Y1723D01*
X2844Y1723D02*
X2850Y1723D01*
X2884Y1723D02*
X2890Y1723D01*
X2903Y1723D02*
X2910Y1723D01*
X2930Y1723D02*
X2937Y1723D01*
X2957Y1723D02*
X2964Y1723D01*
X2830Y1722D02*
X2836Y1722D01*
X2844Y1722D02*
X2850Y1722D01*
X2884Y1722D02*
X2891Y1722D01*
X2902Y1722D02*
X2910Y1722D01*
X2930Y1722D02*
X2936Y1722D01*
X2957Y1722D02*
X2964Y1722D01*
X2830Y1721D02*
X2861Y1721D01*
X2884Y1721D02*
X2909Y1721D01*
X2930Y1721D02*
X2963Y1721D01*
X2830Y1720D02*
X2863Y1720D01*
X2885Y1720D02*
X2909Y1720D01*
X2931Y1720D02*
X2963Y1720D01*
X2830Y1719D02*
X2863Y1719D01*
X2885Y1719D02*
X2908Y1719D01*
X2931Y1719D02*
X2962Y1719D01*
X2830Y1718D02*
X2863Y1718D01*
X2886Y1718D02*
X2907Y1718D01*
X2932Y1718D02*
X2962Y1718D01*
X2830Y1717D02*
X2863Y1717D01*
X2887Y1717D02*
X2906Y1717D01*
X2932Y1717D02*
X2961Y1717D01*
X2830Y1716D02*
X2863Y1716D01*
X2889Y1716D02*
X2905Y1716D01*
X2933Y1716D02*
X2959Y1716D01*
X2831Y1715D02*
X2862Y1715D01*
X2891Y1715D02*
X2903Y1715D01*
X2935Y1715D02*
X2957Y1715D01*
D02*
G04 End of Silk0*
M02*