  0
SECTION
  2
BLOCKS
  0
ENDSEC
  0
SECTION
  2
ENTITIES
  0
LINE
  8
0
 10
-4
 20
0
 11
-3.96846
 21
-0.501332
  0
LINE
  8
0
 10
-3.96846
 20
-0.501332
 11
-3.87433
 21
-0.994759
  0
LINE
  8
0
 10
-3.87433
 20
-0.994759
 11
-3.71911
 21
-1.4725
  0
LINE
  8
0
 10
-3.71911
 20
-1.4725
 11
-3.50523
 21
-1.92701
  0
LINE
  8
0
 10
-3.50523
 20
-1.92701
 11
-3.23607
 21
-2.35114
  0
LINE
  8
0
 10
-3.23607
 20
-2.35114
 11
-2.91587
 21
-2.73819
  0
LINE
  8
0
 10
-2.91587
 20
-2.73819
 11
-2.5497
 21
-3.08205
  0
LINE
  8
0
 10
-2.5497
 20
-3.08205
 11
-2.14331
 21
-3.37731
  0
LINE
  8
0
 10
-2.14331
 20
-3.37731
 11
-1.70312
 21
-3.61931
  0
LINE
  8
0
 10
-1.70312
 20
-3.61931
 11
-1.23607
 21
-3.80423
  0
LINE
  8
0
 10
-1.23607
 20
-3.80423
 11
-0.749525
 21
-3.92915
  0
LINE
  8
0
 10
-0.749525
 20
-3.92915
 11
-0.251162
 21
-3.99211
  0
LINE
  8
0
 10
-0.251162
 20
-3.99211
 11
95.2712
 21
-3.99211
  0
LINE
  8
0
 10
95.2712
 20
-3.99211
 11
95.7695
 21
-3.92915
  0
LINE
  8
0
 10
95.7695
 20
-3.92915
 11
96.2561
 21
-3.80423
  0
LINE
  8
0
 10
96.2561
 20
-3.80423
 11
96.7231
 21
-3.61931
  0
LINE
  8
0
 10
96.7231
 20
-3.61931
 11
97.1633
 21
-3.37731
  0
LINE
  8
0
 10
97.1633
 20
-3.37731
 11
97.5697
 21
-3.08205
  0
LINE
  8
0
 10
97.5697
 20
-3.08205
 11
97.9359
 21
-2.73819
  0
LINE
  8
0
 10
97.9359
 20
-2.73819
 11
98.2561
 21
-2.35114
  0
LINE
  8
0
 10
98.2561
 20
-2.35114
 11
98.5252
 21
-1.92701
  0
LINE
  8
0
 10
98.5252
 20
-1.92701
 11
98.7391
 21
-1.4725
  0
LINE
  8
0
 10
98.7391
 20
-1.4725
 11
98.8943
 21
-0.994759
  0
LINE
  8
0
 10
98.8943
 20
-0.994759
 11
98.9885
 21
-0.501332
  0
LINE
  8
0
 10
98.9885
 20
-0.501332
 11
99.02
 21
0
  0
LINE
  8
0
 10
99.02
 20
0
 11
99.02
 21
45
  0
LINE
  8
0
 10
99.02
 20
45
 11
98.9885
 21
45.5013
  0
LINE
  8
0
 10
98.9885
 20
45.5013
 11
98.8943
 21
45.9948
  0
LINE
  8
0
 10
98.8943
 20
45.9948
 11
98.7391
 21
46.4725
  0
LINE
  8
0
 10
98.7391
 20
46.4725
 11
98.5252
 21
46.927
  0
LINE
  8
0
 10
98.5252
 20
46.927
 11
98.2561
 21
47.3511
  0
LINE
  8
0
 10
98.2561
 20
47.3511
 11
97.9359
 21
47.7382
  0
LINE
  8
0
 10
97.9359
 20
47.7382
 11
97.5697
 21
48.0821
  0
LINE
  8
0
 10
97.5697
 20
48.0821
 11
97.1633
 21
48.3773
  0
LINE
  8
0
 10
97.1633
 20
48.3773
 11
96.7231
 21
48.6193
  0
LINE
  8
0
 10
96.7231
 20
48.6193
 11
96.2561
 21
48.8042
  0
LINE
  8
0
 10
96.2561
 20
48.8042
 11
95.7695
 21
48.9291
  0
LINE
  8
0
 10
95.7695
 20
48.9291
 11
95.2712
 21
48.9921
  0
LINE
  8
0
 10
95.2712
 20
48.9921
 11
-0.251162
 21
48.9921
  0
LINE
  8
0
 10
-0.251162
 20
48.9921
 11
-0.749525
 21
48.9291
  0
LINE
  8
0
 10
-0.749525
 20
48.9291
 11
-1.23607
 21
48.8042
  0
LINE
  8
0
 10
-1.23607
 20
48.8042
 11
-1.70312
 21
48.6193
  0
LINE
  8
0
 10
-1.70312
 20
48.6193
 11
-2.14331
 21
48.3773
  0
LINE
  8
0
 10
-2.14331
 20
48.3773
 11
-2.5497
 21
48.0821
  0
LINE
  8
0
 10
-2.5497
 20
48.0821
 11
-2.91587
 21
47.7382
  0
LINE
  8
0
 10
-2.91587
 20
47.7382
 11
-3.23607
 21
47.3511
  0
LINE
  8
0
 10
-3.23607
 20
47.3511
 11
-3.50523
 21
46.927
  0
LINE
  8
0
 10
-3.50523
 20
46.927
 11
-3.71911
 21
46.4725
  0
LINE
  8
0
 10
-3.71911
 20
46.4725
 11
-3.87433
 21
45.9948
  0
LINE
  8
0
 10
-3.87433
 20
45.9948
 11
-3.96846
 21
45.5013
  0
LINE
  8
0
 10
-3.96846
 20
45.5013
 11
-4
 21
45
  0
LINE
  8
0
 10
-4
 20
45
 11
-4
 21
0
  0
LINE
  8
0
 10
-2.1891
 20
0
 11
-2.17184
 21
0.274366
  0
LINE
  8
0
 10
-2.17184
 20
0.274366
 11
-2.12033
 21
0.544407
  0
LINE
  8
0
 10
-2.12033
 20
0.544407
 11
-2.03537
 21
0.805861
  0
LINE
  8
0
 10
-2.03537
 20
0.805861
 11
-1.91832
 21
1.05461
  0
LINE
  8
0
 10
-1.91832
 20
1.05461
 11
-1.77102
 21
1.28672
  0
LINE
  8
0
 10
-1.77102
 20
1.28672
 11
-1.59579
 21
1.49854
  0
LINE
  8
0
 10
-1.59579
 20
1.49854
 11
-1.39538
 21
1.68673
  0
LINE
  8
0
 10
-1.39538
 20
1.68673
 11
-1.17298
 21
1.84832
  0
LINE
  8
0
 10
-1.17298
 20
1.84832
 11
-0.932073
 21
1.98076
  0
LINE
  8
0
 10
-0.932073
 20
1.98076
 11
-0.676469
 21
2.08196
  0
LINE
  8
0
 10
-0.676469
 20
2.08196
 11
-0.410196
 21
2.15032
  0
LINE
  8
0
 10
-0.410196
 20
2.15032
 11
-0.137454
 21
2.18478
  0
LINE
  8
0
 10
-0.137454
 20
2.18478
 11
0.137454
 21
2.18478
  0
LINE
  8
0
 10
0.137454
 20
2.18478
 11
0.410196
 21
2.15032
  0
LINE
  8
0
 10
0.410196
 20
2.15032
 11
0.676469
 21
2.08196
  0
LINE
  8
0
 10
0.676469
 20
2.08196
 11
0.932073
 21
1.98076
  0
LINE
  8
0
 10
0.932073
 20
1.98076
 11
1.17298
 21
1.84832
  0
LINE
  8
0
 10
1.17298
 20
1.84832
 11
1.39538
 21
1.68673
  0
LINE
  8
0
 10
1.39538
 20
1.68673
 11
1.59579
 21
1.49854
  0
LINE
  8
0
 10
1.59579
 20
1.49854
 11
1.77102
 21
1.28672
  0
LINE
  8
0
 10
1.77102
 20
1.28672
 11
1.91832
 21
1.05461
  0
LINE
  8
0
 10
1.91832
 20
1.05461
 11
2.03537
 21
0.805861
  0
LINE
  8
0
 10
2.03537
 20
0.805861
 11
2.12033
 21
0.544407
  0
LINE
  8
0
 10
2.12033
 20
0.544407
 11
2.17184
 21
0.274366
  0
LINE
  8
0
 10
2.17184
 20
0.274366
 11
2.1891
 21
0
  0
LINE
  8
0
 10
2.1891
 20
0
 11
2.17184
 21
-0.274366
  0
LINE
  8
0
 10
2.17184
 20
-0.274366
 11
2.12033
 21
-0.544407
  0
LINE
  8
0
 10
2.12033
 20
-0.544407
 11
2.03537
 21
-0.805861
  0
LINE
  8
0
 10
2.03537
 20
-0.805861
 11
1.91832
 21
-1.05461
  0
LINE
  8
0
 10
1.91832
 20
-1.05461
 11
1.77102
 21
-1.28672
  0
LINE
  8
0
 10
1.77102
 20
-1.28672
 11
1.59579
 21
-1.49854
  0
LINE
  8
0
 10
1.59579
 20
-1.49854
 11
1.39538
 21
-1.68673
  0
LINE
  8
0
 10
1.39538
 20
-1.68673
 11
1.17298
 21
-1.84832
  0
LINE
  8
0
 10
1.17298
 20
-1.84832
 11
0.932073
 21
-1.98076
  0
LINE
  8
0
 10
0.932073
 20
-1.98076
 11
0.676469
 21
-2.08196
  0
LINE
  8
0
 10
0.676469
 20
-2.08196
 11
0.410196
 21
-2.15032
  0
LINE
  8
0
 10
0.410196
 20
-2.15032
 11
0.137454
 21
-2.18478
  0
LINE
  8
0
 10
0.137454
 20
-2.18478
 11
-0.137454
 21
-2.18478
  0
LINE
  8
0
 10
-0.137454
 20
-2.18478
 11
-0.410196
 21
-2.15032
  0
LINE
  8
0
 10
-0.410196
 20
-2.15032
 11
-0.676469
 21
-2.08196
  0
LINE
  8
0
 10
-0.676469
 20
-2.08196
 11
-0.932073
 21
-1.98076
  0
LINE
  8
0
 10
-0.932073
 20
-1.98076
 11
-1.17298
 21
-1.84832
  0
LINE
  8
0
 10
-1.17298
 20
-1.84832
 11
-1.39538
 21
-1.68673
  0
LINE
  8
0
 10
-1.39538
 20
-1.68673
 11
-1.59579
 21
-1.49854
  0
LINE
  8
0
 10
-1.59579
 20
-1.49854
 11
-1.77102
 21
-1.28672
  0
LINE
  8
0
 10
-1.77102
 20
-1.28672
 11
-1.91832
 21
-1.05461
  0
LINE
  8
0
 10
-1.91832
 20
-1.05461
 11
-2.03537
 21
-0.805861
  0
LINE
  8
0
 10
-2.03537
 20
-0.805861
 11
-2.12033
 21
-0.544407
  0
LINE
  8
0
 10
-2.12033
 20
-0.544407
 11
-2.17184
 21
-0.274366
  0
LINE
  8
0
 10
-2.17184
 20
-0.274366
 11
-2.1891
 21
0
  0
LINE
  8
0
 10
-2.1891
 20
45
 11
-2.17184
 21
45.2744
  0
LINE
  8
0
 10
-2.17184
 20
45.2744
 11
-2.12033
 21
45.5444
  0
LINE
  8
0
 10
-2.12033
 20
45.5444
 11
-2.03537
 21
45.8059
  0
LINE
  8
0
 10
-2.03537
 20
45.8059
 11
-1.91832
 21
46.0546
  0
LINE
  8
0
 10
-1.91832
 20
46.0546
 11
-1.77102
 21
46.2867
  0
LINE
  8
0
 10
-1.77102
 20
46.2867
 11
-1.59579
 21
46.4985
  0
LINE
  8
0
 10
-1.59579
 20
46.4985
 11
-1.39538
 21
46.6867
  0
LINE
  8
0
 10
-1.39538
 20
46.6867
 11
-1.17298
 21
46.8483
  0
LINE
  8
0
 10
-1.17298
 20
46.8483
 11
-0.932073
 21
46.9808
  0
LINE
  8
0
 10
-0.932073
 20
46.9808
 11
-0.676469
 21
47.082
  0
LINE
  8
0
 10
-0.676469
 20
47.082
 11
-0.410196
 21
47.1503
  0
LINE
  8
0
 10
-0.410196
 20
47.1503
 11
-0.137454
 21
47.1848
  0
LINE
  8
0
 10
-0.137454
 20
47.1848
 11
0.137454
 21
47.1848
  0
LINE
  8
0
 10
0.137454
 20
47.1848
 11
0.410196
 21
47.1503
  0
LINE
  8
0
 10
0.410196
 20
47.1503
 11
0.676469
 21
47.082
  0
LINE
  8
0
 10
0.676469
 20
47.082
 11
0.932073
 21
46.9808
  0
LINE
  8
0
 10
0.932073
 20
46.9808
 11
1.17298
 21
46.8483
  0
LINE
  8
0
 10
1.17298
 20
46.8483
 11
1.39538
 21
46.6867
  0
LINE
  8
0
 10
1.39538
 20
46.6867
 11
1.59579
 21
46.4985
  0
LINE
  8
0
 10
1.59579
 20
46.4985
 11
1.77102
 21
46.2867
  0
LINE
  8
0
 10
1.77102
 20
46.2867
 11
1.91832
 21
46.0546
  0
LINE
  8
0
 10
1.91832
 20
46.0546
 11
2.03537
 21
45.8059
  0
LINE
  8
0
 10
2.03537
 20
45.8059
 11
2.12033
 21
45.5444
  0
LINE
  8
0
 10
2.12033
 20
45.5444
 11
2.17184
 21
45.2744
  0
LINE
  8
0
 10
2.17184
 20
45.2744
 11
2.1891
 21
45
  0
LINE
  8
0
 10
2.1891
 20
45
 11
2.17184
 21
44.7256
  0
LINE
  8
0
 10
2.17184
 20
44.7256
 11
2.12033
 21
44.4556
  0
LINE
  8
0
 10
2.12033
 20
44.4556
 11
2.03537
 21
44.1941
  0
LINE
  8
0
 10
2.03537
 20
44.1941
 11
1.91832
 21
43.9454
  0
LINE
  8
0
 10
1.91832
 20
43.9454
 11
1.77102
 21
43.7133
  0
LINE
  8
0
 10
1.77102
 20
43.7133
 11
1.59579
 21
43.5015
  0
LINE
  8
0
 10
1.59579
 20
43.5015
 11
1.39538
 21
43.3133
  0
LINE
  8
0
 10
1.39538
 20
43.3133
 11
1.17298
 21
43.1517
  0
LINE
  8
0
 10
1.17298
 20
43.1517
 11
0.932073
 21
43.0192
  0
LINE
  8
0
 10
0.932073
 20
43.0192
 11
0.676469
 21
42.918
  0
LINE
  8
0
 10
0.676469
 20
42.918
 11
0.410196
 21
42.8497
  0
LINE
  8
0
 10
0.410196
 20
42.8497
 11
0.137454
 21
42.8152
  0
LINE
  8
0
 10
0.137454
 20
42.8152
 11
-0.137454
 21
42.8152
  0
LINE
  8
0
 10
-0.137454
 20
42.8152
 11
-0.410196
 21
42.8497
  0
LINE
  8
0
 10
-0.410196
 20
42.8497
 11
-0.676469
 21
42.918
  0
LINE
  8
0
 10
-0.676469
 20
42.918
 11
-0.932073
 21
43.0192
  0
LINE
  8
0
 10
-0.932073
 20
43.0192
 11
-1.17298
 21
43.1517
  0
LINE
  8
0
 10
-1.17298
 20
43.1517
 11
-1.39538
 21
43.3133
  0
LINE
  8
0
 10
-1.39538
 20
43.3133
 11
-1.59579
 21
43.5015
  0
LINE
  8
0
 10
-1.59579
 20
43.5015
 11
-1.77102
 21
43.7133
  0
LINE
  8
0
 10
-1.77102
 20
43.7133
 11
-1.91832
 21
43.9454
  0
LINE
  8
0
 10
-1.91832
 20
43.9454
 11
-2.03537
 21
44.1941
  0
LINE
  8
0
 10
-2.03537
 20
44.1941
 11
-2.12033
 21
44.4556
  0
LINE
  8
0
 10
-2.12033
 20
44.4556
 11
-2.17184
 21
44.7256
  0
LINE
  8
0
 10
-2.17184
 20
44.7256
 11
-2.1891
 21
45
  0
LINE
  8
0
 10
5
 20
25.2
 11
5
 21
45.2
  0
LINE
  8
0
 10
5
 20
45.2
 11
89
 21
45.2
  0
LINE
  8
0
 10
89
 20
45.2
 11
89
 21
25.2
  0
LINE
  8
0
 10
89
 20
25.2
 11
5
 21
25.2
  0
LINE
  8
0
 10
24.5
 20
8.5
 11
24.5
 21
20.5
  0
LINE
  8
0
 10
24.5
 20
20.5
 11
39.5
 21
20.5
  0
LINE
  8
0
 10
39.5
 20
20.5
 11
39.5
 21
8.5
  0
LINE
  8
0
 10
39.5
 20
8.5
 11
24.5
 21
8.5
  0
LINE
  8
0
 10
77.5
 20
11
 11
77.5434
 21
11.6893
  0
LINE
  8
0
 10
77.5434
 20
11.6893
 11
77.6728
 21
12.3678
  0
LINE
  8
0
 10
77.6728
 20
12.3678
 11
77.8862
 21
13.0247
  0
LINE
  8
0
 10
77.8862
 20
13.0247
 11
78.1803
 21
13.6496
  0
LINE
  8
0
 10
78.1803
 20
13.6496
 11
78.5504
 21
14.2328
  0
LINE
  8
0
 10
78.5504
 20
14.2328
 11
78.9907
 21
14.765
  0
LINE
  8
0
 10
78.9907
 20
14.765
 11
79.4942
 21
15.2378
  0
LINE
  8
0
 10
79.4942
 20
15.2378
 11
80.053
 21
15.6438
  0
LINE
  8
0
 10
80.053
 20
15.6438
 11
80.6582
 21
15.9765
  0
LINE
  8
0
 10
80.6582
 20
15.9765
 11
81.3004
 21
16.2308
  0
LINE
  8
0
 10
81.3004
 20
16.2308
 11
81.9694
 21
16.4026
  0
LINE
  8
0
 10
81.9694
 20
16.4026
 11
82.6547
 21
16.4891
  0
LINE
  8
0
 10
82.6547
 20
16.4891
 11
83.3453
 21
16.4891
  0
LINE
  8
0
 10
83.3453
 20
16.4891
 11
84.0306
 21
16.4026
  0
LINE
  8
0
 10
84.0306
 20
16.4026
 11
84.6996
 21
16.2308
  0
LINE
  8
0
 10
84.6996
 20
16.2308
 11
85.3418
 21
15.9765
  0
LINE
  8
0
 10
85.3418
 20
15.9765
 11
85.947
 21
15.6438
  0
LINE
  8
0
 10
85.947
 20
15.6438
 11
86.5058
 21
15.2378
  0
LINE
  8
0
 10
86.5058
 20
15.2378
 11
87.0093
 21
14.765
  0
LINE
  8
0
 10
87.0093
 20
14.765
 11
87.4496
 21
14.2328
  0
LINE
  8
0
 10
87.4496
 20
14.2328
 11
87.8197
 21
13.6496
  0
LINE
  8
0
 10
87.8197
 20
13.6496
 11
88.1138
 21
13.0247
  0
LINE
  8
0
 10
88.1138
 20
13.0247
 11
88.3272
 21
12.3678
  0
LINE
  8
0
 10
88.3272
 20
12.3678
 11
88.4566
 21
11.6893
  0
LINE
  8
0
 10
88.4566
 20
11.6893
 11
88.5
 21
11
  0
LINE
  8
0
 10
88.5
 20
11
 11
88.4566
 21
10.3107
  0
LINE
  8
0
 10
88.4566
 20
10.3107
 11
88.3272
 21
9.63221
  0
LINE
  8
0
 10
88.3272
 20
9.63221
 11
88.1138
 21
8.97531
  0
LINE
  8
0
 10
88.1138
 20
8.97531
 11
87.8197
 21
8.35035
  0
LINE
  8
0
 10
87.8197
 20
8.35035
 11
87.4496
 21
7.76718
  0
LINE
  8
0
 10
87.4496
 20
7.76718
 11
87.0093
 21
7.23499
  0
LINE
  8
0
 10
87.0093
 20
7.23499
 11
86.5058
 21
6.76218
  0
LINE
  8
0
 10
86.5058
 20
6.76218
 11
85.947
 21
6.3562
  0
LINE
  8
0
 10
85.947
 20
6.3562
 11
85.3418
 21
6.02345
  0
LINE
  8
0
 10
85.3418
 20
6.02345
 11
84.6996
 21
5.76919
  0
LINE
  8
0
 10
84.6996
 20
5.76919
 11
84.0306
 21
5.59742
  0
LINE
  8
0
 10
84.0306
 20
5.59742
 11
83.3453
 21
5.51085
  0
LINE
  8
0
 10
83.3453
 20
5.51085
 11
82.6547
 21
5.51085
  0
LINE
  8
0
 10
82.6547
 20
5.51085
 11
81.9694
 21
5.59742
  0
LINE
  8
0
 10
81.9694
 20
5.59742
 11
81.3004
 21
5.76919
  0
LINE
  8
0
 10
81.3004
 20
5.76919
 11
80.6582
 21
6.02345
  0
LINE
  8
0
 10
80.6582
 20
6.02345
 11
80.053
 21
6.3562
  0
LINE
  8
0
 10
80.053
 20
6.3562
 11
79.4942
 21
6.76218
  0
LINE
  8
0
 10
79.4942
 20
6.76218
 11
78.9907
 21
7.23499
  0
LINE
  8
0
 10
78.9907
 20
7.23499
 11
78.5504
 21
7.76718
  0
LINE
  8
0
 10
78.5504
 20
7.76718
 11
78.1803
 21
8.35035
  0
LINE
  8
0
 10
78.1803
 20
8.35035
 11
77.8862
 21
8.97531
  0
LINE
  8
0
 10
77.8862
 20
8.97531
 11
77.6728
 21
9.63221
  0
LINE
  8
0
 10
77.6728
 20
9.63221
 11
77.5434
 21
10.3107
  0
LINE
  8
0
 10
77.5434
 20
10.3107
 11
77.5
 21
11
  0
LINE
  8
0
 10
92.8309
 20
0
 11
92.8482
 21
0.274366
  0
LINE
  8
0
 10
92.8482
 20
0.274366
 11
92.8997
 21
0.544407
  0
LINE
  8
0
 10
92.8997
 20
0.544407
 11
92.9846
 21
0.805861
  0
LINE
  8
0
 10
92.9846
 20
0.805861
 11
93.1017
 21
1.05461
  0
LINE
  8
0
 10
93.1017
 20
1.05461
 11
93.249
 21
1.28672
  0
LINE
  8
0
 10
93.249
 20
1.28672
 11
93.4242
 21
1.49854
  0
LINE
  8
0
 10
93.4242
 20
1.49854
 11
93.6246
 21
1.68673
  0
LINE
  8
0
 10
93.6246
 20
1.68673
 11
93.847
 21
1.84832
  0
LINE
  8
0
 10
93.847
 20
1.84832
 11
94.0879
 21
1.98076
  0
LINE
  8
0
 10
94.0879
 20
1.98076
 11
94.3435
 21
2.08196
  0
LINE
  8
0
 10
94.3435
 20
2.08196
 11
94.6098
 21
2.15032
  0
LINE
  8
0
 10
94.6098
 20
2.15032
 11
94.8825
 21
2.18478
  0
LINE
  8
0
 10
94.8825
 20
2.18478
 11
95.1575
 21
2.18478
  0
LINE
  8
0
 10
95.1575
 20
2.18478
 11
95.4302
 21
2.15032
  0
LINE
  8
0
 10
95.4302
 20
2.15032
 11
95.6965
 21
2.08196
  0
LINE
  8
0
 10
95.6965
 20
2.08196
 11
95.9521
 21
1.98076
  0
LINE
  8
0
 10
95.9521
 20
1.98076
 11
96.193
 21
1.84832
  0
LINE
  8
0
 10
96.193
 20
1.84832
 11
96.4154
 21
1.68673
  0
LINE
  8
0
 10
96.4154
 20
1.68673
 11
96.6158
 21
1.49854
  0
LINE
  8
0
 10
96.6158
 20
1.49854
 11
96.791
 21
1.28672
  0
LINE
  8
0
 10
96.791
 20
1.28672
 11
96.9383
 21
1.05461
  0
LINE
  8
0
 10
96.9383
 20
1.05461
 11
97.0554
 21
0.805861
  0
LINE
  8
0
 10
97.0554
 20
0.805861
 11
97.1403
 21
0.544407
  0
LINE
  8
0
 10
97.1403
 20
0.544407
 11
97.1918
 21
0.274366
  0
LINE
  8
0
 10
97.1918
 20
0.274366
 11
97.2091
 21
0
  0
LINE
  8
0
 10
97.2091
 20
0
 11
97.1918
 21
-0.274366
  0
LINE
  8
0
 10
97.1918
 20
-0.274366
 11
97.1403
 21
-0.544407
  0
LINE
  8
0
 10
97.1403
 20
-0.544407
 11
97.0554
 21
-0.805861
  0
LINE
  8
0
 10
97.0554
 20
-0.805861
 11
96.9383
 21
-1.05461
  0
LINE
  8
0
 10
96.9383
 20
-1.05461
 11
96.791
 21
-1.28672
  0
LINE
  8
0
 10
96.791
 20
-1.28672
 11
96.6158
 21
-1.49854
  0
LINE
  8
0
 10
96.6158
 20
-1.49854
 11
96.4154
 21
-1.68673
  0
LINE
  8
0
 10
96.4154
 20
-1.68673
 11
96.193
 21
-1.84832
  0
LINE
  8
0
 10
96.193
 20
-1.84832
 11
95.9521
 21
-1.98076
  0
LINE
  8
0
 10
95.9521
 20
-1.98076
 11
95.6965
 21
-2.08196
  0
LINE
  8
0
 10
95.6965
 20
-2.08196
 11
95.4302
 21
-2.15032
  0
LINE
  8
0
 10
95.4302
 20
-2.15032
 11
95.1575
 21
-2.18478
  0
LINE
  8
0
 10
95.1575
 20
-2.18478
 11
94.8825
 21
-2.18478
  0
LINE
  8
0
 10
94.8825
 20
-2.18478
 11
94.6098
 21
-2.15032
  0
LINE
  8
0
 10
94.6098
 20
-2.15032
 11
94.3435
 21
-2.08196
  0
LINE
  8
0
 10
94.3435
 20
-2.08196
 11
94.0879
 21
-1.98076
  0
LINE
  8
0
 10
94.0879
 20
-1.98076
 11
93.847
 21
-1.84832
  0
LINE
  8
0
 10
93.847
 20
-1.84832
 11
93.6246
 21
-1.68673
  0
LINE
  8
0
 10
93.6246
 20
-1.68673
 11
93.4242
 21
-1.49854
  0
LINE
  8
0
 10
93.4242
 20
-1.49854
 11
93.249
 21
-1.28672
  0
LINE
  8
0
 10
93.249
 20
-1.28672
 11
93.1017
 21
-1.05461
  0
LINE
  8
0
 10
93.1017
 20
-1.05461
 11
92.9846
 21
-0.805861
  0
LINE
  8
0
 10
92.9846
 20
-0.805861
 11
92.8997
 21
-0.544407
  0
LINE
  8
0
 10
92.8997
 20
-0.544407
 11
92.8482
 21
-0.274366
  0
LINE
  8
0
 10
92.8482
 20
-0.274366
 11
92.8309
 21
0
  0
LINE
  8
0
 10
92.8309
 20
45
 11
92.8482
 21
45.2744
  0
LINE
  8
0
 10
92.8482
 20
45.2744
 11
92.8997
 21
45.5444
  0
LINE
  8
0
 10
92.8997
 20
45.5444
 11
92.9846
 21
45.8059
  0
LINE
  8
0
 10
92.9846
 20
45.8059
 11
93.1017
 21
46.0546
  0
LINE
  8
0
 10
93.1017
 20
46.0546
 11
93.249
 21
46.2867
  0
LINE
  8
0
 10
93.249
 20
46.2867
 11
93.4242
 21
46.4985
  0
LINE
  8
0
 10
93.4242
 20
46.4985
 11
93.6246
 21
46.6867
  0
LINE
  8
0
 10
93.6246
 20
46.6867
 11
93.847
 21
46.8483
  0
LINE
  8
0
 10
93.847
 20
46.8483
 11
94.0879
 21
46.9808
  0
LINE
  8
0
 10
94.0879
 20
46.9808
 11
94.3435
 21
47.082
  0
LINE
  8
0
 10
94.3435
 20
47.082
 11
94.6098
 21
47.1503
  0
LINE
  8
0
 10
94.6098
 20
47.1503
 11
94.8825
 21
47.1848
  0
LINE
  8
0
 10
94.8825
 20
47.1848
 11
95.1575
 21
47.1848
  0
LINE
  8
0
 10
95.1575
 20
47.1848
 11
95.4302
 21
47.1503
  0
LINE
  8
0
 10
95.4302
 20
47.1503
 11
95.6965
 21
47.082
  0
LINE
  8
0
 10
95.6965
 20
47.082
 11
95.9521
 21
46.9808
  0
LINE
  8
0
 10
95.9521
 20
46.9808
 11
96.193
 21
46.8483
  0
LINE
  8
0
 10
96.193
 20
46.8483
 11
96.4154
 21
46.6867
  0
LINE
  8
0
 10
96.4154
 20
46.6867
 11
96.6158
 21
46.4985
  0
LINE
  8
0
 10
96.6158
 20
46.4985
 11
96.791
 21
46.2867
  0
LINE
  8
0
 10
96.791
 20
46.2867
 11
96.9383
 21
46.0546
  0
LINE
  8
0
 10
96.9383
 20
46.0546
 11
97.0554
 21
45.8059
  0
LINE
  8
0
 10
97.0554
 20
45.8059
 11
97.1403
 21
45.5444
  0
LINE
  8
0
 10
97.1403
 20
45.5444
 11
97.1918
 21
45.2744
  0
LINE
  8
0
 10
97.1918
 20
45.2744
 11
97.2091
 21
45
  0
LINE
  8
0
 10
97.2091
 20
45
 11
97.1918
 21
44.7256
  0
LINE
  8
0
 10
97.1918
 20
44.7256
 11
97.1403
 21
44.4556
  0
LINE
  8
0
 10
97.1403
 20
44.4556
 11
97.0554
 21
44.1941
  0
LINE
  8
0
 10
97.0554
 20
44.1941
 11
96.9383
 21
43.9454
  0
LINE
  8
0
 10
96.9383
 20
43.9454
 11
96.791
 21
43.7133
  0
LINE
  8
0
 10
96.791
 20
43.7133
 11
96.6158
 21
43.5015
  0
LINE
  8
0
 10
96.6158
 20
43.5015
 11
96.4154
 21
43.3133
  0
LINE
  8
0
 10
96.4154
 20
43.3133
 11
96.193
 21
43.1517
  0
LINE
  8
0
 10
96.193
 20
43.1517
 11
95.9521
 21
43.0192
  0
LINE
  8
0
 10
95.9521
 20
43.0192
 11
95.6965
 21
42.918
  0
LINE
  8
0
 10
95.6965
 20
42.918
 11
95.4302
 21
42.8497
  0
LINE
  8
0
 10
95.4302
 20
42.8497
 11
95.1575
 21
42.8152
  0
LINE
  8
0
 10
95.1575
 20
42.8152
 11
94.8825
 21
42.8152
  0
LINE
  8
0
 10
94.8825
 20
42.8152
 11
94.6098
 21
42.8497
  0
LINE
  8
0
 10
94.6098
 20
42.8497
 11
94.3435
 21
42.918
  0
LINE
  8
0
 10
94.3435
 20
42.918
 11
94.0879
 21
43.0192
  0
LINE
  8
0
 10
94.0879
 20
43.0192
 11
93.847
 21
43.1517
  0
LINE
  8
0
 10
93.847
 20
43.1517
 11
93.6246
 21
43.3133
  0
LINE
  8
0
 10
93.6246
 20
43.3133
 11
93.4242
 21
43.5015
  0
LINE
  8
0
 10
93.4242
 20
43.5015
 11
93.249
 21
43.7133
  0
LINE
  8
0
 10
93.249
 20
43.7133
 11
93.1017
 21
43.9454
  0
LINE
  8
0
 10
93.1017
 20
43.9454
 11
92.9846
 21
44.1941
  0
LINE
  8
0
 10
92.9846
 20
44.1941
 11
92.8997
 21
44.4556
  0
LINE
  8
0
 10
92.8997
 20
44.4556
 11
92.8482
 21
44.7256
  0
LINE
  8
0
 10
92.8482
 20
44.7256
 11
92.8309
 21
45
  0
ENDSEC
  0
SECTION
  2
OBJECTS
  0
DICTIONARY
  0
ENDSEC
  0
EOF
