G04 MADE WITH FRITZING*
G04 WWW.FRITZING.ORG*
G04 DOUBLE SIDED*
G04 HOLES PLATED*
G04 CONTOUR ON CENTER OF CONTOUR VECTOR*
%ASAXBY*%
%FSLAX23Y23*%
%MOIN*%
%OFA0B0*%
%SFA1.0B1.0*%
%ADD10C,0.075000*%
%ADD11C,0.082000*%
%ADD12C,0.075433*%
%ADD13C,0.039370*%
%ADD14C,0.080000*%
%ADD15C,0.074000*%
%ADD16C,0.083307*%
%ADD17R,0.082000X0.082000*%
%ADD18R,0.080000X0.080000*%
%ADD19R,0.074000X0.074000*%
%ADD20C,0.024000*%
%ADD21C,0.060000*%
%ADD22C,0.016000*%
%LNCOPPER1*%
G90*
G70*
G54D10*
X386Y825D03*
X1208Y3824D03*
X1099Y287D03*
X699Y287D03*
X649Y3362D03*
X649Y2962D03*
G54D11*
X249Y287D03*
X547Y287D03*
G54D12*
X599Y2287D03*
G54D13*
X524Y1287D03*
G54D14*
X324Y3387D03*
X324Y3487D03*
X324Y3587D03*
X324Y3687D03*
X399Y2887D03*
X399Y3083D03*
G54D15*
X274Y2512D03*
X274Y2412D03*
X274Y2312D03*
X274Y2212D03*
X274Y2112D03*
X274Y2012D03*
X274Y1912D03*
X274Y1812D03*
X274Y1712D03*
X274Y1612D03*
X274Y1512D03*
X274Y1412D03*
X274Y1312D03*
X274Y1212D03*
X274Y1112D03*
X274Y1012D03*
X274Y912D03*
X274Y812D03*
X274Y712D03*
X274Y612D03*
X174Y2512D03*
X174Y2412D03*
X174Y2312D03*
X174Y2212D03*
X174Y2112D03*
X174Y2012D03*
X174Y1912D03*
X174Y1812D03*
X174Y1712D03*
X174Y1612D03*
X174Y1512D03*
X174Y1412D03*
X174Y1312D03*
X174Y1212D03*
X174Y1112D03*
X174Y1012D03*
X174Y912D03*
X174Y812D03*
X174Y712D03*
X174Y612D03*
G54D16*
X876Y534D03*
X876Y672D03*
X876Y809D03*
X876Y929D03*
X873Y1047D03*
X876Y1165D03*
X875Y1281D03*
X875Y1399D03*
X875Y1518D03*
X875Y1636D03*
X875Y1755D03*
X876Y1875D03*
X1051Y535D03*
X1051Y673D03*
X1051Y810D03*
X1051Y930D03*
X1048Y1048D03*
X1051Y1166D03*
X1050Y1282D03*
X1050Y1400D03*
X1050Y1519D03*
X1050Y1637D03*
X1050Y1756D03*
X1051Y1876D03*
X1051Y2015D03*
X876Y2014D03*
X878Y2257D03*
X1053Y2258D03*
X879Y2379D03*
X1054Y2380D03*
X878Y2498D03*
X1053Y2498D03*
X878Y2615D03*
X1053Y2616D03*
X878Y2734D03*
X1053Y2733D03*
X878Y2852D03*
X1053Y2852D03*
X878Y2969D03*
X1053Y2970D03*
X878Y3088D03*
X1053Y3089D03*
X878Y3207D03*
X1053Y3207D03*
X878Y3329D03*
X1053Y3330D03*
X878Y3466D03*
X1052Y3467D03*
G54D17*
X248Y287D03*
G54D18*
X324Y3387D03*
X399Y2887D03*
G54D19*
X174Y2512D03*
G54D20*
X774Y3086D02*
X846Y3087D01*
D02*
X749Y2761D02*
X749Y3062D01*
D02*
X124Y2737D02*
X725Y2737D01*
D02*
X725Y2737D02*
X749Y2761D01*
D02*
X749Y3062D02*
X774Y3086D01*
D02*
X99Y2712D02*
X124Y2737D01*
D02*
X1174Y3062D02*
X1150Y3086D01*
D02*
X750Y1087D02*
X749Y1612D01*
D02*
X725Y1062D02*
X750Y1087D01*
D02*
X474Y2162D02*
X1149Y2162D01*
D02*
X450Y1937D02*
X449Y2137D01*
D02*
X1149Y2162D02*
X1173Y2187D01*
D02*
X699Y911D02*
X725Y937D01*
D02*
X749Y1612D02*
X774Y1637D01*
D02*
X824Y1637D02*
X842Y1636D01*
D02*
X774Y1637D02*
X824Y1637D01*
D02*
X305Y912D02*
X699Y911D01*
D02*
X725Y937D02*
X725Y1062D01*
D02*
X1150Y3086D02*
X1086Y3088D01*
D02*
X1173Y2187D02*
X1174Y3062D01*
D02*
X449Y2137D02*
X474Y2162D01*
D02*
X305Y1912D02*
X425Y1911D01*
D02*
X425Y1911D02*
X450Y1937D01*
D02*
X99Y1937D02*
X99Y2712D01*
D02*
X123Y1914D02*
X99Y1937D01*
D02*
X143Y1913D02*
X123Y1914D01*
D02*
X674Y1087D02*
X699Y1111D01*
D02*
X699Y1111D02*
X699Y1737D01*
D02*
X774Y562D02*
X775Y1013D01*
D02*
X799Y1037D02*
X849Y1037D01*
D02*
X125Y537D02*
X750Y537D01*
D02*
X99Y686D02*
X99Y562D01*
D02*
X74Y2962D02*
X50Y2937D01*
D02*
X699Y1737D02*
X724Y1762D01*
D02*
X824Y1762D02*
X842Y1759D01*
D02*
X50Y1211D02*
X143Y1212D01*
D02*
X621Y2962D02*
X74Y2962D01*
D02*
X50Y2937D02*
X50Y1211D01*
D02*
X125Y711D02*
X99Y686D01*
D02*
X750Y537D02*
X774Y562D01*
D02*
X99Y562D02*
X125Y537D01*
D02*
X775Y1013D02*
X799Y1037D01*
D02*
X143Y711D02*
X125Y711D01*
D02*
X849Y1037D02*
X843Y1034D01*
D02*
X674Y1011D02*
X674Y1087D01*
D02*
X305Y1012D02*
X674Y1011D01*
D02*
X724Y1762D02*
X824Y1762D01*
D02*
X50Y362D02*
X50Y1211D01*
G54D21*
D02*
X574Y2511D02*
X599Y2486D01*
D02*
X322Y2512D02*
X574Y2511D01*
D02*
X599Y2486D02*
X599Y2332D01*
G54D22*
D02*
X1073Y1287D02*
X1076Y1287D01*
G54D20*
D02*
X50Y311D02*
X50Y362D01*
D02*
X50Y1211D02*
X143Y1212D01*
D02*
X217Y287D02*
X74Y287D01*
D02*
X74Y287D02*
X50Y311D01*
G54D22*
D02*
X1150Y1286D02*
X1073Y1287D01*
D02*
X1174Y1311D02*
X1150Y1286D01*
D02*
X525Y2086D02*
X550Y2111D01*
D02*
X550Y2111D02*
X1174Y2111D01*
D02*
X524Y1300D02*
X525Y2086D01*
D02*
X1174Y2111D02*
X1174Y1311D01*
G54D20*
D02*
X674Y362D02*
X50Y362D01*
G54D22*
D02*
X325Y3762D02*
X350Y3786D01*
D02*
X1148Y3786D02*
X1174Y3762D01*
G54D20*
D02*
X699Y337D02*
X674Y362D01*
G54D22*
D02*
X1250Y3062D02*
X1248Y2186D01*
D02*
X1174Y3137D02*
X1250Y3062D01*
D02*
X350Y3786D02*
X1148Y3786D01*
D02*
X1174Y3762D02*
X1174Y3137D01*
D02*
X1248Y2186D02*
X1174Y2111D01*
D02*
X324Y3712D02*
X325Y3762D01*
G54D20*
D02*
X699Y315D02*
X699Y337D01*
G54D21*
D02*
X823Y3461D02*
X829Y3461D01*
D02*
X474Y3086D02*
X473Y3437D01*
D02*
X499Y3461D02*
X823Y3461D01*
D02*
X473Y3437D02*
X499Y3461D01*
D02*
X447Y3085D02*
X474Y3086D01*
G36*
X216Y2501D02*
X216Y2471D01*
X180Y2471D01*
X180Y2451D01*
X186Y2451D01*
X186Y2449D01*
X192Y2449D01*
X192Y2447D01*
X194Y2447D01*
X194Y2445D01*
X198Y2445D01*
X198Y2443D01*
X200Y2443D01*
X200Y2441D01*
X202Y2441D01*
X202Y2439D01*
X204Y2439D01*
X204Y2437D01*
X206Y2437D01*
X206Y2435D01*
X208Y2435D01*
X208Y2431D01*
X210Y2431D01*
X210Y2427D01*
X212Y2427D01*
X212Y2423D01*
X214Y2423D01*
X214Y2413D01*
X234Y2413D01*
X234Y2423D01*
X236Y2423D01*
X236Y2427D01*
X238Y2427D01*
X238Y2431D01*
X240Y2431D01*
X240Y2435D01*
X242Y2435D01*
X242Y2437D01*
X244Y2437D01*
X244Y2439D01*
X246Y2439D01*
X246Y2441D01*
X248Y2441D01*
X248Y2443D01*
X250Y2443D01*
X250Y2445D01*
X254Y2445D01*
X254Y2447D01*
X256Y2447D01*
X256Y2449D01*
X262Y2449D01*
X262Y2451D01*
X268Y2451D01*
X268Y2471D01*
X264Y2471D01*
X264Y2473D01*
X260Y2473D01*
X260Y2475D01*
X256Y2475D01*
X256Y2477D01*
X252Y2477D01*
X252Y2479D01*
X250Y2479D01*
X250Y2481D01*
X248Y2481D01*
X248Y2483D01*
X246Y2483D01*
X246Y2485D01*
X244Y2485D01*
X244Y2487D01*
X242Y2487D01*
X242Y2489D01*
X240Y2489D01*
X240Y2493D01*
X238Y2493D01*
X238Y2495D01*
X236Y2495D01*
X236Y2501D01*
X216Y2501D01*
G37*
D02*
G36*
X116Y2471D02*
X116Y2423D01*
X136Y2423D01*
X136Y2427D01*
X138Y2427D01*
X138Y2431D01*
X140Y2431D01*
X140Y2435D01*
X142Y2435D01*
X142Y2437D01*
X144Y2437D01*
X144Y2439D01*
X146Y2439D01*
X146Y2441D01*
X148Y2441D01*
X148Y2443D01*
X150Y2443D01*
X150Y2445D01*
X154Y2445D01*
X154Y2447D01*
X156Y2447D01*
X156Y2449D01*
X162Y2449D01*
X162Y2451D01*
X168Y2451D01*
X168Y2471D01*
X116Y2471D01*
G37*
D02*
G36*
X214Y2409D02*
X214Y2401D01*
X212Y2401D01*
X212Y2395D01*
X210Y2395D01*
X210Y2391D01*
X208Y2391D01*
X208Y2389D01*
X206Y2389D01*
X206Y2387D01*
X204Y2387D01*
X204Y2383D01*
X200Y2383D01*
X200Y2381D01*
X198Y2381D01*
X198Y2379D01*
X196Y2379D01*
X196Y2377D01*
X192Y2377D01*
X192Y2375D01*
X190Y2375D01*
X190Y2373D01*
X184Y2373D01*
X184Y2371D01*
X180Y2371D01*
X180Y2351D01*
X186Y2351D01*
X186Y2349D01*
X192Y2349D01*
X192Y2347D01*
X194Y2347D01*
X194Y2345D01*
X198Y2345D01*
X198Y2343D01*
X200Y2343D01*
X200Y2341D01*
X202Y2341D01*
X202Y2339D01*
X204Y2339D01*
X204Y2337D01*
X206Y2337D01*
X206Y2335D01*
X208Y2335D01*
X208Y2331D01*
X210Y2331D01*
X210Y2327D01*
X212Y2327D01*
X212Y2323D01*
X214Y2323D01*
X214Y2313D01*
X234Y2313D01*
X234Y2323D01*
X236Y2323D01*
X236Y2327D01*
X238Y2327D01*
X238Y2331D01*
X240Y2331D01*
X240Y2335D01*
X242Y2335D01*
X242Y2337D01*
X244Y2337D01*
X244Y2339D01*
X246Y2339D01*
X246Y2341D01*
X248Y2341D01*
X248Y2343D01*
X250Y2343D01*
X250Y2345D01*
X254Y2345D01*
X254Y2347D01*
X256Y2347D01*
X256Y2349D01*
X262Y2349D01*
X262Y2351D01*
X268Y2351D01*
X268Y2371D01*
X264Y2371D01*
X264Y2373D01*
X260Y2373D01*
X260Y2375D01*
X256Y2375D01*
X256Y2377D01*
X252Y2377D01*
X252Y2379D01*
X250Y2379D01*
X250Y2381D01*
X248Y2381D01*
X248Y2383D01*
X246Y2383D01*
X246Y2385D01*
X244Y2385D01*
X244Y2387D01*
X242Y2387D01*
X242Y2389D01*
X240Y2389D01*
X240Y2393D01*
X238Y2393D01*
X238Y2395D01*
X236Y2395D01*
X236Y2401D01*
X234Y2401D01*
X234Y2409D01*
X214Y2409D01*
G37*
D02*
G36*
X116Y2401D02*
X116Y2323D01*
X136Y2323D01*
X136Y2327D01*
X138Y2327D01*
X138Y2331D01*
X140Y2331D01*
X140Y2335D01*
X142Y2335D01*
X142Y2337D01*
X144Y2337D01*
X144Y2339D01*
X146Y2339D01*
X146Y2341D01*
X148Y2341D01*
X148Y2343D01*
X150Y2343D01*
X150Y2345D01*
X154Y2345D01*
X154Y2347D01*
X156Y2347D01*
X156Y2349D01*
X162Y2349D01*
X162Y2351D01*
X168Y2351D01*
X168Y2371D01*
X164Y2371D01*
X164Y2373D01*
X160Y2373D01*
X160Y2375D01*
X156Y2375D01*
X156Y2377D01*
X152Y2377D01*
X152Y2379D01*
X150Y2379D01*
X150Y2381D01*
X148Y2381D01*
X148Y2383D01*
X146Y2383D01*
X146Y2385D01*
X144Y2385D01*
X144Y2387D01*
X142Y2387D01*
X142Y2389D01*
X140Y2389D01*
X140Y2393D01*
X138Y2393D01*
X138Y2395D01*
X136Y2395D01*
X136Y2401D01*
X116Y2401D01*
G37*
D02*
G36*
X214Y2309D02*
X214Y2301D01*
X212Y2301D01*
X212Y2295D01*
X210Y2295D01*
X210Y2291D01*
X208Y2291D01*
X208Y2289D01*
X206Y2289D01*
X206Y2287D01*
X204Y2287D01*
X204Y2283D01*
X200Y2283D01*
X200Y2281D01*
X198Y2281D01*
X198Y2279D01*
X196Y2279D01*
X196Y2277D01*
X192Y2277D01*
X192Y2275D01*
X190Y2275D01*
X190Y2273D01*
X184Y2273D01*
X184Y2271D01*
X180Y2271D01*
X180Y2251D01*
X186Y2251D01*
X186Y2249D01*
X192Y2249D01*
X192Y2247D01*
X194Y2247D01*
X194Y2245D01*
X198Y2245D01*
X198Y2243D01*
X200Y2243D01*
X200Y2241D01*
X202Y2241D01*
X202Y2239D01*
X204Y2239D01*
X204Y2237D01*
X206Y2237D01*
X206Y2235D01*
X208Y2235D01*
X208Y2231D01*
X210Y2231D01*
X210Y2227D01*
X212Y2227D01*
X212Y2223D01*
X214Y2223D01*
X214Y2213D01*
X234Y2213D01*
X234Y2223D01*
X236Y2223D01*
X236Y2227D01*
X238Y2227D01*
X238Y2231D01*
X240Y2231D01*
X240Y2235D01*
X242Y2235D01*
X242Y2237D01*
X244Y2237D01*
X244Y2239D01*
X246Y2239D01*
X246Y2241D01*
X248Y2241D01*
X248Y2243D01*
X250Y2243D01*
X250Y2245D01*
X254Y2245D01*
X254Y2247D01*
X256Y2247D01*
X256Y2249D01*
X262Y2249D01*
X262Y2251D01*
X268Y2251D01*
X268Y2271D01*
X264Y2271D01*
X264Y2273D01*
X260Y2273D01*
X260Y2275D01*
X256Y2275D01*
X256Y2277D01*
X252Y2277D01*
X252Y2279D01*
X250Y2279D01*
X250Y2281D01*
X248Y2281D01*
X248Y2283D01*
X246Y2283D01*
X246Y2285D01*
X244Y2285D01*
X244Y2287D01*
X242Y2287D01*
X242Y2289D01*
X240Y2289D01*
X240Y2293D01*
X238Y2293D01*
X238Y2295D01*
X236Y2295D01*
X236Y2301D01*
X234Y2301D01*
X234Y2309D01*
X214Y2309D01*
G37*
D02*
G36*
X116Y2301D02*
X116Y2223D01*
X136Y2223D01*
X136Y2227D01*
X138Y2227D01*
X138Y2231D01*
X140Y2231D01*
X140Y2235D01*
X142Y2235D01*
X142Y2237D01*
X144Y2237D01*
X144Y2239D01*
X146Y2239D01*
X146Y2241D01*
X148Y2241D01*
X148Y2243D01*
X150Y2243D01*
X150Y2245D01*
X154Y2245D01*
X154Y2247D01*
X156Y2247D01*
X156Y2249D01*
X162Y2249D01*
X162Y2251D01*
X168Y2251D01*
X168Y2271D01*
X164Y2271D01*
X164Y2273D01*
X160Y2273D01*
X160Y2275D01*
X156Y2275D01*
X156Y2277D01*
X152Y2277D01*
X152Y2279D01*
X150Y2279D01*
X150Y2281D01*
X148Y2281D01*
X148Y2283D01*
X146Y2283D01*
X146Y2285D01*
X144Y2285D01*
X144Y2287D01*
X142Y2287D01*
X142Y2289D01*
X140Y2289D01*
X140Y2293D01*
X138Y2293D01*
X138Y2295D01*
X136Y2295D01*
X136Y2301D01*
X116Y2301D01*
G37*
D02*
G36*
X214Y2209D02*
X214Y2201D01*
X212Y2201D01*
X212Y2195D01*
X210Y2195D01*
X210Y2191D01*
X208Y2191D01*
X208Y2189D01*
X206Y2189D01*
X206Y2187D01*
X204Y2187D01*
X204Y2183D01*
X200Y2183D01*
X200Y2181D01*
X198Y2181D01*
X198Y2179D01*
X196Y2179D01*
X196Y2177D01*
X192Y2177D01*
X192Y2175D01*
X190Y2175D01*
X190Y2173D01*
X184Y2173D01*
X184Y2171D01*
X180Y2171D01*
X180Y2151D01*
X186Y2151D01*
X186Y2149D01*
X192Y2149D01*
X192Y2147D01*
X194Y2147D01*
X194Y2145D01*
X198Y2145D01*
X198Y2143D01*
X200Y2143D01*
X200Y2141D01*
X202Y2141D01*
X202Y2139D01*
X204Y2139D01*
X204Y2137D01*
X206Y2137D01*
X206Y2135D01*
X208Y2135D01*
X208Y2131D01*
X210Y2131D01*
X210Y2127D01*
X212Y2127D01*
X212Y2123D01*
X214Y2123D01*
X214Y2113D01*
X234Y2113D01*
X234Y2123D01*
X236Y2123D01*
X236Y2127D01*
X238Y2127D01*
X238Y2131D01*
X240Y2131D01*
X240Y2135D01*
X242Y2135D01*
X242Y2137D01*
X244Y2137D01*
X244Y2139D01*
X246Y2139D01*
X246Y2141D01*
X248Y2141D01*
X248Y2143D01*
X250Y2143D01*
X250Y2145D01*
X254Y2145D01*
X254Y2147D01*
X256Y2147D01*
X256Y2149D01*
X262Y2149D01*
X262Y2151D01*
X268Y2151D01*
X268Y2171D01*
X264Y2171D01*
X264Y2173D01*
X260Y2173D01*
X260Y2175D01*
X256Y2175D01*
X256Y2177D01*
X252Y2177D01*
X252Y2179D01*
X250Y2179D01*
X250Y2181D01*
X248Y2181D01*
X248Y2183D01*
X246Y2183D01*
X246Y2185D01*
X244Y2185D01*
X244Y2187D01*
X242Y2187D01*
X242Y2189D01*
X240Y2189D01*
X240Y2193D01*
X238Y2193D01*
X238Y2195D01*
X236Y2195D01*
X236Y2201D01*
X234Y2201D01*
X234Y2209D01*
X214Y2209D01*
G37*
D02*
G36*
X116Y2201D02*
X116Y2123D01*
X136Y2123D01*
X136Y2127D01*
X138Y2127D01*
X138Y2131D01*
X140Y2131D01*
X140Y2135D01*
X142Y2135D01*
X142Y2137D01*
X144Y2137D01*
X144Y2139D01*
X146Y2139D01*
X146Y2141D01*
X148Y2141D01*
X148Y2143D01*
X150Y2143D01*
X150Y2145D01*
X154Y2145D01*
X154Y2147D01*
X156Y2147D01*
X156Y2149D01*
X162Y2149D01*
X162Y2151D01*
X168Y2151D01*
X168Y2171D01*
X164Y2171D01*
X164Y2173D01*
X160Y2173D01*
X160Y2175D01*
X156Y2175D01*
X156Y2177D01*
X152Y2177D01*
X152Y2179D01*
X150Y2179D01*
X150Y2181D01*
X148Y2181D01*
X148Y2183D01*
X146Y2183D01*
X146Y2185D01*
X144Y2185D01*
X144Y2187D01*
X142Y2187D01*
X142Y2189D01*
X140Y2189D01*
X140Y2193D01*
X138Y2193D01*
X138Y2195D01*
X136Y2195D01*
X136Y2201D01*
X116Y2201D01*
G37*
D02*
G36*
X214Y2109D02*
X214Y2101D01*
X212Y2101D01*
X212Y2095D01*
X210Y2095D01*
X210Y2091D01*
X208Y2091D01*
X208Y2089D01*
X206Y2089D01*
X206Y2087D01*
X204Y2087D01*
X204Y2083D01*
X200Y2083D01*
X200Y2081D01*
X198Y2081D01*
X198Y2079D01*
X196Y2079D01*
X196Y2077D01*
X192Y2077D01*
X192Y2075D01*
X190Y2075D01*
X190Y2073D01*
X184Y2073D01*
X184Y2071D01*
X180Y2071D01*
X180Y2051D01*
X186Y2051D01*
X186Y2049D01*
X192Y2049D01*
X192Y2047D01*
X194Y2047D01*
X194Y2045D01*
X198Y2045D01*
X198Y2043D01*
X200Y2043D01*
X200Y2041D01*
X202Y2041D01*
X202Y2039D01*
X204Y2039D01*
X204Y2037D01*
X206Y2037D01*
X206Y2035D01*
X208Y2035D01*
X208Y2031D01*
X210Y2031D01*
X210Y2027D01*
X212Y2027D01*
X212Y2023D01*
X214Y2023D01*
X214Y2013D01*
X234Y2013D01*
X234Y2023D01*
X236Y2023D01*
X236Y2027D01*
X238Y2027D01*
X238Y2031D01*
X240Y2031D01*
X240Y2035D01*
X242Y2035D01*
X242Y2037D01*
X244Y2037D01*
X244Y2039D01*
X246Y2039D01*
X246Y2041D01*
X248Y2041D01*
X248Y2043D01*
X250Y2043D01*
X250Y2045D01*
X254Y2045D01*
X254Y2047D01*
X256Y2047D01*
X256Y2049D01*
X262Y2049D01*
X262Y2051D01*
X268Y2051D01*
X268Y2071D01*
X264Y2071D01*
X264Y2073D01*
X260Y2073D01*
X260Y2075D01*
X256Y2075D01*
X256Y2077D01*
X252Y2077D01*
X252Y2079D01*
X250Y2079D01*
X250Y2081D01*
X248Y2081D01*
X248Y2083D01*
X246Y2083D01*
X246Y2085D01*
X244Y2085D01*
X244Y2087D01*
X242Y2087D01*
X242Y2089D01*
X240Y2089D01*
X240Y2093D01*
X238Y2093D01*
X238Y2095D01*
X236Y2095D01*
X236Y2101D01*
X234Y2101D01*
X234Y2109D01*
X214Y2109D01*
G37*
D02*
G36*
X116Y2101D02*
X116Y2023D01*
X136Y2023D01*
X136Y2027D01*
X138Y2027D01*
X138Y2031D01*
X140Y2031D01*
X140Y2035D01*
X142Y2035D01*
X142Y2037D01*
X144Y2037D01*
X144Y2039D01*
X146Y2039D01*
X146Y2041D01*
X148Y2041D01*
X148Y2043D01*
X150Y2043D01*
X150Y2045D01*
X154Y2045D01*
X154Y2047D01*
X156Y2047D01*
X156Y2049D01*
X162Y2049D01*
X162Y2051D01*
X168Y2051D01*
X168Y2071D01*
X164Y2071D01*
X164Y2073D01*
X160Y2073D01*
X160Y2075D01*
X156Y2075D01*
X156Y2077D01*
X152Y2077D01*
X152Y2079D01*
X150Y2079D01*
X150Y2081D01*
X148Y2081D01*
X148Y2083D01*
X146Y2083D01*
X146Y2085D01*
X144Y2085D01*
X144Y2087D01*
X142Y2087D01*
X142Y2089D01*
X140Y2089D01*
X140Y2093D01*
X138Y2093D01*
X138Y2095D01*
X136Y2095D01*
X136Y2101D01*
X116Y2101D01*
G37*
D02*
G36*
X214Y2009D02*
X214Y2001D01*
X212Y2001D01*
X212Y1995D01*
X210Y1995D01*
X210Y1991D01*
X208Y1991D01*
X208Y1989D01*
X206Y1989D01*
X206Y1987D01*
X204Y1987D01*
X204Y1983D01*
X200Y1983D01*
X200Y1981D01*
X198Y1981D01*
X198Y1979D01*
X196Y1979D01*
X196Y1977D01*
X192Y1977D01*
X192Y1975D01*
X190Y1975D01*
X190Y1973D01*
X184Y1973D01*
X184Y1971D01*
X180Y1971D01*
X180Y1951D01*
X186Y1951D01*
X186Y1949D01*
X192Y1949D01*
X192Y1947D01*
X194Y1947D01*
X194Y1945D01*
X198Y1945D01*
X198Y1943D01*
X200Y1943D01*
X200Y1941D01*
X202Y1941D01*
X202Y1939D01*
X204Y1939D01*
X204Y1937D01*
X206Y1937D01*
X206Y1935D01*
X208Y1935D01*
X208Y1931D01*
X210Y1931D01*
X210Y1927D01*
X212Y1927D01*
X212Y1923D01*
X214Y1923D01*
X214Y1913D01*
X234Y1913D01*
X234Y1923D01*
X236Y1923D01*
X236Y1927D01*
X238Y1927D01*
X238Y1931D01*
X240Y1931D01*
X240Y1935D01*
X242Y1935D01*
X242Y1937D01*
X244Y1937D01*
X244Y1939D01*
X246Y1939D01*
X246Y1941D01*
X248Y1941D01*
X248Y1943D01*
X250Y1943D01*
X250Y1945D01*
X254Y1945D01*
X254Y1947D01*
X256Y1947D01*
X256Y1949D01*
X262Y1949D01*
X262Y1951D01*
X268Y1951D01*
X268Y1971D01*
X264Y1971D01*
X264Y1973D01*
X260Y1973D01*
X260Y1975D01*
X256Y1975D01*
X256Y1977D01*
X252Y1977D01*
X252Y1979D01*
X250Y1979D01*
X250Y1981D01*
X248Y1981D01*
X248Y1983D01*
X246Y1983D01*
X246Y1985D01*
X244Y1985D01*
X244Y1987D01*
X242Y1987D01*
X242Y1989D01*
X240Y1989D01*
X240Y1993D01*
X238Y1993D01*
X238Y1995D01*
X236Y1995D01*
X236Y2001D01*
X234Y2001D01*
X234Y2009D01*
X214Y2009D01*
G37*
D02*
G36*
X116Y2001D02*
X116Y1941D01*
X118Y1941D01*
X118Y1939D01*
X122Y1939D01*
X122Y1937D01*
X144Y1937D01*
X144Y1939D01*
X146Y1939D01*
X146Y1941D01*
X148Y1941D01*
X148Y1943D01*
X150Y1943D01*
X150Y1945D01*
X154Y1945D01*
X154Y1947D01*
X156Y1947D01*
X156Y1949D01*
X162Y1949D01*
X162Y1951D01*
X168Y1951D01*
X168Y1971D01*
X164Y1971D01*
X164Y1973D01*
X160Y1973D01*
X160Y1975D01*
X156Y1975D01*
X156Y1977D01*
X152Y1977D01*
X152Y1979D01*
X150Y1979D01*
X150Y1981D01*
X148Y1981D01*
X148Y1983D01*
X146Y1983D01*
X146Y1985D01*
X144Y1985D01*
X144Y1987D01*
X142Y1987D01*
X142Y1989D01*
X140Y1989D01*
X140Y1993D01*
X138Y1993D01*
X138Y1995D01*
X136Y1995D01*
X136Y2001D01*
X116Y2001D01*
G37*
D02*
G36*
X66Y1929D02*
X66Y1227D01*
X138Y1227D01*
X138Y1231D01*
X140Y1231D01*
X140Y1235D01*
X142Y1235D01*
X142Y1237D01*
X144Y1237D01*
X144Y1239D01*
X146Y1239D01*
X146Y1241D01*
X148Y1241D01*
X148Y1243D01*
X150Y1243D01*
X150Y1245D01*
X154Y1245D01*
X154Y1247D01*
X156Y1247D01*
X156Y1249D01*
X162Y1249D01*
X162Y1251D01*
X168Y1251D01*
X168Y1271D01*
X164Y1271D01*
X164Y1273D01*
X160Y1273D01*
X160Y1275D01*
X156Y1275D01*
X156Y1277D01*
X152Y1277D01*
X152Y1279D01*
X150Y1279D01*
X150Y1281D01*
X148Y1281D01*
X148Y1283D01*
X146Y1283D01*
X146Y1285D01*
X144Y1285D01*
X144Y1287D01*
X142Y1287D01*
X142Y1289D01*
X140Y1289D01*
X140Y1293D01*
X138Y1293D01*
X138Y1295D01*
X136Y1295D01*
X136Y1301D01*
X134Y1301D01*
X134Y1323D01*
X136Y1323D01*
X136Y1327D01*
X138Y1327D01*
X138Y1331D01*
X140Y1331D01*
X140Y1335D01*
X142Y1335D01*
X142Y1337D01*
X144Y1337D01*
X144Y1339D01*
X146Y1339D01*
X146Y1341D01*
X148Y1341D01*
X148Y1343D01*
X150Y1343D01*
X150Y1345D01*
X154Y1345D01*
X154Y1347D01*
X156Y1347D01*
X156Y1349D01*
X162Y1349D01*
X162Y1351D01*
X168Y1351D01*
X168Y1371D01*
X164Y1371D01*
X164Y1373D01*
X160Y1373D01*
X160Y1375D01*
X156Y1375D01*
X156Y1377D01*
X152Y1377D01*
X152Y1379D01*
X150Y1379D01*
X150Y1381D01*
X148Y1381D01*
X148Y1383D01*
X146Y1383D01*
X146Y1385D01*
X144Y1385D01*
X144Y1387D01*
X142Y1387D01*
X142Y1389D01*
X140Y1389D01*
X140Y1393D01*
X138Y1393D01*
X138Y1395D01*
X136Y1395D01*
X136Y1401D01*
X134Y1401D01*
X134Y1423D01*
X136Y1423D01*
X136Y1427D01*
X138Y1427D01*
X138Y1431D01*
X140Y1431D01*
X140Y1435D01*
X142Y1435D01*
X142Y1437D01*
X144Y1437D01*
X144Y1439D01*
X146Y1439D01*
X146Y1441D01*
X148Y1441D01*
X148Y1443D01*
X150Y1443D01*
X150Y1445D01*
X154Y1445D01*
X154Y1447D01*
X156Y1447D01*
X156Y1449D01*
X162Y1449D01*
X162Y1451D01*
X168Y1451D01*
X168Y1471D01*
X164Y1471D01*
X164Y1473D01*
X160Y1473D01*
X160Y1475D01*
X156Y1475D01*
X156Y1477D01*
X152Y1477D01*
X152Y1479D01*
X150Y1479D01*
X150Y1481D01*
X148Y1481D01*
X148Y1483D01*
X146Y1483D01*
X146Y1485D01*
X144Y1485D01*
X144Y1487D01*
X142Y1487D01*
X142Y1489D01*
X140Y1489D01*
X140Y1493D01*
X138Y1493D01*
X138Y1495D01*
X136Y1495D01*
X136Y1501D01*
X134Y1501D01*
X134Y1523D01*
X136Y1523D01*
X136Y1527D01*
X138Y1527D01*
X138Y1531D01*
X140Y1531D01*
X140Y1535D01*
X142Y1535D01*
X142Y1537D01*
X144Y1537D01*
X144Y1539D01*
X146Y1539D01*
X146Y1541D01*
X148Y1541D01*
X148Y1543D01*
X150Y1543D01*
X150Y1545D01*
X154Y1545D01*
X154Y1547D01*
X156Y1547D01*
X156Y1549D01*
X162Y1549D01*
X162Y1551D01*
X168Y1551D01*
X168Y1571D01*
X164Y1571D01*
X164Y1573D01*
X160Y1573D01*
X160Y1575D01*
X156Y1575D01*
X156Y1577D01*
X152Y1577D01*
X152Y1579D01*
X150Y1579D01*
X150Y1581D01*
X148Y1581D01*
X148Y1583D01*
X146Y1583D01*
X146Y1585D01*
X144Y1585D01*
X144Y1587D01*
X142Y1587D01*
X142Y1589D01*
X140Y1589D01*
X140Y1593D01*
X138Y1593D01*
X138Y1595D01*
X136Y1595D01*
X136Y1601D01*
X134Y1601D01*
X134Y1623D01*
X136Y1623D01*
X136Y1627D01*
X138Y1627D01*
X138Y1631D01*
X140Y1631D01*
X140Y1635D01*
X142Y1635D01*
X142Y1637D01*
X144Y1637D01*
X144Y1639D01*
X146Y1639D01*
X146Y1641D01*
X148Y1641D01*
X148Y1643D01*
X150Y1643D01*
X150Y1645D01*
X154Y1645D01*
X154Y1647D01*
X156Y1647D01*
X156Y1649D01*
X162Y1649D01*
X162Y1651D01*
X168Y1651D01*
X168Y1671D01*
X164Y1671D01*
X164Y1673D01*
X160Y1673D01*
X160Y1675D01*
X156Y1675D01*
X156Y1677D01*
X152Y1677D01*
X152Y1679D01*
X150Y1679D01*
X150Y1681D01*
X148Y1681D01*
X148Y1683D01*
X146Y1683D01*
X146Y1685D01*
X144Y1685D01*
X144Y1687D01*
X142Y1687D01*
X142Y1689D01*
X140Y1689D01*
X140Y1693D01*
X138Y1693D01*
X138Y1695D01*
X136Y1695D01*
X136Y1701D01*
X134Y1701D01*
X134Y1723D01*
X136Y1723D01*
X136Y1727D01*
X138Y1727D01*
X138Y1731D01*
X140Y1731D01*
X140Y1735D01*
X142Y1735D01*
X142Y1737D01*
X144Y1737D01*
X144Y1739D01*
X146Y1739D01*
X146Y1741D01*
X148Y1741D01*
X148Y1743D01*
X150Y1743D01*
X150Y1745D01*
X154Y1745D01*
X154Y1747D01*
X156Y1747D01*
X156Y1749D01*
X162Y1749D01*
X162Y1751D01*
X168Y1751D01*
X168Y1771D01*
X164Y1771D01*
X164Y1773D01*
X160Y1773D01*
X160Y1775D01*
X156Y1775D01*
X156Y1777D01*
X152Y1777D01*
X152Y1779D01*
X150Y1779D01*
X150Y1781D01*
X148Y1781D01*
X148Y1783D01*
X146Y1783D01*
X146Y1785D01*
X144Y1785D01*
X144Y1787D01*
X142Y1787D01*
X142Y1789D01*
X140Y1789D01*
X140Y1793D01*
X138Y1793D01*
X138Y1795D01*
X136Y1795D01*
X136Y1801D01*
X134Y1801D01*
X134Y1823D01*
X136Y1823D01*
X136Y1827D01*
X138Y1827D01*
X138Y1831D01*
X140Y1831D01*
X140Y1835D01*
X142Y1835D01*
X142Y1837D01*
X144Y1837D01*
X144Y1839D01*
X146Y1839D01*
X146Y1841D01*
X148Y1841D01*
X148Y1843D01*
X150Y1843D01*
X150Y1845D01*
X154Y1845D01*
X154Y1847D01*
X156Y1847D01*
X156Y1849D01*
X162Y1849D01*
X162Y1851D01*
X168Y1851D01*
X168Y1871D01*
X164Y1871D01*
X164Y1873D01*
X160Y1873D01*
X160Y1875D01*
X156Y1875D01*
X156Y1877D01*
X152Y1877D01*
X152Y1879D01*
X150Y1879D01*
X150Y1881D01*
X148Y1881D01*
X148Y1883D01*
X146Y1883D01*
X146Y1885D01*
X144Y1885D01*
X144Y1887D01*
X142Y1887D01*
X142Y1889D01*
X140Y1889D01*
X140Y1893D01*
X138Y1893D01*
X138Y1895D01*
X136Y1895D01*
X136Y1897D01*
X130Y1897D01*
X130Y1899D01*
X116Y1899D01*
X116Y1901D01*
X112Y1901D01*
X112Y1903D01*
X110Y1903D01*
X110Y1905D01*
X108Y1905D01*
X108Y1907D01*
X106Y1907D01*
X106Y1909D01*
X104Y1909D01*
X104Y1911D01*
X102Y1911D01*
X102Y1913D01*
X100Y1913D01*
X100Y1915D01*
X98Y1915D01*
X98Y1917D01*
X96Y1917D01*
X96Y1919D01*
X94Y1919D01*
X94Y1921D01*
X92Y1921D01*
X92Y1923D01*
X90Y1923D01*
X90Y1925D01*
X88Y1925D01*
X88Y1927D01*
X86Y1927D01*
X86Y1929D01*
X66Y1929D01*
G37*
D02*
G36*
X214Y1909D02*
X214Y1901D01*
X212Y1901D01*
X212Y1895D01*
X210Y1895D01*
X210Y1891D01*
X208Y1891D01*
X208Y1889D01*
X206Y1889D01*
X206Y1887D01*
X204Y1887D01*
X204Y1883D01*
X200Y1883D01*
X200Y1881D01*
X198Y1881D01*
X198Y1879D01*
X196Y1879D01*
X196Y1877D01*
X192Y1877D01*
X192Y1875D01*
X190Y1875D01*
X190Y1873D01*
X184Y1873D01*
X184Y1871D01*
X180Y1871D01*
X180Y1851D01*
X186Y1851D01*
X186Y1849D01*
X192Y1849D01*
X192Y1847D01*
X194Y1847D01*
X194Y1845D01*
X198Y1845D01*
X198Y1843D01*
X200Y1843D01*
X200Y1841D01*
X202Y1841D01*
X202Y1839D01*
X204Y1839D01*
X204Y1837D01*
X206Y1837D01*
X206Y1835D01*
X208Y1835D01*
X208Y1831D01*
X210Y1831D01*
X210Y1827D01*
X212Y1827D01*
X212Y1823D01*
X214Y1823D01*
X214Y1813D01*
X234Y1813D01*
X234Y1823D01*
X236Y1823D01*
X236Y1827D01*
X238Y1827D01*
X238Y1831D01*
X240Y1831D01*
X240Y1835D01*
X242Y1835D01*
X242Y1837D01*
X244Y1837D01*
X244Y1839D01*
X246Y1839D01*
X246Y1841D01*
X248Y1841D01*
X248Y1843D01*
X250Y1843D01*
X250Y1845D01*
X254Y1845D01*
X254Y1847D01*
X256Y1847D01*
X256Y1849D01*
X262Y1849D01*
X262Y1851D01*
X268Y1851D01*
X268Y1871D01*
X264Y1871D01*
X264Y1873D01*
X260Y1873D01*
X260Y1875D01*
X256Y1875D01*
X256Y1877D01*
X252Y1877D01*
X252Y1879D01*
X250Y1879D01*
X250Y1881D01*
X248Y1881D01*
X248Y1883D01*
X246Y1883D01*
X246Y1885D01*
X244Y1885D01*
X244Y1887D01*
X242Y1887D01*
X242Y1889D01*
X240Y1889D01*
X240Y1893D01*
X238Y1893D01*
X238Y1895D01*
X236Y1895D01*
X236Y1901D01*
X234Y1901D01*
X234Y1909D01*
X214Y1909D01*
G37*
D02*
G36*
X214Y1809D02*
X214Y1801D01*
X212Y1801D01*
X212Y1795D01*
X210Y1795D01*
X210Y1791D01*
X208Y1791D01*
X208Y1789D01*
X206Y1789D01*
X206Y1787D01*
X204Y1787D01*
X204Y1783D01*
X200Y1783D01*
X200Y1781D01*
X198Y1781D01*
X198Y1779D01*
X196Y1779D01*
X196Y1777D01*
X192Y1777D01*
X192Y1775D01*
X190Y1775D01*
X190Y1773D01*
X184Y1773D01*
X184Y1771D01*
X180Y1771D01*
X180Y1751D01*
X186Y1751D01*
X186Y1749D01*
X192Y1749D01*
X192Y1747D01*
X194Y1747D01*
X194Y1745D01*
X198Y1745D01*
X198Y1743D01*
X200Y1743D01*
X200Y1741D01*
X202Y1741D01*
X202Y1739D01*
X204Y1739D01*
X204Y1737D01*
X206Y1737D01*
X206Y1735D01*
X208Y1735D01*
X208Y1731D01*
X210Y1731D01*
X210Y1727D01*
X212Y1727D01*
X212Y1723D01*
X214Y1723D01*
X214Y1713D01*
X234Y1713D01*
X234Y1723D01*
X236Y1723D01*
X236Y1727D01*
X238Y1727D01*
X238Y1731D01*
X240Y1731D01*
X240Y1735D01*
X242Y1735D01*
X242Y1737D01*
X244Y1737D01*
X244Y1739D01*
X246Y1739D01*
X246Y1741D01*
X248Y1741D01*
X248Y1743D01*
X250Y1743D01*
X250Y1745D01*
X254Y1745D01*
X254Y1747D01*
X256Y1747D01*
X256Y1749D01*
X262Y1749D01*
X262Y1751D01*
X268Y1751D01*
X268Y1771D01*
X264Y1771D01*
X264Y1773D01*
X260Y1773D01*
X260Y1775D01*
X256Y1775D01*
X256Y1777D01*
X252Y1777D01*
X252Y1779D01*
X250Y1779D01*
X250Y1781D01*
X248Y1781D01*
X248Y1783D01*
X246Y1783D01*
X246Y1785D01*
X244Y1785D01*
X244Y1787D01*
X242Y1787D01*
X242Y1789D01*
X240Y1789D01*
X240Y1793D01*
X238Y1793D01*
X238Y1795D01*
X236Y1795D01*
X236Y1801D01*
X234Y1801D01*
X234Y1809D01*
X214Y1809D01*
G37*
D02*
G36*
X214Y1709D02*
X214Y1701D01*
X212Y1701D01*
X212Y1695D01*
X210Y1695D01*
X210Y1691D01*
X208Y1691D01*
X208Y1689D01*
X206Y1689D01*
X206Y1687D01*
X204Y1687D01*
X204Y1683D01*
X200Y1683D01*
X200Y1681D01*
X198Y1681D01*
X198Y1679D01*
X196Y1679D01*
X196Y1677D01*
X192Y1677D01*
X192Y1675D01*
X190Y1675D01*
X190Y1673D01*
X184Y1673D01*
X184Y1671D01*
X180Y1671D01*
X180Y1651D01*
X186Y1651D01*
X186Y1649D01*
X192Y1649D01*
X192Y1647D01*
X194Y1647D01*
X194Y1645D01*
X198Y1645D01*
X198Y1643D01*
X200Y1643D01*
X200Y1641D01*
X202Y1641D01*
X202Y1639D01*
X204Y1639D01*
X204Y1637D01*
X206Y1637D01*
X206Y1635D01*
X208Y1635D01*
X208Y1631D01*
X210Y1631D01*
X210Y1627D01*
X212Y1627D01*
X212Y1623D01*
X214Y1623D01*
X214Y1613D01*
X234Y1613D01*
X234Y1623D01*
X236Y1623D01*
X236Y1627D01*
X238Y1627D01*
X238Y1631D01*
X240Y1631D01*
X240Y1635D01*
X242Y1635D01*
X242Y1637D01*
X244Y1637D01*
X244Y1639D01*
X246Y1639D01*
X246Y1641D01*
X248Y1641D01*
X248Y1643D01*
X250Y1643D01*
X250Y1645D01*
X254Y1645D01*
X254Y1647D01*
X256Y1647D01*
X256Y1649D01*
X262Y1649D01*
X262Y1651D01*
X268Y1651D01*
X268Y1671D01*
X264Y1671D01*
X264Y1673D01*
X260Y1673D01*
X260Y1675D01*
X256Y1675D01*
X256Y1677D01*
X252Y1677D01*
X252Y1679D01*
X250Y1679D01*
X250Y1681D01*
X248Y1681D01*
X248Y1683D01*
X246Y1683D01*
X246Y1685D01*
X244Y1685D01*
X244Y1687D01*
X242Y1687D01*
X242Y1689D01*
X240Y1689D01*
X240Y1693D01*
X238Y1693D01*
X238Y1695D01*
X236Y1695D01*
X236Y1701D01*
X234Y1701D01*
X234Y1709D01*
X214Y1709D01*
G37*
D02*
G36*
X214Y1609D02*
X214Y1601D01*
X212Y1601D01*
X212Y1595D01*
X210Y1595D01*
X210Y1591D01*
X208Y1591D01*
X208Y1589D01*
X206Y1589D01*
X206Y1587D01*
X204Y1587D01*
X204Y1583D01*
X200Y1583D01*
X200Y1581D01*
X198Y1581D01*
X198Y1579D01*
X196Y1579D01*
X196Y1577D01*
X192Y1577D01*
X192Y1575D01*
X190Y1575D01*
X190Y1573D01*
X184Y1573D01*
X184Y1571D01*
X180Y1571D01*
X180Y1551D01*
X186Y1551D01*
X186Y1549D01*
X192Y1549D01*
X192Y1547D01*
X194Y1547D01*
X194Y1545D01*
X198Y1545D01*
X198Y1543D01*
X200Y1543D01*
X200Y1541D01*
X202Y1541D01*
X202Y1539D01*
X204Y1539D01*
X204Y1537D01*
X206Y1537D01*
X206Y1535D01*
X208Y1535D01*
X208Y1531D01*
X210Y1531D01*
X210Y1527D01*
X212Y1527D01*
X212Y1523D01*
X214Y1523D01*
X214Y1513D01*
X234Y1513D01*
X234Y1523D01*
X236Y1523D01*
X236Y1527D01*
X238Y1527D01*
X238Y1531D01*
X240Y1531D01*
X240Y1535D01*
X242Y1535D01*
X242Y1537D01*
X244Y1537D01*
X244Y1539D01*
X246Y1539D01*
X246Y1541D01*
X248Y1541D01*
X248Y1543D01*
X250Y1543D01*
X250Y1545D01*
X254Y1545D01*
X254Y1547D01*
X256Y1547D01*
X256Y1549D01*
X262Y1549D01*
X262Y1551D01*
X268Y1551D01*
X268Y1571D01*
X264Y1571D01*
X264Y1573D01*
X260Y1573D01*
X260Y1575D01*
X256Y1575D01*
X256Y1577D01*
X252Y1577D01*
X252Y1579D01*
X250Y1579D01*
X250Y1581D01*
X248Y1581D01*
X248Y1583D01*
X246Y1583D01*
X246Y1585D01*
X244Y1585D01*
X244Y1587D01*
X242Y1587D01*
X242Y1589D01*
X240Y1589D01*
X240Y1593D01*
X238Y1593D01*
X238Y1595D01*
X236Y1595D01*
X236Y1601D01*
X234Y1601D01*
X234Y1609D01*
X214Y1609D01*
G37*
D02*
G36*
X214Y1509D02*
X214Y1501D01*
X212Y1501D01*
X212Y1495D01*
X210Y1495D01*
X210Y1491D01*
X208Y1491D01*
X208Y1489D01*
X206Y1489D01*
X206Y1487D01*
X204Y1487D01*
X204Y1483D01*
X200Y1483D01*
X200Y1481D01*
X198Y1481D01*
X198Y1479D01*
X196Y1479D01*
X196Y1477D01*
X192Y1477D01*
X192Y1475D01*
X190Y1475D01*
X190Y1473D01*
X184Y1473D01*
X184Y1471D01*
X180Y1471D01*
X180Y1451D01*
X186Y1451D01*
X186Y1449D01*
X192Y1449D01*
X192Y1447D01*
X194Y1447D01*
X194Y1445D01*
X198Y1445D01*
X198Y1443D01*
X200Y1443D01*
X200Y1441D01*
X202Y1441D01*
X202Y1439D01*
X204Y1439D01*
X204Y1437D01*
X206Y1437D01*
X206Y1435D01*
X208Y1435D01*
X208Y1431D01*
X210Y1431D01*
X210Y1427D01*
X212Y1427D01*
X212Y1423D01*
X214Y1423D01*
X214Y1413D01*
X234Y1413D01*
X234Y1423D01*
X236Y1423D01*
X236Y1427D01*
X238Y1427D01*
X238Y1431D01*
X240Y1431D01*
X240Y1435D01*
X242Y1435D01*
X242Y1437D01*
X244Y1437D01*
X244Y1439D01*
X246Y1439D01*
X246Y1441D01*
X248Y1441D01*
X248Y1443D01*
X250Y1443D01*
X250Y1445D01*
X254Y1445D01*
X254Y1447D01*
X256Y1447D01*
X256Y1449D01*
X262Y1449D01*
X262Y1451D01*
X268Y1451D01*
X268Y1471D01*
X264Y1471D01*
X264Y1473D01*
X260Y1473D01*
X260Y1475D01*
X256Y1475D01*
X256Y1477D01*
X252Y1477D01*
X252Y1479D01*
X250Y1479D01*
X250Y1481D01*
X248Y1481D01*
X248Y1483D01*
X246Y1483D01*
X246Y1485D01*
X244Y1485D01*
X244Y1487D01*
X242Y1487D01*
X242Y1489D01*
X240Y1489D01*
X240Y1493D01*
X238Y1493D01*
X238Y1495D01*
X236Y1495D01*
X236Y1501D01*
X234Y1501D01*
X234Y1509D01*
X214Y1509D01*
G37*
D02*
G36*
X214Y1409D02*
X214Y1401D01*
X212Y1401D01*
X212Y1395D01*
X210Y1395D01*
X210Y1391D01*
X208Y1391D01*
X208Y1389D01*
X206Y1389D01*
X206Y1387D01*
X204Y1387D01*
X204Y1383D01*
X200Y1383D01*
X200Y1381D01*
X198Y1381D01*
X198Y1379D01*
X196Y1379D01*
X196Y1377D01*
X192Y1377D01*
X192Y1375D01*
X190Y1375D01*
X190Y1373D01*
X184Y1373D01*
X184Y1371D01*
X180Y1371D01*
X180Y1351D01*
X186Y1351D01*
X186Y1349D01*
X192Y1349D01*
X192Y1347D01*
X194Y1347D01*
X194Y1345D01*
X198Y1345D01*
X198Y1343D01*
X200Y1343D01*
X200Y1341D01*
X202Y1341D01*
X202Y1339D01*
X204Y1339D01*
X204Y1337D01*
X206Y1337D01*
X206Y1335D01*
X208Y1335D01*
X208Y1331D01*
X210Y1331D01*
X210Y1327D01*
X212Y1327D01*
X212Y1323D01*
X214Y1323D01*
X214Y1313D01*
X234Y1313D01*
X234Y1323D01*
X236Y1323D01*
X236Y1327D01*
X238Y1327D01*
X238Y1331D01*
X240Y1331D01*
X240Y1335D01*
X242Y1335D01*
X242Y1337D01*
X244Y1337D01*
X244Y1339D01*
X246Y1339D01*
X246Y1341D01*
X248Y1341D01*
X248Y1343D01*
X250Y1343D01*
X250Y1345D01*
X254Y1345D01*
X254Y1347D01*
X256Y1347D01*
X256Y1349D01*
X262Y1349D01*
X262Y1351D01*
X268Y1351D01*
X268Y1371D01*
X264Y1371D01*
X264Y1373D01*
X260Y1373D01*
X260Y1375D01*
X256Y1375D01*
X256Y1377D01*
X252Y1377D01*
X252Y1379D01*
X250Y1379D01*
X250Y1381D01*
X248Y1381D01*
X248Y1383D01*
X246Y1383D01*
X246Y1385D01*
X244Y1385D01*
X244Y1387D01*
X242Y1387D01*
X242Y1389D01*
X240Y1389D01*
X240Y1393D01*
X238Y1393D01*
X238Y1395D01*
X236Y1395D01*
X236Y1401D01*
X234Y1401D01*
X234Y1409D01*
X214Y1409D01*
G37*
D02*
G36*
X214Y1309D02*
X214Y1301D01*
X212Y1301D01*
X212Y1295D01*
X210Y1295D01*
X210Y1291D01*
X208Y1291D01*
X208Y1289D01*
X206Y1289D01*
X206Y1287D01*
X204Y1287D01*
X204Y1283D01*
X200Y1283D01*
X200Y1281D01*
X198Y1281D01*
X198Y1279D01*
X196Y1279D01*
X196Y1277D01*
X192Y1277D01*
X192Y1275D01*
X190Y1275D01*
X190Y1273D01*
X184Y1273D01*
X184Y1271D01*
X180Y1271D01*
X180Y1251D01*
X186Y1251D01*
X186Y1249D01*
X192Y1249D01*
X192Y1247D01*
X194Y1247D01*
X194Y1245D01*
X198Y1245D01*
X198Y1243D01*
X200Y1243D01*
X200Y1241D01*
X202Y1241D01*
X202Y1239D01*
X204Y1239D01*
X204Y1237D01*
X206Y1237D01*
X206Y1235D01*
X208Y1235D01*
X208Y1231D01*
X210Y1231D01*
X210Y1227D01*
X212Y1227D01*
X212Y1223D01*
X214Y1223D01*
X214Y1213D01*
X234Y1213D01*
X234Y1223D01*
X236Y1223D01*
X236Y1227D01*
X238Y1227D01*
X238Y1231D01*
X240Y1231D01*
X240Y1235D01*
X242Y1235D01*
X242Y1237D01*
X244Y1237D01*
X244Y1239D01*
X246Y1239D01*
X246Y1241D01*
X248Y1241D01*
X248Y1243D01*
X250Y1243D01*
X250Y1245D01*
X254Y1245D01*
X254Y1247D01*
X256Y1247D01*
X256Y1249D01*
X262Y1249D01*
X262Y1251D01*
X268Y1251D01*
X268Y1271D01*
X264Y1271D01*
X264Y1273D01*
X260Y1273D01*
X260Y1275D01*
X256Y1275D01*
X256Y1277D01*
X252Y1277D01*
X252Y1279D01*
X250Y1279D01*
X250Y1281D01*
X248Y1281D01*
X248Y1283D01*
X246Y1283D01*
X246Y1285D01*
X244Y1285D01*
X244Y1287D01*
X242Y1287D01*
X242Y1289D01*
X240Y1289D01*
X240Y1293D01*
X238Y1293D01*
X238Y1295D01*
X236Y1295D01*
X236Y1301D01*
X234Y1301D01*
X234Y1309D01*
X214Y1309D01*
G37*
D02*
G36*
X214Y1209D02*
X214Y1201D01*
X212Y1201D01*
X212Y1195D01*
X210Y1195D01*
X210Y1191D01*
X208Y1191D01*
X208Y1189D01*
X206Y1189D01*
X206Y1187D01*
X204Y1187D01*
X204Y1183D01*
X200Y1183D01*
X200Y1181D01*
X198Y1181D01*
X198Y1179D01*
X196Y1179D01*
X196Y1177D01*
X192Y1177D01*
X192Y1175D01*
X190Y1175D01*
X190Y1173D01*
X184Y1173D01*
X184Y1171D01*
X180Y1171D01*
X180Y1151D01*
X186Y1151D01*
X186Y1149D01*
X192Y1149D01*
X192Y1147D01*
X194Y1147D01*
X194Y1145D01*
X198Y1145D01*
X198Y1143D01*
X200Y1143D01*
X200Y1141D01*
X202Y1141D01*
X202Y1139D01*
X204Y1139D01*
X204Y1137D01*
X206Y1137D01*
X206Y1135D01*
X208Y1135D01*
X208Y1131D01*
X210Y1131D01*
X210Y1127D01*
X212Y1127D01*
X212Y1123D01*
X214Y1123D01*
X214Y1113D01*
X234Y1113D01*
X234Y1123D01*
X236Y1123D01*
X236Y1127D01*
X238Y1127D01*
X238Y1131D01*
X240Y1131D01*
X240Y1135D01*
X242Y1135D01*
X242Y1137D01*
X244Y1137D01*
X244Y1139D01*
X246Y1139D01*
X246Y1141D01*
X248Y1141D01*
X248Y1143D01*
X250Y1143D01*
X250Y1145D01*
X254Y1145D01*
X254Y1147D01*
X256Y1147D01*
X256Y1149D01*
X262Y1149D01*
X262Y1151D01*
X268Y1151D01*
X268Y1171D01*
X264Y1171D01*
X264Y1173D01*
X260Y1173D01*
X260Y1175D01*
X256Y1175D01*
X256Y1177D01*
X252Y1177D01*
X252Y1179D01*
X250Y1179D01*
X250Y1181D01*
X248Y1181D01*
X248Y1183D01*
X246Y1183D01*
X246Y1185D01*
X244Y1185D01*
X244Y1187D01*
X242Y1187D01*
X242Y1189D01*
X240Y1189D01*
X240Y1193D01*
X238Y1193D01*
X238Y1195D01*
X236Y1195D01*
X236Y1201D01*
X234Y1201D01*
X234Y1209D01*
X214Y1209D01*
G37*
D02*
G36*
X66Y1195D02*
X66Y693D01*
X86Y693D01*
X86Y697D01*
X88Y697D01*
X88Y699D01*
X90Y699D01*
X90Y701D01*
X92Y701D01*
X92Y703D01*
X94Y703D01*
X94Y705D01*
X96Y705D01*
X96Y707D01*
X98Y707D01*
X98Y709D01*
X100Y709D01*
X100Y711D01*
X102Y711D01*
X102Y713D01*
X104Y713D01*
X104Y715D01*
X106Y715D01*
X106Y717D01*
X108Y717D01*
X108Y719D01*
X110Y719D01*
X110Y721D01*
X112Y721D01*
X112Y723D01*
X114Y723D01*
X114Y725D01*
X118Y725D01*
X118Y727D01*
X138Y727D01*
X138Y731D01*
X140Y731D01*
X140Y735D01*
X142Y735D01*
X142Y737D01*
X144Y737D01*
X144Y739D01*
X146Y739D01*
X146Y741D01*
X148Y741D01*
X148Y743D01*
X150Y743D01*
X150Y745D01*
X154Y745D01*
X154Y747D01*
X156Y747D01*
X156Y749D01*
X162Y749D01*
X162Y751D01*
X168Y751D01*
X168Y771D01*
X164Y771D01*
X164Y773D01*
X160Y773D01*
X160Y775D01*
X156Y775D01*
X156Y777D01*
X152Y777D01*
X152Y779D01*
X150Y779D01*
X150Y781D01*
X148Y781D01*
X148Y783D01*
X146Y783D01*
X146Y785D01*
X144Y785D01*
X144Y787D01*
X142Y787D01*
X142Y789D01*
X140Y789D01*
X140Y793D01*
X138Y793D01*
X138Y795D01*
X136Y795D01*
X136Y801D01*
X134Y801D01*
X134Y823D01*
X136Y823D01*
X136Y827D01*
X138Y827D01*
X138Y831D01*
X140Y831D01*
X140Y835D01*
X142Y835D01*
X142Y837D01*
X144Y837D01*
X144Y839D01*
X146Y839D01*
X146Y841D01*
X148Y841D01*
X148Y843D01*
X150Y843D01*
X150Y845D01*
X154Y845D01*
X154Y847D01*
X156Y847D01*
X156Y849D01*
X162Y849D01*
X162Y851D01*
X168Y851D01*
X168Y871D01*
X164Y871D01*
X164Y873D01*
X160Y873D01*
X160Y875D01*
X156Y875D01*
X156Y877D01*
X152Y877D01*
X152Y879D01*
X150Y879D01*
X150Y881D01*
X148Y881D01*
X148Y883D01*
X146Y883D01*
X146Y885D01*
X144Y885D01*
X144Y887D01*
X142Y887D01*
X142Y889D01*
X140Y889D01*
X140Y893D01*
X138Y893D01*
X138Y895D01*
X136Y895D01*
X136Y901D01*
X134Y901D01*
X134Y923D01*
X136Y923D01*
X136Y927D01*
X138Y927D01*
X138Y931D01*
X140Y931D01*
X140Y935D01*
X142Y935D01*
X142Y937D01*
X144Y937D01*
X144Y939D01*
X146Y939D01*
X146Y941D01*
X148Y941D01*
X148Y943D01*
X150Y943D01*
X150Y945D01*
X154Y945D01*
X154Y947D01*
X156Y947D01*
X156Y949D01*
X162Y949D01*
X162Y951D01*
X168Y951D01*
X168Y971D01*
X164Y971D01*
X164Y973D01*
X160Y973D01*
X160Y975D01*
X156Y975D01*
X156Y977D01*
X152Y977D01*
X152Y979D01*
X150Y979D01*
X150Y981D01*
X148Y981D01*
X148Y983D01*
X146Y983D01*
X146Y985D01*
X144Y985D01*
X144Y987D01*
X142Y987D01*
X142Y989D01*
X140Y989D01*
X140Y993D01*
X138Y993D01*
X138Y995D01*
X136Y995D01*
X136Y1001D01*
X134Y1001D01*
X134Y1023D01*
X136Y1023D01*
X136Y1027D01*
X138Y1027D01*
X138Y1031D01*
X140Y1031D01*
X140Y1035D01*
X142Y1035D01*
X142Y1037D01*
X144Y1037D01*
X144Y1039D01*
X146Y1039D01*
X146Y1041D01*
X148Y1041D01*
X148Y1043D01*
X150Y1043D01*
X150Y1045D01*
X154Y1045D01*
X154Y1047D01*
X156Y1047D01*
X156Y1049D01*
X162Y1049D01*
X162Y1051D01*
X168Y1051D01*
X168Y1071D01*
X164Y1071D01*
X164Y1073D01*
X160Y1073D01*
X160Y1075D01*
X156Y1075D01*
X156Y1077D01*
X152Y1077D01*
X152Y1079D01*
X150Y1079D01*
X150Y1081D01*
X148Y1081D01*
X148Y1083D01*
X146Y1083D01*
X146Y1085D01*
X144Y1085D01*
X144Y1087D01*
X142Y1087D01*
X142Y1089D01*
X140Y1089D01*
X140Y1093D01*
X138Y1093D01*
X138Y1095D01*
X136Y1095D01*
X136Y1101D01*
X134Y1101D01*
X134Y1123D01*
X136Y1123D01*
X136Y1127D01*
X138Y1127D01*
X138Y1131D01*
X140Y1131D01*
X140Y1135D01*
X142Y1135D01*
X142Y1137D01*
X144Y1137D01*
X144Y1139D01*
X146Y1139D01*
X146Y1141D01*
X148Y1141D01*
X148Y1143D01*
X150Y1143D01*
X150Y1145D01*
X154Y1145D01*
X154Y1147D01*
X156Y1147D01*
X156Y1149D01*
X162Y1149D01*
X162Y1151D01*
X168Y1151D01*
X168Y1171D01*
X164Y1171D01*
X164Y1173D01*
X160Y1173D01*
X160Y1175D01*
X156Y1175D01*
X156Y1177D01*
X152Y1177D01*
X152Y1179D01*
X150Y1179D01*
X150Y1181D01*
X148Y1181D01*
X148Y1183D01*
X146Y1183D01*
X146Y1185D01*
X144Y1185D01*
X144Y1187D01*
X142Y1187D01*
X142Y1189D01*
X140Y1189D01*
X140Y1193D01*
X138Y1193D01*
X138Y1195D01*
X66Y1195D01*
G37*
D02*
G36*
X214Y1109D02*
X214Y1101D01*
X212Y1101D01*
X212Y1095D01*
X210Y1095D01*
X210Y1091D01*
X208Y1091D01*
X208Y1089D01*
X206Y1089D01*
X206Y1087D01*
X204Y1087D01*
X204Y1083D01*
X200Y1083D01*
X200Y1081D01*
X198Y1081D01*
X198Y1079D01*
X196Y1079D01*
X196Y1077D01*
X192Y1077D01*
X192Y1075D01*
X190Y1075D01*
X190Y1073D01*
X184Y1073D01*
X184Y1071D01*
X180Y1071D01*
X180Y1051D01*
X186Y1051D01*
X186Y1049D01*
X192Y1049D01*
X192Y1047D01*
X194Y1047D01*
X194Y1045D01*
X198Y1045D01*
X198Y1043D01*
X200Y1043D01*
X200Y1041D01*
X202Y1041D01*
X202Y1039D01*
X204Y1039D01*
X204Y1037D01*
X206Y1037D01*
X206Y1035D01*
X208Y1035D01*
X208Y1031D01*
X210Y1031D01*
X210Y1027D01*
X212Y1027D01*
X212Y1023D01*
X214Y1023D01*
X214Y1013D01*
X234Y1013D01*
X234Y1023D01*
X236Y1023D01*
X236Y1027D01*
X238Y1027D01*
X238Y1031D01*
X240Y1031D01*
X240Y1035D01*
X242Y1035D01*
X242Y1037D01*
X244Y1037D01*
X244Y1039D01*
X246Y1039D01*
X246Y1041D01*
X248Y1041D01*
X248Y1043D01*
X250Y1043D01*
X250Y1045D01*
X254Y1045D01*
X254Y1047D01*
X256Y1047D01*
X256Y1049D01*
X262Y1049D01*
X262Y1051D01*
X268Y1051D01*
X268Y1071D01*
X264Y1071D01*
X264Y1073D01*
X260Y1073D01*
X260Y1075D01*
X256Y1075D01*
X256Y1077D01*
X252Y1077D01*
X252Y1079D01*
X250Y1079D01*
X250Y1081D01*
X248Y1081D01*
X248Y1083D01*
X246Y1083D01*
X246Y1085D01*
X244Y1085D01*
X244Y1087D01*
X242Y1087D01*
X242Y1089D01*
X240Y1089D01*
X240Y1093D01*
X238Y1093D01*
X238Y1095D01*
X236Y1095D01*
X236Y1101D01*
X234Y1101D01*
X234Y1109D01*
X214Y1109D01*
G37*
D02*
G36*
X214Y1009D02*
X214Y1001D01*
X212Y1001D01*
X212Y995D01*
X210Y995D01*
X210Y991D01*
X208Y991D01*
X208Y989D01*
X206Y989D01*
X206Y987D01*
X204Y987D01*
X204Y983D01*
X200Y983D01*
X200Y981D01*
X198Y981D01*
X198Y979D01*
X196Y979D01*
X196Y977D01*
X192Y977D01*
X192Y975D01*
X190Y975D01*
X190Y973D01*
X184Y973D01*
X184Y971D01*
X180Y971D01*
X180Y951D01*
X186Y951D01*
X186Y949D01*
X192Y949D01*
X192Y947D01*
X194Y947D01*
X194Y945D01*
X198Y945D01*
X198Y943D01*
X200Y943D01*
X200Y941D01*
X202Y941D01*
X202Y939D01*
X204Y939D01*
X204Y937D01*
X206Y937D01*
X206Y935D01*
X208Y935D01*
X208Y931D01*
X210Y931D01*
X210Y927D01*
X212Y927D01*
X212Y923D01*
X214Y923D01*
X214Y913D01*
X234Y913D01*
X234Y923D01*
X236Y923D01*
X236Y927D01*
X238Y927D01*
X238Y931D01*
X240Y931D01*
X240Y935D01*
X242Y935D01*
X242Y937D01*
X244Y937D01*
X244Y939D01*
X246Y939D01*
X246Y941D01*
X248Y941D01*
X248Y943D01*
X250Y943D01*
X250Y945D01*
X254Y945D01*
X254Y947D01*
X256Y947D01*
X256Y949D01*
X262Y949D01*
X262Y951D01*
X268Y951D01*
X268Y971D01*
X264Y971D01*
X264Y973D01*
X260Y973D01*
X260Y975D01*
X256Y975D01*
X256Y977D01*
X252Y977D01*
X252Y979D01*
X250Y979D01*
X250Y981D01*
X248Y981D01*
X248Y983D01*
X246Y983D01*
X246Y985D01*
X244Y985D01*
X244Y987D01*
X242Y987D01*
X242Y989D01*
X240Y989D01*
X240Y993D01*
X238Y993D01*
X238Y995D01*
X236Y995D01*
X236Y1001D01*
X234Y1001D01*
X234Y1009D01*
X214Y1009D01*
G37*
D02*
G36*
X688Y1007D02*
X688Y1003D01*
X686Y1003D01*
X686Y999D01*
X682Y999D01*
X682Y997D01*
X678Y997D01*
X678Y995D01*
X310Y995D01*
X310Y991D01*
X308Y991D01*
X308Y989D01*
X306Y989D01*
X306Y987D01*
X304Y987D01*
X304Y983D01*
X300Y983D01*
X300Y981D01*
X298Y981D01*
X298Y979D01*
X296Y979D01*
X296Y977D01*
X292Y977D01*
X292Y975D01*
X290Y975D01*
X290Y973D01*
X284Y973D01*
X284Y971D01*
X280Y971D01*
X280Y951D01*
X286Y951D01*
X286Y949D01*
X292Y949D01*
X292Y947D01*
X294Y947D01*
X294Y945D01*
X298Y945D01*
X298Y943D01*
X300Y943D01*
X300Y941D01*
X302Y941D01*
X302Y939D01*
X304Y939D01*
X304Y937D01*
X306Y937D01*
X306Y935D01*
X308Y935D01*
X308Y931D01*
X310Y931D01*
X310Y927D01*
X694Y927D01*
X694Y929D01*
X696Y929D01*
X696Y931D01*
X698Y931D01*
X698Y933D01*
X700Y933D01*
X700Y935D01*
X702Y935D01*
X702Y937D01*
X704Y937D01*
X704Y939D01*
X706Y939D01*
X706Y941D01*
X708Y941D01*
X708Y1007D01*
X688Y1007D01*
G37*
D02*
G36*
X738Y929D02*
X738Y927D01*
X736Y927D01*
X736Y925D01*
X734Y925D01*
X734Y923D01*
X732Y923D01*
X732Y921D01*
X730Y921D01*
X730Y919D01*
X728Y919D01*
X728Y917D01*
X726Y917D01*
X726Y915D01*
X724Y915D01*
X724Y913D01*
X722Y913D01*
X722Y911D01*
X720Y911D01*
X720Y909D01*
X718Y909D01*
X718Y907D01*
X716Y907D01*
X716Y905D01*
X714Y905D01*
X714Y903D01*
X712Y903D01*
X712Y901D01*
X710Y901D01*
X710Y899D01*
X708Y899D01*
X708Y897D01*
X704Y897D01*
X704Y895D01*
X310Y895D01*
X310Y891D01*
X308Y891D01*
X308Y889D01*
X306Y889D01*
X306Y887D01*
X304Y887D01*
X304Y883D01*
X300Y883D01*
X300Y881D01*
X298Y881D01*
X298Y879D01*
X296Y879D01*
X296Y877D01*
X292Y877D01*
X292Y875D01*
X290Y875D01*
X290Y873D01*
X284Y873D01*
X284Y871D01*
X280Y871D01*
X280Y851D01*
X286Y851D01*
X286Y849D01*
X292Y849D01*
X292Y847D01*
X294Y847D01*
X294Y845D01*
X298Y845D01*
X298Y843D01*
X300Y843D01*
X300Y841D01*
X302Y841D01*
X302Y839D01*
X304Y839D01*
X304Y837D01*
X306Y837D01*
X306Y835D01*
X308Y835D01*
X308Y831D01*
X310Y831D01*
X310Y827D01*
X312Y827D01*
X312Y823D01*
X314Y823D01*
X314Y813D01*
X316Y813D01*
X316Y809D01*
X314Y809D01*
X314Y801D01*
X312Y801D01*
X312Y795D01*
X310Y795D01*
X310Y791D01*
X308Y791D01*
X308Y789D01*
X306Y789D01*
X306Y787D01*
X304Y787D01*
X304Y783D01*
X300Y783D01*
X300Y781D01*
X298Y781D01*
X298Y779D01*
X296Y779D01*
X296Y777D01*
X292Y777D01*
X292Y775D01*
X290Y775D01*
X290Y773D01*
X284Y773D01*
X284Y771D01*
X280Y771D01*
X280Y751D01*
X286Y751D01*
X286Y749D01*
X292Y749D01*
X292Y747D01*
X294Y747D01*
X294Y745D01*
X298Y745D01*
X298Y743D01*
X300Y743D01*
X300Y741D01*
X302Y741D01*
X302Y739D01*
X304Y739D01*
X304Y737D01*
X306Y737D01*
X306Y735D01*
X308Y735D01*
X308Y731D01*
X310Y731D01*
X310Y727D01*
X312Y727D01*
X312Y723D01*
X314Y723D01*
X314Y713D01*
X316Y713D01*
X316Y709D01*
X314Y709D01*
X314Y701D01*
X312Y701D01*
X312Y695D01*
X310Y695D01*
X310Y691D01*
X308Y691D01*
X308Y689D01*
X306Y689D01*
X306Y687D01*
X304Y687D01*
X304Y683D01*
X300Y683D01*
X300Y681D01*
X298Y681D01*
X298Y679D01*
X296Y679D01*
X296Y677D01*
X292Y677D01*
X292Y675D01*
X290Y675D01*
X290Y673D01*
X284Y673D01*
X284Y671D01*
X280Y671D01*
X280Y651D01*
X286Y651D01*
X286Y649D01*
X292Y649D01*
X292Y647D01*
X294Y647D01*
X294Y645D01*
X298Y645D01*
X298Y643D01*
X300Y643D01*
X300Y641D01*
X302Y641D01*
X302Y639D01*
X304Y639D01*
X304Y637D01*
X306Y637D01*
X306Y635D01*
X308Y635D01*
X308Y631D01*
X310Y631D01*
X310Y627D01*
X312Y627D01*
X312Y623D01*
X314Y623D01*
X314Y613D01*
X316Y613D01*
X316Y609D01*
X314Y609D01*
X314Y601D01*
X312Y601D01*
X312Y595D01*
X310Y595D01*
X310Y591D01*
X308Y591D01*
X308Y589D01*
X306Y589D01*
X306Y587D01*
X304Y587D01*
X304Y583D01*
X300Y583D01*
X300Y581D01*
X298Y581D01*
X298Y579D01*
X296Y579D01*
X296Y577D01*
X292Y577D01*
X292Y575D01*
X290Y575D01*
X290Y573D01*
X284Y573D01*
X284Y553D01*
X744Y553D01*
X744Y555D01*
X746Y555D01*
X746Y557D01*
X748Y557D01*
X748Y559D01*
X750Y559D01*
X750Y561D01*
X752Y561D01*
X752Y563D01*
X754Y563D01*
X754Y565D01*
X756Y565D01*
X756Y567D01*
X758Y567D01*
X758Y929D01*
X738Y929D01*
G37*
D02*
G36*
X214Y909D02*
X214Y901D01*
X212Y901D01*
X212Y895D01*
X210Y895D01*
X210Y891D01*
X208Y891D01*
X208Y889D01*
X206Y889D01*
X206Y887D01*
X204Y887D01*
X204Y883D01*
X200Y883D01*
X200Y881D01*
X198Y881D01*
X198Y879D01*
X196Y879D01*
X196Y877D01*
X192Y877D01*
X192Y875D01*
X190Y875D01*
X190Y873D01*
X184Y873D01*
X184Y871D01*
X180Y871D01*
X180Y851D01*
X186Y851D01*
X186Y849D01*
X192Y849D01*
X192Y847D01*
X194Y847D01*
X194Y845D01*
X198Y845D01*
X198Y843D01*
X200Y843D01*
X200Y841D01*
X202Y841D01*
X202Y839D01*
X204Y839D01*
X204Y837D01*
X206Y837D01*
X206Y835D01*
X208Y835D01*
X208Y831D01*
X210Y831D01*
X210Y827D01*
X212Y827D01*
X212Y823D01*
X214Y823D01*
X214Y813D01*
X234Y813D01*
X234Y823D01*
X236Y823D01*
X236Y827D01*
X238Y827D01*
X238Y831D01*
X240Y831D01*
X240Y835D01*
X242Y835D01*
X242Y837D01*
X244Y837D01*
X244Y839D01*
X246Y839D01*
X246Y841D01*
X248Y841D01*
X248Y843D01*
X250Y843D01*
X250Y845D01*
X254Y845D01*
X254Y847D01*
X256Y847D01*
X256Y849D01*
X262Y849D01*
X262Y851D01*
X268Y851D01*
X268Y871D01*
X264Y871D01*
X264Y873D01*
X260Y873D01*
X260Y875D01*
X256Y875D01*
X256Y877D01*
X252Y877D01*
X252Y879D01*
X250Y879D01*
X250Y881D01*
X248Y881D01*
X248Y883D01*
X246Y883D01*
X246Y885D01*
X244Y885D01*
X244Y887D01*
X242Y887D01*
X242Y889D01*
X240Y889D01*
X240Y893D01*
X238Y893D01*
X238Y895D01*
X236Y895D01*
X236Y901D01*
X234Y901D01*
X234Y909D01*
X214Y909D01*
G37*
D02*
G36*
X214Y809D02*
X214Y801D01*
X212Y801D01*
X212Y795D01*
X210Y795D01*
X210Y791D01*
X208Y791D01*
X208Y789D01*
X206Y789D01*
X206Y787D01*
X204Y787D01*
X204Y783D01*
X200Y783D01*
X200Y781D01*
X198Y781D01*
X198Y779D01*
X196Y779D01*
X196Y777D01*
X192Y777D01*
X192Y775D01*
X190Y775D01*
X190Y773D01*
X184Y773D01*
X184Y771D01*
X180Y771D01*
X180Y751D01*
X186Y751D01*
X186Y749D01*
X192Y749D01*
X192Y747D01*
X194Y747D01*
X194Y745D01*
X198Y745D01*
X198Y743D01*
X200Y743D01*
X200Y741D01*
X202Y741D01*
X202Y739D01*
X204Y739D01*
X204Y737D01*
X206Y737D01*
X206Y735D01*
X208Y735D01*
X208Y731D01*
X210Y731D01*
X210Y727D01*
X212Y727D01*
X212Y723D01*
X214Y723D01*
X214Y713D01*
X234Y713D01*
X234Y723D01*
X236Y723D01*
X236Y727D01*
X238Y727D01*
X238Y731D01*
X240Y731D01*
X240Y735D01*
X242Y735D01*
X242Y737D01*
X244Y737D01*
X244Y739D01*
X246Y739D01*
X246Y741D01*
X248Y741D01*
X248Y743D01*
X250Y743D01*
X250Y745D01*
X254Y745D01*
X254Y747D01*
X256Y747D01*
X256Y749D01*
X262Y749D01*
X262Y751D01*
X268Y751D01*
X268Y771D01*
X264Y771D01*
X264Y773D01*
X260Y773D01*
X260Y775D01*
X256Y775D01*
X256Y777D01*
X252Y777D01*
X252Y779D01*
X250Y779D01*
X250Y781D01*
X248Y781D01*
X248Y783D01*
X246Y783D01*
X246Y785D01*
X244Y785D01*
X244Y787D01*
X242Y787D01*
X242Y789D01*
X240Y789D01*
X240Y793D01*
X238Y793D01*
X238Y795D01*
X236Y795D01*
X236Y801D01*
X234Y801D01*
X234Y809D01*
X214Y809D01*
G37*
D02*
G36*
X214Y709D02*
X214Y701D01*
X212Y701D01*
X212Y695D01*
X210Y695D01*
X210Y691D01*
X208Y691D01*
X208Y689D01*
X206Y689D01*
X206Y687D01*
X204Y687D01*
X204Y683D01*
X200Y683D01*
X200Y681D01*
X198Y681D01*
X198Y679D01*
X196Y679D01*
X196Y677D01*
X192Y677D01*
X192Y675D01*
X190Y675D01*
X190Y673D01*
X184Y673D01*
X184Y671D01*
X180Y671D01*
X180Y651D01*
X186Y651D01*
X186Y649D01*
X192Y649D01*
X192Y647D01*
X194Y647D01*
X194Y645D01*
X198Y645D01*
X198Y643D01*
X200Y643D01*
X200Y641D01*
X202Y641D01*
X202Y639D01*
X204Y639D01*
X204Y637D01*
X206Y637D01*
X206Y635D01*
X208Y635D01*
X208Y631D01*
X210Y631D01*
X210Y627D01*
X212Y627D01*
X212Y623D01*
X214Y623D01*
X214Y613D01*
X234Y613D01*
X234Y623D01*
X236Y623D01*
X236Y627D01*
X238Y627D01*
X238Y631D01*
X240Y631D01*
X240Y635D01*
X242Y635D01*
X242Y637D01*
X244Y637D01*
X244Y639D01*
X246Y639D01*
X246Y641D01*
X248Y641D01*
X248Y643D01*
X250Y643D01*
X250Y645D01*
X254Y645D01*
X254Y647D01*
X256Y647D01*
X256Y649D01*
X262Y649D01*
X262Y651D01*
X268Y651D01*
X268Y671D01*
X264Y671D01*
X264Y673D01*
X260Y673D01*
X260Y675D01*
X256Y675D01*
X256Y677D01*
X252Y677D01*
X252Y679D01*
X250Y679D01*
X250Y681D01*
X248Y681D01*
X248Y683D01*
X246Y683D01*
X246Y685D01*
X244Y685D01*
X244Y687D01*
X242Y687D01*
X242Y689D01*
X240Y689D01*
X240Y693D01*
X238Y693D01*
X238Y695D01*
X236Y695D01*
X236Y701D01*
X234Y701D01*
X234Y709D01*
X214Y709D01*
G37*
D02*
G36*
X122Y687D02*
X122Y685D01*
X120Y685D01*
X120Y683D01*
X118Y683D01*
X118Y681D01*
X116Y681D01*
X116Y623D01*
X136Y623D01*
X136Y627D01*
X138Y627D01*
X138Y631D01*
X140Y631D01*
X140Y635D01*
X142Y635D01*
X142Y637D01*
X144Y637D01*
X144Y639D01*
X146Y639D01*
X146Y641D01*
X148Y641D01*
X148Y643D01*
X150Y643D01*
X150Y645D01*
X154Y645D01*
X154Y647D01*
X156Y647D01*
X156Y649D01*
X162Y649D01*
X162Y651D01*
X168Y651D01*
X168Y671D01*
X164Y671D01*
X164Y673D01*
X160Y673D01*
X160Y675D01*
X156Y675D01*
X156Y677D01*
X152Y677D01*
X152Y679D01*
X150Y679D01*
X150Y681D01*
X148Y681D01*
X148Y683D01*
X146Y683D01*
X146Y685D01*
X144Y685D01*
X144Y687D01*
X122Y687D01*
G37*
D02*
G36*
X214Y609D02*
X214Y601D01*
X212Y601D01*
X212Y595D01*
X210Y595D01*
X210Y591D01*
X208Y591D01*
X208Y589D01*
X206Y589D01*
X206Y587D01*
X204Y587D01*
X204Y583D01*
X200Y583D01*
X200Y581D01*
X198Y581D01*
X198Y579D01*
X196Y579D01*
X196Y577D01*
X192Y577D01*
X192Y575D01*
X190Y575D01*
X190Y573D01*
X184Y573D01*
X184Y553D01*
X264Y553D01*
X264Y573D01*
X260Y573D01*
X260Y575D01*
X256Y575D01*
X256Y577D01*
X252Y577D01*
X252Y579D01*
X250Y579D01*
X250Y581D01*
X248Y581D01*
X248Y583D01*
X246Y583D01*
X246Y585D01*
X244Y585D01*
X244Y587D01*
X242Y587D01*
X242Y589D01*
X240Y589D01*
X240Y593D01*
X238Y593D01*
X238Y595D01*
X236Y595D01*
X236Y601D01*
X234Y601D01*
X234Y609D01*
X214Y609D01*
G37*
D02*
G36*
X66Y347D02*
X66Y317D01*
X68Y317D01*
X68Y315D01*
X70Y315D01*
X70Y313D01*
X72Y313D01*
X72Y311D01*
X74Y311D01*
X74Y309D01*
X76Y309D01*
X76Y307D01*
X78Y307D01*
X78Y305D01*
X80Y305D01*
X80Y303D01*
X204Y303D01*
X204Y347D01*
X66Y347D01*
G37*
D02*
G36*
X40Y3897D02*
X40Y3797D01*
X1154Y3797D01*
X1154Y3795D01*
X1158Y3795D01*
X1158Y3793D01*
X1160Y3793D01*
X1160Y3791D01*
X1162Y3791D01*
X1162Y3789D01*
X1164Y3789D01*
X1164Y3787D01*
X1166Y3787D01*
X1166Y3785D01*
X1168Y3785D01*
X1168Y3783D01*
X1170Y3783D01*
X1170Y3781D01*
X1172Y3781D01*
X1172Y3779D01*
X1174Y3779D01*
X1174Y3777D01*
X1176Y3777D01*
X1176Y3775D01*
X1178Y3775D01*
X1178Y3773D01*
X1180Y3773D01*
X1180Y3771D01*
X1182Y3771D01*
X1182Y3769D01*
X1184Y3769D01*
X1184Y3765D01*
X1186Y3765D01*
X1186Y3717D01*
X1310Y3717D01*
X1310Y3715D01*
X1320Y3715D01*
X1320Y3713D01*
X1324Y3713D01*
X1324Y3711D01*
X1330Y3711D01*
X1330Y3709D01*
X1334Y3709D01*
X1334Y3707D01*
X1336Y3707D01*
X1336Y3705D01*
X1340Y3705D01*
X1340Y3703D01*
X1342Y3703D01*
X1342Y3701D01*
X1346Y3701D01*
X1346Y3699D01*
X1348Y3699D01*
X1348Y3697D01*
X1350Y3697D01*
X1350Y3695D01*
X1352Y3695D01*
X1352Y3693D01*
X1354Y3693D01*
X1354Y3691D01*
X1356Y3691D01*
X1356Y3687D01*
X1358Y3687D01*
X1358Y3685D01*
X1360Y3685D01*
X1360Y3681D01*
X1362Y3681D01*
X1362Y3679D01*
X1364Y3679D01*
X1364Y3675D01*
X1366Y3675D01*
X1366Y3671D01*
X1368Y3671D01*
X1368Y3665D01*
X1370Y3665D01*
X1370Y3655D01*
X1372Y3655D01*
X1372Y3633D01*
X1370Y3633D01*
X1370Y3623D01*
X1368Y3623D01*
X1368Y3617D01*
X1366Y3617D01*
X1366Y3613D01*
X1364Y3613D01*
X1364Y3609D01*
X1362Y3609D01*
X1362Y3607D01*
X1360Y3607D01*
X1360Y3603D01*
X1358Y3603D01*
X1358Y3601D01*
X1356Y3601D01*
X1356Y3597D01*
X1354Y3597D01*
X1354Y3595D01*
X1352Y3595D01*
X1352Y3593D01*
X1350Y3593D01*
X1350Y3591D01*
X1348Y3591D01*
X1348Y3589D01*
X1346Y3589D01*
X1346Y3587D01*
X1342Y3587D01*
X1342Y3585D01*
X1340Y3585D01*
X1340Y3583D01*
X1336Y3583D01*
X1336Y3581D01*
X1334Y3581D01*
X1334Y3579D01*
X1330Y3579D01*
X1330Y3577D01*
X1324Y3577D01*
X1324Y3575D01*
X1318Y3575D01*
X1318Y3573D01*
X1310Y3573D01*
X1310Y3571D01*
X1534Y3571D01*
X1534Y3897D01*
X40Y3897D01*
G37*
D02*
G36*
X40Y3797D02*
X40Y3343D01*
X280Y3343D01*
X280Y3431D01*
X302Y3431D01*
X302Y3451D01*
X298Y3451D01*
X298Y3453D01*
X296Y3453D01*
X296Y3455D01*
X294Y3455D01*
X294Y3457D01*
X292Y3457D01*
X292Y3459D01*
X290Y3459D01*
X290Y3461D01*
X288Y3461D01*
X288Y3465D01*
X286Y3465D01*
X286Y3469D01*
X284Y3469D01*
X284Y3473D01*
X282Y3473D01*
X282Y3479D01*
X280Y3479D01*
X280Y3495D01*
X282Y3495D01*
X282Y3501D01*
X284Y3501D01*
X284Y3505D01*
X286Y3505D01*
X286Y3509D01*
X288Y3509D01*
X288Y3511D01*
X290Y3511D01*
X290Y3513D01*
X292Y3513D01*
X292Y3517D01*
X294Y3517D01*
X294Y3519D01*
X298Y3519D01*
X298Y3521D01*
X300Y3521D01*
X300Y3523D01*
X302Y3523D01*
X302Y3525D01*
X306Y3525D01*
X306Y3527D01*
X308Y3527D01*
X308Y3547D01*
X304Y3547D01*
X304Y3549D01*
X302Y3549D01*
X302Y3551D01*
X298Y3551D01*
X298Y3553D01*
X296Y3553D01*
X296Y3555D01*
X294Y3555D01*
X294Y3557D01*
X292Y3557D01*
X292Y3559D01*
X290Y3559D01*
X290Y3561D01*
X288Y3561D01*
X288Y3565D01*
X286Y3565D01*
X286Y3569D01*
X284Y3569D01*
X284Y3573D01*
X282Y3573D01*
X282Y3579D01*
X280Y3579D01*
X280Y3595D01*
X282Y3595D01*
X282Y3601D01*
X284Y3601D01*
X284Y3605D01*
X286Y3605D01*
X286Y3609D01*
X288Y3609D01*
X288Y3611D01*
X290Y3611D01*
X290Y3613D01*
X292Y3613D01*
X292Y3617D01*
X294Y3617D01*
X294Y3619D01*
X298Y3619D01*
X298Y3621D01*
X300Y3621D01*
X300Y3623D01*
X302Y3623D01*
X302Y3625D01*
X306Y3625D01*
X306Y3627D01*
X308Y3627D01*
X308Y3647D01*
X304Y3647D01*
X304Y3649D01*
X302Y3649D01*
X302Y3651D01*
X298Y3651D01*
X298Y3653D01*
X296Y3653D01*
X296Y3655D01*
X294Y3655D01*
X294Y3657D01*
X292Y3657D01*
X292Y3659D01*
X290Y3659D01*
X290Y3661D01*
X288Y3661D01*
X288Y3665D01*
X286Y3665D01*
X286Y3669D01*
X284Y3669D01*
X284Y3673D01*
X282Y3673D01*
X282Y3679D01*
X280Y3679D01*
X280Y3695D01*
X282Y3695D01*
X282Y3701D01*
X284Y3701D01*
X284Y3705D01*
X286Y3705D01*
X286Y3709D01*
X288Y3709D01*
X288Y3711D01*
X290Y3711D01*
X290Y3713D01*
X292Y3713D01*
X292Y3717D01*
X294Y3717D01*
X294Y3719D01*
X298Y3719D01*
X298Y3721D01*
X300Y3721D01*
X300Y3723D01*
X302Y3723D01*
X302Y3725D01*
X306Y3725D01*
X306Y3727D01*
X310Y3727D01*
X310Y3729D01*
X312Y3729D01*
X312Y3765D01*
X314Y3765D01*
X314Y3769D01*
X316Y3769D01*
X316Y3771D01*
X318Y3771D01*
X318Y3773D01*
X320Y3773D01*
X320Y3775D01*
X322Y3775D01*
X322Y3777D01*
X324Y3777D01*
X324Y3779D01*
X326Y3779D01*
X326Y3781D01*
X328Y3781D01*
X328Y3783D01*
X330Y3783D01*
X330Y3785D01*
X332Y3785D01*
X332Y3787D01*
X334Y3787D01*
X334Y3789D01*
X336Y3789D01*
X336Y3791D01*
X338Y3791D01*
X338Y3793D01*
X342Y3793D01*
X342Y3795D01*
X344Y3795D01*
X344Y3797D01*
X40Y3797D01*
G37*
D02*
G36*
X352Y3773D02*
X352Y3771D01*
X350Y3771D01*
X350Y3769D01*
X348Y3769D01*
X348Y3767D01*
X346Y3767D01*
X346Y3765D01*
X344Y3765D01*
X344Y3763D01*
X342Y3763D01*
X342Y3761D01*
X340Y3761D01*
X340Y3759D01*
X338Y3759D01*
X338Y3757D01*
X336Y3757D01*
X336Y3729D01*
X338Y3729D01*
X338Y3727D01*
X342Y3727D01*
X342Y3725D01*
X346Y3725D01*
X346Y3723D01*
X348Y3723D01*
X348Y3721D01*
X350Y3721D01*
X350Y3719D01*
X354Y3719D01*
X354Y3717D01*
X356Y3717D01*
X356Y3715D01*
X358Y3715D01*
X358Y3711D01*
X360Y3711D01*
X360Y3709D01*
X362Y3709D01*
X362Y3705D01*
X364Y3705D01*
X364Y3701D01*
X366Y3701D01*
X366Y3695D01*
X368Y3695D01*
X368Y3677D01*
X366Y3677D01*
X366Y3673D01*
X364Y3673D01*
X364Y3667D01*
X362Y3667D01*
X362Y3665D01*
X360Y3665D01*
X360Y3661D01*
X358Y3661D01*
X358Y3659D01*
X356Y3659D01*
X356Y3657D01*
X354Y3657D01*
X354Y3655D01*
X352Y3655D01*
X352Y3653D01*
X350Y3653D01*
X350Y3651D01*
X346Y3651D01*
X346Y3649D01*
X344Y3649D01*
X344Y3647D01*
X340Y3647D01*
X340Y3627D01*
X342Y3627D01*
X342Y3625D01*
X346Y3625D01*
X346Y3623D01*
X348Y3623D01*
X348Y3621D01*
X350Y3621D01*
X350Y3619D01*
X354Y3619D01*
X354Y3617D01*
X356Y3617D01*
X356Y3615D01*
X358Y3615D01*
X358Y3611D01*
X360Y3611D01*
X360Y3609D01*
X362Y3609D01*
X362Y3605D01*
X364Y3605D01*
X364Y3601D01*
X366Y3601D01*
X366Y3595D01*
X368Y3595D01*
X368Y3577D01*
X366Y3577D01*
X366Y3573D01*
X364Y3573D01*
X364Y3567D01*
X362Y3567D01*
X362Y3565D01*
X360Y3565D01*
X360Y3561D01*
X358Y3561D01*
X358Y3559D01*
X356Y3559D01*
X356Y3557D01*
X354Y3557D01*
X354Y3555D01*
X352Y3555D01*
X352Y3553D01*
X350Y3553D01*
X350Y3551D01*
X346Y3551D01*
X346Y3549D01*
X344Y3549D01*
X344Y3547D01*
X340Y3547D01*
X340Y3527D01*
X342Y3527D01*
X342Y3525D01*
X346Y3525D01*
X346Y3523D01*
X348Y3523D01*
X348Y3521D01*
X350Y3521D01*
X350Y3519D01*
X354Y3519D01*
X354Y3517D01*
X356Y3517D01*
X356Y3515D01*
X358Y3515D01*
X358Y3513D01*
X1060Y3513D01*
X1060Y3511D01*
X1066Y3511D01*
X1066Y3509D01*
X1070Y3509D01*
X1070Y3507D01*
X1074Y3507D01*
X1074Y3505D01*
X1078Y3505D01*
X1078Y3503D01*
X1080Y3503D01*
X1080Y3501D01*
X1082Y3501D01*
X1082Y3499D01*
X1084Y3499D01*
X1084Y3497D01*
X1086Y3497D01*
X1086Y3495D01*
X1088Y3495D01*
X1088Y3493D01*
X1090Y3493D01*
X1090Y3489D01*
X1092Y3489D01*
X1092Y3485D01*
X1094Y3485D01*
X1094Y3481D01*
X1096Y3481D01*
X1096Y3473D01*
X1098Y3473D01*
X1098Y3461D01*
X1096Y3461D01*
X1096Y3455D01*
X1094Y3455D01*
X1094Y3449D01*
X1092Y3449D01*
X1092Y3445D01*
X1090Y3445D01*
X1090Y3443D01*
X1088Y3443D01*
X1088Y3439D01*
X1086Y3439D01*
X1086Y3437D01*
X1084Y3437D01*
X1084Y3435D01*
X1082Y3435D01*
X1082Y3433D01*
X1080Y3433D01*
X1080Y3431D01*
X1076Y3431D01*
X1076Y3429D01*
X1074Y3429D01*
X1074Y3427D01*
X1070Y3427D01*
X1070Y3425D01*
X1064Y3425D01*
X1064Y3423D01*
X1058Y3423D01*
X1058Y3421D01*
X1162Y3421D01*
X1162Y3757D01*
X1160Y3757D01*
X1160Y3759D01*
X1158Y3759D01*
X1158Y3761D01*
X1156Y3761D01*
X1156Y3763D01*
X1154Y3763D01*
X1154Y3765D01*
X1152Y3765D01*
X1152Y3767D01*
X1150Y3767D01*
X1150Y3769D01*
X1148Y3769D01*
X1148Y3771D01*
X1146Y3771D01*
X1146Y3773D01*
X352Y3773D01*
G37*
D02*
G36*
X1186Y3717D02*
X1186Y3571D01*
X1288Y3571D01*
X1288Y3573D01*
X1280Y3573D01*
X1280Y3575D01*
X1274Y3575D01*
X1274Y3577D01*
X1268Y3577D01*
X1268Y3579D01*
X1264Y3579D01*
X1264Y3581D01*
X1262Y3581D01*
X1262Y3583D01*
X1258Y3583D01*
X1258Y3585D01*
X1256Y3585D01*
X1256Y3587D01*
X1252Y3587D01*
X1252Y3589D01*
X1250Y3589D01*
X1250Y3591D01*
X1248Y3591D01*
X1248Y3593D01*
X1246Y3593D01*
X1246Y3595D01*
X1244Y3595D01*
X1244Y3597D01*
X1242Y3597D01*
X1242Y3601D01*
X1240Y3601D01*
X1240Y3603D01*
X1238Y3603D01*
X1238Y3607D01*
X1236Y3607D01*
X1236Y3609D01*
X1234Y3609D01*
X1234Y3613D01*
X1232Y3613D01*
X1232Y3619D01*
X1230Y3619D01*
X1230Y3625D01*
X1228Y3625D01*
X1228Y3635D01*
X1226Y3635D01*
X1226Y3655D01*
X1228Y3655D01*
X1228Y3663D01*
X1230Y3663D01*
X1230Y3669D01*
X1232Y3669D01*
X1232Y3675D01*
X1234Y3675D01*
X1234Y3679D01*
X1236Y3679D01*
X1236Y3681D01*
X1238Y3681D01*
X1238Y3685D01*
X1240Y3685D01*
X1240Y3687D01*
X1242Y3687D01*
X1242Y3691D01*
X1244Y3691D01*
X1244Y3693D01*
X1246Y3693D01*
X1246Y3695D01*
X1248Y3695D01*
X1248Y3697D01*
X1250Y3697D01*
X1250Y3699D01*
X1252Y3699D01*
X1252Y3701D01*
X1256Y3701D01*
X1256Y3703D01*
X1258Y3703D01*
X1258Y3705D01*
X1262Y3705D01*
X1262Y3707D01*
X1264Y3707D01*
X1264Y3709D01*
X1268Y3709D01*
X1268Y3711D01*
X1274Y3711D01*
X1274Y3713D01*
X1280Y3713D01*
X1280Y3715D01*
X1288Y3715D01*
X1288Y3717D01*
X1186Y3717D01*
G37*
D02*
G36*
X1186Y3571D02*
X1186Y3569D01*
X1534Y3569D01*
X1534Y3571D01*
X1186Y3571D01*
G37*
D02*
G36*
X1186Y3571D02*
X1186Y3569D01*
X1534Y3569D01*
X1534Y3571D01*
X1186Y3571D01*
G37*
D02*
G36*
X1186Y3569D02*
X1186Y3141D01*
X1188Y3141D01*
X1188Y3139D01*
X1190Y3139D01*
X1190Y3137D01*
X1192Y3137D01*
X1192Y3135D01*
X1194Y3135D01*
X1194Y3133D01*
X1196Y3133D01*
X1196Y3131D01*
X1198Y3131D01*
X1198Y3129D01*
X1200Y3129D01*
X1200Y3127D01*
X1202Y3127D01*
X1202Y3125D01*
X1204Y3125D01*
X1204Y3123D01*
X1206Y3123D01*
X1206Y3121D01*
X1208Y3121D01*
X1208Y3119D01*
X1210Y3119D01*
X1210Y3117D01*
X1212Y3117D01*
X1212Y3115D01*
X1214Y3115D01*
X1214Y3113D01*
X1216Y3113D01*
X1216Y3111D01*
X1218Y3111D01*
X1218Y3109D01*
X1220Y3109D01*
X1220Y3107D01*
X1222Y3107D01*
X1222Y3105D01*
X1224Y3105D01*
X1224Y3103D01*
X1226Y3103D01*
X1226Y3101D01*
X1228Y3101D01*
X1228Y3099D01*
X1230Y3099D01*
X1230Y3097D01*
X1232Y3097D01*
X1232Y3095D01*
X1234Y3095D01*
X1234Y3093D01*
X1236Y3093D01*
X1236Y3091D01*
X1238Y3091D01*
X1238Y3089D01*
X1240Y3089D01*
X1240Y3087D01*
X1242Y3087D01*
X1242Y3085D01*
X1244Y3085D01*
X1244Y3083D01*
X1246Y3083D01*
X1246Y3081D01*
X1248Y3081D01*
X1248Y3079D01*
X1250Y3079D01*
X1250Y3077D01*
X1252Y3077D01*
X1252Y3075D01*
X1254Y3075D01*
X1254Y3073D01*
X1256Y3073D01*
X1256Y3071D01*
X1258Y3071D01*
X1258Y3069D01*
X1260Y3069D01*
X1260Y3067D01*
X1262Y3067D01*
X1262Y2563D01*
X1260Y2563D01*
X1260Y2187D01*
X1312Y2187D01*
X1312Y2185D01*
X1320Y2185D01*
X1320Y2183D01*
X1326Y2183D01*
X1326Y2181D01*
X1330Y2181D01*
X1330Y2179D01*
X1334Y2179D01*
X1334Y2177D01*
X1338Y2177D01*
X1338Y2175D01*
X1340Y2175D01*
X1340Y2173D01*
X1344Y2173D01*
X1344Y2171D01*
X1346Y2171D01*
X1346Y2169D01*
X1348Y2169D01*
X1348Y2167D01*
X1350Y2167D01*
X1350Y2165D01*
X1352Y2165D01*
X1352Y2163D01*
X1354Y2163D01*
X1354Y2161D01*
X1356Y2161D01*
X1356Y2159D01*
X1358Y2159D01*
X1358Y2155D01*
X1360Y2155D01*
X1360Y2153D01*
X1362Y2153D01*
X1362Y2149D01*
X1364Y2149D01*
X1364Y2145D01*
X1366Y2145D01*
X1366Y2141D01*
X1368Y2141D01*
X1368Y2135D01*
X1370Y2135D01*
X1370Y2125D01*
X1372Y2125D01*
X1372Y2103D01*
X1370Y2103D01*
X1370Y2095D01*
X1368Y2095D01*
X1368Y2089D01*
X1366Y2089D01*
X1366Y2083D01*
X1364Y2083D01*
X1364Y2079D01*
X1362Y2079D01*
X1362Y2077D01*
X1360Y2077D01*
X1360Y2073D01*
X1358Y2073D01*
X1358Y2071D01*
X1356Y2071D01*
X1356Y2069D01*
X1354Y2069D01*
X1354Y2065D01*
X1352Y2065D01*
X1352Y2063D01*
X1350Y2063D01*
X1350Y2061D01*
X1348Y2061D01*
X1348Y2059D01*
X1344Y2059D01*
X1344Y2057D01*
X1342Y2057D01*
X1342Y2055D01*
X1340Y2055D01*
X1340Y2053D01*
X1336Y2053D01*
X1336Y2051D01*
X1332Y2051D01*
X1332Y2049D01*
X1328Y2049D01*
X1328Y2047D01*
X1324Y2047D01*
X1324Y2045D01*
X1318Y2045D01*
X1318Y2043D01*
X1308Y2043D01*
X1308Y2041D01*
X1534Y2041D01*
X1534Y3569D01*
X1186Y3569D01*
G37*
D02*
G36*
X358Y3513D02*
X358Y3511D01*
X890Y3511D01*
X890Y3509D01*
X896Y3509D01*
X896Y3507D01*
X898Y3507D01*
X898Y3505D01*
X902Y3505D01*
X902Y3503D01*
X904Y3503D01*
X904Y3501D01*
X908Y3501D01*
X908Y3499D01*
X910Y3499D01*
X910Y3497D01*
X912Y3497D01*
X912Y3495D01*
X914Y3495D01*
X914Y3491D01*
X916Y3491D01*
X916Y3489D01*
X918Y3489D01*
X918Y3485D01*
X920Y3485D01*
X920Y3481D01*
X922Y3481D01*
X922Y3475D01*
X924Y3475D01*
X924Y3459D01*
X922Y3459D01*
X922Y3451D01*
X920Y3451D01*
X920Y3447D01*
X918Y3447D01*
X918Y3443D01*
X916Y3443D01*
X916Y3441D01*
X914Y3441D01*
X914Y3439D01*
X912Y3439D01*
X912Y3437D01*
X910Y3437D01*
X910Y3433D01*
X906Y3433D01*
X906Y3431D01*
X904Y3431D01*
X904Y3429D01*
X902Y3429D01*
X902Y3427D01*
X898Y3427D01*
X898Y3425D01*
X894Y3425D01*
X894Y3423D01*
X888Y3423D01*
X888Y3421D01*
X1046Y3421D01*
X1046Y3423D01*
X1038Y3423D01*
X1038Y3425D01*
X1034Y3425D01*
X1034Y3427D01*
X1030Y3427D01*
X1030Y3429D01*
X1028Y3429D01*
X1028Y3431D01*
X1024Y3431D01*
X1024Y3433D01*
X1022Y3433D01*
X1022Y3435D01*
X1020Y3435D01*
X1020Y3437D01*
X1018Y3437D01*
X1018Y3439D01*
X1016Y3439D01*
X1016Y3441D01*
X1014Y3441D01*
X1014Y3445D01*
X1012Y3445D01*
X1012Y3449D01*
X1010Y3449D01*
X1010Y3453D01*
X1008Y3453D01*
X1008Y3459D01*
X1006Y3459D01*
X1006Y3475D01*
X1008Y3475D01*
X1008Y3481D01*
X1010Y3481D01*
X1010Y3485D01*
X1012Y3485D01*
X1012Y3489D01*
X1014Y3489D01*
X1014Y3493D01*
X1016Y3493D01*
X1016Y3495D01*
X1018Y3495D01*
X1018Y3497D01*
X1020Y3497D01*
X1020Y3499D01*
X1022Y3499D01*
X1022Y3501D01*
X1024Y3501D01*
X1024Y3503D01*
X1026Y3503D01*
X1026Y3505D01*
X1030Y3505D01*
X1030Y3507D01*
X1034Y3507D01*
X1034Y3509D01*
X1038Y3509D01*
X1038Y3511D01*
X1044Y3511D01*
X1044Y3513D01*
X358Y3513D01*
G37*
D02*
G36*
X360Y3511D02*
X360Y3509D01*
X362Y3509D01*
X362Y3505D01*
X364Y3505D01*
X364Y3501D01*
X366Y3501D01*
X366Y3495D01*
X368Y3495D01*
X368Y3477D01*
X366Y3477D01*
X366Y3473D01*
X364Y3473D01*
X364Y3467D01*
X362Y3467D01*
X362Y3465D01*
X360Y3465D01*
X360Y3461D01*
X358Y3461D01*
X358Y3459D01*
X356Y3459D01*
X356Y3457D01*
X354Y3457D01*
X354Y3455D01*
X352Y3455D01*
X352Y3453D01*
X350Y3453D01*
X350Y3451D01*
X346Y3451D01*
X346Y3431D01*
X368Y3431D01*
X368Y3343D01*
X440Y3343D01*
X440Y3447D01*
X442Y3447D01*
X442Y3453D01*
X444Y3453D01*
X444Y3455D01*
X446Y3455D01*
X446Y3459D01*
X448Y3459D01*
X448Y3461D01*
X450Y3461D01*
X450Y3463D01*
X452Y3463D01*
X452Y3465D01*
X454Y3465D01*
X454Y3467D01*
X458Y3467D01*
X458Y3469D01*
X460Y3469D01*
X460Y3471D01*
X462Y3471D01*
X462Y3473D01*
X464Y3473D01*
X464Y3475D01*
X466Y3475D01*
X466Y3477D01*
X468Y3477D01*
X468Y3479D01*
X470Y3479D01*
X470Y3481D01*
X472Y3481D01*
X472Y3483D01*
X474Y3483D01*
X474Y3485D01*
X476Y3485D01*
X476Y3487D01*
X478Y3487D01*
X478Y3489D01*
X482Y3489D01*
X482Y3491D01*
X486Y3491D01*
X486Y3493D01*
X492Y3493D01*
X492Y3495D01*
X846Y3495D01*
X846Y3499D01*
X850Y3499D01*
X850Y3501D01*
X852Y3501D01*
X852Y3503D01*
X854Y3503D01*
X854Y3505D01*
X858Y3505D01*
X858Y3507D01*
X862Y3507D01*
X862Y3509D01*
X866Y3509D01*
X866Y3511D01*
X360Y3511D01*
G37*
D02*
G36*
X836Y3429D02*
X836Y3427D01*
X512Y3427D01*
X512Y3425D01*
X510Y3425D01*
X510Y3423D01*
X508Y3423D01*
X508Y3421D01*
X868Y3421D01*
X868Y3423D01*
X862Y3423D01*
X862Y3425D01*
X858Y3425D01*
X858Y3427D01*
X856Y3427D01*
X856Y3429D01*
X836Y3429D01*
G37*
D02*
G36*
X508Y3421D02*
X508Y3419D01*
X1162Y3419D01*
X1162Y3421D01*
X508Y3421D01*
G37*
D02*
G36*
X508Y3421D02*
X508Y3419D01*
X1162Y3419D01*
X1162Y3421D01*
X508Y3421D01*
G37*
D02*
G36*
X508Y3421D02*
X508Y3419D01*
X1162Y3419D01*
X1162Y3421D01*
X508Y3421D01*
G37*
D02*
G36*
X508Y3419D02*
X508Y3403D01*
X658Y3403D01*
X658Y3401D01*
X664Y3401D01*
X664Y3399D01*
X668Y3399D01*
X668Y3397D01*
X670Y3397D01*
X670Y3395D01*
X674Y3395D01*
X674Y3393D01*
X676Y3393D01*
X676Y3391D01*
X678Y3391D01*
X678Y3389D01*
X680Y3389D01*
X680Y3387D01*
X682Y3387D01*
X682Y3383D01*
X684Y3383D01*
X684Y3381D01*
X686Y3381D01*
X686Y3377D01*
X688Y3377D01*
X688Y3375D01*
X1062Y3375D01*
X1062Y3373D01*
X1068Y3373D01*
X1068Y3371D01*
X1072Y3371D01*
X1072Y3369D01*
X1076Y3369D01*
X1076Y3367D01*
X1080Y3367D01*
X1080Y3365D01*
X1082Y3365D01*
X1082Y3363D01*
X1084Y3363D01*
X1084Y3361D01*
X1086Y3361D01*
X1086Y3359D01*
X1088Y3359D01*
X1088Y3357D01*
X1090Y3357D01*
X1090Y3353D01*
X1092Y3353D01*
X1092Y3351D01*
X1094Y3351D01*
X1094Y3347D01*
X1096Y3347D01*
X1096Y3341D01*
X1098Y3341D01*
X1098Y3319D01*
X1096Y3319D01*
X1096Y3313D01*
X1094Y3313D01*
X1094Y3309D01*
X1092Y3309D01*
X1092Y3305D01*
X1090Y3305D01*
X1090Y3303D01*
X1088Y3303D01*
X1088Y3301D01*
X1086Y3301D01*
X1086Y3299D01*
X1084Y3299D01*
X1084Y3297D01*
X1082Y3297D01*
X1082Y3295D01*
X1080Y3295D01*
X1080Y3293D01*
X1078Y3293D01*
X1078Y3291D01*
X1074Y3291D01*
X1074Y3289D01*
X1070Y3289D01*
X1070Y3287D01*
X1064Y3287D01*
X1064Y3285D01*
X1162Y3285D01*
X1162Y3419D01*
X508Y3419D01*
G37*
D02*
G36*
X508Y3403D02*
X508Y3321D01*
X638Y3321D01*
X638Y3323D01*
X634Y3323D01*
X634Y3325D01*
X630Y3325D01*
X630Y3327D01*
X626Y3327D01*
X626Y3329D01*
X624Y3329D01*
X624Y3331D01*
X622Y3331D01*
X622Y3333D01*
X620Y3333D01*
X620Y3335D01*
X618Y3335D01*
X618Y3337D01*
X616Y3337D01*
X616Y3339D01*
X614Y3339D01*
X614Y3343D01*
X612Y3343D01*
X612Y3347D01*
X610Y3347D01*
X610Y3353D01*
X608Y3353D01*
X608Y3371D01*
X610Y3371D01*
X610Y3377D01*
X612Y3377D01*
X612Y3381D01*
X614Y3381D01*
X614Y3383D01*
X616Y3383D01*
X616Y3387D01*
X618Y3387D01*
X618Y3389D01*
X620Y3389D01*
X620Y3391D01*
X622Y3391D01*
X622Y3393D01*
X624Y3393D01*
X624Y3395D01*
X628Y3395D01*
X628Y3397D01*
X632Y3397D01*
X632Y3399D01*
X634Y3399D01*
X634Y3401D01*
X640Y3401D01*
X640Y3403D01*
X508Y3403D01*
G37*
D02*
G36*
X688Y3375D02*
X688Y3371D01*
X690Y3371D01*
X690Y3351D01*
X688Y3351D01*
X688Y3347D01*
X686Y3347D01*
X686Y3343D01*
X684Y3343D01*
X684Y3339D01*
X682Y3339D01*
X682Y3337D01*
X680Y3337D01*
X680Y3335D01*
X678Y3335D01*
X678Y3333D01*
X676Y3333D01*
X676Y3331D01*
X674Y3331D01*
X674Y3329D01*
X672Y3329D01*
X672Y3327D01*
X668Y3327D01*
X668Y3325D01*
X666Y3325D01*
X666Y3323D01*
X660Y3323D01*
X660Y3321D01*
X834Y3321D01*
X834Y3323D01*
X832Y3323D01*
X832Y3333D01*
X834Y3333D01*
X834Y3341D01*
X836Y3341D01*
X836Y3347D01*
X838Y3347D01*
X838Y3351D01*
X840Y3351D01*
X840Y3353D01*
X842Y3353D01*
X842Y3355D01*
X844Y3355D01*
X844Y3359D01*
X846Y3359D01*
X846Y3361D01*
X848Y3361D01*
X848Y3363D01*
X852Y3363D01*
X852Y3365D01*
X854Y3365D01*
X854Y3367D01*
X856Y3367D01*
X856Y3369D01*
X860Y3369D01*
X860Y3371D01*
X866Y3371D01*
X866Y3373D01*
X872Y3373D01*
X872Y3375D01*
X688Y3375D01*
G37*
D02*
G36*
X884Y3375D02*
X884Y3373D01*
X892Y3373D01*
X892Y3371D01*
X896Y3371D01*
X896Y3369D01*
X900Y3369D01*
X900Y3367D01*
X904Y3367D01*
X904Y3365D01*
X906Y3365D01*
X906Y3363D01*
X908Y3363D01*
X908Y3361D01*
X910Y3361D01*
X910Y3359D01*
X912Y3359D01*
X912Y3357D01*
X914Y3357D01*
X914Y3355D01*
X916Y3355D01*
X916Y3351D01*
X918Y3351D01*
X918Y3347D01*
X920Y3347D01*
X920Y3343D01*
X922Y3343D01*
X922Y3337D01*
X924Y3337D01*
X924Y3321D01*
X922Y3321D01*
X922Y3315D01*
X920Y3315D01*
X920Y3309D01*
X918Y3309D01*
X918Y3307D01*
X916Y3307D01*
X916Y3303D01*
X914Y3303D01*
X914Y3301D01*
X912Y3301D01*
X912Y3299D01*
X910Y3299D01*
X910Y3297D01*
X908Y3297D01*
X908Y3295D01*
X906Y3295D01*
X906Y3293D01*
X904Y3293D01*
X904Y3291D01*
X900Y3291D01*
X900Y3289D01*
X898Y3289D01*
X898Y3287D01*
X892Y3287D01*
X892Y3285D01*
X1042Y3285D01*
X1042Y3287D01*
X1036Y3287D01*
X1036Y3289D01*
X1032Y3289D01*
X1032Y3291D01*
X1030Y3291D01*
X1030Y3293D01*
X1026Y3293D01*
X1026Y3295D01*
X1024Y3295D01*
X1024Y3297D01*
X1022Y3297D01*
X1022Y3299D01*
X1020Y3299D01*
X1020Y3301D01*
X1018Y3301D01*
X1018Y3303D01*
X1016Y3303D01*
X1016Y3307D01*
X1014Y3307D01*
X1014Y3311D01*
X1012Y3311D01*
X1012Y3315D01*
X1010Y3315D01*
X1010Y3319D01*
X1008Y3319D01*
X1008Y3339D01*
X1010Y3339D01*
X1010Y3345D01*
X1012Y3345D01*
X1012Y3349D01*
X1014Y3349D01*
X1014Y3353D01*
X1016Y3353D01*
X1016Y3355D01*
X1018Y3355D01*
X1018Y3359D01*
X1020Y3359D01*
X1020Y3361D01*
X1022Y3361D01*
X1022Y3363D01*
X1024Y3363D01*
X1024Y3365D01*
X1028Y3365D01*
X1028Y3367D01*
X1030Y3367D01*
X1030Y3369D01*
X1034Y3369D01*
X1034Y3371D01*
X1038Y3371D01*
X1038Y3373D01*
X1044Y3373D01*
X1044Y3375D01*
X884Y3375D01*
G37*
D02*
G36*
X40Y3343D02*
X40Y3341D01*
X440Y3341D01*
X440Y3343D01*
X40Y3343D01*
G37*
D02*
G36*
X40Y3343D02*
X40Y3341D01*
X440Y3341D01*
X440Y3343D01*
X40Y3343D01*
G37*
D02*
G36*
X40Y3341D02*
X40Y3127D01*
X408Y3127D01*
X408Y3125D01*
X414Y3125D01*
X414Y3123D01*
X418Y3123D01*
X418Y3121D01*
X440Y3121D01*
X440Y3341D01*
X40Y3341D01*
G37*
D02*
G36*
X508Y3321D02*
X508Y3319D01*
X834Y3319D01*
X834Y3321D01*
X508Y3321D01*
G37*
D02*
G36*
X508Y3321D02*
X508Y3319D01*
X834Y3319D01*
X834Y3321D01*
X508Y3321D01*
G37*
D02*
G36*
X508Y3319D02*
X508Y3283D01*
X870Y3283D01*
X870Y3285D01*
X864Y3285D01*
X864Y3287D01*
X860Y3287D01*
X860Y3289D01*
X856Y3289D01*
X856Y3291D01*
X852Y3291D01*
X852Y3293D01*
X850Y3293D01*
X850Y3295D01*
X848Y3295D01*
X848Y3297D01*
X846Y3297D01*
X846Y3299D01*
X844Y3299D01*
X844Y3301D01*
X842Y3301D01*
X842Y3305D01*
X840Y3305D01*
X840Y3307D01*
X838Y3307D01*
X838Y3311D01*
X836Y3311D01*
X836Y3317D01*
X834Y3317D01*
X834Y3319D01*
X508Y3319D01*
G37*
D02*
G36*
X886Y3285D02*
X886Y3283D01*
X1162Y3283D01*
X1162Y3285D01*
X886Y3285D01*
G37*
D02*
G36*
X886Y3285D02*
X886Y3283D01*
X1162Y3283D01*
X1162Y3285D01*
X886Y3285D01*
G37*
D02*
G36*
X508Y3283D02*
X508Y3281D01*
X1162Y3281D01*
X1162Y3283D01*
X508Y3283D01*
G37*
D02*
G36*
X508Y3283D02*
X508Y3281D01*
X1162Y3281D01*
X1162Y3283D01*
X508Y3283D01*
G37*
D02*
G36*
X508Y3281D02*
X508Y3253D01*
X1062Y3253D01*
X1062Y3251D01*
X1068Y3251D01*
X1068Y3249D01*
X1072Y3249D01*
X1072Y3247D01*
X1076Y3247D01*
X1076Y3245D01*
X1078Y3245D01*
X1078Y3243D01*
X1082Y3243D01*
X1082Y3241D01*
X1084Y3241D01*
X1084Y3239D01*
X1086Y3239D01*
X1086Y3237D01*
X1088Y3237D01*
X1088Y3235D01*
X1090Y3235D01*
X1090Y3231D01*
X1092Y3231D01*
X1092Y3229D01*
X1094Y3229D01*
X1094Y3225D01*
X1096Y3225D01*
X1096Y3219D01*
X1098Y3219D01*
X1098Y3197D01*
X1096Y3197D01*
X1096Y3191D01*
X1094Y3191D01*
X1094Y3187D01*
X1092Y3187D01*
X1092Y3183D01*
X1090Y3183D01*
X1090Y3181D01*
X1088Y3181D01*
X1088Y3179D01*
X1086Y3179D01*
X1086Y3177D01*
X1084Y3177D01*
X1084Y3175D01*
X1082Y3175D01*
X1082Y3173D01*
X1080Y3173D01*
X1080Y3171D01*
X1078Y3171D01*
X1078Y3169D01*
X1074Y3169D01*
X1074Y3167D01*
X1070Y3167D01*
X1070Y3165D01*
X1066Y3165D01*
X1066Y3163D01*
X1056Y3163D01*
X1056Y3161D01*
X1162Y3161D01*
X1162Y3281D01*
X508Y3281D01*
G37*
D02*
G36*
X508Y3253D02*
X508Y3161D01*
X870Y3161D01*
X870Y3163D01*
X864Y3163D01*
X864Y3165D01*
X860Y3165D01*
X860Y3167D01*
X856Y3167D01*
X856Y3169D01*
X852Y3169D01*
X852Y3171D01*
X850Y3171D01*
X850Y3173D01*
X848Y3173D01*
X848Y3175D01*
X846Y3175D01*
X846Y3177D01*
X844Y3177D01*
X844Y3179D01*
X842Y3179D01*
X842Y3181D01*
X840Y3181D01*
X840Y3185D01*
X838Y3185D01*
X838Y3189D01*
X836Y3189D01*
X836Y3193D01*
X834Y3193D01*
X834Y3201D01*
X832Y3201D01*
X832Y3211D01*
X834Y3211D01*
X834Y3219D01*
X836Y3219D01*
X836Y3225D01*
X838Y3225D01*
X838Y3227D01*
X840Y3227D01*
X840Y3231D01*
X842Y3231D01*
X842Y3233D01*
X844Y3233D01*
X844Y3237D01*
X846Y3237D01*
X846Y3239D01*
X848Y3239D01*
X848Y3241D01*
X852Y3241D01*
X852Y3243D01*
X854Y3243D01*
X854Y3245D01*
X858Y3245D01*
X858Y3247D01*
X860Y3247D01*
X860Y3249D01*
X866Y3249D01*
X866Y3251D01*
X874Y3251D01*
X874Y3253D01*
X508Y3253D01*
G37*
D02*
G36*
X882Y3253D02*
X882Y3251D01*
X890Y3251D01*
X890Y3249D01*
X896Y3249D01*
X896Y3247D01*
X900Y3247D01*
X900Y3245D01*
X902Y3245D01*
X902Y3243D01*
X906Y3243D01*
X906Y3241D01*
X908Y3241D01*
X908Y3239D01*
X910Y3239D01*
X910Y3237D01*
X912Y3237D01*
X912Y3235D01*
X914Y3235D01*
X914Y3231D01*
X916Y3231D01*
X916Y3229D01*
X918Y3229D01*
X918Y3225D01*
X920Y3225D01*
X920Y3221D01*
X922Y3221D01*
X922Y3215D01*
X924Y3215D01*
X924Y3199D01*
X922Y3199D01*
X922Y3193D01*
X920Y3193D01*
X920Y3187D01*
X918Y3187D01*
X918Y3185D01*
X916Y3185D01*
X916Y3181D01*
X914Y3181D01*
X914Y3179D01*
X912Y3179D01*
X912Y3177D01*
X910Y3177D01*
X910Y3175D01*
X908Y3175D01*
X908Y3173D01*
X906Y3173D01*
X906Y3171D01*
X904Y3171D01*
X904Y3169D01*
X900Y3169D01*
X900Y3167D01*
X898Y3167D01*
X898Y3165D01*
X894Y3165D01*
X894Y3163D01*
X888Y3163D01*
X888Y3161D01*
X1050Y3161D01*
X1050Y3163D01*
X1042Y3163D01*
X1042Y3165D01*
X1036Y3165D01*
X1036Y3167D01*
X1032Y3167D01*
X1032Y3169D01*
X1028Y3169D01*
X1028Y3171D01*
X1026Y3171D01*
X1026Y3173D01*
X1024Y3173D01*
X1024Y3175D01*
X1022Y3175D01*
X1022Y3177D01*
X1020Y3177D01*
X1020Y3179D01*
X1018Y3179D01*
X1018Y3181D01*
X1016Y3181D01*
X1016Y3185D01*
X1014Y3185D01*
X1014Y3187D01*
X1012Y3187D01*
X1012Y3191D01*
X1010Y3191D01*
X1010Y3197D01*
X1008Y3197D01*
X1008Y3217D01*
X1010Y3217D01*
X1010Y3223D01*
X1012Y3223D01*
X1012Y3227D01*
X1014Y3227D01*
X1014Y3231D01*
X1016Y3231D01*
X1016Y3233D01*
X1018Y3233D01*
X1018Y3235D01*
X1020Y3235D01*
X1020Y3239D01*
X1022Y3239D01*
X1022Y3241D01*
X1026Y3241D01*
X1026Y3243D01*
X1028Y3243D01*
X1028Y3245D01*
X1030Y3245D01*
X1030Y3247D01*
X1034Y3247D01*
X1034Y3249D01*
X1038Y3249D01*
X1038Y3251D01*
X1044Y3251D01*
X1044Y3253D01*
X882Y3253D01*
G37*
D02*
G36*
X508Y3161D02*
X508Y3159D01*
X1162Y3159D01*
X1162Y3161D01*
X508Y3161D01*
G37*
D02*
G36*
X508Y3161D02*
X508Y3159D01*
X1162Y3159D01*
X1162Y3161D01*
X508Y3161D01*
G37*
D02*
G36*
X508Y3161D02*
X508Y3159D01*
X1162Y3159D01*
X1162Y3161D01*
X508Y3161D01*
G37*
D02*
G36*
X508Y3159D02*
X508Y3135D01*
X1060Y3135D01*
X1060Y3133D01*
X1066Y3133D01*
X1066Y3131D01*
X1072Y3131D01*
X1072Y3129D01*
X1074Y3129D01*
X1074Y3127D01*
X1078Y3127D01*
X1078Y3125D01*
X1080Y3125D01*
X1080Y3123D01*
X1084Y3123D01*
X1084Y3121D01*
X1086Y3121D01*
X1086Y3117D01*
X1088Y3117D01*
X1088Y3115D01*
X1090Y3115D01*
X1090Y3113D01*
X1092Y3113D01*
X1092Y3109D01*
X1094Y3109D01*
X1094Y3105D01*
X1096Y3105D01*
X1096Y3103D01*
X1144Y3103D01*
X1144Y3101D01*
X1158Y3101D01*
X1158Y3099D01*
X1160Y3099D01*
X1160Y3097D01*
X1162Y3097D01*
X1162Y3095D01*
X1164Y3095D01*
X1164Y3093D01*
X1166Y3093D01*
X1166Y3091D01*
X1168Y3091D01*
X1168Y3089D01*
X1170Y3089D01*
X1170Y3087D01*
X1172Y3087D01*
X1172Y3085D01*
X1174Y3085D01*
X1174Y3083D01*
X1176Y3083D01*
X1176Y3081D01*
X1178Y3081D01*
X1178Y3079D01*
X1180Y3079D01*
X1180Y3077D01*
X1182Y3077D01*
X1182Y3075D01*
X1184Y3075D01*
X1184Y3073D01*
X1186Y3073D01*
X1186Y3071D01*
X1188Y3071D01*
X1188Y3067D01*
X1190Y3067D01*
X1190Y2185D01*
X1188Y2185D01*
X1188Y2179D01*
X1186Y2179D01*
X1186Y2175D01*
X1184Y2175D01*
X1184Y2173D01*
X1182Y2173D01*
X1182Y2171D01*
X1180Y2171D01*
X1180Y2169D01*
X1178Y2169D01*
X1178Y2167D01*
X1176Y2167D01*
X1176Y2165D01*
X1174Y2165D01*
X1174Y2163D01*
X1172Y2163D01*
X1172Y2161D01*
X1170Y2161D01*
X1170Y2159D01*
X1168Y2159D01*
X1168Y2157D01*
X1166Y2157D01*
X1166Y2155D01*
X1164Y2155D01*
X1164Y2153D01*
X1162Y2153D01*
X1162Y2151D01*
X1160Y2151D01*
X1160Y2149D01*
X1158Y2149D01*
X1158Y2147D01*
X1152Y2147D01*
X1152Y2145D01*
X480Y2145D01*
X480Y2143D01*
X478Y2143D01*
X478Y2141D01*
X476Y2141D01*
X476Y2139D01*
X474Y2139D01*
X474Y2137D01*
X472Y2137D01*
X472Y2135D01*
X470Y2135D01*
X470Y2133D01*
X468Y2133D01*
X468Y2131D01*
X466Y2131D01*
X466Y1931D01*
X464Y1931D01*
X464Y1927D01*
X462Y1927D01*
X462Y1925D01*
X460Y1925D01*
X460Y1923D01*
X458Y1923D01*
X458Y1921D01*
X456Y1921D01*
X456Y1919D01*
X454Y1919D01*
X454Y1917D01*
X452Y1917D01*
X452Y1915D01*
X450Y1915D01*
X450Y1913D01*
X448Y1913D01*
X448Y1911D01*
X446Y1911D01*
X446Y1909D01*
X444Y1909D01*
X444Y1907D01*
X442Y1907D01*
X442Y1905D01*
X440Y1905D01*
X440Y1903D01*
X438Y1903D01*
X438Y1901D01*
X436Y1901D01*
X436Y1899D01*
X434Y1899D01*
X434Y1897D01*
X430Y1897D01*
X430Y1895D01*
X310Y1895D01*
X310Y1891D01*
X308Y1891D01*
X308Y1889D01*
X306Y1889D01*
X306Y1887D01*
X304Y1887D01*
X304Y1883D01*
X300Y1883D01*
X300Y1881D01*
X298Y1881D01*
X298Y1879D01*
X296Y1879D01*
X296Y1877D01*
X292Y1877D01*
X292Y1875D01*
X290Y1875D01*
X290Y1873D01*
X284Y1873D01*
X284Y1871D01*
X280Y1871D01*
X280Y1851D01*
X286Y1851D01*
X286Y1849D01*
X292Y1849D01*
X292Y1847D01*
X294Y1847D01*
X294Y1845D01*
X298Y1845D01*
X298Y1843D01*
X300Y1843D01*
X300Y1841D01*
X302Y1841D01*
X302Y1839D01*
X304Y1839D01*
X304Y1837D01*
X306Y1837D01*
X306Y1835D01*
X308Y1835D01*
X308Y1831D01*
X310Y1831D01*
X310Y1827D01*
X312Y1827D01*
X312Y1823D01*
X314Y1823D01*
X314Y1813D01*
X316Y1813D01*
X316Y1809D01*
X314Y1809D01*
X314Y1801D01*
X312Y1801D01*
X312Y1795D01*
X310Y1795D01*
X310Y1791D01*
X308Y1791D01*
X308Y1789D01*
X306Y1789D01*
X306Y1787D01*
X304Y1787D01*
X304Y1783D01*
X300Y1783D01*
X300Y1781D01*
X298Y1781D01*
X298Y1779D01*
X296Y1779D01*
X296Y1777D01*
X292Y1777D01*
X292Y1775D01*
X290Y1775D01*
X290Y1773D01*
X284Y1773D01*
X284Y1771D01*
X280Y1771D01*
X280Y1751D01*
X286Y1751D01*
X286Y1749D01*
X292Y1749D01*
X292Y1747D01*
X294Y1747D01*
X294Y1745D01*
X298Y1745D01*
X298Y1743D01*
X300Y1743D01*
X300Y1741D01*
X302Y1741D01*
X302Y1739D01*
X304Y1739D01*
X304Y1737D01*
X306Y1737D01*
X306Y1735D01*
X308Y1735D01*
X308Y1731D01*
X310Y1731D01*
X310Y1727D01*
X312Y1727D01*
X312Y1723D01*
X314Y1723D01*
X314Y1713D01*
X316Y1713D01*
X316Y1709D01*
X314Y1709D01*
X314Y1701D01*
X312Y1701D01*
X312Y1695D01*
X310Y1695D01*
X310Y1691D01*
X308Y1691D01*
X308Y1689D01*
X306Y1689D01*
X306Y1687D01*
X304Y1687D01*
X304Y1683D01*
X300Y1683D01*
X300Y1681D01*
X298Y1681D01*
X298Y1679D01*
X296Y1679D01*
X296Y1677D01*
X292Y1677D01*
X292Y1675D01*
X290Y1675D01*
X290Y1673D01*
X284Y1673D01*
X284Y1671D01*
X280Y1671D01*
X280Y1651D01*
X286Y1651D01*
X286Y1649D01*
X292Y1649D01*
X292Y1647D01*
X294Y1647D01*
X294Y1645D01*
X298Y1645D01*
X298Y1643D01*
X300Y1643D01*
X300Y1641D01*
X302Y1641D01*
X302Y1639D01*
X304Y1639D01*
X304Y1637D01*
X306Y1637D01*
X306Y1635D01*
X308Y1635D01*
X308Y1631D01*
X310Y1631D01*
X310Y1627D01*
X312Y1627D01*
X312Y1623D01*
X314Y1623D01*
X314Y1613D01*
X316Y1613D01*
X316Y1609D01*
X314Y1609D01*
X314Y1601D01*
X312Y1601D01*
X312Y1595D01*
X310Y1595D01*
X310Y1591D01*
X308Y1591D01*
X308Y1589D01*
X306Y1589D01*
X306Y1587D01*
X304Y1587D01*
X304Y1583D01*
X300Y1583D01*
X300Y1581D01*
X298Y1581D01*
X298Y1579D01*
X296Y1579D01*
X296Y1577D01*
X292Y1577D01*
X292Y1575D01*
X290Y1575D01*
X290Y1573D01*
X284Y1573D01*
X284Y1571D01*
X280Y1571D01*
X280Y1551D01*
X286Y1551D01*
X286Y1549D01*
X292Y1549D01*
X292Y1547D01*
X294Y1547D01*
X294Y1545D01*
X298Y1545D01*
X298Y1543D01*
X300Y1543D01*
X300Y1541D01*
X302Y1541D01*
X302Y1539D01*
X304Y1539D01*
X304Y1537D01*
X306Y1537D01*
X306Y1535D01*
X308Y1535D01*
X308Y1531D01*
X310Y1531D01*
X310Y1527D01*
X312Y1527D01*
X312Y1523D01*
X314Y1523D01*
X314Y1513D01*
X316Y1513D01*
X316Y1509D01*
X314Y1509D01*
X314Y1501D01*
X312Y1501D01*
X312Y1495D01*
X310Y1495D01*
X310Y1491D01*
X308Y1491D01*
X308Y1489D01*
X306Y1489D01*
X306Y1487D01*
X304Y1487D01*
X304Y1483D01*
X300Y1483D01*
X300Y1481D01*
X298Y1481D01*
X298Y1479D01*
X296Y1479D01*
X296Y1477D01*
X292Y1477D01*
X292Y1475D01*
X290Y1475D01*
X290Y1473D01*
X284Y1473D01*
X284Y1471D01*
X280Y1471D01*
X280Y1451D01*
X286Y1451D01*
X286Y1449D01*
X292Y1449D01*
X292Y1447D01*
X294Y1447D01*
X294Y1445D01*
X298Y1445D01*
X298Y1443D01*
X300Y1443D01*
X300Y1441D01*
X302Y1441D01*
X302Y1439D01*
X304Y1439D01*
X304Y1437D01*
X306Y1437D01*
X306Y1435D01*
X308Y1435D01*
X308Y1431D01*
X310Y1431D01*
X310Y1427D01*
X312Y1427D01*
X312Y1423D01*
X314Y1423D01*
X314Y1413D01*
X316Y1413D01*
X316Y1409D01*
X314Y1409D01*
X314Y1401D01*
X312Y1401D01*
X312Y1395D01*
X310Y1395D01*
X310Y1391D01*
X308Y1391D01*
X308Y1389D01*
X306Y1389D01*
X306Y1387D01*
X304Y1387D01*
X304Y1383D01*
X300Y1383D01*
X300Y1381D01*
X298Y1381D01*
X298Y1379D01*
X296Y1379D01*
X296Y1377D01*
X292Y1377D01*
X292Y1375D01*
X290Y1375D01*
X290Y1373D01*
X284Y1373D01*
X284Y1371D01*
X280Y1371D01*
X280Y1351D01*
X286Y1351D01*
X286Y1349D01*
X292Y1349D01*
X292Y1347D01*
X294Y1347D01*
X294Y1345D01*
X298Y1345D01*
X298Y1343D01*
X300Y1343D01*
X300Y1341D01*
X302Y1341D01*
X302Y1339D01*
X304Y1339D01*
X304Y1337D01*
X306Y1337D01*
X306Y1335D01*
X308Y1335D01*
X308Y1331D01*
X310Y1331D01*
X310Y1327D01*
X312Y1327D01*
X312Y1323D01*
X314Y1323D01*
X314Y1313D01*
X316Y1313D01*
X316Y1309D01*
X314Y1309D01*
X314Y1301D01*
X312Y1301D01*
X312Y1295D01*
X310Y1295D01*
X310Y1291D01*
X308Y1291D01*
X308Y1289D01*
X306Y1289D01*
X306Y1287D01*
X304Y1287D01*
X304Y1283D01*
X300Y1283D01*
X300Y1281D01*
X298Y1281D01*
X298Y1279D01*
X296Y1279D01*
X296Y1277D01*
X292Y1277D01*
X292Y1275D01*
X290Y1275D01*
X290Y1273D01*
X284Y1273D01*
X284Y1271D01*
X280Y1271D01*
X280Y1263D01*
X518Y1263D01*
X518Y1265D01*
X514Y1265D01*
X514Y1267D01*
X510Y1267D01*
X510Y1269D01*
X508Y1269D01*
X508Y1271D01*
X506Y1271D01*
X506Y1273D01*
X504Y1273D01*
X504Y1277D01*
X502Y1277D01*
X502Y1283D01*
X500Y1283D01*
X500Y1291D01*
X502Y1291D01*
X502Y1297D01*
X504Y1297D01*
X504Y1299D01*
X506Y1299D01*
X506Y1301D01*
X508Y1301D01*
X508Y1303D01*
X510Y1303D01*
X510Y1305D01*
X512Y1305D01*
X512Y2089D01*
X514Y2089D01*
X514Y2093D01*
X516Y2093D01*
X516Y2095D01*
X518Y2095D01*
X518Y2097D01*
X520Y2097D01*
X520Y2099D01*
X522Y2099D01*
X522Y2101D01*
X524Y2101D01*
X524Y2103D01*
X526Y2103D01*
X526Y2105D01*
X528Y2105D01*
X528Y2107D01*
X530Y2107D01*
X530Y2109D01*
X532Y2109D01*
X532Y2111D01*
X534Y2111D01*
X534Y2113D01*
X536Y2113D01*
X536Y2115D01*
X538Y2115D01*
X538Y2117D01*
X540Y2117D01*
X540Y2119D01*
X542Y2119D01*
X542Y2121D01*
X544Y2121D01*
X544Y2123D01*
X1170Y2123D01*
X1170Y2125D01*
X1172Y2125D01*
X1172Y2127D01*
X1174Y2127D01*
X1174Y2129D01*
X1176Y2129D01*
X1176Y2131D01*
X1178Y2131D01*
X1178Y2133D01*
X1180Y2133D01*
X1180Y2135D01*
X1182Y2135D01*
X1182Y2137D01*
X1184Y2137D01*
X1184Y2139D01*
X1186Y2139D01*
X1186Y2141D01*
X1188Y2141D01*
X1188Y2143D01*
X1190Y2143D01*
X1190Y2145D01*
X1192Y2145D01*
X1192Y2147D01*
X1194Y2147D01*
X1194Y2149D01*
X1196Y2149D01*
X1196Y2151D01*
X1198Y2151D01*
X1198Y2153D01*
X1200Y2153D01*
X1200Y2155D01*
X1202Y2155D01*
X1202Y2157D01*
X1204Y2157D01*
X1204Y2159D01*
X1206Y2159D01*
X1206Y2161D01*
X1208Y2161D01*
X1208Y2163D01*
X1210Y2163D01*
X1210Y2165D01*
X1212Y2165D01*
X1212Y2167D01*
X1214Y2167D01*
X1214Y2169D01*
X1216Y2169D01*
X1216Y2171D01*
X1218Y2171D01*
X1218Y2173D01*
X1220Y2173D01*
X1220Y2175D01*
X1222Y2175D01*
X1222Y2177D01*
X1224Y2177D01*
X1224Y2179D01*
X1226Y2179D01*
X1226Y2181D01*
X1228Y2181D01*
X1228Y2183D01*
X1230Y2183D01*
X1230Y2185D01*
X1232Y2185D01*
X1232Y2187D01*
X1234Y2187D01*
X1234Y2189D01*
X1236Y2189D01*
X1236Y2569D01*
X1238Y2569D01*
X1238Y3057D01*
X1236Y3057D01*
X1236Y3059D01*
X1234Y3059D01*
X1234Y3061D01*
X1232Y3061D01*
X1232Y3063D01*
X1230Y3063D01*
X1230Y3065D01*
X1228Y3065D01*
X1228Y3067D01*
X1226Y3067D01*
X1226Y3069D01*
X1224Y3069D01*
X1224Y3071D01*
X1222Y3071D01*
X1222Y3073D01*
X1220Y3073D01*
X1220Y3075D01*
X1218Y3075D01*
X1218Y3077D01*
X1216Y3077D01*
X1216Y3079D01*
X1214Y3079D01*
X1214Y3081D01*
X1212Y3081D01*
X1212Y3083D01*
X1210Y3083D01*
X1210Y3085D01*
X1208Y3085D01*
X1208Y3087D01*
X1206Y3087D01*
X1206Y3089D01*
X1204Y3089D01*
X1204Y3091D01*
X1202Y3091D01*
X1202Y3093D01*
X1200Y3093D01*
X1200Y3095D01*
X1198Y3095D01*
X1198Y3097D01*
X1196Y3097D01*
X1196Y3099D01*
X1194Y3099D01*
X1194Y3101D01*
X1192Y3101D01*
X1192Y3103D01*
X1190Y3103D01*
X1190Y3105D01*
X1188Y3105D01*
X1188Y3107D01*
X1186Y3107D01*
X1186Y3109D01*
X1184Y3109D01*
X1184Y3111D01*
X1182Y3111D01*
X1182Y3113D01*
X1180Y3113D01*
X1180Y3115D01*
X1178Y3115D01*
X1178Y3117D01*
X1176Y3117D01*
X1176Y3119D01*
X1174Y3119D01*
X1174Y3121D01*
X1172Y3121D01*
X1172Y3123D01*
X1170Y3123D01*
X1170Y3125D01*
X1168Y3125D01*
X1168Y3127D01*
X1166Y3127D01*
X1166Y3129D01*
X1164Y3129D01*
X1164Y3131D01*
X1162Y3131D01*
X1162Y3159D01*
X508Y3159D01*
G37*
D02*
G36*
X508Y3135D02*
X508Y3133D01*
X888Y3133D01*
X888Y3131D01*
X894Y3131D01*
X894Y3129D01*
X898Y3129D01*
X898Y3127D01*
X902Y3127D01*
X902Y3125D01*
X904Y3125D01*
X904Y3123D01*
X906Y3123D01*
X906Y3121D01*
X910Y3121D01*
X910Y3119D01*
X912Y3119D01*
X912Y3115D01*
X914Y3115D01*
X914Y3113D01*
X916Y3113D01*
X916Y3111D01*
X918Y3111D01*
X918Y3107D01*
X920Y3107D01*
X920Y3103D01*
X922Y3103D01*
X922Y3097D01*
X924Y3097D01*
X924Y3079D01*
X922Y3079D01*
X922Y3073D01*
X920Y3073D01*
X920Y3069D01*
X918Y3069D01*
X918Y3065D01*
X916Y3065D01*
X916Y3063D01*
X914Y3063D01*
X914Y3061D01*
X912Y3061D01*
X912Y3057D01*
X910Y3057D01*
X910Y3055D01*
X906Y3055D01*
X906Y3053D01*
X904Y3053D01*
X904Y3051D01*
X902Y3051D01*
X902Y3049D01*
X898Y3049D01*
X898Y3047D01*
X894Y3047D01*
X894Y3045D01*
X888Y3045D01*
X888Y3043D01*
X1046Y3043D01*
X1046Y3045D01*
X1040Y3045D01*
X1040Y3047D01*
X1034Y3047D01*
X1034Y3049D01*
X1032Y3049D01*
X1032Y3051D01*
X1028Y3051D01*
X1028Y3053D01*
X1026Y3053D01*
X1026Y3055D01*
X1024Y3055D01*
X1024Y3057D01*
X1022Y3057D01*
X1022Y3059D01*
X1020Y3059D01*
X1020Y3061D01*
X1018Y3061D01*
X1018Y3063D01*
X1016Y3063D01*
X1016Y3065D01*
X1014Y3065D01*
X1014Y3069D01*
X1012Y3069D01*
X1012Y3073D01*
X1010Y3073D01*
X1010Y3079D01*
X1008Y3079D01*
X1008Y3099D01*
X1010Y3099D01*
X1010Y3105D01*
X1012Y3105D01*
X1012Y3109D01*
X1014Y3109D01*
X1014Y3113D01*
X1016Y3113D01*
X1016Y3115D01*
X1018Y3115D01*
X1018Y3117D01*
X1020Y3117D01*
X1020Y3119D01*
X1022Y3119D01*
X1022Y3121D01*
X1024Y3121D01*
X1024Y3123D01*
X1026Y3123D01*
X1026Y3125D01*
X1028Y3125D01*
X1028Y3127D01*
X1032Y3127D01*
X1032Y3129D01*
X1036Y3129D01*
X1036Y3131D01*
X1040Y3131D01*
X1040Y3133D01*
X1046Y3133D01*
X1046Y3135D01*
X508Y3135D01*
G37*
D02*
G36*
X508Y3133D02*
X508Y3079D01*
X506Y3079D01*
X506Y3073D01*
X504Y3073D01*
X504Y3069D01*
X502Y3069D01*
X502Y3065D01*
X500Y3065D01*
X500Y3063D01*
X498Y3063D01*
X498Y3061D01*
X496Y3061D01*
X496Y3059D01*
X494Y3059D01*
X494Y3057D01*
X490Y3057D01*
X490Y3055D01*
X486Y3055D01*
X486Y3053D01*
X476Y3053D01*
X476Y3051D01*
X426Y3051D01*
X426Y3049D01*
X424Y3049D01*
X424Y3047D01*
X420Y3047D01*
X420Y3045D01*
X416Y3045D01*
X416Y3043D01*
X412Y3043D01*
X412Y3041D01*
X404Y3041D01*
X404Y3039D01*
X734Y3039D01*
X734Y3069D01*
X736Y3069D01*
X736Y3071D01*
X738Y3071D01*
X738Y3075D01*
X740Y3075D01*
X740Y3077D01*
X742Y3077D01*
X742Y3079D01*
X744Y3079D01*
X744Y3081D01*
X746Y3081D01*
X746Y3083D01*
X750Y3083D01*
X750Y3085D01*
X752Y3085D01*
X752Y3087D01*
X754Y3087D01*
X754Y3089D01*
X756Y3089D01*
X756Y3091D01*
X758Y3091D01*
X758Y3093D01*
X760Y3093D01*
X760Y3095D01*
X762Y3095D01*
X762Y3097D01*
X764Y3097D01*
X764Y3099D01*
X766Y3099D01*
X766Y3101D01*
X782Y3101D01*
X782Y3103D01*
X836Y3103D01*
X836Y3105D01*
X838Y3105D01*
X838Y3109D01*
X840Y3109D01*
X840Y3113D01*
X842Y3113D01*
X842Y3115D01*
X844Y3115D01*
X844Y3117D01*
X846Y3117D01*
X846Y3119D01*
X848Y3119D01*
X848Y3121D01*
X850Y3121D01*
X850Y3123D01*
X852Y3123D01*
X852Y3125D01*
X854Y3125D01*
X854Y3127D01*
X858Y3127D01*
X858Y3129D01*
X862Y3129D01*
X862Y3131D01*
X868Y3131D01*
X868Y3133D01*
X508Y3133D01*
G37*
D02*
G36*
X40Y3127D02*
X40Y3039D01*
X394Y3039D01*
X394Y3041D01*
X386Y3041D01*
X386Y3043D01*
X382Y3043D01*
X382Y3045D01*
X378Y3045D01*
X378Y3047D01*
X374Y3047D01*
X374Y3049D01*
X372Y3049D01*
X372Y3051D01*
X370Y3051D01*
X370Y3053D01*
X368Y3053D01*
X368Y3055D01*
X366Y3055D01*
X366Y3057D01*
X364Y3057D01*
X364Y3061D01*
X362Y3061D01*
X362Y3063D01*
X360Y3063D01*
X360Y3067D01*
X358Y3067D01*
X358Y3073D01*
X356Y3073D01*
X356Y3095D01*
X358Y3095D01*
X358Y3101D01*
X360Y3101D01*
X360Y3103D01*
X362Y3103D01*
X362Y3107D01*
X364Y3107D01*
X364Y3109D01*
X366Y3109D01*
X366Y3111D01*
X368Y3111D01*
X368Y3115D01*
X372Y3115D01*
X372Y3117D01*
X374Y3117D01*
X374Y3119D01*
X376Y3119D01*
X376Y3121D01*
X380Y3121D01*
X380Y3123D01*
X384Y3123D01*
X384Y3125D01*
X390Y3125D01*
X390Y3127D01*
X40Y3127D01*
G37*
D02*
G36*
X782Y3071D02*
X782Y3069D01*
X778Y3069D01*
X778Y3067D01*
X776Y3067D01*
X776Y3065D01*
X774Y3065D01*
X774Y3063D01*
X772Y3063D01*
X772Y3061D01*
X770Y3061D01*
X770Y3059D01*
X768Y3059D01*
X768Y3057D01*
X766Y3057D01*
X766Y3043D01*
X868Y3043D01*
X868Y3045D01*
X862Y3045D01*
X862Y3047D01*
X858Y3047D01*
X858Y3049D01*
X854Y3049D01*
X854Y3051D01*
X852Y3051D01*
X852Y3053D01*
X850Y3053D01*
X850Y3055D01*
X848Y3055D01*
X848Y3057D01*
X846Y3057D01*
X846Y3059D01*
X844Y3059D01*
X844Y3061D01*
X842Y3061D01*
X842Y3063D01*
X840Y3063D01*
X840Y3067D01*
X838Y3067D01*
X838Y3071D01*
X782Y3071D01*
G37*
D02*
G36*
X1094Y3071D02*
X1094Y3069D01*
X1092Y3069D01*
X1092Y3065D01*
X1090Y3065D01*
X1090Y3063D01*
X1088Y3063D01*
X1088Y3059D01*
X1086Y3059D01*
X1086Y3057D01*
X1084Y3057D01*
X1084Y3055D01*
X1080Y3055D01*
X1080Y3053D01*
X1078Y3053D01*
X1078Y3051D01*
X1076Y3051D01*
X1076Y3049D01*
X1072Y3049D01*
X1072Y3047D01*
X1066Y3047D01*
X1066Y3045D01*
X1060Y3045D01*
X1060Y3043D01*
X1158Y3043D01*
X1158Y3057D01*
X1156Y3057D01*
X1156Y3059D01*
X1154Y3059D01*
X1154Y3061D01*
X1152Y3061D01*
X1152Y3063D01*
X1150Y3063D01*
X1150Y3065D01*
X1148Y3065D01*
X1148Y3067D01*
X1146Y3067D01*
X1146Y3069D01*
X1144Y3069D01*
X1144Y3071D01*
X1094Y3071D01*
G37*
D02*
G36*
X766Y3043D02*
X766Y3041D01*
X1158Y3041D01*
X1158Y3043D01*
X766Y3043D01*
G37*
D02*
G36*
X766Y3043D02*
X766Y3041D01*
X1158Y3041D01*
X1158Y3043D01*
X766Y3043D01*
G37*
D02*
G36*
X766Y3043D02*
X766Y3041D01*
X1158Y3041D01*
X1158Y3043D01*
X766Y3043D01*
G37*
D02*
G36*
X766Y3041D02*
X766Y3017D01*
X1054Y3017D01*
X1054Y3015D01*
X1066Y3015D01*
X1066Y3013D01*
X1070Y3013D01*
X1070Y3011D01*
X1074Y3011D01*
X1074Y3009D01*
X1078Y3009D01*
X1078Y3007D01*
X1080Y3007D01*
X1080Y3005D01*
X1082Y3005D01*
X1082Y3003D01*
X1084Y3003D01*
X1084Y3001D01*
X1086Y3001D01*
X1086Y2999D01*
X1088Y2999D01*
X1088Y2997D01*
X1090Y2997D01*
X1090Y2995D01*
X1092Y2995D01*
X1092Y2991D01*
X1094Y2991D01*
X1094Y2987D01*
X1096Y2987D01*
X1096Y2981D01*
X1098Y2981D01*
X1098Y2959D01*
X1096Y2959D01*
X1096Y2953D01*
X1094Y2953D01*
X1094Y2949D01*
X1092Y2949D01*
X1092Y2947D01*
X1090Y2947D01*
X1090Y2943D01*
X1088Y2943D01*
X1088Y2941D01*
X1086Y2941D01*
X1086Y2939D01*
X1084Y2939D01*
X1084Y2937D01*
X1082Y2937D01*
X1082Y2935D01*
X1080Y2935D01*
X1080Y2933D01*
X1076Y2933D01*
X1076Y2931D01*
X1072Y2931D01*
X1072Y2929D01*
X1068Y2929D01*
X1068Y2927D01*
X1062Y2927D01*
X1062Y2925D01*
X1158Y2925D01*
X1158Y3041D01*
X766Y3041D01*
G37*
D02*
G36*
X40Y3039D02*
X40Y3037D01*
X734Y3037D01*
X734Y3039D01*
X40Y3039D01*
G37*
D02*
G36*
X40Y3039D02*
X40Y3037D01*
X734Y3037D01*
X734Y3039D01*
X40Y3039D01*
G37*
D02*
G36*
X40Y3037D02*
X40Y3003D01*
X658Y3003D01*
X658Y3001D01*
X664Y3001D01*
X664Y2999D01*
X668Y2999D01*
X668Y2997D01*
X670Y2997D01*
X670Y2995D01*
X674Y2995D01*
X674Y2993D01*
X676Y2993D01*
X676Y2991D01*
X678Y2991D01*
X678Y2989D01*
X680Y2989D01*
X680Y2987D01*
X682Y2987D01*
X682Y2983D01*
X684Y2983D01*
X684Y2981D01*
X686Y2981D01*
X686Y2977D01*
X688Y2977D01*
X688Y2971D01*
X690Y2971D01*
X690Y2951D01*
X688Y2951D01*
X688Y2947D01*
X686Y2947D01*
X686Y2943D01*
X684Y2943D01*
X684Y2939D01*
X682Y2939D01*
X682Y2937D01*
X680Y2937D01*
X680Y2935D01*
X678Y2935D01*
X678Y2933D01*
X676Y2933D01*
X676Y2931D01*
X674Y2931D01*
X674Y2929D01*
X672Y2929D01*
X672Y2927D01*
X668Y2927D01*
X668Y2925D01*
X666Y2925D01*
X666Y2923D01*
X660Y2923D01*
X660Y2921D01*
X734Y2921D01*
X734Y3037D01*
X40Y3037D01*
G37*
D02*
G36*
X766Y3017D02*
X766Y3015D01*
X888Y3015D01*
X888Y3013D01*
X894Y3013D01*
X894Y3011D01*
X898Y3011D01*
X898Y3009D01*
X900Y3009D01*
X900Y3007D01*
X904Y3007D01*
X904Y3005D01*
X906Y3005D01*
X906Y3003D01*
X908Y3003D01*
X908Y3001D01*
X910Y3001D01*
X910Y2999D01*
X912Y2999D01*
X912Y2997D01*
X914Y2997D01*
X914Y2995D01*
X916Y2995D01*
X916Y2991D01*
X918Y2991D01*
X918Y2989D01*
X920Y2989D01*
X920Y2983D01*
X922Y2983D01*
X922Y2977D01*
X924Y2977D01*
X924Y2961D01*
X922Y2961D01*
X922Y2955D01*
X920Y2955D01*
X920Y2951D01*
X918Y2951D01*
X918Y2947D01*
X916Y2947D01*
X916Y2945D01*
X914Y2945D01*
X914Y2941D01*
X912Y2941D01*
X912Y2939D01*
X910Y2939D01*
X910Y2937D01*
X908Y2937D01*
X908Y2935D01*
X906Y2935D01*
X906Y2933D01*
X902Y2933D01*
X902Y2931D01*
X900Y2931D01*
X900Y2929D01*
X896Y2929D01*
X896Y2927D01*
X890Y2927D01*
X890Y2925D01*
X1044Y2925D01*
X1044Y2927D01*
X1038Y2927D01*
X1038Y2929D01*
X1034Y2929D01*
X1034Y2931D01*
X1030Y2931D01*
X1030Y2933D01*
X1028Y2933D01*
X1028Y2935D01*
X1026Y2935D01*
X1026Y2937D01*
X1022Y2937D01*
X1022Y2939D01*
X1020Y2939D01*
X1020Y2943D01*
X1018Y2943D01*
X1018Y2945D01*
X1016Y2945D01*
X1016Y2947D01*
X1014Y2947D01*
X1014Y2951D01*
X1012Y2951D01*
X1012Y2955D01*
X1010Y2955D01*
X1010Y2961D01*
X1008Y2961D01*
X1008Y2981D01*
X1010Y2981D01*
X1010Y2985D01*
X1012Y2985D01*
X1012Y2991D01*
X1014Y2991D01*
X1014Y2993D01*
X1016Y2993D01*
X1016Y2997D01*
X1018Y2997D01*
X1018Y2999D01*
X1020Y2999D01*
X1020Y3001D01*
X1022Y3001D01*
X1022Y3003D01*
X1024Y3003D01*
X1024Y3005D01*
X1026Y3005D01*
X1026Y3007D01*
X1030Y3007D01*
X1030Y3009D01*
X1032Y3009D01*
X1032Y3011D01*
X1036Y3011D01*
X1036Y3013D01*
X1042Y3013D01*
X1042Y3015D01*
X1052Y3015D01*
X1052Y3017D01*
X766Y3017D01*
G37*
D02*
G36*
X766Y3015D02*
X766Y2923D01*
X876Y2923D01*
X876Y2925D01*
X866Y2925D01*
X866Y2927D01*
X860Y2927D01*
X860Y2929D01*
X858Y2929D01*
X858Y2931D01*
X854Y2931D01*
X854Y2933D01*
X852Y2933D01*
X852Y2935D01*
X850Y2935D01*
X850Y2937D01*
X846Y2937D01*
X846Y2939D01*
X844Y2939D01*
X844Y2943D01*
X842Y2943D01*
X842Y2945D01*
X840Y2945D01*
X840Y2949D01*
X838Y2949D01*
X838Y2951D01*
X836Y2951D01*
X836Y2957D01*
X834Y2957D01*
X834Y2965D01*
X832Y2965D01*
X832Y2975D01*
X834Y2975D01*
X834Y2983D01*
X836Y2983D01*
X836Y2987D01*
X838Y2987D01*
X838Y2991D01*
X840Y2991D01*
X840Y2995D01*
X842Y2995D01*
X842Y2997D01*
X844Y2997D01*
X844Y2999D01*
X846Y2999D01*
X846Y3001D01*
X848Y3001D01*
X848Y3003D01*
X850Y3003D01*
X850Y3005D01*
X852Y3005D01*
X852Y3007D01*
X856Y3007D01*
X856Y3009D01*
X860Y3009D01*
X860Y3011D01*
X864Y3011D01*
X864Y3013D01*
X870Y3013D01*
X870Y3015D01*
X766Y3015D01*
G37*
D02*
G36*
X40Y3003D02*
X40Y2979D01*
X132Y2979D01*
X132Y2977D01*
X612Y2977D01*
X612Y2981D01*
X614Y2981D01*
X614Y2983D01*
X616Y2983D01*
X616Y2987D01*
X618Y2987D01*
X618Y2989D01*
X620Y2989D01*
X620Y2991D01*
X622Y2991D01*
X622Y2993D01*
X624Y2993D01*
X624Y2995D01*
X628Y2995D01*
X628Y2997D01*
X632Y2997D01*
X632Y2999D01*
X634Y2999D01*
X634Y3001D01*
X640Y3001D01*
X640Y3003D01*
X40Y3003D01*
G37*
D02*
G36*
X40Y2979D02*
X40Y2969D01*
X60Y2969D01*
X60Y2971D01*
X62Y2971D01*
X62Y2973D01*
X64Y2973D01*
X64Y2975D01*
X66Y2975D01*
X66Y2977D01*
X74Y2977D01*
X74Y2979D01*
X40Y2979D01*
G37*
D02*
G36*
X80Y2947D02*
X80Y2945D01*
X78Y2945D01*
X78Y2943D01*
X76Y2943D01*
X76Y2939D01*
X74Y2939D01*
X74Y2937D01*
X72Y2937D01*
X72Y2935D01*
X70Y2935D01*
X70Y2933D01*
X68Y2933D01*
X68Y2931D01*
X66Y2931D01*
X66Y2843D01*
X356Y2843D01*
X356Y2945D01*
X118Y2945D01*
X118Y2947D01*
X80Y2947D01*
G37*
D02*
G36*
X444Y2945D02*
X444Y2921D01*
X638Y2921D01*
X638Y2923D01*
X634Y2923D01*
X634Y2925D01*
X630Y2925D01*
X630Y2927D01*
X626Y2927D01*
X626Y2929D01*
X624Y2929D01*
X624Y2931D01*
X622Y2931D01*
X622Y2933D01*
X620Y2933D01*
X620Y2935D01*
X618Y2935D01*
X618Y2937D01*
X616Y2937D01*
X616Y2939D01*
X614Y2939D01*
X614Y2943D01*
X612Y2943D01*
X612Y2945D01*
X444Y2945D01*
G37*
D02*
G36*
X882Y2925D02*
X882Y2923D01*
X1158Y2923D01*
X1158Y2925D01*
X882Y2925D01*
G37*
D02*
G36*
X882Y2925D02*
X882Y2923D01*
X1158Y2923D01*
X1158Y2925D01*
X882Y2925D01*
G37*
D02*
G36*
X766Y2923D02*
X766Y2921D01*
X1158Y2921D01*
X1158Y2923D01*
X766Y2923D01*
G37*
D02*
G36*
X766Y2923D02*
X766Y2921D01*
X1158Y2921D01*
X1158Y2923D01*
X766Y2923D01*
G37*
D02*
G36*
X444Y2921D02*
X444Y2919D01*
X734Y2919D01*
X734Y2921D01*
X444Y2921D01*
G37*
D02*
G36*
X444Y2921D02*
X444Y2919D01*
X734Y2919D01*
X734Y2921D01*
X444Y2921D01*
G37*
D02*
G36*
X766Y2921D02*
X766Y2897D01*
X1064Y2897D01*
X1064Y2895D01*
X1070Y2895D01*
X1070Y2893D01*
X1074Y2893D01*
X1074Y2891D01*
X1076Y2891D01*
X1076Y2889D01*
X1080Y2889D01*
X1080Y2887D01*
X1082Y2887D01*
X1082Y2885D01*
X1084Y2885D01*
X1084Y2883D01*
X1086Y2883D01*
X1086Y2881D01*
X1088Y2881D01*
X1088Y2879D01*
X1090Y2879D01*
X1090Y2875D01*
X1092Y2875D01*
X1092Y2873D01*
X1094Y2873D01*
X1094Y2869D01*
X1096Y2869D01*
X1096Y2863D01*
X1098Y2863D01*
X1098Y2841D01*
X1096Y2841D01*
X1096Y2835D01*
X1094Y2835D01*
X1094Y2831D01*
X1092Y2831D01*
X1092Y2827D01*
X1090Y2827D01*
X1090Y2825D01*
X1088Y2825D01*
X1088Y2823D01*
X1086Y2823D01*
X1086Y2821D01*
X1084Y2821D01*
X1084Y2819D01*
X1082Y2819D01*
X1082Y2817D01*
X1080Y2817D01*
X1080Y2815D01*
X1076Y2815D01*
X1076Y2813D01*
X1074Y2813D01*
X1074Y2811D01*
X1070Y2811D01*
X1070Y2809D01*
X1064Y2809D01*
X1064Y2807D01*
X1158Y2807D01*
X1158Y2921D01*
X766Y2921D01*
G37*
D02*
G36*
X444Y2919D02*
X444Y2843D01*
X734Y2843D01*
X734Y2919D01*
X444Y2919D01*
G37*
D02*
G36*
X766Y2897D02*
X766Y2807D01*
X868Y2807D01*
X868Y2809D01*
X862Y2809D01*
X862Y2811D01*
X858Y2811D01*
X858Y2813D01*
X856Y2813D01*
X856Y2815D01*
X852Y2815D01*
X852Y2817D01*
X850Y2817D01*
X850Y2819D01*
X848Y2819D01*
X848Y2821D01*
X846Y2821D01*
X846Y2823D01*
X844Y2823D01*
X844Y2825D01*
X842Y2825D01*
X842Y2827D01*
X840Y2827D01*
X840Y2831D01*
X838Y2831D01*
X838Y2835D01*
X836Y2835D01*
X836Y2839D01*
X834Y2839D01*
X834Y2847D01*
X832Y2847D01*
X832Y2857D01*
X834Y2857D01*
X834Y2865D01*
X836Y2865D01*
X836Y2871D01*
X838Y2871D01*
X838Y2873D01*
X840Y2873D01*
X840Y2877D01*
X842Y2877D01*
X842Y2879D01*
X844Y2879D01*
X844Y2881D01*
X846Y2881D01*
X846Y2885D01*
X850Y2885D01*
X850Y2887D01*
X852Y2887D01*
X852Y2889D01*
X854Y2889D01*
X854Y2891D01*
X858Y2891D01*
X858Y2893D01*
X862Y2893D01*
X862Y2895D01*
X866Y2895D01*
X866Y2897D01*
X766Y2897D01*
G37*
D02*
G36*
X890Y2897D02*
X890Y2895D01*
X896Y2895D01*
X896Y2893D01*
X900Y2893D01*
X900Y2891D01*
X902Y2891D01*
X902Y2889D01*
X906Y2889D01*
X906Y2887D01*
X908Y2887D01*
X908Y2885D01*
X910Y2885D01*
X910Y2883D01*
X912Y2883D01*
X912Y2881D01*
X914Y2881D01*
X914Y2877D01*
X916Y2877D01*
X916Y2875D01*
X918Y2875D01*
X918Y2871D01*
X920Y2871D01*
X920Y2867D01*
X922Y2867D01*
X922Y2861D01*
X924Y2861D01*
X924Y2845D01*
X922Y2845D01*
X922Y2839D01*
X920Y2839D01*
X920Y2833D01*
X918Y2833D01*
X918Y2831D01*
X916Y2831D01*
X916Y2827D01*
X914Y2827D01*
X914Y2825D01*
X912Y2825D01*
X912Y2823D01*
X910Y2823D01*
X910Y2821D01*
X908Y2821D01*
X908Y2819D01*
X906Y2819D01*
X906Y2817D01*
X904Y2817D01*
X904Y2815D01*
X902Y2815D01*
X902Y2813D01*
X898Y2813D01*
X898Y2811D01*
X894Y2811D01*
X894Y2809D01*
X888Y2809D01*
X888Y2807D01*
X1042Y2807D01*
X1042Y2809D01*
X1036Y2809D01*
X1036Y2811D01*
X1034Y2811D01*
X1034Y2813D01*
X1030Y2813D01*
X1030Y2815D01*
X1026Y2815D01*
X1026Y2817D01*
X1024Y2817D01*
X1024Y2819D01*
X1022Y2819D01*
X1022Y2821D01*
X1020Y2821D01*
X1020Y2823D01*
X1018Y2823D01*
X1018Y2825D01*
X1016Y2825D01*
X1016Y2829D01*
X1014Y2829D01*
X1014Y2833D01*
X1012Y2833D01*
X1012Y2837D01*
X1010Y2837D01*
X1010Y2843D01*
X1008Y2843D01*
X1008Y2861D01*
X1010Y2861D01*
X1010Y2867D01*
X1012Y2867D01*
X1012Y2871D01*
X1014Y2871D01*
X1014Y2875D01*
X1016Y2875D01*
X1016Y2877D01*
X1018Y2877D01*
X1018Y2881D01*
X1020Y2881D01*
X1020Y2883D01*
X1022Y2883D01*
X1022Y2885D01*
X1024Y2885D01*
X1024Y2887D01*
X1028Y2887D01*
X1028Y2889D01*
X1030Y2889D01*
X1030Y2891D01*
X1034Y2891D01*
X1034Y2893D01*
X1038Y2893D01*
X1038Y2895D01*
X1042Y2895D01*
X1042Y2897D01*
X890Y2897D01*
G37*
D02*
G36*
X66Y2843D02*
X66Y2841D01*
X734Y2841D01*
X734Y2843D01*
X66Y2843D01*
G37*
D02*
G36*
X66Y2843D02*
X66Y2841D01*
X734Y2841D01*
X734Y2843D01*
X66Y2843D01*
G37*
D02*
G36*
X66Y2841D02*
X66Y2719D01*
X86Y2719D01*
X86Y2721D01*
X88Y2721D01*
X88Y2725D01*
X90Y2725D01*
X90Y2727D01*
X92Y2727D01*
X92Y2729D01*
X94Y2729D01*
X94Y2731D01*
X96Y2731D01*
X96Y2733D01*
X98Y2733D01*
X98Y2735D01*
X100Y2735D01*
X100Y2737D01*
X102Y2737D01*
X102Y2739D01*
X104Y2739D01*
X104Y2741D01*
X106Y2741D01*
X106Y2743D01*
X108Y2743D01*
X108Y2745D01*
X110Y2745D01*
X110Y2747D01*
X112Y2747D01*
X112Y2749D01*
X116Y2749D01*
X116Y2751D01*
X120Y2751D01*
X120Y2753D01*
X720Y2753D01*
X720Y2755D01*
X722Y2755D01*
X722Y2757D01*
X724Y2757D01*
X724Y2759D01*
X726Y2759D01*
X726Y2761D01*
X728Y2761D01*
X728Y2763D01*
X730Y2763D01*
X730Y2765D01*
X732Y2765D01*
X732Y2767D01*
X734Y2767D01*
X734Y2841D01*
X66Y2841D01*
G37*
D02*
G36*
X766Y2807D02*
X766Y2805D01*
X1158Y2805D01*
X1158Y2807D01*
X766Y2807D01*
G37*
D02*
G36*
X766Y2807D02*
X766Y2805D01*
X1158Y2805D01*
X1158Y2807D01*
X766Y2807D01*
G37*
D02*
G36*
X766Y2807D02*
X766Y2805D01*
X1158Y2805D01*
X1158Y2807D01*
X766Y2807D01*
G37*
D02*
G36*
X766Y2805D02*
X766Y2779D01*
X1062Y2779D01*
X1062Y2777D01*
X1068Y2777D01*
X1068Y2775D01*
X1072Y2775D01*
X1072Y2773D01*
X1076Y2773D01*
X1076Y2771D01*
X1078Y2771D01*
X1078Y2769D01*
X1082Y2769D01*
X1082Y2767D01*
X1084Y2767D01*
X1084Y2765D01*
X1086Y2765D01*
X1086Y2763D01*
X1088Y2763D01*
X1088Y2759D01*
X1090Y2759D01*
X1090Y2757D01*
X1092Y2757D01*
X1092Y2753D01*
X1094Y2753D01*
X1094Y2751D01*
X1096Y2751D01*
X1096Y2745D01*
X1098Y2745D01*
X1098Y2721D01*
X1096Y2721D01*
X1096Y2717D01*
X1094Y2717D01*
X1094Y2713D01*
X1092Y2713D01*
X1092Y2709D01*
X1090Y2709D01*
X1090Y2707D01*
X1088Y2707D01*
X1088Y2705D01*
X1086Y2705D01*
X1086Y2703D01*
X1084Y2703D01*
X1084Y2701D01*
X1082Y2701D01*
X1082Y2699D01*
X1080Y2699D01*
X1080Y2697D01*
X1078Y2697D01*
X1078Y2695D01*
X1074Y2695D01*
X1074Y2693D01*
X1070Y2693D01*
X1070Y2691D01*
X1066Y2691D01*
X1066Y2689D01*
X1058Y2689D01*
X1058Y2687D01*
X1158Y2687D01*
X1158Y2805D01*
X766Y2805D01*
G37*
D02*
G36*
X766Y2779D02*
X766Y2759D01*
X764Y2759D01*
X764Y2753D01*
X762Y2753D01*
X762Y2751D01*
X760Y2751D01*
X760Y2747D01*
X758Y2747D01*
X758Y2745D01*
X756Y2745D01*
X756Y2743D01*
X754Y2743D01*
X754Y2741D01*
X752Y2741D01*
X752Y2739D01*
X750Y2739D01*
X750Y2737D01*
X748Y2737D01*
X748Y2735D01*
X746Y2735D01*
X746Y2733D01*
X744Y2733D01*
X744Y2731D01*
X742Y2731D01*
X742Y2729D01*
X740Y2729D01*
X740Y2727D01*
X738Y2727D01*
X738Y2725D01*
X734Y2725D01*
X734Y2723D01*
X732Y2723D01*
X732Y2721D01*
X130Y2721D01*
X130Y2719D01*
X128Y2719D01*
X128Y2717D01*
X126Y2717D01*
X126Y2715D01*
X124Y2715D01*
X124Y2713D01*
X122Y2713D01*
X122Y2711D01*
X120Y2711D01*
X120Y2709D01*
X118Y2709D01*
X118Y2707D01*
X116Y2707D01*
X116Y2689D01*
X868Y2689D01*
X868Y2691D01*
X862Y2691D01*
X862Y2693D01*
X858Y2693D01*
X858Y2695D01*
X854Y2695D01*
X854Y2697D01*
X852Y2697D01*
X852Y2699D01*
X850Y2699D01*
X850Y2701D01*
X848Y2701D01*
X848Y2703D01*
X846Y2703D01*
X846Y2705D01*
X844Y2705D01*
X844Y2707D01*
X842Y2707D01*
X842Y2709D01*
X840Y2709D01*
X840Y2713D01*
X838Y2713D01*
X838Y2717D01*
X836Y2717D01*
X836Y2721D01*
X834Y2721D01*
X834Y2729D01*
X832Y2729D01*
X832Y2739D01*
X834Y2739D01*
X834Y2747D01*
X836Y2747D01*
X836Y2751D01*
X838Y2751D01*
X838Y2755D01*
X840Y2755D01*
X840Y2759D01*
X842Y2759D01*
X842Y2761D01*
X844Y2761D01*
X844Y2763D01*
X846Y2763D01*
X846Y2765D01*
X848Y2765D01*
X848Y2767D01*
X850Y2767D01*
X850Y2769D01*
X852Y2769D01*
X852Y2771D01*
X854Y2771D01*
X854Y2773D01*
X858Y2773D01*
X858Y2775D01*
X862Y2775D01*
X862Y2777D01*
X868Y2777D01*
X868Y2779D01*
X766Y2779D01*
G37*
D02*
G36*
X888Y2779D02*
X888Y2777D01*
X894Y2777D01*
X894Y2775D01*
X898Y2775D01*
X898Y2773D01*
X902Y2773D01*
X902Y2771D01*
X904Y2771D01*
X904Y2769D01*
X906Y2769D01*
X906Y2767D01*
X910Y2767D01*
X910Y2765D01*
X912Y2765D01*
X912Y2761D01*
X914Y2761D01*
X914Y2759D01*
X916Y2759D01*
X916Y2757D01*
X918Y2757D01*
X918Y2753D01*
X920Y2753D01*
X920Y2749D01*
X922Y2749D01*
X922Y2743D01*
X924Y2743D01*
X924Y2725D01*
X922Y2725D01*
X922Y2719D01*
X920Y2719D01*
X920Y2715D01*
X918Y2715D01*
X918Y2711D01*
X916Y2711D01*
X916Y2709D01*
X914Y2709D01*
X914Y2707D01*
X912Y2707D01*
X912Y2703D01*
X910Y2703D01*
X910Y2701D01*
X908Y2701D01*
X908Y2699D01*
X904Y2699D01*
X904Y2697D01*
X902Y2697D01*
X902Y2695D01*
X898Y2695D01*
X898Y2693D01*
X894Y2693D01*
X894Y2691D01*
X890Y2691D01*
X890Y2689D01*
X1040Y2689D01*
X1040Y2691D01*
X1036Y2691D01*
X1036Y2693D01*
X1032Y2693D01*
X1032Y2695D01*
X1028Y2695D01*
X1028Y2697D01*
X1026Y2697D01*
X1026Y2699D01*
X1024Y2699D01*
X1024Y2701D01*
X1022Y2701D01*
X1022Y2703D01*
X1020Y2703D01*
X1020Y2705D01*
X1018Y2705D01*
X1018Y2707D01*
X1016Y2707D01*
X1016Y2711D01*
X1014Y2711D01*
X1014Y2713D01*
X1012Y2713D01*
X1012Y2717D01*
X1010Y2717D01*
X1010Y2723D01*
X1008Y2723D01*
X1008Y2743D01*
X1010Y2743D01*
X1010Y2749D01*
X1012Y2749D01*
X1012Y2753D01*
X1014Y2753D01*
X1014Y2757D01*
X1016Y2757D01*
X1016Y2759D01*
X1018Y2759D01*
X1018Y2761D01*
X1020Y2761D01*
X1020Y2765D01*
X1022Y2765D01*
X1022Y2767D01*
X1026Y2767D01*
X1026Y2769D01*
X1028Y2769D01*
X1028Y2771D01*
X1030Y2771D01*
X1030Y2773D01*
X1034Y2773D01*
X1034Y2775D01*
X1038Y2775D01*
X1038Y2777D01*
X1044Y2777D01*
X1044Y2779D01*
X888Y2779D01*
G37*
D02*
G36*
X116Y2689D02*
X116Y2687D01*
X1048Y2687D01*
X1048Y2689D01*
X116Y2689D01*
G37*
D02*
G36*
X116Y2689D02*
X116Y2687D01*
X1048Y2687D01*
X1048Y2689D01*
X116Y2689D01*
G37*
D02*
G36*
X116Y2687D02*
X116Y2685D01*
X1158Y2685D01*
X1158Y2687D01*
X116Y2687D01*
G37*
D02*
G36*
X116Y2687D02*
X116Y2685D01*
X1158Y2685D01*
X1158Y2687D01*
X116Y2687D01*
G37*
D02*
G36*
X116Y2685D02*
X116Y2661D01*
X1064Y2661D01*
X1064Y2659D01*
X1070Y2659D01*
X1070Y2657D01*
X1074Y2657D01*
X1074Y2655D01*
X1078Y2655D01*
X1078Y2653D01*
X1080Y2653D01*
X1080Y2651D01*
X1082Y2651D01*
X1082Y2649D01*
X1084Y2649D01*
X1084Y2647D01*
X1086Y2647D01*
X1086Y2645D01*
X1088Y2645D01*
X1088Y2643D01*
X1090Y2643D01*
X1090Y2641D01*
X1092Y2641D01*
X1092Y2637D01*
X1094Y2637D01*
X1094Y2633D01*
X1096Y2633D01*
X1096Y2627D01*
X1098Y2627D01*
X1098Y2605D01*
X1096Y2605D01*
X1096Y2599D01*
X1094Y2599D01*
X1094Y2595D01*
X1092Y2595D01*
X1092Y2593D01*
X1090Y2593D01*
X1090Y2589D01*
X1088Y2589D01*
X1088Y2587D01*
X1086Y2587D01*
X1086Y2585D01*
X1084Y2585D01*
X1084Y2583D01*
X1082Y2583D01*
X1082Y2581D01*
X1080Y2581D01*
X1080Y2579D01*
X1076Y2579D01*
X1076Y2577D01*
X1072Y2577D01*
X1072Y2575D01*
X1068Y2575D01*
X1068Y2573D01*
X1064Y2573D01*
X1064Y2571D01*
X1158Y2571D01*
X1158Y2685D01*
X116Y2685D01*
G37*
D02*
G36*
X116Y2661D02*
X116Y2569D01*
X874Y2569D01*
X874Y2571D01*
X866Y2571D01*
X866Y2573D01*
X860Y2573D01*
X860Y2575D01*
X858Y2575D01*
X858Y2577D01*
X854Y2577D01*
X854Y2579D01*
X852Y2579D01*
X852Y2581D01*
X848Y2581D01*
X848Y2583D01*
X846Y2583D01*
X846Y2585D01*
X844Y2585D01*
X844Y2589D01*
X842Y2589D01*
X842Y2591D01*
X840Y2591D01*
X840Y2595D01*
X838Y2595D01*
X838Y2597D01*
X836Y2597D01*
X836Y2603D01*
X834Y2603D01*
X834Y2611D01*
X832Y2611D01*
X832Y2621D01*
X834Y2621D01*
X834Y2627D01*
X836Y2627D01*
X836Y2633D01*
X838Y2633D01*
X838Y2637D01*
X840Y2637D01*
X840Y2641D01*
X842Y2641D01*
X842Y2643D01*
X844Y2643D01*
X844Y2645D01*
X846Y2645D01*
X846Y2647D01*
X848Y2647D01*
X848Y2649D01*
X850Y2649D01*
X850Y2651D01*
X852Y2651D01*
X852Y2653D01*
X856Y2653D01*
X856Y2655D01*
X860Y2655D01*
X860Y2657D01*
X864Y2657D01*
X864Y2659D01*
X870Y2659D01*
X870Y2661D01*
X116Y2661D01*
G37*
D02*
G36*
X886Y2661D02*
X886Y2659D01*
X892Y2659D01*
X892Y2657D01*
X898Y2657D01*
X898Y2655D01*
X900Y2655D01*
X900Y2653D01*
X904Y2653D01*
X904Y2651D01*
X906Y2651D01*
X906Y2649D01*
X908Y2649D01*
X908Y2647D01*
X910Y2647D01*
X910Y2645D01*
X912Y2645D01*
X912Y2643D01*
X914Y2643D01*
X914Y2641D01*
X916Y2641D01*
X916Y2637D01*
X918Y2637D01*
X918Y2635D01*
X920Y2635D01*
X920Y2629D01*
X922Y2629D01*
X922Y2623D01*
X924Y2623D01*
X924Y2607D01*
X922Y2607D01*
X922Y2601D01*
X920Y2601D01*
X920Y2597D01*
X918Y2597D01*
X918Y2593D01*
X916Y2593D01*
X916Y2589D01*
X914Y2589D01*
X914Y2587D01*
X912Y2587D01*
X912Y2585D01*
X910Y2585D01*
X910Y2583D01*
X908Y2583D01*
X908Y2581D01*
X906Y2581D01*
X906Y2579D01*
X902Y2579D01*
X902Y2577D01*
X900Y2577D01*
X900Y2575D01*
X896Y2575D01*
X896Y2573D01*
X890Y2573D01*
X890Y2571D01*
X1044Y2571D01*
X1044Y2573D01*
X1038Y2573D01*
X1038Y2575D01*
X1034Y2575D01*
X1034Y2577D01*
X1030Y2577D01*
X1030Y2579D01*
X1028Y2579D01*
X1028Y2581D01*
X1024Y2581D01*
X1024Y2583D01*
X1022Y2583D01*
X1022Y2585D01*
X1020Y2585D01*
X1020Y2587D01*
X1018Y2587D01*
X1018Y2591D01*
X1016Y2591D01*
X1016Y2593D01*
X1014Y2593D01*
X1014Y2597D01*
X1012Y2597D01*
X1012Y2601D01*
X1010Y2601D01*
X1010Y2607D01*
X1008Y2607D01*
X1008Y2627D01*
X1010Y2627D01*
X1010Y2631D01*
X1012Y2631D01*
X1012Y2635D01*
X1014Y2635D01*
X1014Y2639D01*
X1016Y2639D01*
X1016Y2643D01*
X1018Y2643D01*
X1018Y2645D01*
X1020Y2645D01*
X1020Y2647D01*
X1022Y2647D01*
X1022Y2649D01*
X1024Y2649D01*
X1024Y2651D01*
X1026Y2651D01*
X1026Y2653D01*
X1030Y2653D01*
X1030Y2655D01*
X1032Y2655D01*
X1032Y2657D01*
X1036Y2657D01*
X1036Y2659D01*
X1042Y2659D01*
X1042Y2661D01*
X886Y2661D01*
G37*
D02*
G36*
X882Y2571D02*
X882Y2569D01*
X1158Y2569D01*
X1158Y2571D01*
X882Y2571D01*
G37*
D02*
G36*
X882Y2571D02*
X882Y2569D01*
X1158Y2569D01*
X1158Y2571D01*
X882Y2571D01*
G37*
D02*
G36*
X116Y2569D02*
X116Y2567D01*
X1158Y2567D01*
X1158Y2569D01*
X116Y2569D01*
G37*
D02*
G36*
X116Y2569D02*
X116Y2567D01*
X1158Y2567D01*
X1158Y2569D01*
X116Y2569D01*
G37*
D02*
G36*
X116Y2567D02*
X116Y2553D01*
X280Y2553D01*
X280Y2551D01*
X286Y2551D01*
X286Y2549D01*
X292Y2549D01*
X292Y2547D01*
X294Y2547D01*
X294Y2545D01*
X582Y2545D01*
X582Y2543D01*
X1064Y2543D01*
X1064Y2541D01*
X1068Y2541D01*
X1068Y2539D01*
X1072Y2539D01*
X1072Y2537D01*
X1076Y2537D01*
X1076Y2535D01*
X1080Y2535D01*
X1080Y2533D01*
X1082Y2533D01*
X1082Y2531D01*
X1084Y2531D01*
X1084Y2529D01*
X1086Y2529D01*
X1086Y2527D01*
X1088Y2527D01*
X1088Y2525D01*
X1090Y2525D01*
X1090Y2521D01*
X1092Y2521D01*
X1092Y2519D01*
X1094Y2519D01*
X1094Y2515D01*
X1096Y2515D01*
X1096Y2509D01*
X1098Y2509D01*
X1098Y2487D01*
X1096Y2487D01*
X1096Y2481D01*
X1094Y2481D01*
X1094Y2477D01*
X1092Y2477D01*
X1092Y2473D01*
X1090Y2473D01*
X1090Y2471D01*
X1088Y2471D01*
X1088Y2469D01*
X1086Y2469D01*
X1086Y2467D01*
X1084Y2467D01*
X1084Y2465D01*
X1082Y2465D01*
X1082Y2463D01*
X1080Y2463D01*
X1080Y2461D01*
X1078Y2461D01*
X1078Y2459D01*
X1074Y2459D01*
X1074Y2457D01*
X1070Y2457D01*
X1070Y2455D01*
X1064Y2455D01*
X1064Y2453D01*
X1158Y2453D01*
X1158Y2567D01*
X116Y2567D01*
G37*
D02*
G36*
X214Y2553D02*
X214Y2551D01*
X216Y2551D01*
X216Y2523D01*
X236Y2523D01*
X236Y2527D01*
X238Y2527D01*
X238Y2531D01*
X240Y2531D01*
X240Y2535D01*
X242Y2535D01*
X242Y2537D01*
X244Y2537D01*
X244Y2539D01*
X246Y2539D01*
X246Y2541D01*
X248Y2541D01*
X248Y2543D01*
X250Y2543D01*
X250Y2545D01*
X254Y2545D01*
X254Y2547D01*
X256Y2547D01*
X256Y2549D01*
X262Y2549D01*
X262Y2551D01*
X268Y2551D01*
X268Y2553D01*
X214Y2553D01*
G37*
D02*
G36*
X588Y2543D02*
X588Y2541D01*
X592Y2541D01*
X592Y2539D01*
X594Y2539D01*
X594Y2537D01*
X596Y2537D01*
X596Y2535D01*
X600Y2535D01*
X600Y2533D01*
X602Y2533D01*
X602Y2531D01*
X604Y2531D01*
X604Y2529D01*
X606Y2529D01*
X606Y2527D01*
X608Y2527D01*
X608Y2525D01*
X610Y2525D01*
X610Y2523D01*
X612Y2523D01*
X612Y2521D01*
X614Y2521D01*
X614Y2519D01*
X616Y2519D01*
X616Y2517D01*
X618Y2517D01*
X618Y2515D01*
X620Y2515D01*
X620Y2513D01*
X622Y2513D01*
X622Y2511D01*
X624Y2511D01*
X624Y2507D01*
X626Y2507D01*
X626Y2505D01*
X628Y2505D01*
X628Y2501D01*
X630Y2501D01*
X630Y2497D01*
X632Y2497D01*
X632Y2487D01*
X634Y2487D01*
X634Y2453D01*
X868Y2453D01*
X868Y2455D01*
X862Y2455D01*
X862Y2457D01*
X858Y2457D01*
X858Y2459D01*
X856Y2459D01*
X856Y2461D01*
X852Y2461D01*
X852Y2463D01*
X850Y2463D01*
X850Y2465D01*
X848Y2465D01*
X848Y2467D01*
X846Y2467D01*
X846Y2469D01*
X844Y2469D01*
X844Y2471D01*
X842Y2471D01*
X842Y2473D01*
X840Y2473D01*
X840Y2477D01*
X838Y2477D01*
X838Y2481D01*
X836Y2481D01*
X836Y2485D01*
X834Y2485D01*
X834Y2493D01*
X832Y2493D01*
X832Y2503D01*
X834Y2503D01*
X834Y2511D01*
X836Y2511D01*
X836Y2517D01*
X838Y2517D01*
X838Y2519D01*
X840Y2519D01*
X840Y2523D01*
X842Y2523D01*
X842Y2525D01*
X844Y2525D01*
X844Y2527D01*
X846Y2527D01*
X846Y2529D01*
X848Y2529D01*
X848Y2531D01*
X850Y2531D01*
X850Y2533D01*
X852Y2533D01*
X852Y2535D01*
X854Y2535D01*
X854Y2537D01*
X858Y2537D01*
X858Y2539D01*
X862Y2539D01*
X862Y2541D01*
X868Y2541D01*
X868Y2543D01*
X588Y2543D01*
G37*
D02*
G36*
X890Y2543D02*
X890Y2541D01*
X896Y2541D01*
X896Y2539D01*
X898Y2539D01*
X898Y2537D01*
X902Y2537D01*
X902Y2535D01*
X904Y2535D01*
X904Y2533D01*
X908Y2533D01*
X908Y2531D01*
X910Y2531D01*
X910Y2529D01*
X912Y2529D01*
X912Y2527D01*
X914Y2527D01*
X914Y2523D01*
X916Y2523D01*
X916Y2521D01*
X918Y2521D01*
X918Y2517D01*
X920Y2517D01*
X920Y2513D01*
X922Y2513D01*
X922Y2507D01*
X924Y2507D01*
X924Y2489D01*
X922Y2489D01*
X922Y2483D01*
X920Y2483D01*
X920Y2479D01*
X918Y2479D01*
X918Y2475D01*
X916Y2475D01*
X916Y2473D01*
X914Y2473D01*
X914Y2471D01*
X912Y2471D01*
X912Y2469D01*
X910Y2469D01*
X910Y2465D01*
X906Y2465D01*
X906Y2463D01*
X904Y2463D01*
X904Y2461D01*
X902Y2461D01*
X902Y2459D01*
X898Y2459D01*
X898Y2457D01*
X894Y2457D01*
X894Y2455D01*
X888Y2455D01*
X888Y2453D01*
X1042Y2453D01*
X1042Y2455D01*
X1036Y2455D01*
X1036Y2457D01*
X1032Y2457D01*
X1032Y2459D01*
X1030Y2459D01*
X1030Y2461D01*
X1026Y2461D01*
X1026Y2463D01*
X1024Y2463D01*
X1024Y2465D01*
X1022Y2465D01*
X1022Y2467D01*
X1020Y2467D01*
X1020Y2469D01*
X1018Y2469D01*
X1018Y2471D01*
X1016Y2471D01*
X1016Y2475D01*
X1014Y2475D01*
X1014Y2479D01*
X1012Y2479D01*
X1012Y2483D01*
X1010Y2483D01*
X1010Y2487D01*
X1008Y2487D01*
X1008Y2507D01*
X1010Y2507D01*
X1010Y2513D01*
X1012Y2513D01*
X1012Y2517D01*
X1014Y2517D01*
X1014Y2521D01*
X1016Y2521D01*
X1016Y2523D01*
X1018Y2523D01*
X1018Y2527D01*
X1020Y2527D01*
X1020Y2529D01*
X1022Y2529D01*
X1022Y2531D01*
X1024Y2531D01*
X1024Y2533D01*
X1028Y2533D01*
X1028Y2535D01*
X1030Y2535D01*
X1030Y2537D01*
X1034Y2537D01*
X1034Y2539D01*
X1038Y2539D01*
X1038Y2541D01*
X1044Y2541D01*
X1044Y2543D01*
X890Y2543D01*
G37*
D02*
G36*
X296Y2479D02*
X296Y2477D01*
X292Y2477D01*
X292Y2475D01*
X290Y2475D01*
X290Y2473D01*
X284Y2473D01*
X284Y2471D01*
X280Y2471D01*
X280Y2451D01*
X286Y2451D01*
X286Y2449D01*
X292Y2449D01*
X292Y2447D01*
X294Y2447D01*
X294Y2445D01*
X298Y2445D01*
X298Y2443D01*
X300Y2443D01*
X300Y2441D01*
X302Y2441D01*
X302Y2439D01*
X304Y2439D01*
X304Y2437D01*
X306Y2437D01*
X306Y2435D01*
X308Y2435D01*
X308Y2431D01*
X310Y2431D01*
X310Y2427D01*
X312Y2427D01*
X312Y2423D01*
X314Y2423D01*
X314Y2413D01*
X316Y2413D01*
X316Y2409D01*
X314Y2409D01*
X314Y2401D01*
X312Y2401D01*
X312Y2395D01*
X310Y2395D01*
X310Y2391D01*
X308Y2391D01*
X308Y2389D01*
X306Y2389D01*
X306Y2387D01*
X304Y2387D01*
X304Y2383D01*
X300Y2383D01*
X300Y2381D01*
X298Y2381D01*
X298Y2379D01*
X296Y2379D01*
X296Y2377D01*
X292Y2377D01*
X292Y2375D01*
X290Y2375D01*
X290Y2373D01*
X284Y2373D01*
X284Y2371D01*
X280Y2371D01*
X280Y2351D01*
X286Y2351D01*
X286Y2349D01*
X292Y2349D01*
X292Y2347D01*
X294Y2347D01*
X294Y2345D01*
X298Y2345D01*
X298Y2343D01*
X300Y2343D01*
X300Y2341D01*
X302Y2341D01*
X302Y2339D01*
X304Y2339D01*
X304Y2337D01*
X306Y2337D01*
X306Y2335D01*
X308Y2335D01*
X308Y2331D01*
X310Y2331D01*
X310Y2327D01*
X312Y2327D01*
X312Y2323D01*
X314Y2323D01*
X314Y2313D01*
X316Y2313D01*
X316Y2309D01*
X314Y2309D01*
X314Y2301D01*
X312Y2301D01*
X312Y2295D01*
X310Y2295D01*
X310Y2291D01*
X308Y2291D01*
X308Y2289D01*
X306Y2289D01*
X306Y2287D01*
X304Y2287D01*
X304Y2283D01*
X300Y2283D01*
X300Y2281D01*
X298Y2281D01*
X298Y2279D01*
X296Y2279D01*
X296Y2277D01*
X292Y2277D01*
X292Y2275D01*
X290Y2275D01*
X290Y2273D01*
X284Y2273D01*
X284Y2271D01*
X280Y2271D01*
X280Y2251D01*
X286Y2251D01*
X286Y2249D01*
X292Y2249D01*
X292Y2247D01*
X294Y2247D01*
X294Y2245D01*
X590Y2245D01*
X590Y2247D01*
X586Y2247D01*
X586Y2249D01*
X582Y2249D01*
X582Y2251D01*
X578Y2251D01*
X578Y2253D01*
X574Y2253D01*
X574Y2255D01*
X572Y2255D01*
X572Y2257D01*
X570Y2257D01*
X570Y2259D01*
X568Y2259D01*
X568Y2261D01*
X566Y2261D01*
X566Y2265D01*
X564Y2265D01*
X564Y2267D01*
X562Y2267D01*
X562Y2271D01*
X560Y2271D01*
X560Y2277D01*
X558Y2277D01*
X558Y2297D01*
X560Y2297D01*
X560Y2303D01*
X562Y2303D01*
X562Y2305D01*
X564Y2305D01*
X564Y2309D01*
X566Y2309D01*
X566Y2471D01*
X564Y2471D01*
X564Y2473D01*
X562Y2473D01*
X562Y2475D01*
X560Y2475D01*
X560Y2477D01*
X318Y2477D01*
X318Y2479D01*
X296Y2479D01*
G37*
D02*
G36*
X634Y2453D02*
X634Y2451D01*
X1158Y2451D01*
X1158Y2453D01*
X634Y2453D01*
G37*
D02*
G36*
X634Y2453D02*
X634Y2451D01*
X1158Y2451D01*
X1158Y2453D01*
X634Y2453D01*
G37*
D02*
G36*
X634Y2453D02*
X634Y2451D01*
X1158Y2451D01*
X1158Y2453D01*
X634Y2453D01*
G37*
D02*
G36*
X634Y2451D02*
X634Y2425D01*
X1064Y2425D01*
X1064Y2423D01*
X1070Y2423D01*
X1070Y2421D01*
X1074Y2421D01*
X1074Y2419D01*
X1078Y2419D01*
X1078Y2417D01*
X1080Y2417D01*
X1080Y2415D01*
X1082Y2415D01*
X1082Y2413D01*
X1084Y2413D01*
X1084Y2411D01*
X1086Y2411D01*
X1086Y2409D01*
X1088Y2409D01*
X1088Y2407D01*
X1090Y2407D01*
X1090Y2405D01*
X1092Y2405D01*
X1092Y2401D01*
X1094Y2401D01*
X1094Y2399D01*
X1096Y2399D01*
X1096Y2393D01*
X1098Y2393D01*
X1098Y2385D01*
X1100Y2385D01*
X1100Y2375D01*
X1098Y2375D01*
X1098Y2367D01*
X1096Y2367D01*
X1096Y2363D01*
X1094Y2363D01*
X1094Y2359D01*
X1092Y2359D01*
X1092Y2355D01*
X1090Y2355D01*
X1090Y2353D01*
X1088Y2353D01*
X1088Y2351D01*
X1086Y2351D01*
X1086Y2349D01*
X1084Y2349D01*
X1084Y2347D01*
X1082Y2347D01*
X1082Y2345D01*
X1080Y2345D01*
X1080Y2343D01*
X1078Y2343D01*
X1078Y2341D01*
X1074Y2341D01*
X1074Y2339D01*
X1070Y2339D01*
X1070Y2337D01*
X1064Y2337D01*
X1064Y2335D01*
X1158Y2335D01*
X1158Y2451D01*
X634Y2451D01*
G37*
D02*
G36*
X634Y2425D02*
X634Y2333D01*
X874Y2333D01*
X874Y2335D01*
X866Y2335D01*
X866Y2337D01*
X860Y2337D01*
X860Y2339D01*
X858Y2339D01*
X858Y2341D01*
X854Y2341D01*
X854Y2343D01*
X852Y2343D01*
X852Y2345D01*
X850Y2345D01*
X850Y2347D01*
X846Y2347D01*
X846Y2351D01*
X844Y2351D01*
X844Y2353D01*
X842Y2353D01*
X842Y2355D01*
X840Y2355D01*
X840Y2359D01*
X838Y2359D01*
X838Y2363D01*
X836Y2363D01*
X836Y2367D01*
X834Y2367D01*
X834Y2391D01*
X836Y2391D01*
X836Y2397D01*
X838Y2397D01*
X838Y2399D01*
X840Y2399D01*
X840Y2403D01*
X842Y2403D01*
X842Y2405D01*
X844Y2405D01*
X844Y2409D01*
X846Y2409D01*
X846Y2411D01*
X848Y2411D01*
X848Y2413D01*
X850Y2413D01*
X850Y2415D01*
X854Y2415D01*
X854Y2417D01*
X856Y2417D01*
X856Y2419D01*
X860Y2419D01*
X860Y2421D01*
X864Y2421D01*
X864Y2423D01*
X870Y2423D01*
X870Y2425D01*
X634Y2425D01*
G37*
D02*
G36*
X886Y2425D02*
X886Y2423D01*
X892Y2423D01*
X892Y2421D01*
X898Y2421D01*
X898Y2419D01*
X900Y2419D01*
X900Y2417D01*
X904Y2417D01*
X904Y2415D01*
X906Y2415D01*
X906Y2413D01*
X908Y2413D01*
X908Y2411D01*
X910Y2411D01*
X910Y2409D01*
X912Y2409D01*
X912Y2407D01*
X914Y2407D01*
X914Y2405D01*
X916Y2405D01*
X916Y2403D01*
X918Y2403D01*
X918Y2399D01*
X920Y2399D01*
X920Y2395D01*
X922Y2395D01*
X922Y2389D01*
X924Y2389D01*
X924Y2369D01*
X922Y2369D01*
X922Y2363D01*
X920Y2363D01*
X920Y2359D01*
X918Y2359D01*
X918Y2357D01*
X916Y2357D01*
X916Y2353D01*
X914Y2353D01*
X914Y2351D01*
X912Y2351D01*
X912Y2349D01*
X910Y2349D01*
X910Y2347D01*
X908Y2347D01*
X908Y2345D01*
X906Y2345D01*
X906Y2343D01*
X904Y2343D01*
X904Y2341D01*
X900Y2341D01*
X900Y2339D01*
X896Y2339D01*
X896Y2337D01*
X892Y2337D01*
X892Y2335D01*
X1044Y2335D01*
X1044Y2337D01*
X1038Y2337D01*
X1038Y2339D01*
X1034Y2339D01*
X1034Y2341D01*
X1030Y2341D01*
X1030Y2343D01*
X1028Y2343D01*
X1028Y2345D01*
X1026Y2345D01*
X1026Y2347D01*
X1022Y2347D01*
X1022Y2349D01*
X1020Y2349D01*
X1020Y2353D01*
X1018Y2353D01*
X1018Y2355D01*
X1016Y2355D01*
X1016Y2357D01*
X1014Y2357D01*
X1014Y2361D01*
X1012Y2361D01*
X1012Y2365D01*
X1010Y2365D01*
X1010Y2373D01*
X1008Y2373D01*
X1008Y2389D01*
X1010Y2389D01*
X1010Y2395D01*
X1012Y2395D01*
X1012Y2399D01*
X1014Y2399D01*
X1014Y2403D01*
X1016Y2403D01*
X1016Y2405D01*
X1018Y2405D01*
X1018Y2407D01*
X1020Y2407D01*
X1020Y2411D01*
X1022Y2411D01*
X1022Y2413D01*
X1024Y2413D01*
X1024Y2415D01*
X1028Y2415D01*
X1028Y2417D01*
X1030Y2417D01*
X1030Y2419D01*
X1034Y2419D01*
X1034Y2421D01*
X1038Y2421D01*
X1038Y2423D01*
X1042Y2423D01*
X1042Y2425D01*
X886Y2425D01*
G37*
D02*
G36*
X884Y2335D02*
X884Y2333D01*
X1158Y2333D01*
X1158Y2335D01*
X884Y2335D01*
G37*
D02*
G36*
X884Y2335D02*
X884Y2333D01*
X1158Y2333D01*
X1158Y2335D01*
X884Y2335D01*
G37*
D02*
G36*
X634Y2333D02*
X634Y2331D01*
X1158Y2331D01*
X1158Y2333D01*
X634Y2333D01*
G37*
D02*
G36*
X634Y2333D02*
X634Y2331D01*
X1158Y2331D01*
X1158Y2333D01*
X634Y2333D01*
G37*
D02*
G36*
X632Y2331D02*
X632Y2309D01*
X634Y2309D01*
X634Y2305D01*
X636Y2305D01*
X636Y2303D01*
X1064Y2303D01*
X1064Y2301D01*
X1070Y2301D01*
X1070Y2299D01*
X1074Y2299D01*
X1074Y2297D01*
X1076Y2297D01*
X1076Y2295D01*
X1080Y2295D01*
X1080Y2293D01*
X1082Y2293D01*
X1082Y2291D01*
X1084Y2291D01*
X1084Y2289D01*
X1086Y2289D01*
X1086Y2287D01*
X1088Y2287D01*
X1088Y2285D01*
X1090Y2285D01*
X1090Y2281D01*
X1092Y2281D01*
X1092Y2279D01*
X1094Y2279D01*
X1094Y2275D01*
X1096Y2275D01*
X1096Y2269D01*
X1098Y2269D01*
X1098Y2247D01*
X1096Y2247D01*
X1096Y2241D01*
X1094Y2241D01*
X1094Y2237D01*
X1092Y2237D01*
X1092Y2233D01*
X1090Y2233D01*
X1090Y2231D01*
X1088Y2231D01*
X1088Y2229D01*
X1086Y2229D01*
X1086Y2227D01*
X1084Y2227D01*
X1084Y2225D01*
X1082Y2225D01*
X1082Y2223D01*
X1080Y2223D01*
X1080Y2221D01*
X1076Y2221D01*
X1076Y2219D01*
X1074Y2219D01*
X1074Y2217D01*
X1070Y2217D01*
X1070Y2215D01*
X1064Y2215D01*
X1064Y2213D01*
X1158Y2213D01*
X1158Y2331D01*
X632Y2331D01*
G37*
D02*
G36*
X638Y2303D02*
X638Y2297D01*
X640Y2297D01*
X640Y2277D01*
X638Y2277D01*
X638Y2271D01*
X636Y2271D01*
X636Y2267D01*
X634Y2267D01*
X634Y2263D01*
X632Y2263D01*
X632Y2261D01*
X630Y2261D01*
X630Y2259D01*
X628Y2259D01*
X628Y2257D01*
X626Y2257D01*
X626Y2255D01*
X624Y2255D01*
X624Y2253D01*
X620Y2253D01*
X620Y2251D01*
X618Y2251D01*
X618Y2249D01*
X614Y2249D01*
X614Y2247D01*
X608Y2247D01*
X608Y2245D01*
X834Y2245D01*
X834Y2251D01*
X832Y2251D01*
X832Y2263D01*
X834Y2263D01*
X834Y2269D01*
X836Y2269D01*
X836Y2275D01*
X838Y2275D01*
X838Y2279D01*
X840Y2279D01*
X840Y2281D01*
X842Y2281D01*
X842Y2285D01*
X844Y2285D01*
X844Y2287D01*
X846Y2287D01*
X846Y2289D01*
X848Y2289D01*
X848Y2291D01*
X850Y2291D01*
X850Y2293D01*
X854Y2293D01*
X854Y2295D01*
X856Y2295D01*
X856Y2297D01*
X860Y2297D01*
X860Y2299D01*
X864Y2299D01*
X864Y2301D01*
X872Y2301D01*
X872Y2303D01*
X638Y2303D01*
G37*
D02*
G36*
X886Y2303D02*
X886Y2301D01*
X892Y2301D01*
X892Y2299D01*
X896Y2299D01*
X896Y2297D01*
X900Y2297D01*
X900Y2295D01*
X904Y2295D01*
X904Y2293D01*
X906Y2293D01*
X906Y2291D01*
X908Y2291D01*
X908Y2289D01*
X910Y2289D01*
X910Y2287D01*
X912Y2287D01*
X912Y2285D01*
X914Y2285D01*
X914Y2283D01*
X916Y2283D01*
X916Y2279D01*
X918Y2279D01*
X918Y2275D01*
X920Y2275D01*
X920Y2271D01*
X922Y2271D01*
X922Y2265D01*
X924Y2265D01*
X924Y2249D01*
X922Y2249D01*
X922Y2243D01*
X920Y2243D01*
X920Y2239D01*
X918Y2239D01*
X918Y2235D01*
X916Y2235D01*
X916Y2231D01*
X914Y2231D01*
X914Y2229D01*
X912Y2229D01*
X912Y2227D01*
X910Y2227D01*
X910Y2225D01*
X908Y2225D01*
X908Y2223D01*
X906Y2223D01*
X906Y2221D01*
X904Y2221D01*
X904Y2219D01*
X900Y2219D01*
X900Y2217D01*
X896Y2217D01*
X896Y2215D01*
X892Y2215D01*
X892Y2213D01*
X1042Y2213D01*
X1042Y2215D01*
X1036Y2215D01*
X1036Y2217D01*
X1034Y2217D01*
X1034Y2219D01*
X1030Y2219D01*
X1030Y2221D01*
X1026Y2221D01*
X1026Y2223D01*
X1024Y2223D01*
X1024Y2225D01*
X1022Y2225D01*
X1022Y2227D01*
X1020Y2227D01*
X1020Y2229D01*
X1018Y2229D01*
X1018Y2231D01*
X1016Y2231D01*
X1016Y2235D01*
X1014Y2235D01*
X1014Y2239D01*
X1012Y2239D01*
X1012Y2243D01*
X1010Y2243D01*
X1010Y2249D01*
X1008Y2249D01*
X1008Y2267D01*
X1010Y2267D01*
X1010Y2273D01*
X1012Y2273D01*
X1012Y2277D01*
X1014Y2277D01*
X1014Y2281D01*
X1016Y2281D01*
X1016Y2283D01*
X1018Y2283D01*
X1018Y2287D01*
X1020Y2287D01*
X1020Y2289D01*
X1022Y2289D01*
X1022Y2291D01*
X1024Y2291D01*
X1024Y2293D01*
X1028Y2293D01*
X1028Y2295D01*
X1030Y2295D01*
X1030Y2297D01*
X1034Y2297D01*
X1034Y2299D01*
X1038Y2299D01*
X1038Y2301D01*
X1042Y2301D01*
X1042Y2303D01*
X886Y2303D01*
G37*
D02*
G36*
X298Y2245D02*
X298Y2243D01*
X836Y2243D01*
X836Y2245D01*
X298Y2245D01*
G37*
D02*
G36*
X298Y2245D02*
X298Y2243D01*
X836Y2243D01*
X836Y2245D01*
X298Y2245D01*
G37*
D02*
G36*
X300Y2243D02*
X300Y2241D01*
X302Y2241D01*
X302Y2239D01*
X304Y2239D01*
X304Y2237D01*
X306Y2237D01*
X306Y2235D01*
X308Y2235D01*
X308Y2231D01*
X310Y2231D01*
X310Y2227D01*
X312Y2227D01*
X312Y2223D01*
X314Y2223D01*
X314Y2213D01*
X316Y2213D01*
X316Y2211D01*
X872Y2211D01*
X872Y2213D01*
X864Y2213D01*
X864Y2215D01*
X860Y2215D01*
X860Y2217D01*
X856Y2217D01*
X856Y2219D01*
X854Y2219D01*
X854Y2221D01*
X850Y2221D01*
X850Y2223D01*
X848Y2223D01*
X848Y2225D01*
X846Y2225D01*
X846Y2227D01*
X844Y2227D01*
X844Y2229D01*
X842Y2229D01*
X842Y2233D01*
X840Y2233D01*
X840Y2235D01*
X838Y2235D01*
X838Y2239D01*
X836Y2239D01*
X836Y2243D01*
X300Y2243D01*
G37*
D02*
G36*
X884Y2213D02*
X884Y2211D01*
X1158Y2211D01*
X1158Y2213D01*
X884Y2213D01*
G37*
D02*
G36*
X884Y2213D02*
X884Y2211D01*
X1158Y2211D01*
X1158Y2213D01*
X884Y2213D01*
G37*
D02*
G36*
X316Y2211D02*
X316Y2209D01*
X1158Y2209D01*
X1158Y2211D01*
X316Y2211D01*
G37*
D02*
G36*
X316Y2211D02*
X316Y2209D01*
X1158Y2209D01*
X1158Y2211D01*
X316Y2211D01*
G37*
D02*
G36*
X314Y2209D02*
X314Y2201D01*
X312Y2201D01*
X312Y2195D01*
X310Y2195D01*
X310Y2191D01*
X308Y2191D01*
X308Y2189D01*
X306Y2189D01*
X306Y2187D01*
X304Y2187D01*
X304Y2183D01*
X300Y2183D01*
X300Y2181D01*
X298Y2181D01*
X298Y2179D01*
X296Y2179D01*
X296Y2177D01*
X292Y2177D01*
X292Y2175D01*
X290Y2175D01*
X290Y2173D01*
X284Y2173D01*
X284Y2171D01*
X280Y2171D01*
X280Y2151D01*
X286Y2151D01*
X286Y2149D01*
X292Y2149D01*
X292Y2147D01*
X294Y2147D01*
X294Y2145D01*
X298Y2145D01*
X298Y2143D01*
X300Y2143D01*
X300Y2141D01*
X302Y2141D01*
X302Y2139D01*
X304Y2139D01*
X304Y2137D01*
X306Y2137D01*
X306Y2135D01*
X308Y2135D01*
X308Y2131D01*
X310Y2131D01*
X310Y2127D01*
X312Y2127D01*
X312Y2123D01*
X314Y2123D01*
X314Y2113D01*
X316Y2113D01*
X316Y2109D01*
X314Y2109D01*
X314Y2101D01*
X312Y2101D01*
X312Y2095D01*
X310Y2095D01*
X310Y2091D01*
X308Y2091D01*
X308Y2089D01*
X306Y2089D01*
X306Y2087D01*
X304Y2087D01*
X304Y2083D01*
X300Y2083D01*
X300Y2081D01*
X298Y2081D01*
X298Y2079D01*
X296Y2079D01*
X296Y2077D01*
X292Y2077D01*
X292Y2075D01*
X290Y2075D01*
X290Y2073D01*
X284Y2073D01*
X284Y2071D01*
X280Y2071D01*
X280Y2051D01*
X286Y2051D01*
X286Y2049D01*
X292Y2049D01*
X292Y2047D01*
X294Y2047D01*
X294Y2045D01*
X298Y2045D01*
X298Y2043D01*
X300Y2043D01*
X300Y2041D01*
X302Y2041D01*
X302Y2039D01*
X304Y2039D01*
X304Y2037D01*
X306Y2037D01*
X306Y2035D01*
X308Y2035D01*
X308Y2031D01*
X310Y2031D01*
X310Y2027D01*
X312Y2027D01*
X312Y2023D01*
X314Y2023D01*
X314Y2013D01*
X316Y2013D01*
X316Y2009D01*
X314Y2009D01*
X314Y2001D01*
X312Y2001D01*
X312Y1995D01*
X310Y1995D01*
X310Y1991D01*
X308Y1991D01*
X308Y1989D01*
X306Y1989D01*
X306Y1987D01*
X304Y1987D01*
X304Y1983D01*
X300Y1983D01*
X300Y1981D01*
X298Y1981D01*
X298Y1979D01*
X296Y1979D01*
X296Y1977D01*
X292Y1977D01*
X292Y1975D01*
X290Y1975D01*
X290Y1973D01*
X284Y1973D01*
X284Y1971D01*
X280Y1971D01*
X280Y1951D01*
X286Y1951D01*
X286Y1949D01*
X292Y1949D01*
X292Y1947D01*
X294Y1947D01*
X294Y1945D01*
X298Y1945D01*
X298Y1943D01*
X300Y1943D01*
X300Y1941D01*
X302Y1941D01*
X302Y1939D01*
X304Y1939D01*
X304Y1937D01*
X306Y1937D01*
X306Y1935D01*
X308Y1935D01*
X308Y1931D01*
X310Y1931D01*
X310Y1927D01*
X418Y1927D01*
X418Y1929D01*
X420Y1929D01*
X420Y1931D01*
X422Y1931D01*
X422Y1933D01*
X424Y1933D01*
X424Y1935D01*
X426Y1935D01*
X426Y1937D01*
X428Y1937D01*
X428Y1939D01*
X430Y1939D01*
X430Y1941D01*
X432Y1941D01*
X432Y1943D01*
X434Y1943D01*
X434Y2145D01*
X436Y2145D01*
X436Y2147D01*
X438Y2147D01*
X438Y2149D01*
X440Y2149D01*
X440Y2151D01*
X442Y2151D01*
X442Y2153D01*
X444Y2153D01*
X444Y2155D01*
X446Y2155D01*
X446Y2157D01*
X448Y2157D01*
X448Y2159D01*
X450Y2159D01*
X450Y2161D01*
X452Y2161D01*
X452Y2163D01*
X454Y2163D01*
X454Y2165D01*
X456Y2165D01*
X456Y2167D01*
X458Y2167D01*
X458Y2169D01*
X460Y2169D01*
X460Y2171D01*
X462Y2171D01*
X462Y2173D01*
X464Y2173D01*
X464Y2175D01*
X468Y2175D01*
X468Y2177D01*
X1142Y2177D01*
X1142Y2179D01*
X1144Y2179D01*
X1144Y2181D01*
X1146Y2181D01*
X1146Y2183D01*
X1148Y2183D01*
X1148Y2185D01*
X1150Y2185D01*
X1150Y2187D01*
X1152Y2187D01*
X1152Y2189D01*
X1154Y2189D01*
X1154Y2191D01*
X1156Y2191D01*
X1156Y2193D01*
X1158Y2193D01*
X1158Y2209D01*
X314Y2209D01*
G37*
D02*
G36*
X1260Y2187D02*
X1260Y2185D01*
X1286Y2185D01*
X1286Y2187D01*
X1260Y2187D01*
G37*
D02*
G36*
X1208Y2129D02*
X1208Y2127D01*
X1206Y2127D01*
X1206Y2125D01*
X1204Y2125D01*
X1204Y2123D01*
X1202Y2123D01*
X1202Y2121D01*
X1200Y2121D01*
X1200Y2119D01*
X1198Y2119D01*
X1198Y2117D01*
X1196Y2117D01*
X1196Y2115D01*
X1194Y2115D01*
X1194Y2113D01*
X1192Y2113D01*
X1192Y2111D01*
X1190Y2111D01*
X1190Y2109D01*
X1188Y2109D01*
X1188Y2107D01*
X1186Y2107D01*
X1186Y2041D01*
X1292Y2041D01*
X1292Y2043D01*
X1280Y2043D01*
X1280Y2045D01*
X1274Y2045D01*
X1274Y2047D01*
X1270Y2047D01*
X1270Y2049D01*
X1266Y2049D01*
X1266Y2051D01*
X1262Y2051D01*
X1262Y2053D01*
X1258Y2053D01*
X1258Y2055D01*
X1256Y2055D01*
X1256Y2057D01*
X1254Y2057D01*
X1254Y2059D01*
X1252Y2059D01*
X1252Y2061D01*
X1248Y2061D01*
X1248Y2063D01*
X1246Y2063D01*
X1246Y2067D01*
X1244Y2067D01*
X1244Y2069D01*
X1242Y2069D01*
X1242Y2071D01*
X1240Y2071D01*
X1240Y2073D01*
X1238Y2073D01*
X1238Y2077D01*
X1236Y2077D01*
X1236Y2081D01*
X1234Y2081D01*
X1234Y2085D01*
X1232Y2085D01*
X1232Y2089D01*
X1230Y2089D01*
X1230Y2095D01*
X1228Y2095D01*
X1228Y2105D01*
X1226Y2105D01*
X1226Y2125D01*
X1228Y2125D01*
X1228Y2129D01*
X1208Y2129D01*
G37*
D02*
G36*
X554Y2099D02*
X554Y2097D01*
X552Y2097D01*
X552Y2095D01*
X550Y2095D01*
X550Y2093D01*
X548Y2093D01*
X548Y2091D01*
X546Y2091D01*
X546Y2089D01*
X544Y2089D01*
X544Y2087D01*
X542Y2087D01*
X542Y2085D01*
X540Y2085D01*
X540Y2083D01*
X538Y2083D01*
X538Y2081D01*
X536Y2081D01*
X536Y2061D01*
X1056Y2061D01*
X1056Y2059D01*
X1064Y2059D01*
X1064Y2057D01*
X1068Y2057D01*
X1068Y2055D01*
X1072Y2055D01*
X1072Y2053D01*
X1076Y2053D01*
X1076Y2051D01*
X1078Y2051D01*
X1078Y2049D01*
X1080Y2049D01*
X1080Y2047D01*
X1082Y2047D01*
X1082Y2045D01*
X1084Y2045D01*
X1084Y2043D01*
X1086Y2043D01*
X1086Y2041D01*
X1088Y2041D01*
X1088Y2037D01*
X1090Y2037D01*
X1090Y2035D01*
X1092Y2035D01*
X1092Y2029D01*
X1094Y2029D01*
X1094Y2023D01*
X1096Y2023D01*
X1096Y2005D01*
X1094Y2005D01*
X1094Y1999D01*
X1092Y1999D01*
X1092Y1995D01*
X1090Y1995D01*
X1090Y1993D01*
X1088Y1993D01*
X1088Y1989D01*
X1086Y1989D01*
X1086Y1987D01*
X1084Y1987D01*
X1084Y1985D01*
X1082Y1985D01*
X1082Y1983D01*
X1080Y1983D01*
X1080Y1981D01*
X1078Y1981D01*
X1078Y1979D01*
X1076Y1979D01*
X1076Y1977D01*
X1072Y1977D01*
X1072Y1975D01*
X1070Y1975D01*
X1070Y1973D01*
X1064Y1973D01*
X1064Y1971D01*
X1058Y1971D01*
X1058Y1969D01*
X1162Y1969D01*
X1162Y2099D01*
X554Y2099D01*
G37*
D02*
G36*
X536Y2061D02*
X536Y2059D01*
X886Y2059D01*
X886Y2057D01*
X892Y2057D01*
X892Y2055D01*
X896Y2055D01*
X896Y2053D01*
X898Y2053D01*
X898Y2051D01*
X902Y2051D01*
X902Y2049D01*
X904Y2049D01*
X904Y2047D01*
X906Y2047D01*
X906Y2045D01*
X908Y2045D01*
X908Y2043D01*
X910Y2043D01*
X910Y2041D01*
X912Y2041D01*
X912Y2039D01*
X914Y2039D01*
X914Y2035D01*
X916Y2035D01*
X916Y2031D01*
X918Y2031D01*
X918Y2025D01*
X920Y2025D01*
X920Y2017D01*
X922Y2017D01*
X922Y2011D01*
X920Y2011D01*
X920Y2001D01*
X918Y2001D01*
X918Y1997D01*
X916Y1997D01*
X916Y1993D01*
X914Y1993D01*
X914Y1989D01*
X912Y1989D01*
X912Y1987D01*
X910Y1987D01*
X910Y1985D01*
X908Y1985D01*
X908Y1983D01*
X906Y1983D01*
X906Y1981D01*
X904Y1981D01*
X904Y1979D01*
X902Y1979D01*
X902Y1977D01*
X900Y1977D01*
X900Y1975D01*
X896Y1975D01*
X896Y1973D01*
X892Y1973D01*
X892Y1971D01*
X886Y1971D01*
X886Y1969D01*
X1044Y1969D01*
X1044Y1971D01*
X1036Y1971D01*
X1036Y1973D01*
X1032Y1973D01*
X1032Y1975D01*
X1028Y1975D01*
X1028Y1977D01*
X1026Y1977D01*
X1026Y1979D01*
X1022Y1979D01*
X1022Y1981D01*
X1020Y1981D01*
X1020Y1983D01*
X1018Y1983D01*
X1018Y1985D01*
X1016Y1985D01*
X1016Y1987D01*
X1014Y1987D01*
X1014Y1991D01*
X1012Y1991D01*
X1012Y1993D01*
X1010Y1993D01*
X1010Y1997D01*
X1008Y1997D01*
X1008Y2003D01*
X1006Y2003D01*
X1006Y2013D01*
X1004Y2013D01*
X1004Y2017D01*
X1006Y2017D01*
X1006Y2027D01*
X1008Y2027D01*
X1008Y2033D01*
X1010Y2033D01*
X1010Y2035D01*
X1012Y2035D01*
X1012Y2039D01*
X1014Y2039D01*
X1014Y2041D01*
X1016Y2041D01*
X1016Y2045D01*
X1018Y2045D01*
X1018Y2047D01*
X1020Y2047D01*
X1020Y2049D01*
X1024Y2049D01*
X1024Y2051D01*
X1026Y2051D01*
X1026Y2053D01*
X1028Y2053D01*
X1028Y2055D01*
X1032Y2055D01*
X1032Y2057D01*
X1038Y2057D01*
X1038Y2059D01*
X1044Y2059D01*
X1044Y2061D01*
X536Y2061D01*
G37*
D02*
G36*
X536Y2059D02*
X536Y1969D01*
X864Y1969D01*
X864Y1971D01*
X860Y1971D01*
X860Y1973D01*
X856Y1973D01*
X856Y1975D01*
X852Y1975D01*
X852Y1977D01*
X850Y1977D01*
X850Y1979D01*
X846Y1979D01*
X846Y1981D01*
X844Y1981D01*
X844Y1983D01*
X842Y1983D01*
X842Y1985D01*
X840Y1985D01*
X840Y1989D01*
X838Y1989D01*
X838Y1991D01*
X836Y1991D01*
X836Y1995D01*
X834Y1995D01*
X834Y1999D01*
X832Y1999D01*
X832Y2005D01*
X830Y2005D01*
X830Y2023D01*
X832Y2023D01*
X832Y2029D01*
X834Y2029D01*
X834Y2033D01*
X836Y2033D01*
X836Y2037D01*
X838Y2037D01*
X838Y2039D01*
X840Y2039D01*
X840Y2043D01*
X842Y2043D01*
X842Y2045D01*
X844Y2045D01*
X844Y2047D01*
X846Y2047D01*
X846Y2049D01*
X850Y2049D01*
X850Y2051D01*
X852Y2051D01*
X852Y2053D01*
X856Y2053D01*
X856Y2055D01*
X860Y2055D01*
X860Y2057D01*
X866Y2057D01*
X866Y2059D01*
X536Y2059D01*
G37*
D02*
G36*
X1186Y2041D02*
X1186Y2039D01*
X1534Y2039D01*
X1534Y2041D01*
X1186Y2041D01*
G37*
D02*
G36*
X1186Y2041D02*
X1186Y2039D01*
X1534Y2039D01*
X1534Y2041D01*
X1186Y2041D01*
G37*
D02*
G36*
X1186Y2039D02*
X1186Y1307D01*
X1184Y1307D01*
X1184Y1303D01*
X1182Y1303D01*
X1182Y1301D01*
X1180Y1301D01*
X1180Y1299D01*
X1178Y1299D01*
X1178Y1297D01*
X1176Y1297D01*
X1176Y1295D01*
X1174Y1295D01*
X1174Y1293D01*
X1172Y1293D01*
X1172Y1291D01*
X1170Y1291D01*
X1170Y1289D01*
X1168Y1289D01*
X1168Y1287D01*
X1166Y1287D01*
X1166Y1285D01*
X1164Y1285D01*
X1164Y1283D01*
X1162Y1283D01*
X1162Y1281D01*
X1160Y1281D01*
X1160Y1279D01*
X1158Y1279D01*
X1158Y1277D01*
X1156Y1277D01*
X1156Y1275D01*
X1152Y1275D01*
X1152Y1273D01*
X1534Y1273D01*
X1534Y2039D01*
X1186Y2039D01*
G37*
D02*
G36*
X536Y1969D02*
X536Y1967D01*
X1162Y1967D01*
X1162Y1969D01*
X536Y1969D01*
G37*
D02*
G36*
X536Y1969D02*
X536Y1967D01*
X1162Y1967D01*
X1162Y1969D01*
X536Y1969D01*
G37*
D02*
G36*
X536Y1969D02*
X536Y1967D01*
X1162Y1967D01*
X1162Y1969D01*
X536Y1969D01*
G37*
D02*
G36*
X536Y1967D02*
X536Y1921D01*
X1060Y1921D01*
X1060Y1919D01*
X1066Y1919D01*
X1066Y1917D01*
X1070Y1917D01*
X1070Y1915D01*
X1074Y1915D01*
X1074Y1913D01*
X1076Y1913D01*
X1076Y1911D01*
X1080Y1911D01*
X1080Y1909D01*
X1082Y1909D01*
X1082Y1907D01*
X1084Y1907D01*
X1084Y1905D01*
X1086Y1905D01*
X1086Y1901D01*
X1088Y1901D01*
X1088Y1899D01*
X1090Y1899D01*
X1090Y1895D01*
X1092Y1895D01*
X1092Y1891D01*
X1094Y1891D01*
X1094Y1885D01*
X1096Y1885D01*
X1096Y1867D01*
X1094Y1867D01*
X1094Y1861D01*
X1092Y1861D01*
X1092Y1857D01*
X1090Y1857D01*
X1090Y1853D01*
X1088Y1853D01*
X1088Y1851D01*
X1086Y1851D01*
X1086Y1847D01*
X1084Y1847D01*
X1084Y1845D01*
X1082Y1845D01*
X1082Y1843D01*
X1080Y1843D01*
X1080Y1841D01*
X1076Y1841D01*
X1076Y1839D01*
X1074Y1839D01*
X1074Y1837D01*
X1070Y1837D01*
X1070Y1835D01*
X1066Y1835D01*
X1066Y1833D01*
X1062Y1833D01*
X1062Y1831D01*
X1162Y1831D01*
X1162Y1967D01*
X536Y1967D01*
G37*
D02*
G36*
X536Y1921D02*
X536Y1829D01*
X870Y1829D01*
X870Y1831D01*
X862Y1831D01*
X862Y1833D01*
X858Y1833D01*
X858Y1835D01*
X854Y1835D01*
X854Y1837D01*
X850Y1837D01*
X850Y1839D01*
X848Y1839D01*
X848Y1841D01*
X846Y1841D01*
X846Y1843D01*
X844Y1843D01*
X844Y1845D01*
X842Y1845D01*
X842Y1847D01*
X840Y1847D01*
X840Y1849D01*
X838Y1849D01*
X838Y1853D01*
X836Y1853D01*
X836Y1855D01*
X834Y1855D01*
X834Y1861D01*
X832Y1861D01*
X832Y1867D01*
X830Y1867D01*
X830Y1885D01*
X832Y1885D01*
X832Y1889D01*
X834Y1889D01*
X834Y1895D01*
X836Y1895D01*
X836Y1897D01*
X838Y1897D01*
X838Y1901D01*
X840Y1901D01*
X840Y1903D01*
X842Y1903D01*
X842Y1905D01*
X844Y1905D01*
X844Y1907D01*
X846Y1907D01*
X846Y1909D01*
X848Y1909D01*
X848Y1911D01*
X850Y1911D01*
X850Y1913D01*
X854Y1913D01*
X854Y1915D01*
X858Y1915D01*
X858Y1917D01*
X862Y1917D01*
X862Y1919D01*
X868Y1919D01*
X868Y1921D01*
X536Y1921D01*
G37*
D02*
G36*
X882Y1921D02*
X882Y1919D01*
X890Y1919D01*
X890Y1917D01*
X894Y1917D01*
X894Y1915D01*
X898Y1915D01*
X898Y1913D01*
X900Y1913D01*
X900Y1911D01*
X904Y1911D01*
X904Y1909D01*
X906Y1909D01*
X906Y1907D01*
X908Y1907D01*
X908Y1905D01*
X910Y1905D01*
X910Y1901D01*
X912Y1901D01*
X912Y1899D01*
X914Y1899D01*
X914Y1895D01*
X916Y1895D01*
X916Y1893D01*
X918Y1893D01*
X918Y1887D01*
X920Y1887D01*
X920Y1877D01*
X922Y1877D01*
X922Y1873D01*
X920Y1873D01*
X920Y1863D01*
X918Y1863D01*
X918Y1857D01*
X916Y1857D01*
X916Y1855D01*
X914Y1855D01*
X914Y1851D01*
X912Y1851D01*
X912Y1849D01*
X910Y1849D01*
X910Y1845D01*
X908Y1845D01*
X908Y1843D01*
X906Y1843D01*
X906Y1841D01*
X902Y1841D01*
X902Y1839D01*
X900Y1839D01*
X900Y1837D01*
X898Y1837D01*
X898Y1835D01*
X894Y1835D01*
X894Y1833D01*
X888Y1833D01*
X888Y1831D01*
X1040Y1831D01*
X1040Y1833D01*
X1034Y1833D01*
X1034Y1835D01*
X1030Y1835D01*
X1030Y1837D01*
X1026Y1837D01*
X1026Y1839D01*
X1024Y1839D01*
X1024Y1841D01*
X1022Y1841D01*
X1022Y1843D01*
X1020Y1843D01*
X1020Y1845D01*
X1018Y1845D01*
X1018Y1847D01*
X1016Y1847D01*
X1016Y1849D01*
X1014Y1849D01*
X1014Y1851D01*
X1012Y1851D01*
X1012Y1855D01*
X1010Y1855D01*
X1010Y1859D01*
X1008Y1859D01*
X1008Y1863D01*
X1006Y1863D01*
X1006Y1873D01*
X1004Y1873D01*
X1004Y1879D01*
X1006Y1879D01*
X1006Y1887D01*
X1008Y1887D01*
X1008Y1893D01*
X1010Y1893D01*
X1010Y1897D01*
X1012Y1897D01*
X1012Y1901D01*
X1014Y1901D01*
X1014Y1903D01*
X1016Y1903D01*
X1016Y1905D01*
X1018Y1905D01*
X1018Y1907D01*
X1020Y1907D01*
X1020Y1909D01*
X1022Y1909D01*
X1022Y1911D01*
X1024Y1911D01*
X1024Y1913D01*
X1028Y1913D01*
X1028Y1915D01*
X1030Y1915D01*
X1030Y1917D01*
X1034Y1917D01*
X1034Y1919D01*
X1040Y1919D01*
X1040Y1921D01*
X882Y1921D01*
G37*
D02*
G36*
X882Y1831D02*
X882Y1829D01*
X1162Y1829D01*
X1162Y1831D01*
X882Y1831D01*
G37*
D02*
G36*
X882Y1831D02*
X882Y1829D01*
X1162Y1829D01*
X1162Y1831D01*
X882Y1831D01*
G37*
D02*
G36*
X536Y1829D02*
X536Y1827D01*
X1162Y1827D01*
X1162Y1829D01*
X536Y1829D01*
G37*
D02*
G36*
X536Y1829D02*
X536Y1827D01*
X1162Y1827D01*
X1162Y1829D01*
X536Y1829D01*
G37*
D02*
G36*
X536Y1827D02*
X536Y1801D01*
X1058Y1801D01*
X1058Y1799D01*
X1064Y1799D01*
X1064Y1797D01*
X1068Y1797D01*
X1068Y1795D01*
X1072Y1795D01*
X1072Y1793D01*
X1076Y1793D01*
X1076Y1791D01*
X1078Y1791D01*
X1078Y1789D01*
X1080Y1789D01*
X1080Y1787D01*
X1082Y1787D01*
X1082Y1785D01*
X1084Y1785D01*
X1084Y1783D01*
X1086Y1783D01*
X1086Y1781D01*
X1088Y1781D01*
X1088Y1777D01*
X1090Y1777D01*
X1090Y1773D01*
X1092Y1773D01*
X1092Y1767D01*
X1094Y1767D01*
X1094Y1759D01*
X1096Y1759D01*
X1096Y1751D01*
X1094Y1751D01*
X1094Y1743D01*
X1092Y1743D01*
X1092Y1739D01*
X1090Y1739D01*
X1090Y1735D01*
X1088Y1735D01*
X1088Y1731D01*
X1086Y1731D01*
X1086Y1729D01*
X1084Y1729D01*
X1084Y1727D01*
X1082Y1727D01*
X1082Y1725D01*
X1080Y1725D01*
X1080Y1723D01*
X1078Y1723D01*
X1078Y1721D01*
X1076Y1721D01*
X1076Y1719D01*
X1074Y1719D01*
X1074Y1717D01*
X1070Y1717D01*
X1070Y1715D01*
X1066Y1715D01*
X1066Y1713D01*
X1062Y1713D01*
X1062Y1711D01*
X1162Y1711D01*
X1162Y1827D01*
X536Y1827D01*
G37*
D02*
G36*
X536Y1801D02*
X536Y1305D01*
X540Y1305D01*
X540Y1303D01*
X542Y1303D01*
X542Y1299D01*
X544Y1299D01*
X544Y1297D01*
X546Y1297D01*
X546Y1291D01*
X548Y1291D01*
X548Y1281D01*
X546Y1281D01*
X546Y1277D01*
X544Y1277D01*
X544Y1273D01*
X542Y1273D01*
X542Y1271D01*
X540Y1271D01*
X540Y1269D01*
X538Y1269D01*
X538Y1267D01*
X534Y1267D01*
X534Y1265D01*
X530Y1265D01*
X530Y1263D01*
X684Y1263D01*
X684Y1745D01*
X686Y1745D01*
X686Y1747D01*
X688Y1747D01*
X688Y1749D01*
X690Y1749D01*
X690Y1751D01*
X692Y1751D01*
X692Y1753D01*
X694Y1753D01*
X694Y1755D01*
X696Y1755D01*
X696Y1757D01*
X698Y1757D01*
X698Y1759D01*
X700Y1759D01*
X700Y1761D01*
X702Y1761D01*
X702Y1763D01*
X704Y1763D01*
X704Y1765D01*
X706Y1765D01*
X706Y1767D01*
X708Y1767D01*
X708Y1769D01*
X710Y1769D01*
X710Y1771D01*
X712Y1771D01*
X712Y1773D01*
X714Y1773D01*
X714Y1775D01*
X718Y1775D01*
X718Y1777D01*
X836Y1777D01*
X836Y1779D01*
X838Y1779D01*
X838Y1781D01*
X840Y1781D01*
X840Y1783D01*
X842Y1783D01*
X842Y1787D01*
X846Y1787D01*
X846Y1789D01*
X848Y1789D01*
X848Y1791D01*
X850Y1791D01*
X850Y1793D01*
X854Y1793D01*
X854Y1795D01*
X856Y1795D01*
X856Y1797D01*
X862Y1797D01*
X862Y1799D01*
X870Y1799D01*
X870Y1801D01*
X536Y1801D01*
G37*
D02*
G36*
X880Y1801D02*
X880Y1799D01*
X888Y1799D01*
X888Y1797D01*
X892Y1797D01*
X892Y1795D01*
X896Y1795D01*
X896Y1793D01*
X900Y1793D01*
X900Y1791D01*
X902Y1791D01*
X902Y1789D01*
X904Y1789D01*
X904Y1787D01*
X906Y1787D01*
X906Y1785D01*
X908Y1785D01*
X908Y1783D01*
X910Y1783D01*
X910Y1781D01*
X912Y1781D01*
X912Y1777D01*
X914Y1777D01*
X914Y1775D01*
X916Y1775D01*
X916Y1769D01*
X918Y1769D01*
X918Y1763D01*
X920Y1763D01*
X920Y1745D01*
X918Y1745D01*
X918Y1739D01*
X916Y1739D01*
X916Y1735D01*
X914Y1735D01*
X914Y1731D01*
X912Y1731D01*
X912Y1729D01*
X910Y1729D01*
X910Y1727D01*
X908Y1727D01*
X908Y1725D01*
X906Y1725D01*
X906Y1723D01*
X904Y1723D01*
X904Y1721D01*
X902Y1721D01*
X902Y1719D01*
X900Y1719D01*
X900Y1717D01*
X896Y1717D01*
X896Y1715D01*
X894Y1715D01*
X894Y1713D01*
X888Y1713D01*
X888Y1711D01*
X1038Y1711D01*
X1038Y1713D01*
X1032Y1713D01*
X1032Y1715D01*
X1028Y1715D01*
X1028Y1717D01*
X1026Y1717D01*
X1026Y1719D01*
X1022Y1719D01*
X1022Y1721D01*
X1020Y1721D01*
X1020Y1723D01*
X1018Y1723D01*
X1018Y1725D01*
X1016Y1725D01*
X1016Y1727D01*
X1014Y1727D01*
X1014Y1731D01*
X1012Y1731D01*
X1012Y1733D01*
X1010Y1733D01*
X1010Y1737D01*
X1008Y1737D01*
X1008Y1741D01*
X1006Y1741D01*
X1006Y1747D01*
X1004Y1747D01*
X1004Y1765D01*
X1006Y1765D01*
X1006Y1771D01*
X1008Y1771D01*
X1008Y1775D01*
X1010Y1775D01*
X1010Y1779D01*
X1012Y1779D01*
X1012Y1781D01*
X1014Y1781D01*
X1014Y1783D01*
X1016Y1783D01*
X1016Y1785D01*
X1018Y1785D01*
X1018Y1787D01*
X1020Y1787D01*
X1020Y1789D01*
X1022Y1789D01*
X1022Y1791D01*
X1024Y1791D01*
X1024Y1793D01*
X1026Y1793D01*
X1026Y1795D01*
X1030Y1795D01*
X1030Y1797D01*
X1034Y1797D01*
X1034Y1799D01*
X1040Y1799D01*
X1040Y1801D01*
X880Y1801D01*
G37*
D02*
G36*
X730Y1745D02*
X730Y1743D01*
X728Y1743D01*
X728Y1741D01*
X726Y1741D01*
X726Y1739D01*
X724Y1739D01*
X724Y1737D01*
X722Y1737D01*
X722Y1735D01*
X720Y1735D01*
X720Y1733D01*
X718Y1733D01*
X718Y1731D01*
X716Y1731D01*
X716Y1709D01*
X866Y1709D01*
X866Y1711D01*
X860Y1711D01*
X860Y1713D01*
X856Y1713D01*
X856Y1715D01*
X852Y1715D01*
X852Y1717D01*
X850Y1717D01*
X850Y1719D01*
X846Y1719D01*
X846Y1721D01*
X844Y1721D01*
X844Y1723D01*
X842Y1723D01*
X842Y1725D01*
X840Y1725D01*
X840Y1727D01*
X838Y1727D01*
X838Y1731D01*
X836Y1731D01*
X836Y1733D01*
X834Y1733D01*
X834Y1737D01*
X832Y1737D01*
X832Y1743D01*
X830Y1743D01*
X830Y1745D01*
X730Y1745D01*
G37*
D02*
G36*
X882Y1711D02*
X882Y1709D01*
X1162Y1709D01*
X1162Y1711D01*
X882Y1711D01*
G37*
D02*
G36*
X882Y1711D02*
X882Y1709D01*
X1162Y1709D01*
X1162Y1711D01*
X882Y1711D01*
G37*
D02*
G36*
X716Y1709D02*
X716Y1707D01*
X1162Y1707D01*
X1162Y1709D01*
X716Y1709D01*
G37*
D02*
G36*
X716Y1709D02*
X716Y1707D01*
X1162Y1707D01*
X1162Y1709D01*
X716Y1709D01*
G37*
D02*
G36*
X716Y1707D02*
X716Y1683D01*
X1056Y1683D01*
X1056Y1681D01*
X1064Y1681D01*
X1064Y1679D01*
X1068Y1679D01*
X1068Y1677D01*
X1072Y1677D01*
X1072Y1675D01*
X1074Y1675D01*
X1074Y1673D01*
X1078Y1673D01*
X1078Y1671D01*
X1080Y1671D01*
X1080Y1669D01*
X1082Y1669D01*
X1082Y1667D01*
X1084Y1667D01*
X1084Y1665D01*
X1086Y1665D01*
X1086Y1661D01*
X1088Y1661D01*
X1088Y1659D01*
X1090Y1659D01*
X1090Y1655D01*
X1092Y1655D01*
X1092Y1649D01*
X1094Y1649D01*
X1094Y1641D01*
X1096Y1641D01*
X1096Y1633D01*
X1094Y1633D01*
X1094Y1625D01*
X1092Y1625D01*
X1092Y1619D01*
X1090Y1619D01*
X1090Y1615D01*
X1088Y1615D01*
X1088Y1613D01*
X1086Y1613D01*
X1086Y1611D01*
X1084Y1611D01*
X1084Y1607D01*
X1082Y1607D01*
X1082Y1605D01*
X1080Y1605D01*
X1080Y1603D01*
X1076Y1603D01*
X1076Y1601D01*
X1074Y1601D01*
X1074Y1599D01*
X1072Y1599D01*
X1072Y1597D01*
X1068Y1597D01*
X1068Y1595D01*
X1062Y1595D01*
X1062Y1593D01*
X1056Y1593D01*
X1056Y1591D01*
X1162Y1591D01*
X1162Y1707D01*
X716Y1707D01*
G37*
D02*
G36*
X716Y1683D02*
X716Y1681D01*
X886Y1681D01*
X886Y1679D01*
X892Y1679D01*
X892Y1677D01*
X894Y1677D01*
X894Y1675D01*
X898Y1675D01*
X898Y1673D01*
X902Y1673D01*
X902Y1671D01*
X904Y1671D01*
X904Y1669D01*
X906Y1669D01*
X906Y1667D01*
X908Y1667D01*
X908Y1665D01*
X910Y1665D01*
X910Y1661D01*
X912Y1661D01*
X912Y1659D01*
X914Y1659D01*
X914Y1655D01*
X916Y1655D01*
X916Y1651D01*
X918Y1651D01*
X918Y1645D01*
X920Y1645D01*
X920Y1627D01*
X918Y1627D01*
X918Y1621D01*
X916Y1621D01*
X916Y1617D01*
X914Y1617D01*
X914Y1613D01*
X912Y1613D01*
X912Y1611D01*
X910Y1611D01*
X910Y1609D01*
X908Y1609D01*
X908Y1605D01*
X906Y1605D01*
X906Y1603D01*
X904Y1603D01*
X904Y1601D01*
X900Y1601D01*
X900Y1599D01*
X898Y1599D01*
X898Y1597D01*
X894Y1597D01*
X894Y1595D01*
X890Y1595D01*
X890Y1593D01*
X884Y1593D01*
X884Y1591D01*
X1044Y1591D01*
X1044Y1593D01*
X1036Y1593D01*
X1036Y1595D01*
X1032Y1595D01*
X1032Y1597D01*
X1028Y1597D01*
X1028Y1599D01*
X1024Y1599D01*
X1024Y1601D01*
X1022Y1601D01*
X1022Y1603D01*
X1020Y1603D01*
X1020Y1605D01*
X1018Y1605D01*
X1018Y1607D01*
X1016Y1607D01*
X1016Y1609D01*
X1014Y1609D01*
X1014Y1611D01*
X1012Y1611D01*
X1012Y1615D01*
X1010Y1615D01*
X1010Y1619D01*
X1008Y1619D01*
X1008Y1623D01*
X1006Y1623D01*
X1006Y1629D01*
X1004Y1629D01*
X1004Y1645D01*
X1006Y1645D01*
X1006Y1651D01*
X1008Y1651D01*
X1008Y1657D01*
X1010Y1657D01*
X1010Y1659D01*
X1012Y1659D01*
X1012Y1663D01*
X1014Y1663D01*
X1014Y1665D01*
X1016Y1665D01*
X1016Y1667D01*
X1018Y1667D01*
X1018Y1669D01*
X1020Y1669D01*
X1020Y1671D01*
X1022Y1671D01*
X1022Y1673D01*
X1024Y1673D01*
X1024Y1675D01*
X1028Y1675D01*
X1028Y1677D01*
X1032Y1677D01*
X1032Y1679D01*
X1036Y1679D01*
X1036Y1681D01*
X1042Y1681D01*
X1042Y1683D01*
X716Y1683D01*
G37*
D02*
G36*
X716Y1681D02*
X716Y1619D01*
X736Y1619D01*
X736Y1621D01*
X738Y1621D01*
X738Y1625D01*
X740Y1625D01*
X740Y1627D01*
X742Y1627D01*
X742Y1629D01*
X744Y1629D01*
X744Y1631D01*
X746Y1631D01*
X746Y1633D01*
X748Y1633D01*
X748Y1635D01*
X750Y1635D01*
X750Y1637D01*
X752Y1637D01*
X752Y1639D01*
X754Y1639D01*
X754Y1641D01*
X756Y1641D01*
X756Y1643D01*
X758Y1643D01*
X758Y1645D01*
X760Y1645D01*
X760Y1647D01*
X762Y1647D01*
X762Y1649D01*
X766Y1649D01*
X766Y1651D01*
X770Y1651D01*
X770Y1653D01*
X834Y1653D01*
X834Y1657D01*
X836Y1657D01*
X836Y1661D01*
X838Y1661D01*
X838Y1663D01*
X840Y1663D01*
X840Y1665D01*
X842Y1665D01*
X842Y1667D01*
X844Y1667D01*
X844Y1669D01*
X846Y1669D01*
X846Y1671D01*
X848Y1671D01*
X848Y1673D01*
X850Y1673D01*
X850Y1675D01*
X854Y1675D01*
X854Y1677D01*
X858Y1677D01*
X858Y1679D01*
X864Y1679D01*
X864Y1681D01*
X716Y1681D01*
G37*
D02*
G36*
X780Y1621D02*
X780Y1619D01*
X778Y1619D01*
X778Y1617D01*
X776Y1617D01*
X776Y1615D01*
X774Y1615D01*
X774Y1613D01*
X772Y1613D01*
X772Y1611D01*
X770Y1611D01*
X770Y1609D01*
X768Y1609D01*
X768Y1607D01*
X766Y1607D01*
X766Y1591D01*
X864Y1591D01*
X864Y1593D01*
X858Y1593D01*
X858Y1595D01*
X854Y1595D01*
X854Y1597D01*
X852Y1597D01*
X852Y1599D01*
X848Y1599D01*
X848Y1601D01*
X846Y1601D01*
X846Y1603D01*
X844Y1603D01*
X844Y1605D01*
X842Y1605D01*
X842Y1607D01*
X840Y1607D01*
X840Y1609D01*
X838Y1609D01*
X838Y1611D01*
X836Y1611D01*
X836Y1615D01*
X834Y1615D01*
X834Y1619D01*
X832Y1619D01*
X832Y1621D01*
X780Y1621D01*
G37*
D02*
G36*
X766Y1591D02*
X766Y1589D01*
X1162Y1589D01*
X1162Y1591D01*
X766Y1591D01*
G37*
D02*
G36*
X766Y1591D02*
X766Y1589D01*
X1162Y1589D01*
X1162Y1591D01*
X766Y1591D01*
G37*
D02*
G36*
X766Y1591D02*
X766Y1589D01*
X1162Y1589D01*
X1162Y1591D01*
X766Y1591D01*
G37*
D02*
G36*
X766Y1589D02*
X766Y1565D01*
X1054Y1565D01*
X1054Y1563D01*
X1062Y1563D01*
X1062Y1561D01*
X1068Y1561D01*
X1068Y1559D01*
X1070Y1559D01*
X1070Y1557D01*
X1074Y1557D01*
X1074Y1555D01*
X1076Y1555D01*
X1076Y1553D01*
X1078Y1553D01*
X1078Y1551D01*
X1082Y1551D01*
X1082Y1547D01*
X1084Y1547D01*
X1084Y1545D01*
X1086Y1545D01*
X1086Y1543D01*
X1088Y1543D01*
X1088Y1539D01*
X1090Y1539D01*
X1090Y1537D01*
X1092Y1537D01*
X1092Y1531D01*
X1094Y1531D01*
X1094Y1523D01*
X1096Y1523D01*
X1096Y1515D01*
X1094Y1515D01*
X1094Y1507D01*
X1092Y1507D01*
X1092Y1501D01*
X1090Y1501D01*
X1090Y1497D01*
X1088Y1497D01*
X1088Y1495D01*
X1086Y1495D01*
X1086Y1491D01*
X1084Y1491D01*
X1084Y1489D01*
X1082Y1489D01*
X1082Y1487D01*
X1080Y1487D01*
X1080Y1485D01*
X1078Y1485D01*
X1078Y1483D01*
X1076Y1483D01*
X1076Y1481D01*
X1072Y1481D01*
X1072Y1479D01*
X1068Y1479D01*
X1068Y1477D01*
X1064Y1477D01*
X1064Y1475D01*
X1058Y1475D01*
X1058Y1473D01*
X1162Y1473D01*
X1162Y1589D01*
X766Y1589D01*
G37*
D02*
G36*
X766Y1565D02*
X766Y1563D01*
X884Y1563D01*
X884Y1561D01*
X890Y1561D01*
X890Y1559D01*
X894Y1559D01*
X894Y1557D01*
X898Y1557D01*
X898Y1555D01*
X900Y1555D01*
X900Y1553D01*
X902Y1553D01*
X902Y1551D01*
X906Y1551D01*
X906Y1549D01*
X908Y1549D01*
X908Y1545D01*
X910Y1545D01*
X910Y1543D01*
X912Y1543D01*
X912Y1541D01*
X914Y1541D01*
X914Y1537D01*
X916Y1537D01*
X916Y1533D01*
X918Y1533D01*
X918Y1527D01*
X920Y1527D01*
X920Y1509D01*
X918Y1509D01*
X918Y1503D01*
X916Y1503D01*
X916Y1499D01*
X914Y1499D01*
X914Y1495D01*
X912Y1495D01*
X912Y1491D01*
X910Y1491D01*
X910Y1489D01*
X908Y1489D01*
X908Y1487D01*
X906Y1487D01*
X906Y1485D01*
X904Y1485D01*
X904Y1483D01*
X902Y1483D01*
X902Y1481D01*
X898Y1481D01*
X898Y1479D01*
X896Y1479D01*
X896Y1477D01*
X892Y1477D01*
X892Y1475D01*
X886Y1475D01*
X886Y1473D01*
X1040Y1473D01*
X1040Y1475D01*
X1034Y1475D01*
X1034Y1477D01*
X1030Y1477D01*
X1030Y1479D01*
X1028Y1479D01*
X1028Y1481D01*
X1024Y1481D01*
X1024Y1483D01*
X1022Y1483D01*
X1022Y1485D01*
X1020Y1485D01*
X1020Y1487D01*
X1018Y1487D01*
X1018Y1489D01*
X1016Y1489D01*
X1016Y1491D01*
X1014Y1491D01*
X1014Y1493D01*
X1012Y1493D01*
X1012Y1497D01*
X1010Y1497D01*
X1010Y1499D01*
X1008Y1499D01*
X1008Y1503D01*
X1006Y1503D01*
X1006Y1509D01*
X1004Y1509D01*
X1004Y1527D01*
X1006Y1527D01*
X1006Y1533D01*
X1008Y1533D01*
X1008Y1537D01*
X1010Y1537D01*
X1010Y1541D01*
X1012Y1541D01*
X1012Y1545D01*
X1014Y1545D01*
X1014Y1547D01*
X1016Y1547D01*
X1016Y1549D01*
X1018Y1549D01*
X1018Y1551D01*
X1020Y1551D01*
X1020Y1553D01*
X1022Y1553D01*
X1022Y1555D01*
X1026Y1555D01*
X1026Y1557D01*
X1028Y1557D01*
X1028Y1559D01*
X1032Y1559D01*
X1032Y1561D01*
X1038Y1561D01*
X1038Y1563D01*
X1046Y1563D01*
X1046Y1565D01*
X766Y1565D01*
G37*
D02*
G36*
X766Y1563D02*
X766Y1473D01*
X864Y1473D01*
X864Y1475D01*
X858Y1475D01*
X858Y1477D01*
X854Y1477D01*
X854Y1479D01*
X850Y1479D01*
X850Y1481D01*
X848Y1481D01*
X848Y1483D01*
X846Y1483D01*
X846Y1485D01*
X844Y1485D01*
X844Y1487D01*
X842Y1487D01*
X842Y1489D01*
X840Y1489D01*
X840Y1491D01*
X838Y1491D01*
X838Y1493D01*
X836Y1493D01*
X836Y1497D01*
X834Y1497D01*
X834Y1501D01*
X832Y1501D01*
X832Y1505D01*
X830Y1505D01*
X830Y1517D01*
X828Y1517D01*
X828Y1519D01*
X830Y1519D01*
X830Y1529D01*
X832Y1529D01*
X832Y1535D01*
X834Y1535D01*
X834Y1539D01*
X836Y1539D01*
X836Y1541D01*
X838Y1541D01*
X838Y1545D01*
X840Y1545D01*
X840Y1547D01*
X842Y1547D01*
X842Y1549D01*
X844Y1549D01*
X844Y1551D01*
X846Y1551D01*
X846Y1553D01*
X848Y1553D01*
X848Y1555D01*
X852Y1555D01*
X852Y1557D01*
X856Y1557D01*
X856Y1559D01*
X860Y1559D01*
X860Y1561D01*
X866Y1561D01*
X866Y1563D01*
X766Y1563D01*
G37*
D02*
G36*
X766Y1473D02*
X766Y1471D01*
X1162Y1471D01*
X1162Y1473D01*
X766Y1473D01*
G37*
D02*
G36*
X766Y1473D02*
X766Y1471D01*
X1162Y1471D01*
X1162Y1473D01*
X766Y1473D01*
G37*
D02*
G36*
X766Y1473D02*
X766Y1471D01*
X1162Y1471D01*
X1162Y1473D01*
X766Y1473D01*
G37*
D02*
G36*
X766Y1471D02*
X766Y1445D01*
X1060Y1445D01*
X1060Y1443D01*
X1066Y1443D01*
X1066Y1441D01*
X1070Y1441D01*
X1070Y1439D01*
X1074Y1439D01*
X1074Y1437D01*
X1076Y1437D01*
X1076Y1435D01*
X1078Y1435D01*
X1078Y1433D01*
X1080Y1433D01*
X1080Y1431D01*
X1082Y1431D01*
X1082Y1429D01*
X1084Y1429D01*
X1084Y1427D01*
X1086Y1427D01*
X1086Y1425D01*
X1088Y1425D01*
X1088Y1421D01*
X1090Y1421D01*
X1090Y1417D01*
X1092Y1417D01*
X1092Y1413D01*
X1094Y1413D01*
X1094Y1403D01*
X1096Y1403D01*
X1096Y1397D01*
X1094Y1397D01*
X1094Y1387D01*
X1092Y1387D01*
X1092Y1383D01*
X1090Y1383D01*
X1090Y1379D01*
X1088Y1379D01*
X1088Y1375D01*
X1086Y1375D01*
X1086Y1373D01*
X1084Y1373D01*
X1084Y1371D01*
X1082Y1371D01*
X1082Y1369D01*
X1080Y1369D01*
X1080Y1367D01*
X1078Y1367D01*
X1078Y1365D01*
X1076Y1365D01*
X1076Y1363D01*
X1074Y1363D01*
X1074Y1361D01*
X1070Y1361D01*
X1070Y1359D01*
X1066Y1359D01*
X1066Y1357D01*
X1060Y1357D01*
X1060Y1355D01*
X1162Y1355D01*
X1162Y1471D01*
X766Y1471D01*
G37*
D02*
G36*
X766Y1445D02*
X766Y1353D01*
X868Y1353D01*
X868Y1355D01*
X862Y1355D01*
X862Y1357D01*
X856Y1357D01*
X856Y1359D01*
X852Y1359D01*
X852Y1361D01*
X850Y1361D01*
X850Y1363D01*
X848Y1363D01*
X848Y1365D01*
X844Y1365D01*
X844Y1367D01*
X842Y1367D01*
X842Y1369D01*
X840Y1369D01*
X840Y1373D01*
X838Y1373D01*
X838Y1375D01*
X836Y1375D01*
X836Y1379D01*
X834Y1379D01*
X834Y1381D01*
X832Y1381D01*
X832Y1387D01*
X830Y1387D01*
X830Y1397D01*
X828Y1397D01*
X828Y1401D01*
X830Y1401D01*
X830Y1411D01*
X832Y1411D01*
X832Y1417D01*
X834Y1417D01*
X834Y1419D01*
X836Y1419D01*
X836Y1423D01*
X838Y1423D01*
X838Y1425D01*
X840Y1425D01*
X840Y1429D01*
X842Y1429D01*
X842Y1431D01*
X844Y1431D01*
X844Y1433D01*
X846Y1433D01*
X846Y1435D01*
X850Y1435D01*
X850Y1437D01*
X852Y1437D01*
X852Y1439D01*
X856Y1439D01*
X856Y1441D01*
X860Y1441D01*
X860Y1443D01*
X868Y1443D01*
X868Y1445D01*
X766Y1445D01*
G37*
D02*
G36*
X882Y1445D02*
X882Y1443D01*
X888Y1443D01*
X888Y1441D01*
X894Y1441D01*
X894Y1439D01*
X896Y1439D01*
X896Y1437D01*
X900Y1437D01*
X900Y1435D01*
X902Y1435D01*
X902Y1433D01*
X904Y1433D01*
X904Y1431D01*
X906Y1431D01*
X906Y1429D01*
X908Y1429D01*
X908Y1427D01*
X910Y1427D01*
X910Y1425D01*
X912Y1425D01*
X912Y1421D01*
X914Y1421D01*
X914Y1419D01*
X916Y1419D01*
X916Y1415D01*
X918Y1415D01*
X918Y1409D01*
X920Y1409D01*
X920Y1389D01*
X918Y1389D01*
X918Y1385D01*
X916Y1385D01*
X916Y1379D01*
X914Y1379D01*
X914Y1377D01*
X912Y1377D01*
X912Y1373D01*
X910Y1373D01*
X910Y1371D01*
X908Y1371D01*
X908Y1369D01*
X906Y1369D01*
X906Y1367D01*
X904Y1367D01*
X904Y1365D01*
X902Y1365D01*
X902Y1363D01*
X900Y1363D01*
X900Y1361D01*
X896Y1361D01*
X896Y1359D01*
X892Y1359D01*
X892Y1357D01*
X888Y1357D01*
X888Y1355D01*
X1040Y1355D01*
X1040Y1357D01*
X1034Y1357D01*
X1034Y1359D01*
X1030Y1359D01*
X1030Y1361D01*
X1026Y1361D01*
X1026Y1363D01*
X1024Y1363D01*
X1024Y1365D01*
X1020Y1365D01*
X1020Y1367D01*
X1018Y1367D01*
X1018Y1369D01*
X1016Y1369D01*
X1016Y1373D01*
X1014Y1373D01*
X1014Y1375D01*
X1012Y1375D01*
X1012Y1377D01*
X1010Y1377D01*
X1010Y1381D01*
X1008Y1381D01*
X1008Y1385D01*
X1006Y1385D01*
X1006Y1391D01*
X1004Y1391D01*
X1004Y1409D01*
X1006Y1409D01*
X1006Y1415D01*
X1008Y1415D01*
X1008Y1419D01*
X1010Y1419D01*
X1010Y1423D01*
X1012Y1423D01*
X1012Y1425D01*
X1014Y1425D01*
X1014Y1429D01*
X1016Y1429D01*
X1016Y1431D01*
X1018Y1431D01*
X1018Y1433D01*
X1020Y1433D01*
X1020Y1435D01*
X1024Y1435D01*
X1024Y1437D01*
X1026Y1437D01*
X1026Y1439D01*
X1030Y1439D01*
X1030Y1441D01*
X1034Y1441D01*
X1034Y1443D01*
X1038Y1443D01*
X1038Y1445D01*
X882Y1445D01*
G37*
D02*
G36*
X880Y1355D02*
X880Y1353D01*
X1162Y1353D01*
X1162Y1355D01*
X880Y1355D01*
G37*
D02*
G36*
X880Y1355D02*
X880Y1353D01*
X1162Y1353D01*
X1162Y1355D01*
X880Y1355D01*
G37*
D02*
G36*
X766Y1353D02*
X766Y1351D01*
X1162Y1351D01*
X1162Y1353D01*
X766Y1353D01*
G37*
D02*
G36*
X766Y1353D02*
X766Y1351D01*
X1162Y1351D01*
X1162Y1353D01*
X766Y1353D01*
G37*
D02*
G36*
X766Y1351D02*
X766Y1327D01*
X1058Y1327D01*
X1058Y1325D01*
X1064Y1325D01*
X1064Y1323D01*
X1068Y1323D01*
X1068Y1321D01*
X1072Y1321D01*
X1072Y1319D01*
X1076Y1319D01*
X1076Y1317D01*
X1078Y1317D01*
X1078Y1315D01*
X1080Y1315D01*
X1080Y1313D01*
X1082Y1313D01*
X1082Y1311D01*
X1084Y1311D01*
X1084Y1309D01*
X1086Y1309D01*
X1086Y1307D01*
X1088Y1307D01*
X1088Y1303D01*
X1090Y1303D01*
X1090Y1299D01*
X1146Y1299D01*
X1146Y1301D01*
X1148Y1301D01*
X1148Y1303D01*
X1150Y1303D01*
X1150Y1305D01*
X1152Y1305D01*
X1152Y1307D01*
X1154Y1307D01*
X1154Y1309D01*
X1156Y1309D01*
X1156Y1311D01*
X1158Y1311D01*
X1158Y1313D01*
X1160Y1313D01*
X1160Y1315D01*
X1162Y1315D01*
X1162Y1351D01*
X766Y1351D01*
G37*
D02*
G36*
X766Y1327D02*
X766Y1235D01*
X866Y1235D01*
X866Y1237D01*
X860Y1237D01*
X860Y1239D01*
X856Y1239D01*
X856Y1241D01*
X852Y1241D01*
X852Y1243D01*
X850Y1243D01*
X850Y1245D01*
X846Y1245D01*
X846Y1247D01*
X844Y1247D01*
X844Y1249D01*
X842Y1249D01*
X842Y1251D01*
X840Y1251D01*
X840Y1253D01*
X838Y1253D01*
X838Y1257D01*
X836Y1257D01*
X836Y1259D01*
X834Y1259D01*
X834Y1263D01*
X832Y1263D01*
X832Y1269D01*
X830Y1269D01*
X830Y1279D01*
X828Y1279D01*
X828Y1281D01*
X830Y1281D01*
X830Y1293D01*
X832Y1293D01*
X832Y1297D01*
X834Y1297D01*
X834Y1301D01*
X836Y1301D01*
X836Y1305D01*
X838Y1305D01*
X838Y1307D01*
X840Y1307D01*
X840Y1309D01*
X842Y1309D01*
X842Y1313D01*
X846Y1313D01*
X846Y1315D01*
X848Y1315D01*
X848Y1317D01*
X850Y1317D01*
X850Y1319D01*
X854Y1319D01*
X854Y1321D01*
X856Y1321D01*
X856Y1323D01*
X862Y1323D01*
X862Y1325D01*
X870Y1325D01*
X870Y1327D01*
X766Y1327D01*
G37*
D02*
G36*
X878Y1327D02*
X878Y1325D01*
X886Y1325D01*
X886Y1323D01*
X892Y1323D01*
X892Y1321D01*
X896Y1321D01*
X896Y1319D01*
X900Y1319D01*
X900Y1317D01*
X902Y1317D01*
X902Y1315D01*
X904Y1315D01*
X904Y1313D01*
X906Y1313D01*
X906Y1311D01*
X908Y1311D01*
X908Y1309D01*
X910Y1309D01*
X910Y1307D01*
X912Y1307D01*
X912Y1303D01*
X914Y1303D01*
X914Y1299D01*
X916Y1299D01*
X916Y1295D01*
X918Y1295D01*
X918Y1289D01*
X920Y1289D01*
X920Y1271D01*
X918Y1271D01*
X918Y1265D01*
X916Y1265D01*
X916Y1261D01*
X914Y1261D01*
X914Y1257D01*
X912Y1257D01*
X912Y1255D01*
X910Y1255D01*
X910Y1253D01*
X908Y1253D01*
X908Y1251D01*
X906Y1251D01*
X906Y1249D01*
X904Y1249D01*
X904Y1247D01*
X902Y1247D01*
X902Y1245D01*
X900Y1245D01*
X900Y1243D01*
X898Y1243D01*
X898Y1241D01*
X894Y1241D01*
X894Y1239D01*
X890Y1239D01*
X890Y1237D01*
X884Y1237D01*
X884Y1235D01*
X1048Y1235D01*
X1048Y1237D01*
X1038Y1237D01*
X1038Y1239D01*
X1032Y1239D01*
X1032Y1241D01*
X1028Y1241D01*
X1028Y1243D01*
X1026Y1243D01*
X1026Y1245D01*
X1022Y1245D01*
X1022Y1247D01*
X1020Y1247D01*
X1020Y1249D01*
X1018Y1249D01*
X1018Y1251D01*
X1016Y1251D01*
X1016Y1253D01*
X1014Y1253D01*
X1014Y1255D01*
X1012Y1255D01*
X1012Y1259D01*
X1010Y1259D01*
X1010Y1263D01*
X1008Y1263D01*
X1008Y1267D01*
X1006Y1267D01*
X1006Y1273D01*
X1004Y1273D01*
X1004Y1291D01*
X1006Y1291D01*
X1006Y1297D01*
X1008Y1297D01*
X1008Y1301D01*
X1010Y1301D01*
X1010Y1305D01*
X1012Y1305D01*
X1012Y1307D01*
X1014Y1307D01*
X1014Y1309D01*
X1016Y1309D01*
X1016Y1311D01*
X1018Y1311D01*
X1018Y1313D01*
X1020Y1313D01*
X1020Y1315D01*
X1022Y1315D01*
X1022Y1317D01*
X1024Y1317D01*
X1024Y1319D01*
X1026Y1319D01*
X1026Y1321D01*
X1030Y1321D01*
X1030Y1323D01*
X1034Y1323D01*
X1034Y1325D01*
X1040Y1325D01*
X1040Y1327D01*
X878Y1327D01*
G37*
D02*
G36*
X1094Y1275D02*
X1094Y1273D01*
X1134Y1273D01*
X1134Y1275D01*
X1094Y1275D01*
G37*
D02*
G36*
X1094Y1273D02*
X1094Y1271D01*
X1534Y1271D01*
X1534Y1273D01*
X1094Y1273D01*
G37*
D02*
G36*
X1094Y1273D02*
X1094Y1271D01*
X1534Y1271D01*
X1534Y1273D01*
X1094Y1273D01*
G37*
D02*
G36*
X1094Y1271D02*
X1094Y1269D01*
X1092Y1269D01*
X1092Y1263D01*
X1090Y1263D01*
X1090Y1261D01*
X1088Y1261D01*
X1088Y1257D01*
X1086Y1257D01*
X1086Y1255D01*
X1084Y1255D01*
X1084Y1253D01*
X1082Y1253D01*
X1082Y1249D01*
X1078Y1249D01*
X1078Y1247D01*
X1076Y1247D01*
X1076Y1245D01*
X1074Y1245D01*
X1074Y1243D01*
X1070Y1243D01*
X1070Y1241D01*
X1068Y1241D01*
X1068Y1239D01*
X1062Y1239D01*
X1062Y1237D01*
X1052Y1237D01*
X1052Y1235D01*
X1534Y1235D01*
X1534Y1271D01*
X1094Y1271D01*
G37*
D02*
G36*
X280Y1263D02*
X280Y1261D01*
X684Y1261D01*
X684Y1263D01*
X280Y1263D01*
G37*
D02*
G36*
X280Y1263D02*
X280Y1261D01*
X684Y1261D01*
X684Y1263D01*
X280Y1263D01*
G37*
D02*
G36*
X280Y1261D02*
X280Y1251D01*
X286Y1251D01*
X286Y1249D01*
X292Y1249D01*
X292Y1247D01*
X294Y1247D01*
X294Y1245D01*
X298Y1245D01*
X298Y1243D01*
X300Y1243D01*
X300Y1241D01*
X302Y1241D01*
X302Y1239D01*
X304Y1239D01*
X304Y1237D01*
X306Y1237D01*
X306Y1235D01*
X308Y1235D01*
X308Y1231D01*
X310Y1231D01*
X310Y1227D01*
X312Y1227D01*
X312Y1223D01*
X314Y1223D01*
X314Y1213D01*
X316Y1213D01*
X316Y1209D01*
X314Y1209D01*
X314Y1201D01*
X312Y1201D01*
X312Y1195D01*
X310Y1195D01*
X310Y1191D01*
X308Y1191D01*
X308Y1189D01*
X306Y1189D01*
X306Y1187D01*
X304Y1187D01*
X304Y1183D01*
X300Y1183D01*
X300Y1181D01*
X298Y1181D01*
X298Y1179D01*
X296Y1179D01*
X296Y1177D01*
X292Y1177D01*
X292Y1175D01*
X290Y1175D01*
X290Y1173D01*
X284Y1173D01*
X284Y1171D01*
X280Y1171D01*
X280Y1151D01*
X286Y1151D01*
X286Y1149D01*
X292Y1149D01*
X292Y1147D01*
X294Y1147D01*
X294Y1145D01*
X298Y1145D01*
X298Y1143D01*
X300Y1143D01*
X300Y1141D01*
X302Y1141D01*
X302Y1139D01*
X304Y1139D01*
X304Y1137D01*
X306Y1137D01*
X306Y1135D01*
X308Y1135D01*
X308Y1131D01*
X310Y1131D01*
X310Y1127D01*
X312Y1127D01*
X312Y1123D01*
X314Y1123D01*
X314Y1113D01*
X316Y1113D01*
X316Y1109D01*
X314Y1109D01*
X314Y1101D01*
X312Y1101D01*
X312Y1095D01*
X310Y1095D01*
X310Y1091D01*
X308Y1091D01*
X308Y1089D01*
X306Y1089D01*
X306Y1087D01*
X304Y1087D01*
X304Y1083D01*
X300Y1083D01*
X300Y1081D01*
X298Y1081D01*
X298Y1079D01*
X296Y1079D01*
X296Y1077D01*
X292Y1077D01*
X292Y1075D01*
X290Y1075D01*
X290Y1073D01*
X284Y1073D01*
X284Y1071D01*
X280Y1071D01*
X280Y1051D01*
X286Y1051D01*
X286Y1049D01*
X292Y1049D01*
X292Y1047D01*
X294Y1047D01*
X294Y1045D01*
X298Y1045D01*
X298Y1043D01*
X300Y1043D01*
X300Y1041D01*
X302Y1041D01*
X302Y1039D01*
X304Y1039D01*
X304Y1037D01*
X306Y1037D01*
X306Y1035D01*
X308Y1035D01*
X308Y1031D01*
X310Y1031D01*
X310Y1027D01*
X658Y1027D01*
X658Y1093D01*
X660Y1093D01*
X660Y1097D01*
X662Y1097D01*
X662Y1099D01*
X664Y1099D01*
X664Y1101D01*
X666Y1101D01*
X666Y1103D01*
X668Y1103D01*
X668Y1105D01*
X670Y1105D01*
X670Y1107D01*
X672Y1107D01*
X672Y1109D01*
X674Y1109D01*
X674Y1111D01*
X676Y1111D01*
X676Y1113D01*
X678Y1113D01*
X678Y1115D01*
X680Y1115D01*
X680Y1117D01*
X682Y1117D01*
X682Y1119D01*
X684Y1119D01*
X684Y1261D01*
X280Y1261D01*
G37*
D02*
G36*
X766Y1235D02*
X766Y1233D01*
X1534Y1233D01*
X1534Y1235D01*
X766Y1235D01*
G37*
D02*
G36*
X766Y1235D02*
X766Y1233D01*
X1534Y1233D01*
X1534Y1235D01*
X766Y1235D01*
G37*
D02*
G36*
X766Y1235D02*
X766Y1233D01*
X1534Y1233D01*
X1534Y1235D01*
X766Y1235D01*
G37*
D02*
G36*
X766Y1233D02*
X766Y1211D01*
X1060Y1211D01*
X1060Y1209D01*
X1066Y1209D01*
X1066Y1207D01*
X1070Y1207D01*
X1070Y1205D01*
X1074Y1205D01*
X1074Y1203D01*
X1076Y1203D01*
X1076Y1201D01*
X1080Y1201D01*
X1080Y1199D01*
X1082Y1199D01*
X1082Y1197D01*
X1084Y1197D01*
X1084Y1193D01*
X1086Y1193D01*
X1086Y1191D01*
X1088Y1191D01*
X1088Y1189D01*
X1090Y1189D01*
X1090Y1185D01*
X1092Y1185D01*
X1092Y1181D01*
X1094Y1181D01*
X1094Y1175D01*
X1096Y1175D01*
X1096Y1157D01*
X1094Y1157D01*
X1094Y1151D01*
X1092Y1151D01*
X1092Y1147D01*
X1090Y1147D01*
X1090Y1143D01*
X1088Y1143D01*
X1088Y1141D01*
X1086Y1141D01*
X1086Y1137D01*
X1084Y1137D01*
X1084Y1135D01*
X1082Y1135D01*
X1082Y1133D01*
X1080Y1133D01*
X1080Y1131D01*
X1076Y1131D01*
X1076Y1129D01*
X1074Y1129D01*
X1074Y1127D01*
X1070Y1127D01*
X1070Y1125D01*
X1068Y1125D01*
X1068Y1123D01*
X1062Y1123D01*
X1062Y1121D01*
X1534Y1121D01*
X1534Y1233D01*
X766Y1233D01*
G37*
D02*
G36*
X766Y1211D02*
X766Y1119D01*
X868Y1119D01*
X868Y1121D01*
X862Y1121D01*
X862Y1123D01*
X858Y1123D01*
X858Y1125D01*
X854Y1125D01*
X854Y1127D01*
X850Y1127D01*
X850Y1129D01*
X848Y1129D01*
X848Y1131D01*
X846Y1131D01*
X846Y1133D01*
X844Y1133D01*
X844Y1135D01*
X842Y1135D01*
X842Y1137D01*
X840Y1137D01*
X840Y1139D01*
X838Y1139D01*
X838Y1143D01*
X836Y1143D01*
X836Y1145D01*
X834Y1145D01*
X834Y1151D01*
X832Y1151D01*
X832Y1155D01*
X830Y1155D01*
X830Y1173D01*
X832Y1173D01*
X832Y1179D01*
X834Y1179D01*
X834Y1185D01*
X836Y1185D01*
X836Y1187D01*
X838Y1187D01*
X838Y1191D01*
X840Y1191D01*
X840Y1193D01*
X842Y1193D01*
X842Y1195D01*
X844Y1195D01*
X844Y1197D01*
X846Y1197D01*
X846Y1199D01*
X848Y1199D01*
X848Y1201D01*
X850Y1201D01*
X850Y1203D01*
X854Y1203D01*
X854Y1205D01*
X858Y1205D01*
X858Y1207D01*
X862Y1207D01*
X862Y1209D01*
X868Y1209D01*
X868Y1211D01*
X766Y1211D01*
G37*
D02*
G36*
X882Y1211D02*
X882Y1209D01*
X888Y1209D01*
X888Y1207D01*
X894Y1207D01*
X894Y1205D01*
X898Y1205D01*
X898Y1203D01*
X900Y1203D01*
X900Y1201D01*
X902Y1201D01*
X902Y1199D01*
X906Y1199D01*
X906Y1197D01*
X908Y1197D01*
X908Y1195D01*
X910Y1195D01*
X910Y1191D01*
X912Y1191D01*
X912Y1189D01*
X914Y1189D01*
X914Y1185D01*
X916Y1185D01*
X916Y1183D01*
X918Y1183D01*
X918Y1177D01*
X920Y1177D01*
X920Y1167D01*
X922Y1167D01*
X922Y1163D01*
X920Y1163D01*
X920Y1153D01*
X918Y1153D01*
X918Y1147D01*
X916Y1147D01*
X916Y1143D01*
X914Y1143D01*
X914Y1141D01*
X912Y1141D01*
X912Y1139D01*
X910Y1139D01*
X910Y1135D01*
X908Y1135D01*
X908Y1133D01*
X906Y1133D01*
X906Y1131D01*
X904Y1131D01*
X904Y1129D01*
X900Y1129D01*
X900Y1127D01*
X898Y1127D01*
X898Y1125D01*
X894Y1125D01*
X894Y1123D01*
X890Y1123D01*
X890Y1121D01*
X1040Y1121D01*
X1040Y1123D01*
X1034Y1123D01*
X1034Y1125D01*
X1030Y1125D01*
X1030Y1127D01*
X1026Y1127D01*
X1026Y1129D01*
X1024Y1129D01*
X1024Y1131D01*
X1022Y1131D01*
X1022Y1133D01*
X1020Y1133D01*
X1020Y1135D01*
X1018Y1135D01*
X1018Y1137D01*
X1016Y1137D01*
X1016Y1139D01*
X1014Y1139D01*
X1014Y1141D01*
X1012Y1141D01*
X1012Y1145D01*
X1010Y1145D01*
X1010Y1149D01*
X1008Y1149D01*
X1008Y1153D01*
X1006Y1153D01*
X1006Y1163D01*
X1004Y1163D01*
X1004Y1169D01*
X1006Y1169D01*
X1006Y1177D01*
X1008Y1177D01*
X1008Y1183D01*
X1010Y1183D01*
X1010Y1187D01*
X1012Y1187D01*
X1012Y1191D01*
X1014Y1191D01*
X1014Y1193D01*
X1016Y1193D01*
X1016Y1195D01*
X1018Y1195D01*
X1018Y1197D01*
X1020Y1197D01*
X1020Y1199D01*
X1022Y1199D01*
X1022Y1201D01*
X1024Y1201D01*
X1024Y1203D01*
X1028Y1203D01*
X1028Y1205D01*
X1030Y1205D01*
X1030Y1207D01*
X1034Y1207D01*
X1034Y1209D01*
X1040Y1209D01*
X1040Y1211D01*
X882Y1211D01*
G37*
D02*
G36*
X882Y1121D02*
X882Y1119D01*
X1534Y1119D01*
X1534Y1121D01*
X882Y1121D01*
G37*
D02*
G36*
X882Y1121D02*
X882Y1119D01*
X1534Y1119D01*
X1534Y1121D01*
X882Y1121D01*
G37*
D02*
G36*
X766Y1119D02*
X766Y1117D01*
X1534Y1117D01*
X1534Y1119D01*
X766Y1119D01*
G37*
D02*
G36*
X766Y1119D02*
X766Y1117D01*
X1534Y1117D01*
X1534Y1119D01*
X766Y1119D01*
G37*
D02*
G36*
X766Y1117D02*
X766Y1093D01*
X1058Y1093D01*
X1058Y1091D01*
X1064Y1091D01*
X1064Y1089D01*
X1068Y1089D01*
X1068Y1087D01*
X1072Y1087D01*
X1072Y1085D01*
X1074Y1085D01*
X1074Y1083D01*
X1076Y1083D01*
X1076Y1081D01*
X1078Y1081D01*
X1078Y1079D01*
X1080Y1079D01*
X1080Y1077D01*
X1082Y1077D01*
X1082Y1075D01*
X1084Y1075D01*
X1084Y1073D01*
X1086Y1073D01*
X1086Y1069D01*
X1088Y1069D01*
X1088Y1067D01*
X1090Y1067D01*
X1090Y1061D01*
X1092Y1061D01*
X1092Y1055D01*
X1094Y1055D01*
X1094Y1039D01*
X1092Y1039D01*
X1092Y1033D01*
X1090Y1033D01*
X1090Y1029D01*
X1088Y1029D01*
X1088Y1025D01*
X1086Y1025D01*
X1086Y1023D01*
X1084Y1023D01*
X1084Y1021D01*
X1082Y1021D01*
X1082Y1017D01*
X1080Y1017D01*
X1080Y1015D01*
X1078Y1015D01*
X1078Y1013D01*
X1074Y1013D01*
X1074Y1011D01*
X1072Y1011D01*
X1072Y1009D01*
X1068Y1009D01*
X1068Y1007D01*
X1066Y1007D01*
X1066Y1005D01*
X1060Y1005D01*
X1060Y1003D01*
X1534Y1003D01*
X1534Y1117D01*
X766Y1117D01*
G37*
D02*
G36*
X766Y1093D02*
X766Y1083D01*
X764Y1083D01*
X764Y1079D01*
X762Y1079D01*
X762Y1075D01*
X760Y1075D01*
X760Y1073D01*
X758Y1073D01*
X758Y1071D01*
X756Y1071D01*
X756Y1069D01*
X754Y1069D01*
X754Y1067D01*
X752Y1067D01*
X752Y1065D01*
X750Y1065D01*
X750Y1063D01*
X748Y1063D01*
X748Y1061D01*
X746Y1061D01*
X746Y1059D01*
X744Y1059D01*
X744Y1057D01*
X742Y1057D01*
X742Y1055D01*
X740Y1055D01*
X740Y1005D01*
X760Y1005D01*
X760Y1021D01*
X762Y1021D01*
X762Y1023D01*
X764Y1023D01*
X764Y1025D01*
X766Y1025D01*
X766Y1027D01*
X768Y1027D01*
X768Y1029D01*
X770Y1029D01*
X770Y1031D01*
X772Y1031D01*
X772Y1033D01*
X774Y1033D01*
X774Y1035D01*
X776Y1035D01*
X776Y1037D01*
X778Y1037D01*
X778Y1039D01*
X780Y1039D01*
X780Y1041D01*
X782Y1041D01*
X782Y1043D01*
X784Y1043D01*
X784Y1045D01*
X786Y1045D01*
X786Y1047D01*
X788Y1047D01*
X788Y1049D01*
X790Y1049D01*
X790Y1051D01*
X794Y1051D01*
X794Y1053D01*
X828Y1053D01*
X828Y1057D01*
X830Y1057D01*
X830Y1063D01*
X832Y1063D01*
X832Y1067D01*
X834Y1067D01*
X834Y1071D01*
X836Y1071D01*
X836Y1073D01*
X838Y1073D01*
X838Y1075D01*
X840Y1075D01*
X840Y1077D01*
X842Y1077D01*
X842Y1079D01*
X844Y1079D01*
X844Y1081D01*
X846Y1081D01*
X846Y1083D01*
X848Y1083D01*
X848Y1085D01*
X852Y1085D01*
X852Y1087D01*
X856Y1087D01*
X856Y1089D01*
X860Y1089D01*
X860Y1091D01*
X868Y1091D01*
X868Y1093D01*
X766Y1093D01*
G37*
D02*
G36*
X878Y1093D02*
X878Y1091D01*
X886Y1091D01*
X886Y1089D01*
X892Y1089D01*
X892Y1087D01*
X894Y1087D01*
X894Y1085D01*
X898Y1085D01*
X898Y1083D01*
X900Y1083D01*
X900Y1081D01*
X902Y1081D01*
X902Y1079D01*
X906Y1079D01*
X906Y1075D01*
X908Y1075D01*
X908Y1073D01*
X910Y1073D01*
X910Y1071D01*
X912Y1071D01*
X912Y1067D01*
X914Y1067D01*
X914Y1063D01*
X916Y1063D01*
X916Y1057D01*
X918Y1057D01*
X918Y1035D01*
X916Y1035D01*
X916Y1029D01*
X914Y1029D01*
X914Y1027D01*
X912Y1027D01*
X912Y1023D01*
X910Y1023D01*
X910Y1021D01*
X908Y1021D01*
X908Y1017D01*
X906Y1017D01*
X906Y1015D01*
X904Y1015D01*
X904Y1013D01*
X900Y1013D01*
X900Y1011D01*
X898Y1011D01*
X898Y1009D01*
X896Y1009D01*
X896Y1007D01*
X892Y1007D01*
X892Y1005D01*
X888Y1005D01*
X888Y1003D01*
X1036Y1003D01*
X1036Y1005D01*
X1032Y1005D01*
X1032Y1007D01*
X1028Y1007D01*
X1028Y1009D01*
X1024Y1009D01*
X1024Y1011D01*
X1022Y1011D01*
X1022Y1013D01*
X1020Y1013D01*
X1020Y1015D01*
X1016Y1015D01*
X1016Y1019D01*
X1014Y1019D01*
X1014Y1021D01*
X1012Y1021D01*
X1012Y1023D01*
X1010Y1023D01*
X1010Y1027D01*
X1008Y1027D01*
X1008Y1029D01*
X1006Y1029D01*
X1006Y1035D01*
X1004Y1035D01*
X1004Y1043D01*
X1002Y1043D01*
X1002Y1053D01*
X1004Y1053D01*
X1004Y1061D01*
X1006Y1061D01*
X1006Y1065D01*
X1008Y1065D01*
X1008Y1069D01*
X1010Y1069D01*
X1010Y1073D01*
X1012Y1073D01*
X1012Y1075D01*
X1014Y1075D01*
X1014Y1077D01*
X1016Y1077D01*
X1016Y1079D01*
X1018Y1079D01*
X1018Y1081D01*
X1020Y1081D01*
X1020Y1083D01*
X1022Y1083D01*
X1022Y1085D01*
X1026Y1085D01*
X1026Y1087D01*
X1028Y1087D01*
X1028Y1089D01*
X1032Y1089D01*
X1032Y1091D01*
X1038Y1091D01*
X1038Y1093D01*
X878Y1093D01*
G37*
D02*
G36*
X806Y1021D02*
X806Y1019D01*
X804Y1019D01*
X804Y1017D01*
X802Y1017D01*
X802Y1015D01*
X800Y1015D01*
X800Y1013D01*
X798Y1013D01*
X798Y1011D01*
X796Y1011D01*
X796Y1009D01*
X794Y1009D01*
X794Y1007D01*
X792Y1007D01*
X792Y1001D01*
X866Y1001D01*
X866Y1003D01*
X860Y1003D01*
X860Y1005D01*
X854Y1005D01*
X854Y1007D01*
X852Y1007D01*
X852Y1009D01*
X848Y1009D01*
X848Y1011D01*
X846Y1011D01*
X846Y1013D01*
X844Y1013D01*
X844Y1015D01*
X840Y1015D01*
X840Y1019D01*
X836Y1019D01*
X836Y1021D01*
X806Y1021D01*
G37*
D02*
G36*
X880Y1003D02*
X880Y1001D01*
X1534Y1001D01*
X1534Y1003D01*
X880Y1003D01*
G37*
D02*
G36*
X880Y1003D02*
X880Y1001D01*
X1534Y1001D01*
X1534Y1003D01*
X880Y1003D01*
G37*
D02*
G36*
X790Y1001D02*
X790Y999D01*
X1534Y999D01*
X1534Y1001D01*
X790Y1001D01*
G37*
D02*
G36*
X790Y1001D02*
X790Y999D01*
X1534Y999D01*
X1534Y1001D01*
X790Y1001D01*
G37*
D02*
G36*
X790Y999D02*
X790Y975D01*
X1060Y975D01*
X1060Y973D01*
X1066Y973D01*
X1066Y971D01*
X1070Y971D01*
X1070Y969D01*
X1074Y969D01*
X1074Y967D01*
X1078Y967D01*
X1078Y965D01*
X1080Y965D01*
X1080Y963D01*
X1082Y963D01*
X1082Y961D01*
X1084Y961D01*
X1084Y959D01*
X1086Y959D01*
X1086Y957D01*
X1088Y957D01*
X1088Y953D01*
X1090Y953D01*
X1090Y951D01*
X1092Y951D01*
X1092Y947D01*
X1094Y947D01*
X1094Y941D01*
X1096Y941D01*
X1096Y917D01*
X1094Y917D01*
X1094Y913D01*
X1092Y913D01*
X1092Y909D01*
X1090Y909D01*
X1090Y905D01*
X1088Y905D01*
X1088Y903D01*
X1086Y903D01*
X1086Y901D01*
X1084Y901D01*
X1084Y899D01*
X1082Y899D01*
X1082Y897D01*
X1080Y897D01*
X1080Y895D01*
X1078Y895D01*
X1078Y893D01*
X1076Y893D01*
X1076Y891D01*
X1072Y891D01*
X1072Y889D01*
X1068Y889D01*
X1068Y887D01*
X1064Y887D01*
X1064Y885D01*
X1054Y885D01*
X1054Y883D01*
X1534Y883D01*
X1534Y999D01*
X790Y999D01*
G37*
D02*
G36*
X790Y975D02*
X790Y883D01*
X868Y883D01*
X868Y885D01*
X862Y885D01*
X862Y887D01*
X858Y887D01*
X858Y889D01*
X854Y889D01*
X854Y891D01*
X850Y891D01*
X850Y893D01*
X848Y893D01*
X848Y895D01*
X846Y895D01*
X846Y897D01*
X844Y897D01*
X844Y899D01*
X842Y899D01*
X842Y901D01*
X840Y901D01*
X840Y905D01*
X838Y905D01*
X838Y907D01*
X836Y907D01*
X836Y911D01*
X834Y911D01*
X834Y917D01*
X832Y917D01*
X832Y923D01*
X830Y923D01*
X830Y933D01*
X832Y933D01*
X832Y941D01*
X834Y941D01*
X834Y947D01*
X836Y947D01*
X836Y949D01*
X838Y949D01*
X838Y953D01*
X840Y953D01*
X840Y955D01*
X842Y955D01*
X842Y959D01*
X844Y959D01*
X844Y961D01*
X846Y961D01*
X846Y963D01*
X850Y963D01*
X850Y965D01*
X852Y965D01*
X852Y967D01*
X856Y967D01*
X856Y969D01*
X858Y969D01*
X858Y971D01*
X864Y971D01*
X864Y973D01*
X872Y973D01*
X872Y975D01*
X790Y975D01*
G37*
D02*
G36*
X880Y975D02*
X880Y973D01*
X888Y973D01*
X888Y971D01*
X894Y971D01*
X894Y969D01*
X898Y969D01*
X898Y967D01*
X900Y967D01*
X900Y965D01*
X904Y965D01*
X904Y963D01*
X906Y963D01*
X906Y961D01*
X908Y961D01*
X908Y959D01*
X910Y959D01*
X910Y957D01*
X912Y957D01*
X912Y955D01*
X914Y955D01*
X914Y951D01*
X916Y951D01*
X916Y947D01*
X918Y947D01*
X918Y943D01*
X920Y943D01*
X920Y937D01*
X922Y937D01*
X922Y921D01*
X920Y921D01*
X920Y915D01*
X918Y915D01*
X918Y909D01*
X916Y909D01*
X916Y907D01*
X914Y907D01*
X914Y903D01*
X912Y903D01*
X912Y901D01*
X910Y901D01*
X910Y899D01*
X908Y899D01*
X908Y897D01*
X906Y897D01*
X906Y895D01*
X904Y895D01*
X904Y893D01*
X902Y893D01*
X902Y891D01*
X898Y891D01*
X898Y889D01*
X896Y889D01*
X896Y887D01*
X890Y887D01*
X890Y885D01*
X884Y885D01*
X884Y883D01*
X1050Y883D01*
X1050Y885D01*
X1040Y885D01*
X1040Y887D01*
X1034Y887D01*
X1034Y889D01*
X1030Y889D01*
X1030Y891D01*
X1028Y891D01*
X1028Y893D01*
X1024Y893D01*
X1024Y895D01*
X1022Y895D01*
X1022Y897D01*
X1020Y897D01*
X1020Y899D01*
X1018Y899D01*
X1018Y901D01*
X1016Y901D01*
X1016Y903D01*
X1014Y903D01*
X1014Y907D01*
X1012Y907D01*
X1012Y911D01*
X1010Y911D01*
X1010Y915D01*
X1008Y915D01*
X1008Y919D01*
X1006Y919D01*
X1006Y939D01*
X1008Y939D01*
X1008Y945D01*
X1010Y945D01*
X1010Y949D01*
X1012Y949D01*
X1012Y953D01*
X1014Y953D01*
X1014Y955D01*
X1016Y955D01*
X1016Y957D01*
X1018Y957D01*
X1018Y961D01*
X1020Y961D01*
X1020Y963D01*
X1024Y963D01*
X1024Y965D01*
X1026Y965D01*
X1026Y967D01*
X1028Y967D01*
X1028Y969D01*
X1032Y969D01*
X1032Y971D01*
X1036Y971D01*
X1036Y973D01*
X1042Y973D01*
X1042Y975D01*
X880Y975D01*
G37*
D02*
G36*
X790Y883D02*
X790Y881D01*
X1534Y881D01*
X1534Y883D01*
X790Y883D01*
G37*
D02*
G36*
X790Y883D02*
X790Y881D01*
X1534Y881D01*
X1534Y883D01*
X790Y883D01*
G37*
D02*
G36*
X790Y883D02*
X790Y881D01*
X1534Y881D01*
X1534Y883D01*
X790Y883D01*
G37*
D02*
G36*
X790Y881D02*
X790Y857D01*
X1052Y857D01*
X1052Y855D01*
X1062Y855D01*
X1062Y853D01*
X1068Y853D01*
X1068Y851D01*
X1072Y851D01*
X1072Y849D01*
X1076Y849D01*
X1076Y847D01*
X1078Y847D01*
X1078Y845D01*
X1080Y845D01*
X1080Y843D01*
X1082Y843D01*
X1082Y841D01*
X1084Y841D01*
X1084Y839D01*
X1086Y839D01*
X1086Y837D01*
X1088Y837D01*
X1088Y835D01*
X1090Y835D01*
X1090Y831D01*
X1092Y831D01*
X1092Y827D01*
X1094Y827D01*
X1094Y821D01*
X1096Y821D01*
X1096Y799D01*
X1094Y799D01*
X1094Y793D01*
X1092Y793D01*
X1092Y791D01*
X1090Y791D01*
X1090Y787D01*
X1088Y787D01*
X1088Y785D01*
X1086Y785D01*
X1086Y781D01*
X1084Y781D01*
X1084Y779D01*
X1082Y779D01*
X1082Y777D01*
X1080Y777D01*
X1080Y775D01*
X1076Y775D01*
X1076Y773D01*
X1074Y773D01*
X1074Y771D01*
X1070Y771D01*
X1070Y769D01*
X1066Y769D01*
X1066Y767D01*
X1060Y767D01*
X1060Y765D01*
X1534Y765D01*
X1534Y881D01*
X790Y881D01*
G37*
D02*
G36*
X790Y857D02*
X790Y855D01*
X886Y855D01*
X886Y853D01*
X892Y853D01*
X892Y851D01*
X896Y851D01*
X896Y849D01*
X898Y849D01*
X898Y847D01*
X902Y847D01*
X902Y845D01*
X904Y845D01*
X904Y843D01*
X906Y843D01*
X906Y841D01*
X908Y841D01*
X908Y839D01*
X910Y839D01*
X910Y837D01*
X912Y837D01*
X912Y835D01*
X914Y835D01*
X914Y831D01*
X916Y831D01*
X916Y827D01*
X918Y827D01*
X918Y823D01*
X920Y823D01*
X920Y817D01*
X922Y817D01*
X922Y803D01*
X920Y803D01*
X920Y795D01*
X918Y795D01*
X918Y791D01*
X916Y791D01*
X916Y787D01*
X914Y787D01*
X914Y785D01*
X912Y785D01*
X912Y781D01*
X910Y781D01*
X910Y779D01*
X908Y779D01*
X908Y777D01*
X906Y777D01*
X906Y775D01*
X902Y775D01*
X902Y773D01*
X900Y773D01*
X900Y771D01*
X898Y771D01*
X898Y769D01*
X894Y769D01*
X894Y767D01*
X888Y767D01*
X888Y765D01*
X1042Y765D01*
X1042Y767D01*
X1036Y767D01*
X1036Y769D01*
X1032Y769D01*
X1032Y771D01*
X1028Y771D01*
X1028Y773D01*
X1026Y773D01*
X1026Y775D01*
X1022Y775D01*
X1022Y777D01*
X1020Y777D01*
X1020Y779D01*
X1018Y779D01*
X1018Y781D01*
X1016Y781D01*
X1016Y785D01*
X1014Y785D01*
X1014Y787D01*
X1012Y787D01*
X1012Y791D01*
X1010Y791D01*
X1010Y795D01*
X1008Y795D01*
X1008Y801D01*
X1006Y801D01*
X1006Y821D01*
X1008Y821D01*
X1008Y827D01*
X1010Y827D01*
X1010Y831D01*
X1012Y831D01*
X1012Y833D01*
X1014Y833D01*
X1014Y837D01*
X1016Y837D01*
X1016Y839D01*
X1018Y839D01*
X1018Y841D01*
X1020Y841D01*
X1020Y843D01*
X1022Y843D01*
X1022Y845D01*
X1024Y845D01*
X1024Y847D01*
X1026Y847D01*
X1026Y849D01*
X1030Y849D01*
X1030Y851D01*
X1034Y851D01*
X1034Y853D01*
X1040Y853D01*
X1040Y855D01*
X1050Y855D01*
X1050Y857D01*
X790Y857D01*
G37*
D02*
G36*
X790Y855D02*
X790Y763D01*
X874Y763D01*
X874Y765D01*
X864Y765D01*
X864Y767D01*
X858Y767D01*
X858Y769D01*
X856Y769D01*
X856Y771D01*
X852Y771D01*
X852Y773D01*
X850Y773D01*
X850Y775D01*
X846Y775D01*
X846Y777D01*
X844Y777D01*
X844Y779D01*
X842Y779D01*
X842Y783D01*
X840Y783D01*
X840Y785D01*
X838Y785D01*
X838Y787D01*
X836Y787D01*
X836Y791D01*
X834Y791D01*
X834Y797D01*
X832Y797D01*
X832Y803D01*
X830Y803D01*
X830Y815D01*
X832Y815D01*
X832Y823D01*
X834Y823D01*
X834Y827D01*
X836Y827D01*
X836Y831D01*
X838Y831D01*
X838Y835D01*
X840Y835D01*
X840Y837D01*
X842Y837D01*
X842Y839D01*
X844Y839D01*
X844Y841D01*
X846Y841D01*
X846Y843D01*
X848Y843D01*
X848Y845D01*
X850Y845D01*
X850Y847D01*
X854Y847D01*
X854Y849D01*
X856Y849D01*
X856Y851D01*
X862Y851D01*
X862Y853D01*
X866Y853D01*
X866Y855D01*
X790Y855D01*
G37*
D02*
G36*
X878Y765D02*
X878Y763D01*
X1534Y763D01*
X1534Y765D01*
X878Y765D01*
G37*
D02*
G36*
X878Y765D02*
X878Y763D01*
X1534Y763D01*
X1534Y765D01*
X878Y765D01*
G37*
D02*
G36*
X790Y763D02*
X790Y761D01*
X1534Y761D01*
X1534Y763D01*
X790Y763D01*
G37*
D02*
G36*
X790Y763D02*
X790Y761D01*
X1534Y761D01*
X1534Y763D01*
X790Y763D01*
G37*
D02*
G36*
X790Y761D02*
X790Y719D01*
X1056Y719D01*
X1056Y717D01*
X1064Y717D01*
X1064Y715D01*
X1068Y715D01*
X1068Y713D01*
X1072Y713D01*
X1072Y711D01*
X1076Y711D01*
X1076Y709D01*
X1078Y709D01*
X1078Y707D01*
X1080Y707D01*
X1080Y705D01*
X1082Y705D01*
X1082Y703D01*
X1084Y703D01*
X1084Y701D01*
X1086Y701D01*
X1086Y699D01*
X1088Y699D01*
X1088Y697D01*
X1090Y697D01*
X1090Y693D01*
X1092Y693D01*
X1092Y689D01*
X1094Y689D01*
X1094Y683D01*
X1096Y683D01*
X1096Y661D01*
X1094Y661D01*
X1094Y657D01*
X1092Y657D01*
X1092Y653D01*
X1090Y653D01*
X1090Y649D01*
X1088Y649D01*
X1088Y647D01*
X1086Y647D01*
X1086Y643D01*
X1084Y643D01*
X1084Y641D01*
X1082Y641D01*
X1082Y639D01*
X1078Y639D01*
X1078Y637D01*
X1076Y637D01*
X1076Y635D01*
X1074Y635D01*
X1074Y633D01*
X1070Y633D01*
X1070Y631D01*
X1066Y631D01*
X1066Y629D01*
X1060Y629D01*
X1060Y627D01*
X1534Y627D01*
X1534Y761D01*
X790Y761D01*
G37*
D02*
G36*
X790Y719D02*
X790Y717D01*
X886Y717D01*
X886Y715D01*
X892Y715D01*
X892Y713D01*
X896Y713D01*
X896Y711D01*
X900Y711D01*
X900Y709D01*
X902Y709D01*
X902Y707D01*
X904Y707D01*
X904Y705D01*
X906Y705D01*
X906Y703D01*
X908Y703D01*
X908Y701D01*
X910Y701D01*
X910Y699D01*
X912Y699D01*
X912Y697D01*
X914Y697D01*
X914Y693D01*
X916Y693D01*
X916Y691D01*
X918Y691D01*
X918Y685D01*
X920Y685D01*
X920Y679D01*
X922Y679D01*
X922Y665D01*
X920Y665D01*
X920Y659D01*
X918Y659D01*
X918Y653D01*
X916Y653D01*
X916Y649D01*
X914Y649D01*
X914Y647D01*
X912Y647D01*
X912Y645D01*
X910Y645D01*
X910Y641D01*
X908Y641D01*
X908Y639D01*
X906Y639D01*
X906Y637D01*
X902Y637D01*
X902Y635D01*
X900Y635D01*
X900Y633D01*
X896Y633D01*
X896Y631D01*
X894Y631D01*
X894Y629D01*
X888Y629D01*
X888Y627D01*
X1042Y627D01*
X1042Y629D01*
X1036Y629D01*
X1036Y631D01*
X1032Y631D01*
X1032Y633D01*
X1028Y633D01*
X1028Y635D01*
X1026Y635D01*
X1026Y637D01*
X1024Y637D01*
X1024Y639D01*
X1020Y639D01*
X1020Y641D01*
X1018Y641D01*
X1018Y645D01*
X1016Y645D01*
X1016Y647D01*
X1014Y647D01*
X1014Y649D01*
X1012Y649D01*
X1012Y653D01*
X1010Y653D01*
X1010Y657D01*
X1008Y657D01*
X1008Y663D01*
X1006Y663D01*
X1006Y683D01*
X1008Y683D01*
X1008Y689D01*
X1010Y689D01*
X1010Y693D01*
X1012Y693D01*
X1012Y697D01*
X1014Y697D01*
X1014Y699D01*
X1016Y699D01*
X1016Y701D01*
X1018Y701D01*
X1018Y703D01*
X1020Y703D01*
X1020Y705D01*
X1022Y705D01*
X1022Y707D01*
X1024Y707D01*
X1024Y709D01*
X1026Y709D01*
X1026Y711D01*
X1030Y711D01*
X1030Y713D01*
X1034Y713D01*
X1034Y715D01*
X1038Y715D01*
X1038Y717D01*
X1046Y717D01*
X1046Y719D01*
X790Y719D01*
G37*
D02*
G36*
X790Y717D02*
X790Y627D01*
X864Y627D01*
X864Y629D01*
X860Y629D01*
X860Y631D01*
X856Y631D01*
X856Y633D01*
X852Y633D01*
X852Y635D01*
X850Y635D01*
X850Y637D01*
X848Y637D01*
X848Y639D01*
X844Y639D01*
X844Y641D01*
X842Y641D01*
X842Y645D01*
X840Y645D01*
X840Y647D01*
X838Y647D01*
X838Y651D01*
X836Y651D01*
X836Y653D01*
X834Y653D01*
X834Y659D01*
X832Y659D01*
X832Y665D01*
X830Y665D01*
X830Y679D01*
X832Y679D01*
X832Y685D01*
X834Y685D01*
X834Y689D01*
X836Y689D01*
X836Y693D01*
X838Y693D01*
X838Y697D01*
X840Y697D01*
X840Y699D01*
X842Y699D01*
X842Y701D01*
X844Y701D01*
X844Y703D01*
X846Y703D01*
X846Y705D01*
X848Y705D01*
X848Y707D01*
X850Y707D01*
X850Y709D01*
X852Y709D01*
X852Y711D01*
X856Y711D01*
X856Y713D01*
X860Y713D01*
X860Y715D01*
X866Y715D01*
X866Y717D01*
X790Y717D01*
G37*
D02*
G36*
X790Y627D02*
X790Y625D01*
X1534Y625D01*
X1534Y627D01*
X790Y627D01*
G37*
D02*
G36*
X790Y627D02*
X790Y625D01*
X1534Y625D01*
X1534Y627D01*
X790Y627D01*
G37*
D02*
G36*
X790Y627D02*
X790Y625D01*
X1534Y625D01*
X1534Y627D01*
X790Y627D01*
G37*
D02*
G36*
X790Y625D02*
X790Y581D01*
X1056Y581D01*
X1056Y579D01*
X1064Y579D01*
X1064Y577D01*
X1070Y577D01*
X1070Y575D01*
X1072Y575D01*
X1072Y573D01*
X1076Y573D01*
X1076Y571D01*
X1078Y571D01*
X1078Y569D01*
X1080Y569D01*
X1080Y567D01*
X1082Y567D01*
X1082Y565D01*
X1084Y565D01*
X1084Y563D01*
X1086Y563D01*
X1086Y561D01*
X1088Y561D01*
X1088Y559D01*
X1090Y559D01*
X1090Y555D01*
X1092Y555D01*
X1092Y551D01*
X1094Y551D01*
X1094Y545D01*
X1096Y545D01*
X1096Y525D01*
X1094Y525D01*
X1094Y519D01*
X1092Y519D01*
X1092Y515D01*
X1090Y515D01*
X1090Y511D01*
X1088Y511D01*
X1088Y509D01*
X1086Y509D01*
X1086Y507D01*
X1084Y507D01*
X1084Y503D01*
X1082Y503D01*
X1082Y501D01*
X1078Y501D01*
X1078Y499D01*
X1076Y499D01*
X1076Y497D01*
X1074Y497D01*
X1074Y495D01*
X1070Y495D01*
X1070Y493D01*
X1064Y493D01*
X1064Y491D01*
X1058Y491D01*
X1058Y489D01*
X1534Y489D01*
X1534Y625D01*
X790Y625D01*
G37*
D02*
G36*
X790Y581D02*
X790Y579D01*
X886Y579D01*
X886Y577D01*
X892Y577D01*
X892Y575D01*
X896Y575D01*
X896Y573D01*
X900Y573D01*
X900Y571D01*
X902Y571D01*
X902Y569D01*
X904Y569D01*
X904Y567D01*
X908Y567D01*
X908Y563D01*
X910Y563D01*
X910Y561D01*
X912Y561D01*
X912Y559D01*
X914Y559D01*
X914Y555D01*
X916Y555D01*
X916Y553D01*
X918Y553D01*
X918Y547D01*
X920Y547D01*
X920Y541D01*
X922Y541D01*
X922Y527D01*
X920Y527D01*
X920Y521D01*
X918Y521D01*
X918Y515D01*
X916Y515D01*
X916Y513D01*
X914Y513D01*
X914Y509D01*
X912Y509D01*
X912Y507D01*
X910Y507D01*
X910Y505D01*
X908Y505D01*
X908Y501D01*
X904Y501D01*
X904Y499D01*
X902Y499D01*
X902Y497D01*
X900Y497D01*
X900Y495D01*
X896Y495D01*
X896Y493D01*
X892Y493D01*
X892Y491D01*
X886Y491D01*
X886Y489D01*
X1044Y489D01*
X1044Y491D01*
X1038Y491D01*
X1038Y493D01*
X1032Y493D01*
X1032Y495D01*
X1028Y495D01*
X1028Y497D01*
X1026Y497D01*
X1026Y499D01*
X1024Y499D01*
X1024Y501D01*
X1022Y501D01*
X1022Y503D01*
X1018Y503D01*
X1018Y507D01*
X1016Y507D01*
X1016Y509D01*
X1014Y509D01*
X1014Y511D01*
X1012Y511D01*
X1012Y515D01*
X1010Y515D01*
X1010Y519D01*
X1008Y519D01*
X1008Y525D01*
X1006Y525D01*
X1006Y545D01*
X1008Y545D01*
X1008Y551D01*
X1010Y551D01*
X1010Y555D01*
X1012Y555D01*
X1012Y559D01*
X1014Y559D01*
X1014Y561D01*
X1016Y561D01*
X1016Y563D01*
X1018Y563D01*
X1018Y565D01*
X1020Y565D01*
X1020Y567D01*
X1022Y567D01*
X1022Y569D01*
X1024Y569D01*
X1024Y571D01*
X1026Y571D01*
X1026Y573D01*
X1030Y573D01*
X1030Y575D01*
X1032Y575D01*
X1032Y577D01*
X1038Y577D01*
X1038Y579D01*
X1046Y579D01*
X1046Y581D01*
X790Y581D01*
G37*
D02*
G36*
X790Y579D02*
X790Y557D01*
X788Y557D01*
X788Y553D01*
X786Y553D01*
X786Y551D01*
X784Y551D01*
X784Y549D01*
X782Y549D01*
X782Y547D01*
X780Y547D01*
X780Y545D01*
X778Y545D01*
X778Y543D01*
X776Y543D01*
X776Y539D01*
X774Y539D01*
X774Y537D01*
X772Y537D01*
X772Y535D01*
X770Y535D01*
X770Y533D01*
X768Y533D01*
X768Y531D01*
X766Y531D01*
X766Y529D01*
X764Y529D01*
X764Y527D01*
X762Y527D01*
X762Y525D01*
X760Y525D01*
X760Y523D01*
X756Y523D01*
X756Y521D01*
X832Y521D01*
X832Y527D01*
X830Y527D01*
X830Y541D01*
X832Y541D01*
X832Y547D01*
X834Y547D01*
X834Y553D01*
X836Y553D01*
X836Y555D01*
X838Y555D01*
X838Y559D01*
X840Y559D01*
X840Y561D01*
X842Y561D01*
X842Y563D01*
X844Y563D01*
X844Y565D01*
X846Y565D01*
X846Y567D01*
X848Y567D01*
X848Y569D01*
X850Y569D01*
X850Y571D01*
X852Y571D01*
X852Y573D01*
X856Y573D01*
X856Y575D01*
X860Y575D01*
X860Y577D01*
X866Y577D01*
X866Y579D01*
X790Y579D01*
G37*
D02*
G36*
X66Y555D02*
X66Y521D01*
X118Y521D01*
X118Y523D01*
X114Y523D01*
X114Y525D01*
X112Y525D01*
X112Y527D01*
X110Y527D01*
X110Y529D01*
X108Y529D01*
X108Y531D01*
X106Y531D01*
X106Y533D01*
X104Y533D01*
X104Y535D01*
X102Y535D01*
X102Y537D01*
X100Y537D01*
X100Y539D01*
X98Y539D01*
X98Y541D01*
X96Y541D01*
X96Y543D01*
X94Y543D01*
X94Y545D01*
X92Y545D01*
X92Y547D01*
X90Y547D01*
X90Y549D01*
X88Y549D01*
X88Y551D01*
X86Y551D01*
X86Y555D01*
X66Y555D01*
G37*
D02*
G36*
X66Y521D02*
X66Y519D01*
X834Y519D01*
X834Y521D01*
X66Y521D01*
G37*
D02*
G36*
X66Y521D02*
X66Y519D01*
X834Y519D01*
X834Y521D01*
X66Y521D01*
G37*
D02*
G36*
X66Y519D02*
X66Y489D01*
X866Y489D01*
X866Y491D01*
X860Y491D01*
X860Y493D01*
X856Y493D01*
X856Y495D01*
X852Y495D01*
X852Y497D01*
X850Y497D01*
X850Y499D01*
X848Y499D01*
X848Y501D01*
X844Y501D01*
X844Y505D01*
X842Y505D01*
X842Y507D01*
X840Y507D01*
X840Y509D01*
X838Y509D01*
X838Y513D01*
X836Y513D01*
X836Y515D01*
X834Y515D01*
X834Y519D01*
X66Y519D01*
G37*
D02*
G36*
X66Y489D02*
X66Y487D01*
X1534Y487D01*
X1534Y489D01*
X66Y489D01*
G37*
D02*
G36*
X66Y489D02*
X66Y487D01*
X1534Y487D01*
X1534Y489D01*
X66Y489D01*
G37*
D02*
G36*
X66Y489D02*
X66Y487D01*
X1534Y487D01*
X1534Y489D01*
X66Y489D01*
G37*
D02*
G36*
X66Y487D02*
X66Y383D01*
X1314Y383D01*
X1314Y381D01*
X1322Y381D01*
X1322Y379D01*
X1326Y379D01*
X1326Y377D01*
X1330Y377D01*
X1330Y375D01*
X1334Y375D01*
X1334Y373D01*
X1338Y373D01*
X1338Y371D01*
X1340Y371D01*
X1340Y369D01*
X1344Y369D01*
X1344Y367D01*
X1346Y367D01*
X1346Y365D01*
X1348Y365D01*
X1348Y363D01*
X1350Y363D01*
X1350Y361D01*
X1352Y361D01*
X1352Y359D01*
X1354Y359D01*
X1354Y357D01*
X1356Y357D01*
X1356Y355D01*
X1358Y355D01*
X1358Y351D01*
X1360Y351D01*
X1360Y349D01*
X1362Y349D01*
X1362Y345D01*
X1364Y345D01*
X1364Y341D01*
X1366Y341D01*
X1366Y337D01*
X1368Y337D01*
X1368Y331D01*
X1370Y331D01*
X1370Y323D01*
X1372Y323D01*
X1372Y299D01*
X1370Y299D01*
X1370Y291D01*
X1368Y291D01*
X1368Y285D01*
X1366Y285D01*
X1366Y281D01*
X1364Y281D01*
X1364Y277D01*
X1362Y277D01*
X1362Y273D01*
X1360Y273D01*
X1360Y269D01*
X1358Y269D01*
X1358Y267D01*
X1356Y267D01*
X1356Y265D01*
X1354Y265D01*
X1354Y263D01*
X1352Y263D01*
X1352Y259D01*
X1348Y259D01*
X1348Y257D01*
X1346Y257D01*
X1346Y255D01*
X1344Y255D01*
X1344Y253D01*
X1342Y253D01*
X1342Y251D01*
X1338Y251D01*
X1338Y249D01*
X1336Y249D01*
X1336Y247D01*
X1332Y247D01*
X1332Y245D01*
X1328Y245D01*
X1328Y243D01*
X1322Y243D01*
X1322Y241D01*
X1316Y241D01*
X1316Y239D01*
X1302Y239D01*
X1302Y237D01*
X1534Y237D01*
X1534Y487D01*
X66Y487D01*
G37*
D02*
G36*
X66Y383D02*
X66Y379D01*
X674Y379D01*
X674Y377D01*
X682Y377D01*
X682Y375D01*
X684Y375D01*
X684Y373D01*
X686Y373D01*
X686Y371D01*
X688Y371D01*
X688Y369D01*
X690Y369D01*
X690Y367D01*
X692Y367D01*
X692Y365D01*
X694Y365D01*
X694Y363D01*
X696Y363D01*
X696Y361D01*
X698Y361D01*
X698Y359D01*
X700Y359D01*
X700Y357D01*
X702Y357D01*
X702Y355D01*
X704Y355D01*
X704Y353D01*
X706Y353D01*
X706Y351D01*
X708Y351D01*
X708Y349D01*
X710Y349D01*
X710Y347D01*
X712Y347D01*
X712Y345D01*
X714Y345D01*
X714Y337D01*
X716Y337D01*
X716Y329D01*
X1102Y329D01*
X1102Y327D01*
X1110Y327D01*
X1110Y325D01*
X1116Y325D01*
X1116Y323D01*
X1118Y323D01*
X1118Y321D01*
X1122Y321D01*
X1122Y319D01*
X1124Y319D01*
X1124Y317D01*
X1126Y317D01*
X1126Y315D01*
X1128Y315D01*
X1128Y313D01*
X1130Y313D01*
X1130Y311D01*
X1132Y311D01*
X1132Y309D01*
X1134Y309D01*
X1134Y305D01*
X1136Y305D01*
X1136Y303D01*
X1138Y303D01*
X1138Y297D01*
X1140Y297D01*
X1140Y277D01*
X1138Y277D01*
X1138Y271D01*
X1136Y271D01*
X1136Y267D01*
X1134Y267D01*
X1134Y265D01*
X1132Y265D01*
X1132Y261D01*
X1130Y261D01*
X1130Y259D01*
X1128Y259D01*
X1128Y257D01*
X1126Y257D01*
X1126Y255D01*
X1122Y255D01*
X1122Y253D01*
X1120Y253D01*
X1120Y251D01*
X1116Y251D01*
X1116Y249D01*
X1112Y249D01*
X1112Y247D01*
X1106Y247D01*
X1106Y245D01*
X1266Y245D01*
X1266Y247D01*
X1262Y247D01*
X1262Y249D01*
X1260Y249D01*
X1260Y251D01*
X1256Y251D01*
X1256Y253D01*
X1254Y253D01*
X1254Y255D01*
X1252Y255D01*
X1252Y257D01*
X1250Y257D01*
X1250Y259D01*
X1248Y259D01*
X1248Y261D01*
X1246Y261D01*
X1246Y263D01*
X1244Y263D01*
X1244Y265D01*
X1242Y265D01*
X1242Y267D01*
X1240Y267D01*
X1240Y269D01*
X1238Y269D01*
X1238Y273D01*
X1236Y273D01*
X1236Y277D01*
X1234Y277D01*
X1234Y281D01*
X1232Y281D01*
X1232Y285D01*
X1230Y285D01*
X1230Y291D01*
X1228Y291D01*
X1228Y301D01*
X1226Y301D01*
X1226Y321D01*
X1228Y321D01*
X1228Y331D01*
X1230Y331D01*
X1230Y337D01*
X1232Y337D01*
X1232Y341D01*
X1234Y341D01*
X1234Y345D01*
X1236Y345D01*
X1236Y349D01*
X1238Y349D01*
X1238Y351D01*
X1240Y351D01*
X1240Y355D01*
X1242Y355D01*
X1242Y357D01*
X1244Y357D01*
X1244Y359D01*
X1246Y359D01*
X1246Y361D01*
X1248Y361D01*
X1248Y363D01*
X1250Y363D01*
X1250Y365D01*
X1252Y365D01*
X1252Y367D01*
X1254Y367D01*
X1254Y369D01*
X1258Y369D01*
X1258Y371D01*
X1260Y371D01*
X1260Y373D01*
X1264Y373D01*
X1264Y375D01*
X1268Y375D01*
X1268Y377D01*
X1272Y377D01*
X1272Y379D01*
X1276Y379D01*
X1276Y381D01*
X1284Y381D01*
X1284Y383D01*
X66Y383D01*
G37*
D02*
G36*
X294Y347D02*
X294Y243D01*
X292Y243D01*
X292Y241D01*
X542Y241D01*
X542Y243D01*
X534Y243D01*
X534Y245D01*
X530Y245D01*
X530Y247D01*
X526Y247D01*
X526Y249D01*
X522Y249D01*
X522Y251D01*
X520Y251D01*
X520Y253D01*
X518Y253D01*
X518Y255D01*
X516Y255D01*
X516Y257D01*
X514Y257D01*
X514Y259D01*
X512Y259D01*
X512Y261D01*
X510Y261D01*
X510Y265D01*
X508Y265D01*
X508Y269D01*
X506Y269D01*
X506Y273D01*
X504Y273D01*
X504Y279D01*
X502Y279D01*
X502Y295D01*
X504Y295D01*
X504Y301D01*
X506Y301D01*
X506Y305D01*
X508Y305D01*
X508Y309D01*
X510Y309D01*
X510Y311D01*
X512Y311D01*
X512Y315D01*
X514Y315D01*
X514Y317D01*
X516Y317D01*
X516Y319D01*
X518Y319D01*
X518Y321D01*
X522Y321D01*
X522Y323D01*
X524Y323D01*
X524Y325D01*
X528Y325D01*
X528Y327D01*
X530Y327D01*
X530Y347D01*
X294Y347D01*
G37*
D02*
G36*
X564Y347D02*
X564Y327D01*
X566Y327D01*
X566Y325D01*
X570Y325D01*
X570Y323D01*
X574Y323D01*
X574Y321D01*
X576Y321D01*
X576Y319D01*
X578Y319D01*
X578Y317D01*
X580Y317D01*
X580Y315D01*
X582Y315D01*
X582Y313D01*
X584Y313D01*
X584Y309D01*
X586Y309D01*
X586Y305D01*
X588Y305D01*
X588Y301D01*
X590Y301D01*
X590Y295D01*
X592Y295D01*
X592Y277D01*
X590Y277D01*
X590Y271D01*
X588Y271D01*
X588Y267D01*
X586Y267D01*
X586Y265D01*
X584Y265D01*
X584Y261D01*
X582Y261D01*
X582Y259D01*
X580Y259D01*
X580Y257D01*
X578Y257D01*
X578Y255D01*
X576Y255D01*
X576Y253D01*
X574Y253D01*
X574Y251D01*
X572Y251D01*
X572Y249D01*
X568Y249D01*
X568Y247D01*
X564Y247D01*
X564Y245D01*
X692Y245D01*
X692Y247D01*
X686Y247D01*
X686Y249D01*
X682Y249D01*
X682Y251D01*
X678Y251D01*
X678Y253D01*
X676Y253D01*
X676Y255D01*
X672Y255D01*
X672Y257D01*
X670Y257D01*
X670Y259D01*
X668Y259D01*
X668Y263D01*
X666Y263D01*
X666Y265D01*
X664Y265D01*
X664Y269D01*
X662Y269D01*
X662Y271D01*
X660Y271D01*
X660Y277D01*
X658Y277D01*
X658Y295D01*
X660Y295D01*
X660Y301D01*
X662Y301D01*
X662Y305D01*
X664Y305D01*
X664Y309D01*
X666Y309D01*
X666Y311D01*
X668Y311D01*
X668Y313D01*
X670Y313D01*
X670Y315D01*
X672Y315D01*
X672Y317D01*
X674Y317D01*
X674Y319D01*
X676Y319D01*
X676Y339D01*
X674Y339D01*
X674Y341D01*
X672Y341D01*
X672Y343D01*
X670Y343D01*
X670Y345D01*
X668Y345D01*
X668Y347D01*
X564Y347D01*
G37*
D02*
G36*
X716Y329D02*
X716Y323D01*
X718Y323D01*
X718Y321D01*
X722Y321D01*
X722Y319D01*
X724Y319D01*
X724Y317D01*
X726Y317D01*
X726Y315D01*
X728Y315D01*
X728Y313D01*
X730Y313D01*
X730Y311D01*
X732Y311D01*
X732Y309D01*
X734Y309D01*
X734Y305D01*
X736Y305D01*
X736Y303D01*
X738Y303D01*
X738Y297D01*
X740Y297D01*
X740Y277D01*
X738Y277D01*
X738Y271D01*
X736Y271D01*
X736Y267D01*
X734Y267D01*
X734Y265D01*
X732Y265D01*
X732Y261D01*
X730Y261D01*
X730Y259D01*
X728Y259D01*
X728Y257D01*
X726Y257D01*
X726Y255D01*
X722Y255D01*
X722Y253D01*
X720Y253D01*
X720Y251D01*
X716Y251D01*
X716Y249D01*
X712Y249D01*
X712Y247D01*
X706Y247D01*
X706Y245D01*
X1092Y245D01*
X1092Y247D01*
X1086Y247D01*
X1086Y249D01*
X1082Y249D01*
X1082Y251D01*
X1078Y251D01*
X1078Y253D01*
X1076Y253D01*
X1076Y255D01*
X1072Y255D01*
X1072Y257D01*
X1070Y257D01*
X1070Y259D01*
X1068Y259D01*
X1068Y263D01*
X1066Y263D01*
X1066Y265D01*
X1064Y265D01*
X1064Y269D01*
X1062Y269D01*
X1062Y271D01*
X1060Y271D01*
X1060Y277D01*
X1058Y277D01*
X1058Y295D01*
X1060Y295D01*
X1060Y301D01*
X1062Y301D01*
X1062Y305D01*
X1064Y305D01*
X1064Y309D01*
X1066Y309D01*
X1066Y311D01*
X1068Y311D01*
X1068Y313D01*
X1070Y313D01*
X1070Y315D01*
X1072Y315D01*
X1072Y317D01*
X1074Y317D01*
X1074Y319D01*
X1076Y319D01*
X1076Y321D01*
X1080Y321D01*
X1080Y323D01*
X1082Y323D01*
X1082Y325D01*
X1088Y325D01*
X1088Y327D01*
X1096Y327D01*
X1096Y329D01*
X716Y329D01*
G37*
D02*
G36*
X40Y279D02*
X40Y241D01*
X204Y241D01*
X204Y271D01*
X70Y271D01*
X70Y273D01*
X66Y273D01*
X66Y275D01*
X62Y275D01*
X62Y277D01*
X60Y277D01*
X60Y279D01*
X40Y279D01*
G37*
D02*
G36*
X560Y245D02*
X560Y243D01*
X1270Y243D01*
X1270Y245D01*
X560Y245D01*
G37*
D02*
G36*
X560Y245D02*
X560Y243D01*
X1270Y243D01*
X1270Y245D01*
X560Y245D01*
G37*
D02*
G36*
X560Y245D02*
X560Y243D01*
X1270Y243D01*
X1270Y245D01*
X560Y245D01*
G37*
D02*
G36*
X552Y243D02*
X552Y241D01*
X1276Y241D01*
X1276Y243D01*
X552Y243D01*
G37*
D02*
G36*
X40Y241D02*
X40Y239D01*
X1282Y239D01*
X1282Y241D01*
X40Y241D01*
G37*
D02*
G36*
X40Y241D02*
X40Y239D01*
X1282Y239D01*
X1282Y241D01*
X40Y241D01*
G37*
D02*
G36*
X40Y241D02*
X40Y239D01*
X1282Y239D01*
X1282Y241D01*
X40Y241D01*
G37*
D02*
G36*
X40Y239D02*
X40Y237D01*
X1296Y237D01*
X1296Y239D01*
X40Y239D01*
G37*
D02*
G36*
X40Y237D02*
X40Y235D01*
X1534Y235D01*
X1534Y237D01*
X40Y237D01*
G37*
D02*
G36*
X40Y237D02*
X40Y235D01*
X1534Y235D01*
X1534Y237D01*
X40Y237D01*
G37*
D02*
G36*
X40Y235D02*
X40Y41D01*
X1534Y41D01*
X1534Y235D01*
X40Y235D01*
G37*
D02*
G36*
X824Y2039D02*
X852Y2039D01*
X852Y1992D01*
X824Y1992D01*
X824Y2039D01*
G37*
D02*
G36*
X375Y2869D02*
X420Y2869D01*
X420Y2843D01*
X375Y2843D01*
X375Y2869D01*
G37*
D02*
G36*
X350Y2910D02*
X378Y2910D01*
X378Y2865D01*
X350Y2865D01*
X350Y2910D01*
G37*
D02*
G36*
X416Y2910D02*
X444Y2910D01*
X444Y2865D01*
X416Y2865D01*
X416Y2910D01*
G37*
D02*
G36*
X824Y1901D02*
X852Y1901D01*
X852Y1854D01*
X824Y1854D01*
X824Y1901D01*
G37*
D02*
G36*
X626Y3347D02*
X669Y3347D01*
X669Y3319D01*
X626Y3319D01*
X626Y3347D01*
G37*
D02*
G36*
X602Y3385D02*
X630Y3385D01*
X630Y3342D01*
X602Y3342D01*
X602Y3385D01*
G37*
D02*
G36*
X664Y3385D02*
X690Y3385D01*
X690Y3342D01*
X664Y3342D01*
X664Y3385D01*
G37*
D02*
G36*
X290Y835D02*
X316Y835D01*
X316Y792D01*
X290Y792D01*
X290Y835D01*
G37*
D02*
G36*
X522Y269D02*
X569Y269D01*
X569Y241D01*
X522Y241D01*
X522Y269D01*
G37*
D02*
G36*
X498Y313D02*
X524Y313D01*
X524Y266D01*
X498Y266D01*
X498Y313D01*
G37*
D02*
G04 End of Copper1*
M02*