G04 MADE WITH FRITZING*
G04 WWW.FRITZING.ORG*
G04 DOUBLE SIDED*
G04 HOLES PLATED*
G04 CONTOUR ON CENTER OF CONTOUR VECTOR*
%ASAXBY*%
%FSLAX23Y23*%
%MOIN*%
%OFA0B0*%
%SFA1.0B1.0*%
%ADD10C,0.085433*%
%ADD11C,0.049370*%
%ADD12C,0.085000*%
%ADD13C,0.092000*%
%ADD14C,0.090000*%
%ADD15C,0.084000*%
%ADD16C,0.092672*%
%ADD17C,0.175354*%
%ADD18R,0.092000X0.092000*%
%ADD19R,0.090000X0.090000*%
%ADD20R,0.084000X0.084000*%
%ADD21R,0.001000X0.001000*%
%LNMASK0*%
G90*
G70*
G54D10*
X687Y2287D03*
G54D11*
X649Y2837D03*
G54D12*
X1049Y262D03*
X649Y262D03*
X649Y3362D03*
X649Y2962D03*
G54D13*
X249Y262D03*
X547Y262D03*
G54D10*
X774Y2287D03*
G54D14*
X324Y3387D03*
X324Y3487D03*
X324Y3587D03*
X324Y3687D03*
X399Y2887D03*
X399Y3083D03*
G54D15*
X349Y2512D03*
X349Y2412D03*
X349Y2312D03*
X349Y2212D03*
X349Y2112D03*
X349Y2012D03*
X349Y1912D03*
X349Y1812D03*
X349Y1712D03*
X349Y1612D03*
X349Y1512D03*
X349Y1412D03*
X349Y1312D03*
X349Y1212D03*
X349Y1112D03*
X349Y1012D03*
X349Y912D03*
X349Y812D03*
X349Y712D03*
X349Y612D03*
X249Y2512D03*
X249Y2412D03*
X249Y2312D03*
X249Y2212D03*
X249Y2112D03*
X249Y2012D03*
X249Y1912D03*
X249Y1812D03*
X249Y1712D03*
X249Y1612D03*
X249Y1512D03*
X249Y1412D03*
X249Y1312D03*
X249Y1212D03*
X249Y1112D03*
X249Y1012D03*
X249Y912D03*
X249Y812D03*
X249Y712D03*
X249Y612D03*
G54D16*
X1051Y3464D03*
X1051Y3327D03*
X874Y3327D03*
X1051Y3204D03*
X874Y3204D03*
X1051Y3086D03*
X874Y3086D03*
X1051Y2968D03*
X874Y2968D03*
X1051Y2850D03*
X874Y2850D03*
X1051Y2732D03*
X874Y2732D03*
X1051Y2614D03*
X874Y2614D03*
X1051Y2496D03*
X874Y2496D03*
X1051Y2377D03*
X874Y2377D03*
X1051Y2256D03*
X874Y2256D03*
X1051Y2012D03*
X1051Y1873D03*
X874Y1873D03*
X1051Y1752D03*
X874Y1752D03*
X1051Y1633D03*
X874Y1633D03*
X1051Y1515D03*
X874Y1515D03*
X1051Y1397D03*
X874Y1397D03*
X1051Y1279D03*
X874Y1279D03*
X1051Y1161D03*
X874Y1161D03*
X1051Y1042D03*
X874Y1042D03*
X1051Y925D03*
X874Y925D03*
X1051Y802D03*
X874Y802D03*
X1051Y665D03*
X874Y665D03*
X1051Y527D03*
X874Y527D03*
X874Y3464D03*
X874Y2012D03*
G54D17*
X1276Y3663D03*
X1276Y328D03*
X1276Y2133D03*
G54D16*
X1051Y3464D03*
X1051Y3327D03*
X874Y3327D03*
X1051Y3204D03*
X874Y3204D03*
X1051Y3086D03*
X874Y3086D03*
X1051Y2968D03*
X874Y2968D03*
X1051Y2850D03*
X874Y2850D03*
X1051Y2732D03*
X874Y2732D03*
X1051Y2614D03*
X874Y2614D03*
X1051Y2496D03*
X874Y2496D03*
X1051Y2377D03*
X874Y2377D03*
X1051Y2256D03*
X874Y2256D03*
X1051Y2012D03*
X1051Y1873D03*
X874Y1873D03*
X1051Y1752D03*
X874Y1752D03*
X1051Y1633D03*
X874Y1633D03*
X1051Y1515D03*
X874Y1515D03*
X1051Y1397D03*
X874Y1397D03*
X1051Y1279D03*
X874Y1279D03*
X1051Y1161D03*
X874Y1161D03*
X1051Y1042D03*
X874Y1042D03*
X1051Y925D03*
X874Y925D03*
X1051Y802D03*
X874Y802D03*
X1051Y665D03*
X874Y665D03*
X1051Y527D03*
X874Y527D03*
X874Y3464D03*
X874Y2012D03*
G54D17*
X1276Y3663D03*
X1276Y328D03*
X1276Y2133D03*
G54D10*
X599Y2412D03*
X599Y412D03*
X499Y487D03*
G54D11*
X974Y2087D03*
X949Y2312D03*
X649Y3162D03*
X974Y1687D03*
X974Y1462D03*
G54D18*
X248Y262D03*
G54D19*
X324Y3387D03*
X399Y2887D03*
G54D20*
X249Y2512D03*
G54D21*
X827Y3510D02*
X919Y3510D01*
X827Y3509D02*
X919Y3509D01*
X827Y3508D02*
X919Y3508D01*
X827Y3507D02*
X919Y3507D01*
X827Y3506D02*
X919Y3506D01*
X827Y3505D02*
X919Y3505D01*
X827Y3504D02*
X919Y3504D01*
X827Y3503D02*
X919Y3503D01*
X827Y3502D02*
X919Y3502D01*
X827Y3501D02*
X919Y3501D01*
X827Y3500D02*
X919Y3500D01*
X827Y3499D02*
X919Y3499D01*
X827Y3498D02*
X919Y3498D01*
X827Y3497D02*
X919Y3497D01*
X827Y3496D02*
X919Y3496D01*
X827Y3495D02*
X919Y3495D01*
X827Y3494D02*
X919Y3494D01*
X827Y3493D02*
X919Y3493D01*
X827Y3492D02*
X919Y3492D01*
X827Y3491D02*
X919Y3491D01*
X827Y3490D02*
X919Y3490D01*
X827Y3489D02*
X919Y3489D01*
X827Y3488D02*
X919Y3488D01*
X827Y3487D02*
X919Y3487D01*
X827Y3486D02*
X919Y3486D01*
X827Y3485D02*
X919Y3485D01*
X827Y3484D02*
X919Y3484D01*
X827Y3483D02*
X919Y3483D01*
X827Y3482D02*
X919Y3482D01*
X827Y3481D02*
X867Y3481D01*
X879Y3481D02*
X919Y3481D01*
X827Y3480D02*
X865Y3480D01*
X881Y3480D02*
X919Y3480D01*
X827Y3479D02*
X863Y3479D01*
X883Y3479D02*
X919Y3479D01*
X827Y3478D02*
X862Y3478D01*
X885Y3478D02*
X919Y3478D01*
X827Y3477D02*
X861Y3477D01*
X886Y3477D02*
X919Y3477D01*
X827Y3476D02*
X860Y3476D01*
X887Y3476D02*
X919Y3476D01*
X827Y3475D02*
X859Y3475D01*
X888Y3475D02*
X919Y3475D01*
X827Y3474D02*
X858Y3474D01*
X888Y3474D02*
X919Y3474D01*
X827Y3473D02*
X858Y3473D01*
X889Y3473D02*
X919Y3473D01*
X827Y3472D02*
X857Y3472D01*
X889Y3472D02*
X919Y3472D01*
X827Y3471D02*
X857Y3471D01*
X890Y3471D02*
X919Y3471D01*
X827Y3470D02*
X856Y3470D01*
X890Y3470D02*
X919Y3470D01*
X827Y3469D02*
X856Y3469D01*
X890Y3469D02*
X919Y3469D01*
X827Y3468D02*
X856Y3468D01*
X891Y3468D02*
X919Y3468D01*
X827Y3467D02*
X856Y3467D01*
X891Y3467D02*
X919Y3467D01*
X827Y3466D02*
X856Y3466D01*
X891Y3466D02*
X919Y3466D01*
X827Y3465D02*
X856Y3465D01*
X891Y3465D02*
X919Y3465D01*
X827Y3464D02*
X856Y3464D01*
X891Y3464D02*
X919Y3464D01*
X827Y3463D02*
X856Y3463D01*
X891Y3463D02*
X919Y3463D01*
X827Y3462D02*
X856Y3462D01*
X891Y3462D02*
X919Y3462D01*
X827Y3461D02*
X856Y3461D01*
X891Y3461D02*
X919Y3461D01*
X827Y3460D02*
X856Y3460D01*
X890Y3460D02*
X919Y3460D01*
X827Y3459D02*
X856Y3459D01*
X890Y3459D02*
X919Y3459D01*
X827Y3458D02*
X857Y3458D01*
X890Y3458D02*
X919Y3458D01*
X827Y3457D02*
X857Y3457D01*
X889Y3457D02*
X919Y3457D01*
X827Y3456D02*
X858Y3456D01*
X889Y3456D02*
X919Y3456D01*
X827Y3455D02*
X858Y3455D01*
X888Y3455D02*
X919Y3455D01*
X827Y3454D02*
X859Y3454D01*
X887Y3454D02*
X919Y3454D01*
X827Y3453D02*
X860Y3453D01*
X886Y3453D02*
X919Y3453D01*
X827Y3452D02*
X861Y3452D01*
X885Y3452D02*
X919Y3452D01*
X827Y3451D02*
X862Y3451D01*
X884Y3451D02*
X919Y3451D01*
X827Y3450D02*
X864Y3450D01*
X883Y3450D02*
X919Y3450D01*
X827Y3449D02*
X865Y3449D01*
X881Y3449D02*
X919Y3449D01*
X827Y3448D02*
X868Y3448D01*
X878Y3448D02*
X919Y3448D01*
X827Y3447D02*
X919Y3447D01*
X827Y3446D02*
X919Y3446D01*
X827Y3445D02*
X919Y3445D01*
X827Y3444D02*
X919Y3444D01*
X827Y3443D02*
X919Y3443D01*
X827Y3442D02*
X919Y3442D01*
X827Y3441D02*
X919Y3441D01*
X827Y3440D02*
X919Y3440D01*
X827Y3439D02*
X919Y3439D01*
X827Y3438D02*
X919Y3438D01*
X827Y3437D02*
X919Y3437D01*
X827Y3436D02*
X919Y3436D01*
X827Y3435D02*
X919Y3435D01*
X827Y3434D02*
X919Y3434D01*
X827Y3433D02*
X919Y3433D01*
X827Y3432D02*
X919Y3432D01*
X827Y3431D02*
X919Y3431D01*
X827Y3430D02*
X919Y3430D01*
X827Y3429D02*
X919Y3429D01*
X827Y3428D02*
X919Y3428D01*
X827Y3427D02*
X919Y3427D01*
X827Y3426D02*
X919Y3426D01*
X827Y3425D02*
X919Y3425D01*
X827Y3424D02*
X919Y3424D01*
X827Y3423D02*
X919Y3423D01*
X827Y3422D02*
X919Y3422D01*
X827Y3421D02*
X919Y3421D01*
X827Y3420D02*
X919Y3420D01*
X827Y3419D02*
X919Y3419D01*
X827Y2058D02*
X919Y2058D01*
X827Y2057D02*
X919Y2057D01*
X827Y2056D02*
X919Y2056D01*
X827Y2055D02*
X919Y2055D01*
X827Y2054D02*
X919Y2054D01*
X827Y2053D02*
X919Y2053D01*
X827Y2052D02*
X919Y2052D01*
X827Y2051D02*
X919Y2051D01*
X827Y2050D02*
X919Y2050D01*
X827Y2049D02*
X919Y2049D01*
X827Y2048D02*
X919Y2048D01*
X827Y2047D02*
X919Y2047D01*
X827Y2046D02*
X919Y2046D01*
X827Y2045D02*
X919Y2045D01*
X827Y2044D02*
X919Y2044D01*
X827Y2043D02*
X919Y2043D01*
X827Y2042D02*
X919Y2042D01*
X827Y2041D02*
X919Y2041D01*
X827Y2040D02*
X919Y2040D01*
X827Y2039D02*
X919Y2039D01*
X827Y2038D02*
X919Y2038D01*
X827Y2037D02*
X919Y2037D01*
X827Y2036D02*
X919Y2036D01*
X827Y2035D02*
X919Y2035D01*
X827Y2034D02*
X919Y2034D01*
X827Y2033D02*
X919Y2033D01*
X827Y2032D02*
X919Y2032D01*
X827Y2031D02*
X919Y2031D01*
X827Y2030D02*
X919Y2030D01*
X827Y2029D02*
X869Y2029D01*
X877Y2029D02*
X919Y2029D01*
X827Y2028D02*
X866Y2028D01*
X880Y2028D02*
X919Y2028D01*
X827Y2027D02*
X864Y2027D01*
X882Y2027D02*
X919Y2027D01*
X827Y2026D02*
X863Y2026D01*
X884Y2026D02*
X919Y2026D01*
X827Y2025D02*
X861Y2025D01*
X885Y2025D02*
X919Y2025D01*
X827Y2024D02*
X860Y2024D01*
X886Y2024D02*
X919Y2024D01*
X827Y2023D02*
X859Y2023D01*
X887Y2023D02*
X919Y2023D01*
X827Y2022D02*
X859Y2022D01*
X888Y2022D02*
X919Y2022D01*
X827Y2021D02*
X858Y2021D01*
X888Y2021D02*
X919Y2021D01*
X827Y2020D02*
X857Y2020D01*
X889Y2020D02*
X919Y2020D01*
X827Y2019D02*
X857Y2019D01*
X890Y2019D02*
X919Y2019D01*
X827Y2018D02*
X857Y2018D01*
X890Y2018D02*
X919Y2018D01*
X827Y2017D02*
X856Y2017D01*
X890Y2017D02*
X919Y2017D01*
X827Y2016D02*
X856Y2016D01*
X890Y2016D02*
X919Y2016D01*
X827Y2015D02*
X856Y2015D01*
X891Y2015D02*
X919Y2015D01*
X827Y2014D02*
X856Y2014D01*
X891Y2014D02*
X919Y2014D01*
X827Y2013D02*
X856Y2013D01*
X891Y2013D02*
X919Y2013D01*
X827Y2012D02*
X856Y2012D01*
X891Y2012D02*
X919Y2012D01*
X827Y2011D02*
X856Y2011D01*
X891Y2011D02*
X919Y2011D01*
X827Y2010D02*
X856Y2010D01*
X891Y2010D02*
X919Y2010D01*
X827Y2009D02*
X856Y2009D01*
X891Y2009D02*
X919Y2009D01*
X827Y2008D02*
X856Y2008D01*
X890Y2008D02*
X919Y2008D01*
X827Y2007D02*
X856Y2007D01*
X890Y2007D02*
X919Y2007D01*
X827Y2006D02*
X857Y2006D01*
X890Y2006D02*
X919Y2006D01*
X827Y2005D02*
X857Y2005D01*
X889Y2005D02*
X919Y2005D01*
X827Y2004D02*
X858Y2004D01*
X889Y2004D02*
X919Y2004D01*
X827Y2003D02*
X858Y2003D01*
X888Y2003D02*
X919Y2003D01*
X827Y2002D02*
X859Y2002D01*
X888Y2002D02*
X919Y2002D01*
X827Y2001D02*
X860Y2001D01*
X887Y2001D02*
X919Y2001D01*
X827Y2000D02*
X861Y2000D01*
X886Y2000D02*
X919Y2000D01*
X827Y1999D02*
X862Y1999D01*
X885Y1999D02*
X919Y1999D01*
X827Y1998D02*
X863Y1998D01*
X884Y1998D02*
X919Y1998D01*
X827Y1997D02*
X864Y1997D01*
X882Y1997D02*
X919Y1997D01*
X827Y1996D02*
X867Y1996D01*
X880Y1996D02*
X919Y1996D01*
X827Y1995D02*
X872Y1995D01*
X875Y1995D02*
X919Y1995D01*
X827Y1994D02*
X919Y1994D01*
X827Y1993D02*
X919Y1993D01*
X827Y1992D02*
X919Y1992D01*
X827Y1991D02*
X919Y1991D01*
X827Y1990D02*
X919Y1990D01*
X827Y1989D02*
X919Y1989D01*
X827Y1988D02*
X919Y1988D01*
X827Y1987D02*
X919Y1987D01*
X827Y1986D02*
X919Y1986D01*
X827Y1985D02*
X919Y1985D01*
X827Y1984D02*
X919Y1984D01*
X827Y1983D02*
X919Y1983D01*
X827Y1982D02*
X919Y1982D01*
X827Y1981D02*
X919Y1981D01*
X827Y1980D02*
X919Y1980D01*
X827Y1979D02*
X919Y1979D01*
X827Y1978D02*
X919Y1978D01*
X827Y1977D02*
X919Y1977D01*
X827Y1976D02*
X919Y1976D01*
X827Y1975D02*
X919Y1975D01*
X827Y1974D02*
X919Y1974D01*
X827Y1973D02*
X919Y1973D01*
X827Y1972D02*
X919Y1972D01*
X827Y1971D02*
X919Y1971D01*
X827Y1970D02*
X919Y1970D01*
X827Y1969D02*
X919Y1969D01*
X827Y1968D02*
X919Y1968D01*
X827Y1967D02*
X919Y1967D01*
X828Y1966D02*
X919Y1966D01*
D02*
G04 End of Mask0*
M02*