G04 MADE WITH FRITZING*
G04 WWW.FRITZING.ORG*
G04 DOUBLE SIDED*
G04 HOLES PLATED*
G04 CONTOUR ON CENTER OF CONTOUR VECTOR*
%ASAXBY*%
%FSLAX23Y23*%
%MOIN*%
%OFA0B0*%
%SFA1.0B1.0*%
%ADD10C,0.075000*%
%ADD11C,0.075433*%
%ADD12C,0.039370*%
%ADD13C,0.082000*%
%ADD14C,0.080000*%
%ADD15C,0.074000*%
%ADD16C,0.082672*%
%ADD17C,0.165354*%
%ADD18R,0.082000X0.082000*%
%ADD19R,0.080000X0.080000*%
%ADD20R,0.074000X0.074000*%
%ADD21C,0.008000*%
%ADD22C,0.060000*%
%ADD23C,0.024000*%
%ADD24C,0.016000*%
%ADD25C,0.048000*%
%ADD26R,0.001000X0.001000*%
%LNCOPPER1*%
G90*
G70*
G54D10*
X1258Y3488D03*
X786Y2680D03*
X547Y2013D03*
X1258Y1974D03*
X134Y1835D03*
X632Y1535D03*
X963Y1218D03*
X134Y1109D03*
X1453Y3814D03*
G54D11*
X687Y2287D03*
G54D12*
X649Y2837D03*
G54D10*
X1049Y262D03*
X649Y262D03*
X649Y3362D03*
X649Y2962D03*
G54D13*
X249Y262D03*
X547Y262D03*
G54D11*
X774Y2287D03*
G54D14*
X324Y3387D03*
X324Y3487D03*
X324Y3587D03*
X324Y3687D03*
X399Y2887D03*
X399Y3083D03*
G54D15*
X349Y2512D03*
X349Y2412D03*
X349Y2312D03*
X349Y2212D03*
X349Y2112D03*
X349Y2012D03*
X349Y1912D03*
X349Y1812D03*
X349Y1712D03*
X349Y1612D03*
X349Y1512D03*
X349Y1412D03*
X349Y1312D03*
X349Y1212D03*
X349Y1112D03*
X349Y1012D03*
X349Y912D03*
X349Y812D03*
X349Y712D03*
X349Y612D03*
X249Y2512D03*
X249Y2412D03*
X249Y2312D03*
X249Y2212D03*
X249Y2112D03*
X249Y2012D03*
X249Y1912D03*
X249Y1812D03*
X249Y1712D03*
X249Y1612D03*
X249Y1512D03*
X249Y1412D03*
X249Y1312D03*
X249Y1212D03*
X249Y1112D03*
X249Y1012D03*
X249Y912D03*
X249Y812D03*
X249Y712D03*
X249Y612D03*
G54D16*
X1051Y3464D03*
X1051Y3327D03*
X874Y3327D03*
X1051Y3204D03*
X874Y3204D03*
X1051Y3086D03*
X874Y3086D03*
X1051Y2968D03*
X874Y2968D03*
X1051Y2850D03*
X874Y2850D03*
X1051Y2732D03*
X874Y2732D03*
X1051Y2614D03*
X874Y2614D03*
X1051Y2496D03*
X874Y2496D03*
X1051Y2377D03*
X874Y2377D03*
X1051Y2256D03*
X874Y2256D03*
X1051Y2012D03*
X1051Y1873D03*
X874Y1873D03*
X1051Y1752D03*
X874Y1752D03*
X1051Y1633D03*
X874Y1633D03*
X1051Y1515D03*
X874Y1515D03*
X1051Y1397D03*
X874Y1397D03*
X1051Y1279D03*
X874Y1279D03*
X1051Y1161D03*
X874Y1161D03*
X1051Y1042D03*
X874Y1042D03*
X1051Y925D03*
X874Y925D03*
X1051Y802D03*
X874Y802D03*
X1051Y665D03*
X874Y665D03*
X1051Y527D03*
X874Y527D03*
X874Y3464D03*
X874Y2012D03*
G54D17*
X1276Y3663D03*
X1276Y328D03*
X1276Y2133D03*
G54D11*
X599Y2412D03*
X599Y412D03*
X499Y487D03*
G54D12*
X974Y2087D03*
X949Y2312D03*
X649Y3162D03*
X974Y1687D03*
X974Y1462D03*
G54D18*
X248Y262D03*
G54D19*
X324Y3387D03*
X399Y2887D03*
G54D20*
X249Y2512D03*
G54D21*
X699Y712D02*
X724Y737D01*
D02*
X724Y1312D02*
X749Y1337D01*
D02*
X724Y737D02*
X724Y1312D01*
D02*
X749Y1337D02*
X999Y1337D01*
D02*
X999Y1337D02*
X1033Y1376D01*
D02*
X375Y712D02*
X699Y712D01*
G54D22*
D02*
X474Y2287D02*
X399Y2212D01*
D02*
X399Y2212D02*
X397Y2212D01*
D02*
X641Y2287D02*
X474Y2287D01*
G54D23*
D02*
X749Y2761D02*
X749Y3062D01*
D02*
X124Y2737D02*
X725Y2737D01*
D02*
X725Y2737D02*
X749Y2761D01*
D02*
X774Y3087D02*
X841Y3087D01*
D02*
X749Y3062D02*
X774Y3087D01*
D02*
X99Y2712D02*
X124Y2737D01*
D02*
X1124Y3012D02*
X1074Y3063D01*
D02*
X474Y2162D02*
X1099Y2162D01*
D02*
X450Y1937D02*
X449Y2137D01*
D02*
X1099Y2162D02*
X1124Y2187D01*
D02*
X524Y912D02*
X549Y937D01*
D02*
X574Y1637D02*
X849Y1637D01*
D02*
X549Y1612D02*
X574Y1637D01*
D02*
X849Y1637D02*
X842Y1638D01*
D02*
X380Y912D02*
X524Y912D01*
D02*
X549Y937D02*
X549Y1612D01*
D02*
X1124Y2187D02*
X1124Y3012D01*
D02*
X449Y2137D02*
X474Y2162D01*
D02*
X380Y1911D02*
X425Y1911D01*
D02*
X425Y1911D02*
X450Y1937D01*
D02*
X99Y1937D02*
X99Y2712D01*
D02*
X123Y1914D02*
X99Y1937D01*
D02*
X218Y1912D02*
X123Y1914D01*
D02*
X474Y1037D02*
X474Y1737D01*
G54D21*
D02*
X774Y687D02*
X773Y1024D01*
D02*
X836Y1037D02*
X847Y1038D01*
D02*
X786Y1037D02*
X836Y1037D01*
D02*
X449Y537D02*
X449Y637D01*
D02*
X449Y637D02*
X474Y662D01*
D02*
X424Y512D02*
X449Y537D01*
D02*
X474Y662D02*
X749Y662D01*
D02*
X199Y512D02*
X424Y512D01*
D02*
X174Y687D02*
X174Y537D01*
G54D23*
D02*
X74Y2962D02*
X50Y2937D01*
D02*
X499Y1762D02*
X849Y1762D01*
D02*
X849Y1762D02*
X844Y1764D01*
D02*
X474Y1737D02*
X499Y1762D01*
D02*
X50Y1211D02*
X218Y1212D01*
D02*
X621Y2962D02*
X74Y2962D01*
D02*
X50Y2937D02*
X50Y1211D01*
G54D21*
D02*
X199Y712D02*
X174Y687D01*
D02*
X749Y662D02*
X774Y687D01*
D02*
X174Y537D02*
X199Y512D01*
D02*
X773Y1024D02*
X786Y1037D01*
D02*
X224Y712D02*
X199Y712D01*
G54D23*
D02*
X449Y1012D02*
X474Y1037D01*
D02*
X380Y1012D02*
X449Y1012D01*
D02*
X49Y337D02*
X50Y1211D01*
G54D22*
D02*
X749Y2512D02*
X774Y2487D01*
D02*
X397Y2512D02*
X749Y2512D01*
D02*
X774Y2487D02*
X774Y2332D01*
G54D23*
D02*
X49Y287D02*
X49Y337D01*
D02*
X50Y1211D02*
X218Y1212D01*
D02*
X217Y262D02*
X99Y262D01*
D02*
X99Y262D02*
X49Y287D01*
G54D24*
D02*
X1074Y1287D02*
X1077Y1288D01*
D02*
X1174Y1311D02*
X1149Y1287D01*
D02*
X1149Y1287D02*
X1074Y1287D01*
D02*
X1174Y1912D02*
X1174Y1311D01*
G54D23*
D02*
X624Y337D02*
X49Y337D01*
G54D24*
D02*
X324Y3712D02*
X349Y3737D01*
D02*
X1149Y3737D02*
X1174Y3712D01*
G54D23*
D02*
X649Y312D02*
X624Y337D01*
G54D24*
D02*
X349Y3737D02*
X1149Y3737D01*
D02*
X1174Y3712D02*
X1174Y1912D01*
D02*
X324Y3712D02*
X324Y3712D01*
G54D23*
D02*
X649Y290D02*
X649Y312D01*
G54D22*
D02*
X474Y3086D02*
X476Y3537D01*
D02*
X1024Y3587D02*
X1049Y3562D01*
D02*
X1049Y3562D02*
X1050Y3513D01*
D02*
X525Y3586D02*
X1024Y3587D01*
D02*
X476Y3537D02*
X525Y3586D01*
D02*
X447Y3085D02*
X474Y3086D01*
G54D21*
D02*
X749Y1087D02*
X749Y712D01*
D02*
X762Y1100D02*
X749Y1087D01*
D02*
X749Y712D02*
X724Y687D01*
D02*
X999Y1100D02*
X762Y1100D01*
D02*
X1034Y1140D02*
X999Y1100D01*
D02*
X399Y537D02*
X274Y537D01*
D02*
X424Y562D02*
X399Y537D01*
D02*
X449Y687D02*
X424Y662D01*
D02*
X424Y662D02*
X424Y562D01*
D02*
X724Y687D02*
X449Y687D01*
D02*
X274Y537D02*
X249Y562D01*
D02*
X249Y562D02*
X249Y586D01*
G54D22*
D02*
X397Y2412D02*
X554Y2412D01*
D02*
X1149Y387D02*
X1123Y361D01*
D02*
X1149Y761D02*
X1149Y387D01*
D02*
X1074Y787D02*
X1125Y787D01*
D02*
X1125Y787D02*
X1149Y761D01*
D02*
X1123Y361D02*
X724Y362D01*
D02*
X724Y362D02*
X674Y412D01*
D02*
X674Y412D02*
X645Y412D01*
D02*
X1092Y774D02*
X1074Y787D01*
G54D25*
D02*
X1024Y437D02*
X1039Y485D01*
D02*
X674Y537D02*
X774Y437D01*
D02*
X549Y537D02*
X674Y537D01*
D02*
X774Y437D02*
X1024Y437D01*
D02*
X527Y515D02*
X549Y537D01*
G54D24*
D02*
X949Y3787D02*
X1374Y3787D01*
D02*
X1374Y3787D02*
X1399Y3762D01*
D02*
X274Y3787D02*
X949Y3787D01*
D02*
X1249Y1887D02*
X1224Y1862D01*
D02*
X1374Y1887D02*
X1249Y1887D01*
D02*
X1399Y1912D02*
X1374Y1887D01*
D02*
X1399Y3762D02*
X1399Y1912D01*
D02*
X249Y3762D02*
X274Y3787D01*
D02*
X1224Y1862D02*
X1224Y1187D01*
D02*
X249Y3512D02*
X249Y3762D01*
D02*
X1199Y1162D02*
X1078Y1161D01*
D02*
X1224Y1187D02*
X1199Y1162D01*
D02*
X274Y3487D02*
X249Y3512D01*
D02*
X299Y3487D02*
X274Y3487D01*
G54D21*
D02*
X474Y1811D02*
X799Y1811D01*
D02*
X425Y1761D02*
X474Y1811D01*
D02*
X299Y1762D02*
X425Y1761D01*
D02*
X799Y1811D02*
X853Y1856D01*
D02*
X267Y1730D02*
X299Y1762D01*
D02*
X612Y1575D02*
X974Y1574D01*
D02*
X599Y811D02*
X599Y1562D01*
D02*
X974Y1574D02*
X974Y1475D01*
D02*
X599Y1562D02*
X612Y1575D01*
D02*
X375Y812D02*
X599Y811D01*
D02*
X974Y1574D02*
X974Y1668D01*
G54D23*
D02*
X874Y1906D02*
X874Y1979D01*
D02*
X1051Y1906D02*
X1051Y1979D01*
D02*
X1018Y1873D02*
X907Y1873D01*
D02*
X988Y2073D02*
X1028Y2034D01*
D02*
X959Y2075D02*
X900Y2031D01*
G54D21*
D02*
X425Y1661D02*
X425Y1761D01*
D02*
X299Y1661D02*
X425Y1661D01*
D02*
X267Y1630D02*
X299Y1661D01*
D02*
X425Y1462D02*
X425Y1661D01*
D02*
X299Y1461D02*
X425Y1462D01*
D02*
X267Y1430D02*
X299Y1461D01*
G54D23*
D02*
X975Y1887D02*
X1019Y1879D01*
D02*
X974Y1706D02*
X975Y1887D01*
G36*
X282Y3769D02*
X282Y3767D01*
X280Y3767D01*
X280Y3765D01*
X278Y3765D01*
X278Y3763D01*
X276Y3763D01*
X276Y3761D01*
X274Y3761D01*
X274Y3759D01*
X272Y3759D01*
X272Y3757D01*
X270Y3757D01*
X270Y3755D01*
X268Y3755D01*
X268Y3719D01*
X288Y3719D01*
X288Y3723D01*
X292Y3723D01*
X292Y3725D01*
X294Y3725D01*
X294Y3727D01*
X296Y3727D01*
X296Y3729D01*
X300Y3729D01*
X300Y3731D01*
X304Y3731D01*
X304Y3733D01*
X308Y3733D01*
X308Y3735D01*
X318Y3735D01*
X318Y3737D01*
X326Y3737D01*
X326Y3739D01*
X328Y3739D01*
X328Y3741D01*
X330Y3741D01*
X330Y3743D01*
X332Y3743D01*
X332Y3745D01*
X334Y3745D01*
X334Y3747D01*
X336Y3747D01*
X336Y3749D01*
X338Y3749D01*
X338Y3769D01*
X282Y3769D01*
G37*
D02*
G36*
X1162Y3769D02*
X1162Y3749D01*
X1164Y3749D01*
X1164Y3747D01*
X1166Y3747D01*
X1166Y3745D01*
X1168Y3745D01*
X1168Y3743D01*
X1170Y3743D01*
X1170Y3741D01*
X1172Y3741D01*
X1172Y3739D01*
X1174Y3739D01*
X1174Y3737D01*
X1176Y3737D01*
X1176Y3735D01*
X1178Y3735D01*
X1178Y3733D01*
X1180Y3733D01*
X1180Y3731D01*
X1182Y3731D01*
X1182Y3729D01*
X1184Y3729D01*
X1184Y3727D01*
X1186Y3727D01*
X1186Y3725D01*
X1208Y3725D01*
X1208Y3727D01*
X1210Y3727D01*
X1210Y3729D01*
X1212Y3729D01*
X1212Y3731D01*
X1214Y3731D01*
X1214Y3733D01*
X1216Y3733D01*
X1216Y3735D01*
X1218Y3735D01*
X1218Y3737D01*
X1222Y3737D01*
X1222Y3739D01*
X1224Y3739D01*
X1224Y3741D01*
X1228Y3741D01*
X1228Y3743D01*
X1230Y3743D01*
X1230Y3745D01*
X1234Y3745D01*
X1234Y3747D01*
X1238Y3747D01*
X1238Y3749D01*
X1244Y3749D01*
X1244Y3769D01*
X1162Y3769D01*
G37*
D02*
G36*
X1308Y3769D02*
X1308Y3749D01*
X1312Y3749D01*
X1312Y3747D01*
X1316Y3747D01*
X1316Y3745D01*
X1320Y3745D01*
X1320Y3743D01*
X1324Y3743D01*
X1324Y3741D01*
X1328Y3741D01*
X1328Y3739D01*
X1330Y3739D01*
X1330Y3737D01*
X1332Y3737D01*
X1332Y3735D01*
X1336Y3735D01*
X1336Y3733D01*
X1338Y3733D01*
X1338Y3731D01*
X1340Y3731D01*
X1340Y3729D01*
X1342Y3729D01*
X1342Y3727D01*
X1344Y3727D01*
X1344Y3725D01*
X1346Y3725D01*
X1346Y3723D01*
X1348Y3723D01*
X1348Y3719D01*
X1350Y3719D01*
X1350Y3717D01*
X1352Y3717D01*
X1352Y3715D01*
X1354Y3715D01*
X1354Y3711D01*
X1356Y3711D01*
X1356Y3707D01*
X1358Y3707D01*
X1358Y3703D01*
X1360Y3703D01*
X1360Y3699D01*
X1362Y3699D01*
X1362Y3693D01*
X1382Y3693D01*
X1382Y3755D01*
X1380Y3755D01*
X1380Y3757D01*
X1378Y3757D01*
X1378Y3759D01*
X1376Y3759D01*
X1376Y3761D01*
X1374Y3761D01*
X1374Y3763D01*
X1372Y3763D01*
X1372Y3765D01*
X1370Y3765D01*
X1370Y3767D01*
X1368Y3767D01*
X1368Y3769D01*
X1308Y3769D01*
G37*
D02*
G36*
X1362Y3633D02*
X1362Y3627D01*
X1360Y3627D01*
X1360Y3623D01*
X1358Y3623D01*
X1358Y3619D01*
X1356Y3619D01*
X1356Y3615D01*
X1354Y3615D01*
X1354Y3613D01*
X1352Y3613D01*
X1352Y3609D01*
X1350Y3609D01*
X1350Y3607D01*
X1348Y3607D01*
X1348Y3605D01*
X1346Y3605D01*
X1346Y3601D01*
X1344Y3601D01*
X1344Y3599D01*
X1342Y3599D01*
X1342Y3597D01*
X1340Y3597D01*
X1340Y3595D01*
X1338Y3595D01*
X1338Y3593D01*
X1334Y3593D01*
X1334Y3591D01*
X1332Y3591D01*
X1332Y3589D01*
X1330Y3589D01*
X1330Y3587D01*
X1326Y3587D01*
X1326Y3585D01*
X1324Y3585D01*
X1324Y3583D01*
X1320Y3583D01*
X1320Y3581D01*
X1316Y3581D01*
X1316Y3579D01*
X1312Y3579D01*
X1312Y3577D01*
X1306Y3577D01*
X1306Y3575D01*
X1300Y3575D01*
X1300Y3573D01*
X1292Y3573D01*
X1292Y3571D01*
X1382Y3571D01*
X1382Y3633D01*
X1362Y3633D01*
G37*
D02*
G36*
X1192Y3597D02*
X1192Y3571D01*
X1260Y3571D01*
X1260Y3573D01*
X1252Y3573D01*
X1252Y3575D01*
X1246Y3575D01*
X1246Y3577D01*
X1240Y3577D01*
X1240Y3579D01*
X1236Y3579D01*
X1236Y3581D01*
X1232Y3581D01*
X1232Y3583D01*
X1228Y3583D01*
X1228Y3585D01*
X1224Y3585D01*
X1224Y3587D01*
X1222Y3587D01*
X1222Y3589D01*
X1220Y3589D01*
X1220Y3591D01*
X1216Y3591D01*
X1216Y3593D01*
X1214Y3593D01*
X1214Y3595D01*
X1212Y3595D01*
X1212Y3597D01*
X1192Y3597D01*
G37*
D02*
G36*
X1192Y3571D02*
X1192Y3569D01*
X1382Y3569D01*
X1382Y3571D01*
X1192Y3571D01*
G37*
D02*
G36*
X1192Y3571D02*
X1192Y3569D01*
X1382Y3569D01*
X1382Y3571D01*
X1192Y3571D01*
G37*
D02*
G36*
X1192Y3569D02*
X1192Y2225D01*
X1294Y2225D01*
X1294Y2223D01*
X1302Y2223D01*
X1302Y2221D01*
X1308Y2221D01*
X1308Y2219D01*
X1312Y2219D01*
X1312Y2217D01*
X1316Y2217D01*
X1316Y2215D01*
X1320Y2215D01*
X1320Y2213D01*
X1324Y2213D01*
X1324Y2211D01*
X1328Y2211D01*
X1328Y2209D01*
X1330Y2209D01*
X1330Y2207D01*
X1332Y2207D01*
X1332Y2205D01*
X1336Y2205D01*
X1336Y2203D01*
X1338Y2203D01*
X1338Y2201D01*
X1340Y2201D01*
X1340Y2199D01*
X1342Y2199D01*
X1342Y2197D01*
X1344Y2197D01*
X1344Y2195D01*
X1346Y2195D01*
X1346Y2193D01*
X1348Y2193D01*
X1348Y2189D01*
X1350Y2189D01*
X1350Y2187D01*
X1352Y2187D01*
X1352Y2185D01*
X1354Y2185D01*
X1354Y2181D01*
X1356Y2181D01*
X1356Y2177D01*
X1358Y2177D01*
X1358Y2173D01*
X1360Y2173D01*
X1360Y2169D01*
X1362Y2169D01*
X1362Y2163D01*
X1382Y2163D01*
X1382Y3569D01*
X1192Y3569D01*
G37*
D02*
G36*
X1192Y2225D02*
X1192Y2199D01*
X1212Y2199D01*
X1212Y2201D01*
X1214Y2201D01*
X1214Y2203D01*
X1216Y2203D01*
X1216Y2205D01*
X1218Y2205D01*
X1218Y2207D01*
X1222Y2207D01*
X1222Y2209D01*
X1224Y2209D01*
X1224Y2211D01*
X1228Y2211D01*
X1228Y2213D01*
X1230Y2213D01*
X1230Y2215D01*
X1234Y2215D01*
X1234Y2217D01*
X1238Y2217D01*
X1238Y2219D01*
X1244Y2219D01*
X1244Y2221D01*
X1250Y2221D01*
X1250Y2223D01*
X1258Y2223D01*
X1258Y2225D01*
X1192Y2225D01*
G37*
D02*
G36*
X782Y3065D02*
X782Y3063D01*
X780Y3063D01*
X780Y3061D01*
X778Y3061D01*
X778Y3059D01*
X776Y3059D01*
X776Y3057D01*
X774Y3057D01*
X774Y3055D01*
X772Y3055D01*
X772Y2759D01*
X770Y2759D01*
X770Y2751D01*
X768Y2751D01*
X768Y2747D01*
X766Y2747D01*
X766Y2745D01*
X764Y2745D01*
X764Y2743D01*
X762Y2743D01*
X762Y2741D01*
X760Y2741D01*
X760Y2739D01*
X758Y2739D01*
X758Y2737D01*
X756Y2737D01*
X756Y2735D01*
X754Y2735D01*
X754Y2733D01*
X752Y2733D01*
X752Y2731D01*
X750Y2731D01*
X750Y2729D01*
X748Y2729D01*
X748Y2727D01*
X746Y2727D01*
X746Y2725D01*
X744Y2725D01*
X744Y2723D01*
X742Y2723D01*
X742Y2721D01*
X740Y2721D01*
X740Y2719D01*
X736Y2719D01*
X736Y2717D01*
X732Y2717D01*
X732Y2715D01*
X132Y2715D01*
X132Y2713D01*
X130Y2713D01*
X130Y2711D01*
X128Y2711D01*
X128Y2709D01*
X126Y2709D01*
X126Y2707D01*
X124Y2707D01*
X124Y2705D01*
X122Y2705D01*
X122Y2559D01*
X356Y2559D01*
X356Y2557D01*
X364Y2557D01*
X364Y2555D01*
X370Y2555D01*
X370Y2553D01*
X372Y2553D01*
X372Y2551D01*
X760Y2551D01*
X760Y2549D01*
X766Y2549D01*
X766Y2547D01*
X770Y2547D01*
X770Y2545D01*
X772Y2545D01*
X772Y2543D01*
X774Y2543D01*
X774Y2541D01*
X778Y2541D01*
X778Y2539D01*
X780Y2539D01*
X780Y2537D01*
X782Y2537D01*
X782Y2535D01*
X784Y2535D01*
X784Y2533D01*
X786Y2533D01*
X786Y2531D01*
X788Y2531D01*
X788Y2529D01*
X790Y2529D01*
X790Y2527D01*
X792Y2527D01*
X792Y2525D01*
X794Y2525D01*
X794Y2523D01*
X796Y2523D01*
X796Y2521D01*
X798Y2521D01*
X798Y2519D01*
X800Y2519D01*
X800Y2517D01*
X802Y2517D01*
X802Y2515D01*
X804Y2515D01*
X804Y2511D01*
X826Y2511D01*
X826Y2517D01*
X828Y2517D01*
X828Y2519D01*
X830Y2519D01*
X830Y2523D01*
X832Y2523D01*
X832Y2527D01*
X834Y2527D01*
X834Y2529D01*
X836Y2529D01*
X836Y2531D01*
X838Y2531D01*
X838Y2533D01*
X840Y2533D01*
X840Y2535D01*
X842Y2535D01*
X842Y2537D01*
X846Y2537D01*
X846Y2539D01*
X848Y2539D01*
X848Y2541D01*
X852Y2541D01*
X852Y2543D01*
X856Y2543D01*
X856Y2545D01*
X862Y2545D01*
X862Y2565D01*
X856Y2565D01*
X856Y2567D01*
X852Y2567D01*
X852Y2569D01*
X848Y2569D01*
X848Y2571D01*
X844Y2571D01*
X844Y2573D01*
X842Y2573D01*
X842Y2575D01*
X840Y2575D01*
X840Y2577D01*
X838Y2577D01*
X838Y2579D01*
X836Y2579D01*
X836Y2581D01*
X834Y2581D01*
X834Y2583D01*
X832Y2583D01*
X832Y2587D01*
X830Y2587D01*
X830Y2589D01*
X828Y2589D01*
X828Y2593D01*
X826Y2593D01*
X826Y2599D01*
X824Y2599D01*
X824Y2611D01*
X822Y2611D01*
X822Y2617D01*
X824Y2617D01*
X824Y2629D01*
X826Y2629D01*
X826Y2633D01*
X828Y2633D01*
X828Y2637D01*
X830Y2637D01*
X830Y2641D01*
X832Y2641D01*
X832Y2645D01*
X834Y2645D01*
X834Y2647D01*
X836Y2647D01*
X836Y2649D01*
X838Y2649D01*
X838Y2651D01*
X840Y2651D01*
X840Y2653D01*
X842Y2653D01*
X842Y2655D01*
X846Y2655D01*
X846Y2657D01*
X848Y2657D01*
X848Y2659D01*
X852Y2659D01*
X852Y2661D01*
X858Y2661D01*
X858Y2663D01*
X862Y2663D01*
X862Y2683D01*
X854Y2683D01*
X854Y2685D01*
X852Y2685D01*
X852Y2687D01*
X848Y2687D01*
X848Y2689D01*
X844Y2689D01*
X844Y2691D01*
X842Y2691D01*
X842Y2693D01*
X840Y2693D01*
X840Y2695D01*
X838Y2695D01*
X838Y2697D01*
X836Y2697D01*
X836Y2699D01*
X834Y2699D01*
X834Y2701D01*
X832Y2701D01*
X832Y2705D01*
X830Y2705D01*
X830Y2707D01*
X828Y2707D01*
X828Y2711D01*
X826Y2711D01*
X826Y2717D01*
X824Y2717D01*
X824Y2729D01*
X822Y2729D01*
X822Y2735D01*
X824Y2735D01*
X824Y2747D01*
X826Y2747D01*
X826Y2751D01*
X828Y2751D01*
X828Y2755D01*
X830Y2755D01*
X830Y2759D01*
X832Y2759D01*
X832Y2761D01*
X834Y2761D01*
X834Y2765D01*
X836Y2765D01*
X836Y2767D01*
X838Y2767D01*
X838Y2769D01*
X840Y2769D01*
X840Y2771D01*
X842Y2771D01*
X842Y2773D01*
X846Y2773D01*
X846Y2775D01*
X848Y2775D01*
X848Y2777D01*
X852Y2777D01*
X852Y2779D01*
X858Y2779D01*
X858Y2781D01*
X862Y2781D01*
X862Y2801D01*
X856Y2801D01*
X856Y2803D01*
X852Y2803D01*
X852Y2805D01*
X848Y2805D01*
X848Y2807D01*
X844Y2807D01*
X844Y2809D01*
X842Y2809D01*
X842Y2811D01*
X840Y2811D01*
X840Y2813D01*
X838Y2813D01*
X838Y2815D01*
X836Y2815D01*
X836Y2817D01*
X834Y2817D01*
X834Y2819D01*
X832Y2819D01*
X832Y2823D01*
X830Y2823D01*
X830Y2827D01*
X828Y2827D01*
X828Y2829D01*
X826Y2829D01*
X826Y2835D01*
X824Y2835D01*
X824Y2847D01*
X822Y2847D01*
X822Y2853D01*
X824Y2853D01*
X824Y2865D01*
X826Y2865D01*
X826Y2871D01*
X828Y2871D01*
X828Y2873D01*
X830Y2873D01*
X830Y2877D01*
X832Y2877D01*
X832Y2881D01*
X834Y2881D01*
X834Y2883D01*
X836Y2883D01*
X836Y2885D01*
X838Y2885D01*
X838Y2887D01*
X840Y2887D01*
X840Y2889D01*
X842Y2889D01*
X842Y2891D01*
X844Y2891D01*
X844Y2893D01*
X848Y2893D01*
X848Y2895D01*
X852Y2895D01*
X852Y2897D01*
X856Y2897D01*
X856Y2899D01*
X864Y2899D01*
X864Y2919D01*
X856Y2919D01*
X856Y2921D01*
X852Y2921D01*
X852Y2923D01*
X848Y2923D01*
X848Y2925D01*
X846Y2925D01*
X846Y2927D01*
X842Y2927D01*
X842Y2929D01*
X840Y2929D01*
X840Y2931D01*
X838Y2931D01*
X838Y2933D01*
X836Y2933D01*
X836Y2935D01*
X834Y2935D01*
X834Y2937D01*
X832Y2937D01*
X832Y2941D01*
X830Y2941D01*
X830Y2945D01*
X828Y2945D01*
X828Y2947D01*
X826Y2947D01*
X826Y2953D01*
X824Y2953D01*
X824Y2965D01*
X822Y2965D01*
X822Y2971D01*
X824Y2971D01*
X824Y2983D01*
X826Y2983D01*
X826Y2989D01*
X828Y2989D01*
X828Y2993D01*
X830Y2993D01*
X830Y2995D01*
X832Y2995D01*
X832Y2999D01*
X834Y2999D01*
X834Y3001D01*
X836Y3001D01*
X836Y3003D01*
X838Y3003D01*
X838Y3005D01*
X840Y3005D01*
X840Y3007D01*
X842Y3007D01*
X842Y3009D01*
X844Y3009D01*
X844Y3011D01*
X848Y3011D01*
X848Y3013D01*
X852Y3013D01*
X852Y3015D01*
X856Y3015D01*
X856Y3017D01*
X862Y3017D01*
X862Y3037D01*
X856Y3037D01*
X856Y3039D01*
X852Y3039D01*
X852Y3041D01*
X848Y3041D01*
X848Y3043D01*
X846Y3043D01*
X846Y3045D01*
X842Y3045D01*
X842Y3047D01*
X840Y3047D01*
X840Y3049D01*
X838Y3049D01*
X838Y3051D01*
X836Y3051D01*
X836Y3053D01*
X834Y3053D01*
X834Y3055D01*
X832Y3055D01*
X832Y3059D01*
X830Y3059D01*
X830Y3063D01*
X828Y3063D01*
X828Y3065D01*
X782Y3065D01*
G37*
D02*
G36*
X122Y2559D02*
X122Y1945D01*
X124Y1945D01*
X124Y1943D01*
X126Y1943D01*
X126Y1941D01*
X128Y1941D01*
X128Y1939D01*
X130Y1939D01*
X130Y1937D01*
X140Y1937D01*
X140Y1935D01*
X210Y1935D01*
X210Y1939D01*
X212Y1939D01*
X212Y1941D01*
X214Y1941D01*
X214Y1943D01*
X216Y1943D01*
X216Y1945D01*
X218Y1945D01*
X218Y1947D01*
X220Y1947D01*
X220Y1949D01*
X222Y1949D01*
X222Y1951D01*
X226Y1951D01*
X226Y1971D01*
X224Y1971D01*
X224Y1973D01*
X222Y1973D01*
X222Y1975D01*
X218Y1975D01*
X218Y1977D01*
X216Y1977D01*
X216Y1979D01*
X214Y1979D01*
X214Y1981D01*
X212Y1981D01*
X212Y1985D01*
X210Y1985D01*
X210Y1987D01*
X208Y1987D01*
X208Y1991D01*
X206Y1991D01*
X206Y1997D01*
X204Y1997D01*
X204Y2003D01*
X202Y2003D01*
X202Y2019D01*
X204Y2019D01*
X204Y2027D01*
X206Y2027D01*
X206Y2033D01*
X208Y2033D01*
X208Y2035D01*
X210Y2035D01*
X210Y2039D01*
X212Y2039D01*
X212Y2041D01*
X214Y2041D01*
X214Y2043D01*
X216Y2043D01*
X216Y2045D01*
X218Y2045D01*
X218Y2047D01*
X220Y2047D01*
X220Y2049D01*
X222Y2049D01*
X222Y2051D01*
X226Y2051D01*
X226Y2071D01*
X224Y2071D01*
X224Y2073D01*
X222Y2073D01*
X222Y2075D01*
X218Y2075D01*
X218Y2077D01*
X216Y2077D01*
X216Y2079D01*
X214Y2079D01*
X214Y2081D01*
X212Y2081D01*
X212Y2085D01*
X210Y2085D01*
X210Y2087D01*
X208Y2087D01*
X208Y2091D01*
X206Y2091D01*
X206Y2097D01*
X204Y2097D01*
X204Y2103D01*
X202Y2103D01*
X202Y2119D01*
X204Y2119D01*
X204Y2127D01*
X206Y2127D01*
X206Y2133D01*
X208Y2133D01*
X208Y2135D01*
X210Y2135D01*
X210Y2139D01*
X212Y2139D01*
X212Y2141D01*
X214Y2141D01*
X214Y2143D01*
X216Y2143D01*
X216Y2145D01*
X218Y2145D01*
X218Y2147D01*
X220Y2147D01*
X220Y2149D01*
X222Y2149D01*
X222Y2151D01*
X226Y2151D01*
X226Y2171D01*
X224Y2171D01*
X224Y2173D01*
X222Y2173D01*
X222Y2175D01*
X218Y2175D01*
X218Y2177D01*
X216Y2177D01*
X216Y2179D01*
X214Y2179D01*
X214Y2181D01*
X212Y2181D01*
X212Y2185D01*
X210Y2185D01*
X210Y2187D01*
X208Y2187D01*
X208Y2191D01*
X206Y2191D01*
X206Y2197D01*
X204Y2197D01*
X204Y2203D01*
X202Y2203D01*
X202Y2219D01*
X204Y2219D01*
X204Y2227D01*
X206Y2227D01*
X206Y2233D01*
X208Y2233D01*
X208Y2235D01*
X210Y2235D01*
X210Y2239D01*
X212Y2239D01*
X212Y2241D01*
X214Y2241D01*
X214Y2243D01*
X216Y2243D01*
X216Y2245D01*
X218Y2245D01*
X218Y2247D01*
X220Y2247D01*
X220Y2249D01*
X222Y2249D01*
X222Y2251D01*
X226Y2251D01*
X226Y2271D01*
X224Y2271D01*
X224Y2273D01*
X222Y2273D01*
X222Y2275D01*
X218Y2275D01*
X218Y2277D01*
X216Y2277D01*
X216Y2279D01*
X214Y2279D01*
X214Y2281D01*
X212Y2281D01*
X212Y2285D01*
X210Y2285D01*
X210Y2287D01*
X208Y2287D01*
X208Y2291D01*
X206Y2291D01*
X206Y2297D01*
X204Y2297D01*
X204Y2303D01*
X202Y2303D01*
X202Y2319D01*
X204Y2319D01*
X204Y2327D01*
X206Y2327D01*
X206Y2333D01*
X208Y2333D01*
X208Y2335D01*
X210Y2335D01*
X210Y2339D01*
X212Y2339D01*
X212Y2341D01*
X214Y2341D01*
X214Y2343D01*
X216Y2343D01*
X216Y2345D01*
X218Y2345D01*
X218Y2347D01*
X220Y2347D01*
X220Y2349D01*
X222Y2349D01*
X222Y2351D01*
X226Y2351D01*
X226Y2371D01*
X224Y2371D01*
X224Y2373D01*
X222Y2373D01*
X222Y2375D01*
X218Y2375D01*
X218Y2377D01*
X216Y2377D01*
X216Y2379D01*
X214Y2379D01*
X214Y2381D01*
X212Y2381D01*
X212Y2385D01*
X210Y2385D01*
X210Y2387D01*
X208Y2387D01*
X208Y2391D01*
X206Y2391D01*
X206Y2397D01*
X204Y2397D01*
X204Y2403D01*
X202Y2403D01*
X202Y2419D01*
X204Y2419D01*
X204Y2427D01*
X206Y2427D01*
X206Y2433D01*
X208Y2433D01*
X208Y2435D01*
X210Y2435D01*
X210Y2439D01*
X212Y2439D01*
X212Y2441D01*
X214Y2441D01*
X214Y2443D01*
X216Y2443D01*
X216Y2445D01*
X218Y2445D01*
X218Y2465D01*
X202Y2465D01*
X202Y2559D01*
X122Y2559D01*
G37*
D02*
G36*
X296Y2559D02*
X296Y2543D01*
X316Y2543D01*
X316Y2545D01*
X318Y2545D01*
X318Y2547D01*
X320Y2547D01*
X320Y2549D01*
X322Y2549D01*
X322Y2551D01*
X326Y2551D01*
X326Y2553D01*
X330Y2553D01*
X330Y2555D01*
X334Y2555D01*
X334Y2557D01*
X342Y2557D01*
X342Y2559D01*
X296Y2559D01*
G37*
D02*
G36*
X374Y2473D02*
X374Y2471D01*
X372Y2471D01*
X372Y2451D01*
X574Y2451D01*
X574Y2471D01*
X394Y2471D01*
X394Y2473D01*
X374Y2473D01*
G37*
D02*
G36*
X814Y2465D02*
X814Y2407D01*
X834Y2407D01*
X834Y2411D01*
X836Y2411D01*
X836Y2413D01*
X838Y2413D01*
X838Y2415D01*
X840Y2415D01*
X840Y2417D01*
X844Y2417D01*
X844Y2419D01*
X846Y2419D01*
X846Y2421D01*
X850Y2421D01*
X850Y2423D01*
X852Y2423D01*
X852Y2425D01*
X858Y2425D01*
X858Y2427D01*
X862Y2427D01*
X862Y2447D01*
X856Y2447D01*
X856Y2449D01*
X852Y2449D01*
X852Y2451D01*
X848Y2451D01*
X848Y2453D01*
X844Y2453D01*
X844Y2455D01*
X842Y2455D01*
X842Y2457D01*
X840Y2457D01*
X840Y2459D01*
X838Y2459D01*
X838Y2461D01*
X836Y2461D01*
X836Y2463D01*
X834Y2463D01*
X834Y2465D01*
X814Y2465D01*
G37*
D02*
G36*
X288Y2387D02*
X288Y2385D01*
X286Y2385D01*
X286Y2381D01*
X284Y2381D01*
X284Y2379D01*
X282Y2379D01*
X282Y2377D01*
X280Y2377D01*
X280Y2375D01*
X276Y2375D01*
X276Y2373D01*
X274Y2373D01*
X274Y2371D01*
X272Y2371D01*
X272Y2351D01*
X276Y2351D01*
X276Y2349D01*
X278Y2349D01*
X278Y2347D01*
X280Y2347D01*
X280Y2345D01*
X284Y2345D01*
X284Y2341D01*
X286Y2341D01*
X286Y2339D01*
X288Y2339D01*
X288Y2337D01*
X290Y2337D01*
X290Y2335D01*
X310Y2335D01*
X310Y2339D01*
X312Y2339D01*
X312Y2341D01*
X314Y2341D01*
X314Y2343D01*
X316Y2343D01*
X316Y2345D01*
X318Y2345D01*
X318Y2347D01*
X320Y2347D01*
X320Y2349D01*
X322Y2349D01*
X322Y2351D01*
X326Y2351D01*
X326Y2371D01*
X324Y2371D01*
X324Y2373D01*
X322Y2373D01*
X322Y2375D01*
X318Y2375D01*
X318Y2377D01*
X316Y2377D01*
X316Y2379D01*
X314Y2379D01*
X314Y2381D01*
X312Y2381D01*
X312Y2385D01*
X310Y2385D01*
X310Y2387D01*
X288Y2387D01*
G37*
D02*
G36*
X624Y2471D02*
X624Y2451D01*
X628Y2451D01*
X628Y2449D01*
X630Y2449D01*
X630Y2447D01*
X632Y2447D01*
X632Y2445D01*
X634Y2445D01*
X634Y2443D01*
X636Y2443D01*
X636Y2441D01*
X638Y2441D01*
X638Y2437D01*
X640Y2437D01*
X640Y2433D01*
X642Y2433D01*
X642Y2431D01*
X644Y2431D01*
X644Y2423D01*
X646Y2423D01*
X646Y2399D01*
X644Y2399D01*
X644Y2393D01*
X642Y2393D01*
X642Y2389D01*
X640Y2389D01*
X640Y2385D01*
X638Y2385D01*
X638Y2383D01*
X636Y2383D01*
X636Y2381D01*
X634Y2381D01*
X634Y2379D01*
X632Y2379D01*
X632Y2377D01*
X630Y2377D01*
X630Y2375D01*
X628Y2375D01*
X628Y2373D01*
X626Y2373D01*
X626Y2371D01*
X622Y2371D01*
X622Y2369D01*
X618Y2369D01*
X618Y2367D01*
X612Y2367D01*
X612Y2365D01*
X600Y2365D01*
X600Y2363D01*
X734Y2363D01*
X734Y2471D01*
X624Y2471D01*
G37*
D02*
G36*
X374Y2373D02*
X374Y2371D01*
X372Y2371D01*
X372Y2363D01*
X598Y2363D01*
X598Y2365D01*
X586Y2365D01*
X586Y2367D01*
X580Y2367D01*
X580Y2369D01*
X576Y2369D01*
X576Y2371D01*
X394Y2371D01*
X394Y2373D01*
X374Y2373D01*
G37*
D02*
G36*
X372Y2363D02*
X372Y2361D01*
X734Y2361D01*
X734Y2363D01*
X372Y2363D01*
G37*
D02*
G36*
X372Y2363D02*
X372Y2361D01*
X734Y2361D01*
X734Y2363D01*
X372Y2363D01*
G37*
D02*
G36*
X372Y2361D02*
X372Y2351D01*
X376Y2351D01*
X376Y2349D01*
X378Y2349D01*
X378Y2347D01*
X380Y2347D01*
X380Y2345D01*
X384Y2345D01*
X384Y2341D01*
X386Y2341D01*
X386Y2339D01*
X388Y2339D01*
X388Y2337D01*
X390Y2337D01*
X390Y2335D01*
X692Y2335D01*
X692Y2333D01*
X700Y2333D01*
X700Y2331D01*
X706Y2331D01*
X706Y2329D01*
X710Y2329D01*
X710Y2327D01*
X714Y2327D01*
X714Y2325D01*
X734Y2325D01*
X734Y2361D01*
X372Y2361D01*
G37*
D02*
G36*
X390Y2335D02*
X390Y2333D01*
X392Y2333D01*
X392Y2329D01*
X394Y2329D01*
X394Y2321D01*
X396Y2321D01*
X396Y2301D01*
X394Y2301D01*
X394Y2295D01*
X392Y2295D01*
X392Y2291D01*
X390Y2291D01*
X390Y2287D01*
X388Y2287D01*
X388Y2285D01*
X386Y2285D01*
X386Y2281D01*
X384Y2281D01*
X384Y2279D01*
X382Y2279D01*
X382Y2277D01*
X380Y2277D01*
X380Y2275D01*
X376Y2275D01*
X376Y2273D01*
X374Y2273D01*
X374Y2271D01*
X372Y2271D01*
X372Y2261D01*
X392Y2261D01*
X392Y2263D01*
X394Y2263D01*
X394Y2265D01*
X396Y2265D01*
X396Y2267D01*
X398Y2267D01*
X398Y2269D01*
X400Y2269D01*
X400Y2271D01*
X402Y2271D01*
X402Y2273D01*
X404Y2273D01*
X404Y2275D01*
X406Y2275D01*
X406Y2277D01*
X408Y2277D01*
X408Y2279D01*
X410Y2279D01*
X410Y2281D01*
X412Y2281D01*
X412Y2283D01*
X414Y2283D01*
X414Y2285D01*
X416Y2285D01*
X416Y2287D01*
X418Y2287D01*
X418Y2289D01*
X420Y2289D01*
X420Y2291D01*
X422Y2291D01*
X422Y2293D01*
X424Y2293D01*
X424Y2295D01*
X426Y2295D01*
X426Y2297D01*
X428Y2297D01*
X428Y2299D01*
X430Y2299D01*
X430Y2301D01*
X432Y2301D01*
X432Y2303D01*
X434Y2303D01*
X434Y2305D01*
X436Y2305D01*
X436Y2307D01*
X438Y2307D01*
X438Y2309D01*
X440Y2309D01*
X440Y2311D01*
X442Y2311D01*
X442Y2313D01*
X444Y2313D01*
X444Y2315D01*
X448Y2315D01*
X448Y2317D01*
X450Y2317D01*
X450Y2319D01*
X452Y2319D01*
X452Y2321D01*
X456Y2321D01*
X456Y2323D01*
X460Y2323D01*
X460Y2325D01*
X468Y2325D01*
X468Y2327D01*
X664Y2327D01*
X664Y2329D01*
X668Y2329D01*
X668Y2331D01*
X672Y2331D01*
X672Y2333D01*
X682Y2333D01*
X682Y2335D01*
X390Y2335D01*
G37*
D02*
G36*
X288Y2287D02*
X288Y2285D01*
X286Y2285D01*
X286Y2281D01*
X284Y2281D01*
X284Y2279D01*
X282Y2279D01*
X282Y2277D01*
X280Y2277D01*
X280Y2275D01*
X276Y2275D01*
X276Y2273D01*
X274Y2273D01*
X274Y2271D01*
X272Y2271D01*
X272Y2251D01*
X276Y2251D01*
X276Y2249D01*
X278Y2249D01*
X278Y2247D01*
X280Y2247D01*
X280Y2245D01*
X284Y2245D01*
X284Y2241D01*
X286Y2241D01*
X286Y2239D01*
X288Y2239D01*
X288Y2237D01*
X290Y2237D01*
X290Y2235D01*
X310Y2235D01*
X310Y2239D01*
X312Y2239D01*
X312Y2241D01*
X314Y2241D01*
X314Y2243D01*
X316Y2243D01*
X316Y2245D01*
X318Y2245D01*
X318Y2247D01*
X320Y2247D01*
X320Y2249D01*
X322Y2249D01*
X322Y2251D01*
X326Y2251D01*
X326Y2271D01*
X324Y2271D01*
X324Y2273D01*
X322Y2273D01*
X322Y2275D01*
X318Y2275D01*
X318Y2277D01*
X316Y2277D01*
X316Y2279D01*
X314Y2279D01*
X314Y2281D01*
X312Y2281D01*
X312Y2285D01*
X310Y2285D01*
X310Y2287D01*
X288Y2287D01*
G37*
D02*
G36*
X288Y2187D02*
X288Y2185D01*
X286Y2185D01*
X286Y2181D01*
X284Y2181D01*
X284Y2179D01*
X282Y2179D01*
X282Y2177D01*
X280Y2177D01*
X280Y2175D01*
X276Y2175D01*
X276Y2173D01*
X274Y2173D01*
X274Y2171D01*
X272Y2171D01*
X272Y2151D01*
X276Y2151D01*
X276Y2149D01*
X278Y2149D01*
X278Y2147D01*
X280Y2147D01*
X280Y2145D01*
X284Y2145D01*
X284Y2141D01*
X286Y2141D01*
X286Y2139D01*
X288Y2139D01*
X288Y2137D01*
X290Y2137D01*
X290Y2135D01*
X310Y2135D01*
X310Y2139D01*
X312Y2139D01*
X312Y2141D01*
X314Y2141D01*
X314Y2143D01*
X316Y2143D01*
X316Y2145D01*
X318Y2145D01*
X318Y2147D01*
X320Y2147D01*
X320Y2149D01*
X322Y2149D01*
X322Y2151D01*
X326Y2151D01*
X326Y2171D01*
X324Y2171D01*
X324Y2173D01*
X322Y2173D01*
X322Y2175D01*
X318Y2175D01*
X318Y2177D01*
X316Y2177D01*
X316Y2179D01*
X314Y2179D01*
X314Y2181D01*
X312Y2181D01*
X312Y2185D01*
X310Y2185D01*
X310Y2187D01*
X288Y2187D01*
G37*
D02*
G36*
X1136Y2169D02*
X1136Y2167D01*
X1134Y2167D01*
X1134Y2165D01*
X1132Y2165D01*
X1132Y2163D01*
X1130Y2163D01*
X1130Y2161D01*
X1128Y2161D01*
X1128Y2159D01*
X1126Y2159D01*
X1126Y2157D01*
X1124Y2157D01*
X1124Y2155D01*
X1122Y2155D01*
X1122Y2153D01*
X1120Y2153D01*
X1120Y2151D01*
X1118Y2151D01*
X1118Y2149D01*
X1116Y2149D01*
X1116Y2147D01*
X1114Y2147D01*
X1114Y2145D01*
X1112Y2145D01*
X1112Y2143D01*
X1108Y2143D01*
X1108Y2141D01*
X1104Y2141D01*
X1104Y2139D01*
X482Y2139D01*
X482Y2137D01*
X480Y2137D01*
X480Y2135D01*
X478Y2135D01*
X478Y2133D01*
X476Y2133D01*
X476Y2131D01*
X474Y2131D01*
X474Y2129D01*
X472Y2129D01*
X472Y2117D01*
X976Y2117D01*
X976Y2115D01*
X986Y2115D01*
X986Y2113D01*
X990Y2113D01*
X990Y2111D01*
X992Y2111D01*
X992Y2109D01*
X994Y2109D01*
X994Y2107D01*
X996Y2107D01*
X996Y2105D01*
X998Y2105D01*
X998Y2103D01*
X1000Y2103D01*
X1000Y2099D01*
X1002Y2099D01*
X1002Y2093D01*
X1004Y2093D01*
X1004Y2081D01*
X1002Y2081D01*
X1002Y2075D01*
X1000Y2075D01*
X1000Y2071D01*
X998Y2071D01*
X998Y2067D01*
X996Y2067D01*
X996Y2065D01*
X994Y2065D01*
X994Y2063D01*
X1060Y2063D01*
X1060Y2061D01*
X1068Y2061D01*
X1068Y2059D01*
X1072Y2059D01*
X1072Y2057D01*
X1076Y2057D01*
X1076Y2055D01*
X1080Y2055D01*
X1080Y2053D01*
X1082Y2053D01*
X1082Y2051D01*
X1084Y2051D01*
X1084Y2049D01*
X1088Y2049D01*
X1088Y2047D01*
X1090Y2047D01*
X1090Y2043D01*
X1092Y2043D01*
X1092Y2041D01*
X1094Y2041D01*
X1094Y2037D01*
X1096Y2037D01*
X1096Y2035D01*
X1098Y2035D01*
X1098Y2031D01*
X1100Y2031D01*
X1100Y2023D01*
X1102Y2023D01*
X1102Y1999D01*
X1100Y1999D01*
X1100Y1993D01*
X1098Y1993D01*
X1098Y1989D01*
X1096Y1989D01*
X1096Y1985D01*
X1094Y1985D01*
X1094Y1983D01*
X1092Y1983D01*
X1092Y1979D01*
X1090Y1979D01*
X1090Y1977D01*
X1088Y1977D01*
X1088Y1975D01*
X1086Y1975D01*
X1086Y1973D01*
X1084Y1973D01*
X1084Y1971D01*
X1080Y1971D01*
X1080Y1969D01*
X1078Y1969D01*
X1078Y1967D01*
X1074Y1967D01*
X1074Y1965D01*
X1070Y1965D01*
X1070Y1963D01*
X1064Y1963D01*
X1064Y1961D01*
X1156Y1961D01*
X1156Y2169D01*
X1136Y2169D01*
G37*
D02*
G36*
X472Y2117D02*
X472Y2063D01*
X926Y2063D01*
X926Y2057D01*
X966Y2057D01*
X966Y2059D01*
X962Y2059D01*
X962Y2061D01*
X958Y2061D01*
X958Y2063D01*
X956Y2063D01*
X956Y2065D01*
X952Y2065D01*
X952Y2069D01*
X950Y2069D01*
X950Y2071D01*
X948Y2071D01*
X948Y2075D01*
X946Y2075D01*
X946Y2081D01*
X944Y2081D01*
X944Y2091D01*
X946Y2091D01*
X946Y2099D01*
X948Y2099D01*
X948Y2103D01*
X950Y2103D01*
X950Y2105D01*
X952Y2105D01*
X952Y2107D01*
X954Y2107D01*
X954Y2109D01*
X956Y2109D01*
X956Y2111D01*
X960Y2111D01*
X960Y2113D01*
X962Y2113D01*
X962Y2115D01*
X972Y2115D01*
X972Y2117D01*
X472Y2117D01*
G37*
D02*
G36*
X472Y2063D02*
X472Y1961D01*
X822Y1961D01*
X822Y2063D01*
X472Y2063D01*
G37*
D02*
G36*
X990Y2063D02*
X990Y2061D01*
X988Y2061D01*
X988Y2059D01*
X982Y2059D01*
X982Y2057D01*
X1030Y2057D01*
X1030Y2059D01*
X1034Y2059D01*
X1034Y2061D01*
X1042Y2061D01*
X1042Y2063D01*
X990Y2063D01*
G37*
D02*
G36*
X926Y2057D02*
X926Y2055D01*
X1026Y2055D01*
X1026Y2057D01*
X926Y2057D01*
G37*
D02*
G36*
X926Y2057D02*
X926Y2055D01*
X1026Y2055D01*
X1026Y2057D01*
X926Y2057D01*
G37*
D02*
G36*
X926Y2055D02*
X926Y1961D01*
X1038Y1961D01*
X1038Y1963D01*
X1032Y1963D01*
X1032Y1965D01*
X1028Y1965D01*
X1028Y1967D01*
X1024Y1967D01*
X1024Y1969D01*
X1022Y1969D01*
X1022Y1971D01*
X1018Y1971D01*
X1018Y1973D01*
X1016Y1973D01*
X1016Y1975D01*
X1014Y1975D01*
X1014Y1977D01*
X1012Y1977D01*
X1012Y1981D01*
X1010Y1981D01*
X1010Y1983D01*
X1008Y1983D01*
X1008Y1987D01*
X1006Y1987D01*
X1006Y1989D01*
X1004Y1989D01*
X1004Y1995D01*
X1002Y1995D01*
X1002Y2001D01*
X1000Y2001D01*
X1000Y2021D01*
X1002Y2021D01*
X1002Y2029D01*
X1004Y2029D01*
X1004Y2033D01*
X1006Y2033D01*
X1006Y2037D01*
X1008Y2037D01*
X1008Y2041D01*
X1010Y2041D01*
X1010Y2043D01*
X1012Y2043D01*
X1012Y2045D01*
X1014Y2045D01*
X1014Y2047D01*
X1016Y2047D01*
X1016Y2049D01*
X1018Y2049D01*
X1018Y2051D01*
X1020Y2051D01*
X1020Y2053D01*
X1022Y2053D01*
X1022Y2055D01*
X926Y2055D01*
G37*
D02*
G36*
X472Y1961D02*
X472Y1959D01*
X1156Y1959D01*
X1156Y1961D01*
X472Y1961D01*
G37*
D02*
G36*
X472Y1961D02*
X472Y1959D01*
X1156Y1959D01*
X1156Y1961D01*
X472Y1961D01*
G37*
D02*
G36*
X472Y1961D02*
X472Y1959D01*
X1156Y1959D01*
X1156Y1961D01*
X472Y1961D01*
G37*
D02*
G36*
X472Y1959D02*
X472Y1931D01*
X470Y1931D01*
X470Y1925D01*
X1058Y1925D01*
X1058Y1923D01*
X1068Y1923D01*
X1068Y1921D01*
X1072Y1921D01*
X1072Y1919D01*
X1076Y1919D01*
X1076Y1917D01*
X1080Y1917D01*
X1080Y1915D01*
X1082Y1915D01*
X1082Y1913D01*
X1084Y1913D01*
X1084Y1911D01*
X1086Y1911D01*
X1086Y1909D01*
X1088Y1909D01*
X1088Y1907D01*
X1090Y1907D01*
X1090Y1905D01*
X1092Y1905D01*
X1092Y1903D01*
X1094Y1903D01*
X1094Y1899D01*
X1096Y1899D01*
X1096Y1895D01*
X1098Y1895D01*
X1098Y1891D01*
X1100Y1891D01*
X1100Y1885D01*
X1102Y1885D01*
X1102Y1861D01*
X1100Y1861D01*
X1100Y1855D01*
X1098Y1855D01*
X1098Y1851D01*
X1096Y1851D01*
X1096Y1847D01*
X1094Y1847D01*
X1094Y1843D01*
X1092Y1843D01*
X1092Y1841D01*
X1090Y1841D01*
X1090Y1839D01*
X1088Y1839D01*
X1088Y1837D01*
X1086Y1837D01*
X1086Y1835D01*
X1084Y1835D01*
X1084Y1833D01*
X1082Y1833D01*
X1082Y1831D01*
X1078Y1831D01*
X1078Y1829D01*
X1074Y1829D01*
X1074Y1827D01*
X1072Y1827D01*
X1072Y1825D01*
X1066Y1825D01*
X1066Y1823D01*
X1052Y1823D01*
X1052Y1803D01*
X1060Y1803D01*
X1060Y1801D01*
X1068Y1801D01*
X1068Y1799D01*
X1072Y1799D01*
X1072Y1797D01*
X1076Y1797D01*
X1076Y1795D01*
X1080Y1795D01*
X1080Y1793D01*
X1082Y1793D01*
X1082Y1791D01*
X1084Y1791D01*
X1084Y1789D01*
X1088Y1789D01*
X1088Y1787D01*
X1090Y1787D01*
X1090Y1783D01*
X1092Y1783D01*
X1092Y1781D01*
X1094Y1781D01*
X1094Y1777D01*
X1096Y1777D01*
X1096Y1775D01*
X1098Y1775D01*
X1098Y1771D01*
X1100Y1771D01*
X1100Y1763D01*
X1102Y1763D01*
X1102Y1739D01*
X1100Y1739D01*
X1100Y1733D01*
X1098Y1733D01*
X1098Y1729D01*
X1096Y1729D01*
X1096Y1725D01*
X1094Y1725D01*
X1094Y1723D01*
X1092Y1723D01*
X1092Y1719D01*
X1090Y1719D01*
X1090Y1717D01*
X1088Y1717D01*
X1088Y1715D01*
X1086Y1715D01*
X1086Y1713D01*
X1084Y1713D01*
X1084Y1711D01*
X1080Y1711D01*
X1080Y1709D01*
X1078Y1709D01*
X1078Y1707D01*
X1074Y1707D01*
X1074Y1705D01*
X1070Y1705D01*
X1070Y1703D01*
X1064Y1703D01*
X1064Y1683D01*
X1068Y1683D01*
X1068Y1681D01*
X1072Y1681D01*
X1072Y1679D01*
X1076Y1679D01*
X1076Y1677D01*
X1080Y1677D01*
X1080Y1675D01*
X1082Y1675D01*
X1082Y1673D01*
X1084Y1673D01*
X1084Y1671D01*
X1086Y1671D01*
X1086Y1669D01*
X1088Y1669D01*
X1088Y1667D01*
X1090Y1667D01*
X1090Y1665D01*
X1092Y1665D01*
X1092Y1663D01*
X1094Y1663D01*
X1094Y1659D01*
X1096Y1659D01*
X1096Y1655D01*
X1098Y1655D01*
X1098Y1651D01*
X1100Y1651D01*
X1100Y1645D01*
X1102Y1645D01*
X1102Y1621D01*
X1100Y1621D01*
X1100Y1615D01*
X1098Y1615D01*
X1098Y1611D01*
X1096Y1611D01*
X1096Y1607D01*
X1094Y1607D01*
X1094Y1603D01*
X1092Y1603D01*
X1092Y1601D01*
X1090Y1601D01*
X1090Y1599D01*
X1088Y1599D01*
X1088Y1597D01*
X1086Y1597D01*
X1086Y1595D01*
X1084Y1595D01*
X1084Y1593D01*
X1082Y1593D01*
X1082Y1591D01*
X1078Y1591D01*
X1078Y1589D01*
X1074Y1589D01*
X1074Y1587D01*
X1072Y1587D01*
X1072Y1585D01*
X1066Y1585D01*
X1066Y1563D01*
X1072Y1563D01*
X1072Y1561D01*
X1076Y1561D01*
X1076Y1559D01*
X1078Y1559D01*
X1078Y1557D01*
X1082Y1557D01*
X1082Y1555D01*
X1084Y1555D01*
X1084Y1553D01*
X1086Y1553D01*
X1086Y1551D01*
X1088Y1551D01*
X1088Y1549D01*
X1090Y1549D01*
X1090Y1547D01*
X1092Y1547D01*
X1092Y1545D01*
X1094Y1545D01*
X1094Y1541D01*
X1096Y1541D01*
X1096Y1537D01*
X1098Y1537D01*
X1098Y1533D01*
X1100Y1533D01*
X1100Y1527D01*
X1102Y1527D01*
X1102Y1503D01*
X1100Y1503D01*
X1100Y1497D01*
X1098Y1497D01*
X1098Y1493D01*
X1096Y1493D01*
X1096Y1489D01*
X1094Y1489D01*
X1094Y1485D01*
X1092Y1485D01*
X1092Y1483D01*
X1090Y1483D01*
X1090Y1481D01*
X1088Y1481D01*
X1088Y1479D01*
X1086Y1479D01*
X1086Y1477D01*
X1084Y1477D01*
X1084Y1475D01*
X1082Y1475D01*
X1082Y1473D01*
X1080Y1473D01*
X1080Y1471D01*
X1076Y1471D01*
X1076Y1469D01*
X1072Y1469D01*
X1072Y1467D01*
X1066Y1467D01*
X1066Y1445D01*
X1072Y1445D01*
X1072Y1443D01*
X1076Y1443D01*
X1076Y1441D01*
X1080Y1441D01*
X1080Y1439D01*
X1082Y1439D01*
X1082Y1437D01*
X1084Y1437D01*
X1084Y1435D01*
X1086Y1435D01*
X1086Y1433D01*
X1088Y1433D01*
X1088Y1431D01*
X1090Y1431D01*
X1090Y1429D01*
X1092Y1429D01*
X1092Y1427D01*
X1094Y1427D01*
X1094Y1423D01*
X1096Y1423D01*
X1096Y1419D01*
X1098Y1419D01*
X1098Y1415D01*
X1100Y1415D01*
X1100Y1409D01*
X1102Y1409D01*
X1102Y1385D01*
X1100Y1385D01*
X1100Y1379D01*
X1098Y1379D01*
X1098Y1375D01*
X1096Y1375D01*
X1096Y1371D01*
X1094Y1371D01*
X1094Y1367D01*
X1092Y1367D01*
X1092Y1365D01*
X1090Y1365D01*
X1090Y1363D01*
X1088Y1363D01*
X1088Y1361D01*
X1086Y1361D01*
X1086Y1359D01*
X1084Y1359D01*
X1084Y1357D01*
X1082Y1357D01*
X1082Y1355D01*
X1078Y1355D01*
X1078Y1353D01*
X1076Y1353D01*
X1076Y1351D01*
X1072Y1351D01*
X1072Y1349D01*
X1066Y1349D01*
X1066Y1327D01*
X1072Y1327D01*
X1072Y1325D01*
X1076Y1325D01*
X1076Y1323D01*
X1080Y1323D01*
X1080Y1321D01*
X1082Y1321D01*
X1082Y1319D01*
X1084Y1319D01*
X1084Y1317D01*
X1086Y1317D01*
X1086Y1315D01*
X1088Y1315D01*
X1088Y1313D01*
X1090Y1313D01*
X1090Y1311D01*
X1092Y1311D01*
X1092Y1309D01*
X1094Y1309D01*
X1094Y1305D01*
X1144Y1305D01*
X1144Y1307D01*
X1146Y1307D01*
X1146Y1309D01*
X1148Y1309D01*
X1148Y1311D01*
X1150Y1311D01*
X1150Y1313D01*
X1152Y1313D01*
X1152Y1315D01*
X1154Y1315D01*
X1154Y1317D01*
X1156Y1317D01*
X1156Y1959D01*
X472Y1959D01*
G37*
D02*
G36*
X468Y1925D02*
X468Y1923D01*
X466Y1923D01*
X466Y1921D01*
X464Y1921D01*
X464Y1919D01*
X462Y1919D01*
X462Y1917D01*
X460Y1917D01*
X460Y1915D01*
X458Y1915D01*
X458Y1913D01*
X456Y1913D01*
X456Y1911D01*
X454Y1911D01*
X454Y1909D01*
X452Y1909D01*
X452Y1907D01*
X450Y1907D01*
X450Y1905D01*
X448Y1905D01*
X448Y1903D01*
X446Y1903D01*
X446Y1901D01*
X444Y1901D01*
X444Y1899D01*
X442Y1899D01*
X442Y1897D01*
X440Y1897D01*
X440Y1895D01*
X438Y1895D01*
X438Y1893D01*
X436Y1893D01*
X436Y1891D01*
X430Y1891D01*
X430Y1889D01*
X390Y1889D01*
X390Y1887D01*
X388Y1887D01*
X388Y1885D01*
X386Y1885D01*
X386Y1881D01*
X384Y1881D01*
X384Y1879D01*
X382Y1879D01*
X382Y1877D01*
X380Y1877D01*
X380Y1875D01*
X376Y1875D01*
X376Y1873D01*
X374Y1873D01*
X374Y1871D01*
X372Y1871D01*
X372Y1851D01*
X376Y1851D01*
X376Y1849D01*
X378Y1849D01*
X378Y1847D01*
X380Y1847D01*
X380Y1845D01*
X384Y1845D01*
X384Y1841D01*
X386Y1841D01*
X386Y1839D01*
X388Y1839D01*
X388Y1837D01*
X390Y1837D01*
X390Y1833D01*
X392Y1833D01*
X392Y1829D01*
X394Y1829D01*
X394Y1821D01*
X396Y1821D01*
X396Y1801D01*
X394Y1801D01*
X394Y1795D01*
X392Y1795D01*
X392Y1791D01*
X390Y1791D01*
X390Y1787D01*
X388Y1787D01*
X388Y1785D01*
X386Y1785D01*
X386Y1781D01*
X384Y1781D01*
X384Y1779D01*
X382Y1779D01*
X382Y1777D01*
X380Y1777D01*
X380Y1775D01*
X376Y1775D01*
X376Y1773D01*
X374Y1773D01*
X374Y1771D01*
X372Y1771D01*
X372Y1751D01*
X376Y1751D01*
X376Y1749D01*
X378Y1749D01*
X378Y1747D01*
X380Y1747D01*
X380Y1745D01*
X384Y1745D01*
X384Y1741D01*
X386Y1741D01*
X386Y1739D01*
X388Y1739D01*
X388Y1737D01*
X390Y1737D01*
X390Y1733D01*
X392Y1733D01*
X392Y1729D01*
X394Y1729D01*
X394Y1721D01*
X396Y1721D01*
X396Y1701D01*
X394Y1701D01*
X394Y1695D01*
X392Y1695D01*
X392Y1691D01*
X390Y1691D01*
X390Y1687D01*
X388Y1687D01*
X388Y1685D01*
X386Y1685D01*
X386Y1681D01*
X384Y1681D01*
X384Y1679D01*
X382Y1679D01*
X382Y1677D01*
X380Y1677D01*
X380Y1675D01*
X376Y1675D01*
X376Y1673D01*
X374Y1673D01*
X374Y1671D01*
X372Y1671D01*
X372Y1651D01*
X376Y1651D01*
X376Y1649D01*
X378Y1649D01*
X378Y1647D01*
X380Y1647D01*
X380Y1645D01*
X384Y1645D01*
X384Y1641D01*
X386Y1641D01*
X386Y1639D01*
X388Y1639D01*
X388Y1637D01*
X390Y1637D01*
X390Y1633D01*
X392Y1633D01*
X392Y1629D01*
X394Y1629D01*
X394Y1621D01*
X396Y1621D01*
X396Y1601D01*
X394Y1601D01*
X394Y1595D01*
X392Y1595D01*
X392Y1591D01*
X390Y1591D01*
X390Y1587D01*
X388Y1587D01*
X388Y1585D01*
X386Y1585D01*
X386Y1581D01*
X384Y1581D01*
X384Y1579D01*
X382Y1579D01*
X382Y1577D01*
X380Y1577D01*
X380Y1575D01*
X376Y1575D01*
X376Y1573D01*
X374Y1573D01*
X374Y1571D01*
X372Y1571D01*
X372Y1551D01*
X376Y1551D01*
X376Y1549D01*
X378Y1549D01*
X378Y1547D01*
X380Y1547D01*
X380Y1545D01*
X384Y1545D01*
X384Y1541D01*
X386Y1541D01*
X386Y1539D01*
X388Y1539D01*
X388Y1537D01*
X390Y1537D01*
X390Y1533D01*
X392Y1533D01*
X392Y1529D01*
X394Y1529D01*
X394Y1521D01*
X396Y1521D01*
X396Y1501D01*
X394Y1501D01*
X394Y1495D01*
X392Y1495D01*
X392Y1491D01*
X390Y1491D01*
X390Y1487D01*
X388Y1487D01*
X388Y1485D01*
X386Y1485D01*
X386Y1481D01*
X384Y1481D01*
X384Y1479D01*
X382Y1479D01*
X382Y1477D01*
X380Y1477D01*
X380Y1475D01*
X376Y1475D01*
X376Y1473D01*
X374Y1473D01*
X374Y1471D01*
X372Y1471D01*
X372Y1451D01*
X376Y1451D01*
X376Y1449D01*
X378Y1449D01*
X378Y1447D01*
X380Y1447D01*
X380Y1445D01*
X384Y1445D01*
X384Y1441D01*
X386Y1441D01*
X386Y1439D01*
X388Y1439D01*
X388Y1437D01*
X390Y1437D01*
X390Y1433D01*
X392Y1433D01*
X392Y1429D01*
X394Y1429D01*
X394Y1421D01*
X396Y1421D01*
X396Y1401D01*
X394Y1401D01*
X394Y1395D01*
X392Y1395D01*
X392Y1391D01*
X390Y1391D01*
X390Y1387D01*
X388Y1387D01*
X388Y1385D01*
X386Y1385D01*
X386Y1381D01*
X384Y1381D01*
X384Y1379D01*
X382Y1379D01*
X382Y1377D01*
X380Y1377D01*
X380Y1375D01*
X376Y1375D01*
X376Y1373D01*
X374Y1373D01*
X374Y1371D01*
X372Y1371D01*
X372Y1351D01*
X376Y1351D01*
X376Y1349D01*
X378Y1349D01*
X378Y1347D01*
X380Y1347D01*
X380Y1345D01*
X384Y1345D01*
X384Y1341D01*
X386Y1341D01*
X386Y1339D01*
X388Y1339D01*
X388Y1337D01*
X390Y1337D01*
X390Y1333D01*
X392Y1333D01*
X392Y1329D01*
X394Y1329D01*
X394Y1321D01*
X396Y1321D01*
X396Y1301D01*
X394Y1301D01*
X394Y1295D01*
X392Y1295D01*
X392Y1291D01*
X390Y1291D01*
X390Y1287D01*
X388Y1287D01*
X388Y1285D01*
X386Y1285D01*
X386Y1281D01*
X384Y1281D01*
X384Y1279D01*
X382Y1279D01*
X382Y1277D01*
X380Y1277D01*
X380Y1275D01*
X376Y1275D01*
X376Y1273D01*
X374Y1273D01*
X374Y1271D01*
X372Y1271D01*
X372Y1251D01*
X376Y1251D01*
X376Y1249D01*
X378Y1249D01*
X378Y1247D01*
X380Y1247D01*
X380Y1245D01*
X384Y1245D01*
X384Y1241D01*
X386Y1241D01*
X386Y1239D01*
X388Y1239D01*
X388Y1237D01*
X390Y1237D01*
X390Y1233D01*
X392Y1233D01*
X392Y1229D01*
X394Y1229D01*
X394Y1221D01*
X396Y1221D01*
X396Y1201D01*
X394Y1201D01*
X394Y1195D01*
X392Y1195D01*
X392Y1191D01*
X390Y1191D01*
X390Y1187D01*
X388Y1187D01*
X388Y1185D01*
X386Y1185D01*
X386Y1181D01*
X384Y1181D01*
X384Y1179D01*
X382Y1179D01*
X382Y1177D01*
X380Y1177D01*
X380Y1175D01*
X376Y1175D01*
X376Y1173D01*
X374Y1173D01*
X374Y1171D01*
X372Y1171D01*
X372Y1151D01*
X376Y1151D01*
X376Y1149D01*
X378Y1149D01*
X378Y1147D01*
X380Y1147D01*
X380Y1145D01*
X384Y1145D01*
X384Y1141D01*
X386Y1141D01*
X386Y1139D01*
X388Y1139D01*
X388Y1137D01*
X390Y1137D01*
X390Y1133D01*
X392Y1133D01*
X392Y1129D01*
X394Y1129D01*
X394Y1121D01*
X396Y1121D01*
X396Y1101D01*
X394Y1101D01*
X394Y1095D01*
X392Y1095D01*
X392Y1091D01*
X390Y1091D01*
X390Y1087D01*
X388Y1087D01*
X388Y1085D01*
X386Y1085D01*
X386Y1081D01*
X384Y1081D01*
X384Y1079D01*
X382Y1079D01*
X382Y1077D01*
X380Y1077D01*
X380Y1075D01*
X376Y1075D01*
X376Y1073D01*
X374Y1073D01*
X374Y1071D01*
X372Y1071D01*
X372Y1051D01*
X376Y1051D01*
X376Y1049D01*
X378Y1049D01*
X378Y1047D01*
X380Y1047D01*
X380Y1045D01*
X384Y1045D01*
X384Y1041D01*
X386Y1041D01*
X386Y1039D01*
X388Y1039D01*
X388Y1037D01*
X390Y1037D01*
X390Y1033D01*
X440Y1033D01*
X440Y1035D01*
X442Y1035D01*
X442Y1037D01*
X444Y1037D01*
X444Y1039D01*
X446Y1039D01*
X446Y1041D01*
X448Y1041D01*
X448Y1043D01*
X450Y1043D01*
X450Y1045D01*
X452Y1045D01*
X452Y1743D01*
X454Y1743D01*
X454Y1747D01*
X456Y1747D01*
X456Y1751D01*
X458Y1751D01*
X458Y1753D01*
X460Y1753D01*
X460Y1755D01*
X462Y1755D01*
X462Y1757D01*
X464Y1757D01*
X464Y1759D01*
X466Y1759D01*
X466Y1761D01*
X468Y1761D01*
X468Y1763D01*
X470Y1763D01*
X470Y1765D01*
X472Y1765D01*
X472Y1767D01*
X474Y1767D01*
X474Y1769D01*
X476Y1769D01*
X476Y1771D01*
X478Y1771D01*
X478Y1773D01*
X480Y1773D01*
X480Y1775D01*
X482Y1775D01*
X482Y1777D01*
X484Y1777D01*
X484Y1779D01*
X488Y1779D01*
X488Y1781D01*
X490Y1781D01*
X490Y1783D01*
X834Y1783D01*
X834Y1785D01*
X836Y1785D01*
X836Y1787D01*
X838Y1787D01*
X838Y1789D01*
X840Y1789D01*
X840Y1791D01*
X842Y1791D01*
X842Y1793D01*
X846Y1793D01*
X846Y1795D01*
X848Y1795D01*
X848Y1797D01*
X852Y1797D01*
X852Y1799D01*
X858Y1799D01*
X858Y1801D01*
X864Y1801D01*
X864Y1803D01*
X874Y1803D01*
X874Y1823D01*
X860Y1823D01*
X860Y1825D01*
X854Y1825D01*
X854Y1827D01*
X850Y1827D01*
X850Y1829D01*
X846Y1829D01*
X846Y1831D01*
X844Y1831D01*
X844Y1833D01*
X842Y1833D01*
X842Y1835D01*
X840Y1835D01*
X840Y1837D01*
X836Y1837D01*
X836Y1841D01*
X834Y1841D01*
X834Y1843D01*
X832Y1843D01*
X832Y1845D01*
X830Y1845D01*
X830Y1849D01*
X828Y1849D01*
X828Y1853D01*
X826Y1853D01*
X826Y1859D01*
X824Y1859D01*
X824Y1869D01*
X822Y1869D01*
X822Y1877D01*
X824Y1877D01*
X824Y1887D01*
X826Y1887D01*
X826Y1893D01*
X828Y1893D01*
X828Y1897D01*
X830Y1897D01*
X830Y1901D01*
X832Y1901D01*
X832Y1903D01*
X834Y1903D01*
X834Y1907D01*
X836Y1907D01*
X836Y1909D01*
X838Y1909D01*
X838Y1911D01*
X840Y1911D01*
X840Y1913D01*
X844Y1913D01*
X844Y1915D01*
X846Y1915D01*
X846Y1917D01*
X850Y1917D01*
X850Y1919D01*
X854Y1919D01*
X854Y1921D01*
X858Y1921D01*
X858Y1923D01*
X868Y1923D01*
X868Y1925D01*
X468Y1925D01*
G37*
D02*
G36*
X882Y1925D02*
X882Y1923D01*
X890Y1923D01*
X890Y1921D01*
X896Y1921D01*
X896Y1919D01*
X898Y1919D01*
X898Y1917D01*
X902Y1917D01*
X902Y1915D01*
X904Y1915D01*
X904Y1913D01*
X908Y1913D01*
X908Y1911D01*
X910Y1911D01*
X910Y1909D01*
X912Y1909D01*
X912Y1907D01*
X914Y1907D01*
X914Y1903D01*
X916Y1903D01*
X916Y1901D01*
X918Y1901D01*
X918Y1897D01*
X920Y1897D01*
X920Y1895D01*
X922Y1895D01*
X922Y1889D01*
X924Y1889D01*
X924Y1879D01*
X926Y1879D01*
X926Y1867D01*
X924Y1867D01*
X924Y1857D01*
X922Y1857D01*
X922Y1853D01*
X920Y1853D01*
X920Y1849D01*
X918Y1849D01*
X918Y1845D01*
X916Y1845D01*
X916Y1843D01*
X914Y1843D01*
X914Y1841D01*
X912Y1841D01*
X912Y1837D01*
X910Y1837D01*
X910Y1835D01*
X906Y1835D01*
X906Y1833D01*
X904Y1833D01*
X904Y1831D01*
X902Y1831D01*
X902Y1829D01*
X898Y1829D01*
X898Y1827D01*
X894Y1827D01*
X894Y1825D01*
X888Y1825D01*
X888Y1823D01*
X876Y1823D01*
X876Y1803D01*
X884Y1803D01*
X884Y1801D01*
X892Y1801D01*
X892Y1799D01*
X896Y1799D01*
X896Y1797D01*
X900Y1797D01*
X900Y1795D01*
X902Y1795D01*
X902Y1793D01*
X906Y1793D01*
X906Y1791D01*
X908Y1791D01*
X908Y1789D01*
X910Y1789D01*
X910Y1787D01*
X912Y1787D01*
X912Y1785D01*
X914Y1785D01*
X914Y1783D01*
X916Y1783D01*
X916Y1779D01*
X918Y1779D01*
X918Y1775D01*
X920Y1775D01*
X920Y1773D01*
X922Y1773D01*
X922Y1767D01*
X924Y1767D01*
X924Y1757D01*
X926Y1757D01*
X926Y1745D01*
X924Y1745D01*
X924Y1737D01*
X922Y1737D01*
X922Y1731D01*
X920Y1731D01*
X920Y1727D01*
X918Y1727D01*
X918Y1723D01*
X916Y1723D01*
X916Y1721D01*
X914Y1721D01*
X914Y1719D01*
X912Y1719D01*
X912Y1717D01*
X976Y1717D01*
X976Y1715D01*
X986Y1715D01*
X986Y1713D01*
X990Y1713D01*
X990Y1711D01*
X992Y1711D01*
X992Y1709D01*
X994Y1709D01*
X994Y1707D01*
X996Y1707D01*
X996Y1705D01*
X998Y1705D01*
X998Y1703D01*
X1000Y1703D01*
X1000Y1699D01*
X1002Y1699D01*
X1002Y1693D01*
X1004Y1693D01*
X1004Y1681D01*
X1002Y1681D01*
X1002Y1675D01*
X1000Y1675D01*
X1000Y1673D01*
X1020Y1673D01*
X1020Y1675D01*
X1022Y1675D01*
X1022Y1677D01*
X1026Y1677D01*
X1026Y1679D01*
X1030Y1679D01*
X1030Y1681D01*
X1036Y1681D01*
X1036Y1683D01*
X1038Y1683D01*
X1038Y1703D01*
X1032Y1703D01*
X1032Y1705D01*
X1028Y1705D01*
X1028Y1707D01*
X1024Y1707D01*
X1024Y1709D01*
X1022Y1709D01*
X1022Y1711D01*
X1018Y1711D01*
X1018Y1713D01*
X1016Y1713D01*
X1016Y1715D01*
X1014Y1715D01*
X1014Y1717D01*
X1012Y1717D01*
X1012Y1721D01*
X1010Y1721D01*
X1010Y1723D01*
X1008Y1723D01*
X1008Y1727D01*
X1006Y1727D01*
X1006Y1729D01*
X1004Y1729D01*
X1004Y1735D01*
X1002Y1735D01*
X1002Y1741D01*
X1000Y1741D01*
X1000Y1761D01*
X1002Y1761D01*
X1002Y1769D01*
X1004Y1769D01*
X1004Y1773D01*
X1006Y1773D01*
X1006Y1777D01*
X1008Y1777D01*
X1008Y1781D01*
X1010Y1781D01*
X1010Y1783D01*
X1012Y1783D01*
X1012Y1785D01*
X1014Y1785D01*
X1014Y1787D01*
X1016Y1787D01*
X1016Y1789D01*
X1018Y1789D01*
X1018Y1791D01*
X1020Y1791D01*
X1020Y1793D01*
X1022Y1793D01*
X1022Y1795D01*
X1026Y1795D01*
X1026Y1797D01*
X1030Y1797D01*
X1030Y1799D01*
X1034Y1799D01*
X1034Y1801D01*
X1042Y1801D01*
X1042Y1803D01*
X1050Y1803D01*
X1050Y1823D01*
X1038Y1823D01*
X1038Y1825D01*
X1032Y1825D01*
X1032Y1827D01*
X1028Y1827D01*
X1028Y1829D01*
X1024Y1829D01*
X1024Y1831D01*
X1022Y1831D01*
X1022Y1833D01*
X1018Y1833D01*
X1018Y1835D01*
X1016Y1835D01*
X1016Y1837D01*
X1014Y1837D01*
X1014Y1839D01*
X1012Y1839D01*
X1012Y1841D01*
X1010Y1841D01*
X1010Y1845D01*
X1008Y1845D01*
X1008Y1847D01*
X1006Y1847D01*
X1006Y1851D01*
X1004Y1851D01*
X1004Y1855D01*
X1002Y1855D01*
X1002Y1863D01*
X1000Y1863D01*
X1000Y1883D01*
X1002Y1883D01*
X1002Y1891D01*
X1004Y1891D01*
X1004Y1895D01*
X1006Y1895D01*
X1006Y1899D01*
X1008Y1899D01*
X1008Y1903D01*
X1010Y1903D01*
X1010Y1905D01*
X1012Y1905D01*
X1012Y1907D01*
X1014Y1907D01*
X1014Y1909D01*
X1016Y1909D01*
X1016Y1911D01*
X1018Y1911D01*
X1018Y1913D01*
X1020Y1913D01*
X1020Y1915D01*
X1022Y1915D01*
X1022Y1917D01*
X1026Y1917D01*
X1026Y1919D01*
X1030Y1919D01*
X1030Y1921D01*
X1036Y1921D01*
X1036Y1923D01*
X1044Y1923D01*
X1044Y1925D01*
X882Y1925D01*
G37*
D02*
G36*
X910Y1717D02*
X910Y1715D01*
X908Y1715D01*
X908Y1713D01*
X906Y1713D01*
X906Y1711D01*
X904Y1711D01*
X904Y1709D01*
X900Y1709D01*
X900Y1707D01*
X898Y1707D01*
X898Y1705D01*
X894Y1705D01*
X894Y1703D01*
X886Y1703D01*
X886Y1683D01*
X890Y1683D01*
X890Y1681D01*
X896Y1681D01*
X896Y1679D01*
X898Y1679D01*
X898Y1677D01*
X902Y1677D01*
X902Y1675D01*
X906Y1675D01*
X906Y1673D01*
X908Y1673D01*
X908Y1671D01*
X910Y1671D01*
X910Y1669D01*
X912Y1669D01*
X912Y1667D01*
X914Y1667D01*
X914Y1663D01*
X916Y1663D01*
X916Y1661D01*
X918Y1661D01*
X918Y1657D01*
X966Y1657D01*
X966Y1659D01*
X962Y1659D01*
X962Y1661D01*
X958Y1661D01*
X958Y1663D01*
X956Y1663D01*
X956Y1665D01*
X952Y1665D01*
X952Y1669D01*
X950Y1669D01*
X950Y1671D01*
X948Y1671D01*
X948Y1675D01*
X946Y1675D01*
X946Y1681D01*
X944Y1681D01*
X944Y1691D01*
X946Y1691D01*
X946Y1699D01*
X948Y1699D01*
X948Y1703D01*
X950Y1703D01*
X950Y1705D01*
X952Y1705D01*
X952Y1707D01*
X954Y1707D01*
X954Y1709D01*
X956Y1709D01*
X956Y1711D01*
X960Y1711D01*
X960Y1713D01*
X962Y1713D01*
X962Y1715D01*
X972Y1715D01*
X972Y1717D01*
X910Y1717D01*
G37*
D02*
G36*
X988Y1661D02*
X988Y1659D01*
X982Y1659D01*
X982Y1657D01*
X1006Y1657D01*
X1006Y1659D01*
X1008Y1659D01*
X1008Y1661D01*
X988Y1661D01*
G37*
D02*
G36*
X920Y1657D02*
X920Y1655D01*
X1006Y1655D01*
X1006Y1657D01*
X920Y1657D01*
G37*
D02*
G36*
X920Y1657D02*
X920Y1655D01*
X1006Y1655D01*
X1006Y1657D01*
X920Y1657D01*
G37*
D02*
G36*
X922Y1655D02*
X922Y1649D01*
X924Y1649D01*
X924Y1639D01*
X926Y1639D01*
X926Y1627D01*
X924Y1627D01*
X924Y1617D01*
X922Y1617D01*
X922Y1613D01*
X920Y1613D01*
X920Y1609D01*
X918Y1609D01*
X918Y1605D01*
X916Y1605D01*
X916Y1603D01*
X914Y1603D01*
X914Y1601D01*
X912Y1601D01*
X912Y1597D01*
X910Y1597D01*
X910Y1595D01*
X906Y1595D01*
X906Y1593D01*
X904Y1593D01*
X904Y1591D01*
X902Y1591D01*
X902Y1589D01*
X898Y1589D01*
X898Y1587D01*
X894Y1587D01*
X894Y1585D01*
X888Y1585D01*
X888Y1565D01*
X890Y1565D01*
X890Y1563D01*
X894Y1563D01*
X894Y1561D01*
X898Y1561D01*
X898Y1559D01*
X902Y1559D01*
X902Y1557D01*
X904Y1557D01*
X904Y1555D01*
X908Y1555D01*
X908Y1553D01*
X910Y1553D01*
X910Y1551D01*
X912Y1551D01*
X912Y1549D01*
X914Y1549D01*
X914Y1545D01*
X916Y1545D01*
X916Y1543D01*
X918Y1543D01*
X918Y1539D01*
X920Y1539D01*
X920Y1535D01*
X922Y1535D01*
X922Y1531D01*
X924Y1531D01*
X924Y1521D01*
X926Y1521D01*
X926Y1509D01*
X924Y1509D01*
X924Y1499D01*
X922Y1499D01*
X922Y1495D01*
X920Y1495D01*
X920Y1491D01*
X982Y1491D01*
X982Y1489D01*
X988Y1489D01*
X988Y1487D01*
X1008Y1487D01*
X1008Y1489D01*
X1006Y1489D01*
X1006Y1493D01*
X1004Y1493D01*
X1004Y1497D01*
X1002Y1497D01*
X1002Y1505D01*
X1000Y1505D01*
X1000Y1525D01*
X1002Y1525D01*
X1002Y1533D01*
X1004Y1533D01*
X1004Y1537D01*
X1006Y1537D01*
X1006Y1541D01*
X1008Y1541D01*
X1008Y1543D01*
X1010Y1543D01*
X1010Y1547D01*
X1012Y1547D01*
X1012Y1549D01*
X1014Y1549D01*
X1014Y1551D01*
X1016Y1551D01*
X1016Y1553D01*
X1018Y1553D01*
X1018Y1555D01*
X1020Y1555D01*
X1020Y1557D01*
X1024Y1557D01*
X1024Y1559D01*
X1028Y1559D01*
X1028Y1561D01*
X1030Y1561D01*
X1030Y1563D01*
X1036Y1563D01*
X1036Y1565D01*
X1038Y1565D01*
X1038Y1585D01*
X1032Y1585D01*
X1032Y1587D01*
X1028Y1587D01*
X1028Y1589D01*
X1024Y1589D01*
X1024Y1591D01*
X1022Y1591D01*
X1022Y1593D01*
X1018Y1593D01*
X1018Y1595D01*
X1016Y1595D01*
X1016Y1597D01*
X1014Y1597D01*
X1014Y1599D01*
X1012Y1599D01*
X1012Y1601D01*
X1010Y1601D01*
X1010Y1605D01*
X1008Y1605D01*
X1008Y1607D01*
X1006Y1607D01*
X1006Y1611D01*
X1004Y1611D01*
X1004Y1615D01*
X1002Y1615D01*
X1002Y1623D01*
X1000Y1623D01*
X1000Y1643D01*
X1002Y1643D01*
X1002Y1651D01*
X1004Y1651D01*
X1004Y1655D01*
X922Y1655D01*
G37*
D02*
G36*
X918Y1491D02*
X918Y1487D01*
X916Y1487D01*
X916Y1485D01*
X914Y1485D01*
X914Y1481D01*
X912Y1481D01*
X912Y1479D01*
X910Y1479D01*
X910Y1477D01*
X908Y1477D01*
X908Y1475D01*
X904Y1475D01*
X904Y1473D01*
X902Y1473D01*
X902Y1471D01*
X898Y1471D01*
X898Y1469D01*
X894Y1469D01*
X894Y1467D01*
X890Y1467D01*
X890Y1445D01*
X894Y1445D01*
X894Y1443D01*
X898Y1443D01*
X898Y1441D01*
X902Y1441D01*
X902Y1439D01*
X904Y1439D01*
X904Y1437D01*
X908Y1437D01*
X908Y1435D01*
X910Y1435D01*
X910Y1433D01*
X964Y1433D01*
X964Y1435D01*
X960Y1435D01*
X960Y1437D01*
X956Y1437D01*
X956Y1439D01*
X954Y1439D01*
X954Y1441D01*
X952Y1441D01*
X952Y1443D01*
X950Y1443D01*
X950Y1447D01*
X948Y1447D01*
X948Y1449D01*
X946Y1449D01*
X946Y1457D01*
X944Y1457D01*
X944Y1467D01*
X946Y1467D01*
X946Y1473D01*
X948Y1473D01*
X948Y1477D01*
X950Y1477D01*
X950Y1479D01*
X952Y1479D01*
X952Y1483D01*
X954Y1483D01*
X954Y1485D01*
X958Y1485D01*
X958Y1487D01*
X960Y1487D01*
X960Y1489D01*
X966Y1489D01*
X966Y1491D01*
X918Y1491D01*
G37*
D02*
G36*
X1002Y1473D02*
X1002Y1467D01*
X1004Y1467D01*
X1004Y1455D01*
X1002Y1455D01*
X1002Y1449D01*
X1000Y1449D01*
X1000Y1445D01*
X998Y1445D01*
X998Y1443D01*
X996Y1443D01*
X996Y1441D01*
X994Y1441D01*
X994Y1439D01*
X992Y1439D01*
X992Y1437D01*
X988Y1437D01*
X988Y1435D01*
X984Y1435D01*
X984Y1433D01*
X1016Y1433D01*
X1016Y1435D01*
X1018Y1435D01*
X1018Y1437D01*
X1020Y1437D01*
X1020Y1439D01*
X1024Y1439D01*
X1024Y1441D01*
X1026Y1441D01*
X1026Y1443D01*
X1030Y1443D01*
X1030Y1445D01*
X1036Y1445D01*
X1036Y1467D01*
X1030Y1467D01*
X1030Y1469D01*
X1026Y1469D01*
X1026Y1471D01*
X1024Y1471D01*
X1024Y1473D01*
X1002Y1473D01*
G37*
D02*
G36*
X912Y1433D02*
X912Y1431D01*
X1014Y1431D01*
X1014Y1433D01*
X912Y1433D01*
G37*
D02*
G36*
X912Y1433D02*
X912Y1431D01*
X1014Y1431D01*
X1014Y1433D01*
X912Y1433D01*
G37*
D02*
G36*
X914Y1431D02*
X914Y1427D01*
X916Y1427D01*
X916Y1425D01*
X918Y1425D01*
X918Y1421D01*
X920Y1421D01*
X920Y1417D01*
X922Y1417D01*
X922Y1413D01*
X924Y1413D01*
X924Y1403D01*
X926Y1403D01*
X926Y1391D01*
X924Y1391D01*
X924Y1381D01*
X922Y1381D01*
X922Y1377D01*
X920Y1377D01*
X920Y1373D01*
X918Y1373D01*
X918Y1351D01*
X994Y1351D01*
X994Y1353D01*
X996Y1353D01*
X996Y1355D01*
X998Y1355D01*
X998Y1357D01*
X1000Y1357D01*
X1000Y1361D01*
X1002Y1361D01*
X1002Y1387D01*
X1000Y1387D01*
X1000Y1407D01*
X1002Y1407D01*
X1002Y1415D01*
X1004Y1415D01*
X1004Y1419D01*
X1006Y1419D01*
X1006Y1423D01*
X1008Y1423D01*
X1008Y1427D01*
X1010Y1427D01*
X1010Y1429D01*
X1012Y1429D01*
X1012Y1431D01*
X914Y1431D01*
G37*
D02*
G36*
X288Y2087D02*
X288Y2085D01*
X286Y2085D01*
X286Y2081D01*
X284Y2081D01*
X284Y2079D01*
X282Y2079D01*
X282Y2077D01*
X280Y2077D01*
X280Y2075D01*
X276Y2075D01*
X276Y2073D01*
X274Y2073D01*
X274Y2071D01*
X272Y2071D01*
X272Y2051D01*
X276Y2051D01*
X276Y2049D01*
X278Y2049D01*
X278Y2047D01*
X280Y2047D01*
X280Y2045D01*
X284Y2045D01*
X284Y2041D01*
X286Y2041D01*
X286Y2039D01*
X288Y2039D01*
X288Y2037D01*
X290Y2037D01*
X290Y2035D01*
X310Y2035D01*
X310Y2039D01*
X312Y2039D01*
X312Y2041D01*
X314Y2041D01*
X314Y2043D01*
X316Y2043D01*
X316Y2045D01*
X318Y2045D01*
X318Y2047D01*
X320Y2047D01*
X320Y2049D01*
X322Y2049D01*
X322Y2051D01*
X326Y2051D01*
X326Y2071D01*
X324Y2071D01*
X324Y2073D01*
X322Y2073D01*
X322Y2075D01*
X318Y2075D01*
X318Y2077D01*
X316Y2077D01*
X316Y2079D01*
X314Y2079D01*
X314Y2081D01*
X312Y2081D01*
X312Y2085D01*
X310Y2085D01*
X310Y2087D01*
X288Y2087D01*
G37*
D02*
G36*
X1362Y2103D02*
X1362Y2097D01*
X1360Y2097D01*
X1360Y2093D01*
X1358Y2093D01*
X1358Y2089D01*
X1356Y2089D01*
X1356Y2085D01*
X1354Y2085D01*
X1354Y2083D01*
X1352Y2083D01*
X1352Y2079D01*
X1350Y2079D01*
X1350Y2077D01*
X1348Y2077D01*
X1348Y2075D01*
X1346Y2075D01*
X1346Y2071D01*
X1344Y2071D01*
X1344Y2069D01*
X1342Y2069D01*
X1342Y2067D01*
X1340Y2067D01*
X1340Y2065D01*
X1338Y2065D01*
X1338Y2063D01*
X1334Y2063D01*
X1334Y2061D01*
X1332Y2061D01*
X1332Y2059D01*
X1330Y2059D01*
X1330Y2057D01*
X1326Y2057D01*
X1326Y2055D01*
X1324Y2055D01*
X1324Y2053D01*
X1320Y2053D01*
X1320Y2051D01*
X1316Y2051D01*
X1316Y2049D01*
X1312Y2049D01*
X1312Y2047D01*
X1306Y2047D01*
X1306Y2045D01*
X1300Y2045D01*
X1300Y2043D01*
X1290Y2043D01*
X1290Y2041D01*
X1382Y2041D01*
X1382Y2103D01*
X1362Y2103D01*
G37*
D02*
G36*
X1192Y2067D02*
X1192Y2041D01*
X1260Y2041D01*
X1260Y2043D01*
X1252Y2043D01*
X1252Y2045D01*
X1246Y2045D01*
X1246Y2047D01*
X1240Y2047D01*
X1240Y2049D01*
X1236Y2049D01*
X1236Y2051D01*
X1232Y2051D01*
X1232Y2053D01*
X1228Y2053D01*
X1228Y2055D01*
X1224Y2055D01*
X1224Y2057D01*
X1222Y2057D01*
X1222Y2059D01*
X1220Y2059D01*
X1220Y2061D01*
X1216Y2061D01*
X1216Y2063D01*
X1214Y2063D01*
X1214Y2065D01*
X1212Y2065D01*
X1212Y2067D01*
X1192Y2067D01*
G37*
D02*
G36*
X1192Y2041D02*
X1192Y2039D01*
X1382Y2039D01*
X1382Y2041D01*
X1192Y2041D01*
G37*
D02*
G36*
X1192Y2041D02*
X1192Y2039D01*
X1382Y2039D01*
X1382Y2041D01*
X1192Y2041D01*
G37*
D02*
G36*
X1192Y2039D02*
X1192Y1873D01*
X1212Y1873D01*
X1212Y1875D01*
X1214Y1875D01*
X1214Y1877D01*
X1216Y1877D01*
X1216Y1879D01*
X1218Y1879D01*
X1218Y1881D01*
X1220Y1881D01*
X1220Y1883D01*
X1222Y1883D01*
X1222Y1885D01*
X1224Y1885D01*
X1224Y1887D01*
X1226Y1887D01*
X1226Y1889D01*
X1228Y1889D01*
X1228Y1891D01*
X1230Y1891D01*
X1230Y1893D01*
X1232Y1893D01*
X1232Y1895D01*
X1234Y1895D01*
X1234Y1897D01*
X1236Y1897D01*
X1236Y1899D01*
X1238Y1899D01*
X1238Y1901D01*
X1240Y1901D01*
X1240Y1903D01*
X1244Y1903D01*
X1244Y1905D01*
X1368Y1905D01*
X1368Y1907D01*
X1370Y1907D01*
X1370Y1909D01*
X1372Y1909D01*
X1372Y1911D01*
X1374Y1911D01*
X1374Y1913D01*
X1376Y1913D01*
X1376Y1915D01*
X1378Y1915D01*
X1378Y1917D01*
X1380Y1917D01*
X1380Y1919D01*
X1382Y1919D01*
X1382Y2039D01*
X1192Y2039D01*
G37*
D02*
G36*
X288Y1987D02*
X288Y1985D01*
X286Y1985D01*
X286Y1981D01*
X284Y1981D01*
X284Y1979D01*
X282Y1979D01*
X282Y1977D01*
X280Y1977D01*
X280Y1975D01*
X276Y1975D01*
X276Y1973D01*
X274Y1973D01*
X274Y1971D01*
X272Y1971D01*
X272Y1951D01*
X276Y1951D01*
X276Y1949D01*
X278Y1949D01*
X278Y1947D01*
X280Y1947D01*
X280Y1945D01*
X284Y1945D01*
X284Y1941D01*
X286Y1941D01*
X286Y1939D01*
X288Y1939D01*
X288Y1937D01*
X290Y1937D01*
X290Y1935D01*
X310Y1935D01*
X310Y1939D01*
X312Y1939D01*
X312Y1941D01*
X314Y1941D01*
X314Y1943D01*
X316Y1943D01*
X316Y1945D01*
X318Y1945D01*
X318Y1947D01*
X320Y1947D01*
X320Y1949D01*
X322Y1949D01*
X322Y1951D01*
X326Y1951D01*
X326Y1971D01*
X324Y1971D01*
X324Y1973D01*
X322Y1973D01*
X322Y1975D01*
X318Y1975D01*
X318Y1977D01*
X316Y1977D01*
X316Y1979D01*
X314Y1979D01*
X314Y1981D01*
X312Y1981D01*
X312Y1985D01*
X310Y1985D01*
X310Y1987D01*
X288Y1987D01*
G37*
D02*
G36*
X72Y1915D02*
X72Y1233D01*
X208Y1233D01*
X208Y1235D01*
X210Y1235D01*
X210Y1239D01*
X212Y1239D01*
X212Y1241D01*
X214Y1241D01*
X214Y1243D01*
X216Y1243D01*
X216Y1245D01*
X218Y1245D01*
X218Y1247D01*
X220Y1247D01*
X220Y1249D01*
X222Y1249D01*
X222Y1251D01*
X226Y1251D01*
X226Y1271D01*
X224Y1271D01*
X224Y1273D01*
X222Y1273D01*
X222Y1275D01*
X218Y1275D01*
X218Y1277D01*
X216Y1277D01*
X216Y1279D01*
X214Y1279D01*
X214Y1281D01*
X212Y1281D01*
X212Y1285D01*
X210Y1285D01*
X210Y1287D01*
X208Y1287D01*
X208Y1291D01*
X206Y1291D01*
X206Y1297D01*
X204Y1297D01*
X204Y1303D01*
X202Y1303D01*
X202Y1319D01*
X204Y1319D01*
X204Y1327D01*
X206Y1327D01*
X206Y1333D01*
X208Y1333D01*
X208Y1335D01*
X210Y1335D01*
X210Y1339D01*
X212Y1339D01*
X212Y1341D01*
X214Y1341D01*
X214Y1343D01*
X216Y1343D01*
X216Y1345D01*
X218Y1345D01*
X218Y1347D01*
X220Y1347D01*
X220Y1349D01*
X222Y1349D01*
X222Y1351D01*
X226Y1351D01*
X226Y1371D01*
X224Y1371D01*
X224Y1373D01*
X222Y1373D01*
X222Y1375D01*
X218Y1375D01*
X218Y1377D01*
X216Y1377D01*
X216Y1379D01*
X214Y1379D01*
X214Y1381D01*
X212Y1381D01*
X212Y1385D01*
X210Y1385D01*
X210Y1387D01*
X208Y1387D01*
X208Y1391D01*
X206Y1391D01*
X206Y1397D01*
X204Y1397D01*
X204Y1403D01*
X202Y1403D01*
X202Y1419D01*
X204Y1419D01*
X204Y1427D01*
X206Y1427D01*
X206Y1433D01*
X208Y1433D01*
X208Y1435D01*
X210Y1435D01*
X210Y1439D01*
X212Y1439D01*
X212Y1441D01*
X214Y1441D01*
X214Y1443D01*
X216Y1443D01*
X216Y1445D01*
X218Y1445D01*
X218Y1447D01*
X220Y1447D01*
X220Y1449D01*
X222Y1449D01*
X222Y1451D01*
X226Y1451D01*
X226Y1471D01*
X224Y1471D01*
X224Y1473D01*
X222Y1473D01*
X222Y1475D01*
X218Y1475D01*
X218Y1477D01*
X216Y1477D01*
X216Y1479D01*
X214Y1479D01*
X214Y1481D01*
X212Y1481D01*
X212Y1485D01*
X210Y1485D01*
X210Y1487D01*
X208Y1487D01*
X208Y1491D01*
X206Y1491D01*
X206Y1497D01*
X204Y1497D01*
X204Y1503D01*
X202Y1503D01*
X202Y1519D01*
X204Y1519D01*
X204Y1527D01*
X206Y1527D01*
X206Y1533D01*
X208Y1533D01*
X208Y1535D01*
X210Y1535D01*
X210Y1539D01*
X212Y1539D01*
X212Y1541D01*
X214Y1541D01*
X214Y1543D01*
X216Y1543D01*
X216Y1545D01*
X218Y1545D01*
X218Y1547D01*
X220Y1547D01*
X220Y1549D01*
X222Y1549D01*
X222Y1551D01*
X226Y1551D01*
X226Y1571D01*
X224Y1571D01*
X224Y1573D01*
X222Y1573D01*
X222Y1575D01*
X218Y1575D01*
X218Y1577D01*
X216Y1577D01*
X216Y1579D01*
X214Y1579D01*
X214Y1581D01*
X212Y1581D01*
X212Y1585D01*
X210Y1585D01*
X210Y1587D01*
X208Y1587D01*
X208Y1591D01*
X206Y1591D01*
X206Y1597D01*
X204Y1597D01*
X204Y1603D01*
X202Y1603D01*
X202Y1619D01*
X204Y1619D01*
X204Y1627D01*
X206Y1627D01*
X206Y1633D01*
X208Y1633D01*
X208Y1635D01*
X210Y1635D01*
X210Y1639D01*
X212Y1639D01*
X212Y1641D01*
X214Y1641D01*
X214Y1643D01*
X216Y1643D01*
X216Y1645D01*
X218Y1645D01*
X218Y1647D01*
X220Y1647D01*
X220Y1649D01*
X222Y1649D01*
X222Y1651D01*
X226Y1651D01*
X226Y1671D01*
X224Y1671D01*
X224Y1673D01*
X222Y1673D01*
X222Y1675D01*
X218Y1675D01*
X218Y1677D01*
X216Y1677D01*
X216Y1679D01*
X214Y1679D01*
X214Y1681D01*
X212Y1681D01*
X212Y1685D01*
X210Y1685D01*
X210Y1687D01*
X208Y1687D01*
X208Y1691D01*
X206Y1691D01*
X206Y1697D01*
X204Y1697D01*
X204Y1703D01*
X202Y1703D01*
X202Y1719D01*
X204Y1719D01*
X204Y1727D01*
X206Y1727D01*
X206Y1733D01*
X208Y1733D01*
X208Y1735D01*
X210Y1735D01*
X210Y1739D01*
X212Y1739D01*
X212Y1741D01*
X214Y1741D01*
X214Y1743D01*
X216Y1743D01*
X216Y1745D01*
X218Y1745D01*
X218Y1747D01*
X220Y1747D01*
X220Y1749D01*
X222Y1749D01*
X222Y1751D01*
X226Y1751D01*
X226Y1771D01*
X224Y1771D01*
X224Y1773D01*
X222Y1773D01*
X222Y1775D01*
X218Y1775D01*
X218Y1777D01*
X216Y1777D01*
X216Y1779D01*
X214Y1779D01*
X214Y1781D01*
X212Y1781D01*
X212Y1785D01*
X210Y1785D01*
X210Y1787D01*
X208Y1787D01*
X208Y1791D01*
X206Y1791D01*
X206Y1797D01*
X204Y1797D01*
X204Y1803D01*
X202Y1803D01*
X202Y1819D01*
X204Y1819D01*
X204Y1827D01*
X206Y1827D01*
X206Y1833D01*
X208Y1833D01*
X208Y1835D01*
X210Y1835D01*
X210Y1839D01*
X212Y1839D01*
X212Y1841D01*
X214Y1841D01*
X214Y1843D01*
X216Y1843D01*
X216Y1845D01*
X218Y1845D01*
X218Y1847D01*
X220Y1847D01*
X220Y1849D01*
X222Y1849D01*
X222Y1851D01*
X226Y1851D01*
X226Y1871D01*
X224Y1871D01*
X224Y1873D01*
X222Y1873D01*
X222Y1875D01*
X218Y1875D01*
X218Y1877D01*
X216Y1877D01*
X216Y1879D01*
X214Y1879D01*
X214Y1881D01*
X212Y1881D01*
X212Y1885D01*
X210Y1885D01*
X210Y1887D01*
X208Y1887D01*
X208Y1891D01*
X140Y1891D01*
X140Y1893D01*
X114Y1893D01*
X114Y1895D01*
X110Y1895D01*
X110Y1897D01*
X108Y1897D01*
X108Y1899D01*
X106Y1899D01*
X106Y1901D01*
X104Y1901D01*
X104Y1903D01*
X102Y1903D01*
X102Y1905D01*
X100Y1905D01*
X100Y1907D01*
X98Y1907D01*
X98Y1909D01*
X96Y1909D01*
X96Y1911D01*
X94Y1911D01*
X94Y1913D01*
X92Y1913D01*
X92Y1915D01*
X72Y1915D01*
G37*
D02*
G36*
X288Y1887D02*
X288Y1885D01*
X286Y1885D01*
X286Y1881D01*
X284Y1881D01*
X284Y1879D01*
X282Y1879D01*
X282Y1877D01*
X280Y1877D01*
X280Y1875D01*
X276Y1875D01*
X276Y1873D01*
X274Y1873D01*
X274Y1871D01*
X272Y1871D01*
X272Y1851D01*
X276Y1851D01*
X276Y1849D01*
X278Y1849D01*
X278Y1847D01*
X280Y1847D01*
X280Y1845D01*
X284Y1845D01*
X284Y1841D01*
X286Y1841D01*
X286Y1839D01*
X288Y1839D01*
X288Y1837D01*
X290Y1837D01*
X290Y1835D01*
X310Y1835D01*
X310Y1839D01*
X312Y1839D01*
X312Y1841D01*
X314Y1841D01*
X314Y1843D01*
X316Y1843D01*
X316Y1845D01*
X318Y1845D01*
X318Y1847D01*
X320Y1847D01*
X320Y1849D01*
X322Y1849D01*
X322Y1851D01*
X326Y1851D01*
X326Y1871D01*
X324Y1871D01*
X324Y1873D01*
X322Y1873D01*
X322Y1875D01*
X318Y1875D01*
X318Y1877D01*
X316Y1877D01*
X316Y1879D01*
X314Y1879D01*
X314Y1881D01*
X312Y1881D01*
X312Y1885D01*
X310Y1885D01*
X310Y1887D01*
X288Y1887D01*
G37*
D02*
G36*
X288Y1787D02*
X288Y1785D01*
X286Y1785D01*
X286Y1781D01*
X284Y1781D01*
X284Y1779D01*
X282Y1779D01*
X282Y1777D01*
X280Y1777D01*
X280Y1775D01*
X276Y1775D01*
X276Y1773D01*
X274Y1773D01*
X274Y1771D01*
X272Y1771D01*
X272Y1751D01*
X276Y1751D01*
X276Y1749D01*
X278Y1749D01*
X278Y1747D01*
X280Y1747D01*
X280Y1745D01*
X284Y1745D01*
X284Y1741D01*
X286Y1741D01*
X286Y1739D01*
X288Y1739D01*
X288Y1737D01*
X290Y1737D01*
X290Y1735D01*
X310Y1735D01*
X310Y1739D01*
X312Y1739D01*
X312Y1741D01*
X314Y1741D01*
X314Y1743D01*
X316Y1743D01*
X316Y1745D01*
X318Y1745D01*
X318Y1747D01*
X320Y1747D01*
X320Y1749D01*
X322Y1749D01*
X322Y1751D01*
X326Y1751D01*
X326Y1771D01*
X324Y1771D01*
X324Y1773D01*
X322Y1773D01*
X322Y1775D01*
X318Y1775D01*
X318Y1777D01*
X316Y1777D01*
X316Y1779D01*
X314Y1779D01*
X314Y1781D01*
X312Y1781D01*
X312Y1785D01*
X310Y1785D01*
X310Y1787D01*
X288Y1787D01*
G37*
D02*
G36*
X506Y1739D02*
X506Y1737D01*
X504Y1737D01*
X504Y1735D01*
X502Y1735D01*
X502Y1733D01*
X500Y1733D01*
X500Y1731D01*
X498Y1731D01*
X498Y1729D01*
X496Y1729D01*
X496Y1029D01*
X494Y1029D01*
X494Y1025D01*
X492Y1025D01*
X492Y1023D01*
X490Y1023D01*
X490Y1021D01*
X488Y1021D01*
X488Y1019D01*
X486Y1019D01*
X486Y1017D01*
X484Y1017D01*
X484Y1015D01*
X482Y1015D01*
X482Y1013D01*
X480Y1013D01*
X480Y1011D01*
X478Y1011D01*
X478Y1009D01*
X476Y1009D01*
X476Y1007D01*
X474Y1007D01*
X474Y1005D01*
X472Y1005D01*
X472Y1003D01*
X470Y1003D01*
X470Y1001D01*
X468Y1001D01*
X468Y999D01*
X466Y999D01*
X466Y997D01*
X464Y997D01*
X464Y995D01*
X462Y995D01*
X462Y993D01*
X458Y993D01*
X458Y991D01*
X454Y991D01*
X454Y989D01*
X390Y989D01*
X390Y987D01*
X388Y987D01*
X388Y985D01*
X386Y985D01*
X386Y981D01*
X384Y981D01*
X384Y979D01*
X382Y979D01*
X382Y977D01*
X380Y977D01*
X380Y975D01*
X376Y975D01*
X376Y973D01*
X374Y973D01*
X374Y971D01*
X372Y971D01*
X372Y951D01*
X376Y951D01*
X376Y949D01*
X378Y949D01*
X378Y947D01*
X380Y947D01*
X380Y945D01*
X384Y945D01*
X384Y941D01*
X386Y941D01*
X386Y939D01*
X388Y939D01*
X388Y937D01*
X390Y937D01*
X390Y933D01*
X516Y933D01*
X516Y935D01*
X518Y935D01*
X518Y937D01*
X520Y937D01*
X520Y939D01*
X522Y939D01*
X522Y941D01*
X524Y941D01*
X524Y943D01*
X526Y943D01*
X526Y945D01*
X528Y945D01*
X528Y1621D01*
X530Y1621D01*
X530Y1623D01*
X532Y1623D01*
X532Y1627D01*
X534Y1627D01*
X534Y1629D01*
X536Y1629D01*
X536Y1631D01*
X538Y1631D01*
X538Y1633D01*
X540Y1633D01*
X540Y1635D01*
X542Y1635D01*
X542Y1637D01*
X544Y1637D01*
X544Y1639D01*
X546Y1639D01*
X546Y1641D01*
X548Y1641D01*
X548Y1643D01*
X550Y1643D01*
X550Y1645D01*
X552Y1645D01*
X552Y1647D01*
X554Y1647D01*
X554Y1649D01*
X556Y1649D01*
X556Y1651D01*
X558Y1651D01*
X558Y1653D01*
X560Y1653D01*
X560Y1655D01*
X564Y1655D01*
X564Y1657D01*
X570Y1657D01*
X570Y1659D01*
X830Y1659D01*
X830Y1661D01*
X832Y1661D01*
X832Y1663D01*
X834Y1663D01*
X834Y1667D01*
X836Y1667D01*
X836Y1669D01*
X838Y1669D01*
X838Y1671D01*
X840Y1671D01*
X840Y1673D01*
X844Y1673D01*
X844Y1675D01*
X846Y1675D01*
X846Y1677D01*
X850Y1677D01*
X850Y1679D01*
X854Y1679D01*
X854Y1681D01*
X858Y1681D01*
X858Y1683D01*
X862Y1683D01*
X862Y1703D01*
X856Y1703D01*
X856Y1705D01*
X852Y1705D01*
X852Y1707D01*
X848Y1707D01*
X848Y1709D01*
X844Y1709D01*
X844Y1711D01*
X842Y1711D01*
X842Y1713D01*
X840Y1713D01*
X840Y1715D01*
X838Y1715D01*
X838Y1717D01*
X836Y1717D01*
X836Y1719D01*
X834Y1719D01*
X834Y1721D01*
X832Y1721D01*
X832Y1725D01*
X830Y1725D01*
X830Y1727D01*
X828Y1727D01*
X828Y1731D01*
X826Y1731D01*
X826Y1737D01*
X824Y1737D01*
X824Y1739D01*
X506Y1739D01*
G37*
D02*
G36*
X288Y1687D02*
X288Y1685D01*
X286Y1685D01*
X286Y1681D01*
X284Y1681D01*
X284Y1679D01*
X282Y1679D01*
X282Y1677D01*
X280Y1677D01*
X280Y1675D01*
X276Y1675D01*
X276Y1673D01*
X274Y1673D01*
X274Y1671D01*
X272Y1671D01*
X272Y1651D01*
X276Y1651D01*
X276Y1649D01*
X278Y1649D01*
X278Y1647D01*
X280Y1647D01*
X280Y1645D01*
X284Y1645D01*
X284Y1641D01*
X286Y1641D01*
X286Y1639D01*
X288Y1639D01*
X288Y1637D01*
X290Y1637D01*
X290Y1635D01*
X310Y1635D01*
X310Y1639D01*
X312Y1639D01*
X312Y1641D01*
X314Y1641D01*
X314Y1643D01*
X316Y1643D01*
X316Y1645D01*
X318Y1645D01*
X318Y1647D01*
X320Y1647D01*
X320Y1649D01*
X322Y1649D01*
X322Y1651D01*
X326Y1651D01*
X326Y1671D01*
X324Y1671D01*
X324Y1673D01*
X322Y1673D01*
X322Y1675D01*
X318Y1675D01*
X318Y1677D01*
X316Y1677D01*
X316Y1679D01*
X314Y1679D01*
X314Y1681D01*
X312Y1681D01*
X312Y1685D01*
X310Y1685D01*
X310Y1687D01*
X288Y1687D01*
G37*
D02*
G36*
X582Y1615D02*
X582Y1613D01*
X580Y1613D01*
X580Y1611D01*
X578Y1611D01*
X578Y1609D01*
X576Y1609D01*
X576Y1607D01*
X574Y1607D01*
X574Y1605D01*
X572Y1605D01*
X572Y935D01*
X570Y935D01*
X570Y927D01*
X568Y927D01*
X568Y923D01*
X566Y923D01*
X566Y921D01*
X564Y921D01*
X564Y919D01*
X562Y919D01*
X562Y917D01*
X560Y917D01*
X560Y915D01*
X558Y915D01*
X558Y913D01*
X556Y913D01*
X556Y911D01*
X554Y911D01*
X554Y909D01*
X552Y909D01*
X552Y907D01*
X550Y907D01*
X550Y905D01*
X548Y905D01*
X548Y903D01*
X546Y903D01*
X546Y901D01*
X544Y901D01*
X544Y899D01*
X542Y899D01*
X542Y897D01*
X540Y897D01*
X540Y895D01*
X538Y895D01*
X538Y893D01*
X534Y893D01*
X534Y891D01*
X528Y891D01*
X528Y889D01*
X390Y889D01*
X390Y887D01*
X388Y887D01*
X388Y885D01*
X386Y885D01*
X386Y881D01*
X384Y881D01*
X384Y879D01*
X382Y879D01*
X382Y877D01*
X380Y877D01*
X380Y875D01*
X376Y875D01*
X376Y873D01*
X374Y873D01*
X374Y871D01*
X372Y871D01*
X372Y851D01*
X376Y851D01*
X376Y849D01*
X378Y849D01*
X378Y847D01*
X380Y847D01*
X380Y845D01*
X384Y845D01*
X384Y841D01*
X386Y841D01*
X386Y839D01*
X388Y839D01*
X388Y837D01*
X390Y837D01*
X390Y833D01*
X392Y833D01*
X392Y829D01*
X394Y829D01*
X394Y821D01*
X396Y821D01*
X396Y801D01*
X394Y801D01*
X394Y795D01*
X392Y795D01*
X392Y791D01*
X390Y791D01*
X390Y787D01*
X388Y787D01*
X388Y785D01*
X386Y785D01*
X386Y781D01*
X384Y781D01*
X384Y779D01*
X382Y779D01*
X382Y777D01*
X380Y777D01*
X380Y775D01*
X376Y775D01*
X376Y773D01*
X374Y773D01*
X374Y771D01*
X372Y771D01*
X372Y751D01*
X376Y751D01*
X376Y749D01*
X378Y749D01*
X378Y747D01*
X380Y747D01*
X380Y745D01*
X384Y745D01*
X384Y741D01*
X386Y741D01*
X386Y739D01*
X388Y739D01*
X388Y737D01*
X390Y737D01*
X390Y733D01*
X392Y733D01*
X392Y729D01*
X394Y729D01*
X394Y725D01*
X694Y725D01*
X694Y727D01*
X696Y727D01*
X696Y729D01*
X698Y729D01*
X698Y731D01*
X700Y731D01*
X700Y733D01*
X702Y733D01*
X702Y735D01*
X704Y735D01*
X704Y737D01*
X706Y737D01*
X706Y739D01*
X708Y739D01*
X708Y741D01*
X710Y741D01*
X710Y1317D01*
X712Y1317D01*
X712Y1321D01*
X714Y1321D01*
X714Y1323D01*
X716Y1323D01*
X716Y1325D01*
X718Y1325D01*
X718Y1327D01*
X720Y1327D01*
X720Y1329D01*
X722Y1329D01*
X722Y1331D01*
X724Y1331D01*
X724Y1333D01*
X726Y1333D01*
X726Y1335D01*
X728Y1335D01*
X728Y1337D01*
X730Y1337D01*
X730Y1339D01*
X732Y1339D01*
X732Y1341D01*
X734Y1341D01*
X734Y1343D01*
X736Y1343D01*
X736Y1345D01*
X738Y1345D01*
X738Y1347D01*
X742Y1347D01*
X742Y1349D01*
X746Y1349D01*
X746Y1351D01*
X830Y1351D01*
X830Y1373D01*
X828Y1373D01*
X828Y1377D01*
X826Y1377D01*
X826Y1383D01*
X824Y1383D01*
X824Y1393D01*
X822Y1393D01*
X822Y1401D01*
X824Y1401D01*
X824Y1411D01*
X826Y1411D01*
X826Y1417D01*
X828Y1417D01*
X828Y1421D01*
X830Y1421D01*
X830Y1425D01*
X832Y1425D01*
X832Y1427D01*
X834Y1427D01*
X834Y1429D01*
X836Y1429D01*
X836Y1433D01*
X838Y1433D01*
X838Y1435D01*
X842Y1435D01*
X842Y1437D01*
X844Y1437D01*
X844Y1439D01*
X846Y1439D01*
X846Y1441D01*
X850Y1441D01*
X850Y1443D01*
X854Y1443D01*
X854Y1445D01*
X858Y1445D01*
X858Y1467D01*
X854Y1467D01*
X854Y1469D01*
X850Y1469D01*
X850Y1471D01*
X846Y1471D01*
X846Y1473D01*
X844Y1473D01*
X844Y1475D01*
X842Y1475D01*
X842Y1477D01*
X838Y1477D01*
X838Y1479D01*
X836Y1479D01*
X836Y1483D01*
X834Y1483D01*
X834Y1485D01*
X832Y1485D01*
X832Y1487D01*
X830Y1487D01*
X830Y1491D01*
X828Y1491D01*
X828Y1495D01*
X826Y1495D01*
X826Y1501D01*
X824Y1501D01*
X824Y1511D01*
X822Y1511D01*
X822Y1519D01*
X824Y1519D01*
X824Y1529D01*
X826Y1529D01*
X826Y1535D01*
X828Y1535D01*
X828Y1539D01*
X830Y1539D01*
X830Y1543D01*
X832Y1543D01*
X832Y1545D01*
X834Y1545D01*
X834Y1547D01*
X836Y1547D01*
X836Y1551D01*
X838Y1551D01*
X838Y1553D01*
X842Y1553D01*
X842Y1555D01*
X844Y1555D01*
X844Y1557D01*
X846Y1557D01*
X846Y1559D01*
X850Y1559D01*
X850Y1561D01*
X854Y1561D01*
X854Y1563D01*
X860Y1563D01*
X860Y1585D01*
X854Y1585D01*
X854Y1587D01*
X850Y1587D01*
X850Y1589D01*
X846Y1589D01*
X846Y1591D01*
X844Y1591D01*
X844Y1593D01*
X842Y1593D01*
X842Y1595D01*
X840Y1595D01*
X840Y1597D01*
X838Y1597D01*
X838Y1599D01*
X836Y1599D01*
X836Y1601D01*
X834Y1601D01*
X834Y1603D01*
X832Y1603D01*
X832Y1605D01*
X830Y1605D01*
X830Y1609D01*
X828Y1609D01*
X828Y1613D01*
X826Y1613D01*
X826Y1615D01*
X582Y1615D01*
G37*
D02*
G36*
X288Y1587D02*
X288Y1585D01*
X286Y1585D01*
X286Y1581D01*
X284Y1581D01*
X284Y1579D01*
X282Y1579D01*
X282Y1577D01*
X280Y1577D01*
X280Y1575D01*
X276Y1575D01*
X276Y1573D01*
X274Y1573D01*
X274Y1571D01*
X272Y1571D01*
X272Y1551D01*
X276Y1551D01*
X276Y1549D01*
X278Y1549D01*
X278Y1547D01*
X280Y1547D01*
X280Y1545D01*
X284Y1545D01*
X284Y1541D01*
X286Y1541D01*
X286Y1539D01*
X288Y1539D01*
X288Y1537D01*
X290Y1537D01*
X290Y1535D01*
X310Y1535D01*
X310Y1539D01*
X312Y1539D01*
X312Y1541D01*
X314Y1541D01*
X314Y1543D01*
X316Y1543D01*
X316Y1545D01*
X318Y1545D01*
X318Y1547D01*
X320Y1547D01*
X320Y1549D01*
X322Y1549D01*
X322Y1551D01*
X326Y1551D01*
X326Y1571D01*
X324Y1571D01*
X324Y1573D01*
X322Y1573D01*
X322Y1575D01*
X318Y1575D01*
X318Y1577D01*
X316Y1577D01*
X316Y1579D01*
X314Y1579D01*
X314Y1581D01*
X312Y1581D01*
X312Y1585D01*
X310Y1585D01*
X310Y1587D01*
X288Y1587D01*
G37*
D02*
G36*
X288Y1487D02*
X288Y1485D01*
X286Y1485D01*
X286Y1481D01*
X284Y1481D01*
X284Y1479D01*
X282Y1479D01*
X282Y1477D01*
X280Y1477D01*
X280Y1475D01*
X276Y1475D01*
X276Y1473D01*
X274Y1473D01*
X274Y1471D01*
X272Y1471D01*
X272Y1451D01*
X276Y1451D01*
X276Y1449D01*
X278Y1449D01*
X278Y1447D01*
X280Y1447D01*
X280Y1445D01*
X284Y1445D01*
X284Y1441D01*
X286Y1441D01*
X286Y1439D01*
X288Y1439D01*
X288Y1437D01*
X290Y1437D01*
X290Y1435D01*
X310Y1435D01*
X310Y1439D01*
X312Y1439D01*
X312Y1441D01*
X314Y1441D01*
X314Y1443D01*
X316Y1443D01*
X316Y1445D01*
X318Y1445D01*
X318Y1447D01*
X320Y1447D01*
X320Y1449D01*
X322Y1449D01*
X322Y1451D01*
X326Y1451D01*
X326Y1471D01*
X324Y1471D01*
X324Y1473D01*
X322Y1473D01*
X322Y1475D01*
X318Y1475D01*
X318Y1477D01*
X316Y1477D01*
X316Y1479D01*
X314Y1479D01*
X314Y1481D01*
X312Y1481D01*
X312Y1485D01*
X310Y1485D01*
X310Y1487D01*
X288Y1487D01*
G37*
D02*
G36*
X288Y1387D02*
X288Y1385D01*
X286Y1385D01*
X286Y1381D01*
X284Y1381D01*
X284Y1379D01*
X282Y1379D01*
X282Y1377D01*
X280Y1377D01*
X280Y1375D01*
X276Y1375D01*
X276Y1373D01*
X274Y1373D01*
X274Y1371D01*
X272Y1371D01*
X272Y1351D01*
X276Y1351D01*
X276Y1349D01*
X278Y1349D01*
X278Y1347D01*
X280Y1347D01*
X280Y1345D01*
X284Y1345D01*
X284Y1341D01*
X286Y1341D01*
X286Y1339D01*
X288Y1339D01*
X288Y1337D01*
X290Y1337D01*
X290Y1335D01*
X310Y1335D01*
X310Y1339D01*
X312Y1339D01*
X312Y1341D01*
X314Y1341D01*
X314Y1343D01*
X316Y1343D01*
X316Y1345D01*
X318Y1345D01*
X318Y1347D01*
X320Y1347D01*
X320Y1349D01*
X322Y1349D01*
X322Y1351D01*
X326Y1351D01*
X326Y1371D01*
X324Y1371D01*
X324Y1373D01*
X322Y1373D01*
X322Y1375D01*
X318Y1375D01*
X318Y1377D01*
X316Y1377D01*
X316Y1379D01*
X314Y1379D01*
X314Y1381D01*
X312Y1381D01*
X312Y1385D01*
X310Y1385D01*
X310Y1387D01*
X288Y1387D01*
G37*
D02*
G36*
X754Y1323D02*
X754Y1321D01*
X752Y1321D01*
X752Y1319D01*
X750Y1319D01*
X750Y1317D01*
X748Y1317D01*
X748Y1315D01*
X746Y1315D01*
X746Y1313D01*
X744Y1313D01*
X744Y1311D01*
X742Y1311D01*
X742Y1309D01*
X740Y1309D01*
X740Y1307D01*
X738Y1307D01*
X738Y1113D01*
X832Y1113D01*
X832Y1133D01*
X830Y1133D01*
X830Y1137D01*
X828Y1137D01*
X828Y1141D01*
X826Y1141D01*
X826Y1147D01*
X824Y1147D01*
X824Y1157D01*
X822Y1157D01*
X822Y1165D01*
X824Y1165D01*
X824Y1175D01*
X826Y1175D01*
X826Y1181D01*
X828Y1181D01*
X828Y1185D01*
X830Y1185D01*
X830Y1189D01*
X832Y1189D01*
X832Y1191D01*
X834Y1191D01*
X834Y1193D01*
X836Y1193D01*
X836Y1197D01*
X838Y1197D01*
X838Y1199D01*
X842Y1199D01*
X842Y1201D01*
X844Y1201D01*
X844Y1203D01*
X846Y1203D01*
X846Y1205D01*
X850Y1205D01*
X850Y1207D01*
X854Y1207D01*
X854Y1209D01*
X860Y1209D01*
X860Y1231D01*
X854Y1231D01*
X854Y1233D01*
X850Y1233D01*
X850Y1235D01*
X846Y1235D01*
X846Y1237D01*
X844Y1237D01*
X844Y1239D01*
X842Y1239D01*
X842Y1241D01*
X838Y1241D01*
X838Y1243D01*
X836Y1243D01*
X836Y1247D01*
X834Y1247D01*
X834Y1249D01*
X832Y1249D01*
X832Y1251D01*
X830Y1251D01*
X830Y1255D01*
X828Y1255D01*
X828Y1259D01*
X826Y1259D01*
X826Y1265D01*
X824Y1265D01*
X824Y1275D01*
X822Y1275D01*
X822Y1283D01*
X824Y1283D01*
X824Y1293D01*
X826Y1293D01*
X826Y1299D01*
X828Y1299D01*
X828Y1303D01*
X830Y1303D01*
X830Y1323D01*
X754Y1323D01*
G37*
D02*
G36*
X918Y1323D02*
X918Y1303D01*
X920Y1303D01*
X920Y1299D01*
X922Y1299D01*
X922Y1295D01*
X924Y1295D01*
X924Y1285D01*
X926Y1285D01*
X926Y1273D01*
X924Y1273D01*
X924Y1263D01*
X922Y1263D01*
X922Y1259D01*
X920Y1259D01*
X920Y1255D01*
X918Y1255D01*
X918Y1251D01*
X916Y1251D01*
X916Y1249D01*
X914Y1249D01*
X914Y1247D01*
X912Y1247D01*
X912Y1243D01*
X910Y1243D01*
X910Y1241D01*
X906Y1241D01*
X906Y1239D01*
X904Y1239D01*
X904Y1237D01*
X902Y1237D01*
X902Y1235D01*
X898Y1235D01*
X898Y1233D01*
X894Y1233D01*
X894Y1231D01*
X888Y1231D01*
X888Y1209D01*
X894Y1209D01*
X894Y1207D01*
X898Y1207D01*
X898Y1205D01*
X902Y1205D01*
X902Y1203D01*
X904Y1203D01*
X904Y1201D01*
X906Y1201D01*
X906Y1199D01*
X910Y1199D01*
X910Y1197D01*
X912Y1197D01*
X912Y1193D01*
X914Y1193D01*
X914Y1191D01*
X916Y1191D01*
X916Y1189D01*
X918Y1189D01*
X918Y1185D01*
X920Y1185D01*
X920Y1181D01*
X922Y1181D01*
X922Y1177D01*
X924Y1177D01*
X924Y1167D01*
X926Y1167D01*
X926Y1155D01*
X924Y1155D01*
X924Y1145D01*
X922Y1145D01*
X922Y1141D01*
X920Y1141D01*
X920Y1137D01*
X918Y1137D01*
X918Y1133D01*
X916Y1133D01*
X916Y1113D01*
X994Y1113D01*
X994Y1117D01*
X996Y1117D01*
X996Y1119D01*
X998Y1119D01*
X998Y1121D01*
X1000Y1121D01*
X1000Y1123D01*
X1002Y1123D01*
X1002Y1151D01*
X1000Y1151D01*
X1000Y1171D01*
X1002Y1171D01*
X1002Y1179D01*
X1004Y1179D01*
X1004Y1183D01*
X1006Y1183D01*
X1006Y1187D01*
X1008Y1187D01*
X1008Y1189D01*
X1010Y1189D01*
X1010Y1193D01*
X1012Y1193D01*
X1012Y1195D01*
X1014Y1195D01*
X1014Y1197D01*
X1016Y1197D01*
X1016Y1199D01*
X1018Y1199D01*
X1018Y1201D01*
X1020Y1201D01*
X1020Y1203D01*
X1024Y1203D01*
X1024Y1205D01*
X1028Y1205D01*
X1028Y1207D01*
X1032Y1207D01*
X1032Y1209D01*
X1036Y1209D01*
X1036Y1231D01*
X1030Y1231D01*
X1030Y1233D01*
X1028Y1233D01*
X1028Y1235D01*
X1024Y1235D01*
X1024Y1237D01*
X1020Y1237D01*
X1020Y1239D01*
X1018Y1239D01*
X1018Y1241D01*
X1016Y1241D01*
X1016Y1243D01*
X1014Y1243D01*
X1014Y1245D01*
X1012Y1245D01*
X1012Y1247D01*
X1010Y1247D01*
X1010Y1251D01*
X1008Y1251D01*
X1008Y1253D01*
X1006Y1253D01*
X1006Y1257D01*
X1004Y1257D01*
X1004Y1261D01*
X1002Y1261D01*
X1002Y1269D01*
X1000Y1269D01*
X1000Y1289D01*
X1002Y1289D01*
X1002Y1297D01*
X1004Y1297D01*
X1004Y1301D01*
X1006Y1301D01*
X1006Y1305D01*
X1008Y1305D01*
X1008Y1323D01*
X918Y1323D01*
G37*
D02*
G36*
X1186Y1299D02*
X1186Y1297D01*
X1184Y1297D01*
X1184Y1295D01*
X1182Y1295D01*
X1182Y1293D01*
X1180Y1293D01*
X1180Y1291D01*
X1178Y1291D01*
X1178Y1289D01*
X1176Y1289D01*
X1176Y1287D01*
X1174Y1287D01*
X1174Y1285D01*
X1172Y1285D01*
X1172Y1283D01*
X1170Y1283D01*
X1170Y1281D01*
X1168Y1281D01*
X1168Y1279D01*
X1166Y1279D01*
X1166Y1277D01*
X1164Y1277D01*
X1164Y1275D01*
X1162Y1275D01*
X1162Y1273D01*
X1160Y1273D01*
X1160Y1271D01*
X1156Y1271D01*
X1156Y1269D01*
X1102Y1269D01*
X1102Y1267D01*
X1100Y1267D01*
X1100Y1261D01*
X1098Y1261D01*
X1098Y1257D01*
X1096Y1257D01*
X1096Y1253D01*
X1094Y1253D01*
X1094Y1249D01*
X1092Y1249D01*
X1092Y1247D01*
X1090Y1247D01*
X1090Y1245D01*
X1088Y1245D01*
X1088Y1243D01*
X1086Y1243D01*
X1086Y1241D01*
X1084Y1241D01*
X1084Y1239D01*
X1082Y1239D01*
X1082Y1237D01*
X1078Y1237D01*
X1078Y1235D01*
X1076Y1235D01*
X1076Y1233D01*
X1072Y1233D01*
X1072Y1231D01*
X1066Y1231D01*
X1066Y1209D01*
X1072Y1209D01*
X1072Y1207D01*
X1074Y1207D01*
X1074Y1205D01*
X1078Y1205D01*
X1078Y1203D01*
X1082Y1203D01*
X1082Y1201D01*
X1084Y1201D01*
X1084Y1199D01*
X1086Y1199D01*
X1086Y1197D01*
X1088Y1197D01*
X1088Y1195D01*
X1090Y1195D01*
X1090Y1193D01*
X1092Y1193D01*
X1092Y1191D01*
X1094Y1191D01*
X1094Y1187D01*
X1096Y1187D01*
X1096Y1183D01*
X1098Y1183D01*
X1098Y1179D01*
X1192Y1179D01*
X1192Y1181D01*
X1194Y1181D01*
X1194Y1183D01*
X1196Y1183D01*
X1196Y1185D01*
X1198Y1185D01*
X1198Y1187D01*
X1200Y1187D01*
X1200Y1189D01*
X1202Y1189D01*
X1202Y1191D01*
X1204Y1191D01*
X1204Y1193D01*
X1206Y1193D01*
X1206Y1299D01*
X1186Y1299D01*
G37*
D02*
G36*
X288Y1287D02*
X288Y1285D01*
X286Y1285D01*
X286Y1281D01*
X284Y1281D01*
X284Y1279D01*
X282Y1279D01*
X282Y1277D01*
X280Y1277D01*
X280Y1275D01*
X276Y1275D01*
X276Y1273D01*
X274Y1273D01*
X274Y1271D01*
X272Y1271D01*
X272Y1251D01*
X276Y1251D01*
X276Y1249D01*
X278Y1249D01*
X278Y1247D01*
X280Y1247D01*
X280Y1245D01*
X284Y1245D01*
X284Y1241D01*
X286Y1241D01*
X286Y1239D01*
X288Y1239D01*
X288Y1237D01*
X290Y1237D01*
X290Y1235D01*
X310Y1235D01*
X310Y1239D01*
X312Y1239D01*
X312Y1241D01*
X314Y1241D01*
X314Y1243D01*
X316Y1243D01*
X316Y1245D01*
X318Y1245D01*
X318Y1247D01*
X320Y1247D01*
X320Y1249D01*
X322Y1249D01*
X322Y1251D01*
X326Y1251D01*
X326Y1271D01*
X324Y1271D01*
X324Y1273D01*
X322Y1273D01*
X322Y1275D01*
X318Y1275D01*
X318Y1277D01*
X316Y1277D01*
X316Y1279D01*
X314Y1279D01*
X314Y1281D01*
X312Y1281D01*
X312Y1285D01*
X310Y1285D01*
X310Y1287D01*
X288Y1287D01*
G37*
D02*
G36*
X72Y1189D02*
X72Y497D01*
X196Y497D01*
X196Y499D01*
X192Y499D01*
X192Y501D01*
X188Y501D01*
X188Y503D01*
X186Y503D01*
X186Y505D01*
X184Y505D01*
X184Y507D01*
X182Y507D01*
X182Y509D01*
X180Y509D01*
X180Y511D01*
X178Y511D01*
X178Y513D01*
X176Y513D01*
X176Y515D01*
X174Y515D01*
X174Y517D01*
X172Y517D01*
X172Y519D01*
X170Y519D01*
X170Y521D01*
X168Y521D01*
X168Y523D01*
X166Y523D01*
X166Y525D01*
X164Y525D01*
X164Y529D01*
X162Y529D01*
X162Y531D01*
X160Y531D01*
X160Y691D01*
X162Y691D01*
X162Y695D01*
X164Y695D01*
X164Y697D01*
X166Y697D01*
X166Y699D01*
X168Y699D01*
X168Y701D01*
X170Y701D01*
X170Y703D01*
X172Y703D01*
X172Y705D01*
X174Y705D01*
X174Y707D01*
X176Y707D01*
X176Y709D01*
X178Y709D01*
X178Y711D01*
X180Y711D01*
X180Y713D01*
X182Y713D01*
X182Y715D01*
X184Y715D01*
X184Y717D01*
X186Y717D01*
X186Y719D01*
X188Y719D01*
X188Y721D01*
X190Y721D01*
X190Y723D01*
X192Y723D01*
X192Y725D01*
X204Y725D01*
X204Y727D01*
X206Y727D01*
X206Y733D01*
X208Y733D01*
X208Y735D01*
X210Y735D01*
X210Y739D01*
X212Y739D01*
X212Y741D01*
X214Y741D01*
X214Y743D01*
X216Y743D01*
X216Y745D01*
X218Y745D01*
X218Y747D01*
X220Y747D01*
X220Y749D01*
X222Y749D01*
X222Y751D01*
X226Y751D01*
X226Y771D01*
X224Y771D01*
X224Y773D01*
X222Y773D01*
X222Y775D01*
X218Y775D01*
X218Y777D01*
X216Y777D01*
X216Y779D01*
X214Y779D01*
X214Y781D01*
X212Y781D01*
X212Y785D01*
X210Y785D01*
X210Y787D01*
X208Y787D01*
X208Y791D01*
X206Y791D01*
X206Y797D01*
X204Y797D01*
X204Y803D01*
X202Y803D01*
X202Y819D01*
X204Y819D01*
X204Y827D01*
X206Y827D01*
X206Y833D01*
X208Y833D01*
X208Y835D01*
X210Y835D01*
X210Y839D01*
X212Y839D01*
X212Y841D01*
X214Y841D01*
X214Y843D01*
X216Y843D01*
X216Y845D01*
X218Y845D01*
X218Y847D01*
X220Y847D01*
X220Y849D01*
X222Y849D01*
X222Y851D01*
X226Y851D01*
X226Y871D01*
X224Y871D01*
X224Y873D01*
X222Y873D01*
X222Y875D01*
X218Y875D01*
X218Y877D01*
X216Y877D01*
X216Y879D01*
X214Y879D01*
X214Y881D01*
X212Y881D01*
X212Y885D01*
X210Y885D01*
X210Y887D01*
X208Y887D01*
X208Y891D01*
X206Y891D01*
X206Y897D01*
X204Y897D01*
X204Y903D01*
X202Y903D01*
X202Y919D01*
X204Y919D01*
X204Y927D01*
X206Y927D01*
X206Y933D01*
X208Y933D01*
X208Y935D01*
X210Y935D01*
X210Y939D01*
X212Y939D01*
X212Y941D01*
X214Y941D01*
X214Y943D01*
X216Y943D01*
X216Y945D01*
X218Y945D01*
X218Y947D01*
X220Y947D01*
X220Y949D01*
X222Y949D01*
X222Y951D01*
X226Y951D01*
X226Y971D01*
X224Y971D01*
X224Y973D01*
X222Y973D01*
X222Y975D01*
X218Y975D01*
X218Y977D01*
X216Y977D01*
X216Y979D01*
X214Y979D01*
X214Y981D01*
X212Y981D01*
X212Y985D01*
X210Y985D01*
X210Y987D01*
X208Y987D01*
X208Y991D01*
X206Y991D01*
X206Y997D01*
X204Y997D01*
X204Y1003D01*
X202Y1003D01*
X202Y1019D01*
X204Y1019D01*
X204Y1027D01*
X206Y1027D01*
X206Y1033D01*
X208Y1033D01*
X208Y1035D01*
X210Y1035D01*
X210Y1039D01*
X212Y1039D01*
X212Y1041D01*
X214Y1041D01*
X214Y1043D01*
X216Y1043D01*
X216Y1045D01*
X218Y1045D01*
X218Y1047D01*
X220Y1047D01*
X220Y1049D01*
X222Y1049D01*
X222Y1051D01*
X226Y1051D01*
X226Y1071D01*
X224Y1071D01*
X224Y1073D01*
X222Y1073D01*
X222Y1075D01*
X218Y1075D01*
X218Y1077D01*
X216Y1077D01*
X216Y1079D01*
X214Y1079D01*
X214Y1081D01*
X212Y1081D01*
X212Y1085D01*
X210Y1085D01*
X210Y1087D01*
X208Y1087D01*
X208Y1091D01*
X206Y1091D01*
X206Y1097D01*
X204Y1097D01*
X204Y1103D01*
X202Y1103D01*
X202Y1119D01*
X204Y1119D01*
X204Y1127D01*
X206Y1127D01*
X206Y1133D01*
X208Y1133D01*
X208Y1135D01*
X210Y1135D01*
X210Y1139D01*
X212Y1139D01*
X212Y1141D01*
X214Y1141D01*
X214Y1143D01*
X216Y1143D01*
X216Y1145D01*
X218Y1145D01*
X218Y1147D01*
X220Y1147D01*
X220Y1149D01*
X222Y1149D01*
X222Y1151D01*
X226Y1151D01*
X226Y1171D01*
X224Y1171D01*
X224Y1173D01*
X222Y1173D01*
X222Y1175D01*
X218Y1175D01*
X218Y1177D01*
X216Y1177D01*
X216Y1179D01*
X214Y1179D01*
X214Y1181D01*
X212Y1181D01*
X212Y1185D01*
X210Y1185D01*
X210Y1187D01*
X208Y1187D01*
X208Y1189D01*
X72Y1189D01*
G37*
D02*
G36*
X434Y503D02*
X434Y501D01*
X432Y501D01*
X432Y499D01*
X428Y499D01*
X428Y497D01*
X454Y497D01*
X454Y503D01*
X434Y503D01*
G37*
D02*
G36*
X562Y503D02*
X562Y501D01*
X560Y501D01*
X560Y499D01*
X558Y499D01*
X558Y497D01*
X556Y497D01*
X556Y495D01*
X554Y495D01*
X554Y493D01*
X552Y493D01*
X552Y491D01*
X550Y491D01*
X550Y489D01*
X548Y489D01*
X548Y487D01*
X546Y487D01*
X546Y475D01*
X544Y475D01*
X544Y467D01*
X542Y467D01*
X542Y465D01*
X540Y465D01*
X540Y461D01*
X538Y461D01*
X538Y459D01*
X610Y459D01*
X610Y457D01*
X616Y457D01*
X616Y455D01*
X620Y455D01*
X620Y453D01*
X624Y453D01*
X624Y451D01*
X684Y451D01*
X684Y449D01*
X690Y449D01*
X690Y447D01*
X694Y447D01*
X694Y445D01*
X698Y445D01*
X698Y443D01*
X700Y443D01*
X700Y441D01*
X702Y441D01*
X702Y439D01*
X704Y439D01*
X704Y437D01*
X706Y437D01*
X706Y435D01*
X708Y435D01*
X708Y433D01*
X710Y433D01*
X710Y431D01*
X712Y431D01*
X712Y429D01*
X714Y429D01*
X714Y427D01*
X716Y427D01*
X716Y425D01*
X718Y425D01*
X718Y423D01*
X720Y423D01*
X720Y421D01*
X722Y421D01*
X722Y419D01*
X742Y419D01*
X742Y421D01*
X740Y421D01*
X740Y423D01*
X738Y423D01*
X738Y425D01*
X736Y425D01*
X736Y427D01*
X734Y427D01*
X734Y429D01*
X732Y429D01*
X732Y431D01*
X730Y431D01*
X730Y433D01*
X728Y433D01*
X728Y435D01*
X726Y435D01*
X726Y437D01*
X724Y437D01*
X724Y439D01*
X722Y439D01*
X722Y441D01*
X720Y441D01*
X720Y443D01*
X718Y443D01*
X718Y445D01*
X716Y445D01*
X716Y447D01*
X714Y447D01*
X714Y449D01*
X712Y449D01*
X712Y451D01*
X710Y451D01*
X710Y453D01*
X708Y453D01*
X708Y455D01*
X706Y455D01*
X706Y457D01*
X704Y457D01*
X704Y459D01*
X702Y459D01*
X702Y461D01*
X700Y461D01*
X700Y463D01*
X698Y463D01*
X698Y465D01*
X696Y465D01*
X696Y467D01*
X694Y467D01*
X694Y469D01*
X692Y469D01*
X692Y471D01*
X690Y471D01*
X690Y473D01*
X688Y473D01*
X688Y475D01*
X686Y475D01*
X686Y477D01*
X684Y477D01*
X684Y479D01*
X682Y479D01*
X682Y481D01*
X680Y481D01*
X680Y483D01*
X678Y483D01*
X678Y485D01*
X676Y485D01*
X676Y487D01*
X674Y487D01*
X674Y489D01*
X672Y489D01*
X672Y491D01*
X670Y491D01*
X670Y493D01*
X668Y493D01*
X668Y495D01*
X666Y495D01*
X666Y497D01*
X664Y497D01*
X664Y499D01*
X662Y499D01*
X662Y501D01*
X660Y501D01*
X660Y503D01*
X562Y503D01*
G37*
D02*
G36*
X72Y497D02*
X72Y495D01*
X452Y495D01*
X452Y497D01*
X72Y497D01*
G37*
D02*
G36*
X72Y497D02*
X72Y495D01*
X452Y495D01*
X452Y497D01*
X72Y497D01*
G37*
D02*
G36*
X72Y495D02*
X72Y439D01*
X490Y439D01*
X490Y441D01*
X482Y441D01*
X482Y443D01*
X478Y443D01*
X478Y445D01*
X474Y445D01*
X474Y447D01*
X472Y447D01*
X472Y449D01*
X468Y449D01*
X468Y451D01*
X466Y451D01*
X466Y453D01*
X464Y453D01*
X464Y455D01*
X462Y455D01*
X462Y459D01*
X460Y459D01*
X460Y461D01*
X458Y461D01*
X458Y465D01*
X456Y465D01*
X456Y469D01*
X454Y469D01*
X454Y475D01*
X452Y475D01*
X452Y495D01*
X72Y495D01*
G37*
D02*
G36*
X538Y459D02*
X538Y457D01*
X536Y457D01*
X536Y455D01*
X534Y455D01*
X534Y453D01*
X532Y453D01*
X532Y451D01*
X530Y451D01*
X530Y449D01*
X526Y449D01*
X526Y447D01*
X524Y447D01*
X524Y445D01*
X520Y445D01*
X520Y443D01*
X516Y443D01*
X516Y441D01*
X508Y441D01*
X508Y439D01*
X562Y439D01*
X562Y443D01*
X564Y443D01*
X564Y445D01*
X566Y445D01*
X566Y447D01*
X568Y447D01*
X568Y449D01*
X572Y449D01*
X572Y451D01*
X574Y451D01*
X574Y453D01*
X578Y453D01*
X578Y455D01*
X582Y455D01*
X582Y457D01*
X588Y457D01*
X588Y459D01*
X538Y459D01*
G37*
D02*
G36*
X72Y439D02*
X72Y437D01*
X560Y437D01*
X560Y439D01*
X72Y439D01*
G37*
D02*
G36*
X72Y439D02*
X72Y437D01*
X560Y437D01*
X560Y439D01*
X72Y439D01*
G37*
D02*
G36*
X72Y437D02*
X72Y359D01*
X566Y359D01*
X566Y379D01*
X564Y379D01*
X564Y381D01*
X562Y381D01*
X562Y383D01*
X560Y383D01*
X560Y387D01*
X558Y387D01*
X558Y389D01*
X556Y389D01*
X556Y393D01*
X554Y393D01*
X554Y401D01*
X552Y401D01*
X552Y423D01*
X554Y423D01*
X554Y429D01*
X556Y429D01*
X556Y433D01*
X558Y433D01*
X558Y437D01*
X72Y437D01*
G37*
D02*
G36*
X288Y1187D02*
X288Y1185D01*
X286Y1185D01*
X286Y1181D01*
X284Y1181D01*
X284Y1179D01*
X282Y1179D01*
X282Y1177D01*
X280Y1177D01*
X280Y1175D01*
X276Y1175D01*
X276Y1173D01*
X274Y1173D01*
X274Y1171D01*
X272Y1171D01*
X272Y1151D01*
X276Y1151D01*
X276Y1149D01*
X278Y1149D01*
X278Y1147D01*
X280Y1147D01*
X280Y1145D01*
X284Y1145D01*
X284Y1141D01*
X286Y1141D01*
X286Y1139D01*
X288Y1139D01*
X288Y1137D01*
X290Y1137D01*
X290Y1135D01*
X310Y1135D01*
X310Y1139D01*
X312Y1139D01*
X312Y1141D01*
X314Y1141D01*
X314Y1143D01*
X316Y1143D01*
X316Y1145D01*
X318Y1145D01*
X318Y1147D01*
X320Y1147D01*
X320Y1149D01*
X322Y1149D01*
X322Y1151D01*
X326Y1151D01*
X326Y1171D01*
X324Y1171D01*
X324Y1173D01*
X322Y1173D01*
X322Y1175D01*
X318Y1175D01*
X318Y1177D01*
X316Y1177D01*
X316Y1179D01*
X314Y1179D01*
X314Y1181D01*
X312Y1181D01*
X312Y1185D01*
X310Y1185D01*
X310Y1187D01*
X288Y1187D01*
G37*
D02*
G36*
X288Y1087D02*
X288Y1085D01*
X286Y1085D01*
X286Y1081D01*
X284Y1081D01*
X284Y1079D01*
X282Y1079D01*
X282Y1077D01*
X280Y1077D01*
X280Y1075D01*
X276Y1075D01*
X276Y1073D01*
X274Y1073D01*
X274Y1071D01*
X272Y1071D01*
X272Y1051D01*
X276Y1051D01*
X276Y1049D01*
X278Y1049D01*
X278Y1047D01*
X280Y1047D01*
X280Y1045D01*
X284Y1045D01*
X284Y1041D01*
X286Y1041D01*
X286Y1039D01*
X288Y1039D01*
X288Y1037D01*
X290Y1037D01*
X290Y1035D01*
X310Y1035D01*
X310Y1039D01*
X312Y1039D01*
X312Y1041D01*
X314Y1041D01*
X314Y1043D01*
X316Y1043D01*
X316Y1045D01*
X318Y1045D01*
X318Y1047D01*
X320Y1047D01*
X320Y1049D01*
X322Y1049D01*
X322Y1051D01*
X326Y1051D01*
X326Y1071D01*
X324Y1071D01*
X324Y1073D01*
X322Y1073D01*
X322Y1075D01*
X318Y1075D01*
X318Y1077D01*
X316Y1077D01*
X316Y1079D01*
X314Y1079D01*
X314Y1081D01*
X312Y1081D01*
X312Y1085D01*
X310Y1085D01*
X310Y1087D01*
X288Y1087D01*
G37*
D02*
G36*
X766Y1085D02*
X766Y1083D01*
X764Y1083D01*
X764Y1051D01*
X824Y1051D01*
X824Y1057D01*
X826Y1057D01*
X826Y1063D01*
X828Y1063D01*
X828Y1085D01*
X766Y1085D01*
G37*
D02*
G36*
X288Y987D02*
X288Y985D01*
X286Y985D01*
X286Y981D01*
X284Y981D01*
X284Y979D01*
X282Y979D01*
X282Y977D01*
X280Y977D01*
X280Y975D01*
X276Y975D01*
X276Y973D01*
X274Y973D01*
X274Y971D01*
X272Y971D01*
X272Y951D01*
X276Y951D01*
X276Y949D01*
X278Y949D01*
X278Y947D01*
X280Y947D01*
X280Y945D01*
X284Y945D01*
X284Y941D01*
X286Y941D01*
X286Y939D01*
X288Y939D01*
X288Y937D01*
X290Y937D01*
X290Y935D01*
X310Y935D01*
X310Y939D01*
X312Y939D01*
X312Y941D01*
X314Y941D01*
X314Y943D01*
X316Y943D01*
X316Y945D01*
X318Y945D01*
X318Y947D01*
X320Y947D01*
X320Y949D01*
X322Y949D01*
X322Y951D01*
X326Y951D01*
X326Y971D01*
X324Y971D01*
X324Y973D01*
X322Y973D01*
X322Y975D01*
X318Y975D01*
X318Y977D01*
X316Y977D01*
X316Y979D01*
X314Y979D01*
X314Y981D01*
X312Y981D01*
X312Y985D01*
X310Y985D01*
X310Y987D01*
X288Y987D01*
G37*
D02*
G36*
X288Y887D02*
X288Y885D01*
X286Y885D01*
X286Y881D01*
X284Y881D01*
X284Y879D01*
X282Y879D01*
X282Y877D01*
X280Y877D01*
X280Y875D01*
X276Y875D01*
X276Y873D01*
X274Y873D01*
X274Y871D01*
X272Y871D01*
X272Y851D01*
X276Y851D01*
X276Y849D01*
X278Y849D01*
X278Y847D01*
X280Y847D01*
X280Y845D01*
X284Y845D01*
X284Y841D01*
X286Y841D01*
X286Y839D01*
X288Y839D01*
X288Y837D01*
X290Y837D01*
X290Y835D01*
X310Y835D01*
X310Y839D01*
X312Y839D01*
X312Y841D01*
X314Y841D01*
X314Y843D01*
X316Y843D01*
X316Y845D01*
X318Y845D01*
X318Y847D01*
X320Y847D01*
X320Y849D01*
X322Y849D01*
X322Y851D01*
X326Y851D01*
X326Y871D01*
X324Y871D01*
X324Y873D01*
X322Y873D01*
X322Y875D01*
X318Y875D01*
X318Y877D01*
X316Y877D01*
X316Y879D01*
X314Y879D01*
X314Y881D01*
X312Y881D01*
X312Y885D01*
X310Y885D01*
X310Y887D01*
X288Y887D01*
G37*
D02*
G36*
X288Y787D02*
X288Y785D01*
X286Y785D01*
X286Y781D01*
X284Y781D01*
X284Y779D01*
X282Y779D01*
X282Y777D01*
X280Y777D01*
X280Y775D01*
X276Y775D01*
X276Y773D01*
X274Y773D01*
X274Y771D01*
X272Y771D01*
X272Y751D01*
X276Y751D01*
X276Y749D01*
X278Y749D01*
X278Y747D01*
X280Y747D01*
X280Y745D01*
X284Y745D01*
X284Y741D01*
X286Y741D01*
X286Y739D01*
X288Y739D01*
X288Y737D01*
X290Y737D01*
X290Y735D01*
X310Y735D01*
X310Y739D01*
X312Y739D01*
X312Y741D01*
X314Y741D01*
X314Y743D01*
X316Y743D01*
X316Y745D01*
X318Y745D01*
X318Y747D01*
X320Y747D01*
X320Y749D01*
X322Y749D01*
X322Y751D01*
X326Y751D01*
X326Y771D01*
X324Y771D01*
X324Y773D01*
X322Y773D01*
X322Y775D01*
X318Y775D01*
X318Y777D01*
X316Y777D01*
X316Y779D01*
X314Y779D01*
X314Y781D01*
X312Y781D01*
X312Y785D01*
X310Y785D01*
X310Y787D01*
X288Y787D01*
G37*
D02*
G36*
X394Y697D02*
X394Y695D01*
X392Y695D01*
X392Y691D01*
X390Y691D01*
X390Y687D01*
X388Y687D01*
X388Y685D01*
X386Y685D01*
X386Y681D01*
X384Y681D01*
X384Y679D01*
X382Y679D01*
X382Y677D01*
X380Y677D01*
X380Y675D01*
X376Y675D01*
X376Y673D01*
X374Y673D01*
X374Y671D01*
X372Y671D01*
X372Y651D01*
X376Y651D01*
X376Y649D01*
X378Y649D01*
X378Y647D01*
X380Y647D01*
X380Y645D01*
X384Y645D01*
X384Y641D01*
X386Y641D01*
X386Y639D01*
X388Y639D01*
X388Y637D01*
X390Y637D01*
X390Y633D01*
X410Y633D01*
X410Y667D01*
X412Y667D01*
X412Y671D01*
X414Y671D01*
X414Y673D01*
X416Y673D01*
X416Y675D01*
X418Y675D01*
X418Y677D01*
X420Y677D01*
X420Y697D01*
X394Y697D01*
G37*
D02*
G36*
X288Y687D02*
X288Y685D01*
X286Y685D01*
X286Y681D01*
X284Y681D01*
X284Y679D01*
X282Y679D01*
X282Y677D01*
X280Y677D01*
X280Y675D01*
X276Y675D01*
X276Y673D01*
X274Y673D01*
X274Y671D01*
X272Y671D01*
X272Y651D01*
X276Y651D01*
X276Y649D01*
X278Y649D01*
X278Y647D01*
X280Y647D01*
X280Y645D01*
X284Y645D01*
X284Y641D01*
X286Y641D01*
X286Y639D01*
X288Y639D01*
X288Y637D01*
X290Y637D01*
X290Y635D01*
X310Y635D01*
X310Y639D01*
X312Y639D01*
X312Y641D01*
X314Y641D01*
X314Y643D01*
X316Y643D01*
X316Y645D01*
X318Y645D01*
X318Y647D01*
X320Y647D01*
X320Y649D01*
X322Y649D01*
X322Y651D01*
X326Y651D01*
X326Y671D01*
X324Y671D01*
X324Y673D01*
X322Y673D01*
X322Y675D01*
X318Y675D01*
X318Y677D01*
X316Y677D01*
X316Y679D01*
X314Y679D01*
X314Y681D01*
X312Y681D01*
X312Y685D01*
X310Y685D01*
X310Y687D01*
X288Y687D01*
G37*
D02*
G36*
X192Y685D02*
X192Y683D01*
X190Y683D01*
X190Y681D01*
X188Y681D01*
X188Y633D01*
X208Y633D01*
X208Y635D01*
X210Y635D01*
X210Y639D01*
X212Y639D01*
X212Y641D01*
X214Y641D01*
X214Y643D01*
X216Y643D01*
X216Y645D01*
X218Y645D01*
X218Y647D01*
X220Y647D01*
X220Y649D01*
X222Y649D01*
X222Y651D01*
X226Y651D01*
X226Y671D01*
X224Y671D01*
X224Y673D01*
X222Y673D01*
X222Y675D01*
X218Y675D01*
X218Y677D01*
X216Y677D01*
X216Y679D01*
X214Y679D01*
X214Y681D01*
X212Y681D01*
X212Y685D01*
X192Y685D01*
G37*
D02*
G36*
X188Y591D02*
X188Y541D01*
X190Y541D01*
X190Y539D01*
X192Y539D01*
X192Y537D01*
X194Y537D01*
X194Y535D01*
X196Y535D01*
X196Y533D01*
X198Y533D01*
X198Y531D01*
X200Y531D01*
X200Y529D01*
X202Y529D01*
X202Y527D01*
X204Y527D01*
X204Y525D01*
X246Y525D01*
X246Y545D01*
X244Y545D01*
X244Y547D01*
X242Y547D01*
X242Y549D01*
X240Y549D01*
X240Y553D01*
X238Y553D01*
X238Y555D01*
X236Y555D01*
X236Y567D01*
X232Y567D01*
X232Y569D01*
X228Y569D01*
X228Y571D01*
X224Y571D01*
X224Y573D01*
X222Y573D01*
X222Y575D01*
X218Y575D01*
X218Y577D01*
X216Y577D01*
X216Y579D01*
X214Y579D01*
X214Y581D01*
X212Y581D01*
X212Y585D01*
X210Y585D01*
X210Y587D01*
X208Y587D01*
X208Y591D01*
X188Y591D01*
G37*
D02*
G36*
X288Y587D02*
X288Y585D01*
X286Y585D01*
X286Y581D01*
X284Y581D01*
X284Y579D01*
X282Y579D01*
X282Y577D01*
X280Y577D01*
X280Y575D01*
X276Y575D01*
X276Y553D01*
X278Y553D01*
X278Y551D01*
X328Y551D01*
X328Y571D01*
X324Y571D01*
X324Y573D01*
X322Y573D01*
X322Y575D01*
X318Y575D01*
X318Y577D01*
X316Y577D01*
X316Y579D01*
X314Y579D01*
X314Y581D01*
X312Y581D01*
X312Y585D01*
X310Y585D01*
X310Y587D01*
X288Y587D01*
G37*
D02*
G36*
X1090Y495D02*
X1090Y493D01*
X1088Y493D01*
X1088Y491D01*
X1086Y491D01*
X1086Y489D01*
X1084Y489D01*
X1084Y487D01*
X1082Y487D01*
X1082Y485D01*
X1078Y485D01*
X1078Y483D01*
X1076Y483D01*
X1076Y481D01*
X1072Y481D01*
X1072Y475D01*
X1070Y475D01*
X1070Y467D01*
X1068Y467D01*
X1068Y461D01*
X1066Y461D01*
X1066Y455D01*
X1064Y455D01*
X1064Y447D01*
X1062Y447D01*
X1062Y441D01*
X1060Y441D01*
X1060Y435D01*
X1058Y435D01*
X1058Y427D01*
X1056Y427D01*
X1056Y423D01*
X1054Y423D01*
X1054Y401D01*
X1108Y401D01*
X1108Y403D01*
X1110Y403D01*
X1110Y495D01*
X1090Y495D01*
G37*
D02*
G36*
X80Y315D02*
X80Y295D01*
X84Y295D01*
X84Y293D01*
X88Y293D01*
X88Y291D01*
X92Y291D01*
X92Y289D01*
X96Y289D01*
X96Y287D01*
X100Y287D01*
X100Y285D01*
X104Y285D01*
X104Y283D01*
X198Y283D01*
X198Y315D01*
X80Y315D01*
G37*
D02*
G36*
X40Y3897D02*
X40Y3805D01*
X1378Y3805D01*
X1378Y3803D01*
X1384Y3803D01*
X1384Y3801D01*
X1386Y3801D01*
X1386Y3799D01*
X1388Y3799D01*
X1388Y3797D01*
X1390Y3797D01*
X1390Y3795D01*
X1392Y3795D01*
X1392Y3793D01*
X1394Y3793D01*
X1394Y3791D01*
X1396Y3791D01*
X1396Y3789D01*
X1398Y3789D01*
X1398Y3787D01*
X1400Y3787D01*
X1400Y3785D01*
X1402Y3785D01*
X1402Y3783D01*
X1404Y3783D01*
X1404Y3781D01*
X1406Y3781D01*
X1406Y3779D01*
X1408Y3779D01*
X1408Y3777D01*
X1410Y3777D01*
X1410Y3775D01*
X1412Y3775D01*
X1412Y3773D01*
X1414Y3773D01*
X1414Y3769D01*
X1416Y3769D01*
X1416Y3763D01*
X1418Y3763D01*
X1418Y1911D01*
X1416Y1911D01*
X1416Y1903D01*
X1414Y1903D01*
X1414Y1901D01*
X1412Y1901D01*
X1412Y1897D01*
X1410Y1897D01*
X1410Y1895D01*
X1408Y1895D01*
X1408Y1893D01*
X1406Y1893D01*
X1406Y1891D01*
X1404Y1891D01*
X1404Y1889D01*
X1402Y1889D01*
X1402Y1887D01*
X1400Y1887D01*
X1400Y1885D01*
X1398Y1885D01*
X1398Y1883D01*
X1396Y1883D01*
X1396Y1881D01*
X1394Y1881D01*
X1394Y1879D01*
X1392Y1879D01*
X1392Y1877D01*
X1390Y1877D01*
X1390Y1875D01*
X1386Y1875D01*
X1386Y1873D01*
X1384Y1873D01*
X1384Y1871D01*
X1380Y1871D01*
X1380Y1869D01*
X1256Y1869D01*
X1256Y1867D01*
X1254Y1867D01*
X1254Y1865D01*
X1252Y1865D01*
X1252Y1863D01*
X1250Y1863D01*
X1250Y1861D01*
X1248Y1861D01*
X1248Y1859D01*
X1246Y1859D01*
X1246Y1857D01*
X1244Y1857D01*
X1244Y1855D01*
X1242Y1855D01*
X1242Y1181D01*
X1240Y1181D01*
X1240Y1177D01*
X1238Y1177D01*
X1238Y1175D01*
X1236Y1175D01*
X1236Y1171D01*
X1234Y1171D01*
X1234Y1169D01*
X1232Y1169D01*
X1232Y1167D01*
X1230Y1167D01*
X1230Y1165D01*
X1228Y1165D01*
X1228Y1163D01*
X1226Y1163D01*
X1226Y1161D01*
X1224Y1161D01*
X1224Y1159D01*
X1222Y1159D01*
X1222Y1157D01*
X1220Y1157D01*
X1220Y1155D01*
X1218Y1155D01*
X1218Y1153D01*
X1216Y1153D01*
X1216Y1151D01*
X1214Y1151D01*
X1214Y1149D01*
X1210Y1149D01*
X1210Y1147D01*
X1208Y1147D01*
X1208Y1145D01*
X1202Y1145D01*
X1202Y1143D01*
X1098Y1143D01*
X1098Y1139D01*
X1096Y1139D01*
X1096Y1135D01*
X1094Y1135D01*
X1094Y1131D01*
X1092Y1131D01*
X1092Y1129D01*
X1090Y1129D01*
X1090Y1127D01*
X1088Y1127D01*
X1088Y1125D01*
X1086Y1125D01*
X1086Y1123D01*
X1084Y1123D01*
X1084Y1121D01*
X1082Y1121D01*
X1082Y1119D01*
X1080Y1119D01*
X1080Y1117D01*
X1076Y1117D01*
X1076Y1115D01*
X1072Y1115D01*
X1072Y1113D01*
X1066Y1113D01*
X1066Y1111D01*
X1064Y1111D01*
X1064Y1091D01*
X1070Y1091D01*
X1070Y1089D01*
X1074Y1089D01*
X1074Y1087D01*
X1078Y1087D01*
X1078Y1085D01*
X1082Y1085D01*
X1082Y1083D01*
X1084Y1083D01*
X1084Y1081D01*
X1086Y1081D01*
X1086Y1079D01*
X1088Y1079D01*
X1088Y1077D01*
X1090Y1077D01*
X1090Y1075D01*
X1092Y1075D01*
X1092Y1071D01*
X1094Y1071D01*
X1094Y1069D01*
X1096Y1069D01*
X1096Y1065D01*
X1098Y1065D01*
X1098Y1061D01*
X1100Y1061D01*
X1100Y1055D01*
X1102Y1055D01*
X1102Y1031D01*
X1100Y1031D01*
X1100Y1023D01*
X1098Y1023D01*
X1098Y1019D01*
X1096Y1019D01*
X1096Y1017D01*
X1094Y1017D01*
X1094Y1013D01*
X1092Y1013D01*
X1092Y1011D01*
X1090Y1011D01*
X1090Y1009D01*
X1088Y1009D01*
X1088Y1005D01*
X1084Y1005D01*
X1084Y1003D01*
X1082Y1003D01*
X1082Y1001D01*
X1080Y1001D01*
X1080Y999D01*
X1076Y999D01*
X1076Y997D01*
X1072Y997D01*
X1072Y995D01*
X1068Y995D01*
X1068Y993D01*
X1064Y993D01*
X1064Y973D01*
X1070Y973D01*
X1070Y971D01*
X1074Y971D01*
X1074Y969D01*
X1078Y969D01*
X1078Y967D01*
X1082Y967D01*
X1082Y965D01*
X1084Y965D01*
X1084Y963D01*
X1086Y963D01*
X1086Y961D01*
X1088Y961D01*
X1088Y959D01*
X1090Y959D01*
X1090Y957D01*
X1092Y957D01*
X1092Y955D01*
X1094Y955D01*
X1094Y951D01*
X1096Y951D01*
X1096Y947D01*
X1098Y947D01*
X1098Y943D01*
X1100Y943D01*
X1100Y937D01*
X1102Y937D01*
X1102Y913D01*
X1100Y913D01*
X1100Y905D01*
X1098Y905D01*
X1098Y901D01*
X1096Y901D01*
X1096Y899D01*
X1094Y899D01*
X1094Y895D01*
X1092Y895D01*
X1092Y893D01*
X1090Y893D01*
X1090Y891D01*
X1088Y891D01*
X1088Y887D01*
X1084Y887D01*
X1084Y885D01*
X1082Y885D01*
X1082Y883D01*
X1080Y883D01*
X1080Y881D01*
X1076Y881D01*
X1076Y879D01*
X1072Y879D01*
X1072Y877D01*
X1068Y877D01*
X1068Y875D01*
X1060Y875D01*
X1060Y873D01*
X1534Y873D01*
X1534Y3897D01*
X40Y3897D01*
G37*
D02*
G36*
X40Y3805D02*
X40Y3337D01*
X274Y3337D01*
X274Y3437D01*
X284Y3437D01*
X284Y3459D01*
X282Y3459D01*
X282Y3461D01*
X280Y3461D01*
X280Y3465D01*
X278Y3465D01*
X278Y3469D01*
X268Y3469D01*
X268Y3471D01*
X264Y3471D01*
X264Y3473D01*
X262Y3473D01*
X262Y3475D01*
X260Y3475D01*
X260Y3477D01*
X258Y3477D01*
X258Y3479D01*
X256Y3479D01*
X256Y3481D01*
X254Y3481D01*
X254Y3483D01*
X252Y3483D01*
X252Y3485D01*
X250Y3485D01*
X250Y3487D01*
X248Y3487D01*
X248Y3489D01*
X246Y3489D01*
X246Y3491D01*
X244Y3491D01*
X244Y3493D01*
X242Y3493D01*
X242Y3495D01*
X240Y3495D01*
X240Y3497D01*
X238Y3497D01*
X238Y3499D01*
X236Y3499D01*
X236Y3501D01*
X234Y3501D01*
X234Y3503D01*
X232Y3503D01*
X232Y3769D01*
X234Y3769D01*
X234Y3773D01*
X236Y3773D01*
X236Y3775D01*
X238Y3775D01*
X238Y3777D01*
X240Y3777D01*
X240Y3779D01*
X242Y3779D01*
X242Y3781D01*
X244Y3781D01*
X244Y3783D01*
X246Y3783D01*
X246Y3785D01*
X248Y3785D01*
X248Y3787D01*
X250Y3787D01*
X250Y3789D01*
X252Y3789D01*
X252Y3791D01*
X254Y3791D01*
X254Y3793D01*
X256Y3793D01*
X256Y3795D01*
X258Y3795D01*
X258Y3797D01*
X260Y3797D01*
X260Y3799D01*
X262Y3799D01*
X262Y3801D01*
X264Y3801D01*
X264Y3803D01*
X270Y3803D01*
X270Y3805D01*
X40Y3805D01*
G37*
D02*
G36*
X372Y3719D02*
X372Y3697D01*
X374Y3697D01*
X374Y3677D01*
X372Y3677D01*
X372Y3669D01*
X370Y3669D01*
X370Y3665D01*
X368Y3665D01*
X368Y3661D01*
X366Y3661D01*
X366Y3659D01*
X364Y3659D01*
X364Y3655D01*
X362Y3655D01*
X362Y3653D01*
X360Y3653D01*
X360Y3651D01*
X358Y3651D01*
X358Y3649D01*
X356Y3649D01*
X356Y3647D01*
X352Y3647D01*
X352Y3627D01*
X1030Y3627D01*
X1030Y3625D01*
X1038Y3625D01*
X1038Y3623D01*
X1042Y3623D01*
X1042Y3621D01*
X1046Y3621D01*
X1046Y3619D01*
X1048Y3619D01*
X1048Y3617D01*
X1052Y3617D01*
X1052Y3615D01*
X1054Y3615D01*
X1054Y3613D01*
X1056Y3613D01*
X1056Y3611D01*
X1058Y3611D01*
X1058Y3609D01*
X1060Y3609D01*
X1060Y3607D01*
X1062Y3607D01*
X1062Y3605D01*
X1064Y3605D01*
X1064Y3603D01*
X1066Y3603D01*
X1066Y3601D01*
X1068Y3601D01*
X1068Y3599D01*
X1070Y3599D01*
X1070Y3597D01*
X1072Y3597D01*
X1072Y3595D01*
X1074Y3595D01*
X1074Y3593D01*
X1076Y3593D01*
X1076Y3591D01*
X1078Y3591D01*
X1078Y3587D01*
X1080Y3587D01*
X1080Y3585D01*
X1082Y3585D01*
X1082Y3583D01*
X1084Y3583D01*
X1084Y3579D01*
X1086Y3579D01*
X1086Y3575D01*
X1088Y3575D01*
X1088Y3563D01*
X1090Y3563D01*
X1090Y3497D01*
X1092Y3497D01*
X1092Y3493D01*
X1094Y3493D01*
X1094Y3491D01*
X1096Y3491D01*
X1096Y3487D01*
X1098Y3487D01*
X1098Y3483D01*
X1100Y3483D01*
X1100Y3475D01*
X1102Y3475D01*
X1102Y3453D01*
X1100Y3453D01*
X1100Y3445D01*
X1098Y3445D01*
X1098Y3441D01*
X1096Y3441D01*
X1096Y3437D01*
X1094Y3437D01*
X1094Y3435D01*
X1092Y3435D01*
X1092Y3433D01*
X1090Y3433D01*
X1090Y3429D01*
X1088Y3429D01*
X1088Y3427D01*
X1086Y3427D01*
X1086Y3425D01*
X1082Y3425D01*
X1082Y3423D01*
X1080Y3423D01*
X1080Y3421D01*
X1076Y3421D01*
X1076Y3419D01*
X1074Y3419D01*
X1074Y3417D01*
X1070Y3417D01*
X1070Y3415D01*
X1062Y3415D01*
X1062Y3413D01*
X1156Y3413D01*
X1156Y3705D01*
X1154Y3705D01*
X1154Y3707D01*
X1152Y3707D01*
X1152Y3709D01*
X1150Y3709D01*
X1150Y3711D01*
X1148Y3711D01*
X1148Y3713D01*
X1146Y3713D01*
X1146Y3715D01*
X1144Y3715D01*
X1144Y3717D01*
X1142Y3717D01*
X1142Y3719D01*
X372Y3719D01*
G37*
D02*
G36*
X354Y3627D02*
X354Y3625D01*
X356Y3625D01*
X356Y3623D01*
X360Y3623D01*
X360Y3621D01*
X362Y3621D01*
X362Y3617D01*
X364Y3617D01*
X364Y3615D01*
X366Y3615D01*
X366Y3611D01*
X368Y3611D01*
X368Y3609D01*
X370Y3609D01*
X370Y3603D01*
X372Y3603D01*
X372Y3597D01*
X374Y3597D01*
X374Y3577D01*
X372Y3577D01*
X372Y3569D01*
X370Y3569D01*
X370Y3565D01*
X368Y3565D01*
X368Y3561D01*
X366Y3561D01*
X366Y3559D01*
X364Y3559D01*
X364Y3555D01*
X362Y3555D01*
X362Y3553D01*
X360Y3553D01*
X360Y3551D01*
X358Y3551D01*
X358Y3549D01*
X356Y3549D01*
X356Y3547D01*
X352Y3547D01*
X352Y3527D01*
X354Y3527D01*
X354Y3525D01*
X356Y3525D01*
X356Y3523D01*
X360Y3523D01*
X360Y3521D01*
X362Y3521D01*
X362Y3517D01*
X364Y3517D01*
X364Y3515D01*
X366Y3515D01*
X366Y3511D01*
X368Y3511D01*
X368Y3509D01*
X370Y3509D01*
X370Y3503D01*
X372Y3503D01*
X372Y3497D01*
X374Y3497D01*
X374Y3477D01*
X372Y3477D01*
X372Y3469D01*
X370Y3469D01*
X370Y3465D01*
X368Y3465D01*
X368Y3461D01*
X366Y3461D01*
X366Y3459D01*
X364Y3459D01*
X364Y3437D01*
X374Y3437D01*
X374Y3337D01*
X434Y3337D01*
X434Y3395D01*
X436Y3395D01*
X436Y3547D01*
X438Y3547D01*
X438Y3553D01*
X440Y3553D01*
X440Y3557D01*
X442Y3557D01*
X442Y3559D01*
X444Y3559D01*
X444Y3563D01*
X446Y3563D01*
X446Y3565D01*
X448Y3565D01*
X448Y3567D01*
X450Y3567D01*
X450Y3569D01*
X452Y3569D01*
X452Y3571D01*
X454Y3571D01*
X454Y3573D01*
X456Y3573D01*
X456Y3575D01*
X458Y3575D01*
X458Y3577D01*
X460Y3577D01*
X460Y3579D01*
X462Y3579D01*
X462Y3581D01*
X464Y3581D01*
X464Y3583D01*
X466Y3583D01*
X466Y3585D01*
X468Y3585D01*
X468Y3587D01*
X470Y3587D01*
X470Y3589D01*
X472Y3589D01*
X472Y3591D01*
X474Y3591D01*
X474Y3593D01*
X476Y3593D01*
X476Y3595D01*
X478Y3595D01*
X478Y3597D01*
X480Y3597D01*
X480Y3599D01*
X482Y3599D01*
X482Y3601D01*
X484Y3601D01*
X484Y3603D01*
X486Y3603D01*
X486Y3605D01*
X488Y3605D01*
X488Y3607D01*
X490Y3607D01*
X490Y3609D01*
X492Y3609D01*
X492Y3611D01*
X494Y3611D01*
X494Y3613D01*
X496Y3613D01*
X496Y3615D01*
X498Y3615D01*
X498Y3617D01*
X500Y3617D01*
X500Y3619D01*
X504Y3619D01*
X504Y3621D01*
X508Y3621D01*
X508Y3623D01*
X512Y3623D01*
X512Y3625D01*
X524Y3625D01*
X524Y3627D01*
X354Y3627D01*
G37*
D02*
G36*
X542Y3547D02*
X542Y3545D01*
X540Y3545D01*
X540Y3543D01*
X538Y3543D01*
X538Y3541D01*
X536Y3541D01*
X536Y3539D01*
X534Y3539D01*
X534Y3537D01*
X532Y3537D01*
X532Y3535D01*
X530Y3535D01*
X530Y3533D01*
X528Y3533D01*
X528Y3531D01*
X526Y3531D01*
X526Y3529D01*
X524Y3529D01*
X524Y3527D01*
X522Y3527D01*
X522Y3525D01*
X520Y3525D01*
X520Y3523D01*
X518Y3523D01*
X518Y3521D01*
X516Y3521D01*
X516Y3515D01*
X926Y3515D01*
X926Y3413D01*
X1040Y3413D01*
X1040Y3415D01*
X1034Y3415D01*
X1034Y3417D01*
X1030Y3417D01*
X1030Y3419D01*
X1026Y3419D01*
X1026Y3421D01*
X1022Y3421D01*
X1022Y3423D01*
X1020Y3423D01*
X1020Y3425D01*
X1018Y3425D01*
X1018Y3427D01*
X1014Y3427D01*
X1014Y3431D01*
X1012Y3431D01*
X1012Y3433D01*
X1010Y3433D01*
X1010Y3435D01*
X1008Y3435D01*
X1008Y3439D01*
X1006Y3439D01*
X1006Y3443D01*
X1004Y3443D01*
X1004Y3447D01*
X1002Y3447D01*
X1002Y3453D01*
X1000Y3453D01*
X1000Y3475D01*
X1002Y3475D01*
X1002Y3481D01*
X1004Y3481D01*
X1004Y3487D01*
X1006Y3487D01*
X1006Y3489D01*
X1008Y3489D01*
X1008Y3493D01*
X1010Y3493D01*
X1010Y3545D01*
X1008Y3545D01*
X1008Y3547D01*
X542Y3547D01*
G37*
D02*
G36*
X516Y3515D02*
X516Y3413D01*
X822Y3413D01*
X822Y3515D01*
X516Y3515D01*
G37*
D02*
G36*
X516Y3413D02*
X516Y3411D01*
X1156Y3411D01*
X1156Y3413D01*
X516Y3413D01*
G37*
D02*
G36*
X516Y3413D02*
X516Y3411D01*
X1156Y3411D01*
X1156Y3413D01*
X516Y3413D01*
G37*
D02*
G36*
X516Y3413D02*
X516Y3411D01*
X1156Y3411D01*
X1156Y3413D01*
X516Y3413D01*
G37*
D02*
G36*
X516Y3411D02*
X516Y3409D01*
X658Y3409D01*
X658Y3407D01*
X666Y3407D01*
X666Y3405D01*
X670Y3405D01*
X670Y3403D01*
X674Y3403D01*
X674Y3401D01*
X676Y3401D01*
X676Y3399D01*
X680Y3399D01*
X680Y3397D01*
X682Y3397D01*
X682Y3395D01*
X684Y3395D01*
X684Y3393D01*
X686Y3393D01*
X686Y3389D01*
X688Y3389D01*
X688Y3387D01*
X690Y3387D01*
X690Y3383D01*
X692Y3383D01*
X692Y3379D01*
X694Y3379D01*
X694Y3377D01*
X1064Y3377D01*
X1064Y3375D01*
X1070Y3375D01*
X1070Y3373D01*
X1074Y3373D01*
X1074Y3371D01*
X1078Y3371D01*
X1078Y3369D01*
X1082Y3369D01*
X1082Y3367D01*
X1084Y3367D01*
X1084Y3365D01*
X1086Y3365D01*
X1086Y3363D01*
X1088Y3363D01*
X1088Y3361D01*
X1090Y3361D01*
X1090Y3359D01*
X1092Y3359D01*
X1092Y3357D01*
X1094Y3357D01*
X1094Y3353D01*
X1096Y3353D01*
X1096Y3349D01*
X1098Y3349D01*
X1098Y3345D01*
X1100Y3345D01*
X1100Y3339D01*
X1102Y3339D01*
X1102Y3315D01*
X1100Y3315D01*
X1100Y3309D01*
X1098Y3309D01*
X1098Y3303D01*
X1096Y3303D01*
X1096Y3301D01*
X1094Y3301D01*
X1094Y3297D01*
X1092Y3297D01*
X1092Y3295D01*
X1090Y3295D01*
X1090Y3293D01*
X1088Y3293D01*
X1088Y3289D01*
X1084Y3289D01*
X1084Y3287D01*
X1082Y3287D01*
X1082Y3285D01*
X1080Y3285D01*
X1080Y3283D01*
X1076Y3283D01*
X1076Y3281D01*
X1072Y3281D01*
X1072Y3279D01*
X1068Y3279D01*
X1068Y3277D01*
X1060Y3277D01*
X1060Y3275D01*
X1156Y3275D01*
X1156Y3411D01*
X516Y3411D01*
G37*
D02*
G36*
X516Y3409D02*
X516Y3391D01*
X514Y3391D01*
X514Y3315D01*
X636Y3315D01*
X636Y3317D01*
X630Y3317D01*
X630Y3319D01*
X626Y3319D01*
X626Y3321D01*
X624Y3321D01*
X624Y3323D01*
X620Y3323D01*
X620Y3325D01*
X618Y3325D01*
X618Y3327D01*
X616Y3327D01*
X616Y3329D01*
X614Y3329D01*
X614Y3331D01*
X612Y3331D01*
X612Y3333D01*
X610Y3333D01*
X610Y3337D01*
X608Y3337D01*
X608Y3341D01*
X606Y3341D01*
X606Y3345D01*
X604Y3345D01*
X604Y3351D01*
X602Y3351D01*
X602Y3373D01*
X604Y3373D01*
X604Y3379D01*
X606Y3379D01*
X606Y3383D01*
X608Y3383D01*
X608Y3387D01*
X610Y3387D01*
X610Y3389D01*
X612Y3389D01*
X612Y3393D01*
X614Y3393D01*
X614Y3395D01*
X616Y3395D01*
X616Y3397D01*
X620Y3397D01*
X620Y3399D01*
X622Y3399D01*
X622Y3401D01*
X624Y3401D01*
X624Y3403D01*
X628Y3403D01*
X628Y3405D01*
X632Y3405D01*
X632Y3407D01*
X640Y3407D01*
X640Y3409D01*
X516Y3409D01*
G37*
D02*
G36*
X694Y3377D02*
X694Y3373D01*
X696Y3373D01*
X696Y3351D01*
X694Y3351D01*
X694Y3343D01*
X692Y3343D01*
X692Y3339D01*
X690Y3339D01*
X690Y3337D01*
X688Y3337D01*
X688Y3333D01*
X686Y3333D01*
X686Y3331D01*
X684Y3331D01*
X684Y3329D01*
X682Y3329D01*
X682Y3327D01*
X680Y3327D01*
X680Y3325D01*
X678Y3325D01*
X678Y3323D01*
X676Y3323D01*
X676Y3321D01*
X672Y3321D01*
X672Y3319D01*
X668Y3319D01*
X668Y3317D01*
X662Y3317D01*
X662Y3315D01*
X824Y3315D01*
X824Y3323D01*
X822Y3323D01*
X822Y3331D01*
X824Y3331D01*
X824Y3341D01*
X826Y3341D01*
X826Y3347D01*
X828Y3347D01*
X828Y3351D01*
X830Y3351D01*
X830Y3355D01*
X832Y3355D01*
X832Y3357D01*
X834Y3357D01*
X834Y3359D01*
X836Y3359D01*
X836Y3361D01*
X838Y3361D01*
X838Y3363D01*
X840Y3363D01*
X840Y3365D01*
X842Y3365D01*
X842Y3367D01*
X844Y3367D01*
X844Y3369D01*
X848Y3369D01*
X848Y3371D01*
X850Y3371D01*
X850Y3373D01*
X854Y3373D01*
X854Y3375D01*
X860Y3375D01*
X860Y3377D01*
X694Y3377D01*
G37*
D02*
G36*
X888Y3377D02*
X888Y3375D01*
X894Y3375D01*
X894Y3373D01*
X898Y3373D01*
X898Y3371D01*
X902Y3371D01*
X902Y3369D01*
X904Y3369D01*
X904Y3367D01*
X906Y3367D01*
X906Y3365D01*
X910Y3365D01*
X910Y3363D01*
X912Y3363D01*
X912Y3359D01*
X914Y3359D01*
X914Y3357D01*
X916Y3357D01*
X916Y3355D01*
X918Y3355D01*
X918Y3351D01*
X920Y3351D01*
X920Y3347D01*
X922Y3347D01*
X922Y3343D01*
X924Y3343D01*
X924Y3333D01*
X926Y3333D01*
X926Y3321D01*
X924Y3321D01*
X924Y3311D01*
X922Y3311D01*
X922Y3305D01*
X920Y3305D01*
X920Y3303D01*
X918Y3303D01*
X918Y3299D01*
X916Y3299D01*
X916Y3295D01*
X914Y3295D01*
X914Y3293D01*
X912Y3293D01*
X912Y3291D01*
X910Y3291D01*
X910Y3289D01*
X908Y3289D01*
X908Y3287D01*
X906Y3287D01*
X906Y3285D01*
X902Y3285D01*
X902Y3283D01*
X900Y3283D01*
X900Y3281D01*
X896Y3281D01*
X896Y3279D01*
X890Y3279D01*
X890Y3277D01*
X882Y3277D01*
X882Y3275D01*
X1044Y3275D01*
X1044Y3277D01*
X1034Y3277D01*
X1034Y3279D01*
X1030Y3279D01*
X1030Y3281D01*
X1026Y3281D01*
X1026Y3283D01*
X1022Y3283D01*
X1022Y3285D01*
X1020Y3285D01*
X1020Y3287D01*
X1018Y3287D01*
X1018Y3289D01*
X1016Y3289D01*
X1016Y3291D01*
X1014Y3291D01*
X1014Y3293D01*
X1012Y3293D01*
X1012Y3295D01*
X1010Y3295D01*
X1010Y3297D01*
X1008Y3297D01*
X1008Y3301D01*
X1006Y3301D01*
X1006Y3305D01*
X1004Y3305D01*
X1004Y3309D01*
X1002Y3309D01*
X1002Y3317D01*
X1000Y3317D01*
X1000Y3337D01*
X1002Y3337D01*
X1002Y3345D01*
X1004Y3345D01*
X1004Y3349D01*
X1006Y3349D01*
X1006Y3353D01*
X1008Y3353D01*
X1008Y3355D01*
X1010Y3355D01*
X1010Y3359D01*
X1012Y3359D01*
X1012Y3361D01*
X1014Y3361D01*
X1014Y3363D01*
X1016Y3363D01*
X1016Y3365D01*
X1018Y3365D01*
X1018Y3367D01*
X1022Y3367D01*
X1022Y3369D01*
X1024Y3369D01*
X1024Y3371D01*
X1028Y3371D01*
X1028Y3373D01*
X1032Y3373D01*
X1032Y3375D01*
X1038Y3375D01*
X1038Y3377D01*
X888Y3377D01*
G37*
D02*
G36*
X40Y3337D02*
X40Y3335D01*
X434Y3335D01*
X434Y3337D01*
X40Y3337D01*
G37*
D02*
G36*
X40Y3337D02*
X40Y3335D01*
X434Y3335D01*
X434Y3337D01*
X40Y3337D01*
G37*
D02*
G36*
X40Y3335D02*
X40Y3133D01*
X410Y3133D01*
X410Y3131D01*
X434Y3131D01*
X434Y3335D01*
X40Y3335D01*
G37*
D02*
G36*
X514Y3315D02*
X514Y3313D01*
X824Y3313D01*
X824Y3315D01*
X514Y3315D01*
G37*
D02*
G36*
X514Y3315D02*
X514Y3313D01*
X824Y3313D01*
X824Y3315D01*
X514Y3315D01*
G37*
D02*
G36*
X514Y3313D02*
X514Y3275D01*
X866Y3275D01*
X866Y3277D01*
X858Y3277D01*
X858Y3279D01*
X852Y3279D01*
X852Y3281D01*
X850Y3281D01*
X850Y3283D01*
X846Y3283D01*
X846Y3285D01*
X844Y3285D01*
X844Y3287D01*
X840Y3287D01*
X840Y3289D01*
X838Y3289D01*
X838Y3291D01*
X836Y3291D01*
X836Y3293D01*
X834Y3293D01*
X834Y3297D01*
X832Y3297D01*
X832Y3299D01*
X830Y3299D01*
X830Y3303D01*
X828Y3303D01*
X828Y3307D01*
X826Y3307D01*
X826Y3311D01*
X824Y3311D01*
X824Y3313D01*
X514Y3313D01*
G37*
D02*
G36*
X514Y3275D02*
X514Y3273D01*
X1156Y3273D01*
X1156Y3275D01*
X514Y3275D01*
G37*
D02*
G36*
X514Y3275D02*
X514Y3273D01*
X1156Y3273D01*
X1156Y3275D01*
X514Y3275D01*
G37*
D02*
G36*
X514Y3275D02*
X514Y3273D01*
X1156Y3273D01*
X1156Y3275D01*
X514Y3275D01*
G37*
D02*
G36*
X514Y3273D02*
X514Y3255D01*
X1062Y3255D01*
X1062Y3253D01*
X1070Y3253D01*
X1070Y3251D01*
X1074Y3251D01*
X1074Y3249D01*
X1078Y3249D01*
X1078Y3247D01*
X1080Y3247D01*
X1080Y3245D01*
X1084Y3245D01*
X1084Y3243D01*
X1086Y3243D01*
X1086Y3241D01*
X1088Y3241D01*
X1088Y3239D01*
X1090Y3239D01*
X1090Y3237D01*
X1092Y3237D01*
X1092Y3233D01*
X1094Y3233D01*
X1094Y3231D01*
X1096Y3231D01*
X1096Y3227D01*
X1098Y3227D01*
X1098Y3223D01*
X1100Y3223D01*
X1100Y3215D01*
X1102Y3215D01*
X1102Y3193D01*
X1100Y3193D01*
X1100Y3185D01*
X1098Y3185D01*
X1098Y3181D01*
X1096Y3181D01*
X1096Y3177D01*
X1094Y3177D01*
X1094Y3175D01*
X1092Y3175D01*
X1092Y3173D01*
X1090Y3173D01*
X1090Y3169D01*
X1088Y3169D01*
X1088Y3167D01*
X1086Y3167D01*
X1086Y3165D01*
X1082Y3165D01*
X1082Y3163D01*
X1080Y3163D01*
X1080Y3161D01*
X1076Y3161D01*
X1076Y3159D01*
X1074Y3159D01*
X1074Y3157D01*
X1070Y3157D01*
X1070Y3155D01*
X1062Y3155D01*
X1062Y3135D01*
X1070Y3135D01*
X1070Y3133D01*
X1074Y3133D01*
X1074Y3131D01*
X1078Y3131D01*
X1078Y3129D01*
X1080Y3129D01*
X1080Y3127D01*
X1084Y3127D01*
X1084Y3125D01*
X1086Y3125D01*
X1086Y3123D01*
X1088Y3123D01*
X1088Y3121D01*
X1090Y3121D01*
X1090Y3119D01*
X1092Y3119D01*
X1092Y3115D01*
X1094Y3115D01*
X1094Y3113D01*
X1096Y3113D01*
X1096Y3109D01*
X1098Y3109D01*
X1098Y3105D01*
X1100Y3105D01*
X1100Y3097D01*
X1102Y3097D01*
X1102Y3065D01*
X1104Y3065D01*
X1104Y3063D01*
X1106Y3063D01*
X1106Y3061D01*
X1108Y3061D01*
X1108Y3059D01*
X1110Y3059D01*
X1110Y3057D01*
X1112Y3057D01*
X1112Y3055D01*
X1114Y3055D01*
X1114Y3053D01*
X1116Y3053D01*
X1116Y3051D01*
X1118Y3051D01*
X1118Y3049D01*
X1120Y3049D01*
X1120Y3047D01*
X1122Y3047D01*
X1122Y3045D01*
X1124Y3045D01*
X1124Y3043D01*
X1126Y3043D01*
X1126Y3041D01*
X1128Y3041D01*
X1128Y3039D01*
X1130Y3039D01*
X1130Y3037D01*
X1132Y3037D01*
X1132Y3033D01*
X1134Y3033D01*
X1134Y3031D01*
X1136Y3031D01*
X1136Y3029D01*
X1156Y3029D01*
X1156Y3273D01*
X514Y3273D01*
G37*
D02*
G36*
X514Y3255D02*
X514Y3191D01*
X658Y3191D01*
X658Y3189D01*
X662Y3189D01*
X662Y3187D01*
X666Y3187D01*
X666Y3185D01*
X668Y3185D01*
X668Y3183D01*
X670Y3183D01*
X670Y3181D01*
X672Y3181D01*
X672Y3179D01*
X674Y3179D01*
X674Y3175D01*
X676Y3175D01*
X676Y3171D01*
X678Y3171D01*
X678Y3151D01*
X676Y3151D01*
X676Y3147D01*
X674Y3147D01*
X674Y3145D01*
X672Y3145D01*
X672Y3141D01*
X670Y3141D01*
X670Y3139D01*
X666Y3139D01*
X666Y3137D01*
X664Y3137D01*
X664Y3135D01*
X660Y3135D01*
X660Y3133D01*
X650Y3133D01*
X650Y3131D01*
X852Y3131D01*
X852Y3133D01*
X856Y3133D01*
X856Y3135D01*
X862Y3135D01*
X862Y3155D01*
X856Y3155D01*
X856Y3157D01*
X852Y3157D01*
X852Y3159D01*
X848Y3159D01*
X848Y3161D01*
X844Y3161D01*
X844Y3163D01*
X842Y3163D01*
X842Y3165D01*
X840Y3165D01*
X840Y3167D01*
X838Y3167D01*
X838Y3169D01*
X836Y3169D01*
X836Y3171D01*
X834Y3171D01*
X834Y3173D01*
X832Y3173D01*
X832Y3177D01*
X830Y3177D01*
X830Y3181D01*
X828Y3181D01*
X828Y3183D01*
X826Y3183D01*
X826Y3189D01*
X824Y3189D01*
X824Y3201D01*
X822Y3201D01*
X822Y3207D01*
X824Y3207D01*
X824Y3219D01*
X826Y3219D01*
X826Y3225D01*
X828Y3225D01*
X828Y3227D01*
X830Y3227D01*
X830Y3231D01*
X832Y3231D01*
X832Y3235D01*
X834Y3235D01*
X834Y3237D01*
X836Y3237D01*
X836Y3239D01*
X838Y3239D01*
X838Y3241D01*
X840Y3241D01*
X840Y3243D01*
X842Y3243D01*
X842Y3245D01*
X844Y3245D01*
X844Y3247D01*
X848Y3247D01*
X848Y3249D01*
X852Y3249D01*
X852Y3251D01*
X856Y3251D01*
X856Y3253D01*
X862Y3253D01*
X862Y3255D01*
X514Y3255D01*
G37*
D02*
G36*
X886Y3255D02*
X886Y3253D01*
X892Y3253D01*
X892Y3251D01*
X896Y3251D01*
X896Y3249D01*
X900Y3249D01*
X900Y3247D01*
X904Y3247D01*
X904Y3245D01*
X906Y3245D01*
X906Y3243D01*
X908Y3243D01*
X908Y3241D01*
X910Y3241D01*
X910Y3239D01*
X912Y3239D01*
X912Y3237D01*
X914Y3237D01*
X914Y3235D01*
X916Y3235D01*
X916Y3233D01*
X918Y3233D01*
X918Y3229D01*
X920Y3229D01*
X920Y3225D01*
X922Y3225D01*
X922Y3219D01*
X924Y3219D01*
X924Y3211D01*
X926Y3211D01*
X926Y3197D01*
X924Y3197D01*
X924Y3189D01*
X922Y3189D01*
X922Y3183D01*
X920Y3183D01*
X920Y3179D01*
X918Y3179D01*
X918Y3177D01*
X916Y3177D01*
X916Y3173D01*
X914Y3173D01*
X914Y3171D01*
X912Y3171D01*
X912Y3169D01*
X910Y3169D01*
X910Y3167D01*
X908Y3167D01*
X908Y3165D01*
X906Y3165D01*
X906Y3163D01*
X904Y3163D01*
X904Y3161D01*
X900Y3161D01*
X900Y3159D01*
X896Y3159D01*
X896Y3157D01*
X892Y3157D01*
X892Y3155D01*
X886Y3155D01*
X886Y3135D01*
X892Y3135D01*
X892Y3133D01*
X896Y3133D01*
X896Y3131D01*
X900Y3131D01*
X900Y3129D01*
X904Y3129D01*
X904Y3127D01*
X906Y3127D01*
X906Y3125D01*
X908Y3125D01*
X908Y3123D01*
X910Y3123D01*
X910Y3121D01*
X912Y3121D01*
X912Y3119D01*
X914Y3119D01*
X914Y3117D01*
X916Y3117D01*
X916Y3115D01*
X918Y3115D01*
X918Y3111D01*
X920Y3111D01*
X920Y3107D01*
X922Y3107D01*
X922Y3101D01*
X924Y3101D01*
X924Y3093D01*
X926Y3093D01*
X926Y3081D01*
X924Y3081D01*
X924Y3071D01*
X922Y3071D01*
X922Y3065D01*
X920Y3065D01*
X920Y3061D01*
X918Y3061D01*
X918Y3059D01*
X916Y3059D01*
X916Y3055D01*
X914Y3055D01*
X914Y3053D01*
X912Y3053D01*
X912Y3051D01*
X910Y3051D01*
X910Y3049D01*
X908Y3049D01*
X908Y3047D01*
X906Y3047D01*
X906Y3045D01*
X904Y3045D01*
X904Y3043D01*
X900Y3043D01*
X900Y3041D01*
X896Y3041D01*
X896Y3039D01*
X892Y3039D01*
X892Y3037D01*
X886Y3037D01*
X886Y3017D01*
X892Y3017D01*
X892Y3015D01*
X896Y3015D01*
X896Y3013D01*
X900Y3013D01*
X900Y3011D01*
X904Y3011D01*
X904Y3009D01*
X906Y3009D01*
X906Y3007D01*
X908Y3007D01*
X908Y3005D01*
X910Y3005D01*
X910Y3003D01*
X912Y3003D01*
X912Y3001D01*
X914Y3001D01*
X914Y2999D01*
X916Y2999D01*
X916Y2997D01*
X918Y2997D01*
X918Y2993D01*
X920Y2993D01*
X920Y2989D01*
X922Y2989D01*
X922Y2983D01*
X924Y2983D01*
X924Y2975D01*
X926Y2975D01*
X926Y2963D01*
X924Y2963D01*
X924Y2953D01*
X922Y2953D01*
X922Y2947D01*
X920Y2947D01*
X920Y2943D01*
X918Y2943D01*
X918Y2941D01*
X916Y2941D01*
X916Y2937D01*
X914Y2937D01*
X914Y2935D01*
X912Y2935D01*
X912Y2933D01*
X910Y2933D01*
X910Y2931D01*
X908Y2931D01*
X908Y2929D01*
X906Y2929D01*
X906Y2927D01*
X904Y2927D01*
X904Y2925D01*
X900Y2925D01*
X900Y2923D01*
X896Y2923D01*
X896Y2921D01*
X892Y2921D01*
X892Y2919D01*
X884Y2919D01*
X884Y2899D01*
X892Y2899D01*
X892Y2897D01*
X896Y2897D01*
X896Y2895D01*
X900Y2895D01*
X900Y2893D01*
X904Y2893D01*
X904Y2891D01*
X906Y2891D01*
X906Y2889D01*
X908Y2889D01*
X908Y2887D01*
X910Y2887D01*
X910Y2885D01*
X912Y2885D01*
X912Y2883D01*
X914Y2883D01*
X914Y2881D01*
X916Y2881D01*
X916Y2877D01*
X918Y2877D01*
X918Y2875D01*
X920Y2875D01*
X920Y2871D01*
X922Y2871D01*
X922Y2865D01*
X924Y2865D01*
X924Y2855D01*
X926Y2855D01*
X926Y2843D01*
X924Y2843D01*
X924Y2835D01*
X922Y2835D01*
X922Y2829D01*
X920Y2829D01*
X920Y2825D01*
X918Y2825D01*
X918Y2821D01*
X916Y2821D01*
X916Y2819D01*
X914Y2819D01*
X914Y2817D01*
X912Y2817D01*
X912Y2815D01*
X910Y2815D01*
X910Y2813D01*
X908Y2813D01*
X908Y2811D01*
X906Y2811D01*
X906Y2809D01*
X904Y2809D01*
X904Y2807D01*
X900Y2807D01*
X900Y2805D01*
X896Y2805D01*
X896Y2803D01*
X892Y2803D01*
X892Y2801D01*
X886Y2801D01*
X886Y2781D01*
X892Y2781D01*
X892Y2779D01*
X896Y2779D01*
X896Y2777D01*
X900Y2777D01*
X900Y2775D01*
X902Y2775D01*
X902Y2773D01*
X906Y2773D01*
X906Y2771D01*
X908Y2771D01*
X908Y2769D01*
X910Y2769D01*
X910Y2767D01*
X912Y2767D01*
X912Y2765D01*
X914Y2765D01*
X914Y2763D01*
X916Y2763D01*
X916Y2759D01*
X918Y2759D01*
X918Y2755D01*
X920Y2755D01*
X920Y2753D01*
X922Y2753D01*
X922Y2747D01*
X924Y2747D01*
X924Y2737D01*
X926Y2737D01*
X926Y2725D01*
X924Y2725D01*
X924Y2717D01*
X922Y2717D01*
X922Y2711D01*
X920Y2711D01*
X920Y2707D01*
X918Y2707D01*
X918Y2703D01*
X916Y2703D01*
X916Y2701D01*
X914Y2701D01*
X914Y2699D01*
X912Y2699D01*
X912Y2695D01*
X908Y2695D01*
X908Y2693D01*
X906Y2693D01*
X906Y2691D01*
X904Y2691D01*
X904Y2689D01*
X900Y2689D01*
X900Y2687D01*
X898Y2687D01*
X898Y2685D01*
X894Y2685D01*
X894Y2683D01*
X886Y2683D01*
X886Y2663D01*
X892Y2663D01*
X892Y2661D01*
X896Y2661D01*
X896Y2659D01*
X900Y2659D01*
X900Y2657D01*
X902Y2657D01*
X902Y2655D01*
X906Y2655D01*
X906Y2653D01*
X908Y2653D01*
X908Y2651D01*
X910Y2651D01*
X910Y2649D01*
X912Y2649D01*
X912Y2647D01*
X914Y2647D01*
X914Y2645D01*
X916Y2645D01*
X916Y2641D01*
X918Y2641D01*
X918Y2639D01*
X920Y2639D01*
X920Y2635D01*
X922Y2635D01*
X922Y2629D01*
X924Y2629D01*
X924Y2619D01*
X926Y2619D01*
X926Y2607D01*
X924Y2607D01*
X924Y2599D01*
X922Y2599D01*
X922Y2593D01*
X920Y2593D01*
X920Y2589D01*
X918Y2589D01*
X918Y2585D01*
X916Y2585D01*
X916Y2583D01*
X914Y2583D01*
X914Y2581D01*
X912Y2581D01*
X912Y2579D01*
X910Y2579D01*
X910Y2577D01*
X908Y2577D01*
X908Y2575D01*
X906Y2575D01*
X906Y2573D01*
X904Y2573D01*
X904Y2571D01*
X900Y2571D01*
X900Y2569D01*
X898Y2569D01*
X898Y2567D01*
X894Y2567D01*
X894Y2565D01*
X886Y2565D01*
X886Y2545D01*
X892Y2545D01*
X892Y2543D01*
X896Y2543D01*
X896Y2541D01*
X900Y2541D01*
X900Y2539D01*
X904Y2539D01*
X904Y2537D01*
X906Y2537D01*
X906Y2535D01*
X908Y2535D01*
X908Y2533D01*
X910Y2533D01*
X910Y2531D01*
X912Y2531D01*
X912Y2529D01*
X914Y2529D01*
X914Y2527D01*
X916Y2527D01*
X916Y2523D01*
X918Y2523D01*
X918Y2521D01*
X920Y2521D01*
X920Y2517D01*
X922Y2517D01*
X922Y2511D01*
X924Y2511D01*
X924Y2501D01*
X926Y2501D01*
X926Y2489D01*
X924Y2489D01*
X924Y2481D01*
X922Y2481D01*
X922Y2475D01*
X920Y2475D01*
X920Y2471D01*
X918Y2471D01*
X918Y2467D01*
X916Y2467D01*
X916Y2465D01*
X914Y2465D01*
X914Y2463D01*
X912Y2463D01*
X912Y2461D01*
X910Y2461D01*
X910Y2459D01*
X908Y2459D01*
X908Y2457D01*
X906Y2457D01*
X906Y2455D01*
X904Y2455D01*
X904Y2453D01*
X900Y2453D01*
X900Y2451D01*
X896Y2451D01*
X896Y2449D01*
X892Y2449D01*
X892Y2447D01*
X886Y2447D01*
X886Y2427D01*
X890Y2427D01*
X890Y2425D01*
X896Y2425D01*
X896Y2423D01*
X900Y2423D01*
X900Y2421D01*
X902Y2421D01*
X902Y2419D01*
X906Y2419D01*
X906Y2417D01*
X908Y2417D01*
X908Y2415D01*
X910Y2415D01*
X910Y2413D01*
X912Y2413D01*
X912Y2411D01*
X914Y2411D01*
X914Y2409D01*
X916Y2409D01*
X916Y2405D01*
X918Y2405D01*
X918Y2401D01*
X920Y2401D01*
X920Y2399D01*
X922Y2399D01*
X922Y2393D01*
X924Y2393D01*
X924Y2383D01*
X926Y2383D01*
X926Y2371D01*
X924Y2371D01*
X924Y2361D01*
X922Y2361D01*
X922Y2357D01*
X920Y2357D01*
X920Y2353D01*
X918Y2353D01*
X918Y2349D01*
X916Y2349D01*
X916Y2347D01*
X914Y2347D01*
X914Y2345D01*
X912Y2345D01*
X912Y2341D01*
X958Y2341D01*
X958Y2339D01*
X962Y2339D01*
X962Y2337D01*
X966Y2337D01*
X966Y2335D01*
X968Y2335D01*
X968Y2333D01*
X970Y2333D01*
X970Y2331D01*
X972Y2331D01*
X972Y2329D01*
X974Y2329D01*
X974Y2327D01*
X1038Y2327D01*
X1038Y2329D01*
X1032Y2329D01*
X1032Y2331D01*
X1028Y2331D01*
X1028Y2333D01*
X1024Y2333D01*
X1024Y2335D01*
X1022Y2335D01*
X1022Y2337D01*
X1018Y2337D01*
X1018Y2339D01*
X1016Y2339D01*
X1016Y2341D01*
X1014Y2341D01*
X1014Y2343D01*
X1012Y2343D01*
X1012Y2345D01*
X1010Y2345D01*
X1010Y2349D01*
X1008Y2349D01*
X1008Y2351D01*
X1006Y2351D01*
X1006Y2355D01*
X1004Y2355D01*
X1004Y2359D01*
X1002Y2359D01*
X1002Y2367D01*
X1000Y2367D01*
X1000Y2387D01*
X1002Y2387D01*
X1002Y2395D01*
X1004Y2395D01*
X1004Y2399D01*
X1006Y2399D01*
X1006Y2403D01*
X1008Y2403D01*
X1008Y2407D01*
X1010Y2407D01*
X1010Y2409D01*
X1012Y2409D01*
X1012Y2411D01*
X1014Y2411D01*
X1014Y2413D01*
X1016Y2413D01*
X1016Y2415D01*
X1018Y2415D01*
X1018Y2417D01*
X1020Y2417D01*
X1020Y2419D01*
X1022Y2419D01*
X1022Y2421D01*
X1026Y2421D01*
X1026Y2423D01*
X1030Y2423D01*
X1030Y2425D01*
X1034Y2425D01*
X1034Y2427D01*
X1040Y2427D01*
X1040Y2447D01*
X1032Y2447D01*
X1032Y2449D01*
X1028Y2449D01*
X1028Y2451D01*
X1024Y2451D01*
X1024Y2453D01*
X1022Y2453D01*
X1022Y2455D01*
X1020Y2455D01*
X1020Y2457D01*
X1016Y2457D01*
X1016Y2459D01*
X1014Y2459D01*
X1014Y2461D01*
X1012Y2461D01*
X1012Y2465D01*
X1010Y2465D01*
X1010Y2467D01*
X1008Y2467D01*
X1008Y2471D01*
X1006Y2471D01*
X1006Y2473D01*
X1004Y2473D01*
X1004Y2479D01*
X1002Y2479D01*
X1002Y2485D01*
X1000Y2485D01*
X1000Y2507D01*
X1002Y2507D01*
X1002Y2513D01*
X1004Y2513D01*
X1004Y2517D01*
X1006Y2517D01*
X1006Y2521D01*
X1008Y2521D01*
X1008Y2525D01*
X1010Y2525D01*
X1010Y2527D01*
X1012Y2527D01*
X1012Y2529D01*
X1014Y2529D01*
X1014Y2533D01*
X1018Y2533D01*
X1018Y2535D01*
X1020Y2535D01*
X1020Y2537D01*
X1022Y2537D01*
X1022Y2539D01*
X1026Y2539D01*
X1026Y2541D01*
X1030Y2541D01*
X1030Y2543D01*
X1034Y2543D01*
X1034Y2545D01*
X1038Y2545D01*
X1038Y2565D01*
X1032Y2565D01*
X1032Y2567D01*
X1028Y2567D01*
X1028Y2569D01*
X1024Y2569D01*
X1024Y2571D01*
X1022Y2571D01*
X1022Y2573D01*
X1020Y2573D01*
X1020Y2575D01*
X1016Y2575D01*
X1016Y2577D01*
X1014Y2577D01*
X1014Y2579D01*
X1012Y2579D01*
X1012Y2583D01*
X1010Y2583D01*
X1010Y2585D01*
X1008Y2585D01*
X1008Y2589D01*
X1006Y2589D01*
X1006Y2591D01*
X1004Y2591D01*
X1004Y2597D01*
X1002Y2597D01*
X1002Y2603D01*
X1000Y2603D01*
X1000Y2623D01*
X1002Y2623D01*
X1002Y2631D01*
X1004Y2631D01*
X1004Y2635D01*
X1006Y2635D01*
X1006Y2639D01*
X1008Y2639D01*
X1008Y2643D01*
X1010Y2643D01*
X1010Y2645D01*
X1012Y2645D01*
X1012Y2647D01*
X1014Y2647D01*
X1014Y2649D01*
X1016Y2649D01*
X1016Y2651D01*
X1018Y2651D01*
X1018Y2653D01*
X1020Y2653D01*
X1020Y2655D01*
X1022Y2655D01*
X1022Y2657D01*
X1026Y2657D01*
X1026Y2659D01*
X1030Y2659D01*
X1030Y2661D01*
X1034Y2661D01*
X1034Y2663D01*
X1038Y2663D01*
X1038Y2683D01*
X1032Y2683D01*
X1032Y2685D01*
X1028Y2685D01*
X1028Y2687D01*
X1024Y2687D01*
X1024Y2689D01*
X1022Y2689D01*
X1022Y2691D01*
X1018Y2691D01*
X1018Y2693D01*
X1016Y2693D01*
X1016Y2695D01*
X1014Y2695D01*
X1014Y2697D01*
X1012Y2697D01*
X1012Y2701D01*
X1010Y2701D01*
X1010Y2703D01*
X1008Y2703D01*
X1008Y2707D01*
X1006Y2707D01*
X1006Y2709D01*
X1004Y2709D01*
X1004Y2715D01*
X1002Y2715D01*
X1002Y2721D01*
X1000Y2721D01*
X1000Y2741D01*
X1002Y2741D01*
X1002Y2749D01*
X1004Y2749D01*
X1004Y2753D01*
X1006Y2753D01*
X1006Y2757D01*
X1008Y2757D01*
X1008Y2761D01*
X1010Y2761D01*
X1010Y2763D01*
X1012Y2763D01*
X1012Y2765D01*
X1014Y2765D01*
X1014Y2767D01*
X1016Y2767D01*
X1016Y2769D01*
X1018Y2769D01*
X1018Y2771D01*
X1020Y2771D01*
X1020Y2773D01*
X1022Y2773D01*
X1022Y2775D01*
X1026Y2775D01*
X1026Y2777D01*
X1030Y2777D01*
X1030Y2779D01*
X1034Y2779D01*
X1034Y2781D01*
X1040Y2781D01*
X1040Y2801D01*
X1032Y2801D01*
X1032Y2803D01*
X1028Y2803D01*
X1028Y2805D01*
X1026Y2805D01*
X1026Y2807D01*
X1022Y2807D01*
X1022Y2809D01*
X1020Y2809D01*
X1020Y2811D01*
X1016Y2811D01*
X1016Y2813D01*
X1014Y2813D01*
X1014Y2815D01*
X1012Y2815D01*
X1012Y2819D01*
X1010Y2819D01*
X1010Y2821D01*
X1008Y2821D01*
X1008Y2825D01*
X1006Y2825D01*
X1006Y2827D01*
X1004Y2827D01*
X1004Y2833D01*
X1002Y2833D01*
X1002Y2839D01*
X1000Y2839D01*
X1000Y2861D01*
X1002Y2861D01*
X1002Y2867D01*
X1004Y2867D01*
X1004Y2871D01*
X1006Y2871D01*
X1006Y2875D01*
X1008Y2875D01*
X1008Y2879D01*
X1010Y2879D01*
X1010Y2881D01*
X1012Y2881D01*
X1012Y2883D01*
X1014Y2883D01*
X1014Y2887D01*
X1018Y2887D01*
X1018Y2889D01*
X1020Y2889D01*
X1020Y2891D01*
X1022Y2891D01*
X1022Y2893D01*
X1026Y2893D01*
X1026Y2895D01*
X1030Y2895D01*
X1030Y2897D01*
X1034Y2897D01*
X1034Y2899D01*
X1040Y2899D01*
X1040Y2919D01*
X1034Y2919D01*
X1034Y2921D01*
X1030Y2921D01*
X1030Y2923D01*
X1026Y2923D01*
X1026Y2925D01*
X1022Y2925D01*
X1022Y2927D01*
X1020Y2927D01*
X1020Y2929D01*
X1018Y2929D01*
X1018Y2931D01*
X1014Y2931D01*
X1014Y2935D01*
X1012Y2935D01*
X1012Y2937D01*
X1010Y2937D01*
X1010Y2939D01*
X1008Y2939D01*
X1008Y2943D01*
X1006Y2943D01*
X1006Y2947D01*
X1004Y2947D01*
X1004Y2951D01*
X1002Y2951D01*
X1002Y2957D01*
X1000Y2957D01*
X1000Y2979D01*
X1002Y2979D01*
X1002Y2985D01*
X1004Y2985D01*
X1004Y2991D01*
X1006Y2991D01*
X1006Y2993D01*
X1008Y2993D01*
X1008Y2997D01*
X1010Y2997D01*
X1010Y2999D01*
X1012Y2999D01*
X1012Y3003D01*
X1014Y3003D01*
X1014Y3005D01*
X1016Y3005D01*
X1016Y3007D01*
X1020Y3007D01*
X1020Y3009D01*
X1022Y3009D01*
X1022Y3011D01*
X1024Y3011D01*
X1024Y3013D01*
X1028Y3013D01*
X1028Y3015D01*
X1032Y3015D01*
X1032Y3017D01*
X1040Y3017D01*
X1040Y3037D01*
X1034Y3037D01*
X1034Y3039D01*
X1030Y3039D01*
X1030Y3041D01*
X1026Y3041D01*
X1026Y3043D01*
X1022Y3043D01*
X1022Y3045D01*
X1020Y3045D01*
X1020Y3047D01*
X1018Y3047D01*
X1018Y3049D01*
X1014Y3049D01*
X1014Y3053D01*
X1012Y3053D01*
X1012Y3055D01*
X1010Y3055D01*
X1010Y3057D01*
X1008Y3057D01*
X1008Y3061D01*
X1006Y3061D01*
X1006Y3065D01*
X1004Y3065D01*
X1004Y3069D01*
X1002Y3069D01*
X1002Y3075D01*
X1000Y3075D01*
X1000Y3097D01*
X1002Y3097D01*
X1002Y3103D01*
X1004Y3103D01*
X1004Y3109D01*
X1006Y3109D01*
X1006Y3111D01*
X1008Y3111D01*
X1008Y3115D01*
X1010Y3115D01*
X1010Y3117D01*
X1012Y3117D01*
X1012Y3121D01*
X1014Y3121D01*
X1014Y3123D01*
X1016Y3123D01*
X1016Y3125D01*
X1020Y3125D01*
X1020Y3127D01*
X1022Y3127D01*
X1022Y3129D01*
X1024Y3129D01*
X1024Y3131D01*
X1028Y3131D01*
X1028Y3133D01*
X1032Y3133D01*
X1032Y3135D01*
X1040Y3135D01*
X1040Y3155D01*
X1034Y3155D01*
X1034Y3157D01*
X1030Y3157D01*
X1030Y3159D01*
X1026Y3159D01*
X1026Y3161D01*
X1022Y3161D01*
X1022Y3163D01*
X1020Y3163D01*
X1020Y3165D01*
X1018Y3165D01*
X1018Y3167D01*
X1014Y3167D01*
X1014Y3171D01*
X1012Y3171D01*
X1012Y3173D01*
X1010Y3173D01*
X1010Y3175D01*
X1008Y3175D01*
X1008Y3179D01*
X1006Y3179D01*
X1006Y3183D01*
X1004Y3183D01*
X1004Y3187D01*
X1002Y3187D01*
X1002Y3193D01*
X1000Y3193D01*
X1000Y3215D01*
X1002Y3215D01*
X1002Y3221D01*
X1004Y3221D01*
X1004Y3227D01*
X1006Y3227D01*
X1006Y3229D01*
X1008Y3229D01*
X1008Y3233D01*
X1010Y3233D01*
X1010Y3235D01*
X1012Y3235D01*
X1012Y3239D01*
X1014Y3239D01*
X1014Y3241D01*
X1016Y3241D01*
X1016Y3243D01*
X1020Y3243D01*
X1020Y3245D01*
X1022Y3245D01*
X1022Y3247D01*
X1026Y3247D01*
X1026Y3249D01*
X1028Y3249D01*
X1028Y3251D01*
X1032Y3251D01*
X1032Y3253D01*
X1040Y3253D01*
X1040Y3255D01*
X886Y3255D01*
G37*
D02*
G36*
X514Y3191D02*
X514Y3131D01*
X648Y3131D01*
X648Y3133D01*
X638Y3133D01*
X638Y3135D01*
X634Y3135D01*
X634Y3137D01*
X632Y3137D01*
X632Y3139D01*
X628Y3139D01*
X628Y3143D01*
X626Y3143D01*
X626Y3145D01*
X624Y3145D01*
X624Y3147D01*
X622Y3147D01*
X622Y3153D01*
X620Y3153D01*
X620Y3171D01*
X622Y3171D01*
X622Y3175D01*
X624Y3175D01*
X624Y3179D01*
X626Y3179D01*
X626Y3181D01*
X628Y3181D01*
X628Y3183D01*
X630Y3183D01*
X630Y3185D01*
X632Y3185D01*
X632Y3187D01*
X636Y3187D01*
X636Y3189D01*
X642Y3189D01*
X642Y3191D01*
X514Y3191D01*
G37*
D02*
G36*
X40Y3133D02*
X40Y3033D01*
X392Y3033D01*
X392Y3035D01*
X384Y3035D01*
X384Y3037D01*
X378Y3037D01*
X378Y3039D01*
X374Y3039D01*
X374Y3041D01*
X372Y3041D01*
X372Y3043D01*
X368Y3043D01*
X368Y3045D01*
X366Y3045D01*
X366Y3047D01*
X364Y3047D01*
X364Y3049D01*
X362Y3049D01*
X362Y3051D01*
X360Y3051D01*
X360Y3053D01*
X358Y3053D01*
X358Y3057D01*
X356Y3057D01*
X356Y3061D01*
X354Y3061D01*
X354Y3065D01*
X352Y3065D01*
X352Y3071D01*
X350Y3071D01*
X350Y3097D01*
X352Y3097D01*
X352Y3103D01*
X354Y3103D01*
X354Y3107D01*
X356Y3107D01*
X356Y3111D01*
X358Y3111D01*
X358Y3113D01*
X360Y3113D01*
X360Y3115D01*
X362Y3115D01*
X362Y3117D01*
X364Y3117D01*
X364Y3119D01*
X366Y3119D01*
X366Y3121D01*
X368Y3121D01*
X368Y3123D01*
X370Y3123D01*
X370Y3125D01*
X374Y3125D01*
X374Y3127D01*
X376Y3127D01*
X376Y3129D01*
X380Y3129D01*
X380Y3131D01*
X388Y3131D01*
X388Y3133D01*
X40Y3133D01*
G37*
D02*
G36*
X514Y3131D02*
X514Y3129D01*
X848Y3129D01*
X848Y3131D01*
X514Y3131D01*
G37*
D02*
G36*
X514Y3131D02*
X514Y3129D01*
X848Y3129D01*
X848Y3131D01*
X514Y3131D01*
G37*
D02*
G36*
X514Y3129D02*
X514Y3079D01*
X512Y3079D01*
X512Y3071D01*
X510Y3071D01*
X510Y3067D01*
X508Y3067D01*
X508Y3063D01*
X506Y3063D01*
X506Y3061D01*
X504Y3061D01*
X504Y3059D01*
X502Y3059D01*
X502Y3057D01*
X500Y3057D01*
X500Y3055D01*
X498Y3055D01*
X498Y3053D01*
X494Y3053D01*
X494Y3051D01*
X492Y3051D01*
X492Y3049D01*
X486Y3049D01*
X486Y3047D01*
X478Y3047D01*
X478Y3045D01*
X430Y3045D01*
X430Y3043D01*
X426Y3043D01*
X426Y3041D01*
X424Y3041D01*
X424Y3039D01*
X420Y3039D01*
X420Y3037D01*
X414Y3037D01*
X414Y3035D01*
X406Y3035D01*
X406Y3033D01*
X728Y3033D01*
X728Y3071D01*
X730Y3071D01*
X730Y3073D01*
X732Y3073D01*
X732Y3077D01*
X734Y3077D01*
X734Y3079D01*
X736Y3079D01*
X736Y3081D01*
X738Y3081D01*
X738Y3083D01*
X740Y3083D01*
X740Y3085D01*
X742Y3085D01*
X742Y3087D01*
X744Y3087D01*
X744Y3089D01*
X746Y3089D01*
X746Y3091D01*
X748Y3091D01*
X748Y3093D01*
X750Y3093D01*
X750Y3095D01*
X752Y3095D01*
X752Y3097D01*
X754Y3097D01*
X754Y3099D01*
X756Y3099D01*
X756Y3101D01*
X758Y3101D01*
X758Y3103D01*
X760Y3103D01*
X760Y3105D01*
X762Y3105D01*
X762Y3107D01*
X766Y3107D01*
X766Y3109D01*
X828Y3109D01*
X828Y3111D01*
X830Y3111D01*
X830Y3113D01*
X832Y3113D01*
X832Y3117D01*
X834Y3117D01*
X834Y3119D01*
X836Y3119D01*
X836Y3121D01*
X838Y3121D01*
X838Y3123D01*
X840Y3123D01*
X840Y3125D01*
X842Y3125D01*
X842Y3127D01*
X844Y3127D01*
X844Y3129D01*
X514Y3129D01*
G37*
D02*
G36*
X40Y3033D02*
X40Y3031D01*
X728Y3031D01*
X728Y3033D01*
X40Y3033D01*
G37*
D02*
G36*
X40Y3033D02*
X40Y3031D01*
X728Y3031D01*
X728Y3033D01*
X40Y3033D01*
G37*
D02*
G36*
X40Y3031D02*
X40Y3009D01*
X658Y3009D01*
X658Y3007D01*
X666Y3007D01*
X666Y3005D01*
X670Y3005D01*
X670Y3003D01*
X674Y3003D01*
X674Y3001D01*
X676Y3001D01*
X676Y2999D01*
X680Y2999D01*
X680Y2997D01*
X682Y2997D01*
X682Y2995D01*
X684Y2995D01*
X684Y2993D01*
X686Y2993D01*
X686Y2989D01*
X688Y2989D01*
X688Y2987D01*
X690Y2987D01*
X690Y2983D01*
X692Y2983D01*
X692Y2979D01*
X694Y2979D01*
X694Y2973D01*
X696Y2973D01*
X696Y2951D01*
X694Y2951D01*
X694Y2943D01*
X692Y2943D01*
X692Y2939D01*
X690Y2939D01*
X690Y2937D01*
X688Y2937D01*
X688Y2933D01*
X686Y2933D01*
X686Y2931D01*
X684Y2931D01*
X684Y2929D01*
X682Y2929D01*
X682Y2927D01*
X680Y2927D01*
X680Y2925D01*
X678Y2925D01*
X678Y2923D01*
X676Y2923D01*
X676Y2921D01*
X672Y2921D01*
X672Y2919D01*
X668Y2919D01*
X668Y2917D01*
X662Y2917D01*
X662Y2915D01*
X728Y2915D01*
X728Y3031D01*
X40Y3031D01*
G37*
D02*
G36*
X40Y3009D02*
X40Y2985D01*
X86Y2985D01*
X86Y2983D01*
X608Y2983D01*
X608Y2987D01*
X610Y2987D01*
X610Y2989D01*
X612Y2989D01*
X612Y2993D01*
X614Y2993D01*
X614Y2995D01*
X616Y2995D01*
X616Y2997D01*
X620Y2997D01*
X620Y2999D01*
X622Y2999D01*
X622Y3001D01*
X624Y3001D01*
X624Y3003D01*
X628Y3003D01*
X628Y3005D01*
X632Y3005D01*
X632Y3007D01*
X640Y3007D01*
X640Y3009D01*
X40Y3009D01*
G37*
D02*
G36*
X40Y2985D02*
X40Y2979D01*
X62Y2979D01*
X62Y2981D01*
X64Y2981D01*
X64Y2983D01*
X74Y2983D01*
X74Y2985D01*
X40Y2985D01*
G37*
D02*
G36*
X82Y2939D02*
X82Y2937D01*
X80Y2937D01*
X80Y2935D01*
X78Y2935D01*
X78Y2933D01*
X76Y2933D01*
X76Y2931D01*
X74Y2931D01*
X74Y2929D01*
X72Y2929D01*
X72Y2837D01*
X350Y2837D01*
X350Y2939D01*
X82Y2939D01*
G37*
D02*
G36*
X450Y2939D02*
X450Y2915D01*
X636Y2915D01*
X636Y2917D01*
X630Y2917D01*
X630Y2919D01*
X626Y2919D01*
X626Y2921D01*
X624Y2921D01*
X624Y2923D01*
X620Y2923D01*
X620Y2925D01*
X618Y2925D01*
X618Y2927D01*
X616Y2927D01*
X616Y2929D01*
X614Y2929D01*
X614Y2931D01*
X612Y2931D01*
X612Y2933D01*
X610Y2933D01*
X610Y2937D01*
X608Y2937D01*
X608Y2939D01*
X450Y2939D01*
G37*
D02*
G36*
X450Y2915D02*
X450Y2913D01*
X728Y2913D01*
X728Y2915D01*
X450Y2915D01*
G37*
D02*
G36*
X450Y2915D02*
X450Y2913D01*
X728Y2913D01*
X728Y2915D01*
X450Y2915D01*
G37*
D02*
G36*
X450Y2913D02*
X450Y2867D01*
X652Y2867D01*
X652Y2865D01*
X660Y2865D01*
X660Y2863D01*
X664Y2863D01*
X664Y2861D01*
X668Y2861D01*
X668Y2859D01*
X670Y2859D01*
X670Y2857D01*
X672Y2857D01*
X672Y2855D01*
X674Y2855D01*
X674Y2851D01*
X676Y2851D01*
X676Y2847D01*
X678Y2847D01*
X678Y2827D01*
X676Y2827D01*
X676Y2823D01*
X674Y2823D01*
X674Y2819D01*
X672Y2819D01*
X672Y2817D01*
X670Y2817D01*
X670Y2815D01*
X668Y2815D01*
X668Y2813D01*
X666Y2813D01*
X666Y2811D01*
X662Y2811D01*
X662Y2809D01*
X656Y2809D01*
X656Y2807D01*
X728Y2807D01*
X728Y2913D01*
X450Y2913D01*
G37*
D02*
G36*
X450Y2867D02*
X450Y2837D01*
X620Y2837D01*
X620Y2845D01*
X622Y2845D01*
X622Y2851D01*
X624Y2851D01*
X624Y2853D01*
X626Y2853D01*
X626Y2857D01*
X628Y2857D01*
X628Y2859D01*
X632Y2859D01*
X632Y2861D01*
X634Y2861D01*
X634Y2863D01*
X638Y2863D01*
X638Y2865D01*
X646Y2865D01*
X646Y2867D01*
X450Y2867D01*
G37*
D02*
G36*
X72Y2837D02*
X72Y2835D01*
X620Y2835D01*
X620Y2837D01*
X72Y2837D01*
G37*
D02*
G36*
X72Y2837D02*
X72Y2835D01*
X620Y2835D01*
X620Y2837D01*
X72Y2837D01*
G37*
D02*
G36*
X72Y2835D02*
X72Y2807D01*
X642Y2807D01*
X642Y2809D01*
X636Y2809D01*
X636Y2811D01*
X632Y2811D01*
X632Y2813D01*
X630Y2813D01*
X630Y2815D01*
X628Y2815D01*
X628Y2817D01*
X626Y2817D01*
X626Y2819D01*
X624Y2819D01*
X624Y2823D01*
X622Y2823D01*
X622Y2827D01*
X620Y2827D01*
X620Y2835D01*
X72Y2835D01*
G37*
D02*
G36*
X72Y2807D02*
X72Y2805D01*
X728Y2805D01*
X728Y2807D01*
X72Y2807D01*
G37*
D02*
G36*
X72Y2807D02*
X72Y2805D01*
X728Y2805D01*
X728Y2807D01*
X72Y2807D01*
G37*
D02*
G36*
X72Y2805D02*
X72Y2735D01*
X92Y2735D01*
X92Y2737D01*
X94Y2737D01*
X94Y2739D01*
X96Y2739D01*
X96Y2741D01*
X98Y2741D01*
X98Y2743D01*
X100Y2743D01*
X100Y2745D01*
X102Y2745D01*
X102Y2747D01*
X104Y2747D01*
X104Y2749D01*
X106Y2749D01*
X106Y2751D01*
X108Y2751D01*
X108Y2753D01*
X110Y2753D01*
X110Y2755D01*
X114Y2755D01*
X114Y2757D01*
X120Y2757D01*
X120Y2759D01*
X718Y2759D01*
X718Y2761D01*
X720Y2761D01*
X720Y2763D01*
X722Y2763D01*
X722Y2765D01*
X724Y2765D01*
X724Y2767D01*
X726Y2767D01*
X726Y2769D01*
X728Y2769D01*
X728Y2805D01*
X72Y2805D01*
G37*
D02*
G36*
X814Y2347D02*
X814Y2327D01*
X860Y2327D01*
X860Y2329D01*
X854Y2329D01*
X854Y2331D01*
X850Y2331D01*
X850Y2333D01*
X848Y2333D01*
X848Y2335D01*
X844Y2335D01*
X844Y2337D01*
X842Y2337D01*
X842Y2339D01*
X840Y2339D01*
X840Y2341D01*
X838Y2341D01*
X838Y2343D01*
X836Y2343D01*
X836Y2345D01*
X834Y2345D01*
X834Y2347D01*
X814Y2347D01*
G37*
D02*
G36*
X910Y2341D02*
X910Y2339D01*
X906Y2339D01*
X906Y2337D01*
X904Y2337D01*
X904Y2335D01*
X902Y2335D01*
X902Y2333D01*
X898Y2333D01*
X898Y2331D01*
X894Y2331D01*
X894Y2329D01*
X888Y2329D01*
X888Y2327D01*
X924Y2327D01*
X924Y2329D01*
X926Y2329D01*
X926Y2331D01*
X928Y2331D01*
X928Y2333D01*
X930Y2333D01*
X930Y2335D01*
X932Y2335D01*
X932Y2337D01*
X936Y2337D01*
X936Y2339D01*
X942Y2339D01*
X942Y2341D01*
X910Y2341D01*
G37*
D02*
G36*
X1082Y2337D02*
X1082Y2335D01*
X1078Y2335D01*
X1078Y2333D01*
X1074Y2333D01*
X1074Y2331D01*
X1070Y2331D01*
X1070Y2329D01*
X1064Y2329D01*
X1064Y2327D01*
X1102Y2327D01*
X1102Y2337D01*
X1082Y2337D01*
G37*
D02*
G36*
X814Y2327D02*
X814Y2325D01*
X924Y2325D01*
X924Y2327D01*
X814Y2327D01*
G37*
D02*
G36*
X814Y2327D02*
X814Y2325D01*
X924Y2325D01*
X924Y2327D01*
X814Y2327D01*
G37*
D02*
G36*
X974Y2327D02*
X974Y2325D01*
X1102Y2325D01*
X1102Y2327D01*
X974Y2327D01*
G37*
D02*
G36*
X974Y2327D02*
X974Y2325D01*
X1102Y2325D01*
X1102Y2327D01*
X974Y2327D01*
G37*
D02*
G36*
X814Y2325D02*
X814Y2311D01*
X816Y2311D01*
X816Y2307D01*
X884Y2307D01*
X884Y2305D01*
X892Y2305D01*
X892Y2303D01*
X896Y2303D01*
X896Y2301D01*
X900Y2301D01*
X900Y2299D01*
X922Y2299D01*
X922Y2303D01*
X920Y2303D01*
X920Y2321D01*
X922Y2321D01*
X922Y2325D01*
X814Y2325D01*
G37*
D02*
G36*
X976Y2325D02*
X976Y2321D01*
X978Y2321D01*
X978Y2307D01*
X1062Y2307D01*
X1062Y2305D01*
X1068Y2305D01*
X1068Y2303D01*
X1074Y2303D01*
X1074Y2301D01*
X1076Y2301D01*
X1076Y2299D01*
X1080Y2299D01*
X1080Y2297D01*
X1082Y2297D01*
X1082Y2295D01*
X1102Y2295D01*
X1102Y2325D01*
X976Y2325D01*
G37*
D02*
G36*
X818Y2307D02*
X818Y2303D01*
X820Y2303D01*
X820Y2295D01*
X842Y2295D01*
X842Y2297D01*
X846Y2297D01*
X846Y2299D01*
X848Y2299D01*
X848Y2301D01*
X852Y2301D01*
X852Y2303D01*
X856Y2303D01*
X856Y2305D01*
X864Y2305D01*
X864Y2307D01*
X818Y2307D01*
G37*
D02*
G36*
X978Y2307D02*
X978Y2301D01*
X976Y2301D01*
X976Y2297D01*
X974Y2297D01*
X974Y2295D01*
X972Y2295D01*
X972Y2291D01*
X970Y2291D01*
X970Y2289D01*
X966Y2289D01*
X966Y2287D01*
X964Y2287D01*
X964Y2285D01*
X960Y2285D01*
X960Y2283D01*
X950Y2283D01*
X950Y2281D01*
X1008Y2281D01*
X1008Y2285D01*
X1010Y2285D01*
X1010Y2287D01*
X1012Y2287D01*
X1012Y2289D01*
X1014Y2289D01*
X1014Y2293D01*
X1018Y2293D01*
X1018Y2295D01*
X1020Y2295D01*
X1020Y2297D01*
X1022Y2297D01*
X1022Y2299D01*
X1026Y2299D01*
X1026Y2301D01*
X1030Y2301D01*
X1030Y2303D01*
X1034Y2303D01*
X1034Y2305D01*
X1042Y2305D01*
X1042Y2307D01*
X978Y2307D01*
G37*
D02*
G36*
X916Y2285D02*
X916Y2283D01*
X918Y2283D01*
X918Y2281D01*
X948Y2281D01*
X948Y2283D01*
X938Y2283D01*
X938Y2285D01*
X916Y2285D01*
G37*
D02*
G36*
X920Y2281D02*
X920Y2279D01*
X1006Y2279D01*
X1006Y2281D01*
X920Y2281D01*
G37*
D02*
G36*
X920Y2281D02*
X920Y2279D01*
X1006Y2279D01*
X1006Y2281D01*
X920Y2281D01*
G37*
D02*
G36*
X920Y2279D02*
X920Y2277D01*
X922Y2277D01*
X922Y2271D01*
X924Y2271D01*
X924Y2261D01*
X926Y2261D01*
X926Y2249D01*
X924Y2249D01*
X924Y2241D01*
X922Y2241D01*
X922Y2235D01*
X920Y2235D01*
X920Y2231D01*
X918Y2231D01*
X918Y2227D01*
X916Y2227D01*
X916Y2225D01*
X914Y2225D01*
X914Y2223D01*
X912Y2223D01*
X912Y2221D01*
X910Y2221D01*
X910Y2219D01*
X908Y2219D01*
X908Y2217D01*
X906Y2217D01*
X906Y2215D01*
X904Y2215D01*
X904Y2213D01*
X900Y2213D01*
X900Y2211D01*
X896Y2211D01*
X896Y2209D01*
X892Y2209D01*
X892Y2207D01*
X886Y2207D01*
X886Y2205D01*
X1040Y2205D01*
X1040Y2207D01*
X1032Y2207D01*
X1032Y2209D01*
X1028Y2209D01*
X1028Y2211D01*
X1024Y2211D01*
X1024Y2213D01*
X1022Y2213D01*
X1022Y2215D01*
X1020Y2215D01*
X1020Y2217D01*
X1016Y2217D01*
X1016Y2219D01*
X1014Y2219D01*
X1014Y2221D01*
X1012Y2221D01*
X1012Y2225D01*
X1010Y2225D01*
X1010Y2227D01*
X1008Y2227D01*
X1008Y2231D01*
X1006Y2231D01*
X1006Y2233D01*
X1004Y2233D01*
X1004Y2239D01*
X1002Y2239D01*
X1002Y2245D01*
X1000Y2245D01*
X1000Y2267D01*
X1002Y2267D01*
X1002Y2273D01*
X1004Y2273D01*
X1004Y2277D01*
X1006Y2277D01*
X1006Y2279D01*
X920Y2279D01*
G37*
D02*
G36*
X720Y2253D02*
X720Y2251D01*
X716Y2251D01*
X716Y2249D01*
X714Y2249D01*
X714Y2247D01*
X712Y2247D01*
X712Y2245D01*
X708Y2245D01*
X708Y2243D01*
X704Y2243D01*
X704Y2241D01*
X696Y2241D01*
X696Y2239D01*
X764Y2239D01*
X764Y2241D01*
X758Y2241D01*
X758Y2243D01*
X754Y2243D01*
X754Y2245D01*
X750Y2245D01*
X750Y2247D01*
X746Y2247D01*
X746Y2249D01*
X744Y2249D01*
X744Y2251D01*
X742Y2251D01*
X742Y2253D01*
X720Y2253D01*
G37*
D02*
G36*
X804Y2251D02*
X804Y2249D01*
X802Y2249D01*
X802Y2247D01*
X798Y2247D01*
X798Y2245D01*
X796Y2245D01*
X796Y2243D01*
X790Y2243D01*
X790Y2241D01*
X784Y2241D01*
X784Y2239D01*
X826Y2239D01*
X826Y2241D01*
X824Y2241D01*
X824Y2251D01*
X804Y2251D01*
G37*
D02*
G36*
X490Y2247D02*
X490Y2245D01*
X488Y2245D01*
X488Y2243D01*
X486Y2243D01*
X486Y2241D01*
X484Y2241D01*
X484Y2239D01*
X678Y2239D01*
X678Y2241D01*
X670Y2241D01*
X670Y2243D01*
X666Y2243D01*
X666Y2245D01*
X662Y2245D01*
X662Y2247D01*
X490Y2247D01*
G37*
D02*
G36*
X482Y2239D02*
X482Y2237D01*
X826Y2237D01*
X826Y2239D01*
X482Y2239D01*
G37*
D02*
G36*
X482Y2239D02*
X482Y2237D01*
X826Y2237D01*
X826Y2239D01*
X482Y2239D01*
G37*
D02*
G36*
X482Y2239D02*
X482Y2237D01*
X826Y2237D01*
X826Y2239D01*
X482Y2239D01*
G37*
D02*
G36*
X480Y2237D02*
X480Y2235D01*
X478Y2235D01*
X478Y2233D01*
X476Y2233D01*
X476Y2231D01*
X474Y2231D01*
X474Y2229D01*
X472Y2229D01*
X472Y2227D01*
X470Y2227D01*
X470Y2225D01*
X468Y2225D01*
X468Y2223D01*
X466Y2223D01*
X466Y2221D01*
X464Y2221D01*
X464Y2219D01*
X462Y2219D01*
X462Y2217D01*
X460Y2217D01*
X460Y2215D01*
X458Y2215D01*
X458Y2213D01*
X456Y2213D01*
X456Y2211D01*
X454Y2211D01*
X454Y2209D01*
X452Y2209D01*
X452Y2207D01*
X450Y2207D01*
X450Y2205D01*
X862Y2205D01*
X862Y2207D01*
X856Y2207D01*
X856Y2209D01*
X852Y2209D01*
X852Y2211D01*
X848Y2211D01*
X848Y2213D01*
X844Y2213D01*
X844Y2215D01*
X842Y2215D01*
X842Y2217D01*
X840Y2217D01*
X840Y2219D01*
X838Y2219D01*
X838Y2221D01*
X836Y2221D01*
X836Y2223D01*
X834Y2223D01*
X834Y2225D01*
X832Y2225D01*
X832Y2229D01*
X830Y2229D01*
X830Y2231D01*
X828Y2231D01*
X828Y2235D01*
X826Y2235D01*
X826Y2237D01*
X480Y2237D01*
G37*
D02*
G36*
X1080Y2215D02*
X1080Y2213D01*
X1078Y2213D01*
X1078Y2211D01*
X1074Y2211D01*
X1074Y2209D01*
X1070Y2209D01*
X1070Y2207D01*
X1064Y2207D01*
X1064Y2205D01*
X1102Y2205D01*
X1102Y2215D01*
X1080Y2215D01*
G37*
D02*
G36*
X448Y2205D02*
X448Y2203D01*
X1102Y2203D01*
X1102Y2205D01*
X448Y2205D01*
G37*
D02*
G36*
X448Y2205D02*
X448Y2203D01*
X1102Y2203D01*
X1102Y2205D01*
X448Y2205D01*
G37*
D02*
G36*
X448Y2205D02*
X448Y2203D01*
X1102Y2203D01*
X1102Y2205D01*
X448Y2205D01*
G37*
D02*
G36*
X446Y2203D02*
X446Y2201D01*
X444Y2201D01*
X444Y2199D01*
X442Y2199D01*
X442Y2197D01*
X440Y2197D01*
X440Y2195D01*
X438Y2195D01*
X438Y2193D01*
X436Y2193D01*
X436Y2191D01*
X434Y2191D01*
X434Y2189D01*
X432Y2189D01*
X432Y2187D01*
X430Y2187D01*
X430Y2185D01*
X428Y2185D01*
X428Y2183D01*
X426Y2183D01*
X426Y2181D01*
X424Y2181D01*
X424Y2179D01*
X420Y2179D01*
X420Y2177D01*
X418Y2177D01*
X418Y2175D01*
X412Y2175D01*
X412Y2173D01*
X404Y2173D01*
X404Y2171D01*
X454Y2171D01*
X454Y2173D01*
X456Y2173D01*
X456Y2175D01*
X458Y2175D01*
X458Y2177D01*
X460Y2177D01*
X460Y2179D01*
X462Y2179D01*
X462Y2181D01*
X466Y2181D01*
X466Y2183D01*
X1090Y2183D01*
X1090Y2185D01*
X1092Y2185D01*
X1092Y2187D01*
X1094Y2187D01*
X1094Y2189D01*
X1096Y2189D01*
X1096Y2191D01*
X1098Y2191D01*
X1098Y2193D01*
X1100Y2193D01*
X1100Y2195D01*
X1102Y2195D01*
X1102Y2203D01*
X446Y2203D01*
G37*
D02*
G36*
X374Y2173D02*
X374Y2171D01*
X394Y2171D01*
X394Y2173D01*
X374Y2173D01*
G37*
D02*
G36*
X372Y2171D02*
X372Y2169D01*
X452Y2169D01*
X452Y2171D01*
X372Y2171D01*
G37*
D02*
G36*
X372Y2171D02*
X372Y2169D01*
X452Y2169D01*
X452Y2171D01*
X372Y2171D01*
G37*
D02*
G36*
X372Y2169D02*
X372Y2151D01*
X376Y2151D01*
X376Y2149D01*
X378Y2149D01*
X378Y2147D01*
X380Y2147D01*
X380Y2145D01*
X384Y2145D01*
X384Y2141D01*
X386Y2141D01*
X386Y2139D01*
X388Y2139D01*
X388Y2137D01*
X390Y2137D01*
X390Y2133D01*
X392Y2133D01*
X392Y2129D01*
X394Y2129D01*
X394Y2121D01*
X396Y2121D01*
X396Y2101D01*
X394Y2101D01*
X394Y2095D01*
X392Y2095D01*
X392Y2091D01*
X390Y2091D01*
X390Y2087D01*
X388Y2087D01*
X388Y2085D01*
X386Y2085D01*
X386Y2081D01*
X384Y2081D01*
X384Y2079D01*
X382Y2079D01*
X382Y2077D01*
X380Y2077D01*
X380Y2075D01*
X376Y2075D01*
X376Y2073D01*
X374Y2073D01*
X374Y2071D01*
X372Y2071D01*
X372Y2051D01*
X376Y2051D01*
X376Y2049D01*
X378Y2049D01*
X378Y2047D01*
X380Y2047D01*
X380Y2045D01*
X384Y2045D01*
X384Y2041D01*
X386Y2041D01*
X386Y2039D01*
X388Y2039D01*
X388Y2037D01*
X390Y2037D01*
X390Y2033D01*
X392Y2033D01*
X392Y2029D01*
X394Y2029D01*
X394Y2021D01*
X396Y2021D01*
X396Y2001D01*
X394Y2001D01*
X394Y1995D01*
X392Y1995D01*
X392Y1991D01*
X390Y1991D01*
X390Y1987D01*
X388Y1987D01*
X388Y1985D01*
X386Y1985D01*
X386Y1981D01*
X384Y1981D01*
X384Y1979D01*
X382Y1979D01*
X382Y1977D01*
X380Y1977D01*
X380Y1975D01*
X376Y1975D01*
X376Y1973D01*
X374Y1973D01*
X374Y1971D01*
X372Y1971D01*
X372Y1951D01*
X376Y1951D01*
X376Y1949D01*
X378Y1949D01*
X378Y1947D01*
X380Y1947D01*
X380Y1945D01*
X384Y1945D01*
X384Y1941D01*
X386Y1941D01*
X386Y1939D01*
X388Y1939D01*
X388Y1937D01*
X390Y1937D01*
X390Y1933D01*
X416Y1933D01*
X416Y1935D01*
X418Y1935D01*
X418Y1937D01*
X420Y1937D01*
X420Y1939D01*
X422Y1939D01*
X422Y1941D01*
X424Y1941D01*
X424Y1943D01*
X426Y1943D01*
X426Y1945D01*
X428Y1945D01*
X428Y2145D01*
X430Y2145D01*
X430Y2149D01*
X432Y2149D01*
X432Y2151D01*
X434Y2151D01*
X434Y2153D01*
X436Y2153D01*
X436Y2155D01*
X438Y2155D01*
X438Y2157D01*
X440Y2157D01*
X440Y2159D01*
X442Y2159D01*
X442Y2161D01*
X444Y2161D01*
X444Y2163D01*
X446Y2163D01*
X446Y2165D01*
X448Y2165D01*
X448Y2167D01*
X450Y2167D01*
X450Y2169D01*
X372Y2169D01*
G37*
D02*
G36*
X920Y1085D02*
X920Y1063D01*
X922Y1063D01*
X922Y1057D01*
X924Y1057D01*
X924Y1049D01*
X926Y1049D01*
X926Y1037D01*
X924Y1037D01*
X924Y1027D01*
X922Y1027D01*
X922Y1021D01*
X920Y1021D01*
X920Y1019D01*
X918Y1019D01*
X918Y1015D01*
X916Y1015D01*
X916Y1011D01*
X914Y1011D01*
X914Y1009D01*
X912Y1009D01*
X912Y1007D01*
X910Y1007D01*
X910Y1005D01*
X908Y1005D01*
X908Y1003D01*
X906Y1003D01*
X906Y1001D01*
X902Y1001D01*
X902Y999D01*
X900Y999D01*
X900Y997D01*
X896Y997D01*
X896Y995D01*
X890Y995D01*
X890Y993D01*
X888Y993D01*
X888Y973D01*
X894Y973D01*
X894Y971D01*
X898Y971D01*
X898Y969D01*
X902Y969D01*
X902Y967D01*
X904Y967D01*
X904Y965D01*
X906Y965D01*
X906Y963D01*
X910Y963D01*
X910Y961D01*
X912Y961D01*
X912Y957D01*
X914Y957D01*
X914Y955D01*
X916Y955D01*
X916Y953D01*
X918Y953D01*
X918Y949D01*
X920Y949D01*
X920Y945D01*
X922Y945D01*
X922Y941D01*
X924Y941D01*
X924Y931D01*
X926Y931D01*
X926Y919D01*
X924Y919D01*
X924Y909D01*
X922Y909D01*
X922Y903D01*
X920Y903D01*
X920Y901D01*
X918Y901D01*
X918Y897D01*
X916Y897D01*
X916Y893D01*
X914Y893D01*
X914Y891D01*
X912Y891D01*
X912Y889D01*
X910Y889D01*
X910Y887D01*
X908Y887D01*
X908Y885D01*
X906Y885D01*
X906Y883D01*
X902Y883D01*
X902Y881D01*
X900Y881D01*
X900Y879D01*
X896Y879D01*
X896Y877D01*
X890Y877D01*
X890Y875D01*
X882Y875D01*
X882Y873D01*
X1044Y873D01*
X1044Y875D01*
X1034Y875D01*
X1034Y877D01*
X1030Y877D01*
X1030Y879D01*
X1026Y879D01*
X1026Y881D01*
X1022Y881D01*
X1022Y883D01*
X1020Y883D01*
X1020Y885D01*
X1018Y885D01*
X1018Y887D01*
X1016Y887D01*
X1016Y889D01*
X1014Y889D01*
X1014Y891D01*
X1012Y891D01*
X1012Y893D01*
X1010Y893D01*
X1010Y895D01*
X1008Y895D01*
X1008Y899D01*
X1006Y899D01*
X1006Y903D01*
X1004Y903D01*
X1004Y907D01*
X1002Y907D01*
X1002Y915D01*
X1000Y915D01*
X1000Y935D01*
X1002Y935D01*
X1002Y943D01*
X1004Y943D01*
X1004Y947D01*
X1006Y947D01*
X1006Y951D01*
X1008Y951D01*
X1008Y953D01*
X1010Y953D01*
X1010Y957D01*
X1012Y957D01*
X1012Y959D01*
X1014Y959D01*
X1014Y961D01*
X1016Y961D01*
X1016Y963D01*
X1018Y963D01*
X1018Y965D01*
X1022Y965D01*
X1022Y967D01*
X1024Y967D01*
X1024Y969D01*
X1028Y969D01*
X1028Y971D01*
X1032Y971D01*
X1032Y973D01*
X1038Y973D01*
X1038Y993D01*
X1034Y993D01*
X1034Y995D01*
X1030Y995D01*
X1030Y997D01*
X1026Y997D01*
X1026Y999D01*
X1022Y999D01*
X1022Y1001D01*
X1020Y1001D01*
X1020Y1003D01*
X1018Y1003D01*
X1018Y1005D01*
X1016Y1005D01*
X1016Y1007D01*
X1014Y1007D01*
X1014Y1009D01*
X1012Y1009D01*
X1012Y1011D01*
X1010Y1011D01*
X1010Y1013D01*
X1008Y1013D01*
X1008Y1017D01*
X1006Y1017D01*
X1006Y1021D01*
X1004Y1021D01*
X1004Y1025D01*
X1002Y1025D01*
X1002Y1033D01*
X1000Y1033D01*
X1000Y1053D01*
X1002Y1053D01*
X1002Y1059D01*
X1004Y1059D01*
X1004Y1065D01*
X1006Y1065D01*
X1006Y1069D01*
X1008Y1069D01*
X1008Y1085D01*
X920Y1085D01*
G37*
D02*
G36*
X792Y1023D02*
X792Y1021D01*
X790Y1021D01*
X790Y1019D01*
X788Y1019D01*
X788Y873D01*
X866Y873D01*
X866Y875D01*
X858Y875D01*
X858Y877D01*
X852Y877D01*
X852Y879D01*
X850Y879D01*
X850Y881D01*
X846Y881D01*
X846Y883D01*
X844Y883D01*
X844Y885D01*
X840Y885D01*
X840Y887D01*
X838Y887D01*
X838Y889D01*
X836Y889D01*
X836Y891D01*
X834Y891D01*
X834Y895D01*
X832Y895D01*
X832Y897D01*
X830Y897D01*
X830Y901D01*
X828Y901D01*
X828Y905D01*
X826Y905D01*
X826Y909D01*
X824Y909D01*
X824Y921D01*
X822Y921D01*
X822Y929D01*
X824Y929D01*
X824Y939D01*
X826Y939D01*
X826Y945D01*
X828Y945D01*
X828Y949D01*
X830Y949D01*
X830Y953D01*
X832Y953D01*
X832Y955D01*
X834Y955D01*
X834Y957D01*
X836Y957D01*
X836Y959D01*
X838Y959D01*
X838Y961D01*
X840Y961D01*
X840Y963D01*
X842Y963D01*
X842Y965D01*
X844Y965D01*
X844Y967D01*
X848Y967D01*
X848Y969D01*
X850Y969D01*
X850Y971D01*
X854Y971D01*
X854Y973D01*
X860Y973D01*
X860Y993D01*
X858Y993D01*
X858Y995D01*
X852Y995D01*
X852Y997D01*
X850Y997D01*
X850Y999D01*
X846Y999D01*
X846Y1001D01*
X842Y1001D01*
X842Y1003D01*
X840Y1003D01*
X840Y1005D01*
X838Y1005D01*
X838Y1007D01*
X836Y1007D01*
X836Y1009D01*
X834Y1009D01*
X834Y1013D01*
X832Y1013D01*
X832Y1015D01*
X830Y1015D01*
X830Y1019D01*
X828Y1019D01*
X828Y1023D01*
X792Y1023D01*
G37*
D02*
G36*
X788Y873D02*
X788Y871D01*
X1534Y871D01*
X1534Y873D01*
X788Y873D01*
G37*
D02*
G36*
X788Y873D02*
X788Y871D01*
X1534Y871D01*
X1534Y873D01*
X788Y873D01*
G37*
D02*
G36*
X788Y873D02*
X788Y871D01*
X1534Y871D01*
X1534Y873D01*
X788Y873D01*
G37*
D02*
G36*
X788Y871D02*
X788Y853D01*
X1064Y853D01*
X1064Y851D01*
X1070Y851D01*
X1070Y849D01*
X1074Y849D01*
X1074Y847D01*
X1078Y847D01*
X1078Y845D01*
X1082Y845D01*
X1082Y843D01*
X1084Y843D01*
X1084Y841D01*
X1086Y841D01*
X1086Y839D01*
X1088Y839D01*
X1088Y837D01*
X1090Y837D01*
X1090Y835D01*
X1092Y835D01*
X1092Y833D01*
X1094Y833D01*
X1094Y829D01*
X1096Y829D01*
X1096Y827D01*
X1132Y827D01*
X1132Y825D01*
X1138Y825D01*
X1138Y823D01*
X1144Y823D01*
X1144Y821D01*
X1148Y821D01*
X1148Y819D01*
X1150Y819D01*
X1150Y817D01*
X1152Y817D01*
X1152Y815D01*
X1154Y815D01*
X1154Y813D01*
X1156Y813D01*
X1156Y811D01*
X1158Y811D01*
X1158Y809D01*
X1160Y809D01*
X1160Y807D01*
X1162Y807D01*
X1162Y805D01*
X1164Y805D01*
X1164Y803D01*
X1166Y803D01*
X1166Y801D01*
X1168Y801D01*
X1168Y799D01*
X1170Y799D01*
X1170Y795D01*
X1172Y795D01*
X1172Y793D01*
X1174Y793D01*
X1174Y791D01*
X1176Y791D01*
X1176Y789D01*
X1178Y789D01*
X1178Y787D01*
X1180Y787D01*
X1180Y785D01*
X1182Y785D01*
X1182Y781D01*
X1184Y781D01*
X1184Y779D01*
X1186Y779D01*
X1186Y773D01*
X1188Y773D01*
X1188Y761D01*
X1190Y761D01*
X1190Y421D01*
X1288Y421D01*
X1288Y419D01*
X1298Y419D01*
X1298Y417D01*
X1306Y417D01*
X1306Y415D01*
X1310Y415D01*
X1310Y413D01*
X1316Y413D01*
X1316Y411D01*
X1320Y411D01*
X1320Y409D01*
X1322Y409D01*
X1322Y407D01*
X1326Y407D01*
X1326Y405D01*
X1330Y405D01*
X1330Y403D01*
X1332Y403D01*
X1332Y401D01*
X1334Y401D01*
X1334Y399D01*
X1336Y399D01*
X1336Y397D01*
X1338Y397D01*
X1338Y395D01*
X1342Y395D01*
X1342Y391D01*
X1344Y391D01*
X1344Y389D01*
X1346Y389D01*
X1346Y387D01*
X1348Y387D01*
X1348Y385D01*
X1350Y385D01*
X1350Y383D01*
X1352Y383D01*
X1352Y379D01*
X1354Y379D01*
X1354Y375D01*
X1356Y375D01*
X1356Y373D01*
X1358Y373D01*
X1358Y369D01*
X1360Y369D01*
X1360Y365D01*
X1362Y365D01*
X1362Y359D01*
X1364Y359D01*
X1364Y353D01*
X1366Y353D01*
X1366Y343D01*
X1368Y343D01*
X1368Y313D01*
X1366Y313D01*
X1366Y305D01*
X1364Y305D01*
X1364Y297D01*
X1362Y297D01*
X1362Y293D01*
X1360Y293D01*
X1360Y289D01*
X1358Y289D01*
X1358Y285D01*
X1356Y285D01*
X1356Y281D01*
X1354Y281D01*
X1354Y277D01*
X1352Y277D01*
X1352Y275D01*
X1350Y275D01*
X1350Y271D01*
X1348Y271D01*
X1348Y269D01*
X1346Y269D01*
X1346Y267D01*
X1344Y267D01*
X1344Y265D01*
X1342Y265D01*
X1342Y263D01*
X1340Y263D01*
X1340Y261D01*
X1338Y261D01*
X1338Y259D01*
X1336Y259D01*
X1336Y257D01*
X1334Y257D01*
X1334Y255D01*
X1330Y255D01*
X1330Y253D01*
X1328Y253D01*
X1328Y251D01*
X1324Y251D01*
X1324Y249D01*
X1322Y249D01*
X1322Y247D01*
X1318Y247D01*
X1318Y245D01*
X1314Y245D01*
X1314Y243D01*
X1308Y243D01*
X1308Y241D01*
X1304Y241D01*
X1304Y239D01*
X1296Y239D01*
X1296Y237D01*
X1282Y237D01*
X1282Y235D01*
X1534Y235D01*
X1534Y871D01*
X788Y871D01*
G37*
D02*
G36*
X788Y853D02*
X788Y751D01*
X866Y751D01*
X866Y753D01*
X858Y753D01*
X858Y755D01*
X852Y755D01*
X852Y757D01*
X850Y757D01*
X850Y759D01*
X846Y759D01*
X846Y761D01*
X842Y761D01*
X842Y763D01*
X840Y763D01*
X840Y765D01*
X838Y765D01*
X838Y767D01*
X836Y767D01*
X836Y769D01*
X834Y769D01*
X834Y773D01*
X832Y773D01*
X832Y775D01*
X830Y775D01*
X830Y779D01*
X828Y779D01*
X828Y783D01*
X826Y783D01*
X826Y787D01*
X824Y787D01*
X824Y799D01*
X822Y799D01*
X822Y805D01*
X824Y805D01*
X824Y817D01*
X826Y817D01*
X826Y823D01*
X828Y823D01*
X828Y827D01*
X830Y827D01*
X830Y829D01*
X832Y829D01*
X832Y833D01*
X834Y833D01*
X834Y835D01*
X836Y835D01*
X836Y837D01*
X838Y837D01*
X838Y839D01*
X840Y839D01*
X840Y841D01*
X842Y841D01*
X842Y843D01*
X844Y843D01*
X844Y845D01*
X848Y845D01*
X848Y847D01*
X850Y847D01*
X850Y849D01*
X854Y849D01*
X854Y851D01*
X862Y851D01*
X862Y853D01*
X788Y853D01*
G37*
D02*
G36*
X888Y853D02*
X888Y851D01*
X894Y851D01*
X894Y849D01*
X898Y849D01*
X898Y847D01*
X900Y847D01*
X900Y845D01*
X904Y845D01*
X904Y843D01*
X906Y843D01*
X906Y841D01*
X908Y841D01*
X908Y839D01*
X912Y839D01*
X912Y835D01*
X914Y835D01*
X914Y833D01*
X916Y833D01*
X916Y831D01*
X918Y831D01*
X918Y827D01*
X920Y827D01*
X920Y823D01*
X922Y823D01*
X922Y817D01*
X924Y817D01*
X924Y809D01*
X926Y809D01*
X926Y797D01*
X924Y797D01*
X924Y787D01*
X922Y787D01*
X922Y781D01*
X920Y781D01*
X920Y779D01*
X918Y779D01*
X918Y775D01*
X916Y775D01*
X916Y771D01*
X914Y771D01*
X914Y769D01*
X912Y769D01*
X912Y767D01*
X910Y767D01*
X910Y765D01*
X908Y765D01*
X908Y763D01*
X906Y763D01*
X906Y761D01*
X902Y761D01*
X902Y759D01*
X900Y759D01*
X900Y757D01*
X896Y757D01*
X896Y755D01*
X890Y755D01*
X890Y753D01*
X882Y753D01*
X882Y751D01*
X1042Y751D01*
X1042Y753D01*
X1034Y753D01*
X1034Y755D01*
X1030Y755D01*
X1030Y757D01*
X1026Y757D01*
X1026Y759D01*
X1022Y759D01*
X1022Y761D01*
X1020Y761D01*
X1020Y763D01*
X1018Y763D01*
X1018Y765D01*
X1016Y765D01*
X1016Y767D01*
X1014Y767D01*
X1014Y769D01*
X1012Y769D01*
X1012Y771D01*
X1010Y771D01*
X1010Y773D01*
X1008Y773D01*
X1008Y777D01*
X1006Y777D01*
X1006Y781D01*
X1004Y781D01*
X1004Y785D01*
X1002Y785D01*
X1002Y793D01*
X1000Y793D01*
X1000Y813D01*
X1002Y813D01*
X1002Y819D01*
X1004Y819D01*
X1004Y825D01*
X1006Y825D01*
X1006Y829D01*
X1008Y829D01*
X1008Y831D01*
X1010Y831D01*
X1010Y833D01*
X1012Y833D01*
X1012Y837D01*
X1014Y837D01*
X1014Y839D01*
X1016Y839D01*
X1016Y841D01*
X1018Y841D01*
X1018Y843D01*
X1022Y843D01*
X1022Y845D01*
X1024Y845D01*
X1024Y847D01*
X1028Y847D01*
X1028Y849D01*
X1032Y849D01*
X1032Y851D01*
X1038Y851D01*
X1038Y853D01*
X888Y853D01*
G37*
D02*
G36*
X788Y751D02*
X788Y749D01*
X1056Y749D01*
X1056Y751D01*
X788Y751D01*
G37*
D02*
G36*
X788Y751D02*
X788Y749D01*
X1056Y749D01*
X1056Y751D01*
X788Y751D01*
G37*
D02*
G36*
X788Y749D02*
X788Y717D01*
X1056Y717D01*
X1056Y715D01*
X1066Y715D01*
X1066Y713D01*
X1072Y713D01*
X1072Y711D01*
X1076Y711D01*
X1076Y709D01*
X1078Y709D01*
X1078Y707D01*
X1082Y707D01*
X1082Y705D01*
X1084Y705D01*
X1084Y703D01*
X1086Y703D01*
X1086Y701D01*
X1088Y701D01*
X1088Y699D01*
X1090Y699D01*
X1090Y697D01*
X1110Y697D01*
X1110Y735D01*
X1082Y735D01*
X1082Y737D01*
X1076Y737D01*
X1076Y739D01*
X1072Y739D01*
X1072Y741D01*
X1068Y741D01*
X1068Y743D01*
X1066Y743D01*
X1066Y745D01*
X1062Y745D01*
X1062Y747D01*
X1060Y747D01*
X1060Y749D01*
X788Y749D01*
G37*
D02*
G36*
X788Y717D02*
X788Y681D01*
X786Y681D01*
X786Y677D01*
X784Y677D01*
X784Y675D01*
X782Y675D01*
X782Y673D01*
X780Y673D01*
X780Y671D01*
X778Y671D01*
X778Y669D01*
X776Y669D01*
X776Y667D01*
X774Y667D01*
X774Y665D01*
X772Y665D01*
X772Y663D01*
X770Y663D01*
X770Y661D01*
X768Y661D01*
X768Y659D01*
X766Y659D01*
X766Y657D01*
X764Y657D01*
X764Y655D01*
X762Y655D01*
X762Y653D01*
X760Y653D01*
X760Y651D01*
X756Y651D01*
X756Y649D01*
X752Y649D01*
X752Y647D01*
X478Y647D01*
X478Y645D01*
X476Y645D01*
X476Y643D01*
X474Y643D01*
X474Y641D01*
X472Y641D01*
X472Y639D01*
X470Y639D01*
X470Y637D01*
X468Y637D01*
X468Y635D01*
X466Y635D01*
X466Y633D01*
X464Y633D01*
X464Y613D01*
X868Y613D01*
X868Y615D01*
X858Y615D01*
X858Y617D01*
X854Y617D01*
X854Y619D01*
X850Y619D01*
X850Y621D01*
X846Y621D01*
X846Y623D01*
X844Y623D01*
X844Y625D01*
X842Y625D01*
X842Y627D01*
X838Y627D01*
X838Y629D01*
X836Y629D01*
X836Y633D01*
X834Y633D01*
X834Y635D01*
X832Y635D01*
X832Y637D01*
X830Y637D01*
X830Y641D01*
X828Y641D01*
X828Y645D01*
X826Y645D01*
X826Y651D01*
X824Y651D01*
X824Y661D01*
X822Y661D01*
X822Y669D01*
X824Y669D01*
X824Y679D01*
X826Y679D01*
X826Y685D01*
X828Y685D01*
X828Y689D01*
X830Y689D01*
X830Y693D01*
X832Y693D01*
X832Y695D01*
X834Y695D01*
X834Y697D01*
X836Y697D01*
X836Y701D01*
X838Y701D01*
X838Y703D01*
X842Y703D01*
X842Y705D01*
X844Y705D01*
X844Y707D01*
X846Y707D01*
X846Y709D01*
X850Y709D01*
X850Y711D01*
X854Y711D01*
X854Y713D01*
X860Y713D01*
X860Y715D01*
X870Y715D01*
X870Y717D01*
X788Y717D01*
G37*
D02*
G36*
X880Y717D02*
X880Y715D01*
X890Y715D01*
X890Y713D01*
X894Y713D01*
X894Y711D01*
X898Y711D01*
X898Y709D01*
X902Y709D01*
X902Y707D01*
X904Y707D01*
X904Y705D01*
X908Y705D01*
X908Y703D01*
X910Y703D01*
X910Y701D01*
X912Y701D01*
X912Y699D01*
X914Y699D01*
X914Y695D01*
X916Y695D01*
X916Y693D01*
X918Y693D01*
X918Y689D01*
X920Y689D01*
X920Y685D01*
X922Y685D01*
X922Y681D01*
X924Y681D01*
X924Y671D01*
X926Y671D01*
X926Y659D01*
X924Y659D01*
X924Y649D01*
X922Y649D01*
X922Y645D01*
X920Y645D01*
X920Y641D01*
X918Y641D01*
X918Y637D01*
X916Y637D01*
X916Y635D01*
X914Y635D01*
X914Y631D01*
X912Y631D01*
X912Y629D01*
X910Y629D01*
X910Y627D01*
X908Y627D01*
X908Y625D01*
X904Y625D01*
X904Y623D01*
X902Y623D01*
X902Y621D01*
X898Y621D01*
X898Y619D01*
X894Y619D01*
X894Y617D01*
X890Y617D01*
X890Y615D01*
X880Y615D01*
X880Y613D01*
X1046Y613D01*
X1046Y615D01*
X1036Y615D01*
X1036Y617D01*
X1030Y617D01*
X1030Y619D01*
X1028Y619D01*
X1028Y621D01*
X1024Y621D01*
X1024Y623D01*
X1020Y623D01*
X1020Y625D01*
X1018Y625D01*
X1018Y627D01*
X1016Y627D01*
X1016Y629D01*
X1014Y629D01*
X1014Y631D01*
X1012Y631D01*
X1012Y633D01*
X1010Y633D01*
X1010Y635D01*
X1008Y635D01*
X1008Y639D01*
X1006Y639D01*
X1006Y643D01*
X1004Y643D01*
X1004Y647D01*
X1002Y647D01*
X1002Y655D01*
X1000Y655D01*
X1000Y675D01*
X1002Y675D01*
X1002Y683D01*
X1004Y683D01*
X1004Y687D01*
X1006Y687D01*
X1006Y691D01*
X1008Y691D01*
X1008Y693D01*
X1010Y693D01*
X1010Y697D01*
X1012Y697D01*
X1012Y699D01*
X1014Y699D01*
X1014Y701D01*
X1016Y701D01*
X1016Y703D01*
X1018Y703D01*
X1018Y705D01*
X1020Y705D01*
X1020Y707D01*
X1024Y707D01*
X1024Y709D01*
X1028Y709D01*
X1028Y711D01*
X1030Y711D01*
X1030Y713D01*
X1036Y713D01*
X1036Y715D01*
X1046Y715D01*
X1046Y717D01*
X880Y717D01*
G37*
D02*
G36*
X1090Y633D02*
X1090Y631D01*
X1088Y631D01*
X1088Y629D01*
X1086Y629D01*
X1086Y627D01*
X1084Y627D01*
X1084Y625D01*
X1082Y625D01*
X1082Y623D01*
X1078Y623D01*
X1078Y621D01*
X1076Y621D01*
X1076Y619D01*
X1072Y619D01*
X1072Y617D01*
X1066Y617D01*
X1066Y615D01*
X1056Y615D01*
X1056Y613D01*
X1110Y613D01*
X1110Y633D01*
X1090Y633D01*
G37*
D02*
G36*
X464Y613D02*
X464Y611D01*
X1110Y611D01*
X1110Y613D01*
X464Y613D01*
G37*
D02*
G36*
X464Y613D02*
X464Y611D01*
X1110Y611D01*
X1110Y613D01*
X464Y613D01*
G37*
D02*
G36*
X464Y613D02*
X464Y611D01*
X1110Y611D01*
X1110Y613D01*
X464Y613D01*
G37*
D02*
G36*
X464Y611D02*
X464Y579D01*
X1056Y579D01*
X1056Y577D01*
X1066Y577D01*
X1066Y575D01*
X1072Y575D01*
X1072Y573D01*
X1076Y573D01*
X1076Y571D01*
X1080Y571D01*
X1080Y569D01*
X1082Y569D01*
X1082Y567D01*
X1084Y567D01*
X1084Y565D01*
X1086Y565D01*
X1086Y563D01*
X1088Y563D01*
X1088Y561D01*
X1090Y561D01*
X1090Y559D01*
X1110Y559D01*
X1110Y611D01*
X464Y611D01*
G37*
D02*
G36*
X464Y579D02*
X464Y571D01*
X680Y571D01*
X680Y569D01*
X688Y569D01*
X688Y567D01*
X690Y567D01*
X690Y565D01*
X694Y565D01*
X694Y563D01*
X696Y563D01*
X696Y561D01*
X698Y561D01*
X698Y559D01*
X700Y559D01*
X700Y557D01*
X702Y557D01*
X702Y555D01*
X704Y555D01*
X704Y553D01*
X706Y553D01*
X706Y551D01*
X708Y551D01*
X708Y549D01*
X710Y549D01*
X710Y547D01*
X712Y547D01*
X712Y545D01*
X714Y545D01*
X714Y543D01*
X716Y543D01*
X716Y541D01*
X718Y541D01*
X718Y539D01*
X720Y539D01*
X720Y537D01*
X722Y537D01*
X722Y535D01*
X724Y535D01*
X724Y533D01*
X726Y533D01*
X726Y531D01*
X728Y531D01*
X728Y529D01*
X730Y529D01*
X730Y527D01*
X732Y527D01*
X732Y525D01*
X734Y525D01*
X734Y523D01*
X736Y523D01*
X736Y521D01*
X738Y521D01*
X738Y519D01*
X740Y519D01*
X740Y517D01*
X742Y517D01*
X742Y515D01*
X744Y515D01*
X744Y513D01*
X746Y513D01*
X746Y511D01*
X748Y511D01*
X748Y509D01*
X750Y509D01*
X750Y507D01*
X752Y507D01*
X752Y505D01*
X754Y505D01*
X754Y503D01*
X756Y503D01*
X756Y501D01*
X758Y501D01*
X758Y499D01*
X760Y499D01*
X760Y497D01*
X762Y497D01*
X762Y495D01*
X764Y495D01*
X764Y493D01*
X766Y493D01*
X766Y491D01*
X768Y491D01*
X768Y489D01*
X770Y489D01*
X770Y487D01*
X772Y487D01*
X772Y485D01*
X774Y485D01*
X774Y483D01*
X776Y483D01*
X776Y481D01*
X778Y481D01*
X778Y479D01*
X780Y479D01*
X780Y477D01*
X782Y477D01*
X782Y475D01*
X784Y475D01*
X784Y473D01*
X786Y473D01*
X786Y471D01*
X838Y471D01*
X838Y491D01*
X836Y491D01*
X836Y495D01*
X834Y495D01*
X834Y497D01*
X832Y497D01*
X832Y499D01*
X830Y499D01*
X830Y503D01*
X828Y503D01*
X828Y507D01*
X826Y507D01*
X826Y513D01*
X824Y513D01*
X824Y523D01*
X822Y523D01*
X822Y531D01*
X824Y531D01*
X824Y541D01*
X826Y541D01*
X826Y547D01*
X828Y547D01*
X828Y551D01*
X830Y551D01*
X830Y555D01*
X832Y555D01*
X832Y557D01*
X834Y557D01*
X834Y559D01*
X836Y559D01*
X836Y563D01*
X838Y563D01*
X838Y565D01*
X842Y565D01*
X842Y567D01*
X844Y567D01*
X844Y569D01*
X846Y569D01*
X846Y571D01*
X850Y571D01*
X850Y573D01*
X854Y573D01*
X854Y575D01*
X858Y575D01*
X858Y577D01*
X868Y577D01*
X868Y579D01*
X464Y579D01*
G37*
D02*
G36*
X880Y579D02*
X880Y577D01*
X890Y577D01*
X890Y575D01*
X894Y575D01*
X894Y573D01*
X898Y573D01*
X898Y571D01*
X902Y571D01*
X902Y569D01*
X904Y569D01*
X904Y567D01*
X908Y567D01*
X908Y565D01*
X910Y565D01*
X910Y563D01*
X912Y563D01*
X912Y561D01*
X914Y561D01*
X914Y557D01*
X916Y557D01*
X916Y555D01*
X918Y555D01*
X918Y551D01*
X920Y551D01*
X920Y547D01*
X922Y547D01*
X922Y543D01*
X924Y543D01*
X924Y533D01*
X926Y533D01*
X926Y521D01*
X924Y521D01*
X924Y511D01*
X922Y511D01*
X922Y507D01*
X920Y507D01*
X920Y503D01*
X918Y503D01*
X918Y499D01*
X916Y499D01*
X916Y497D01*
X914Y497D01*
X914Y493D01*
X912Y493D01*
X912Y491D01*
X910Y491D01*
X910Y471D01*
X1000Y471D01*
X1000Y477D01*
X1002Y477D01*
X1002Y485D01*
X1004Y485D01*
X1004Y509D01*
X1002Y509D01*
X1002Y517D01*
X1000Y517D01*
X1000Y537D01*
X1002Y537D01*
X1002Y545D01*
X1004Y545D01*
X1004Y549D01*
X1006Y549D01*
X1006Y553D01*
X1008Y553D01*
X1008Y557D01*
X1010Y557D01*
X1010Y559D01*
X1012Y559D01*
X1012Y561D01*
X1014Y561D01*
X1014Y563D01*
X1016Y563D01*
X1016Y565D01*
X1018Y565D01*
X1018Y567D01*
X1020Y567D01*
X1020Y569D01*
X1024Y569D01*
X1024Y571D01*
X1026Y571D01*
X1026Y573D01*
X1030Y573D01*
X1030Y575D01*
X1036Y575D01*
X1036Y577D01*
X1046Y577D01*
X1046Y579D01*
X880Y579D01*
G37*
D02*
G36*
X464Y571D02*
X464Y531D01*
X486Y531D01*
X486Y533D01*
X494Y533D01*
X494Y535D01*
X500Y535D01*
X500Y537D01*
X502Y537D01*
X502Y539D01*
X504Y539D01*
X504Y541D01*
X506Y541D01*
X506Y543D01*
X508Y543D01*
X508Y545D01*
X510Y545D01*
X510Y547D01*
X512Y547D01*
X512Y549D01*
X514Y549D01*
X514Y551D01*
X516Y551D01*
X516Y553D01*
X518Y553D01*
X518Y555D01*
X520Y555D01*
X520Y557D01*
X522Y557D01*
X522Y559D01*
X524Y559D01*
X524Y561D01*
X526Y561D01*
X526Y563D01*
X530Y563D01*
X530Y565D01*
X532Y565D01*
X532Y567D01*
X536Y567D01*
X536Y569D01*
X542Y569D01*
X542Y571D01*
X464Y571D01*
G37*
D02*
G36*
X1190Y421D02*
X1190Y393D01*
X1210Y393D01*
X1210Y395D01*
X1212Y395D01*
X1212Y397D01*
X1214Y397D01*
X1214Y399D01*
X1218Y399D01*
X1218Y401D01*
X1220Y401D01*
X1220Y403D01*
X1222Y403D01*
X1222Y405D01*
X1226Y405D01*
X1226Y407D01*
X1228Y407D01*
X1228Y409D01*
X1232Y409D01*
X1232Y411D01*
X1236Y411D01*
X1236Y413D01*
X1240Y413D01*
X1240Y415D01*
X1246Y415D01*
X1246Y417D01*
X1254Y417D01*
X1254Y419D01*
X1264Y419D01*
X1264Y421D01*
X1190Y421D01*
G37*
D02*
G36*
X638Y371D02*
X638Y353D01*
X640Y353D01*
X640Y351D01*
X642Y351D01*
X642Y349D01*
X644Y349D01*
X644Y347D01*
X646Y347D01*
X646Y345D01*
X648Y345D01*
X648Y343D01*
X650Y343D01*
X650Y341D01*
X652Y341D01*
X652Y339D01*
X654Y339D01*
X654Y337D01*
X656Y337D01*
X656Y335D01*
X658Y335D01*
X658Y333D01*
X660Y333D01*
X660Y331D01*
X662Y331D01*
X662Y329D01*
X664Y329D01*
X664Y327D01*
X666Y327D01*
X666Y325D01*
X668Y325D01*
X668Y321D01*
X670Y321D01*
X670Y313D01*
X672Y313D01*
X672Y303D01*
X674Y303D01*
X674Y301D01*
X676Y301D01*
X676Y299D01*
X680Y299D01*
X680Y297D01*
X682Y297D01*
X682Y295D01*
X684Y295D01*
X684Y293D01*
X686Y293D01*
X686Y289D01*
X688Y289D01*
X688Y287D01*
X690Y287D01*
X690Y283D01*
X692Y283D01*
X692Y279D01*
X694Y279D01*
X694Y273D01*
X696Y273D01*
X696Y251D01*
X694Y251D01*
X694Y243D01*
X692Y243D01*
X692Y239D01*
X690Y239D01*
X690Y237D01*
X688Y237D01*
X688Y233D01*
X686Y233D01*
X686Y231D01*
X684Y231D01*
X684Y229D01*
X682Y229D01*
X682Y227D01*
X680Y227D01*
X680Y225D01*
X678Y225D01*
X678Y223D01*
X676Y223D01*
X676Y221D01*
X672Y221D01*
X672Y219D01*
X668Y219D01*
X668Y217D01*
X662Y217D01*
X662Y215D01*
X1036Y215D01*
X1036Y217D01*
X1030Y217D01*
X1030Y219D01*
X1026Y219D01*
X1026Y221D01*
X1024Y221D01*
X1024Y223D01*
X1020Y223D01*
X1020Y225D01*
X1018Y225D01*
X1018Y227D01*
X1016Y227D01*
X1016Y229D01*
X1014Y229D01*
X1014Y231D01*
X1012Y231D01*
X1012Y233D01*
X1010Y233D01*
X1010Y237D01*
X1008Y237D01*
X1008Y241D01*
X1006Y241D01*
X1006Y245D01*
X1004Y245D01*
X1004Y251D01*
X1002Y251D01*
X1002Y273D01*
X1004Y273D01*
X1004Y279D01*
X1006Y279D01*
X1006Y283D01*
X1008Y283D01*
X1008Y287D01*
X1010Y287D01*
X1010Y289D01*
X1012Y289D01*
X1012Y293D01*
X1014Y293D01*
X1014Y295D01*
X1016Y295D01*
X1016Y297D01*
X1020Y297D01*
X1020Y299D01*
X1022Y299D01*
X1022Y301D01*
X1024Y301D01*
X1024Y321D01*
X720Y321D01*
X720Y323D01*
X710Y323D01*
X710Y325D01*
X706Y325D01*
X706Y327D01*
X702Y327D01*
X702Y329D01*
X700Y329D01*
X700Y331D01*
X698Y331D01*
X698Y333D01*
X696Y333D01*
X696Y335D01*
X694Y335D01*
X694Y337D01*
X692Y337D01*
X692Y339D01*
X690Y339D01*
X690Y341D01*
X688Y341D01*
X688Y343D01*
X686Y343D01*
X686Y345D01*
X684Y345D01*
X684Y347D01*
X682Y347D01*
X682Y349D01*
X680Y349D01*
X680Y351D01*
X678Y351D01*
X678Y353D01*
X676Y353D01*
X676Y355D01*
X674Y355D01*
X674Y357D01*
X672Y357D01*
X672Y359D01*
X670Y359D01*
X670Y361D01*
X668Y361D01*
X668Y363D01*
X666Y363D01*
X666Y365D01*
X664Y365D01*
X664Y367D01*
X662Y367D01*
X662Y369D01*
X660Y369D01*
X660Y371D01*
X638Y371D01*
G37*
D02*
G36*
X1164Y345D02*
X1164Y343D01*
X1162Y343D01*
X1162Y341D01*
X1160Y341D01*
X1160Y339D01*
X1158Y339D01*
X1158Y337D01*
X1156Y337D01*
X1156Y335D01*
X1154Y335D01*
X1154Y333D01*
X1150Y333D01*
X1150Y331D01*
X1148Y331D01*
X1148Y329D01*
X1146Y329D01*
X1146Y327D01*
X1142Y327D01*
X1142Y325D01*
X1140Y325D01*
X1140Y323D01*
X1132Y323D01*
X1132Y321D01*
X1074Y321D01*
X1074Y301D01*
X1076Y301D01*
X1076Y299D01*
X1080Y299D01*
X1080Y297D01*
X1082Y297D01*
X1082Y295D01*
X1084Y295D01*
X1084Y293D01*
X1086Y293D01*
X1086Y289D01*
X1088Y289D01*
X1088Y287D01*
X1090Y287D01*
X1090Y283D01*
X1092Y283D01*
X1092Y279D01*
X1094Y279D01*
X1094Y273D01*
X1096Y273D01*
X1096Y251D01*
X1094Y251D01*
X1094Y243D01*
X1092Y243D01*
X1092Y239D01*
X1090Y239D01*
X1090Y237D01*
X1088Y237D01*
X1088Y235D01*
X1270Y235D01*
X1270Y237D01*
X1256Y237D01*
X1256Y239D01*
X1248Y239D01*
X1248Y241D01*
X1242Y241D01*
X1242Y243D01*
X1238Y243D01*
X1238Y245D01*
X1234Y245D01*
X1234Y247D01*
X1230Y247D01*
X1230Y249D01*
X1226Y249D01*
X1226Y251D01*
X1224Y251D01*
X1224Y253D01*
X1220Y253D01*
X1220Y255D01*
X1218Y255D01*
X1218Y257D01*
X1216Y257D01*
X1216Y259D01*
X1214Y259D01*
X1214Y261D01*
X1212Y261D01*
X1212Y263D01*
X1210Y263D01*
X1210Y265D01*
X1208Y265D01*
X1208Y267D01*
X1206Y267D01*
X1206Y269D01*
X1204Y269D01*
X1204Y271D01*
X1202Y271D01*
X1202Y273D01*
X1200Y273D01*
X1200Y277D01*
X1198Y277D01*
X1198Y279D01*
X1196Y279D01*
X1196Y283D01*
X1194Y283D01*
X1194Y287D01*
X1192Y287D01*
X1192Y291D01*
X1190Y291D01*
X1190Y297D01*
X1188Y297D01*
X1188Y303D01*
X1186Y303D01*
X1186Y311D01*
X1184Y311D01*
X1184Y345D01*
X1164Y345D01*
G37*
D02*
G36*
X300Y315D02*
X300Y211D01*
X536Y211D01*
X536Y213D01*
X530Y213D01*
X530Y215D01*
X524Y215D01*
X524Y217D01*
X522Y217D01*
X522Y219D01*
X518Y219D01*
X518Y221D01*
X516Y221D01*
X516Y223D01*
X512Y223D01*
X512Y225D01*
X510Y225D01*
X510Y229D01*
X508Y229D01*
X508Y231D01*
X506Y231D01*
X506Y233D01*
X504Y233D01*
X504Y237D01*
X502Y237D01*
X502Y241D01*
X500Y241D01*
X500Y245D01*
X498Y245D01*
X498Y253D01*
X496Y253D01*
X496Y271D01*
X498Y271D01*
X498Y279D01*
X500Y279D01*
X500Y283D01*
X502Y283D01*
X502Y287D01*
X504Y287D01*
X504Y291D01*
X506Y291D01*
X506Y293D01*
X508Y293D01*
X508Y295D01*
X510Y295D01*
X510Y315D01*
X300Y315D01*
G37*
D02*
G36*
X40Y257D02*
X40Y211D01*
X198Y211D01*
X198Y239D01*
X96Y239D01*
X96Y241D01*
X90Y241D01*
X90Y243D01*
X86Y243D01*
X86Y245D01*
X82Y245D01*
X82Y247D01*
X78Y247D01*
X78Y249D01*
X74Y249D01*
X74Y251D01*
X70Y251D01*
X70Y253D01*
X66Y253D01*
X66Y255D01*
X62Y255D01*
X62Y257D01*
X40Y257D01*
G37*
D02*
G36*
X590Y237D02*
X590Y233D01*
X588Y233D01*
X588Y231D01*
X586Y231D01*
X586Y227D01*
X584Y227D01*
X584Y225D01*
X582Y225D01*
X582Y223D01*
X578Y223D01*
X578Y221D01*
X576Y221D01*
X576Y219D01*
X574Y219D01*
X574Y217D01*
X570Y217D01*
X570Y215D01*
X636Y215D01*
X636Y217D01*
X630Y217D01*
X630Y219D01*
X626Y219D01*
X626Y221D01*
X624Y221D01*
X624Y223D01*
X620Y223D01*
X620Y225D01*
X618Y225D01*
X618Y227D01*
X616Y227D01*
X616Y229D01*
X614Y229D01*
X614Y231D01*
X612Y231D01*
X612Y233D01*
X610Y233D01*
X610Y237D01*
X590Y237D01*
G37*
D02*
G36*
X1088Y235D02*
X1088Y233D01*
X1534Y233D01*
X1534Y235D01*
X1088Y235D01*
G37*
D02*
G36*
X1088Y235D02*
X1088Y233D01*
X1534Y233D01*
X1534Y235D01*
X1088Y235D01*
G37*
D02*
G36*
X1086Y233D02*
X1086Y231D01*
X1084Y231D01*
X1084Y229D01*
X1082Y229D01*
X1082Y227D01*
X1080Y227D01*
X1080Y225D01*
X1078Y225D01*
X1078Y223D01*
X1076Y223D01*
X1076Y221D01*
X1072Y221D01*
X1072Y219D01*
X1068Y219D01*
X1068Y217D01*
X1062Y217D01*
X1062Y215D01*
X1534Y215D01*
X1534Y233D01*
X1086Y233D01*
G37*
D02*
G36*
X566Y215D02*
X566Y213D01*
X1534Y213D01*
X1534Y215D01*
X566Y215D01*
G37*
D02*
G36*
X566Y215D02*
X566Y213D01*
X1534Y213D01*
X1534Y215D01*
X566Y215D01*
G37*
D02*
G36*
X566Y215D02*
X566Y213D01*
X1534Y213D01*
X1534Y215D01*
X566Y215D01*
G37*
D02*
G36*
X558Y213D02*
X558Y211D01*
X1534Y211D01*
X1534Y213D01*
X558Y213D01*
G37*
D02*
G36*
X40Y211D02*
X40Y209D01*
X1534Y209D01*
X1534Y211D01*
X40Y211D01*
G37*
D02*
G36*
X40Y211D02*
X40Y209D01*
X1534Y209D01*
X1534Y211D01*
X40Y211D01*
G37*
D02*
G36*
X40Y211D02*
X40Y209D01*
X1534Y209D01*
X1534Y211D01*
X40Y211D01*
G37*
D02*
G36*
X40Y209D02*
X40Y41D01*
X1534Y41D01*
X1534Y209D01*
X40Y209D01*
G37*
D02*
G36*
X959Y1457D02*
X984Y1457D01*
X984Y1433D01*
X959Y1433D01*
X959Y1457D01*
G37*
D02*
G36*
X635Y3195D02*
X660Y3195D01*
X660Y3171D01*
X635Y3171D01*
X635Y3195D01*
G37*
D02*
G36*
X635Y3157D02*
X660Y3157D01*
X660Y3131D01*
X635Y3131D01*
X635Y3157D01*
G37*
D02*
G36*
X616Y3176D02*
X640Y3176D01*
X640Y3151D01*
X616Y3151D01*
X616Y3176D01*
G37*
D02*
G36*
X654Y3176D02*
X678Y3176D01*
X678Y3151D01*
X654Y3151D01*
X654Y3176D01*
G37*
D02*
G36*
X935Y2345D02*
X960Y2345D01*
X960Y2321D01*
X935Y2321D01*
X935Y2345D01*
G37*
D02*
G36*
X935Y2307D02*
X960Y2307D01*
X960Y2281D01*
X935Y2281D01*
X935Y2307D01*
G37*
D02*
G36*
X635Y2871D02*
X660Y2871D01*
X660Y2845D01*
X635Y2845D01*
X635Y2871D01*
G37*
D02*
G36*
X635Y2831D02*
X660Y2831D01*
X660Y2807D01*
X635Y2807D01*
X635Y2831D01*
G37*
D02*
G36*
X616Y2850D02*
X640Y2850D01*
X640Y2825D01*
X616Y2825D01*
X616Y2850D01*
G37*
D02*
G36*
X654Y2850D02*
X678Y2850D01*
X678Y2825D01*
X654Y2825D01*
X654Y2850D01*
G37*
D02*
G36*
X522Y243D02*
X569Y243D01*
X569Y211D01*
X522Y211D01*
X522Y243D01*
G37*
D02*
G36*
X492Y287D02*
X524Y287D01*
X524Y240D01*
X492Y240D01*
X492Y287D01*
G37*
D02*
G36*
X818Y2037D02*
X850Y2037D01*
X850Y1990D01*
X818Y1990D01*
X818Y2037D01*
G37*
D02*
G36*
X375Y2869D02*
X420Y2869D01*
X420Y2837D01*
X375Y2837D01*
X375Y2869D01*
G37*
D02*
G36*
X346Y2910D02*
X378Y2910D01*
X378Y2865D01*
X346Y2865D01*
X346Y2910D01*
G37*
D02*
G36*
X416Y2910D02*
X450Y2910D01*
X450Y2865D01*
X416Y2865D01*
X416Y2910D01*
G37*
D02*
G36*
X626Y3413D02*
X669Y3413D01*
X669Y3381D01*
X626Y3381D01*
X626Y3413D01*
G37*
D02*
G36*
X626Y3347D02*
X669Y3347D01*
X669Y3315D01*
X626Y3315D01*
X626Y3347D01*
G37*
D02*
G36*
X598Y3385D02*
X630Y3385D01*
X630Y3342D01*
X598Y3342D01*
X598Y3385D01*
G37*
D02*
G36*
X664Y3385D02*
X696Y3385D01*
X696Y3342D01*
X664Y3342D01*
X664Y3385D01*
G37*
D02*
G36*
X198Y1635D02*
X228Y1635D01*
X228Y1592D01*
X198Y1592D01*
X198Y1635D01*
G37*
D02*
G36*
X198Y1735D02*
X228Y1735D01*
X228Y1692D01*
X198Y1692D01*
X198Y1735D01*
G37*
D02*
G36*
X198Y1435D02*
X228Y1435D01*
X228Y1392D01*
X198Y1392D01*
X198Y1435D01*
G37*
D02*
G54D26*
X832Y3505D02*
X914Y3505D01*
X832Y3504D02*
X914Y3504D01*
X832Y3503D02*
X914Y3503D01*
X832Y3502D02*
X914Y3502D01*
X832Y3501D02*
X914Y3501D01*
X832Y3500D02*
X914Y3500D01*
X832Y3499D02*
X914Y3499D01*
X832Y3498D02*
X914Y3498D01*
X832Y3497D02*
X914Y3497D01*
X832Y3496D02*
X914Y3496D01*
X832Y3495D02*
X914Y3495D01*
X832Y3494D02*
X914Y3494D01*
X832Y3493D02*
X914Y3493D01*
X832Y3492D02*
X914Y3492D01*
X832Y3491D02*
X914Y3491D01*
X832Y3490D02*
X914Y3490D01*
X832Y3489D02*
X914Y3489D01*
X832Y3488D02*
X914Y3488D01*
X832Y3487D02*
X914Y3487D01*
X832Y3486D02*
X867Y3486D01*
X880Y3486D02*
X914Y3486D01*
X832Y3485D02*
X864Y3485D01*
X882Y3485D02*
X914Y3485D01*
X832Y3484D02*
X862Y3484D01*
X884Y3484D02*
X914Y3484D01*
X832Y3483D02*
X860Y3483D01*
X886Y3483D02*
X914Y3483D01*
X832Y3482D02*
X859Y3482D01*
X887Y3482D02*
X914Y3482D01*
X832Y3481D02*
X858Y3481D01*
X889Y3481D02*
X914Y3481D01*
X832Y3480D02*
X857Y3480D01*
X890Y3480D02*
X914Y3480D01*
X832Y3479D02*
X856Y3479D01*
X891Y3479D02*
X914Y3479D01*
X832Y3478D02*
X855Y3478D01*
X891Y3478D02*
X914Y3478D01*
X832Y3477D02*
X854Y3477D01*
X892Y3477D02*
X914Y3477D01*
X832Y3476D02*
X854Y3476D01*
X893Y3476D02*
X914Y3476D01*
X832Y3475D02*
X853Y3475D01*
X893Y3475D02*
X914Y3475D01*
X832Y3474D02*
X853Y3474D01*
X894Y3474D02*
X914Y3474D01*
X832Y3473D02*
X852Y3473D01*
X894Y3473D02*
X914Y3473D01*
X832Y3472D02*
X852Y3472D01*
X895Y3472D02*
X914Y3472D01*
X832Y3471D02*
X851Y3471D01*
X895Y3471D02*
X914Y3471D01*
X832Y3470D02*
X851Y3470D01*
X895Y3470D02*
X914Y3470D01*
X832Y3469D02*
X851Y3469D01*
X895Y3469D02*
X914Y3469D01*
X832Y3468D02*
X851Y3468D01*
X896Y3468D02*
X914Y3468D01*
X832Y3467D02*
X851Y3467D01*
X896Y3467D02*
X914Y3467D01*
X832Y3466D02*
X851Y3466D01*
X896Y3466D02*
X914Y3466D01*
X832Y3465D02*
X851Y3465D01*
X896Y3465D02*
X914Y3465D01*
X832Y3464D02*
X851Y3464D01*
X896Y3464D02*
X914Y3464D01*
X832Y3463D02*
X851Y3463D01*
X896Y3463D02*
X914Y3463D01*
X832Y3462D02*
X851Y3462D01*
X896Y3462D02*
X914Y3462D01*
X832Y3461D02*
X851Y3461D01*
X896Y3461D02*
X914Y3461D01*
X832Y3460D02*
X851Y3460D01*
X895Y3460D02*
X914Y3460D01*
X832Y3459D02*
X851Y3459D01*
X895Y3459D02*
X914Y3459D01*
X832Y3458D02*
X852Y3458D01*
X895Y3458D02*
X914Y3458D01*
X832Y3457D02*
X852Y3457D01*
X894Y3457D02*
X914Y3457D01*
X832Y3456D02*
X852Y3456D01*
X894Y3456D02*
X914Y3456D01*
X832Y3455D02*
X853Y3455D01*
X894Y3455D02*
X914Y3455D01*
X832Y3454D02*
X853Y3454D01*
X893Y3454D02*
X914Y3454D01*
X832Y3453D02*
X854Y3453D01*
X892Y3453D02*
X914Y3453D01*
X832Y3452D02*
X854Y3452D01*
X892Y3452D02*
X914Y3452D01*
X832Y3451D02*
X855Y3451D01*
X891Y3451D02*
X914Y3451D01*
X832Y3450D02*
X856Y3450D01*
X890Y3450D02*
X914Y3450D01*
X832Y3449D02*
X857Y3449D01*
X889Y3449D02*
X914Y3449D01*
X832Y3448D02*
X858Y3448D01*
X888Y3448D02*
X914Y3448D01*
X832Y3447D02*
X859Y3447D01*
X887Y3447D02*
X914Y3447D01*
X832Y3446D02*
X861Y3446D01*
X886Y3446D02*
X914Y3446D01*
X832Y3445D02*
X863Y3445D01*
X884Y3445D02*
X914Y3445D01*
X832Y3444D02*
X865Y3444D01*
X882Y3444D02*
X914Y3444D01*
X832Y3443D02*
X868Y3443D01*
X878Y3443D02*
X914Y3443D01*
X832Y3442D02*
X914Y3442D01*
X832Y3441D02*
X914Y3441D01*
X832Y3440D02*
X914Y3440D01*
X832Y3439D02*
X914Y3439D01*
X832Y3438D02*
X914Y3438D01*
X832Y3437D02*
X914Y3437D01*
X832Y3436D02*
X914Y3436D01*
X832Y3435D02*
X914Y3435D01*
X832Y3434D02*
X914Y3434D01*
X832Y3433D02*
X914Y3433D01*
X832Y3432D02*
X914Y3432D01*
X832Y3431D02*
X914Y3431D01*
X832Y3430D02*
X914Y3430D01*
X832Y3429D02*
X914Y3429D01*
X832Y3428D02*
X914Y3428D01*
X832Y3427D02*
X914Y3427D01*
X832Y3426D02*
X914Y3426D01*
X832Y3425D02*
X914Y3425D01*
X832Y3424D02*
X914Y3424D01*
X832Y2053D02*
X914Y2053D01*
X832Y2052D02*
X914Y2052D01*
X832Y2051D02*
X914Y2051D01*
X832Y2050D02*
X914Y2050D01*
X832Y2049D02*
X914Y2049D01*
X832Y2048D02*
X914Y2048D01*
X832Y2047D02*
X914Y2047D01*
X832Y2046D02*
X914Y2046D01*
X832Y2045D02*
X914Y2045D01*
X832Y2044D02*
X914Y2044D01*
X832Y2043D02*
X914Y2043D01*
X832Y2042D02*
X914Y2042D01*
X832Y2041D02*
X914Y2041D01*
X832Y2040D02*
X914Y2040D01*
X832Y2039D02*
X914Y2039D01*
X832Y2038D02*
X914Y2038D01*
X832Y2037D02*
X914Y2037D01*
X832Y2036D02*
X914Y2036D01*
X832Y2035D02*
X914Y2035D01*
X832Y2034D02*
X869Y2034D01*
X877Y2034D02*
X914Y2034D01*
X832Y2033D02*
X865Y2033D01*
X881Y2033D02*
X914Y2033D01*
X832Y2032D02*
X863Y2032D01*
X883Y2032D02*
X914Y2032D01*
X832Y2031D02*
X861Y2031D01*
X885Y2031D02*
X914Y2031D01*
X832Y2030D02*
X860Y2030D01*
X887Y2030D02*
X914Y2030D01*
X832Y2029D02*
X858Y2029D01*
X888Y2029D02*
X914Y2029D01*
X832Y2028D02*
X857Y2028D01*
X889Y2028D02*
X914Y2028D01*
X832Y2027D02*
X856Y2027D01*
X890Y2027D02*
X914Y2027D01*
X832Y2026D02*
X856Y2026D01*
X891Y2026D02*
X914Y2026D01*
X832Y2025D02*
X855Y2025D01*
X892Y2025D02*
X914Y2025D01*
X832Y2024D02*
X854Y2024D01*
X892Y2024D02*
X914Y2024D01*
X832Y2023D02*
X853Y2023D01*
X893Y2023D02*
X914Y2023D01*
X832Y2022D02*
X853Y2022D01*
X893Y2022D02*
X914Y2022D01*
X832Y2021D02*
X852Y2021D01*
X894Y2021D02*
X914Y2021D01*
X832Y2020D02*
X852Y2020D01*
X894Y2020D02*
X914Y2020D01*
X832Y2019D02*
X852Y2019D01*
X895Y2019D02*
X914Y2019D01*
X832Y2018D02*
X851Y2018D01*
X895Y2018D02*
X914Y2018D01*
X832Y2017D02*
X851Y2017D01*
X895Y2017D02*
X914Y2017D01*
X832Y2016D02*
X851Y2016D01*
X896Y2016D02*
X914Y2016D01*
X832Y2015D02*
X851Y2015D01*
X896Y2015D02*
X914Y2015D01*
X832Y2014D02*
X851Y2014D01*
X896Y2014D02*
X914Y2014D01*
X832Y2013D02*
X851Y2013D01*
X896Y2013D02*
X914Y2013D01*
X832Y2012D02*
X851Y2012D01*
X896Y2012D02*
X914Y2012D01*
X832Y2011D02*
X851Y2011D01*
X896Y2011D02*
X914Y2011D01*
X832Y2010D02*
X851Y2010D01*
X896Y2010D02*
X914Y2010D01*
X832Y2009D02*
X851Y2009D01*
X896Y2009D02*
X914Y2009D01*
X832Y2008D02*
X851Y2008D01*
X895Y2008D02*
X914Y2008D01*
X832Y2007D02*
X851Y2007D01*
X895Y2007D02*
X914Y2007D01*
X832Y2006D02*
X851Y2006D01*
X895Y2006D02*
X914Y2006D01*
X832Y2005D02*
X852Y2005D01*
X895Y2005D02*
X914Y2005D01*
X832Y2004D02*
X852Y2004D01*
X894Y2004D02*
X914Y2004D01*
X832Y2003D02*
X853Y2003D01*
X894Y2003D02*
X914Y2003D01*
X832Y2002D02*
X853Y2002D01*
X893Y2002D02*
X914Y2002D01*
X832Y2001D02*
X854Y2001D01*
X893Y2001D02*
X914Y2001D01*
X832Y2000D02*
X854Y2000D01*
X892Y2000D02*
X914Y2000D01*
X832Y1999D02*
X855Y1999D01*
X891Y1999D02*
X914Y1999D01*
X832Y1998D02*
X856Y1998D01*
X891Y1998D02*
X914Y1998D01*
X832Y1997D02*
X857Y1997D01*
X890Y1997D02*
X914Y1997D01*
X832Y1996D02*
X858Y1996D01*
X889Y1996D02*
X914Y1996D01*
X832Y1995D02*
X859Y1995D01*
X888Y1995D02*
X914Y1995D01*
X832Y1994D02*
X860Y1994D01*
X886Y1994D02*
X914Y1994D01*
X832Y1993D02*
X862Y1993D01*
X885Y1993D02*
X914Y1993D01*
X832Y1992D02*
X863Y1992D01*
X883Y1992D02*
X914Y1992D01*
X832Y1991D02*
X866Y1991D01*
X880Y1991D02*
X914Y1991D01*
X832Y1990D02*
X871Y1990D01*
X875Y1990D02*
X914Y1990D01*
X832Y1989D02*
X914Y1989D01*
X832Y1988D02*
X914Y1988D01*
X832Y1987D02*
X914Y1987D01*
X832Y1986D02*
X914Y1986D01*
X832Y1985D02*
X914Y1985D01*
X832Y1984D02*
X914Y1984D01*
X832Y1983D02*
X914Y1983D01*
X832Y1982D02*
X914Y1982D01*
X832Y1981D02*
X914Y1981D01*
X832Y1980D02*
X914Y1980D01*
X832Y1979D02*
X914Y1979D01*
X832Y1978D02*
X914Y1978D01*
X832Y1977D02*
X914Y1977D01*
X832Y1976D02*
X914Y1976D01*
X832Y1975D02*
X914Y1975D01*
X832Y1974D02*
X914Y1974D01*
X832Y1973D02*
X914Y1973D01*
X832Y1972D02*
X914Y1972D01*
X833Y1971D02*
X914Y1971D01*
D02*
G04 End of Copper1*
M02*