G04 MADE WITH FRITZING*
G04 WWW.FRITZING.ORG*
G04 DOUBLE SIDED*
G04 HOLES PLATED*
G04 CONTOUR ON CENTER OF CONTOUR VECTOR*
%ASAXBY*%
%FSLAX23Y23*%
%MOIN*%
%OFA0B0*%
%SFA1.0B1.0*%
%ADD10C,0.075000*%
%ADD11C,0.075433*%
%ADD12C,0.039370*%
%ADD13C,0.082000*%
%ADD14C,0.080000*%
%ADD15C,0.074000*%
%ADD16C,0.083307*%
%ADD17R,0.082000X0.082000*%
%ADD18R,0.080000X0.080000*%
%ADD19R,0.074000X0.074000*%
%ADD20C,0.060000*%
%ADD21C,0.024000*%
%ADD22C,0.016000*%
%LNCOPPER0*%
G90*
G70*
G54D10*
X441Y3501D03*
X1065Y2130D03*
X375Y1234D03*
X447Y3693D03*
X1033Y3824D03*
G54D11*
X624Y2287D03*
G54D12*
X649Y2837D03*
G54D10*
X1099Y287D03*
X699Y287D03*
X649Y3362D03*
X649Y2962D03*
G54D13*
X249Y287D03*
X547Y287D03*
G54D11*
X749Y2287D03*
G54D12*
X524Y1287D03*
G54D14*
X324Y3387D03*
X324Y3487D03*
X324Y3587D03*
X324Y3687D03*
X399Y2887D03*
X399Y3083D03*
G54D15*
X274Y2512D03*
X274Y2412D03*
X274Y2312D03*
X274Y2212D03*
X274Y2112D03*
X274Y2012D03*
X274Y1912D03*
X274Y1812D03*
X274Y1712D03*
X274Y1612D03*
X274Y1512D03*
X274Y1412D03*
X274Y1312D03*
X274Y1212D03*
X274Y1112D03*
X274Y1012D03*
X274Y912D03*
X274Y812D03*
X274Y712D03*
X274Y612D03*
X174Y2512D03*
X174Y2412D03*
X174Y2312D03*
X174Y2212D03*
X174Y2112D03*
X174Y2012D03*
X174Y1912D03*
X174Y1812D03*
X174Y1712D03*
X174Y1612D03*
X174Y1512D03*
X174Y1412D03*
X174Y1312D03*
X174Y1212D03*
X174Y1112D03*
X174Y1012D03*
X174Y912D03*
X174Y812D03*
X174Y712D03*
X174Y612D03*
G54D16*
X876Y534D03*
X876Y672D03*
X876Y809D03*
X876Y929D03*
X873Y1047D03*
X876Y1165D03*
X875Y1281D03*
X875Y1399D03*
X875Y1518D03*
X875Y1636D03*
X875Y1755D03*
X876Y1875D03*
X1051Y535D03*
X1051Y673D03*
X1051Y810D03*
X1051Y930D03*
X1048Y1048D03*
X1051Y1166D03*
X1050Y1282D03*
X1050Y1400D03*
X1050Y1519D03*
X1050Y1637D03*
X1050Y1756D03*
X1051Y1876D03*
X1051Y2015D03*
X876Y2014D03*
X878Y2257D03*
X1053Y2258D03*
X879Y2379D03*
X1054Y2380D03*
X878Y2498D03*
X1053Y2498D03*
X878Y2615D03*
X1053Y2616D03*
X878Y2734D03*
X1053Y2733D03*
X878Y2852D03*
X1053Y2852D03*
X878Y2969D03*
X1053Y2970D03*
X878Y3088D03*
X1053Y3089D03*
X878Y3207D03*
X1053Y3207D03*
X878Y3329D03*
X1053Y3330D03*
X878Y3466D03*
X1052Y3467D03*
G54D17*
X248Y287D03*
G54D18*
X324Y3387D03*
X399Y2887D03*
G54D19*
X174Y2512D03*
G54D20*
X624Y687D02*
X649Y662D01*
D02*
X849Y662D02*
X830Y654D01*
D02*
X649Y662D02*
X849Y662D01*
D02*
X624Y2241D02*
X624Y687D01*
G54D21*
D02*
X1099Y237D02*
X1099Y258D01*
D02*
X1124Y212D02*
X1099Y237D01*
D02*
X1399Y212D02*
X1124Y212D01*
D02*
X1424Y237D02*
X1399Y212D01*
D02*
X1424Y2237D02*
X1424Y237D01*
D02*
X1099Y2262D02*
X1399Y2262D01*
D02*
X1399Y2262D02*
X1424Y2237D01*
D02*
X1086Y2261D02*
X1099Y2262D01*
G54D20*
D02*
X749Y837D02*
X774Y812D01*
D02*
X774Y812D02*
X827Y811D01*
D02*
X749Y2241D02*
X749Y837D01*
G54D21*
D02*
X525Y637D02*
X524Y1268D01*
D02*
X499Y611D02*
X525Y637D01*
D02*
X305Y612D02*
X499Y611D01*
G54D20*
D02*
X226Y2512D02*
X222Y2512D01*
G54D21*
D02*
X550Y3586D02*
X355Y3587D01*
D02*
X474Y737D02*
X474Y2586D01*
D02*
X574Y2686D02*
X574Y3562D01*
D02*
X474Y2586D02*
X574Y2686D01*
D02*
X574Y3562D02*
X550Y3586D01*
D02*
X450Y711D02*
X474Y737D01*
D02*
X305Y712D02*
X450Y711D01*
D02*
X525Y3362D02*
X499Y3386D01*
D02*
X425Y1337D02*
X425Y2637D01*
D02*
X499Y3386D02*
X355Y3386D01*
D02*
X525Y2737D02*
X525Y3362D01*
D02*
X425Y2637D02*
X525Y2737D01*
D02*
X399Y1311D02*
X425Y1337D01*
D02*
X305Y1312D02*
X399Y1311D01*
G54D20*
D02*
X226Y2412D02*
X222Y2412D01*
D02*
X74Y437D02*
X124Y387D01*
D02*
X74Y2362D02*
X74Y437D01*
D02*
X99Y2411D02*
X74Y2362D01*
D02*
X1124Y387D02*
X1174Y437D01*
D02*
X124Y387D02*
X1124Y387D01*
D02*
X126Y2411D02*
X99Y2411D01*
D02*
X1174Y787D02*
X1149Y812D01*
D02*
X1174Y437D02*
X1174Y787D01*
D02*
X1149Y812D02*
X1101Y811D01*
G54D22*
D02*
X174Y487D02*
X174Y586D01*
D02*
X274Y3487D02*
X249Y3512D01*
D02*
X249Y3512D02*
X249Y3762D01*
D02*
X199Y462D02*
X174Y487D01*
D02*
X249Y3762D02*
X274Y3787D01*
D02*
X949Y3787D02*
X974Y3762D01*
D02*
X949Y462D02*
X199Y462D01*
D02*
X274Y3787D02*
X949Y3787D01*
D02*
X299Y3487D02*
X274Y3487D01*
D02*
X974Y3762D02*
X974Y487D01*
D02*
X974Y487D02*
X949Y462D01*
G36*
X368Y3565D02*
X368Y3563D01*
X366Y3563D01*
X366Y3561D01*
X364Y3561D01*
X364Y3557D01*
X362Y3557D01*
X362Y3555D01*
X360Y3555D01*
X360Y3553D01*
X358Y3553D01*
X358Y3551D01*
X356Y3551D01*
X356Y3549D01*
X354Y3549D01*
X354Y3547D01*
X350Y3547D01*
X350Y3527D01*
X352Y3527D01*
X352Y3525D01*
X354Y3525D01*
X354Y3523D01*
X358Y3523D01*
X358Y3521D01*
X360Y3521D01*
X360Y3517D01*
X362Y3517D01*
X362Y3515D01*
X364Y3515D01*
X364Y3513D01*
X366Y3513D01*
X366Y3509D01*
X368Y3509D01*
X368Y3507D01*
X370Y3507D01*
X370Y3503D01*
X372Y3503D01*
X372Y3495D01*
X374Y3495D01*
X374Y3477D01*
X372Y3477D01*
X372Y3471D01*
X370Y3471D01*
X370Y3467D01*
X368Y3467D01*
X368Y3463D01*
X366Y3463D01*
X366Y3461D01*
X364Y3461D01*
X364Y3457D01*
X362Y3457D01*
X362Y3437D01*
X374Y3437D01*
X374Y3409D01*
X466Y3409D01*
X466Y3407D01*
X508Y3407D01*
X508Y3405D01*
X512Y3405D01*
X512Y3403D01*
X514Y3403D01*
X514Y3401D01*
X516Y3401D01*
X516Y3399D01*
X518Y3399D01*
X518Y3397D01*
X520Y3397D01*
X520Y3395D01*
X522Y3395D01*
X522Y3393D01*
X524Y3393D01*
X524Y3391D01*
X526Y3391D01*
X526Y3389D01*
X528Y3389D01*
X528Y3387D01*
X532Y3387D01*
X532Y3385D01*
X552Y3385D01*
X552Y3553D01*
X550Y3553D01*
X550Y3555D01*
X548Y3555D01*
X548Y3557D01*
X546Y3557D01*
X546Y3559D01*
X544Y3559D01*
X544Y3561D01*
X542Y3561D01*
X542Y3563D01*
X502Y3563D01*
X502Y3565D01*
X368Y3565D01*
G37*
D02*
G36*
X992Y3181D02*
X992Y3117D01*
X1012Y3117D01*
X1012Y3119D01*
X1014Y3119D01*
X1014Y3121D01*
X1016Y3121D01*
X1016Y3123D01*
X1018Y3123D01*
X1018Y3125D01*
X1020Y3125D01*
X1020Y3127D01*
X1022Y3127D01*
X1022Y3129D01*
X1024Y3129D01*
X1024Y3131D01*
X1028Y3131D01*
X1028Y3133D01*
X1030Y3133D01*
X1030Y3135D01*
X1034Y3135D01*
X1034Y3137D01*
X1038Y3137D01*
X1038Y3139D01*
X1040Y3139D01*
X1040Y3159D01*
X1034Y3159D01*
X1034Y3161D01*
X1032Y3161D01*
X1032Y3163D01*
X1028Y3163D01*
X1028Y3165D01*
X1024Y3165D01*
X1024Y3167D01*
X1022Y3167D01*
X1022Y3169D01*
X1020Y3169D01*
X1020Y3171D01*
X1018Y3171D01*
X1018Y3173D01*
X1016Y3173D01*
X1016Y3175D01*
X1014Y3175D01*
X1014Y3177D01*
X1012Y3177D01*
X1012Y3181D01*
X992Y3181D01*
G37*
D02*
G36*
X992Y3061D02*
X992Y2997D01*
X1012Y2997D01*
X1012Y3001D01*
X1014Y3001D01*
X1014Y3003D01*
X1016Y3003D01*
X1016Y3005D01*
X1018Y3005D01*
X1018Y3007D01*
X1020Y3007D01*
X1020Y3009D01*
X1022Y3009D01*
X1022Y3011D01*
X1024Y3011D01*
X1024Y3013D01*
X1028Y3013D01*
X1028Y3015D01*
X1032Y3015D01*
X1032Y3017D01*
X1036Y3017D01*
X1036Y3019D01*
X1040Y3019D01*
X1040Y3039D01*
X1038Y3039D01*
X1038Y3041D01*
X1034Y3041D01*
X1034Y3043D01*
X1030Y3043D01*
X1030Y3045D01*
X1028Y3045D01*
X1028Y3047D01*
X1024Y3047D01*
X1024Y3049D01*
X1022Y3049D01*
X1022Y3051D01*
X1020Y3051D01*
X1020Y3053D01*
X1018Y3053D01*
X1018Y3055D01*
X1016Y3055D01*
X1016Y3057D01*
X1014Y3057D01*
X1014Y3059D01*
X1012Y3059D01*
X1012Y3061D01*
X992Y3061D01*
G37*
D02*
G36*
X992Y2943D02*
X992Y2879D01*
X1012Y2879D01*
X1012Y2881D01*
X1014Y2881D01*
X1014Y2885D01*
X1016Y2885D01*
X1016Y2887D01*
X1018Y2887D01*
X1018Y2889D01*
X1020Y2889D01*
X1020Y2891D01*
X1024Y2891D01*
X1024Y2893D01*
X1026Y2893D01*
X1026Y2895D01*
X1030Y2895D01*
X1030Y2897D01*
X1032Y2897D01*
X1032Y2899D01*
X1036Y2899D01*
X1036Y2901D01*
X1042Y2901D01*
X1042Y2921D01*
X1038Y2921D01*
X1038Y2923D01*
X1032Y2923D01*
X1032Y2925D01*
X1030Y2925D01*
X1030Y2927D01*
X1026Y2927D01*
X1026Y2929D01*
X1024Y2929D01*
X1024Y2931D01*
X1022Y2931D01*
X1022Y2933D01*
X1018Y2933D01*
X1018Y2935D01*
X1016Y2935D01*
X1016Y2939D01*
X1014Y2939D01*
X1014Y2941D01*
X1012Y2941D01*
X1012Y2943D01*
X992Y2943D01*
G37*
D02*
G36*
X992Y2825D02*
X992Y2761D01*
X1012Y2761D01*
X1012Y2763D01*
X1014Y2763D01*
X1014Y2765D01*
X1016Y2765D01*
X1016Y2767D01*
X1018Y2767D01*
X1018Y2769D01*
X1020Y2769D01*
X1020Y2771D01*
X1022Y2771D01*
X1022Y2773D01*
X1024Y2773D01*
X1024Y2775D01*
X1026Y2775D01*
X1026Y2777D01*
X1030Y2777D01*
X1030Y2779D01*
X1034Y2779D01*
X1034Y2781D01*
X1038Y2781D01*
X1038Y2783D01*
X1042Y2783D01*
X1042Y2803D01*
X1036Y2803D01*
X1036Y2805D01*
X1032Y2805D01*
X1032Y2807D01*
X1028Y2807D01*
X1028Y2809D01*
X1026Y2809D01*
X1026Y2811D01*
X1024Y2811D01*
X1024Y2813D01*
X1020Y2813D01*
X1020Y2815D01*
X1018Y2815D01*
X1018Y2817D01*
X1016Y2817D01*
X1016Y2819D01*
X1014Y2819D01*
X1014Y2823D01*
X1012Y2823D01*
X1012Y2825D01*
X992Y2825D01*
G37*
D02*
G36*
X532Y2713D02*
X532Y2711D01*
X530Y2711D01*
X530Y2709D01*
X528Y2709D01*
X528Y2707D01*
X526Y2707D01*
X526Y2705D01*
X524Y2705D01*
X524Y2703D01*
X522Y2703D01*
X522Y2701D01*
X520Y2701D01*
X520Y2699D01*
X518Y2699D01*
X518Y2697D01*
X516Y2697D01*
X516Y2695D01*
X514Y2695D01*
X514Y2693D01*
X512Y2693D01*
X512Y2691D01*
X510Y2691D01*
X510Y2689D01*
X508Y2689D01*
X508Y2687D01*
X506Y2687D01*
X506Y2685D01*
X504Y2685D01*
X504Y2683D01*
X502Y2683D01*
X502Y2681D01*
X500Y2681D01*
X500Y2679D01*
X498Y2679D01*
X498Y2677D01*
X496Y2677D01*
X496Y2675D01*
X494Y2675D01*
X494Y2673D01*
X492Y2673D01*
X492Y2671D01*
X490Y2671D01*
X490Y2669D01*
X488Y2669D01*
X488Y2667D01*
X486Y2667D01*
X486Y2665D01*
X484Y2665D01*
X484Y2663D01*
X482Y2663D01*
X482Y2661D01*
X480Y2661D01*
X480Y2659D01*
X478Y2659D01*
X478Y2657D01*
X476Y2657D01*
X476Y2655D01*
X474Y2655D01*
X474Y2653D01*
X472Y2653D01*
X472Y2651D01*
X470Y2651D01*
X470Y2649D01*
X468Y2649D01*
X468Y2647D01*
X466Y2647D01*
X466Y2645D01*
X464Y2645D01*
X464Y2643D01*
X462Y2643D01*
X462Y2641D01*
X460Y2641D01*
X460Y2639D01*
X458Y2639D01*
X458Y2637D01*
X456Y2637D01*
X456Y2635D01*
X454Y2635D01*
X454Y2633D01*
X452Y2633D01*
X452Y2631D01*
X450Y2631D01*
X450Y2629D01*
X448Y2629D01*
X448Y2627D01*
X446Y2627D01*
X446Y2609D01*
X466Y2609D01*
X466Y2611D01*
X468Y2611D01*
X468Y2613D01*
X470Y2613D01*
X470Y2615D01*
X472Y2615D01*
X472Y2617D01*
X474Y2617D01*
X474Y2619D01*
X476Y2619D01*
X476Y2621D01*
X478Y2621D01*
X478Y2623D01*
X480Y2623D01*
X480Y2625D01*
X482Y2625D01*
X482Y2627D01*
X484Y2627D01*
X484Y2629D01*
X486Y2629D01*
X486Y2631D01*
X488Y2631D01*
X488Y2633D01*
X490Y2633D01*
X490Y2635D01*
X492Y2635D01*
X492Y2637D01*
X494Y2637D01*
X494Y2639D01*
X496Y2639D01*
X496Y2641D01*
X498Y2641D01*
X498Y2643D01*
X500Y2643D01*
X500Y2645D01*
X502Y2645D01*
X502Y2647D01*
X504Y2647D01*
X504Y2649D01*
X506Y2649D01*
X506Y2651D01*
X508Y2651D01*
X508Y2653D01*
X510Y2653D01*
X510Y2655D01*
X512Y2655D01*
X512Y2657D01*
X514Y2657D01*
X514Y2659D01*
X516Y2659D01*
X516Y2661D01*
X518Y2661D01*
X518Y2663D01*
X520Y2663D01*
X520Y2665D01*
X522Y2665D01*
X522Y2667D01*
X524Y2667D01*
X524Y2669D01*
X526Y2669D01*
X526Y2671D01*
X528Y2671D01*
X528Y2673D01*
X530Y2673D01*
X530Y2675D01*
X532Y2675D01*
X532Y2677D01*
X534Y2677D01*
X534Y2679D01*
X536Y2679D01*
X536Y2681D01*
X538Y2681D01*
X538Y2683D01*
X540Y2683D01*
X540Y2685D01*
X542Y2685D01*
X542Y2687D01*
X544Y2687D01*
X544Y2689D01*
X546Y2689D01*
X546Y2691D01*
X548Y2691D01*
X548Y2693D01*
X550Y2693D01*
X550Y2695D01*
X552Y2695D01*
X552Y2713D01*
X532Y2713D01*
G37*
D02*
G36*
X992Y2707D02*
X992Y2643D01*
X1012Y2643D01*
X1012Y2647D01*
X1014Y2647D01*
X1014Y2649D01*
X1016Y2649D01*
X1016Y2651D01*
X1018Y2651D01*
X1018Y2653D01*
X1020Y2653D01*
X1020Y2655D01*
X1022Y2655D01*
X1022Y2657D01*
X1026Y2657D01*
X1026Y2659D01*
X1028Y2659D01*
X1028Y2661D01*
X1032Y2661D01*
X1032Y2663D01*
X1036Y2663D01*
X1036Y2665D01*
X1040Y2665D01*
X1040Y2685D01*
X1034Y2685D01*
X1034Y2687D01*
X1032Y2687D01*
X1032Y2689D01*
X1028Y2689D01*
X1028Y2691D01*
X1024Y2691D01*
X1024Y2693D01*
X1022Y2693D01*
X1022Y2695D01*
X1020Y2695D01*
X1020Y2697D01*
X1018Y2697D01*
X1018Y2699D01*
X1016Y2699D01*
X1016Y2701D01*
X1014Y2701D01*
X1014Y2703D01*
X1012Y2703D01*
X1012Y2707D01*
X992Y2707D01*
G37*
D02*
G36*
X992Y2589D02*
X992Y2525D01*
X1012Y2525D01*
X1012Y2527D01*
X1014Y2527D01*
X1014Y2529D01*
X1016Y2529D01*
X1016Y2533D01*
X1018Y2533D01*
X1018Y2535D01*
X1022Y2535D01*
X1022Y2537D01*
X1024Y2537D01*
X1024Y2539D01*
X1026Y2539D01*
X1026Y2541D01*
X1030Y2541D01*
X1030Y2543D01*
X1032Y2543D01*
X1032Y2545D01*
X1036Y2545D01*
X1036Y2547D01*
X1042Y2547D01*
X1042Y2567D01*
X1036Y2567D01*
X1036Y2569D01*
X1032Y2569D01*
X1032Y2571D01*
X1030Y2571D01*
X1030Y2573D01*
X1026Y2573D01*
X1026Y2575D01*
X1024Y2575D01*
X1024Y2577D01*
X1022Y2577D01*
X1022Y2579D01*
X1018Y2579D01*
X1018Y2581D01*
X1016Y2581D01*
X1016Y2585D01*
X1014Y2585D01*
X1014Y2587D01*
X1012Y2587D01*
X1012Y2589D01*
X992Y2589D01*
G37*
D02*
G36*
X992Y2471D02*
X992Y2407D01*
X1012Y2407D01*
X1012Y2409D01*
X1014Y2409D01*
X1014Y2411D01*
X1016Y2411D01*
X1016Y2415D01*
X1018Y2415D01*
X1018Y2417D01*
X1022Y2417D01*
X1022Y2419D01*
X1024Y2419D01*
X1024Y2421D01*
X1026Y2421D01*
X1026Y2423D01*
X1030Y2423D01*
X1030Y2425D01*
X1032Y2425D01*
X1032Y2427D01*
X1036Y2427D01*
X1036Y2429D01*
X1042Y2429D01*
X1042Y2449D01*
X1036Y2449D01*
X1036Y2451D01*
X1032Y2451D01*
X1032Y2453D01*
X1028Y2453D01*
X1028Y2455D01*
X1026Y2455D01*
X1026Y2457D01*
X1022Y2457D01*
X1022Y2459D01*
X1020Y2459D01*
X1020Y2461D01*
X1018Y2461D01*
X1018Y2463D01*
X1016Y2463D01*
X1016Y2465D01*
X1014Y2465D01*
X1014Y2467D01*
X1012Y2467D01*
X1012Y2471D01*
X992Y2471D01*
G37*
D02*
G36*
X198Y2373D02*
X198Y2371D01*
X218Y2371D01*
X218Y2373D01*
X198Y2373D01*
G37*
D02*
G36*
X230Y2373D02*
X230Y2371D01*
X252Y2371D01*
X252Y2373D01*
X230Y2373D01*
G37*
D02*
G36*
X196Y2371D02*
X196Y2369D01*
X252Y2369D01*
X252Y2371D01*
X196Y2371D01*
G37*
D02*
G36*
X196Y2371D02*
X196Y2369D01*
X252Y2369D01*
X252Y2371D01*
X196Y2371D01*
G37*
D02*
G36*
X196Y2369D02*
X196Y2351D01*
X200Y2351D01*
X200Y2349D01*
X202Y2349D01*
X202Y2347D01*
X204Y2347D01*
X204Y2345D01*
X206Y2345D01*
X206Y2343D01*
X208Y2343D01*
X208Y2341D01*
X210Y2341D01*
X210Y2339D01*
X212Y2339D01*
X212Y2335D01*
X214Y2335D01*
X214Y2333D01*
X234Y2333D01*
X234Y2335D01*
X236Y2335D01*
X236Y2339D01*
X238Y2339D01*
X238Y2341D01*
X240Y2341D01*
X240Y2343D01*
X242Y2343D01*
X242Y2345D01*
X244Y2345D01*
X244Y2347D01*
X246Y2347D01*
X246Y2349D01*
X250Y2349D01*
X250Y2351D01*
X252Y2351D01*
X252Y2369D01*
X196Y2369D01*
G37*
D02*
G36*
X114Y2291D02*
X114Y2233D01*
X134Y2233D01*
X134Y2235D01*
X136Y2235D01*
X136Y2239D01*
X138Y2239D01*
X138Y2241D01*
X140Y2241D01*
X140Y2243D01*
X142Y2243D01*
X142Y2245D01*
X144Y2245D01*
X144Y2247D01*
X146Y2247D01*
X146Y2249D01*
X150Y2249D01*
X150Y2251D01*
X152Y2251D01*
X152Y2273D01*
X148Y2273D01*
X148Y2275D01*
X146Y2275D01*
X146Y2277D01*
X144Y2277D01*
X144Y2279D01*
X142Y2279D01*
X142Y2281D01*
X140Y2281D01*
X140Y2283D01*
X138Y2283D01*
X138Y2285D01*
X136Y2285D01*
X136Y2287D01*
X134Y2287D01*
X134Y2291D01*
X114Y2291D01*
G37*
D02*
G36*
X214Y2291D02*
X214Y2287D01*
X212Y2287D01*
X212Y2285D01*
X210Y2285D01*
X210Y2283D01*
X208Y2283D01*
X208Y2281D01*
X206Y2281D01*
X206Y2279D01*
X204Y2279D01*
X204Y2277D01*
X202Y2277D01*
X202Y2275D01*
X200Y2275D01*
X200Y2273D01*
X198Y2273D01*
X198Y2271D01*
X196Y2271D01*
X196Y2251D01*
X200Y2251D01*
X200Y2249D01*
X202Y2249D01*
X202Y2247D01*
X204Y2247D01*
X204Y2245D01*
X206Y2245D01*
X206Y2243D01*
X208Y2243D01*
X208Y2241D01*
X210Y2241D01*
X210Y2239D01*
X212Y2239D01*
X212Y2235D01*
X214Y2235D01*
X214Y2233D01*
X234Y2233D01*
X234Y2235D01*
X236Y2235D01*
X236Y2239D01*
X238Y2239D01*
X238Y2241D01*
X240Y2241D01*
X240Y2243D01*
X242Y2243D01*
X242Y2245D01*
X244Y2245D01*
X244Y2247D01*
X246Y2247D01*
X246Y2249D01*
X250Y2249D01*
X250Y2251D01*
X252Y2251D01*
X252Y2273D01*
X248Y2273D01*
X248Y2275D01*
X246Y2275D01*
X246Y2277D01*
X244Y2277D01*
X244Y2279D01*
X242Y2279D01*
X242Y2281D01*
X240Y2281D01*
X240Y2283D01*
X238Y2283D01*
X238Y2285D01*
X236Y2285D01*
X236Y2287D01*
X234Y2287D01*
X234Y2291D01*
X214Y2291D01*
G37*
D02*
G36*
X114Y2191D02*
X114Y2133D01*
X134Y2133D01*
X134Y2135D01*
X136Y2135D01*
X136Y2139D01*
X138Y2139D01*
X138Y2141D01*
X140Y2141D01*
X140Y2143D01*
X142Y2143D01*
X142Y2145D01*
X144Y2145D01*
X144Y2147D01*
X146Y2147D01*
X146Y2149D01*
X150Y2149D01*
X150Y2151D01*
X152Y2151D01*
X152Y2173D01*
X148Y2173D01*
X148Y2175D01*
X146Y2175D01*
X146Y2177D01*
X144Y2177D01*
X144Y2179D01*
X142Y2179D01*
X142Y2181D01*
X140Y2181D01*
X140Y2183D01*
X138Y2183D01*
X138Y2185D01*
X136Y2185D01*
X136Y2187D01*
X134Y2187D01*
X134Y2191D01*
X114Y2191D01*
G37*
D02*
G36*
X214Y2191D02*
X214Y2187D01*
X212Y2187D01*
X212Y2185D01*
X210Y2185D01*
X210Y2183D01*
X208Y2183D01*
X208Y2181D01*
X206Y2181D01*
X206Y2179D01*
X204Y2179D01*
X204Y2177D01*
X202Y2177D01*
X202Y2175D01*
X200Y2175D01*
X200Y2173D01*
X198Y2173D01*
X198Y2171D01*
X196Y2171D01*
X196Y2151D01*
X200Y2151D01*
X200Y2149D01*
X202Y2149D01*
X202Y2147D01*
X204Y2147D01*
X204Y2145D01*
X206Y2145D01*
X206Y2143D01*
X208Y2143D01*
X208Y2141D01*
X210Y2141D01*
X210Y2139D01*
X212Y2139D01*
X212Y2135D01*
X214Y2135D01*
X214Y2133D01*
X234Y2133D01*
X234Y2135D01*
X236Y2135D01*
X236Y2139D01*
X238Y2139D01*
X238Y2141D01*
X240Y2141D01*
X240Y2143D01*
X242Y2143D01*
X242Y2145D01*
X244Y2145D01*
X244Y2147D01*
X246Y2147D01*
X246Y2149D01*
X250Y2149D01*
X250Y2151D01*
X252Y2151D01*
X252Y2173D01*
X248Y2173D01*
X248Y2175D01*
X246Y2175D01*
X246Y2177D01*
X244Y2177D01*
X244Y2179D01*
X242Y2179D01*
X242Y2181D01*
X240Y2181D01*
X240Y2183D01*
X238Y2183D01*
X238Y2185D01*
X236Y2185D01*
X236Y2187D01*
X234Y2187D01*
X234Y2191D01*
X214Y2191D01*
G37*
D02*
G36*
X114Y2091D02*
X114Y2033D01*
X134Y2033D01*
X134Y2035D01*
X136Y2035D01*
X136Y2039D01*
X138Y2039D01*
X138Y2041D01*
X140Y2041D01*
X140Y2043D01*
X142Y2043D01*
X142Y2045D01*
X144Y2045D01*
X144Y2047D01*
X146Y2047D01*
X146Y2049D01*
X150Y2049D01*
X150Y2051D01*
X152Y2051D01*
X152Y2073D01*
X148Y2073D01*
X148Y2075D01*
X146Y2075D01*
X146Y2077D01*
X144Y2077D01*
X144Y2079D01*
X142Y2079D01*
X142Y2081D01*
X140Y2081D01*
X140Y2083D01*
X138Y2083D01*
X138Y2085D01*
X136Y2085D01*
X136Y2087D01*
X134Y2087D01*
X134Y2091D01*
X114Y2091D01*
G37*
D02*
G36*
X214Y2091D02*
X214Y2087D01*
X212Y2087D01*
X212Y2085D01*
X210Y2085D01*
X210Y2083D01*
X208Y2083D01*
X208Y2081D01*
X206Y2081D01*
X206Y2079D01*
X204Y2079D01*
X204Y2077D01*
X202Y2077D01*
X202Y2075D01*
X200Y2075D01*
X200Y2073D01*
X198Y2073D01*
X198Y2071D01*
X196Y2071D01*
X196Y2051D01*
X200Y2051D01*
X200Y2049D01*
X202Y2049D01*
X202Y2047D01*
X204Y2047D01*
X204Y2045D01*
X206Y2045D01*
X206Y2043D01*
X208Y2043D01*
X208Y2041D01*
X210Y2041D01*
X210Y2039D01*
X212Y2039D01*
X212Y2035D01*
X214Y2035D01*
X214Y2033D01*
X234Y2033D01*
X234Y2035D01*
X236Y2035D01*
X236Y2039D01*
X238Y2039D01*
X238Y2041D01*
X240Y2041D01*
X240Y2043D01*
X242Y2043D01*
X242Y2045D01*
X244Y2045D01*
X244Y2047D01*
X246Y2047D01*
X246Y2049D01*
X250Y2049D01*
X250Y2051D01*
X252Y2051D01*
X252Y2073D01*
X248Y2073D01*
X248Y2075D01*
X246Y2075D01*
X246Y2077D01*
X244Y2077D01*
X244Y2079D01*
X242Y2079D01*
X242Y2081D01*
X240Y2081D01*
X240Y2083D01*
X238Y2083D01*
X238Y2085D01*
X236Y2085D01*
X236Y2087D01*
X234Y2087D01*
X234Y2091D01*
X214Y2091D01*
G37*
D02*
G36*
X114Y1991D02*
X114Y1933D01*
X134Y1933D01*
X134Y1935D01*
X136Y1935D01*
X136Y1939D01*
X138Y1939D01*
X138Y1941D01*
X140Y1941D01*
X140Y1943D01*
X142Y1943D01*
X142Y1945D01*
X144Y1945D01*
X144Y1947D01*
X146Y1947D01*
X146Y1949D01*
X150Y1949D01*
X150Y1951D01*
X152Y1951D01*
X152Y1973D01*
X148Y1973D01*
X148Y1975D01*
X146Y1975D01*
X146Y1977D01*
X144Y1977D01*
X144Y1979D01*
X142Y1979D01*
X142Y1981D01*
X140Y1981D01*
X140Y1983D01*
X138Y1983D01*
X138Y1985D01*
X136Y1985D01*
X136Y1987D01*
X134Y1987D01*
X134Y1991D01*
X114Y1991D01*
G37*
D02*
G36*
X214Y1991D02*
X214Y1987D01*
X212Y1987D01*
X212Y1985D01*
X210Y1985D01*
X210Y1983D01*
X208Y1983D01*
X208Y1981D01*
X206Y1981D01*
X206Y1979D01*
X204Y1979D01*
X204Y1977D01*
X202Y1977D01*
X202Y1975D01*
X200Y1975D01*
X200Y1973D01*
X198Y1973D01*
X198Y1971D01*
X196Y1971D01*
X196Y1951D01*
X200Y1951D01*
X200Y1949D01*
X202Y1949D01*
X202Y1947D01*
X204Y1947D01*
X204Y1945D01*
X206Y1945D01*
X206Y1943D01*
X208Y1943D01*
X208Y1941D01*
X210Y1941D01*
X210Y1939D01*
X212Y1939D01*
X212Y1935D01*
X214Y1935D01*
X214Y1933D01*
X234Y1933D01*
X234Y1935D01*
X236Y1935D01*
X236Y1939D01*
X238Y1939D01*
X238Y1941D01*
X240Y1941D01*
X240Y1943D01*
X242Y1943D01*
X242Y1945D01*
X244Y1945D01*
X244Y1947D01*
X246Y1947D01*
X246Y1949D01*
X250Y1949D01*
X250Y1951D01*
X252Y1951D01*
X252Y1973D01*
X248Y1973D01*
X248Y1975D01*
X246Y1975D01*
X246Y1977D01*
X244Y1977D01*
X244Y1979D01*
X242Y1979D01*
X242Y1981D01*
X240Y1981D01*
X240Y1983D01*
X238Y1983D01*
X238Y1985D01*
X236Y1985D01*
X236Y1987D01*
X234Y1987D01*
X234Y1991D01*
X214Y1991D01*
G37*
D02*
G36*
X1100Y2239D02*
X1100Y2237D01*
X1098Y2237D01*
X1098Y2233D01*
X1096Y2233D01*
X1096Y2229D01*
X1094Y2229D01*
X1094Y2227D01*
X1092Y2227D01*
X1092Y2225D01*
X1090Y2225D01*
X1090Y2223D01*
X1088Y2223D01*
X1088Y2221D01*
X1086Y2221D01*
X1086Y2219D01*
X1084Y2219D01*
X1084Y2217D01*
X1082Y2217D01*
X1082Y2215D01*
X1078Y2215D01*
X1078Y2213D01*
X1074Y2213D01*
X1074Y2211D01*
X1070Y2211D01*
X1070Y2209D01*
X1064Y2209D01*
X1064Y2207D01*
X1402Y2207D01*
X1402Y2229D01*
X1400Y2229D01*
X1400Y2231D01*
X1398Y2231D01*
X1398Y2233D01*
X1396Y2233D01*
X1396Y2235D01*
X1394Y2235D01*
X1394Y2237D01*
X1392Y2237D01*
X1392Y2239D01*
X1100Y2239D01*
G37*
D02*
G36*
X992Y2231D02*
X992Y2207D01*
X1042Y2207D01*
X1042Y2209D01*
X1036Y2209D01*
X1036Y2211D01*
X1032Y2211D01*
X1032Y2213D01*
X1028Y2213D01*
X1028Y2215D01*
X1026Y2215D01*
X1026Y2217D01*
X1024Y2217D01*
X1024Y2219D01*
X1020Y2219D01*
X1020Y2221D01*
X1018Y2221D01*
X1018Y2223D01*
X1016Y2223D01*
X1016Y2225D01*
X1014Y2225D01*
X1014Y2229D01*
X1012Y2229D01*
X1012Y2231D01*
X992Y2231D01*
G37*
D02*
G36*
X992Y2207D02*
X992Y2205D01*
X1402Y2205D01*
X1402Y2207D01*
X992Y2207D01*
G37*
D02*
G36*
X992Y2207D02*
X992Y2205D01*
X1402Y2205D01*
X1402Y2207D01*
X992Y2207D01*
G37*
D02*
G36*
X992Y2205D02*
X992Y2193D01*
X1312Y2193D01*
X1312Y2191D01*
X1320Y2191D01*
X1320Y2189D01*
X1326Y2189D01*
X1326Y2187D01*
X1332Y2187D01*
X1332Y2185D01*
X1336Y2185D01*
X1336Y2183D01*
X1338Y2183D01*
X1338Y2181D01*
X1342Y2181D01*
X1342Y2179D01*
X1344Y2179D01*
X1344Y2177D01*
X1348Y2177D01*
X1348Y2175D01*
X1350Y2175D01*
X1350Y2173D01*
X1352Y2173D01*
X1352Y2171D01*
X1354Y2171D01*
X1354Y2169D01*
X1356Y2169D01*
X1356Y2167D01*
X1358Y2167D01*
X1358Y2165D01*
X1360Y2165D01*
X1360Y2163D01*
X1362Y2163D01*
X1362Y2159D01*
X1364Y2159D01*
X1364Y2157D01*
X1366Y2157D01*
X1366Y2153D01*
X1368Y2153D01*
X1368Y2149D01*
X1370Y2149D01*
X1370Y2145D01*
X1372Y2145D01*
X1372Y2141D01*
X1374Y2141D01*
X1374Y2135D01*
X1376Y2135D01*
X1376Y2125D01*
X1378Y2125D01*
X1378Y2103D01*
X1376Y2103D01*
X1376Y2093D01*
X1374Y2093D01*
X1374Y2087D01*
X1372Y2087D01*
X1372Y2083D01*
X1370Y2083D01*
X1370Y2079D01*
X1368Y2079D01*
X1368Y2075D01*
X1366Y2075D01*
X1366Y2073D01*
X1364Y2073D01*
X1364Y2069D01*
X1362Y2069D01*
X1362Y2067D01*
X1360Y2067D01*
X1360Y2065D01*
X1358Y2065D01*
X1358Y2061D01*
X1356Y2061D01*
X1356Y2059D01*
X1354Y2059D01*
X1354Y2057D01*
X1350Y2057D01*
X1350Y2055D01*
X1348Y2055D01*
X1348Y2053D01*
X1346Y2053D01*
X1346Y2051D01*
X1344Y2051D01*
X1344Y2049D01*
X1340Y2049D01*
X1340Y2047D01*
X1338Y2047D01*
X1338Y2045D01*
X1334Y2045D01*
X1334Y2043D01*
X1330Y2043D01*
X1330Y2041D01*
X1324Y2041D01*
X1324Y2039D01*
X1318Y2039D01*
X1318Y2037D01*
X1308Y2037D01*
X1308Y2035D01*
X1402Y2035D01*
X1402Y2205D01*
X992Y2205D01*
G37*
D02*
G36*
X992Y2193D02*
X992Y2067D01*
X1056Y2067D01*
X1056Y2065D01*
X1064Y2065D01*
X1064Y2063D01*
X1070Y2063D01*
X1070Y2061D01*
X1072Y2061D01*
X1072Y2059D01*
X1076Y2059D01*
X1076Y2057D01*
X1080Y2057D01*
X1080Y2055D01*
X1082Y2055D01*
X1082Y2053D01*
X1084Y2053D01*
X1084Y2051D01*
X1086Y2051D01*
X1086Y2049D01*
X1088Y2049D01*
X1088Y2047D01*
X1090Y2047D01*
X1090Y2045D01*
X1092Y2045D01*
X1092Y2041D01*
X1094Y2041D01*
X1094Y2039D01*
X1096Y2039D01*
X1096Y2035D01*
X1290Y2035D01*
X1290Y2037D01*
X1280Y2037D01*
X1280Y2039D01*
X1274Y2039D01*
X1274Y2041D01*
X1268Y2041D01*
X1268Y2043D01*
X1264Y2043D01*
X1264Y2045D01*
X1262Y2045D01*
X1262Y2047D01*
X1258Y2047D01*
X1258Y2049D01*
X1254Y2049D01*
X1254Y2051D01*
X1252Y2051D01*
X1252Y2053D01*
X1250Y2053D01*
X1250Y2055D01*
X1248Y2055D01*
X1248Y2057D01*
X1246Y2057D01*
X1246Y2059D01*
X1244Y2059D01*
X1244Y2061D01*
X1242Y2061D01*
X1242Y2063D01*
X1240Y2063D01*
X1240Y2065D01*
X1238Y2065D01*
X1238Y2067D01*
X1236Y2067D01*
X1236Y2069D01*
X1234Y2069D01*
X1234Y2073D01*
X1232Y2073D01*
X1232Y2075D01*
X1230Y2075D01*
X1230Y2079D01*
X1228Y2079D01*
X1228Y2083D01*
X1226Y2083D01*
X1226Y2089D01*
X1224Y2089D01*
X1224Y2095D01*
X1222Y2095D01*
X1222Y2105D01*
X1220Y2105D01*
X1220Y2125D01*
X1222Y2125D01*
X1222Y2135D01*
X1224Y2135D01*
X1224Y2141D01*
X1226Y2141D01*
X1226Y2145D01*
X1228Y2145D01*
X1228Y2149D01*
X1230Y2149D01*
X1230Y2153D01*
X1232Y2153D01*
X1232Y2157D01*
X1234Y2157D01*
X1234Y2159D01*
X1236Y2159D01*
X1236Y2161D01*
X1238Y2161D01*
X1238Y2165D01*
X1240Y2165D01*
X1240Y2167D01*
X1242Y2167D01*
X1242Y2169D01*
X1244Y2169D01*
X1244Y2171D01*
X1246Y2171D01*
X1246Y2173D01*
X1248Y2173D01*
X1248Y2175D01*
X1252Y2175D01*
X1252Y2177D01*
X1254Y2177D01*
X1254Y2179D01*
X1256Y2179D01*
X1256Y2181D01*
X1260Y2181D01*
X1260Y2183D01*
X1264Y2183D01*
X1264Y2185D01*
X1268Y2185D01*
X1268Y2187D01*
X1272Y2187D01*
X1272Y2189D01*
X1278Y2189D01*
X1278Y2191D01*
X1286Y2191D01*
X1286Y2193D01*
X992Y2193D01*
G37*
D02*
G36*
X992Y2067D02*
X992Y2045D01*
X1012Y2045D01*
X1012Y2047D01*
X1014Y2047D01*
X1014Y2051D01*
X1016Y2051D01*
X1016Y2053D01*
X1020Y2053D01*
X1020Y2055D01*
X1022Y2055D01*
X1022Y2057D01*
X1024Y2057D01*
X1024Y2059D01*
X1028Y2059D01*
X1028Y2061D01*
X1032Y2061D01*
X1032Y2063D01*
X1036Y2063D01*
X1036Y2065D01*
X1044Y2065D01*
X1044Y2067D01*
X992Y2067D01*
G37*
D02*
G36*
X1098Y2035D02*
X1098Y2033D01*
X1402Y2033D01*
X1402Y2035D01*
X1098Y2035D01*
G37*
D02*
G36*
X1098Y2035D02*
X1098Y2033D01*
X1402Y2033D01*
X1402Y2035D01*
X1098Y2035D01*
G37*
D02*
G36*
X1098Y2033D02*
X1098Y2031D01*
X1100Y2031D01*
X1100Y2025D01*
X1102Y2025D01*
X1102Y2005D01*
X1100Y2005D01*
X1100Y1999D01*
X1098Y1999D01*
X1098Y1995D01*
X1096Y1995D01*
X1096Y1991D01*
X1094Y1991D01*
X1094Y1987D01*
X1092Y1987D01*
X1092Y1985D01*
X1090Y1985D01*
X1090Y1983D01*
X1088Y1983D01*
X1088Y1981D01*
X1086Y1981D01*
X1086Y1979D01*
X1084Y1979D01*
X1084Y1977D01*
X1082Y1977D01*
X1082Y1975D01*
X1080Y1975D01*
X1080Y1973D01*
X1076Y1973D01*
X1076Y1971D01*
X1074Y1971D01*
X1074Y1969D01*
X1070Y1969D01*
X1070Y1967D01*
X1066Y1967D01*
X1066Y1965D01*
X1058Y1965D01*
X1058Y1963D01*
X1402Y1963D01*
X1402Y2033D01*
X1098Y2033D01*
G37*
D02*
G36*
X992Y1985D02*
X992Y1963D01*
X1042Y1963D01*
X1042Y1965D01*
X1036Y1965D01*
X1036Y1967D01*
X1030Y1967D01*
X1030Y1969D01*
X1028Y1969D01*
X1028Y1971D01*
X1024Y1971D01*
X1024Y1973D01*
X1022Y1973D01*
X1022Y1975D01*
X1020Y1975D01*
X1020Y1977D01*
X1016Y1977D01*
X1016Y1979D01*
X1014Y1979D01*
X1014Y1981D01*
X1012Y1981D01*
X1012Y1985D01*
X992Y1985D01*
G37*
D02*
G36*
X992Y1963D02*
X992Y1961D01*
X1402Y1961D01*
X1402Y1963D01*
X992Y1963D01*
G37*
D02*
G36*
X992Y1963D02*
X992Y1961D01*
X1402Y1961D01*
X1402Y1963D01*
X992Y1963D01*
G37*
D02*
G36*
X992Y1961D02*
X992Y1927D01*
X1062Y1927D01*
X1062Y1925D01*
X1068Y1925D01*
X1068Y1923D01*
X1072Y1923D01*
X1072Y1921D01*
X1074Y1921D01*
X1074Y1919D01*
X1078Y1919D01*
X1078Y1917D01*
X1080Y1917D01*
X1080Y1915D01*
X1084Y1915D01*
X1084Y1913D01*
X1086Y1913D01*
X1086Y1911D01*
X1088Y1911D01*
X1088Y1907D01*
X1090Y1907D01*
X1090Y1905D01*
X1092Y1905D01*
X1092Y1903D01*
X1094Y1903D01*
X1094Y1899D01*
X1096Y1899D01*
X1096Y1897D01*
X1098Y1897D01*
X1098Y1891D01*
X1100Y1891D01*
X1100Y1885D01*
X1102Y1885D01*
X1102Y1867D01*
X1100Y1867D01*
X1100Y1861D01*
X1098Y1861D01*
X1098Y1855D01*
X1096Y1855D01*
X1096Y1853D01*
X1094Y1853D01*
X1094Y1849D01*
X1092Y1849D01*
X1092Y1847D01*
X1090Y1847D01*
X1090Y1845D01*
X1088Y1845D01*
X1088Y1841D01*
X1086Y1841D01*
X1086Y1839D01*
X1084Y1839D01*
X1084Y1837D01*
X1080Y1837D01*
X1080Y1835D01*
X1078Y1835D01*
X1078Y1833D01*
X1074Y1833D01*
X1074Y1831D01*
X1072Y1831D01*
X1072Y1829D01*
X1068Y1829D01*
X1068Y1827D01*
X1062Y1827D01*
X1062Y1825D01*
X1060Y1825D01*
X1060Y1805D01*
X1066Y1805D01*
X1066Y1803D01*
X1070Y1803D01*
X1070Y1801D01*
X1074Y1801D01*
X1074Y1799D01*
X1076Y1799D01*
X1076Y1797D01*
X1080Y1797D01*
X1080Y1795D01*
X1082Y1795D01*
X1082Y1793D01*
X1084Y1793D01*
X1084Y1791D01*
X1086Y1791D01*
X1086Y1789D01*
X1088Y1789D01*
X1088Y1787D01*
X1090Y1787D01*
X1090Y1785D01*
X1092Y1785D01*
X1092Y1781D01*
X1094Y1781D01*
X1094Y1777D01*
X1096Y1777D01*
X1096Y1775D01*
X1098Y1775D01*
X1098Y1769D01*
X1100Y1769D01*
X1100Y1759D01*
X1102Y1759D01*
X1102Y1751D01*
X1100Y1751D01*
X1100Y1743D01*
X1098Y1743D01*
X1098Y1737D01*
X1096Y1737D01*
X1096Y1733D01*
X1094Y1733D01*
X1094Y1731D01*
X1092Y1731D01*
X1092Y1727D01*
X1090Y1727D01*
X1090Y1725D01*
X1088Y1725D01*
X1088Y1723D01*
X1086Y1723D01*
X1086Y1721D01*
X1084Y1721D01*
X1084Y1719D01*
X1082Y1719D01*
X1082Y1717D01*
X1080Y1717D01*
X1080Y1715D01*
X1078Y1715D01*
X1078Y1713D01*
X1074Y1713D01*
X1074Y1711D01*
X1072Y1711D01*
X1072Y1709D01*
X1068Y1709D01*
X1068Y1707D01*
X1062Y1707D01*
X1062Y1687D01*
X1064Y1687D01*
X1064Y1685D01*
X1070Y1685D01*
X1070Y1683D01*
X1072Y1683D01*
X1072Y1681D01*
X1076Y1681D01*
X1076Y1679D01*
X1078Y1679D01*
X1078Y1677D01*
X1082Y1677D01*
X1082Y1675D01*
X1084Y1675D01*
X1084Y1673D01*
X1086Y1673D01*
X1086Y1671D01*
X1088Y1671D01*
X1088Y1667D01*
X1090Y1667D01*
X1090Y1665D01*
X1092Y1665D01*
X1092Y1663D01*
X1094Y1663D01*
X1094Y1659D01*
X1096Y1659D01*
X1096Y1655D01*
X1098Y1655D01*
X1098Y1651D01*
X1100Y1651D01*
X1100Y1641D01*
X1102Y1641D01*
X1102Y1633D01*
X1100Y1633D01*
X1100Y1623D01*
X1098Y1623D01*
X1098Y1619D01*
X1096Y1619D01*
X1096Y1615D01*
X1094Y1615D01*
X1094Y1611D01*
X1092Y1611D01*
X1092Y1609D01*
X1090Y1609D01*
X1090Y1607D01*
X1088Y1607D01*
X1088Y1603D01*
X1086Y1603D01*
X1086Y1601D01*
X1084Y1601D01*
X1084Y1599D01*
X1080Y1599D01*
X1080Y1597D01*
X1078Y1597D01*
X1078Y1595D01*
X1076Y1595D01*
X1076Y1593D01*
X1072Y1593D01*
X1072Y1591D01*
X1068Y1591D01*
X1068Y1589D01*
X1064Y1589D01*
X1064Y1587D01*
X1062Y1587D01*
X1062Y1567D01*
X1068Y1567D01*
X1068Y1565D01*
X1072Y1565D01*
X1072Y1563D01*
X1074Y1563D01*
X1074Y1561D01*
X1078Y1561D01*
X1078Y1559D01*
X1080Y1559D01*
X1080Y1557D01*
X1082Y1557D01*
X1082Y1555D01*
X1086Y1555D01*
X1086Y1551D01*
X1088Y1551D01*
X1088Y1549D01*
X1090Y1549D01*
X1090Y1547D01*
X1092Y1547D01*
X1092Y1543D01*
X1094Y1543D01*
X1094Y1541D01*
X1096Y1541D01*
X1096Y1537D01*
X1098Y1537D01*
X1098Y1531D01*
X1100Y1531D01*
X1100Y1523D01*
X1102Y1523D01*
X1102Y1515D01*
X1100Y1515D01*
X1100Y1505D01*
X1098Y1505D01*
X1098Y1501D01*
X1096Y1501D01*
X1096Y1497D01*
X1094Y1497D01*
X1094Y1493D01*
X1092Y1493D01*
X1092Y1491D01*
X1090Y1491D01*
X1090Y1487D01*
X1088Y1487D01*
X1088Y1485D01*
X1086Y1485D01*
X1086Y1483D01*
X1084Y1483D01*
X1084Y1481D01*
X1082Y1481D01*
X1082Y1479D01*
X1080Y1479D01*
X1080Y1477D01*
X1076Y1477D01*
X1076Y1475D01*
X1074Y1475D01*
X1074Y1473D01*
X1070Y1473D01*
X1070Y1471D01*
X1066Y1471D01*
X1066Y1469D01*
X1062Y1469D01*
X1062Y1449D01*
X1066Y1449D01*
X1066Y1447D01*
X1070Y1447D01*
X1070Y1445D01*
X1074Y1445D01*
X1074Y1443D01*
X1078Y1443D01*
X1078Y1441D01*
X1080Y1441D01*
X1080Y1439D01*
X1082Y1439D01*
X1082Y1437D01*
X1084Y1437D01*
X1084Y1435D01*
X1086Y1435D01*
X1086Y1433D01*
X1088Y1433D01*
X1088Y1431D01*
X1090Y1431D01*
X1090Y1429D01*
X1092Y1429D01*
X1092Y1425D01*
X1094Y1425D01*
X1094Y1423D01*
X1096Y1423D01*
X1096Y1419D01*
X1098Y1419D01*
X1098Y1413D01*
X1100Y1413D01*
X1100Y1403D01*
X1102Y1403D01*
X1102Y1397D01*
X1100Y1397D01*
X1100Y1387D01*
X1098Y1387D01*
X1098Y1381D01*
X1096Y1381D01*
X1096Y1379D01*
X1094Y1379D01*
X1094Y1375D01*
X1092Y1375D01*
X1092Y1371D01*
X1090Y1371D01*
X1090Y1369D01*
X1088Y1369D01*
X1088Y1367D01*
X1086Y1367D01*
X1086Y1365D01*
X1084Y1365D01*
X1084Y1363D01*
X1082Y1363D01*
X1082Y1361D01*
X1080Y1361D01*
X1080Y1359D01*
X1078Y1359D01*
X1078Y1357D01*
X1074Y1357D01*
X1074Y1355D01*
X1070Y1355D01*
X1070Y1353D01*
X1066Y1353D01*
X1066Y1351D01*
X1060Y1351D01*
X1060Y1331D01*
X1066Y1331D01*
X1066Y1329D01*
X1070Y1329D01*
X1070Y1327D01*
X1074Y1327D01*
X1074Y1325D01*
X1076Y1325D01*
X1076Y1323D01*
X1080Y1323D01*
X1080Y1321D01*
X1082Y1321D01*
X1082Y1319D01*
X1084Y1319D01*
X1084Y1317D01*
X1086Y1317D01*
X1086Y1315D01*
X1088Y1315D01*
X1088Y1313D01*
X1090Y1313D01*
X1090Y1311D01*
X1092Y1311D01*
X1092Y1307D01*
X1094Y1307D01*
X1094Y1303D01*
X1096Y1303D01*
X1096Y1299D01*
X1098Y1299D01*
X1098Y1295D01*
X1100Y1295D01*
X1100Y1285D01*
X1102Y1285D01*
X1102Y1277D01*
X1100Y1277D01*
X1100Y1269D01*
X1098Y1269D01*
X1098Y1263D01*
X1096Y1263D01*
X1096Y1259D01*
X1094Y1259D01*
X1094Y1257D01*
X1092Y1257D01*
X1092Y1253D01*
X1090Y1253D01*
X1090Y1251D01*
X1088Y1251D01*
X1088Y1249D01*
X1086Y1249D01*
X1086Y1247D01*
X1084Y1247D01*
X1084Y1245D01*
X1082Y1245D01*
X1082Y1243D01*
X1080Y1243D01*
X1080Y1241D01*
X1078Y1241D01*
X1078Y1239D01*
X1074Y1239D01*
X1074Y1237D01*
X1072Y1237D01*
X1072Y1235D01*
X1068Y1235D01*
X1068Y1213D01*
X1072Y1213D01*
X1072Y1211D01*
X1074Y1211D01*
X1074Y1209D01*
X1078Y1209D01*
X1078Y1207D01*
X1080Y1207D01*
X1080Y1205D01*
X1082Y1205D01*
X1082Y1203D01*
X1086Y1203D01*
X1086Y1201D01*
X1088Y1201D01*
X1088Y1197D01*
X1090Y1197D01*
X1090Y1195D01*
X1092Y1195D01*
X1092Y1193D01*
X1094Y1193D01*
X1094Y1189D01*
X1096Y1189D01*
X1096Y1187D01*
X1098Y1187D01*
X1098Y1181D01*
X1100Y1181D01*
X1100Y1175D01*
X1102Y1175D01*
X1102Y1157D01*
X1100Y1157D01*
X1100Y1151D01*
X1098Y1151D01*
X1098Y1145D01*
X1096Y1145D01*
X1096Y1143D01*
X1094Y1143D01*
X1094Y1139D01*
X1092Y1139D01*
X1092Y1137D01*
X1090Y1137D01*
X1090Y1133D01*
X1088Y1133D01*
X1088Y1131D01*
X1086Y1131D01*
X1086Y1129D01*
X1084Y1129D01*
X1084Y1127D01*
X1080Y1127D01*
X1080Y1125D01*
X1078Y1125D01*
X1078Y1123D01*
X1076Y1123D01*
X1076Y1121D01*
X1072Y1121D01*
X1072Y1119D01*
X1068Y1119D01*
X1068Y1117D01*
X1062Y1117D01*
X1062Y1097D01*
X1064Y1097D01*
X1064Y1095D01*
X1068Y1095D01*
X1068Y1093D01*
X1072Y1093D01*
X1072Y1091D01*
X1076Y1091D01*
X1076Y1089D01*
X1078Y1089D01*
X1078Y1087D01*
X1080Y1087D01*
X1080Y1085D01*
X1082Y1085D01*
X1082Y1083D01*
X1084Y1083D01*
X1084Y1081D01*
X1086Y1081D01*
X1086Y1079D01*
X1088Y1079D01*
X1088Y1077D01*
X1090Y1077D01*
X1090Y1075D01*
X1092Y1075D01*
X1092Y1071D01*
X1094Y1071D01*
X1094Y1067D01*
X1096Y1067D01*
X1096Y1063D01*
X1098Y1063D01*
X1098Y1055D01*
X1100Y1055D01*
X1100Y1039D01*
X1098Y1039D01*
X1098Y1033D01*
X1096Y1033D01*
X1096Y1029D01*
X1094Y1029D01*
X1094Y1025D01*
X1092Y1025D01*
X1092Y1021D01*
X1090Y1021D01*
X1090Y1019D01*
X1088Y1019D01*
X1088Y1017D01*
X1086Y1017D01*
X1086Y1013D01*
X1084Y1013D01*
X1084Y1011D01*
X1082Y1011D01*
X1082Y1009D01*
X1078Y1009D01*
X1078Y1007D01*
X1076Y1007D01*
X1076Y1005D01*
X1074Y1005D01*
X1074Y1003D01*
X1070Y1003D01*
X1070Y1001D01*
X1066Y1001D01*
X1066Y999D01*
X1062Y999D01*
X1062Y979D01*
X1068Y979D01*
X1068Y977D01*
X1072Y977D01*
X1072Y975D01*
X1076Y975D01*
X1076Y973D01*
X1078Y973D01*
X1078Y971D01*
X1080Y971D01*
X1080Y969D01*
X1084Y969D01*
X1084Y967D01*
X1086Y967D01*
X1086Y965D01*
X1088Y965D01*
X1088Y963D01*
X1090Y963D01*
X1090Y961D01*
X1092Y961D01*
X1092Y957D01*
X1094Y957D01*
X1094Y955D01*
X1096Y955D01*
X1096Y951D01*
X1098Y951D01*
X1098Y947D01*
X1100Y947D01*
X1100Y941D01*
X1102Y941D01*
X1102Y917D01*
X1100Y917D01*
X1100Y911D01*
X1098Y911D01*
X1098Y907D01*
X1096Y907D01*
X1096Y905D01*
X1094Y905D01*
X1094Y901D01*
X1092Y901D01*
X1092Y899D01*
X1090Y899D01*
X1090Y897D01*
X1088Y897D01*
X1088Y895D01*
X1086Y895D01*
X1086Y893D01*
X1084Y893D01*
X1084Y891D01*
X1082Y891D01*
X1082Y889D01*
X1080Y889D01*
X1080Y887D01*
X1076Y887D01*
X1076Y885D01*
X1074Y885D01*
X1074Y883D01*
X1070Y883D01*
X1070Y881D01*
X1064Y881D01*
X1064Y859D01*
X1070Y859D01*
X1070Y857D01*
X1072Y857D01*
X1072Y855D01*
X1076Y855D01*
X1076Y853D01*
X1080Y853D01*
X1080Y851D01*
X1160Y851D01*
X1160Y849D01*
X1166Y849D01*
X1166Y847D01*
X1170Y847D01*
X1170Y845D01*
X1172Y845D01*
X1172Y843D01*
X1174Y843D01*
X1174Y841D01*
X1178Y841D01*
X1178Y839D01*
X1180Y839D01*
X1180Y837D01*
X1182Y837D01*
X1182Y835D01*
X1184Y835D01*
X1184Y833D01*
X1186Y833D01*
X1186Y831D01*
X1188Y831D01*
X1188Y829D01*
X1190Y829D01*
X1190Y827D01*
X1192Y827D01*
X1192Y825D01*
X1194Y825D01*
X1194Y823D01*
X1196Y823D01*
X1196Y821D01*
X1198Y821D01*
X1198Y819D01*
X1200Y819D01*
X1200Y817D01*
X1202Y817D01*
X1202Y815D01*
X1204Y815D01*
X1204Y811D01*
X1206Y811D01*
X1206Y809D01*
X1208Y809D01*
X1208Y805D01*
X1210Y805D01*
X1210Y803D01*
X1212Y803D01*
X1212Y795D01*
X1214Y795D01*
X1214Y427D01*
X1212Y427D01*
X1212Y421D01*
X1210Y421D01*
X1210Y417D01*
X1208Y417D01*
X1208Y413D01*
X1206Y413D01*
X1206Y411D01*
X1204Y411D01*
X1204Y409D01*
X1202Y409D01*
X1202Y407D01*
X1200Y407D01*
X1200Y405D01*
X1198Y405D01*
X1198Y403D01*
X1196Y403D01*
X1196Y401D01*
X1194Y401D01*
X1194Y399D01*
X1192Y399D01*
X1192Y397D01*
X1190Y397D01*
X1190Y395D01*
X1188Y395D01*
X1188Y393D01*
X1186Y393D01*
X1186Y391D01*
X1184Y391D01*
X1184Y389D01*
X1314Y389D01*
X1314Y387D01*
X1322Y387D01*
X1322Y385D01*
X1328Y385D01*
X1328Y383D01*
X1332Y383D01*
X1332Y381D01*
X1336Y381D01*
X1336Y379D01*
X1340Y379D01*
X1340Y377D01*
X1342Y377D01*
X1342Y375D01*
X1344Y375D01*
X1344Y373D01*
X1348Y373D01*
X1348Y371D01*
X1350Y371D01*
X1350Y369D01*
X1352Y369D01*
X1352Y367D01*
X1354Y367D01*
X1354Y365D01*
X1356Y365D01*
X1356Y363D01*
X1358Y363D01*
X1358Y361D01*
X1360Y361D01*
X1360Y359D01*
X1362Y359D01*
X1362Y355D01*
X1364Y355D01*
X1364Y353D01*
X1366Y353D01*
X1366Y349D01*
X1368Y349D01*
X1368Y347D01*
X1370Y347D01*
X1370Y343D01*
X1372Y343D01*
X1372Y337D01*
X1374Y337D01*
X1374Y331D01*
X1376Y331D01*
X1376Y323D01*
X1378Y323D01*
X1378Y299D01*
X1376Y299D01*
X1376Y291D01*
X1374Y291D01*
X1374Y285D01*
X1372Y285D01*
X1372Y279D01*
X1370Y279D01*
X1370Y275D01*
X1368Y275D01*
X1368Y271D01*
X1366Y271D01*
X1366Y269D01*
X1364Y269D01*
X1364Y265D01*
X1362Y265D01*
X1362Y263D01*
X1360Y263D01*
X1360Y261D01*
X1358Y261D01*
X1358Y259D01*
X1356Y259D01*
X1356Y257D01*
X1354Y257D01*
X1354Y255D01*
X1352Y255D01*
X1352Y253D01*
X1350Y253D01*
X1350Y233D01*
X1390Y233D01*
X1390Y235D01*
X1392Y235D01*
X1392Y237D01*
X1394Y237D01*
X1394Y239D01*
X1396Y239D01*
X1396Y241D01*
X1398Y241D01*
X1398Y243D01*
X1400Y243D01*
X1400Y245D01*
X1402Y245D01*
X1402Y1961D01*
X992Y1961D01*
G37*
D02*
G36*
X992Y1927D02*
X992Y1907D01*
X1012Y1907D01*
X1012Y1909D01*
X1014Y1909D01*
X1014Y1911D01*
X1016Y1911D01*
X1016Y1913D01*
X1018Y1913D01*
X1018Y1915D01*
X1020Y1915D01*
X1020Y1917D01*
X1022Y1917D01*
X1022Y1919D01*
X1026Y1919D01*
X1026Y1921D01*
X1030Y1921D01*
X1030Y1923D01*
X1034Y1923D01*
X1034Y1925D01*
X1040Y1925D01*
X1040Y1927D01*
X992Y1927D01*
G37*
D02*
G36*
X1182Y389D02*
X1182Y387D01*
X1180Y387D01*
X1180Y385D01*
X1178Y385D01*
X1178Y383D01*
X1176Y383D01*
X1176Y381D01*
X1174Y381D01*
X1174Y379D01*
X1172Y379D01*
X1172Y377D01*
X1170Y377D01*
X1170Y375D01*
X1168Y375D01*
X1168Y373D01*
X1166Y373D01*
X1166Y371D01*
X1164Y371D01*
X1164Y369D01*
X1162Y369D01*
X1162Y367D01*
X1160Y367D01*
X1160Y365D01*
X1158Y365D01*
X1158Y363D01*
X1156Y363D01*
X1156Y361D01*
X1154Y361D01*
X1154Y359D01*
X1152Y359D01*
X1152Y357D01*
X1150Y357D01*
X1150Y355D01*
X1148Y355D01*
X1148Y353D01*
X1144Y353D01*
X1144Y351D01*
X1140Y351D01*
X1140Y349D01*
X1134Y349D01*
X1134Y347D01*
X1120Y347D01*
X1120Y327D01*
X1124Y327D01*
X1124Y325D01*
X1126Y325D01*
X1126Y323D01*
X1128Y323D01*
X1128Y321D01*
X1130Y321D01*
X1130Y319D01*
X1132Y319D01*
X1132Y317D01*
X1134Y317D01*
X1134Y315D01*
X1136Y315D01*
X1136Y313D01*
X1138Y313D01*
X1138Y309D01*
X1140Y309D01*
X1140Y307D01*
X1142Y307D01*
X1142Y303D01*
X1144Y303D01*
X1144Y297D01*
X1146Y297D01*
X1146Y277D01*
X1144Y277D01*
X1144Y271D01*
X1142Y271D01*
X1142Y267D01*
X1140Y267D01*
X1140Y263D01*
X1138Y263D01*
X1138Y261D01*
X1136Y261D01*
X1136Y257D01*
X1134Y257D01*
X1134Y255D01*
X1132Y255D01*
X1132Y233D01*
X1248Y233D01*
X1248Y253D01*
X1246Y253D01*
X1246Y255D01*
X1244Y255D01*
X1244Y257D01*
X1242Y257D01*
X1242Y259D01*
X1240Y259D01*
X1240Y261D01*
X1238Y261D01*
X1238Y263D01*
X1236Y263D01*
X1236Y265D01*
X1234Y265D01*
X1234Y269D01*
X1232Y269D01*
X1232Y273D01*
X1230Y273D01*
X1230Y275D01*
X1228Y275D01*
X1228Y279D01*
X1226Y279D01*
X1226Y285D01*
X1224Y285D01*
X1224Y291D01*
X1222Y291D01*
X1222Y301D01*
X1220Y301D01*
X1220Y321D01*
X1222Y321D01*
X1222Y331D01*
X1224Y331D01*
X1224Y337D01*
X1226Y337D01*
X1226Y341D01*
X1228Y341D01*
X1228Y345D01*
X1230Y345D01*
X1230Y349D01*
X1232Y349D01*
X1232Y353D01*
X1234Y353D01*
X1234Y355D01*
X1236Y355D01*
X1236Y359D01*
X1238Y359D01*
X1238Y361D01*
X1240Y361D01*
X1240Y363D01*
X1242Y363D01*
X1242Y365D01*
X1244Y365D01*
X1244Y367D01*
X1246Y367D01*
X1246Y369D01*
X1248Y369D01*
X1248Y371D01*
X1250Y371D01*
X1250Y373D01*
X1254Y373D01*
X1254Y375D01*
X1256Y375D01*
X1256Y377D01*
X1260Y377D01*
X1260Y379D01*
X1262Y379D01*
X1262Y381D01*
X1266Y381D01*
X1266Y383D01*
X1272Y383D01*
X1272Y385D01*
X1276Y385D01*
X1276Y387D01*
X1284Y387D01*
X1284Y389D01*
X1182Y389D01*
G37*
D02*
G36*
X114Y1891D02*
X114Y1833D01*
X134Y1833D01*
X134Y1835D01*
X136Y1835D01*
X136Y1839D01*
X138Y1839D01*
X138Y1841D01*
X140Y1841D01*
X140Y1843D01*
X142Y1843D01*
X142Y1845D01*
X144Y1845D01*
X144Y1847D01*
X146Y1847D01*
X146Y1849D01*
X150Y1849D01*
X150Y1851D01*
X152Y1851D01*
X152Y1873D01*
X148Y1873D01*
X148Y1875D01*
X146Y1875D01*
X146Y1877D01*
X144Y1877D01*
X144Y1879D01*
X142Y1879D01*
X142Y1881D01*
X140Y1881D01*
X140Y1883D01*
X138Y1883D01*
X138Y1885D01*
X136Y1885D01*
X136Y1887D01*
X134Y1887D01*
X134Y1891D01*
X114Y1891D01*
G37*
D02*
G36*
X214Y1891D02*
X214Y1887D01*
X212Y1887D01*
X212Y1885D01*
X210Y1885D01*
X210Y1883D01*
X208Y1883D01*
X208Y1881D01*
X206Y1881D01*
X206Y1879D01*
X204Y1879D01*
X204Y1877D01*
X202Y1877D01*
X202Y1875D01*
X200Y1875D01*
X200Y1873D01*
X198Y1873D01*
X198Y1871D01*
X196Y1871D01*
X196Y1851D01*
X200Y1851D01*
X200Y1849D01*
X202Y1849D01*
X202Y1847D01*
X204Y1847D01*
X204Y1845D01*
X206Y1845D01*
X206Y1843D01*
X208Y1843D01*
X208Y1841D01*
X210Y1841D01*
X210Y1839D01*
X212Y1839D01*
X212Y1835D01*
X214Y1835D01*
X214Y1833D01*
X234Y1833D01*
X234Y1835D01*
X236Y1835D01*
X236Y1839D01*
X238Y1839D01*
X238Y1841D01*
X240Y1841D01*
X240Y1843D01*
X242Y1843D01*
X242Y1845D01*
X244Y1845D01*
X244Y1847D01*
X246Y1847D01*
X246Y1849D01*
X250Y1849D01*
X250Y1851D01*
X252Y1851D01*
X252Y1873D01*
X248Y1873D01*
X248Y1875D01*
X246Y1875D01*
X246Y1877D01*
X244Y1877D01*
X244Y1879D01*
X242Y1879D01*
X242Y1881D01*
X240Y1881D01*
X240Y1883D01*
X238Y1883D01*
X238Y1885D01*
X236Y1885D01*
X236Y1887D01*
X234Y1887D01*
X234Y1891D01*
X214Y1891D01*
G37*
D02*
G36*
X992Y1845D02*
X992Y1787D01*
X1012Y1787D01*
X1012Y1789D01*
X1014Y1789D01*
X1014Y1791D01*
X1016Y1791D01*
X1016Y1793D01*
X1018Y1793D01*
X1018Y1795D01*
X1020Y1795D01*
X1020Y1797D01*
X1022Y1797D01*
X1022Y1799D01*
X1026Y1799D01*
X1026Y1801D01*
X1030Y1801D01*
X1030Y1803D01*
X1034Y1803D01*
X1034Y1805D01*
X1040Y1805D01*
X1040Y1827D01*
X1034Y1827D01*
X1034Y1829D01*
X1030Y1829D01*
X1030Y1831D01*
X1026Y1831D01*
X1026Y1833D01*
X1022Y1833D01*
X1022Y1835D01*
X1020Y1835D01*
X1020Y1837D01*
X1018Y1837D01*
X1018Y1839D01*
X1016Y1839D01*
X1016Y1841D01*
X1014Y1841D01*
X1014Y1843D01*
X1012Y1843D01*
X1012Y1845D01*
X992Y1845D01*
G37*
D02*
G36*
X114Y1791D02*
X114Y1733D01*
X134Y1733D01*
X134Y1735D01*
X136Y1735D01*
X136Y1739D01*
X138Y1739D01*
X138Y1741D01*
X140Y1741D01*
X140Y1743D01*
X142Y1743D01*
X142Y1745D01*
X144Y1745D01*
X144Y1747D01*
X146Y1747D01*
X146Y1749D01*
X150Y1749D01*
X150Y1751D01*
X152Y1751D01*
X152Y1773D01*
X148Y1773D01*
X148Y1775D01*
X146Y1775D01*
X146Y1777D01*
X144Y1777D01*
X144Y1779D01*
X142Y1779D01*
X142Y1781D01*
X140Y1781D01*
X140Y1783D01*
X138Y1783D01*
X138Y1785D01*
X136Y1785D01*
X136Y1787D01*
X134Y1787D01*
X134Y1791D01*
X114Y1791D01*
G37*
D02*
G36*
X214Y1791D02*
X214Y1787D01*
X212Y1787D01*
X212Y1785D01*
X210Y1785D01*
X210Y1783D01*
X208Y1783D01*
X208Y1781D01*
X206Y1781D01*
X206Y1779D01*
X204Y1779D01*
X204Y1777D01*
X202Y1777D01*
X202Y1775D01*
X200Y1775D01*
X200Y1773D01*
X198Y1773D01*
X198Y1771D01*
X196Y1771D01*
X196Y1751D01*
X200Y1751D01*
X200Y1749D01*
X202Y1749D01*
X202Y1747D01*
X204Y1747D01*
X204Y1745D01*
X206Y1745D01*
X206Y1743D01*
X208Y1743D01*
X208Y1741D01*
X210Y1741D01*
X210Y1739D01*
X212Y1739D01*
X212Y1735D01*
X214Y1735D01*
X214Y1733D01*
X234Y1733D01*
X234Y1735D01*
X236Y1735D01*
X236Y1739D01*
X238Y1739D01*
X238Y1741D01*
X240Y1741D01*
X240Y1743D01*
X242Y1743D01*
X242Y1745D01*
X244Y1745D01*
X244Y1747D01*
X246Y1747D01*
X246Y1749D01*
X250Y1749D01*
X250Y1751D01*
X252Y1751D01*
X252Y1773D01*
X248Y1773D01*
X248Y1775D01*
X246Y1775D01*
X246Y1777D01*
X244Y1777D01*
X244Y1779D01*
X242Y1779D01*
X242Y1781D01*
X240Y1781D01*
X240Y1783D01*
X238Y1783D01*
X238Y1785D01*
X236Y1785D01*
X236Y1787D01*
X234Y1787D01*
X234Y1791D01*
X214Y1791D01*
G37*
D02*
G36*
X992Y1723D02*
X992Y1669D01*
X1012Y1669D01*
X1012Y1671D01*
X1014Y1671D01*
X1014Y1673D01*
X1016Y1673D01*
X1016Y1675D01*
X1018Y1675D01*
X1018Y1677D01*
X1020Y1677D01*
X1020Y1679D01*
X1024Y1679D01*
X1024Y1681D01*
X1026Y1681D01*
X1026Y1683D01*
X1030Y1683D01*
X1030Y1685D01*
X1034Y1685D01*
X1034Y1687D01*
X1036Y1687D01*
X1036Y1707D01*
X1032Y1707D01*
X1032Y1709D01*
X1028Y1709D01*
X1028Y1711D01*
X1024Y1711D01*
X1024Y1713D01*
X1022Y1713D01*
X1022Y1715D01*
X1018Y1715D01*
X1018Y1717D01*
X1016Y1717D01*
X1016Y1719D01*
X1014Y1719D01*
X1014Y1721D01*
X1012Y1721D01*
X1012Y1723D01*
X992Y1723D01*
G37*
D02*
G36*
X114Y1691D02*
X114Y1633D01*
X134Y1633D01*
X134Y1635D01*
X136Y1635D01*
X136Y1639D01*
X138Y1639D01*
X138Y1641D01*
X140Y1641D01*
X140Y1643D01*
X142Y1643D01*
X142Y1645D01*
X144Y1645D01*
X144Y1647D01*
X146Y1647D01*
X146Y1649D01*
X150Y1649D01*
X150Y1651D01*
X152Y1651D01*
X152Y1673D01*
X148Y1673D01*
X148Y1675D01*
X146Y1675D01*
X146Y1677D01*
X144Y1677D01*
X144Y1679D01*
X142Y1679D01*
X142Y1681D01*
X140Y1681D01*
X140Y1683D01*
X138Y1683D01*
X138Y1685D01*
X136Y1685D01*
X136Y1687D01*
X134Y1687D01*
X134Y1691D01*
X114Y1691D01*
G37*
D02*
G36*
X214Y1691D02*
X214Y1687D01*
X212Y1687D01*
X212Y1685D01*
X210Y1685D01*
X210Y1683D01*
X208Y1683D01*
X208Y1681D01*
X206Y1681D01*
X206Y1679D01*
X204Y1679D01*
X204Y1677D01*
X202Y1677D01*
X202Y1675D01*
X200Y1675D01*
X200Y1673D01*
X198Y1673D01*
X198Y1671D01*
X196Y1671D01*
X196Y1651D01*
X200Y1651D01*
X200Y1649D01*
X202Y1649D01*
X202Y1647D01*
X204Y1647D01*
X204Y1645D01*
X206Y1645D01*
X206Y1643D01*
X208Y1643D01*
X208Y1641D01*
X210Y1641D01*
X210Y1639D01*
X212Y1639D01*
X212Y1635D01*
X214Y1635D01*
X214Y1633D01*
X234Y1633D01*
X234Y1635D01*
X236Y1635D01*
X236Y1639D01*
X238Y1639D01*
X238Y1641D01*
X240Y1641D01*
X240Y1643D01*
X242Y1643D01*
X242Y1645D01*
X244Y1645D01*
X244Y1647D01*
X246Y1647D01*
X246Y1649D01*
X250Y1649D01*
X250Y1651D01*
X252Y1651D01*
X252Y1673D01*
X248Y1673D01*
X248Y1675D01*
X246Y1675D01*
X246Y1677D01*
X244Y1677D01*
X244Y1679D01*
X242Y1679D01*
X242Y1681D01*
X240Y1681D01*
X240Y1683D01*
X238Y1683D01*
X238Y1685D01*
X236Y1685D01*
X236Y1687D01*
X234Y1687D01*
X234Y1691D01*
X214Y1691D01*
G37*
D02*
G36*
X992Y1605D02*
X992Y1551D01*
X1012Y1551D01*
X1012Y1553D01*
X1014Y1553D01*
X1014Y1555D01*
X1016Y1555D01*
X1016Y1557D01*
X1018Y1557D01*
X1018Y1559D01*
X1022Y1559D01*
X1022Y1561D01*
X1024Y1561D01*
X1024Y1563D01*
X1028Y1563D01*
X1028Y1565D01*
X1032Y1565D01*
X1032Y1567D01*
X1036Y1567D01*
X1036Y1589D01*
X1030Y1589D01*
X1030Y1591D01*
X1026Y1591D01*
X1026Y1593D01*
X1024Y1593D01*
X1024Y1595D01*
X1020Y1595D01*
X1020Y1597D01*
X1018Y1597D01*
X1018Y1599D01*
X1016Y1599D01*
X1016Y1601D01*
X1014Y1601D01*
X1014Y1603D01*
X1012Y1603D01*
X1012Y1605D01*
X992Y1605D01*
G37*
D02*
G36*
X114Y1591D02*
X114Y1533D01*
X134Y1533D01*
X134Y1535D01*
X136Y1535D01*
X136Y1539D01*
X138Y1539D01*
X138Y1541D01*
X140Y1541D01*
X140Y1543D01*
X142Y1543D01*
X142Y1545D01*
X144Y1545D01*
X144Y1547D01*
X146Y1547D01*
X146Y1549D01*
X150Y1549D01*
X150Y1551D01*
X152Y1551D01*
X152Y1573D01*
X148Y1573D01*
X148Y1575D01*
X146Y1575D01*
X146Y1577D01*
X144Y1577D01*
X144Y1579D01*
X142Y1579D01*
X142Y1581D01*
X140Y1581D01*
X140Y1583D01*
X138Y1583D01*
X138Y1585D01*
X136Y1585D01*
X136Y1587D01*
X134Y1587D01*
X134Y1591D01*
X114Y1591D01*
G37*
D02*
G36*
X214Y1591D02*
X214Y1587D01*
X212Y1587D01*
X212Y1585D01*
X210Y1585D01*
X210Y1583D01*
X208Y1583D01*
X208Y1581D01*
X206Y1581D01*
X206Y1579D01*
X204Y1579D01*
X204Y1577D01*
X202Y1577D01*
X202Y1575D01*
X200Y1575D01*
X200Y1573D01*
X198Y1573D01*
X198Y1571D01*
X196Y1571D01*
X196Y1551D01*
X200Y1551D01*
X200Y1549D01*
X202Y1549D01*
X202Y1547D01*
X204Y1547D01*
X204Y1545D01*
X206Y1545D01*
X206Y1543D01*
X208Y1543D01*
X208Y1541D01*
X210Y1541D01*
X210Y1539D01*
X212Y1539D01*
X212Y1535D01*
X214Y1535D01*
X214Y1533D01*
X234Y1533D01*
X234Y1535D01*
X236Y1535D01*
X236Y1539D01*
X238Y1539D01*
X238Y1541D01*
X240Y1541D01*
X240Y1543D01*
X242Y1543D01*
X242Y1545D01*
X244Y1545D01*
X244Y1547D01*
X246Y1547D01*
X246Y1549D01*
X250Y1549D01*
X250Y1551D01*
X252Y1551D01*
X252Y1573D01*
X248Y1573D01*
X248Y1575D01*
X246Y1575D01*
X246Y1577D01*
X244Y1577D01*
X244Y1579D01*
X242Y1579D01*
X242Y1581D01*
X240Y1581D01*
X240Y1583D01*
X238Y1583D01*
X238Y1585D01*
X236Y1585D01*
X236Y1587D01*
X234Y1587D01*
X234Y1591D01*
X214Y1591D01*
G37*
D02*
G36*
X114Y1491D02*
X114Y1433D01*
X134Y1433D01*
X134Y1435D01*
X136Y1435D01*
X136Y1439D01*
X138Y1439D01*
X138Y1441D01*
X140Y1441D01*
X140Y1443D01*
X142Y1443D01*
X142Y1445D01*
X144Y1445D01*
X144Y1447D01*
X146Y1447D01*
X146Y1449D01*
X150Y1449D01*
X150Y1451D01*
X152Y1451D01*
X152Y1473D01*
X148Y1473D01*
X148Y1475D01*
X146Y1475D01*
X146Y1477D01*
X144Y1477D01*
X144Y1479D01*
X142Y1479D01*
X142Y1481D01*
X140Y1481D01*
X140Y1483D01*
X138Y1483D01*
X138Y1485D01*
X136Y1485D01*
X136Y1487D01*
X134Y1487D01*
X134Y1491D01*
X114Y1491D01*
G37*
D02*
G36*
X214Y1491D02*
X214Y1487D01*
X212Y1487D01*
X212Y1485D01*
X210Y1485D01*
X210Y1483D01*
X208Y1483D01*
X208Y1481D01*
X206Y1481D01*
X206Y1479D01*
X204Y1479D01*
X204Y1477D01*
X202Y1477D01*
X202Y1475D01*
X200Y1475D01*
X200Y1473D01*
X198Y1473D01*
X198Y1471D01*
X196Y1471D01*
X196Y1451D01*
X200Y1451D01*
X200Y1449D01*
X202Y1449D01*
X202Y1447D01*
X204Y1447D01*
X204Y1445D01*
X206Y1445D01*
X206Y1443D01*
X208Y1443D01*
X208Y1441D01*
X210Y1441D01*
X210Y1439D01*
X212Y1439D01*
X212Y1435D01*
X214Y1435D01*
X214Y1433D01*
X234Y1433D01*
X234Y1435D01*
X236Y1435D01*
X236Y1439D01*
X238Y1439D01*
X238Y1441D01*
X240Y1441D01*
X240Y1443D01*
X242Y1443D01*
X242Y1445D01*
X244Y1445D01*
X244Y1447D01*
X246Y1447D01*
X246Y1449D01*
X250Y1449D01*
X250Y1451D01*
X252Y1451D01*
X252Y1473D01*
X248Y1473D01*
X248Y1475D01*
X246Y1475D01*
X246Y1477D01*
X244Y1477D01*
X244Y1479D01*
X242Y1479D01*
X242Y1481D01*
X240Y1481D01*
X240Y1483D01*
X238Y1483D01*
X238Y1485D01*
X236Y1485D01*
X236Y1487D01*
X234Y1487D01*
X234Y1491D01*
X214Y1491D01*
G37*
D02*
G36*
X992Y1487D02*
X992Y1431D01*
X1012Y1431D01*
X1012Y1435D01*
X1014Y1435D01*
X1014Y1437D01*
X1016Y1437D01*
X1016Y1439D01*
X1020Y1439D01*
X1020Y1441D01*
X1022Y1441D01*
X1022Y1443D01*
X1026Y1443D01*
X1026Y1445D01*
X1028Y1445D01*
X1028Y1447D01*
X1032Y1447D01*
X1032Y1449D01*
X1038Y1449D01*
X1038Y1469D01*
X1034Y1469D01*
X1034Y1471D01*
X1030Y1471D01*
X1030Y1473D01*
X1026Y1473D01*
X1026Y1475D01*
X1022Y1475D01*
X1022Y1477D01*
X1020Y1477D01*
X1020Y1479D01*
X1018Y1479D01*
X1018Y1481D01*
X1016Y1481D01*
X1016Y1483D01*
X1014Y1483D01*
X1014Y1485D01*
X1012Y1485D01*
X1012Y1487D01*
X992Y1487D01*
G37*
D02*
G36*
X114Y1391D02*
X114Y1333D01*
X134Y1333D01*
X134Y1335D01*
X136Y1335D01*
X136Y1339D01*
X138Y1339D01*
X138Y1341D01*
X140Y1341D01*
X140Y1343D01*
X142Y1343D01*
X142Y1345D01*
X144Y1345D01*
X144Y1347D01*
X146Y1347D01*
X146Y1349D01*
X150Y1349D01*
X150Y1351D01*
X152Y1351D01*
X152Y1373D01*
X148Y1373D01*
X148Y1375D01*
X146Y1375D01*
X146Y1377D01*
X144Y1377D01*
X144Y1379D01*
X142Y1379D01*
X142Y1381D01*
X140Y1381D01*
X140Y1383D01*
X138Y1383D01*
X138Y1385D01*
X136Y1385D01*
X136Y1387D01*
X134Y1387D01*
X134Y1391D01*
X114Y1391D01*
G37*
D02*
G36*
X214Y1391D02*
X214Y1387D01*
X212Y1387D01*
X212Y1385D01*
X210Y1385D01*
X210Y1383D01*
X208Y1383D01*
X208Y1381D01*
X206Y1381D01*
X206Y1379D01*
X204Y1379D01*
X204Y1377D01*
X202Y1377D01*
X202Y1375D01*
X200Y1375D01*
X200Y1373D01*
X198Y1373D01*
X198Y1371D01*
X196Y1371D01*
X196Y1351D01*
X200Y1351D01*
X200Y1349D01*
X202Y1349D01*
X202Y1347D01*
X204Y1347D01*
X204Y1345D01*
X206Y1345D01*
X206Y1343D01*
X208Y1343D01*
X208Y1341D01*
X210Y1341D01*
X210Y1339D01*
X212Y1339D01*
X212Y1335D01*
X214Y1335D01*
X214Y1333D01*
X234Y1333D01*
X234Y1335D01*
X236Y1335D01*
X236Y1339D01*
X238Y1339D01*
X238Y1341D01*
X240Y1341D01*
X240Y1343D01*
X242Y1343D01*
X242Y1345D01*
X244Y1345D01*
X244Y1347D01*
X246Y1347D01*
X246Y1349D01*
X250Y1349D01*
X250Y1351D01*
X252Y1351D01*
X252Y1373D01*
X248Y1373D01*
X248Y1375D01*
X246Y1375D01*
X246Y1377D01*
X244Y1377D01*
X244Y1379D01*
X242Y1379D01*
X242Y1381D01*
X240Y1381D01*
X240Y1383D01*
X238Y1383D01*
X238Y1385D01*
X236Y1385D01*
X236Y1387D01*
X234Y1387D01*
X234Y1391D01*
X214Y1391D01*
G37*
D02*
G36*
X992Y1369D02*
X992Y1313D01*
X1012Y1313D01*
X1012Y1315D01*
X1014Y1315D01*
X1014Y1317D01*
X1016Y1317D01*
X1016Y1319D01*
X1018Y1319D01*
X1018Y1321D01*
X1020Y1321D01*
X1020Y1323D01*
X1022Y1323D01*
X1022Y1325D01*
X1026Y1325D01*
X1026Y1327D01*
X1030Y1327D01*
X1030Y1329D01*
X1034Y1329D01*
X1034Y1331D01*
X1038Y1331D01*
X1038Y1351D01*
X1032Y1351D01*
X1032Y1353D01*
X1028Y1353D01*
X1028Y1355D01*
X1026Y1355D01*
X1026Y1357D01*
X1022Y1357D01*
X1022Y1359D01*
X1020Y1359D01*
X1020Y1361D01*
X1018Y1361D01*
X1018Y1363D01*
X1014Y1363D01*
X1014Y1365D01*
X1012Y1365D01*
X1012Y1369D01*
X992Y1369D01*
G37*
D02*
G36*
X432Y1313D02*
X432Y1311D01*
X430Y1311D01*
X430Y1309D01*
X428Y1309D01*
X428Y1307D01*
X426Y1307D01*
X426Y1305D01*
X424Y1305D01*
X424Y1303D01*
X422Y1303D01*
X422Y1301D01*
X420Y1301D01*
X420Y1299D01*
X418Y1299D01*
X418Y1297D01*
X414Y1297D01*
X414Y1295D01*
X412Y1295D01*
X412Y1293D01*
X410Y1293D01*
X410Y1291D01*
X404Y1291D01*
X404Y1289D01*
X314Y1289D01*
X314Y1287D01*
X312Y1287D01*
X312Y1285D01*
X310Y1285D01*
X310Y1283D01*
X308Y1283D01*
X308Y1281D01*
X306Y1281D01*
X306Y1279D01*
X304Y1279D01*
X304Y1277D01*
X302Y1277D01*
X302Y1275D01*
X300Y1275D01*
X300Y1273D01*
X298Y1273D01*
X298Y1271D01*
X296Y1271D01*
X296Y1251D01*
X300Y1251D01*
X300Y1249D01*
X302Y1249D01*
X302Y1247D01*
X304Y1247D01*
X304Y1245D01*
X306Y1245D01*
X306Y1243D01*
X308Y1243D01*
X308Y1241D01*
X310Y1241D01*
X310Y1239D01*
X312Y1239D01*
X312Y1235D01*
X314Y1235D01*
X314Y1233D01*
X316Y1233D01*
X316Y1229D01*
X318Y1229D01*
X318Y1223D01*
X320Y1223D01*
X320Y1213D01*
X322Y1213D01*
X322Y1209D01*
X320Y1209D01*
X320Y1199D01*
X318Y1199D01*
X318Y1195D01*
X316Y1195D01*
X316Y1191D01*
X314Y1191D01*
X314Y1187D01*
X312Y1187D01*
X312Y1185D01*
X310Y1185D01*
X310Y1183D01*
X308Y1183D01*
X308Y1181D01*
X306Y1181D01*
X306Y1179D01*
X304Y1179D01*
X304Y1177D01*
X302Y1177D01*
X302Y1175D01*
X300Y1175D01*
X300Y1173D01*
X298Y1173D01*
X298Y1171D01*
X296Y1171D01*
X296Y1151D01*
X300Y1151D01*
X300Y1149D01*
X302Y1149D01*
X302Y1147D01*
X304Y1147D01*
X304Y1145D01*
X306Y1145D01*
X306Y1143D01*
X308Y1143D01*
X308Y1141D01*
X310Y1141D01*
X310Y1139D01*
X312Y1139D01*
X312Y1135D01*
X314Y1135D01*
X314Y1133D01*
X316Y1133D01*
X316Y1129D01*
X318Y1129D01*
X318Y1123D01*
X320Y1123D01*
X320Y1113D01*
X322Y1113D01*
X322Y1109D01*
X320Y1109D01*
X320Y1099D01*
X318Y1099D01*
X318Y1095D01*
X316Y1095D01*
X316Y1091D01*
X314Y1091D01*
X314Y1087D01*
X312Y1087D01*
X312Y1085D01*
X310Y1085D01*
X310Y1083D01*
X308Y1083D01*
X308Y1081D01*
X306Y1081D01*
X306Y1079D01*
X304Y1079D01*
X304Y1077D01*
X302Y1077D01*
X302Y1075D01*
X300Y1075D01*
X300Y1073D01*
X298Y1073D01*
X298Y1071D01*
X296Y1071D01*
X296Y1051D01*
X300Y1051D01*
X300Y1049D01*
X302Y1049D01*
X302Y1047D01*
X304Y1047D01*
X304Y1045D01*
X306Y1045D01*
X306Y1043D01*
X308Y1043D01*
X308Y1041D01*
X310Y1041D01*
X310Y1039D01*
X312Y1039D01*
X312Y1035D01*
X314Y1035D01*
X314Y1033D01*
X316Y1033D01*
X316Y1029D01*
X318Y1029D01*
X318Y1023D01*
X320Y1023D01*
X320Y1013D01*
X322Y1013D01*
X322Y1009D01*
X320Y1009D01*
X320Y999D01*
X318Y999D01*
X318Y995D01*
X316Y995D01*
X316Y991D01*
X314Y991D01*
X314Y987D01*
X312Y987D01*
X312Y985D01*
X310Y985D01*
X310Y983D01*
X308Y983D01*
X308Y981D01*
X306Y981D01*
X306Y979D01*
X304Y979D01*
X304Y977D01*
X302Y977D01*
X302Y975D01*
X300Y975D01*
X300Y973D01*
X298Y973D01*
X298Y971D01*
X296Y971D01*
X296Y951D01*
X300Y951D01*
X300Y949D01*
X302Y949D01*
X302Y947D01*
X304Y947D01*
X304Y945D01*
X306Y945D01*
X306Y943D01*
X308Y943D01*
X308Y941D01*
X310Y941D01*
X310Y939D01*
X312Y939D01*
X312Y935D01*
X314Y935D01*
X314Y933D01*
X316Y933D01*
X316Y929D01*
X318Y929D01*
X318Y923D01*
X320Y923D01*
X320Y913D01*
X322Y913D01*
X322Y909D01*
X320Y909D01*
X320Y899D01*
X318Y899D01*
X318Y895D01*
X316Y895D01*
X316Y891D01*
X314Y891D01*
X314Y887D01*
X312Y887D01*
X312Y885D01*
X310Y885D01*
X310Y883D01*
X308Y883D01*
X308Y881D01*
X306Y881D01*
X306Y879D01*
X304Y879D01*
X304Y877D01*
X302Y877D01*
X302Y875D01*
X300Y875D01*
X300Y873D01*
X298Y873D01*
X298Y871D01*
X296Y871D01*
X296Y851D01*
X300Y851D01*
X300Y849D01*
X302Y849D01*
X302Y847D01*
X304Y847D01*
X304Y845D01*
X306Y845D01*
X306Y843D01*
X308Y843D01*
X308Y841D01*
X310Y841D01*
X310Y839D01*
X312Y839D01*
X312Y835D01*
X314Y835D01*
X314Y833D01*
X316Y833D01*
X316Y829D01*
X318Y829D01*
X318Y823D01*
X320Y823D01*
X320Y813D01*
X322Y813D01*
X322Y809D01*
X320Y809D01*
X320Y799D01*
X318Y799D01*
X318Y795D01*
X316Y795D01*
X316Y791D01*
X314Y791D01*
X314Y787D01*
X312Y787D01*
X312Y785D01*
X310Y785D01*
X310Y783D01*
X308Y783D01*
X308Y781D01*
X306Y781D01*
X306Y779D01*
X304Y779D01*
X304Y777D01*
X302Y777D01*
X302Y775D01*
X300Y775D01*
X300Y773D01*
X298Y773D01*
X298Y771D01*
X296Y771D01*
X296Y751D01*
X300Y751D01*
X300Y749D01*
X302Y749D01*
X302Y747D01*
X304Y747D01*
X304Y745D01*
X306Y745D01*
X306Y743D01*
X308Y743D01*
X308Y741D01*
X310Y741D01*
X310Y739D01*
X312Y739D01*
X312Y735D01*
X314Y735D01*
X314Y733D01*
X442Y733D01*
X442Y737D01*
X444Y737D01*
X444Y739D01*
X446Y739D01*
X446Y741D01*
X448Y741D01*
X448Y743D01*
X450Y743D01*
X450Y745D01*
X452Y745D01*
X452Y1313D01*
X432Y1313D01*
G37*
D02*
G36*
X114Y1291D02*
X114Y1233D01*
X134Y1233D01*
X134Y1235D01*
X136Y1235D01*
X136Y1239D01*
X138Y1239D01*
X138Y1241D01*
X140Y1241D01*
X140Y1243D01*
X142Y1243D01*
X142Y1245D01*
X144Y1245D01*
X144Y1247D01*
X146Y1247D01*
X146Y1249D01*
X150Y1249D01*
X150Y1251D01*
X152Y1251D01*
X152Y1273D01*
X148Y1273D01*
X148Y1275D01*
X146Y1275D01*
X146Y1277D01*
X144Y1277D01*
X144Y1279D01*
X142Y1279D01*
X142Y1281D01*
X140Y1281D01*
X140Y1283D01*
X138Y1283D01*
X138Y1285D01*
X136Y1285D01*
X136Y1287D01*
X134Y1287D01*
X134Y1291D01*
X114Y1291D01*
G37*
D02*
G36*
X214Y1291D02*
X214Y1287D01*
X212Y1287D01*
X212Y1285D01*
X210Y1285D01*
X210Y1283D01*
X208Y1283D01*
X208Y1281D01*
X206Y1281D01*
X206Y1279D01*
X204Y1279D01*
X204Y1277D01*
X202Y1277D01*
X202Y1275D01*
X200Y1275D01*
X200Y1273D01*
X198Y1273D01*
X198Y1271D01*
X196Y1271D01*
X196Y1251D01*
X200Y1251D01*
X200Y1249D01*
X202Y1249D01*
X202Y1247D01*
X204Y1247D01*
X204Y1245D01*
X206Y1245D01*
X206Y1243D01*
X208Y1243D01*
X208Y1241D01*
X210Y1241D01*
X210Y1239D01*
X212Y1239D01*
X212Y1235D01*
X214Y1235D01*
X214Y1233D01*
X234Y1233D01*
X234Y1235D01*
X236Y1235D01*
X236Y1239D01*
X238Y1239D01*
X238Y1241D01*
X240Y1241D01*
X240Y1243D01*
X242Y1243D01*
X242Y1245D01*
X244Y1245D01*
X244Y1247D01*
X246Y1247D01*
X246Y1249D01*
X250Y1249D01*
X250Y1251D01*
X252Y1251D01*
X252Y1273D01*
X248Y1273D01*
X248Y1275D01*
X246Y1275D01*
X246Y1277D01*
X244Y1277D01*
X244Y1279D01*
X242Y1279D01*
X242Y1281D01*
X240Y1281D01*
X240Y1283D01*
X238Y1283D01*
X238Y1285D01*
X236Y1285D01*
X236Y1287D01*
X234Y1287D01*
X234Y1291D01*
X214Y1291D01*
G37*
D02*
G36*
X992Y1249D02*
X992Y1197D01*
X1012Y1197D01*
X1012Y1199D01*
X1014Y1199D01*
X1014Y1201D01*
X1016Y1201D01*
X1016Y1203D01*
X1018Y1203D01*
X1018Y1205D01*
X1020Y1205D01*
X1020Y1207D01*
X1022Y1207D01*
X1022Y1209D01*
X1026Y1209D01*
X1026Y1211D01*
X1030Y1211D01*
X1030Y1213D01*
X1034Y1213D01*
X1034Y1233D01*
X1032Y1233D01*
X1032Y1235D01*
X1028Y1235D01*
X1028Y1237D01*
X1024Y1237D01*
X1024Y1239D01*
X1022Y1239D01*
X1022Y1241D01*
X1018Y1241D01*
X1018Y1243D01*
X1016Y1243D01*
X1016Y1245D01*
X1014Y1245D01*
X1014Y1247D01*
X1012Y1247D01*
X1012Y1249D01*
X992Y1249D01*
G37*
D02*
G36*
X114Y1191D02*
X114Y1133D01*
X134Y1133D01*
X134Y1135D01*
X136Y1135D01*
X136Y1139D01*
X138Y1139D01*
X138Y1141D01*
X140Y1141D01*
X140Y1143D01*
X142Y1143D01*
X142Y1145D01*
X144Y1145D01*
X144Y1147D01*
X146Y1147D01*
X146Y1149D01*
X150Y1149D01*
X150Y1151D01*
X152Y1151D01*
X152Y1173D01*
X148Y1173D01*
X148Y1175D01*
X146Y1175D01*
X146Y1177D01*
X144Y1177D01*
X144Y1179D01*
X142Y1179D01*
X142Y1181D01*
X140Y1181D01*
X140Y1183D01*
X138Y1183D01*
X138Y1185D01*
X136Y1185D01*
X136Y1187D01*
X134Y1187D01*
X134Y1191D01*
X114Y1191D01*
G37*
D02*
G36*
X214Y1191D02*
X214Y1187D01*
X212Y1187D01*
X212Y1185D01*
X210Y1185D01*
X210Y1183D01*
X208Y1183D01*
X208Y1181D01*
X206Y1181D01*
X206Y1179D01*
X204Y1179D01*
X204Y1177D01*
X202Y1177D01*
X202Y1175D01*
X200Y1175D01*
X200Y1173D01*
X198Y1173D01*
X198Y1171D01*
X196Y1171D01*
X196Y1151D01*
X200Y1151D01*
X200Y1149D01*
X202Y1149D01*
X202Y1147D01*
X204Y1147D01*
X204Y1145D01*
X206Y1145D01*
X206Y1143D01*
X208Y1143D01*
X208Y1141D01*
X210Y1141D01*
X210Y1139D01*
X212Y1139D01*
X212Y1135D01*
X214Y1135D01*
X214Y1133D01*
X234Y1133D01*
X234Y1135D01*
X236Y1135D01*
X236Y1139D01*
X238Y1139D01*
X238Y1141D01*
X240Y1141D01*
X240Y1143D01*
X242Y1143D01*
X242Y1145D01*
X244Y1145D01*
X244Y1147D01*
X246Y1147D01*
X246Y1149D01*
X250Y1149D01*
X250Y1151D01*
X252Y1151D01*
X252Y1173D01*
X248Y1173D01*
X248Y1175D01*
X246Y1175D01*
X246Y1177D01*
X244Y1177D01*
X244Y1179D01*
X242Y1179D01*
X242Y1181D01*
X240Y1181D01*
X240Y1183D01*
X238Y1183D01*
X238Y1185D01*
X236Y1185D01*
X236Y1187D01*
X234Y1187D01*
X234Y1191D01*
X214Y1191D01*
G37*
D02*
G36*
X992Y1135D02*
X992Y1081D01*
X1012Y1081D01*
X1012Y1083D01*
X1014Y1083D01*
X1014Y1085D01*
X1016Y1085D01*
X1016Y1087D01*
X1018Y1087D01*
X1018Y1089D01*
X1020Y1089D01*
X1020Y1091D01*
X1024Y1091D01*
X1024Y1093D01*
X1028Y1093D01*
X1028Y1095D01*
X1032Y1095D01*
X1032Y1097D01*
X1038Y1097D01*
X1038Y1117D01*
X1034Y1117D01*
X1034Y1119D01*
X1030Y1119D01*
X1030Y1121D01*
X1026Y1121D01*
X1026Y1123D01*
X1022Y1123D01*
X1022Y1125D01*
X1020Y1125D01*
X1020Y1127D01*
X1018Y1127D01*
X1018Y1129D01*
X1016Y1129D01*
X1016Y1131D01*
X1014Y1131D01*
X1014Y1133D01*
X1012Y1133D01*
X1012Y1135D01*
X992Y1135D01*
G37*
D02*
G36*
X114Y1091D02*
X114Y1033D01*
X134Y1033D01*
X134Y1035D01*
X136Y1035D01*
X136Y1039D01*
X138Y1039D01*
X138Y1041D01*
X140Y1041D01*
X140Y1043D01*
X142Y1043D01*
X142Y1045D01*
X144Y1045D01*
X144Y1047D01*
X146Y1047D01*
X146Y1049D01*
X150Y1049D01*
X150Y1051D01*
X152Y1051D01*
X152Y1073D01*
X148Y1073D01*
X148Y1075D01*
X146Y1075D01*
X146Y1077D01*
X144Y1077D01*
X144Y1079D01*
X142Y1079D01*
X142Y1081D01*
X140Y1081D01*
X140Y1083D01*
X138Y1083D01*
X138Y1085D01*
X136Y1085D01*
X136Y1087D01*
X134Y1087D01*
X134Y1091D01*
X114Y1091D01*
G37*
D02*
G36*
X214Y1091D02*
X214Y1087D01*
X212Y1087D01*
X212Y1085D01*
X210Y1085D01*
X210Y1083D01*
X208Y1083D01*
X208Y1081D01*
X206Y1081D01*
X206Y1079D01*
X204Y1079D01*
X204Y1077D01*
X202Y1077D01*
X202Y1075D01*
X200Y1075D01*
X200Y1073D01*
X198Y1073D01*
X198Y1071D01*
X196Y1071D01*
X196Y1051D01*
X200Y1051D01*
X200Y1049D01*
X202Y1049D01*
X202Y1047D01*
X204Y1047D01*
X204Y1045D01*
X206Y1045D01*
X206Y1043D01*
X208Y1043D01*
X208Y1041D01*
X210Y1041D01*
X210Y1039D01*
X212Y1039D01*
X212Y1035D01*
X214Y1035D01*
X214Y1033D01*
X234Y1033D01*
X234Y1035D01*
X236Y1035D01*
X236Y1039D01*
X238Y1039D01*
X238Y1041D01*
X240Y1041D01*
X240Y1043D01*
X242Y1043D01*
X242Y1045D01*
X244Y1045D01*
X244Y1047D01*
X246Y1047D01*
X246Y1049D01*
X250Y1049D01*
X250Y1051D01*
X252Y1051D01*
X252Y1073D01*
X248Y1073D01*
X248Y1075D01*
X246Y1075D01*
X246Y1077D01*
X244Y1077D01*
X244Y1079D01*
X242Y1079D01*
X242Y1081D01*
X240Y1081D01*
X240Y1083D01*
X238Y1083D01*
X238Y1085D01*
X236Y1085D01*
X236Y1087D01*
X234Y1087D01*
X234Y1091D01*
X214Y1091D01*
G37*
D02*
G36*
X992Y1015D02*
X992Y959D01*
X1012Y959D01*
X1012Y961D01*
X1014Y961D01*
X1014Y965D01*
X1016Y965D01*
X1016Y967D01*
X1020Y967D01*
X1020Y969D01*
X1022Y969D01*
X1022Y971D01*
X1024Y971D01*
X1024Y973D01*
X1028Y973D01*
X1028Y975D01*
X1032Y975D01*
X1032Y977D01*
X1036Y977D01*
X1036Y999D01*
X1030Y999D01*
X1030Y1001D01*
X1026Y1001D01*
X1026Y1003D01*
X1024Y1003D01*
X1024Y1005D01*
X1020Y1005D01*
X1020Y1007D01*
X1018Y1007D01*
X1018Y1009D01*
X1016Y1009D01*
X1016Y1011D01*
X1014Y1011D01*
X1014Y1013D01*
X1012Y1013D01*
X1012Y1015D01*
X992Y1015D01*
G37*
D02*
G36*
X114Y991D02*
X114Y933D01*
X134Y933D01*
X134Y935D01*
X136Y935D01*
X136Y939D01*
X138Y939D01*
X138Y941D01*
X140Y941D01*
X140Y943D01*
X142Y943D01*
X142Y945D01*
X144Y945D01*
X144Y947D01*
X146Y947D01*
X146Y949D01*
X150Y949D01*
X150Y951D01*
X152Y951D01*
X152Y973D01*
X148Y973D01*
X148Y975D01*
X146Y975D01*
X146Y977D01*
X144Y977D01*
X144Y979D01*
X142Y979D01*
X142Y981D01*
X140Y981D01*
X140Y983D01*
X138Y983D01*
X138Y985D01*
X136Y985D01*
X136Y987D01*
X134Y987D01*
X134Y991D01*
X114Y991D01*
G37*
D02*
G36*
X214Y991D02*
X214Y987D01*
X212Y987D01*
X212Y985D01*
X210Y985D01*
X210Y983D01*
X208Y983D01*
X208Y981D01*
X206Y981D01*
X206Y979D01*
X204Y979D01*
X204Y977D01*
X202Y977D01*
X202Y975D01*
X200Y975D01*
X200Y973D01*
X198Y973D01*
X198Y971D01*
X196Y971D01*
X196Y951D01*
X200Y951D01*
X200Y949D01*
X202Y949D01*
X202Y947D01*
X204Y947D01*
X204Y945D01*
X206Y945D01*
X206Y943D01*
X208Y943D01*
X208Y941D01*
X210Y941D01*
X210Y939D01*
X212Y939D01*
X212Y935D01*
X214Y935D01*
X214Y933D01*
X234Y933D01*
X234Y935D01*
X236Y935D01*
X236Y939D01*
X238Y939D01*
X238Y941D01*
X240Y941D01*
X240Y943D01*
X242Y943D01*
X242Y945D01*
X244Y945D01*
X244Y947D01*
X246Y947D01*
X246Y949D01*
X250Y949D01*
X250Y951D01*
X252Y951D01*
X252Y973D01*
X248Y973D01*
X248Y975D01*
X246Y975D01*
X246Y977D01*
X244Y977D01*
X244Y979D01*
X242Y979D01*
X242Y981D01*
X240Y981D01*
X240Y983D01*
X238Y983D01*
X238Y985D01*
X236Y985D01*
X236Y987D01*
X234Y987D01*
X234Y991D01*
X214Y991D01*
G37*
D02*
G36*
X992Y899D02*
X992Y841D01*
X1012Y841D01*
X1012Y843D01*
X1014Y843D01*
X1014Y845D01*
X1016Y845D01*
X1016Y847D01*
X1018Y847D01*
X1018Y849D01*
X1020Y849D01*
X1020Y851D01*
X1022Y851D01*
X1022Y853D01*
X1026Y853D01*
X1026Y855D01*
X1030Y855D01*
X1030Y857D01*
X1034Y857D01*
X1034Y859D01*
X1038Y859D01*
X1038Y881D01*
X1034Y881D01*
X1034Y883D01*
X1030Y883D01*
X1030Y885D01*
X1026Y885D01*
X1026Y887D01*
X1024Y887D01*
X1024Y889D01*
X1020Y889D01*
X1020Y891D01*
X1018Y891D01*
X1018Y893D01*
X1016Y893D01*
X1016Y895D01*
X1014Y895D01*
X1014Y897D01*
X1012Y897D01*
X1012Y899D01*
X992Y899D01*
G37*
D02*
G36*
X114Y891D02*
X114Y833D01*
X134Y833D01*
X134Y835D01*
X136Y835D01*
X136Y839D01*
X138Y839D01*
X138Y841D01*
X140Y841D01*
X140Y843D01*
X142Y843D01*
X142Y845D01*
X144Y845D01*
X144Y847D01*
X146Y847D01*
X146Y849D01*
X150Y849D01*
X150Y851D01*
X152Y851D01*
X152Y873D01*
X148Y873D01*
X148Y875D01*
X146Y875D01*
X146Y877D01*
X144Y877D01*
X144Y879D01*
X142Y879D01*
X142Y881D01*
X140Y881D01*
X140Y883D01*
X138Y883D01*
X138Y885D01*
X136Y885D01*
X136Y887D01*
X134Y887D01*
X134Y891D01*
X114Y891D01*
G37*
D02*
G36*
X214Y891D02*
X214Y887D01*
X212Y887D01*
X212Y885D01*
X210Y885D01*
X210Y883D01*
X208Y883D01*
X208Y881D01*
X206Y881D01*
X206Y879D01*
X204Y879D01*
X204Y877D01*
X202Y877D01*
X202Y875D01*
X200Y875D01*
X200Y873D01*
X198Y873D01*
X198Y871D01*
X196Y871D01*
X196Y851D01*
X200Y851D01*
X200Y849D01*
X202Y849D01*
X202Y847D01*
X204Y847D01*
X204Y845D01*
X206Y845D01*
X206Y843D01*
X208Y843D01*
X208Y841D01*
X210Y841D01*
X210Y839D01*
X212Y839D01*
X212Y835D01*
X214Y835D01*
X214Y833D01*
X234Y833D01*
X234Y835D01*
X236Y835D01*
X236Y839D01*
X238Y839D01*
X238Y841D01*
X240Y841D01*
X240Y843D01*
X242Y843D01*
X242Y845D01*
X244Y845D01*
X244Y847D01*
X246Y847D01*
X246Y849D01*
X250Y849D01*
X250Y851D01*
X252Y851D01*
X252Y873D01*
X248Y873D01*
X248Y875D01*
X246Y875D01*
X246Y877D01*
X244Y877D01*
X244Y879D01*
X242Y879D01*
X242Y881D01*
X240Y881D01*
X240Y883D01*
X238Y883D01*
X238Y885D01*
X236Y885D01*
X236Y887D01*
X234Y887D01*
X234Y891D01*
X214Y891D01*
G37*
D02*
G36*
X114Y791D02*
X114Y733D01*
X134Y733D01*
X134Y735D01*
X136Y735D01*
X136Y739D01*
X138Y739D01*
X138Y741D01*
X140Y741D01*
X140Y743D01*
X142Y743D01*
X142Y745D01*
X144Y745D01*
X144Y747D01*
X146Y747D01*
X146Y749D01*
X150Y749D01*
X150Y751D01*
X152Y751D01*
X152Y773D01*
X148Y773D01*
X148Y775D01*
X146Y775D01*
X146Y777D01*
X144Y777D01*
X144Y779D01*
X142Y779D01*
X142Y781D01*
X140Y781D01*
X140Y783D01*
X138Y783D01*
X138Y785D01*
X136Y785D01*
X136Y787D01*
X134Y787D01*
X134Y791D01*
X114Y791D01*
G37*
D02*
G36*
X214Y791D02*
X214Y787D01*
X212Y787D01*
X212Y785D01*
X210Y785D01*
X210Y783D01*
X208Y783D01*
X208Y781D01*
X206Y781D01*
X206Y779D01*
X204Y779D01*
X204Y777D01*
X202Y777D01*
X202Y775D01*
X200Y775D01*
X200Y773D01*
X198Y773D01*
X198Y771D01*
X196Y771D01*
X196Y751D01*
X200Y751D01*
X200Y749D01*
X202Y749D01*
X202Y747D01*
X204Y747D01*
X204Y745D01*
X206Y745D01*
X206Y743D01*
X208Y743D01*
X208Y741D01*
X210Y741D01*
X210Y739D01*
X212Y739D01*
X212Y735D01*
X214Y735D01*
X214Y733D01*
X234Y733D01*
X234Y735D01*
X236Y735D01*
X236Y739D01*
X238Y739D01*
X238Y741D01*
X240Y741D01*
X240Y743D01*
X242Y743D01*
X242Y745D01*
X244Y745D01*
X244Y747D01*
X246Y747D01*
X246Y749D01*
X250Y749D01*
X250Y751D01*
X252Y751D01*
X252Y773D01*
X248Y773D01*
X248Y775D01*
X246Y775D01*
X246Y777D01*
X244Y777D01*
X244Y779D01*
X242Y779D01*
X242Y781D01*
X240Y781D01*
X240Y783D01*
X238Y783D01*
X238Y785D01*
X236Y785D01*
X236Y787D01*
X234Y787D01*
X234Y791D01*
X214Y791D01*
G37*
D02*
G36*
X482Y715D02*
X482Y713D01*
X480Y713D01*
X480Y711D01*
X478Y711D01*
X478Y707D01*
X476Y707D01*
X476Y705D01*
X474Y705D01*
X474Y703D01*
X472Y703D01*
X472Y701D01*
X470Y701D01*
X470Y699D01*
X468Y699D01*
X468Y697D01*
X466Y697D01*
X466Y695D01*
X464Y695D01*
X464Y693D01*
X460Y693D01*
X460Y691D01*
X456Y691D01*
X456Y689D01*
X314Y689D01*
X314Y687D01*
X312Y687D01*
X312Y685D01*
X310Y685D01*
X310Y683D01*
X308Y683D01*
X308Y681D01*
X306Y681D01*
X306Y679D01*
X304Y679D01*
X304Y677D01*
X302Y677D01*
X302Y675D01*
X300Y675D01*
X300Y673D01*
X298Y673D01*
X298Y671D01*
X296Y671D01*
X296Y651D01*
X300Y651D01*
X300Y649D01*
X302Y649D01*
X302Y647D01*
X304Y647D01*
X304Y645D01*
X306Y645D01*
X306Y643D01*
X308Y643D01*
X308Y641D01*
X310Y641D01*
X310Y639D01*
X312Y639D01*
X312Y635D01*
X314Y635D01*
X314Y633D01*
X490Y633D01*
X490Y635D01*
X492Y635D01*
X492Y637D01*
X494Y637D01*
X494Y639D01*
X496Y639D01*
X496Y641D01*
X498Y641D01*
X498Y643D01*
X500Y643D01*
X500Y645D01*
X502Y645D01*
X502Y715D01*
X482Y715D01*
G37*
D02*
G36*
X114Y691D02*
X114Y633D01*
X134Y633D01*
X134Y635D01*
X136Y635D01*
X136Y639D01*
X138Y639D01*
X138Y641D01*
X140Y641D01*
X140Y643D01*
X142Y643D01*
X142Y645D01*
X144Y645D01*
X144Y647D01*
X146Y647D01*
X146Y649D01*
X150Y649D01*
X150Y651D01*
X152Y651D01*
X152Y673D01*
X148Y673D01*
X148Y675D01*
X146Y675D01*
X146Y677D01*
X144Y677D01*
X144Y679D01*
X142Y679D01*
X142Y681D01*
X140Y681D01*
X140Y683D01*
X138Y683D01*
X138Y685D01*
X136Y685D01*
X136Y687D01*
X134Y687D01*
X134Y691D01*
X114Y691D01*
G37*
D02*
G36*
X214Y691D02*
X214Y687D01*
X212Y687D01*
X212Y685D01*
X210Y685D01*
X210Y683D01*
X208Y683D01*
X208Y681D01*
X206Y681D01*
X206Y679D01*
X204Y679D01*
X204Y677D01*
X202Y677D01*
X202Y675D01*
X200Y675D01*
X200Y673D01*
X198Y673D01*
X198Y671D01*
X196Y671D01*
X196Y651D01*
X200Y651D01*
X200Y649D01*
X202Y649D01*
X202Y647D01*
X204Y647D01*
X204Y645D01*
X206Y645D01*
X206Y643D01*
X208Y643D01*
X208Y641D01*
X210Y641D01*
X210Y639D01*
X212Y639D01*
X212Y635D01*
X214Y635D01*
X214Y633D01*
X234Y633D01*
X234Y635D01*
X236Y635D01*
X236Y639D01*
X238Y639D01*
X238Y641D01*
X240Y641D01*
X240Y643D01*
X242Y643D01*
X242Y645D01*
X244Y645D01*
X244Y647D01*
X246Y647D01*
X246Y649D01*
X250Y649D01*
X250Y651D01*
X252Y651D01*
X252Y673D01*
X248Y673D01*
X248Y675D01*
X246Y675D01*
X246Y677D01*
X244Y677D01*
X244Y679D01*
X242Y679D01*
X242Y681D01*
X240Y681D01*
X240Y683D01*
X238Y683D01*
X238Y685D01*
X236Y685D01*
X236Y687D01*
X234Y687D01*
X234Y691D01*
X214Y691D01*
G37*
D02*
G36*
X114Y591D02*
X114Y453D01*
X116Y453D01*
X116Y451D01*
X118Y451D01*
X118Y449D01*
X120Y449D01*
X120Y447D01*
X122Y447D01*
X122Y445D01*
X124Y445D01*
X124Y443D01*
X126Y443D01*
X126Y441D01*
X128Y441D01*
X128Y439D01*
X130Y439D01*
X130Y437D01*
X132Y437D01*
X132Y435D01*
X134Y435D01*
X134Y433D01*
X136Y433D01*
X136Y431D01*
X138Y431D01*
X138Y429D01*
X140Y429D01*
X140Y427D01*
X190Y427D01*
X190Y447D01*
X188Y447D01*
X188Y449D01*
X186Y449D01*
X186Y451D01*
X184Y451D01*
X184Y453D01*
X182Y453D01*
X182Y455D01*
X180Y455D01*
X180Y457D01*
X178Y457D01*
X178Y459D01*
X176Y459D01*
X176Y461D01*
X174Y461D01*
X174Y463D01*
X172Y463D01*
X172Y465D01*
X170Y465D01*
X170Y467D01*
X168Y467D01*
X168Y469D01*
X166Y469D01*
X166Y471D01*
X164Y471D01*
X164Y473D01*
X162Y473D01*
X162Y475D01*
X160Y475D01*
X160Y477D01*
X158Y477D01*
X158Y481D01*
X156Y481D01*
X156Y569D01*
X154Y569D01*
X154Y571D01*
X152Y571D01*
X152Y573D01*
X148Y573D01*
X148Y575D01*
X146Y575D01*
X146Y577D01*
X144Y577D01*
X144Y579D01*
X142Y579D01*
X142Y581D01*
X140Y581D01*
X140Y583D01*
X138Y583D01*
X138Y585D01*
X136Y585D01*
X136Y587D01*
X134Y587D01*
X134Y591D01*
X114Y591D01*
G37*
D02*
G36*
X280Y3769D02*
X280Y3767D01*
X278Y3767D01*
X278Y3765D01*
X276Y3765D01*
X276Y3763D01*
X274Y3763D01*
X274Y3761D01*
X272Y3761D01*
X272Y3759D01*
X270Y3759D01*
X270Y3757D01*
X268Y3757D01*
X268Y3737D01*
X330Y3737D01*
X330Y3735D01*
X338Y3735D01*
X338Y3733D01*
X342Y3733D01*
X342Y3731D01*
X346Y3731D01*
X346Y3729D01*
X350Y3729D01*
X350Y3727D01*
X352Y3727D01*
X352Y3725D01*
X354Y3725D01*
X354Y3723D01*
X358Y3723D01*
X358Y3721D01*
X360Y3721D01*
X360Y3717D01*
X362Y3717D01*
X362Y3715D01*
X364Y3715D01*
X364Y3713D01*
X366Y3713D01*
X366Y3709D01*
X368Y3709D01*
X368Y3707D01*
X370Y3707D01*
X370Y3703D01*
X372Y3703D01*
X372Y3695D01*
X374Y3695D01*
X374Y3677D01*
X372Y3677D01*
X372Y3671D01*
X370Y3671D01*
X370Y3667D01*
X368Y3667D01*
X368Y3663D01*
X366Y3663D01*
X366Y3661D01*
X364Y3661D01*
X364Y3657D01*
X362Y3657D01*
X362Y3655D01*
X360Y3655D01*
X360Y3653D01*
X358Y3653D01*
X358Y3651D01*
X356Y3651D01*
X356Y3649D01*
X354Y3649D01*
X354Y3647D01*
X350Y3647D01*
X350Y3627D01*
X352Y3627D01*
X352Y3625D01*
X354Y3625D01*
X354Y3623D01*
X358Y3623D01*
X358Y3621D01*
X360Y3621D01*
X360Y3617D01*
X362Y3617D01*
X362Y3615D01*
X364Y3615D01*
X364Y3613D01*
X366Y3613D01*
X366Y3609D01*
X506Y3609D01*
X506Y3607D01*
X558Y3607D01*
X558Y3605D01*
X562Y3605D01*
X562Y3603D01*
X564Y3603D01*
X564Y3601D01*
X566Y3601D01*
X566Y3599D01*
X568Y3599D01*
X568Y3597D01*
X570Y3597D01*
X570Y3595D01*
X572Y3595D01*
X572Y3593D01*
X574Y3593D01*
X574Y3591D01*
X576Y3591D01*
X576Y3589D01*
X578Y3589D01*
X578Y3587D01*
X580Y3587D01*
X580Y3585D01*
X582Y3585D01*
X582Y3583D01*
X584Y3583D01*
X584Y3581D01*
X586Y3581D01*
X586Y3579D01*
X588Y3579D01*
X588Y3577D01*
X590Y3577D01*
X590Y3575D01*
X592Y3575D01*
X592Y3573D01*
X594Y3573D01*
X594Y3567D01*
X596Y3567D01*
X596Y3517D01*
X890Y3517D01*
X890Y3515D01*
X896Y3515D01*
X896Y3513D01*
X900Y3513D01*
X900Y3511D01*
X904Y3511D01*
X904Y3509D01*
X906Y3509D01*
X906Y3507D01*
X908Y3507D01*
X908Y3505D01*
X912Y3505D01*
X912Y3503D01*
X914Y3503D01*
X914Y3501D01*
X916Y3501D01*
X916Y3497D01*
X918Y3497D01*
X918Y3495D01*
X920Y3495D01*
X920Y3493D01*
X922Y3493D01*
X922Y3489D01*
X924Y3489D01*
X924Y3487D01*
X926Y3487D01*
X926Y3481D01*
X928Y3481D01*
X928Y3475D01*
X930Y3475D01*
X930Y3457D01*
X928Y3457D01*
X928Y3451D01*
X926Y3451D01*
X926Y3447D01*
X924Y3447D01*
X924Y3443D01*
X922Y3443D01*
X922Y3439D01*
X920Y3439D01*
X920Y3437D01*
X918Y3437D01*
X918Y3435D01*
X916Y3435D01*
X916Y3433D01*
X914Y3433D01*
X914Y3431D01*
X912Y3431D01*
X912Y3429D01*
X910Y3429D01*
X910Y3427D01*
X908Y3427D01*
X908Y3425D01*
X906Y3425D01*
X906Y3423D01*
X902Y3423D01*
X902Y3421D01*
X898Y3421D01*
X898Y3419D01*
X894Y3419D01*
X894Y3417D01*
X888Y3417D01*
X888Y3415D01*
X956Y3415D01*
X956Y3755D01*
X954Y3755D01*
X954Y3757D01*
X952Y3757D01*
X952Y3759D01*
X950Y3759D01*
X950Y3761D01*
X948Y3761D01*
X948Y3763D01*
X946Y3763D01*
X946Y3765D01*
X944Y3765D01*
X944Y3767D01*
X942Y3767D01*
X942Y3769D01*
X280Y3769D01*
G37*
D02*
G36*
X268Y3737D02*
X268Y3717D01*
X288Y3717D01*
X288Y3719D01*
X290Y3719D01*
X290Y3721D01*
X292Y3721D01*
X292Y3723D01*
X294Y3723D01*
X294Y3725D01*
X296Y3725D01*
X296Y3727D01*
X298Y3727D01*
X298Y3729D01*
X302Y3729D01*
X302Y3731D01*
X306Y3731D01*
X306Y3733D01*
X310Y3733D01*
X310Y3735D01*
X318Y3735D01*
X318Y3737D01*
X268Y3737D01*
G37*
D02*
G36*
X596Y3517D02*
X596Y3415D01*
X868Y3415D01*
X868Y3417D01*
X862Y3417D01*
X862Y3419D01*
X858Y3419D01*
X858Y3421D01*
X854Y3421D01*
X854Y3423D01*
X850Y3423D01*
X850Y3425D01*
X848Y3425D01*
X848Y3427D01*
X846Y3427D01*
X846Y3429D01*
X844Y3429D01*
X844Y3431D01*
X842Y3431D01*
X842Y3433D01*
X840Y3433D01*
X840Y3435D01*
X838Y3435D01*
X838Y3437D01*
X836Y3437D01*
X836Y3441D01*
X834Y3441D01*
X834Y3445D01*
X832Y3445D01*
X832Y3447D01*
X830Y3447D01*
X830Y3453D01*
X828Y3453D01*
X828Y3461D01*
X826Y3461D01*
X826Y3471D01*
X828Y3471D01*
X828Y3479D01*
X830Y3479D01*
X830Y3485D01*
X832Y3485D01*
X832Y3489D01*
X834Y3489D01*
X834Y3491D01*
X836Y3491D01*
X836Y3495D01*
X838Y3495D01*
X838Y3497D01*
X840Y3497D01*
X840Y3499D01*
X842Y3499D01*
X842Y3501D01*
X844Y3501D01*
X844Y3503D01*
X846Y3503D01*
X846Y3505D01*
X848Y3505D01*
X848Y3507D01*
X850Y3507D01*
X850Y3509D01*
X854Y3509D01*
X854Y3511D01*
X856Y3511D01*
X856Y3513D01*
X860Y3513D01*
X860Y3515D01*
X866Y3515D01*
X866Y3517D01*
X596Y3517D01*
G37*
D02*
G36*
X596Y3415D02*
X596Y3413D01*
X956Y3413D01*
X956Y3415D01*
X596Y3415D01*
G37*
D02*
G36*
X596Y3415D02*
X596Y3413D01*
X956Y3413D01*
X956Y3415D01*
X596Y3415D01*
G37*
D02*
G36*
X596Y3413D02*
X596Y3409D01*
X658Y3409D01*
X658Y3407D01*
X664Y3407D01*
X664Y3405D01*
X668Y3405D01*
X668Y3403D01*
X672Y3403D01*
X672Y3401D01*
X674Y3401D01*
X674Y3399D01*
X678Y3399D01*
X678Y3397D01*
X680Y3397D01*
X680Y3395D01*
X682Y3395D01*
X682Y3393D01*
X684Y3393D01*
X684Y3391D01*
X686Y3391D01*
X686Y3387D01*
X688Y3387D01*
X688Y3385D01*
X690Y3385D01*
X690Y3381D01*
X884Y3381D01*
X884Y3379D01*
X892Y3379D01*
X892Y3377D01*
X898Y3377D01*
X898Y3375D01*
X900Y3375D01*
X900Y3373D01*
X904Y3373D01*
X904Y3371D01*
X906Y3371D01*
X906Y3369D01*
X910Y3369D01*
X910Y3367D01*
X912Y3367D01*
X912Y3365D01*
X914Y3365D01*
X914Y3363D01*
X916Y3363D01*
X916Y3361D01*
X918Y3361D01*
X918Y3359D01*
X920Y3359D01*
X920Y3355D01*
X922Y3355D01*
X922Y3351D01*
X924Y3351D01*
X924Y3349D01*
X926Y3349D01*
X926Y3345D01*
X928Y3345D01*
X928Y3337D01*
X930Y3337D01*
X930Y3321D01*
X928Y3321D01*
X928Y3313D01*
X926Y3313D01*
X926Y3309D01*
X924Y3309D01*
X924Y3305D01*
X922Y3305D01*
X922Y3303D01*
X920Y3303D01*
X920Y3299D01*
X918Y3299D01*
X918Y3297D01*
X916Y3297D01*
X916Y3295D01*
X914Y3295D01*
X914Y3293D01*
X912Y3293D01*
X912Y3291D01*
X910Y3291D01*
X910Y3289D01*
X908Y3289D01*
X908Y3287D01*
X904Y3287D01*
X904Y3285D01*
X902Y3285D01*
X902Y3283D01*
X898Y3283D01*
X898Y3281D01*
X894Y3281D01*
X894Y3279D01*
X886Y3279D01*
X886Y3277D01*
X882Y3277D01*
X882Y3257D01*
X892Y3257D01*
X892Y3255D01*
X896Y3255D01*
X896Y3253D01*
X900Y3253D01*
X900Y3251D01*
X904Y3251D01*
X904Y3249D01*
X906Y3249D01*
X906Y3247D01*
X910Y3247D01*
X910Y3245D01*
X912Y3245D01*
X912Y3243D01*
X914Y3243D01*
X914Y3241D01*
X916Y3241D01*
X916Y3239D01*
X918Y3239D01*
X918Y3235D01*
X920Y3235D01*
X920Y3233D01*
X922Y3233D01*
X922Y3229D01*
X924Y3229D01*
X924Y3227D01*
X926Y3227D01*
X926Y3221D01*
X928Y3221D01*
X928Y3215D01*
X930Y3215D01*
X930Y3199D01*
X928Y3199D01*
X928Y3191D01*
X926Y3191D01*
X926Y3187D01*
X924Y3187D01*
X924Y3183D01*
X922Y3183D01*
X922Y3179D01*
X920Y3179D01*
X920Y3177D01*
X918Y3177D01*
X918Y3175D01*
X916Y3175D01*
X916Y3173D01*
X914Y3173D01*
X914Y3171D01*
X912Y3171D01*
X912Y3169D01*
X910Y3169D01*
X910Y3167D01*
X908Y3167D01*
X908Y3165D01*
X906Y3165D01*
X906Y3163D01*
X902Y3163D01*
X902Y3161D01*
X898Y3161D01*
X898Y3159D01*
X894Y3159D01*
X894Y3157D01*
X890Y3157D01*
X890Y3137D01*
X896Y3137D01*
X896Y3135D01*
X900Y3135D01*
X900Y3133D01*
X902Y3133D01*
X902Y3131D01*
X906Y3131D01*
X906Y3129D01*
X908Y3129D01*
X908Y3127D01*
X910Y3127D01*
X910Y3125D01*
X914Y3125D01*
X914Y3123D01*
X916Y3123D01*
X916Y3119D01*
X918Y3119D01*
X918Y3117D01*
X920Y3117D01*
X920Y3115D01*
X922Y3115D01*
X922Y3111D01*
X924Y3111D01*
X924Y3107D01*
X926Y3107D01*
X926Y3103D01*
X928Y3103D01*
X928Y3097D01*
X930Y3097D01*
X930Y3079D01*
X928Y3079D01*
X928Y3073D01*
X926Y3073D01*
X926Y3069D01*
X924Y3069D01*
X924Y3065D01*
X922Y3065D01*
X922Y3061D01*
X920Y3061D01*
X920Y3059D01*
X918Y3059D01*
X918Y3057D01*
X916Y3057D01*
X916Y3053D01*
X914Y3053D01*
X914Y3051D01*
X910Y3051D01*
X910Y3049D01*
X908Y3049D01*
X908Y3047D01*
X906Y3047D01*
X906Y3045D01*
X902Y3045D01*
X902Y3043D01*
X900Y3043D01*
X900Y3041D01*
X896Y3041D01*
X896Y3039D01*
X890Y3039D01*
X890Y3019D01*
X894Y3019D01*
X894Y3017D01*
X898Y3017D01*
X898Y3015D01*
X902Y3015D01*
X902Y3013D01*
X906Y3013D01*
X906Y3011D01*
X908Y3011D01*
X908Y3009D01*
X910Y3009D01*
X910Y3007D01*
X912Y3007D01*
X912Y3005D01*
X914Y3005D01*
X914Y3003D01*
X916Y3003D01*
X916Y3001D01*
X918Y3001D01*
X918Y2999D01*
X920Y2999D01*
X920Y2997D01*
X922Y2997D01*
X922Y2993D01*
X924Y2993D01*
X924Y2989D01*
X926Y2989D01*
X926Y2985D01*
X928Y2985D01*
X928Y2977D01*
X930Y2977D01*
X930Y2961D01*
X928Y2961D01*
X928Y2955D01*
X926Y2955D01*
X926Y2949D01*
X924Y2949D01*
X924Y2947D01*
X922Y2947D01*
X922Y2943D01*
X920Y2943D01*
X920Y2941D01*
X918Y2941D01*
X918Y2937D01*
X916Y2937D01*
X916Y2935D01*
X914Y2935D01*
X914Y2933D01*
X912Y2933D01*
X912Y2931D01*
X910Y2931D01*
X910Y2929D01*
X906Y2929D01*
X906Y2927D01*
X904Y2927D01*
X904Y2925D01*
X900Y2925D01*
X900Y2923D01*
X896Y2923D01*
X896Y2921D01*
X892Y2921D01*
X892Y2901D01*
X896Y2901D01*
X896Y2899D01*
X900Y2899D01*
X900Y2897D01*
X904Y2897D01*
X904Y2895D01*
X906Y2895D01*
X906Y2893D01*
X908Y2893D01*
X908Y2891D01*
X912Y2891D01*
X912Y2889D01*
X914Y2889D01*
X914Y2887D01*
X916Y2887D01*
X916Y2885D01*
X918Y2885D01*
X918Y2881D01*
X920Y2881D01*
X920Y2879D01*
X922Y2879D01*
X922Y2875D01*
X924Y2875D01*
X924Y2873D01*
X926Y2873D01*
X926Y2867D01*
X928Y2867D01*
X928Y2861D01*
X930Y2861D01*
X930Y2843D01*
X928Y2843D01*
X928Y2837D01*
X926Y2837D01*
X926Y2833D01*
X924Y2833D01*
X924Y2829D01*
X922Y2829D01*
X922Y2825D01*
X920Y2825D01*
X920Y2823D01*
X918Y2823D01*
X918Y2821D01*
X916Y2821D01*
X916Y2819D01*
X914Y2819D01*
X914Y2817D01*
X912Y2817D01*
X912Y2815D01*
X910Y2815D01*
X910Y2813D01*
X908Y2813D01*
X908Y2811D01*
X906Y2811D01*
X906Y2809D01*
X902Y2809D01*
X902Y2807D01*
X898Y2807D01*
X898Y2805D01*
X894Y2805D01*
X894Y2803D01*
X890Y2803D01*
X890Y2783D01*
X894Y2783D01*
X894Y2781D01*
X900Y2781D01*
X900Y2779D01*
X902Y2779D01*
X902Y2777D01*
X906Y2777D01*
X906Y2775D01*
X908Y2775D01*
X908Y2773D01*
X910Y2773D01*
X910Y2771D01*
X914Y2771D01*
X914Y2767D01*
X916Y2767D01*
X916Y2765D01*
X918Y2765D01*
X918Y2763D01*
X920Y2763D01*
X920Y2761D01*
X922Y2761D01*
X922Y2757D01*
X924Y2757D01*
X924Y2753D01*
X926Y2753D01*
X926Y2749D01*
X928Y2749D01*
X928Y2743D01*
X930Y2743D01*
X930Y2725D01*
X928Y2725D01*
X928Y2719D01*
X926Y2719D01*
X926Y2715D01*
X924Y2715D01*
X924Y2711D01*
X922Y2711D01*
X922Y2707D01*
X920Y2707D01*
X920Y2705D01*
X918Y2705D01*
X918Y2703D01*
X916Y2703D01*
X916Y2699D01*
X914Y2699D01*
X914Y2697D01*
X910Y2697D01*
X910Y2695D01*
X908Y2695D01*
X908Y2693D01*
X906Y2693D01*
X906Y2691D01*
X902Y2691D01*
X902Y2689D01*
X900Y2689D01*
X900Y2687D01*
X896Y2687D01*
X896Y2685D01*
X890Y2685D01*
X890Y2665D01*
X894Y2665D01*
X894Y2663D01*
X898Y2663D01*
X898Y2661D01*
X902Y2661D01*
X902Y2659D01*
X904Y2659D01*
X904Y2657D01*
X908Y2657D01*
X908Y2655D01*
X910Y2655D01*
X910Y2653D01*
X912Y2653D01*
X912Y2651D01*
X914Y2651D01*
X914Y2649D01*
X916Y2649D01*
X916Y2647D01*
X918Y2647D01*
X918Y2645D01*
X920Y2645D01*
X920Y2641D01*
X922Y2641D01*
X922Y2639D01*
X924Y2639D01*
X924Y2635D01*
X926Y2635D01*
X926Y2631D01*
X928Y2631D01*
X928Y2623D01*
X930Y2623D01*
X930Y2607D01*
X928Y2607D01*
X928Y2601D01*
X926Y2601D01*
X926Y2595D01*
X924Y2595D01*
X924Y2593D01*
X922Y2593D01*
X922Y2589D01*
X920Y2589D01*
X920Y2587D01*
X918Y2587D01*
X918Y2583D01*
X916Y2583D01*
X916Y2581D01*
X914Y2581D01*
X914Y2579D01*
X912Y2579D01*
X912Y2577D01*
X910Y2577D01*
X910Y2575D01*
X906Y2575D01*
X906Y2573D01*
X904Y2573D01*
X904Y2571D01*
X900Y2571D01*
X900Y2569D01*
X896Y2569D01*
X896Y2567D01*
X892Y2567D01*
X892Y2547D01*
X896Y2547D01*
X896Y2545D01*
X900Y2545D01*
X900Y2543D01*
X904Y2543D01*
X904Y2541D01*
X906Y2541D01*
X906Y2539D01*
X908Y2539D01*
X908Y2537D01*
X912Y2537D01*
X912Y2535D01*
X914Y2535D01*
X914Y2533D01*
X916Y2533D01*
X916Y2529D01*
X918Y2529D01*
X918Y2527D01*
X920Y2527D01*
X920Y2525D01*
X922Y2525D01*
X922Y2521D01*
X924Y2521D01*
X924Y2519D01*
X926Y2519D01*
X926Y2513D01*
X928Y2513D01*
X928Y2507D01*
X930Y2507D01*
X930Y2489D01*
X928Y2489D01*
X928Y2483D01*
X926Y2483D01*
X926Y2479D01*
X924Y2479D01*
X924Y2475D01*
X922Y2475D01*
X922Y2471D01*
X920Y2471D01*
X920Y2469D01*
X918Y2469D01*
X918Y2467D01*
X916Y2467D01*
X916Y2465D01*
X914Y2465D01*
X914Y2463D01*
X912Y2463D01*
X912Y2461D01*
X910Y2461D01*
X910Y2459D01*
X908Y2459D01*
X908Y2457D01*
X906Y2457D01*
X906Y2455D01*
X902Y2455D01*
X902Y2453D01*
X898Y2453D01*
X898Y2451D01*
X894Y2451D01*
X894Y2449D01*
X888Y2449D01*
X888Y2429D01*
X894Y2429D01*
X894Y2427D01*
X898Y2427D01*
X898Y2425D01*
X902Y2425D01*
X902Y2423D01*
X906Y2423D01*
X906Y2421D01*
X908Y2421D01*
X908Y2419D01*
X910Y2419D01*
X910Y2417D01*
X912Y2417D01*
X912Y2415D01*
X914Y2415D01*
X914Y2413D01*
X916Y2413D01*
X916Y2411D01*
X918Y2411D01*
X918Y2409D01*
X920Y2409D01*
X920Y2407D01*
X922Y2407D01*
X922Y2403D01*
X924Y2403D01*
X924Y2399D01*
X926Y2399D01*
X926Y2395D01*
X928Y2395D01*
X928Y2389D01*
X930Y2389D01*
X930Y2369D01*
X928Y2369D01*
X928Y2363D01*
X926Y2363D01*
X926Y2359D01*
X924Y2359D01*
X924Y2355D01*
X922Y2355D01*
X922Y2351D01*
X920Y2351D01*
X920Y2349D01*
X918Y2349D01*
X918Y2347D01*
X916Y2347D01*
X916Y2345D01*
X914Y2345D01*
X914Y2343D01*
X912Y2343D01*
X912Y2341D01*
X910Y2341D01*
X910Y2339D01*
X908Y2339D01*
X908Y2337D01*
X904Y2337D01*
X904Y2335D01*
X902Y2335D01*
X902Y2333D01*
X898Y2333D01*
X898Y2331D01*
X892Y2331D01*
X892Y2329D01*
X884Y2329D01*
X884Y2309D01*
X886Y2309D01*
X886Y2307D01*
X892Y2307D01*
X892Y2305D01*
X898Y2305D01*
X898Y2303D01*
X902Y2303D01*
X902Y2301D01*
X904Y2301D01*
X904Y2299D01*
X908Y2299D01*
X908Y2297D01*
X910Y2297D01*
X910Y2295D01*
X912Y2295D01*
X912Y2293D01*
X914Y2293D01*
X914Y2291D01*
X916Y2291D01*
X916Y2289D01*
X918Y2289D01*
X918Y2287D01*
X920Y2287D01*
X920Y2283D01*
X922Y2283D01*
X922Y2281D01*
X924Y2281D01*
X924Y2277D01*
X926Y2277D01*
X926Y2273D01*
X928Y2273D01*
X928Y2265D01*
X930Y2265D01*
X930Y2249D01*
X928Y2249D01*
X928Y2241D01*
X926Y2241D01*
X926Y2237D01*
X924Y2237D01*
X924Y2233D01*
X922Y2233D01*
X922Y2231D01*
X920Y2231D01*
X920Y2227D01*
X918Y2227D01*
X918Y2225D01*
X916Y2225D01*
X916Y2223D01*
X914Y2223D01*
X914Y2221D01*
X912Y2221D01*
X912Y2219D01*
X910Y2219D01*
X910Y2217D01*
X908Y2217D01*
X908Y2215D01*
X904Y2215D01*
X904Y2213D01*
X900Y2213D01*
X900Y2211D01*
X898Y2211D01*
X898Y2209D01*
X892Y2209D01*
X892Y2207D01*
X886Y2207D01*
X886Y2205D01*
X956Y2205D01*
X956Y3413D01*
X596Y3413D01*
G37*
D02*
G36*
X596Y3409D02*
X596Y3393D01*
X616Y3393D01*
X616Y3395D01*
X618Y3395D01*
X618Y3397D01*
X622Y3397D01*
X622Y3399D01*
X624Y3399D01*
X624Y3401D01*
X626Y3401D01*
X626Y3403D01*
X630Y3403D01*
X630Y3405D01*
X634Y3405D01*
X634Y3407D01*
X640Y3407D01*
X640Y3409D01*
X596Y3409D01*
G37*
D02*
G36*
X692Y3381D02*
X692Y3377D01*
X694Y3377D01*
X694Y3371D01*
X696Y3371D01*
X696Y3351D01*
X694Y3351D01*
X694Y3345D01*
X692Y3345D01*
X692Y3341D01*
X690Y3341D01*
X690Y3339D01*
X688Y3339D01*
X688Y3335D01*
X686Y3335D01*
X686Y3333D01*
X684Y3333D01*
X684Y3331D01*
X682Y3331D01*
X682Y3329D01*
X680Y3329D01*
X680Y3327D01*
X678Y3327D01*
X678Y3325D01*
X676Y3325D01*
X676Y3323D01*
X672Y3323D01*
X672Y3321D01*
X670Y3321D01*
X670Y3319D01*
X666Y3319D01*
X666Y3317D01*
X660Y3317D01*
X660Y3315D01*
X828Y3315D01*
X828Y3323D01*
X826Y3323D01*
X826Y3333D01*
X828Y3333D01*
X828Y3343D01*
X830Y3343D01*
X830Y3347D01*
X832Y3347D01*
X832Y3351D01*
X834Y3351D01*
X834Y3355D01*
X836Y3355D01*
X836Y3357D01*
X838Y3357D01*
X838Y3359D01*
X840Y3359D01*
X840Y3363D01*
X842Y3363D01*
X842Y3365D01*
X844Y3365D01*
X844Y3367D01*
X848Y3367D01*
X848Y3369D01*
X850Y3369D01*
X850Y3371D01*
X852Y3371D01*
X852Y3373D01*
X856Y3373D01*
X856Y3375D01*
X860Y3375D01*
X860Y3377D01*
X864Y3377D01*
X864Y3379D01*
X872Y3379D01*
X872Y3381D01*
X692Y3381D01*
G37*
D02*
G36*
X596Y3331D02*
X596Y3315D01*
X638Y3315D01*
X638Y3317D01*
X632Y3317D01*
X632Y3319D01*
X628Y3319D01*
X628Y3321D01*
X626Y3321D01*
X626Y3323D01*
X622Y3323D01*
X622Y3325D01*
X620Y3325D01*
X620Y3327D01*
X618Y3327D01*
X618Y3329D01*
X616Y3329D01*
X616Y3331D01*
X596Y3331D01*
G37*
D02*
G36*
X596Y3315D02*
X596Y3313D01*
X830Y3313D01*
X830Y3315D01*
X596Y3315D01*
G37*
D02*
G36*
X596Y3315D02*
X596Y3313D01*
X830Y3313D01*
X830Y3315D01*
X596Y3315D01*
G37*
D02*
G36*
X596Y3313D02*
X596Y3009D01*
X658Y3009D01*
X658Y3007D01*
X664Y3007D01*
X664Y3005D01*
X668Y3005D01*
X668Y3003D01*
X672Y3003D01*
X672Y3001D01*
X674Y3001D01*
X674Y2999D01*
X678Y2999D01*
X678Y2997D01*
X680Y2997D01*
X680Y2995D01*
X682Y2995D01*
X682Y2993D01*
X684Y2993D01*
X684Y2991D01*
X686Y2991D01*
X686Y2987D01*
X688Y2987D01*
X688Y2985D01*
X690Y2985D01*
X690Y2981D01*
X692Y2981D01*
X692Y2977D01*
X694Y2977D01*
X694Y2971D01*
X696Y2971D01*
X696Y2951D01*
X694Y2951D01*
X694Y2945D01*
X692Y2945D01*
X692Y2941D01*
X690Y2941D01*
X690Y2939D01*
X688Y2939D01*
X688Y2935D01*
X686Y2935D01*
X686Y2933D01*
X684Y2933D01*
X684Y2931D01*
X682Y2931D01*
X682Y2929D01*
X680Y2929D01*
X680Y2927D01*
X678Y2927D01*
X678Y2925D01*
X676Y2925D01*
X676Y2923D01*
X672Y2923D01*
X672Y2921D01*
X670Y2921D01*
X670Y2919D01*
X666Y2919D01*
X666Y2917D01*
X660Y2917D01*
X660Y2915D01*
X866Y2915D01*
X866Y2921D01*
X860Y2921D01*
X860Y2923D01*
X856Y2923D01*
X856Y2925D01*
X854Y2925D01*
X854Y2927D01*
X850Y2927D01*
X850Y2929D01*
X848Y2929D01*
X848Y2931D01*
X846Y2931D01*
X846Y2933D01*
X842Y2933D01*
X842Y2937D01*
X840Y2937D01*
X840Y2939D01*
X838Y2939D01*
X838Y2941D01*
X836Y2941D01*
X836Y2943D01*
X834Y2943D01*
X834Y2947D01*
X832Y2947D01*
X832Y2951D01*
X830Y2951D01*
X830Y2955D01*
X828Y2955D01*
X828Y2965D01*
X826Y2965D01*
X826Y2975D01*
X828Y2975D01*
X828Y2983D01*
X830Y2983D01*
X830Y2989D01*
X832Y2989D01*
X832Y2991D01*
X834Y2991D01*
X834Y2995D01*
X836Y2995D01*
X836Y2999D01*
X838Y2999D01*
X838Y3001D01*
X840Y3001D01*
X840Y3003D01*
X842Y3003D01*
X842Y3005D01*
X844Y3005D01*
X844Y3007D01*
X846Y3007D01*
X846Y3009D01*
X848Y3009D01*
X848Y3011D01*
X852Y3011D01*
X852Y3013D01*
X854Y3013D01*
X854Y3015D01*
X858Y3015D01*
X858Y3017D01*
X862Y3017D01*
X862Y3019D01*
X868Y3019D01*
X868Y3039D01*
X862Y3039D01*
X862Y3041D01*
X858Y3041D01*
X858Y3043D01*
X854Y3043D01*
X854Y3045D01*
X850Y3045D01*
X850Y3047D01*
X848Y3047D01*
X848Y3049D01*
X846Y3049D01*
X846Y3051D01*
X844Y3051D01*
X844Y3053D01*
X842Y3053D01*
X842Y3055D01*
X840Y3055D01*
X840Y3057D01*
X838Y3057D01*
X838Y3059D01*
X836Y3059D01*
X836Y3063D01*
X834Y3063D01*
X834Y3065D01*
X832Y3065D01*
X832Y3069D01*
X830Y3069D01*
X830Y3075D01*
X828Y3075D01*
X828Y3083D01*
X826Y3083D01*
X826Y3093D01*
X828Y3093D01*
X828Y3101D01*
X830Y3101D01*
X830Y3107D01*
X832Y3107D01*
X832Y3111D01*
X834Y3111D01*
X834Y3113D01*
X836Y3113D01*
X836Y3117D01*
X838Y3117D01*
X838Y3119D01*
X840Y3119D01*
X840Y3121D01*
X842Y3121D01*
X842Y3123D01*
X844Y3123D01*
X844Y3125D01*
X846Y3125D01*
X846Y3127D01*
X848Y3127D01*
X848Y3129D01*
X850Y3129D01*
X850Y3131D01*
X854Y3131D01*
X854Y3133D01*
X858Y3133D01*
X858Y3135D01*
X862Y3135D01*
X862Y3137D01*
X866Y3137D01*
X866Y3157D01*
X862Y3157D01*
X862Y3159D01*
X858Y3159D01*
X858Y3161D01*
X854Y3161D01*
X854Y3163D01*
X852Y3163D01*
X852Y3165D01*
X848Y3165D01*
X848Y3167D01*
X846Y3167D01*
X846Y3169D01*
X844Y3169D01*
X844Y3171D01*
X842Y3171D01*
X842Y3173D01*
X840Y3173D01*
X840Y3175D01*
X838Y3175D01*
X838Y3177D01*
X836Y3177D01*
X836Y3181D01*
X834Y3181D01*
X834Y3185D01*
X832Y3185D01*
X832Y3187D01*
X830Y3187D01*
X830Y3193D01*
X828Y3193D01*
X828Y3201D01*
X826Y3201D01*
X826Y3211D01*
X828Y3211D01*
X828Y3221D01*
X830Y3221D01*
X830Y3225D01*
X832Y3225D01*
X832Y3229D01*
X834Y3229D01*
X834Y3233D01*
X836Y3233D01*
X836Y3235D01*
X838Y3235D01*
X838Y3237D01*
X840Y3237D01*
X840Y3239D01*
X842Y3239D01*
X842Y3243D01*
X846Y3243D01*
X846Y3245D01*
X848Y3245D01*
X848Y3247D01*
X850Y3247D01*
X850Y3249D01*
X852Y3249D01*
X852Y3251D01*
X856Y3251D01*
X856Y3253D01*
X860Y3253D01*
X860Y3255D01*
X866Y3255D01*
X866Y3257D01*
X876Y3257D01*
X876Y3277D01*
X870Y3277D01*
X870Y3279D01*
X864Y3279D01*
X864Y3281D01*
X858Y3281D01*
X858Y3283D01*
X856Y3283D01*
X856Y3285D01*
X852Y3285D01*
X852Y3287D01*
X850Y3287D01*
X850Y3289D01*
X846Y3289D01*
X846Y3291D01*
X844Y3291D01*
X844Y3293D01*
X842Y3293D01*
X842Y3295D01*
X840Y3295D01*
X840Y3297D01*
X838Y3297D01*
X838Y3301D01*
X836Y3301D01*
X836Y3303D01*
X834Y3303D01*
X834Y3307D01*
X832Y3307D01*
X832Y3311D01*
X830Y3311D01*
X830Y3313D01*
X596Y3313D01*
G37*
D02*
G36*
X596Y3009D02*
X596Y2993D01*
X616Y2993D01*
X616Y2995D01*
X618Y2995D01*
X618Y2997D01*
X622Y2997D01*
X622Y2999D01*
X624Y2999D01*
X624Y3001D01*
X626Y3001D01*
X626Y3003D01*
X630Y3003D01*
X630Y3005D01*
X634Y3005D01*
X634Y3007D01*
X640Y3007D01*
X640Y3009D01*
X596Y3009D01*
G37*
D02*
G36*
X596Y2931D02*
X596Y2915D01*
X638Y2915D01*
X638Y2917D01*
X632Y2917D01*
X632Y2919D01*
X628Y2919D01*
X628Y2921D01*
X626Y2921D01*
X626Y2923D01*
X622Y2923D01*
X622Y2925D01*
X620Y2925D01*
X620Y2927D01*
X618Y2927D01*
X618Y2929D01*
X616Y2929D01*
X616Y2931D01*
X596Y2931D01*
G37*
D02*
G36*
X596Y2915D02*
X596Y2913D01*
X866Y2913D01*
X866Y2915D01*
X596Y2915D01*
G37*
D02*
G36*
X596Y2915D02*
X596Y2913D01*
X866Y2913D01*
X866Y2915D01*
X596Y2915D01*
G37*
D02*
G36*
X596Y2913D02*
X596Y2867D01*
X652Y2867D01*
X652Y2865D01*
X658Y2865D01*
X658Y2863D01*
X662Y2863D01*
X662Y2861D01*
X666Y2861D01*
X666Y2859D01*
X668Y2859D01*
X668Y2857D01*
X670Y2857D01*
X670Y2855D01*
X672Y2855D01*
X672Y2853D01*
X674Y2853D01*
X674Y2849D01*
X676Y2849D01*
X676Y2845D01*
X678Y2845D01*
X678Y2829D01*
X676Y2829D01*
X676Y2825D01*
X674Y2825D01*
X674Y2821D01*
X672Y2821D01*
X672Y2819D01*
X670Y2819D01*
X670Y2817D01*
X668Y2817D01*
X668Y2815D01*
X666Y2815D01*
X666Y2813D01*
X664Y2813D01*
X664Y2811D01*
X660Y2811D01*
X660Y2809D01*
X656Y2809D01*
X656Y2807D01*
X854Y2807D01*
X854Y2809D01*
X852Y2809D01*
X852Y2811D01*
X848Y2811D01*
X848Y2813D01*
X846Y2813D01*
X846Y2815D01*
X844Y2815D01*
X844Y2817D01*
X842Y2817D01*
X842Y2819D01*
X840Y2819D01*
X840Y2821D01*
X838Y2821D01*
X838Y2823D01*
X836Y2823D01*
X836Y2827D01*
X834Y2827D01*
X834Y2831D01*
X832Y2831D01*
X832Y2833D01*
X830Y2833D01*
X830Y2839D01*
X828Y2839D01*
X828Y2847D01*
X826Y2847D01*
X826Y2857D01*
X828Y2857D01*
X828Y2867D01*
X830Y2867D01*
X830Y2871D01*
X832Y2871D01*
X832Y2875D01*
X834Y2875D01*
X834Y2879D01*
X836Y2879D01*
X836Y2881D01*
X838Y2881D01*
X838Y2883D01*
X840Y2883D01*
X840Y2885D01*
X842Y2885D01*
X842Y2887D01*
X844Y2887D01*
X844Y2889D01*
X846Y2889D01*
X846Y2891D01*
X848Y2891D01*
X848Y2893D01*
X850Y2893D01*
X850Y2895D01*
X854Y2895D01*
X854Y2897D01*
X856Y2897D01*
X856Y2899D01*
X860Y2899D01*
X860Y2901D01*
X866Y2901D01*
X866Y2913D01*
X596Y2913D01*
G37*
D02*
G36*
X596Y2867D02*
X596Y2807D01*
X642Y2807D01*
X642Y2809D01*
X638Y2809D01*
X638Y2811D01*
X634Y2811D01*
X634Y2813D01*
X632Y2813D01*
X632Y2815D01*
X630Y2815D01*
X630Y2817D01*
X628Y2817D01*
X628Y2819D01*
X626Y2819D01*
X626Y2821D01*
X624Y2821D01*
X624Y2825D01*
X622Y2825D01*
X622Y2829D01*
X620Y2829D01*
X620Y2845D01*
X622Y2845D01*
X622Y2849D01*
X624Y2849D01*
X624Y2853D01*
X626Y2853D01*
X626Y2855D01*
X628Y2855D01*
X628Y2857D01*
X630Y2857D01*
X630Y2859D01*
X632Y2859D01*
X632Y2861D01*
X636Y2861D01*
X636Y2863D01*
X640Y2863D01*
X640Y2865D01*
X646Y2865D01*
X646Y2867D01*
X596Y2867D01*
G37*
D02*
G36*
X596Y2807D02*
X596Y2805D01*
X858Y2805D01*
X858Y2807D01*
X596Y2807D01*
G37*
D02*
G36*
X596Y2807D02*
X596Y2805D01*
X858Y2805D01*
X858Y2807D01*
X596Y2807D01*
G37*
D02*
G36*
X596Y2805D02*
X596Y2681D01*
X594Y2681D01*
X594Y2675D01*
X592Y2675D01*
X592Y2673D01*
X590Y2673D01*
X590Y2671D01*
X588Y2671D01*
X588Y2667D01*
X586Y2667D01*
X586Y2665D01*
X584Y2665D01*
X584Y2663D01*
X582Y2663D01*
X582Y2661D01*
X580Y2661D01*
X580Y2659D01*
X578Y2659D01*
X578Y2657D01*
X576Y2657D01*
X576Y2655D01*
X574Y2655D01*
X574Y2653D01*
X572Y2653D01*
X572Y2651D01*
X570Y2651D01*
X570Y2649D01*
X568Y2649D01*
X568Y2647D01*
X566Y2647D01*
X566Y2645D01*
X564Y2645D01*
X564Y2643D01*
X562Y2643D01*
X562Y2641D01*
X560Y2641D01*
X560Y2639D01*
X558Y2639D01*
X558Y2637D01*
X556Y2637D01*
X556Y2635D01*
X554Y2635D01*
X554Y2633D01*
X552Y2633D01*
X552Y2631D01*
X550Y2631D01*
X550Y2629D01*
X548Y2629D01*
X548Y2627D01*
X546Y2627D01*
X546Y2625D01*
X544Y2625D01*
X544Y2623D01*
X542Y2623D01*
X542Y2621D01*
X540Y2621D01*
X540Y2619D01*
X538Y2619D01*
X538Y2617D01*
X536Y2617D01*
X536Y2615D01*
X534Y2615D01*
X534Y2613D01*
X532Y2613D01*
X532Y2611D01*
X530Y2611D01*
X530Y2609D01*
X528Y2609D01*
X528Y2607D01*
X526Y2607D01*
X526Y2605D01*
X524Y2605D01*
X524Y2603D01*
X522Y2603D01*
X522Y2601D01*
X520Y2601D01*
X520Y2599D01*
X518Y2599D01*
X518Y2597D01*
X516Y2597D01*
X516Y2595D01*
X514Y2595D01*
X514Y2593D01*
X512Y2593D01*
X512Y2591D01*
X510Y2591D01*
X510Y2589D01*
X508Y2589D01*
X508Y2587D01*
X506Y2587D01*
X506Y2585D01*
X504Y2585D01*
X504Y2583D01*
X502Y2583D01*
X502Y2581D01*
X500Y2581D01*
X500Y2579D01*
X498Y2579D01*
X498Y2577D01*
X496Y2577D01*
X496Y2335D01*
X754Y2335D01*
X754Y2333D01*
X762Y2333D01*
X762Y2331D01*
X766Y2331D01*
X766Y2329D01*
X770Y2329D01*
X770Y2327D01*
X774Y2327D01*
X774Y2325D01*
X776Y2325D01*
X776Y2323D01*
X778Y2323D01*
X778Y2321D01*
X782Y2321D01*
X782Y2317D01*
X784Y2317D01*
X784Y2315D01*
X786Y2315D01*
X786Y2313D01*
X788Y2313D01*
X788Y2311D01*
X790Y2311D01*
X790Y2307D01*
X792Y2307D01*
X792Y2303D01*
X794Y2303D01*
X794Y2297D01*
X796Y2297D01*
X796Y2275D01*
X794Y2275D01*
X794Y2271D01*
X792Y2271D01*
X792Y2267D01*
X790Y2267D01*
X790Y2263D01*
X788Y2263D01*
X788Y2243D01*
X790Y2243D01*
X790Y2205D01*
X872Y2205D01*
X872Y2207D01*
X864Y2207D01*
X864Y2209D01*
X860Y2209D01*
X860Y2211D01*
X856Y2211D01*
X856Y2213D01*
X852Y2213D01*
X852Y2215D01*
X850Y2215D01*
X850Y2217D01*
X846Y2217D01*
X846Y2219D01*
X844Y2219D01*
X844Y2221D01*
X842Y2221D01*
X842Y2223D01*
X840Y2223D01*
X840Y2227D01*
X838Y2227D01*
X838Y2229D01*
X836Y2229D01*
X836Y2231D01*
X834Y2231D01*
X834Y2235D01*
X832Y2235D01*
X832Y2239D01*
X830Y2239D01*
X830Y2243D01*
X828Y2243D01*
X828Y2251D01*
X826Y2251D01*
X826Y2263D01*
X828Y2263D01*
X828Y2271D01*
X830Y2271D01*
X830Y2275D01*
X832Y2275D01*
X832Y2279D01*
X834Y2279D01*
X834Y2283D01*
X836Y2283D01*
X836Y2285D01*
X838Y2285D01*
X838Y2289D01*
X840Y2289D01*
X840Y2291D01*
X842Y2291D01*
X842Y2293D01*
X844Y2293D01*
X844Y2295D01*
X846Y2295D01*
X846Y2297D01*
X850Y2297D01*
X850Y2299D01*
X852Y2299D01*
X852Y2301D01*
X856Y2301D01*
X856Y2303D01*
X858Y2303D01*
X858Y2305D01*
X864Y2305D01*
X864Y2307D01*
X872Y2307D01*
X872Y2309D01*
X874Y2309D01*
X874Y2329D01*
X864Y2329D01*
X864Y2331D01*
X860Y2331D01*
X860Y2333D01*
X856Y2333D01*
X856Y2335D01*
X854Y2335D01*
X854Y2337D01*
X850Y2337D01*
X850Y2339D01*
X848Y2339D01*
X848Y2341D01*
X846Y2341D01*
X846Y2343D01*
X844Y2343D01*
X844Y2345D01*
X842Y2345D01*
X842Y2347D01*
X840Y2347D01*
X840Y2349D01*
X838Y2349D01*
X838Y2351D01*
X836Y2351D01*
X836Y2355D01*
X834Y2355D01*
X834Y2357D01*
X832Y2357D01*
X832Y2361D01*
X830Y2361D01*
X830Y2367D01*
X828Y2367D01*
X828Y2391D01*
X830Y2391D01*
X830Y2397D01*
X832Y2397D01*
X832Y2401D01*
X834Y2401D01*
X834Y2405D01*
X836Y2405D01*
X836Y2407D01*
X838Y2407D01*
X838Y2409D01*
X840Y2409D01*
X840Y2413D01*
X842Y2413D01*
X842Y2415D01*
X844Y2415D01*
X844Y2417D01*
X848Y2417D01*
X848Y2419D01*
X850Y2419D01*
X850Y2421D01*
X852Y2421D01*
X852Y2423D01*
X856Y2423D01*
X856Y2425D01*
X860Y2425D01*
X860Y2427D01*
X864Y2427D01*
X864Y2429D01*
X868Y2429D01*
X868Y2449D01*
X862Y2449D01*
X862Y2451D01*
X858Y2451D01*
X858Y2453D01*
X854Y2453D01*
X854Y2455D01*
X850Y2455D01*
X850Y2457D01*
X848Y2457D01*
X848Y2459D01*
X846Y2459D01*
X846Y2461D01*
X844Y2461D01*
X844Y2463D01*
X842Y2463D01*
X842Y2465D01*
X840Y2465D01*
X840Y2467D01*
X838Y2467D01*
X838Y2469D01*
X836Y2469D01*
X836Y2473D01*
X834Y2473D01*
X834Y2475D01*
X832Y2475D01*
X832Y2479D01*
X830Y2479D01*
X830Y2485D01*
X828Y2485D01*
X828Y2493D01*
X826Y2493D01*
X826Y2503D01*
X828Y2503D01*
X828Y2511D01*
X830Y2511D01*
X830Y2517D01*
X832Y2517D01*
X832Y2521D01*
X834Y2521D01*
X834Y2523D01*
X836Y2523D01*
X836Y2527D01*
X838Y2527D01*
X838Y2529D01*
X840Y2529D01*
X840Y2531D01*
X842Y2531D01*
X842Y2533D01*
X844Y2533D01*
X844Y2535D01*
X846Y2535D01*
X846Y2537D01*
X848Y2537D01*
X848Y2539D01*
X850Y2539D01*
X850Y2541D01*
X854Y2541D01*
X854Y2543D01*
X856Y2543D01*
X856Y2545D01*
X860Y2545D01*
X860Y2547D01*
X864Y2547D01*
X864Y2567D01*
X860Y2567D01*
X860Y2569D01*
X856Y2569D01*
X856Y2571D01*
X852Y2571D01*
X852Y2573D01*
X850Y2573D01*
X850Y2575D01*
X848Y2575D01*
X848Y2577D01*
X844Y2577D01*
X844Y2579D01*
X842Y2579D01*
X842Y2581D01*
X840Y2581D01*
X840Y2585D01*
X838Y2585D01*
X838Y2587D01*
X836Y2587D01*
X836Y2589D01*
X834Y2589D01*
X834Y2593D01*
X832Y2593D01*
X832Y2597D01*
X830Y2597D01*
X830Y2601D01*
X828Y2601D01*
X828Y2611D01*
X826Y2611D01*
X826Y2621D01*
X828Y2621D01*
X828Y2629D01*
X830Y2629D01*
X830Y2635D01*
X832Y2635D01*
X832Y2637D01*
X834Y2637D01*
X834Y2641D01*
X836Y2641D01*
X836Y2643D01*
X838Y2643D01*
X838Y2647D01*
X840Y2647D01*
X840Y2649D01*
X842Y2649D01*
X842Y2651D01*
X844Y2651D01*
X844Y2653D01*
X846Y2653D01*
X846Y2655D01*
X848Y2655D01*
X848Y2657D01*
X852Y2657D01*
X852Y2659D01*
X854Y2659D01*
X854Y2661D01*
X858Y2661D01*
X858Y2663D01*
X862Y2663D01*
X862Y2665D01*
X866Y2665D01*
X866Y2685D01*
X860Y2685D01*
X860Y2687D01*
X856Y2687D01*
X856Y2689D01*
X854Y2689D01*
X854Y2691D01*
X850Y2691D01*
X850Y2693D01*
X848Y2693D01*
X848Y2695D01*
X846Y2695D01*
X846Y2697D01*
X844Y2697D01*
X844Y2699D01*
X842Y2699D01*
X842Y2701D01*
X840Y2701D01*
X840Y2703D01*
X838Y2703D01*
X838Y2705D01*
X836Y2705D01*
X836Y2709D01*
X834Y2709D01*
X834Y2711D01*
X832Y2711D01*
X832Y2715D01*
X830Y2715D01*
X830Y2721D01*
X828Y2721D01*
X828Y2729D01*
X826Y2729D01*
X826Y2739D01*
X828Y2739D01*
X828Y2747D01*
X830Y2747D01*
X830Y2753D01*
X832Y2753D01*
X832Y2757D01*
X834Y2757D01*
X834Y2759D01*
X836Y2759D01*
X836Y2763D01*
X838Y2763D01*
X838Y2765D01*
X840Y2765D01*
X840Y2767D01*
X842Y2767D01*
X842Y2769D01*
X844Y2769D01*
X844Y2771D01*
X846Y2771D01*
X846Y2773D01*
X848Y2773D01*
X848Y2775D01*
X850Y2775D01*
X850Y2777D01*
X854Y2777D01*
X854Y2779D01*
X858Y2779D01*
X858Y2781D01*
X862Y2781D01*
X862Y2783D01*
X868Y2783D01*
X868Y2803D01*
X862Y2803D01*
X862Y2805D01*
X596Y2805D01*
G37*
D02*
G36*
X496Y2335D02*
X496Y1317D01*
X526Y1317D01*
X526Y1315D01*
X534Y1315D01*
X534Y1313D01*
X538Y1313D01*
X538Y1311D01*
X540Y1311D01*
X540Y1309D01*
X542Y1309D01*
X542Y1307D01*
X544Y1307D01*
X544Y1305D01*
X546Y1305D01*
X546Y1303D01*
X548Y1303D01*
X548Y1301D01*
X550Y1301D01*
X550Y1297D01*
X552Y1297D01*
X552Y1293D01*
X554Y1293D01*
X554Y1281D01*
X552Y1281D01*
X552Y1275D01*
X550Y1275D01*
X550Y1273D01*
X548Y1273D01*
X548Y1269D01*
X546Y1269D01*
X546Y629D01*
X544Y629D01*
X544Y625D01*
X542Y625D01*
X542Y623D01*
X540Y623D01*
X540Y619D01*
X538Y619D01*
X538Y617D01*
X536Y617D01*
X536Y615D01*
X818Y615D01*
X818Y617D01*
X814Y617D01*
X814Y619D01*
X810Y619D01*
X810Y621D01*
X646Y621D01*
X646Y623D01*
X636Y623D01*
X636Y625D01*
X632Y625D01*
X632Y627D01*
X628Y627D01*
X628Y629D01*
X624Y629D01*
X624Y631D01*
X622Y631D01*
X622Y633D01*
X620Y633D01*
X620Y635D01*
X618Y635D01*
X618Y637D01*
X616Y637D01*
X616Y639D01*
X614Y639D01*
X614Y641D01*
X612Y641D01*
X612Y643D01*
X610Y643D01*
X610Y645D01*
X608Y645D01*
X608Y647D01*
X606Y647D01*
X606Y649D01*
X604Y649D01*
X604Y651D01*
X602Y651D01*
X602Y653D01*
X600Y653D01*
X600Y655D01*
X598Y655D01*
X598Y657D01*
X596Y657D01*
X596Y659D01*
X594Y659D01*
X594Y661D01*
X592Y661D01*
X592Y665D01*
X590Y665D01*
X590Y667D01*
X588Y667D01*
X588Y671D01*
X586Y671D01*
X586Y679D01*
X584Y679D01*
X584Y2265D01*
X582Y2265D01*
X582Y2269D01*
X580Y2269D01*
X580Y2273D01*
X578Y2273D01*
X578Y2281D01*
X576Y2281D01*
X576Y2293D01*
X578Y2293D01*
X578Y2299D01*
X580Y2299D01*
X580Y2305D01*
X582Y2305D01*
X582Y2309D01*
X584Y2309D01*
X584Y2311D01*
X586Y2311D01*
X586Y2315D01*
X588Y2315D01*
X588Y2317D01*
X590Y2317D01*
X590Y2319D01*
X592Y2319D01*
X592Y2321D01*
X594Y2321D01*
X594Y2323D01*
X596Y2323D01*
X596Y2325D01*
X600Y2325D01*
X600Y2327D01*
X602Y2327D01*
X602Y2329D01*
X606Y2329D01*
X606Y2331D01*
X612Y2331D01*
X612Y2333D01*
X620Y2333D01*
X620Y2335D01*
X496Y2335D01*
G37*
D02*
G36*
X628Y2335D02*
X628Y2333D01*
X636Y2333D01*
X636Y2331D01*
X642Y2331D01*
X642Y2329D01*
X646Y2329D01*
X646Y2327D01*
X648Y2327D01*
X648Y2325D01*
X652Y2325D01*
X652Y2323D01*
X654Y2323D01*
X654Y2321D01*
X656Y2321D01*
X656Y2319D01*
X658Y2319D01*
X658Y2317D01*
X660Y2317D01*
X660Y2315D01*
X662Y2315D01*
X662Y2311D01*
X664Y2311D01*
X664Y2309D01*
X666Y2309D01*
X666Y2305D01*
X668Y2305D01*
X668Y2301D01*
X670Y2301D01*
X670Y2295D01*
X672Y2295D01*
X672Y2279D01*
X670Y2279D01*
X670Y2273D01*
X668Y2273D01*
X668Y2269D01*
X666Y2269D01*
X666Y2265D01*
X664Y2265D01*
X664Y757D01*
X874Y757D01*
X874Y759D01*
X864Y759D01*
X864Y761D01*
X858Y761D01*
X858Y763D01*
X854Y763D01*
X854Y765D01*
X850Y765D01*
X850Y767D01*
X848Y767D01*
X848Y769D01*
X846Y769D01*
X846Y771D01*
X770Y771D01*
X770Y773D01*
X760Y773D01*
X760Y775D01*
X756Y775D01*
X756Y777D01*
X752Y777D01*
X752Y779D01*
X750Y779D01*
X750Y781D01*
X748Y781D01*
X748Y783D01*
X746Y783D01*
X746Y785D01*
X744Y785D01*
X744Y787D01*
X742Y787D01*
X742Y789D01*
X740Y789D01*
X740Y791D01*
X738Y791D01*
X738Y793D01*
X736Y793D01*
X736Y795D01*
X734Y795D01*
X734Y797D01*
X732Y797D01*
X732Y799D01*
X730Y799D01*
X730Y801D01*
X728Y801D01*
X728Y803D01*
X726Y803D01*
X726Y805D01*
X724Y805D01*
X724Y807D01*
X722Y807D01*
X722Y809D01*
X720Y809D01*
X720Y811D01*
X718Y811D01*
X718Y813D01*
X716Y813D01*
X716Y815D01*
X714Y815D01*
X714Y819D01*
X712Y819D01*
X712Y825D01*
X710Y825D01*
X710Y2263D01*
X708Y2263D01*
X708Y2267D01*
X706Y2267D01*
X706Y2271D01*
X704Y2271D01*
X704Y2277D01*
X702Y2277D01*
X702Y2297D01*
X704Y2297D01*
X704Y2303D01*
X706Y2303D01*
X706Y2307D01*
X708Y2307D01*
X708Y2309D01*
X710Y2309D01*
X710Y2313D01*
X712Y2313D01*
X712Y2315D01*
X714Y2315D01*
X714Y2317D01*
X716Y2317D01*
X716Y2319D01*
X718Y2319D01*
X718Y2321D01*
X720Y2321D01*
X720Y2323D01*
X722Y2323D01*
X722Y2325D01*
X724Y2325D01*
X724Y2327D01*
X728Y2327D01*
X728Y2329D01*
X732Y2329D01*
X732Y2331D01*
X736Y2331D01*
X736Y2333D01*
X744Y2333D01*
X744Y2335D01*
X628Y2335D01*
G37*
D02*
G36*
X790Y2205D02*
X790Y2203D01*
X956Y2203D01*
X956Y2205D01*
X790Y2205D01*
G37*
D02*
G36*
X790Y2205D02*
X790Y2203D01*
X956Y2203D01*
X956Y2205D01*
X790Y2205D01*
G37*
D02*
G36*
X790Y2203D02*
X790Y2065D01*
X886Y2065D01*
X886Y2063D01*
X892Y2063D01*
X892Y2061D01*
X896Y2061D01*
X896Y2059D01*
X900Y2059D01*
X900Y2057D01*
X904Y2057D01*
X904Y2055D01*
X906Y2055D01*
X906Y2053D01*
X908Y2053D01*
X908Y2051D01*
X910Y2051D01*
X910Y2049D01*
X912Y2049D01*
X912Y2047D01*
X914Y2047D01*
X914Y2045D01*
X916Y2045D01*
X916Y2043D01*
X918Y2043D01*
X918Y2039D01*
X920Y2039D01*
X920Y2035D01*
X922Y2035D01*
X922Y2033D01*
X924Y2033D01*
X924Y2027D01*
X926Y2027D01*
X926Y2017D01*
X928Y2017D01*
X928Y2011D01*
X926Y2011D01*
X926Y2001D01*
X924Y2001D01*
X924Y1995D01*
X922Y1995D01*
X922Y1993D01*
X920Y1993D01*
X920Y1989D01*
X918Y1989D01*
X918Y1985D01*
X916Y1985D01*
X916Y1983D01*
X914Y1983D01*
X914Y1981D01*
X912Y1981D01*
X912Y1979D01*
X910Y1979D01*
X910Y1977D01*
X908Y1977D01*
X908Y1975D01*
X906Y1975D01*
X906Y1973D01*
X904Y1973D01*
X904Y1971D01*
X900Y1971D01*
X900Y1969D01*
X896Y1969D01*
X896Y1967D01*
X892Y1967D01*
X892Y1965D01*
X888Y1965D01*
X888Y1963D01*
X956Y1963D01*
X956Y2203D01*
X790Y2203D01*
G37*
D02*
G36*
X790Y2065D02*
X790Y1963D01*
X864Y1963D01*
X864Y1965D01*
X858Y1965D01*
X858Y1967D01*
X854Y1967D01*
X854Y1969D01*
X850Y1969D01*
X850Y1971D01*
X848Y1971D01*
X848Y1973D01*
X846Y1973D01*
X846Y1975D01*
X842Y1975D01*
X842Y1977D01*
X840Y1977D01*
X840Y1979D01*
X838Y1979D01*
X838Y1983D01*
X836Y1983D01*
X836Y1985D01*
X834Y1985D01*
X834Y1987D01*
X832Y1987D01*
X832Y1991D01*
X830Y1991D01*
X830Y1993D01*
X828Y1993D01*
X828Y1999D01*
X826Y1999D01*
X826Y2005D01*
X824Y2005D01*
X824Y2023D01*
X826Y2023D01*
X826Y2029D01*
X828Y2029D01*
X828Y2035D01*
X830Y2035D01*
X830Y2037D01*
X832Y2037D01*
X832Y2041D01*
X834Y2041D01*
X834Y2043D01*
X836Y2043D01*
X836Y2045D01*
X838Y2045D01*
X838Y2049D01*
X840Y2049D01*
X840Y2051D01*
X844Y2051D01*
X844Y2053D01*
X846Y2053D01*
X846Y2055D01*
X848Y2055D01*
X848Y2057D01*
X852Y2057D01*
X852Y2059D01*
X854Y2059D01*
X854Y2061D01*
X858Y2061D01*
X858Y2063D01*
X864Y2063D01*
X864Y2065D01*
X790Y2065D01*
G37*
D02*
G36*
X790Y1963D02*
X790Y1961D01*
X956Y1961D01*
X956Y1963D01*
X790Y1963D01*
G37*
D02*
G36*
X790Y1963D02*
X790Y1961D01*
X956Y1961D01*
X956Y1963D01*
X790Y1963D01*
G37*
D02*
G36*
X790Y1961D02*
X790Y1927D01*
X882Y1927D01*
X882Y1925D01*
X890Y1925D01*
X890Y1923D01*
X894Y1923D01*
X894Y1921D01*
X898Y1921D01*
X898Y1919D01*
X902Y1919D01*
X902Y1917D01*
X904Y1917D01*
X904Y1915D01*
X906Y1915D01*
X906Y1913D01*
X910Y1913D01*
X910Y1911D01*
X912Y1911D01*
X912Y1909D01*
X914Y1909D01*
X914Y1905D01*
X916Y1905D01*
X916Y1903D01*
X918Y1903D01*
X918Y1901D01*
X920Y1901D01*
X920Y1897D01*
X922Y1897D01*
X922Y1893D01*
X924Y1893D01*
X924Y1889D01*
X926Y1889D01*
X926Y1877D01*
X928Y1877D01*
X928Y1873D01*
X926Y1873D01*
X926Y1863D01*
X924Y1863D01*
X924Y1857D01*
X922Y1857D01*
X922Y1853D01*
X920Y1853D01*
X920Y1849D01*
X918Y1849D01*
X918Y1847D01*
X916Y1847D01*
X916Y1845D01*
X914Y1845D01*
X914Y1841D01*
X912Y1841D01*
X912Y1839D01*
X910Y1839D01*
X910Y1837D01*
X906Y1837D01*
X906Y1835D01*
X904Y1835D01*
X904Y1833D01*
X902Y1833D01*
X902Y1831D01*
X898Y1831D01*
X898Y1829D01*
X894Y1829D01*
X894Y1827D01*
X890Y1827D01*
X890Y1825D01*
X882Y1825D01*
X882Y1805D01*
X888Y1805D01*
X888Y1803D01*
X894Y1803D01*
X894Y1801D01*
X896Y1801D01*
X896Y1799D01*
X900Y1799D01*
X900Y1797D01*
X904Y1797D01*
X904Y1795D01*
X906Y1795D01*
X906Y1793D01*
X908Y1793D01*
X908Y1791D01*
X910Y1791D01*
X910Y1789D01*
X912Y1789D01*
X912Y1787D01*
X914Y1787D01*
X914Y1785D01*
X916Y1785D01*
X916Y1781D01*
X918Y1781D01*
X918Y1779D01*
X920Y1779D01*
X920Y1775D01*
X922Y1775D01*
X922Y1771D01*
X924Y1771D01*
X924Y1765D01*
X926Y1765D01*
X926Y1745D01*
X924Y1745D01*
X924Y1739D01*
X922Y1739D01*
X922Y1735D01*
X920Y1735D01*
X920Y1731D01*
X918Y1731D01*
X918Y1727D01*
X916Y1727D01*
X916Y1725D01*
X914Y1725D01*
X914Y1723D01*
X912Y1723D01*
X912Y1721D01*
X910Y1721D01*
X910Y1719D01*
X908Y1719D01*
X908Y1717D01*
X906Y1717D01*
X906Y1715D01*
X904Y1715D01*
X904Y1713D01*
X902Y1713D01*
X902Y1711D01*
X898Y1711D01*
X898Y1709D01*
X894Y1709D01*
X894Y1707D01*
X890Y1707D01*
X890Y1705D01*
X886Y1705D01*
X886Y1685D01*
X892Y1685D01*
X892Y1683D01*
X896Y1683D01*
X896Y1681D01*
X900Y1681D01*
X900Y1679D01*
X902Y1679D01*
X902Y1677D01*
X904Y1677D01*
X904Y1675D01*
X908Y1675D01*
X908Y1673D01*
X910Y1673D01*
X910Y1671D01*
X912Y1671D01*
X912Y1669D01*
X914Y1669D01*
X914Y1665D01*
X916Y1665D01*
X916Y1663D01*
X918Y1663D01*
X918Y1659D01*
X920Y1659D01*
X920Y1657D01*
X922Y1657D01*
X922Y1653D01*
X924Y1653D01*
X924Y1645D01*
X926Y1645D01*
X926Y1627D01*
X924Y1627D01*
X924Y1621D01*
X922Y1621D01*
X922Y1615D01*
X920Y1615D01*
X920Y1613D01*
X918Y1613D01*
X918Y1609D01*
X916Y1609D01*
X916Y1607D01*
X914Y1607D01*
X914Y1605D01*
X912Y1605D01*
X912Y1601D01*
X910Y1601D01*
X910Y1599D01*
X906Y1599D01*
X906Y1597D01*
X904Y1597D01*
X904Y1595D01*
X902Y1595D01*
X902Y1593D01*
X898Y1593D01*
X898Y1591D01*
X896Y1591D01*
X896Y1589D01*
X892Y1589D01*
X892Y1587D01*
X886Y1587D01*
X886Y1567D01*
X890Y1567D01*
X890Y1565D01*
X894Y1565D01*
X894Y1563D01*
X898Y1563D01*
X898Y1561D01*
X902Y1561D01*
X902Y1559D01*
X904Y1559D01*
X904Y1557D01*
X906Y1557D01*
X906Y1555D01*
X910Y1555D01*
X910Y1553D01*
X912Y1553D01*
X912Y1549D01*
X914Y1549D01*
X914Y1547D01*
X916Y1547D01*
X916Y1545D01*
X918Y1545D01*
X918Y1541D01*
X920Y1541D01*
X920Y1537D01*
X922Y1537D01*
X922Y1533D01*
X924Y1533D01*
X924Y1527D01*
X926Y1527D01*
X926Y1507D01*
X924Y1507D01*
X924Y1501D01*
X922Y1501D01*
X922Y1497D01*
X920Y1497D01*
X920Y1493D01*
X918Y1493D01*
X918Y1491D01*
X916Y1491D01*
X916Y1487D01*
X914Y1487D01*
X914Y1485D01*
X912Y1485D01*
X912Y1483D01*
X910Y1483D01*
X910Y1481D01*
X908Y1481D01*
X908Y1479D01*
X906Y1479D01*
X906Y1477D01*
X902Y1477D01*
X902Y1475D01*
X900Y1475D01*
X900Y1473D01*
X896Y1473D01*
X896Y1471D01*
X892Y1471D01*
X892Y1469D01*
X888Y1469D01*
X888Y1449D01*
X890Y1449D01*
X890Y1447D01*
X894Y1447D01*
X894Y1445D01*
X898Y1445D01*
X898Y1443D01*
X900Y1443D01*
X900Y1441D01*
X904Y1441D01*
X904Y1439D01*
X906Y1439D01*
X906Y1437D01*
X908Y1437D01*
X908Y1435D01*
X910Y1435D01*
X910Y1433D01*
X912Y1433D01*
X912Y1431D01*
X914Y1431D01*
X914Y1429D01*
X916Y1429D01*
X916Y1427D01*
X918Y1427D01*
X918Y1423D01*
X920Y1423D01*
X920Y1419D01*
X922Y1419D01*
X922Y1415D01*
X924Y1415D01*
X924Y1409D01*
X926Y1409D01*
X926Y1389D01*
X924Y1389D01*
X924Y1383D01*
X922Y1383D01*
X922Y1379D01*
X920Y1379D01*
X920Y1375D01*
X918Y1375D01*
X918Y1373D01*
X916Y1373D01*
X916Y1369D01*
X914Y1369D01*
X914Y1367D01*
X912Y1367D01*
X912Y1365D01*
X910Y1365D01*
X910Y1363D01*
X908Y1363D01*
X908Y1361D01*
X906Y1361D01*
X906Y1359D01*
X904Y1359D01*
X904Y1357D01*
X900Y1357D01*
X900Y1355D01*
X898Y1355D01*
X898Y1353D01*
X894Y1353D01*
X894Y1351D01*
X888Y1351D01*
X888Y1329D01*
X894Y1329D01*
X894Y1327D01*
X896Y1327D01*
X896Y1325D01*
X900Y1325D01*
X900Y1323D01*
X904Y1323D01*
X904Y1321D01*
X906Y1321D01*
X906Y1319D01*
X908Y1319D01*
X908Y1317D01*
X910Y1317D01*
X910Y1315D01*
X912Y1315D01*
X912Y1313D01*
X914Y1313D01*
X914Y1311D01*
X916Y1311D01*
X916Y1307D01*
X918Y1307D01*
X918Y1305D01*
X920Y1305D01*
X920Y1301D01*
X922Y1301D01*
X922Y1297D01*
X924Y1297D01*
X924Y1291D01*
X926Y1291D01*
X926Y1271D01*
X924Y1271D01*
X924Y1265D01*
X922Y1265D01*
X922Y1261D01*
X920Y1261D01*
X920Y1257D01*
X918Y1257D01*
X918Y1253D01*
X916Y1253D01*
X916Y1251D01*
X914Y1251D01*
X914Y1249D01*
X912Y1249D01*
X912Y1247D01*
X910Y1247D01*
X910Y1245D01*
X908Y1245D01*
X908Y1243D01*
X906Y1243D01*
X906Y1241D01*
X904Y1241D01*
X904Y1239D01*
X902Y1239D01*
X902Y1237D01*
X898Y1237D01*
X898Y1235D01*
X894Y1235D01*
X894Y1233D01*
X890Y1233D01*
X890Y1213D01*
X894Y1213D01*
X894Y1211D01*
X898Y1211D01*
X898Y1209D01*
X902Y1209D01*
X902Y1207D01*
X904Y1207D01*
X904Y1205D01*
X906Y1205D01*
X906Y1203D01*
X910Y1203D01*
X910Y1201D01*
X912Y1201D01*
X912Y1199D01*
X914Y1199D01*
X914Y1195D01*
X916Y1195D01*
X916Y1193D01*
X918Y1193D01*
X918Y1191D01*
X920Y1191D01*
X920Y1187D01*
X922Y1187D01*
X922Y1183D01*
X924Y1183D01*
X924Y1177D01*
X926Y1177D01*
X926Y1167D01*
X928Y1167D01*
X928Y1163D01*
X926Y1163D01*
X926Y1151D01*
X924Y1151D01*
X924Y1147D01*
X922Y1147D01*
X922Y1143D01*
X920Y1143D01*
X920Y1139D01*
X918Y1139D01*
X918Y1137D01*
X916Y1137D01*
X916Y1135D01*
X914Y1135D01*
X914Y1131D01*
X912Y1131D01*
X912Y1129D01*
X910Y1129D01*
X910Y1127D01*
X906Y1127D01*
X906Y1125D01*
X904Y1125D01*
X904Y1123D01*
X902Y1123D01*
X902Y1121D01*
X898Y1121D01*
X898Y1119D01*
X894Y1119D01*
X894Y1117D01*
X890Y1117D01*
X890Y1115D01*
X888Y1115D01*
X888Y1095D01*
X892Y1095D01*
X892Y1093D01*
X896Y1093D01*
X896Y1091D01*
X898Y1091D01*
X898Y1089D01*
X902Y1089D01*
X902Y1087D01*
X904Y1087D01*
X904Y1085D01*
X906Y1085D01*
X906Y1083D01*
X908Y1083D01*
X908Y1081D01*
X910Y1081D01*
X910Y1079D01*
X912Y1079D01*
X912Y1077D01*
X914Y1077D01*
X914Y1075D01*
X916Y1075D01*
X916Y1071D01*
X918Y1071D01*
X918Y1069D01*
X920Y1069D01*
X920Y1065D01*
X922Y1065D01*
X922Y1059D01*
X924Y1059D01*
X924Y1035D01*
X922Y1035D01*
X922Y1029D01*
X920Y1029D01*
X920Y1025D01*
X918Y1025D01*
X918Y1023D01*
X916Y1023D01*
X916Y1019D01*
X914Y1019D01*
X914Y1017D01*
X912Y1017D01*
X912Y1015D01*
X910Y1015D01*
X910Y1011D01*
X908Y1011D01*
X908Y1009D01*
X904Y1009D01*
X904Y1007D01*
X902Y1007D01*
X902Y1005D01*
X900Y1005D01*
X900Y1003D01*
X896Y1003D01*
X896Y1001D01*
X892Y1001D01*
X892Y999D01*
X888Y999D01*
X888Y979D01*
X890Y979D01*
X890Y977D01*
X894Y977D01*
X894Y975D01*
X898Y975D01*
X898Y973D01*
X902Y973D01*
X902Y971D01*
X904Y971D01*
X904Y969D01*
X908Y969D01*
X908Y967D01*
X910Y967D01*
X910Y965D01*
X912Y965D01*
X912Y963D01*
X914Y963D01*
X914Y961D01*
X916Y961D01*
X916Y959D01*
X918Y959D01*
X918Y955D01*
X920Y955D01*
X920Y951D01*
X922Y951D01*
X922Y949D01*
X924Y949D01*
X924Y945D01*
X926Y945D01*
X926Y937D01*
X928Y937D01*
X928Y919D01*
X926Y919D01*
X926Y913D01*
X924Y913D01*
X924Y909D01*
X922Y909D01*
X922Y905D01*
X920Y905D01*
X920Y901D01*
X918Y901D01*
X918Y899D01*
X916Y899D01*
X916Y897D01*
X914Y897D01*
X914Y895D01*
X912Y895D01*
X912Y893D01*
X910Y893D01*
X910Y891D01*
X908Y891D01*
X908Y889D01*
X906Y889D01*
X906Y887D01*
X904Y887D01*
X904Y885D01*
X900Y885D01*
X900Y883D01*
X896Y883D01*
X896Y881D01*
X892Y881D01*
X892Y879D01*
X886Y879D01*
X886Y859D01*
X892Y859D01*
X892Y857D01*
X896Y857D01*
X896Y855D01*
X900Y855D01*
X900Y853D01*
X904Y853D01*
X904Y851D01*
X906Y851D01*
X906Y849D01*
X908Y849D01*
X908Y847D01*
X910Y847D01*
X910Y845D01*
X912Y845D01*
X912Y843D01*
X914Y843D01*
X914Y841D01*
X916Y841D01*
X916Y839D01*
X918Y839D01*
X918Y835D01*
X920Y835D01*
X920Y833D01*
X922Y833D01*
X922Y829D01*
X924Y829D01*
X924Y825D01*
X926Y825D01*
X926Y817D01*
X928Y817D01*
X928Y803D01*
X926Y803D01*
X926Y795D01*
X924Y795D01*
X924Y791D01*
X922Y791D01*
X922Y787D01*
X920Y787D01*
X920Y783D01*
X918Y783D01*
X918Y781D01*
X916Y781D01*
X916Y779D01*
X914Y779D01*
X914Y775D01*
X912Y775D01*
X912Y773D01*
X910Y773D01*
X910Y771D01*
X906Y771D01*
X906Y769D01*
X904Y769D01*
X904Y767D01*
X902Y767D01*
X902Y765D01*
X898Y765D01*
X898Y763D01*
X894Y763D01*
X894Y761D01*
X890Y761D01*
X890Y759D01*
X878Y759D01*
X878Y757D01*
X956Y757D01*
X956Y1961D01*
X790Y1961D01*
G37*
D02*
G36*
X790Y1927D02*
X790Y851D01*
X850Y851D01*
X850Y853D01*
X852Y853D01*
X852Y855D01*
X856Y855D01*
X856Y857D01*
X860Y857D01*
X860Y859D01*
X866Y859D01*
X866Y879D01*
X860Y879D01*
X860Y881D01*
X856Y881D01*
X856Y883D01*
X854Y883D01*
X854Y885D01*
X850Y885D01*
X850Y887D01*
X846Y887D01*
X846Y889D01*
X844Y889D01*
X844Y891D01*
X842Y891D01*
X842Y893D01*
X840Y893D01*
X840Y895D01*
X838Y895D01*
X838Y897D01*
X836Y897D01*
X836Y901D01*
X834Y901D01*
X834Y903D01*
X832Y903D01*
X832Y907D01*
X830Y907D01*
X830Y911D01*
X828Y911D01*
X828Y915D01*
X826Y915D01*
X826Y923D01*
X824Y923D01*
X824Y933D01*
X826Y933D01*
X826Y943D01*
X828Y943D01*
X828Y947D01*
X830Y947D01*
X830Y951D01*
X832Y951D01*
X832Y955D01*
X834Y955D01*
X834Y957D01*
X836Y957D01*
X836Y959D01*
X838Y959D01*
X838Y961D01*
X840Y961D01*
X840Y965D01*
X844Y965D01*
X844Y967D01*
X846Y967D01*
X846Y969D01*
X848Y969D01*
X848Y971D01*
X850Y971D01*
X850Y973D01*
X854Y973D01*
X854Y975D01*
X858Y975D01*
X858Y977D01*
X862Y977D01*
X862Y997D01*
X858Y997D01*
X858Y999D01*
X854Y999D01*
X854Y1001D01*
X850Y1001D01*
X850Y1003D01*
X846Y1003D01*
X846Y1005D01*
X844Y1005D01*
X844Y1007D01*
X842Y1007D01*
X842Y1009D01*
X840Y1009D01*
X840Y1011D01*
X838Y1011D01*
X838Y1013D01*
X836Y1013D01*
X836Y1015D01*
X834Y1015D01*
X834Y1017D01*
X832Y1017D01*
X832Y1019D01*
X830Y1019D01*
X830Y1023D01*
X828Y1023D01*
X828Y1027D01*
X826Y1027D01*
X826Y1031D01*
X824Y1031D01*
X824Y1037D01*
X822Y1037D01*
X822Y1057D01*
X824Y1057D01*
X824Y1063D01*
X826Y1063D01*
X826Y1067D01*
X828Y1067D01*
X828Y1071D01*
X830Y1071D01*
X830Y1075D01*
X832Y1075D01*
X832Y1077D01*
X834Y1077D01*
X834Y1079D01*
X836Y1079D01*
X836Y1081D01*
X838Y1081D01*
X838Y1083D01*
X840Y1083D01*
X840Y1085D01*
X842Y1085D01*
X842Y1087D01*
X844Y1087D01*
X844Y1089D01*
X848Y1089D01*
X848Y1091D01*
X850Y1091D01*
X850Y1093D01*
X854Y1093D01*
X854Y1095D01*
X860Y1095D01*
X860Y1117D01*
X856Y1117D01*
X856Y1119D01*
X852Y1119D01*
X852Y1121D01*
X850Y1121D01*
X850Y1123D01*
X846Y1123D01*
X846Y1125D01*
X844Y1125D01*
X844Y1127D01*
X842Y1127D01*
X842Y1129D01*
X840Y1129D01*
X840Y1131D01*
X838Y1131D01*
X838Y1133D01*
X836Y1133D01*
X836Y1135D01*
X834Y1135D01*
X834Y1139D01*
X832Y1139D01*
X832Y1141D01*
X830Y1141D01*
X830Y1145D01*
X828Y1145D01*
X828Y1149D01*
X826Y1149D01*
X826Y1155D01*
X824Y1155D01*
X824Y1175D01*
X826Y1175D01*
X826Y1181D01*
X828Y1181D01*
X828Y1185D01*
X830Y1185D01*
X830Y1189D01*
X832Y1189D01*
X832Y1191D01*
X834Y1191D01*
X834Y1195D01*
X836Y1195D01*
X836Y1197D01*
X838Y1197D01*
X838Y1199D01*
X840Y1199D01*
X840Y1201D01*
X842Y1201D01*
X842Y1203D01*
X844Y1203D01*
X844Y1205D01*
X846Y1205D01*
X846Y1207D01*
X850Y1207D01*
X850Y1209D01*
X852Y1209D01*
X852Y1211D01*
X856Y1211D01*
X856Y1213D01*
X860Y1213D01*
X860Y1233D01*
X854Y1233D01*
X854Y1235D01*
X852Y1235D01*
X852Y1237D01*
X848Y1237D01*
X848Y1239D01*
X846Y1239D01*
X846Y1241D01*
X842Y1241D01*
X842Y1243D01*
X840Y1243D01*
X840Y1245D01*
X838Y1245D01*
X838Y1247D01*
X836Y1247D01*
X836Y1249D01*
X834Y1249D01*
X834Y1253D01*
X832Y1253D01*
X832Y1255D01*
X830Y1255D01*
X830Y1259D01*
X828Y1259D01*
X828Y1263D01*
X826Y1263D01*
X826Y1267D01*
X824Y1267D01*
X824Y1279D01*
X822Y1279D01*
X822Y1281D01*
X824Y1281D01*
X824Y1293D01*
X826Y1293D01*
X826Y1299D01*
X828Y1299D01*
X828Y1303D01*
X830Y1303D01*
X830Y1305D01*
X832Y1305D01*
X832Y1309D01*
X834Y1309D01*
X834Y1311D01*
X836Y1311D01*
X836Y1313D01*
X838Y1313D01*
X838Y1315D01*
X840Y1315D01*
X840Y1317D01*
X842Y1317D01*
X842Y1319D01*
X844Y1319D01*
X844Y1321D01*
X846Y1321D01*
X846Y1323D01*
X850Y1323D01*
X850Y1325D01*
X852Y1325D01*
X852Y1327D01*
X856Y1327D01*
X856Y1329D01*
X862Y1329D01*
X862Y1349D01*
X860Y1349D01*
X860Y1351D01*
X856Y1351D01*
X856Y1353D01*
X852Y1353D01*
X852Y1355D01*
X848Y1355D01*
X848Y1357D01*
X846Y1357D01*
X846Y1359D01*
X844Y1359D01*
X844Y1361D01*
X842Y1361D01*
X842Y1363D01*
X838Y1363D01*
X838Y1367D01*
X836Y1367D01*
X836Y1369D01*
X834Y1369D01*
X834Y1371D01*
X832Y1371D01*
X832Y1373D01*
X830Y1373D01*
X830Y1377D01*
X828Y1377D01*
X828Y1381D01*
X826Y1381D01*
X826Y1387D01*
X824Y1387D01*
X824Y1397D01*
X822Y1397D01*
X822Y1401D01*
X824Y1401D01*
X824Y1411D01*
X826Y1411D01*
X826Y1417D01*
X828Y1417D01*
X828Y1421D01*
X830Y1421D01*
X830Y1425D01*
X832Y1425D01*
X832Y1427D01*
X834Y1427D01*
X834Y1429D01*
X836Y1429D01*
X836Y1433D01*
X838Y1433D01*
X838Y1435D01*
X840Y1435D01*
X840Y1437D01*
X844Y1437D01*
X844Y1439D01*
X846Y1439D01*
X846Y1441D01*
X848Y1441D01*
X848Y1443D01*
X852Y1443D01*
X852Y1445D01*
X856Y1445D01*
X856Y1447D01*
X860Y1447D01*
X860Y1449D01*
X862Y1449D01*
X862Y1469D01*
X856Y1469D01*
X856Y1471D01*
X852Y1471D01*
X852Y1473D01*
X850Y1473D01*
X850Y1475D01*
X846Y1475D01*
X846Y1477D01*
X844Y1477D01*
X844Y1479D01*
X842Y1479D01*
X842Y1481D01*
X840Y1481D01*
X840Y1483D01*
X838Y1483D01*
X838Y1485D01*
X836Y1485D01*
X836Y1487D01*
X834Y1487D01*
X834Y1489D01*
X832Y1489D01*
X832Y1493D01*
X830Y1493D01*
X830Y1495D01*
X828Y1495D01*
X828Y1499D01*
X826Y1499D01*
X826Y1505D01*
X824Y1505D01*
X824Y1517D01*
X822Y1517D01*
X822Y1519D01*
X824Y1519D01*
X824Y1531D01*
X826Y1531D01*
X826Y1535D01*
X828Y1535D01*
X828Y1539D01*
X830Y1539D01*
X830Y1543D01*
X832Y1543D01*
X832Y1545D01*
X834Y1545D01*
X834Y1549D01*
X836Y1549D01*
X836Y1551D01*
X838Y1551D01*
X838Y1553D01*
X840Y1553D01*
X840Y1555D01*
X842Y1555D01*
X842Y1557D01*
X844Y1557D01*
X844Y1559D01*
X848Y1559D01*
X848Y1561D01*
X850Y1561D01*
X850Y1563D01*
X854Y1563D01*
X854Y1565D01*
X858Y1565D01*
X858Y1567D01*
X864Y1567D01*
X864Y1587D01*
X858Y1587D01*
X858Y1589D01*
X854Y1589D01*
X854Y1591D01*
X850Y1591D01*
X850Y1593D01*
X848Y1593D01*
X848Y1595D01*
X844Y1595D01*
X844Y1597D01*
X842Y1597D01*
X842Y1599D01*
X840Y1599D01*
X840Y1601D01*
X838Y1601D01*
X838Y1603D01*
X836Y1603D01*
X836Y1605D01*
X834Y1605D01*
X834Y1607D01*
X832Y1607D01*
X832Y1611D01*
X830Y1611D01*
X830Y1615D01*
X828Y1615D01*
X828Y1619D01*
X826Y1619D01*
X826Y1623D01*
X824Y1623D01*
X824Y1635D01*
X822Y1635D01*
X822Y1637D01*
X824Y1637D01*
X824Y1649D01*
X826Y1649D01*
X826Y1655D01*
X828Y1655D01*
X828Y1657D01*
X830Y1657D01*
X830Y1661D01*
X832Y1661D01*
X832Y1665D01*
X834Y1665D01*
X834Y1667D01*
X836Y1667D01*
X836Y1669D01*
X838Y1669D01*
X838Y1671D01*
X840Y1671D01*
X840Y1673D01*
X842Y1673D01*
X842Y1675D01*
X844Y1675D01*
X844Y1677D01*
X846Y1677D01*
X846Y1679D01*
X850Y1679D01*
X850Y1681D01*
X854Y1681D01*
X854Y1683D01*
X858Y1683D01*
X858Y1685D01*
X862Y1685D01*
X862Y1705D01*
X860Y1705D01*
X860Y1707D01*
X854Y1707D01*
X854Y1709D01*
X852Y1709D01*
X852Y1711D01*
X848Y1711D01*
X848Y1713D01*
X846Y1713D01*
X846Y1715D01*
X842Y1715D01*
X842Y1717D01*
X840Y1717D01*
X840Y1719D01*
X838Y1719D01*
X838Y1721D01*
X836Y1721D01*
X836Y1725D01*
X834Y1725D01*
X834Y1727D01*
X832Y1727D01*
X832Y1729D01*
X830Y1729D01*
X830Y1733D01*
X828Y1733D01*
X828Y1737D01*
X826Y1737D01*
X826Y1741D01*
X824Y1741D01*
X824Y1753D01*
X822Y1753D01*
X822Y1755D01*
X824Y1755D01*
X824Y1767D01*
X826Y1767D01*
X826Y1773D01*
X828Y1773D01*
X828Y1777D01*
X830Y1777D01*
X830Y1779D01*
X832Y1779D01*
X832Y1783D01*
X834Y1783D01*
X834Y1785D01*
X836Y1785D01*
X836Y1787D01*
X838Y1787D01*
X838Y1791D01*
X842Y1791D01*
X842Y1793D01*
X844Y1793D01*
X844Y1795D01*
X846Y1795D01*
X846Y1797D01*
X848Y1797D01*
X848Y1799D01*
X852Y1799D01*
X852Y1801D01*
X856Y1801D01*
X856Y1803D01*
X860Y1803D01*
X860Y1805D01*
X868Y1805D01*
X868Y1825D01*
X862Y1825D01*
X862Y1827D01*
X856Y1827D01*
X856Y1829D01*
X852Y1829D01*
X852Y1831D01*
X850Y1831D01*
X850Y1833D01*
X846Y1833D01*
X846Y1835D01*
X844Y1835D01*
X844Y1837D01*
X842Y1837D01*
X842Y1839D01*
X840Y1839D01*
X840Y1841D01*
X838Y1841D01*
X838Y1843D01*
X836Y1843D01*
X836Y1845D01*
X834Y1845D01*
X834Y1849D01*
X832Y1849D01*
X832Y1851D01*
X830Y1851D01*
X830Y1855D01*
X828Y1855D01*
X828Y1859D01*
X826Y1859D01*
X826Y1865D01*
X824Y1865D01*
X824Y1885D01*
X826Y1885D01*
X826Y1891D01*
X828Y1891D01*
X828Y1895D01*
X830Y1895D01*
X830Y1899D01*
X832Y1899D01*
X832Y1903D01*
X834Y1903D01*
X834Y1905D01*
X836Y1905D01*
X836Y1907D01*
X838Y1907D01*
X838Y1909D01*
X840Y1909D01*
X840Y1911D01*
X842Y1911D01*
X842Y1913D01*
X844Y1913D01*
X844Y1915D01*
X846Y1915D01*
X846Y1917D01*
X850Y1917D01*
X850Y1919D01*
X852Y1919D01*
X852Y1921D01*
X856Y1921D01*
X856Y1923D01*
X860Y1923D01*
X860Y1925D01*
X868Y1925D01*
X868Y1927D01*
X790Y1927D01*
G37*
D02*
G36*
X496Y1317D02*
X496Y1315D01*
X522Y1315D01*
X522Y1317D01*
X496Y1317D01*
G37*
D02*
G36*
X664Y757D02*
X664Y755D01*
X956Y755D01*
X956Y757D01*
X664Y757D01*
G37*
D02*
G36*
X664Y757D02*
X664Y755D01*
X956Y755D01*
X956Y757D01*
X664Y757D01*
G37*
D02*
G36*
X664Y755D02*
X664Y723D01*
X886Y723D01*
X886Y721D01*
X892Y721D01*
X892Y719D01*
X896Y719D01*
X896Y717D01*
X900Y717D01*
X900Y715D01*
X904Y715D01*
X904Y713D01*
X906Y713D01*
X906Y711D01*
X908Y711D01*
X908Y709D01*
X910Y709D01*
X910Y707D01*
X912Y707D01*
X912Y705D01*
X914Y705D01*
X914Y703D01*
X916Y703D01*
X916Y701D01*
X918Y701D01*
X918Y697D01*
X920Y697D01*
X920Y695D01*
X922Y695D01*
X922Y691D01*
X924Y691D01*
X924Y687D01*
X926Y687D01*
X926Y679D01*
X928Y679D01*
X928Y665D01*
X926Y665D01*
X926Y657D01*
X924Y657D01*
X924Y653D01*
X922Y653D01*
X922Y649D01*
X920Y649D01*
X920Y645D01*
X918Y645D01*
X918Y643D01*
X916Y643D01*
X916Y641D01*
X914Y641D01*
X914Y637D01*
X912Y637D01*
X912Y635D01*
X908Y635D01*
X908Y633D01*
X906Y633D01*
X906Y631D01*
X904Y631D01*
X904Y629D01*
X900Y629D01*
X900Y627D01*
X898Y627D01*
X898Y625D01*
X894Y625D01*
X894Y623D01*
X888Y623D01*
X888Y621D01*
X852Y621D01*
X852Y619D01*
X846Y619D01*
X846Y617D01*
X840Y617D01*
X840Y615D01*
X956Y615D01*
X956Y755D01*
X664Y755D01*
G37*
D02*
G36*
X664Y723D02*
X664Y703D01*
X666Y703D01*
X666Y701D01*
X836Y701D01*
X836Y703D01*
X838Y703D01*
X838Y705D01*
X840Y705D01*
X840Y707D01*
X842Y707D01*
X842Y709D01*
X844Y709D01*
X844Y711D01*
X846Y711D01*
X846Y713D01*
X848Y713D01*
X848Y715D01*
X852Y715D01*
X852Y717D01*
X856Y717D01*
X856Y719D01*
X860Y719D01*
X860Y721D01*
X866Y721D01*
X866Y723D01*
X664Y723D01*
G37*
D02*
G36*
X534Y615D02*
X534Y613D01*
X956Y613D01*
X956Y615D01*
X534Y615D01*
G37*
D02*
G36*
X534Y615D02*
X534Y613D01*
X956Y613D01*
X956Y615D01*
X534Y615D01*
G37*
D02*
G36*
X532Y613D02*
X532Y611D01*
X530Y611D01*
X530Y609D01*
X528Y609D01*
X528Y607D01*
X526Y607D01*
X526Y605D01*
X524Y605D01*
X524Y603D01*
X522Y603D01*
X522Y601D01*
X520Y601D01*
X520Y599D01*
X518Y599D01*
X518Y597D01*
X514Y597D01*
X514Y595D01*
X512Y595D01*
X512Y593D01*
X510Y593D01*
X510Y591D01*
X504Y591D01*
X504Y589D01*
X314Y589D01*
X314Y587D01*
X312Y587D01*
X312Y585D01*
X888Y585D01*
X888Y583D01*
X892Y583D01*
X892Y581D01*
X896Y581D01*
X896Y579D01*
X900Y579D01*
X900Y577D01*
X904Y577D01*
X904Y575D01*
X906Y575D01*
X906Y573D01*
X908Y573D01*
X908Y571D01*
X910Y571D01*
X910Y569D01*
X912Y569D01*
X912Y567D01*
X914Y567D01*
X914Y565D01*
X916Y565D01*
X916Y563D01*
X918Y563D01*
X918Y561D01*
X920Y561D01*
X920Y557D01*
X922Y557D01*
X922Y553D01*
X924Y553D01*
X924Y549D01*
X926Y549D01*
X926Y541D01*
X928Y541D01*
X928Y527D01*
X926Y527D01*
X926Y519D01*
X924Y519D01*
X924Y515D01*
X922Y515D01*
X922Y511D01*
X920Y511D01*
X920Y507D01*
X918Y507D01*
X918Y505D01*
X916Y505D01*
X916Y503D01*
X914Y503D01*
X914Y501D01*
X912Y501D01*
X912Y499D01*
X910Y499D01*
X910Y479D01*
X942Y479D01*
X942Y481D01*
X944Y481D01*
X944Y483D01*
X946Y483D01*
X946Y485D01*
X948Y485D01*
X948Y487D01*
X950Y487D01*
X950Y489D01*
X952Y489D01*
X952Y491D01*
X954Y491D01*
X954Y493D01*
X956Y493D01*
X956Y613D01*
X532Y613D01*
G37*
D02*
G36*
X214Y591D02*
X214Y587D01*
X212Y587D01*
X212Y585D01*
X210Y585D01*
X210Y583D01*
X208Y583D01*
X208Y581D01*
X206Y581D01*
X206Y579D01*
X204Y579D01*
X204Y577D01*
X202Y577D01*
X202Y575D01*
X200Y575D01*
X200Y573D01*
X198Y573D01*
X198Y571D01*
X194Y571D01*
X194Y569D01*
X192Y569D01*
X192Y565D01*
X264Y565D01*
X264Y567D01*
X258Y567D01*
X258Y569D01*
X254Y569D01*
X254Y571D01*
X252Y571D01*
X252Y573D01*
X248Y573D01*
X248Y575D01*
X246Y575D01*
X246Y577D01*
X244Y577D01*
X244Y579D01*
X242Y579D01*
X242Y581D01*
X240Y581D01*
X240Y583D01*
X238Y583D01*
X238Y585D01*
X236Y585D01*
X236Y587D01*
X234Y587D01*
X234Y591D01*
X214Y591D01*
G37*
D02*
G36*
X310Y585D02*
X310Y583D01*
X308Y583D01*
X308Y581D01*
X306Y581D01*
X306Y579D01*
X304Y579D01*
X304Y577D01*
X302Y577D01*
X302Y575D01*
X300Y575D01*
X300Y573D01*
X298Y573D01*
X298Y571D01*
X294Y571D01*
X294Y569D01*
X290Y569D01*
X290Y567D01*
X284Y567D01*
X284Y565D01*
X838Y565D01*
X838Y567D01*
X840Y567D01*
X840Y569D01*
X842Y569D01*
X842Y571D01*
X844Y571D01*
X844Y573D01*
X846Y573D01*
X846Y575D01*
X848Y575D01*
X848Y577D01*
X852Y577D01*
X852Y579D01*
X856Y579D01*
X856Y581D01*
X860Y581D01*
X860Y583D01*
X864Y583D01*
X864Y585D01*
X310Y585D01*
G37*
D02*
G36*
X192Y565D02*
X192Y563D01*
X836Y563D01*
X836Y565D01*
X192Y565D01*
G37*
D02*
G36*
X192Y565D02*
X192Y563D01*
X836Y563D01*
X836Y565D01*
X192Y565D01*
G37*
D02*
G36*
X192Y563D02*
X192Y493D01*
X194Y493D01*
X194Y491D01*
X196Y491D01*
X196Y489D01*
X198Y489D01*
X198Y487D01*
X200Y487D01*
X200Y485D01*
X202Y485D01*
X202Y483D01*
X204Y483D01*
X204Y481D01*
X206Y481D01*
X206Y479D01*
X842Y479D01*
X842Y499D01*
X840Y499D01*
X840Y501D01*
X838Y501D01*
X838Y503D01*
X836Y503D01*
X836Y505D01*
X834Y505D01*
X834Y507D01*
X832Y507D01*
X832Y511D01*
X830Y511D01*
X830Y515D01*
X828Y515D01*
X828Y519D01*
X826Y519D01*
X826Y527D01*
X824Y527D01*
X824Y541D01*
X826Y541D01*
X826Y549D01*
X828Y549D01*
X828Y553D01*
X830Y553D01*
X830Y557D01*
X832Y557D01*
X832Y559D01*
X834Y559D01*
X834Y563D01*
X192Y563D01*
G37*
D02*
G36*
X992Y781D02*
X992Y759D01*
X1042Y759D01*
X1042Y761D01*
X1036Y761D01*
X1036Y763D01*
X1030Y763D01*
X1030Y765D01*
X1028Y765D01*
X1028Y767D01*
X1024Y767D01*
X1024Y769D01*
X1022Y769D01*
X1022Y771D01*
X1020Y771D01*
X1020Y773D01*
X1016Y773D01*
X1016Y775D01*
X1014Y775D01*
X1014Y777D01*
X1012Y777D01*
X1012Y781D01*
X992Y781D01*
G37*
D02*
G36*
X1080Y771D02*
X1080Y769D01*
X1078Y769D01*
X1078Y767D01*
X1074Y767D01*
X1074Y765D01*
X1072Y765D01*
X1072Y763D01*
X1068Y763D01*
X1068Y761D01*
X1060Y761D01*
X1060Y759D01*
X1134Y759D01*
X1134Y771D01*
X1080Y771D01*
G37*
D02*
G36*
X992Y759D02*
X992Y757D01*
X1134Y757D01*
X1134Y759D01*
X992Y759D01*
G37*
D02*
G36*
X992Y759D02*
X992Y757D01*
X1134Y757D01*
X1134Y759D01*
X992Y759D01*
G37*
D02*
G36*
X992Y757D02*
X992Y725D01*
X1056Y725D01*
X1056Y723D01*
X1064Y723D01*
X1064Y721D01*
X1070Y721D01*
X1070Y719D01*
X1074Y719D01*
X1074Y717D01*
X1076Y717D01*
X1076Y715D01*
X1080Y715D01*
X1080Y713D01*
X1082Y713D01*
X1082Y711D01*
X1084Y711D01*
X1084Y709D01*
X1086Y709D01*
X1086Y707D01*
X1088Y707D01*
X1088Y705D01*
X1090Y705D01*
X1090Y703D01*
X1092Y703D01*
X1092Y701D01*
X1094Y701D01*
X1094Y697D01*
X1096Y697D01*
X1096Y693D01*
X1098Y693D01*
X1098Y689D01*
X1100Y689D01*
X1100Y685D01*
X1102Y685D01*
X1102Y661D01*
X1100Y661D01*
X1100Y655D01*
X1098Y655D01*
X1098Y651D01*
X1096Y651D01*
X1096Y649D01*
X1094Y649D01*
X1094Y645D01*
X1092Y645D01*
X1092Y643D01*
X1090Y643D01*
X1090Y641D01*
X1088Y641D01*
X1088Y637D01*
X1086Y637D01*
X1086Y635D01*
X1082Y635D01*
X1082Y633D01*
X1080Y633D01*
X1080Y631D01*
X1078Y631D01*
X1078Y629D01*
X1074Y629D01*
X1074Y627D01*
X1070Y627D01*
X1070Y625D01*
X1066Y625D01*
X1066Y623D01*
X1060Y623D01*
X1060Y621D01*
X1134Y621D01*
X1134Y757D01*
X992Y757D01*
G37*
D02*
G36*
X992Y725D02*
X992Y703D01*
X1012Y703D01*
X1012Y705D01*
X1014Y705D01*
X1014Y707D01*
X1016Y707D01*
X1016Y709D01*
X1018Y709D01*
X1018Y711D01*
X1020Y711D01*
X1020Y713D01*
X1022Y713D01*
X1022Y715D01*
X1026Y715D01*
X1026Y717D01*
X1028Y717D01*
X1028Y719D01*
X1032Y719D01*
X1032Y721D01*
X1038Y721D01*
X1038Y723D01*
X1046Y723D01*
X1046Y725D01*
X992Y725D01*
G37*
D02*
G36*
X992Y643D02*
X992Y621D01*
X1042Y621D01*
X1042Y623D01*
X1036Y623D01*
X1036Y625D01*
X1032Y625D01*
X1032Y627D01*
X1028Y627D01*
X1028Y629D01*
X1024Y629D01*
X1024Y631D01*
X1022Y631D01*
X1022Y633D01*
X1020Y633D01*
X1020Y635D01*
X1016Y635D01*
X1016Y637D01*
X1014Y637D01*
X1014Y641D01*
X1012Y641D01*
X1012Y643D01*
X992Y643D01*
G37*
D02*
G36*
X992Y621D02*
X992Y619D01*
X1134Y619D01*
X1134Y621D01*
X992Y621D01*
G37*
D02*
G36*
X992Y621D02*
X992Y619D01*
X1134Y619D01*
X1134Y621D01*
X992Y621D01*
G37*
D02*
G36*
X992Y619D02*
X992Y587D01*
X1058Y587D01*
X1058Y585D01*
X1066Y585D01*
X1066Y583D01*
X1070Y583D01*
X1070Y581D01*
X1074Y581D01*
X1074Y579D01*
X1076Y579D01*
X1076Y577D01*
X1080Y577D01*
X1080Y575D01*
X1082Y575D01*
X1082Y573D01*
X1084Y573D01*
X1084Y571D01*
X1086Y571D01*
X1086Y569D01*
X1088Y569D01*
X1088Y567D01*
X1090Y567D01*
X1090Y565D01*
X1092Y565D01*
X1092Y563D01*
X1094Y563D01*
X1094Y559D01*
X1096Y559D01*
X1096Y555D01*
X1098Y555D01*
X1098Y553D01*
X1100Y553D01*
X1100Y547D01*
X1102Y547D01*
X1102Y523D01*
X1100Y523D01*
X1100Y517D01*
X1098Y517D01*
X1098Y513D01*
X1096Y513D01*
X1096Y511D01*
X1094Y511D01*
X1094Y507D01*
X1092Y507D01*
X1092Y505D01*
X1090Y505D01*
X1090Y503D01*
X1088Y503D01*
X1088Y499D01*
X1084Y499D01*
X1084Y497D01*
X1082Y497D01*
X1082Y495D01*
X1080Y495D01*
X1080Y493D01*
X1078Y493D01*
X1078Y491D01*
X1074Y491D01*
X1074Y489D01*
X1070Y489D01*
X1070Y487D01*
X1066Y487D01*
X1066Y485D01*
X1058Y485D01*
X1058Y483D01*
X1134Y483D01*
X1134Y619D01*
X992Y619D01*
G37*
D02*
G36*
X992Y587D02*
X992Y565D01*
X1012Y565D01*
X1012Y567D01*
X1014Y567D01*
X1014Y569D01*
X1016Y569D01*
X1016Y571D01*
X1018Y571D01*
X1018Y573D01*
X1020Y573D01*
X1020Y575D01*
X1022Y575D01*
X1022Y577D01*
X1026Y577D01*
X1026Y579D01*
X1028Y579D01*
X1028Y581D01*
X1032Y581D01*
X1032Y583D01*
X1036Y583D01*
X1036Y585D01*
X1044Y585D01*
X1044Y587D01*
X992Y587D01*
G37*
D02*
G36*
X992Y505D02*
X992Y483D01*
X1044Y483D01*
X1044Y485D01*
X1036Y485D01*
X1036Y487D01*
X1032Y487D01*
X1032Y489D01*
X1028Y489D01*
X1028Y491D01*
X1024Y491D01*
X1024Y493D01*
X1022Y493D01*
X1022Y495D01*
X1020Y495D01*
X1020Y497D01*
X1018Y497D01*
X1018Y499D01*
X1016Y499D01*
X1016Y501D01*
X1014Y501D01*
X1014Y503D01*
X1012Y503D01*
X1012Y505D01*
X992Y505D01*
G37*
D02*
G36*
X992Y483D02*
X992Y481D01*
X1134Y481D01*
X1134Y483D01*
X992Y483D01*
G37*
D02*
G36*
X992Y483D02*
X992Y481D01*
X1134Y481D01*
X1134Y483D01*
X992Y483D01*
G37*
D02*
G36*
X990Y481D02*
X990Y477D01*
X988Y477D01*
X988Y475D01*
X986Y475D01*
X986Y473D01*
X984Y473D01*
X984Y471D01*
X982Y471D01*
X982Y469D01*
X980Y469D01*
X980Y467D01*
X978Y467D01*
X978Y465D01*
X976Y465D01*
X976Y463D01*
X974Y463D01*
X974Y461D01*
X972Y461D01*
X972Y459D01*
X970Y459D01*
X970Y457D01*
X968Y457D01*
X968Y455D01*
X966Y455D01*
X966Y453D01*
X964Y453D01*
X964Y451D01*
X962Y451D01*
X962Y449D01*
X960Y449D01*
X960Y447D01*
X958Y447D01*
X958Y427D01*
X1108Y427D01*
X1108Y429D01*
X1110Y429D01*
X1110Y431D01*
X1112Y431D01*
X1112Y433D01*
X1114Y433D01*
X1114Y435D01*
X1116Y435D01*
X1116Y437D01*
X1118Y437D01*
X1118Y439D01*
X1120Y439D01*
X1120Y441D01*
X1122Y441D01*
X1122Y443D01*
X1124Y443D01*
X1124Y445D01*
X1126Y445D01*
X1126Y447D01*
X1128Y447D01*
X1128Y449D01*
X1130Y449D01*
X1130Y451D01*
X1132Y451D01*
X1132Y453D01*
X1134Y453D01*
X1134Y481D01*
X990Y481D01*
G37*
D02*
G36*
X40Y3897D02*
X40Y3805D01*
X954Y3805D01*
X954Y3803D01*
X958Y3803D01*
X958Y3801D01*
X962Y3801D01*
X962Y3799D01*
X964Y3799D01*
X964Y3797D01*
X966Y3797D01*
X966Y3795D01*
X968Y3795D01*
X968Y3793D01*
X970Y3793D01*
X970Y3791D01*
X972Y3791D01*
X972Y3789D01*
X974Y3789D01*
X974Y3787D01*
X976Y3787D01*
X976Y3785D01*
X978Y3785D01*
X978Y3783D01*
X980Y3783D01*
X980Y3781D01*
X982Y3781D01*
X982Y3779D01*
X984Y3779D01*
X984Y3777D01*
X986Y3777D01*
X986Y3775D01*
X988Y3775D01*
X988Y3771D01*
X990Y3771D01*
X990Y3767D01*
X992Y3767D01*
X992Y3723D01*
X1310Y3723D01*
X1310Y3721D01*
X1320Y3721D01*
X1320Y3719D01*
X1326Y3719D01*
X1326Y3717D01*
X1330Y3717D01*
X1330Y3715D01*
X1334Y3715D01*
X1334Y3713D01*
X1338Y3713D01*
X1338Y3711D01*
X1342Y3711D01*
X1342Y3709D01*
X1344Y3709D01*
X1344Y3707D01*
X1346Y3707D01*
X1346Y3705D01*
X1350Y3705D01*
X1350Y3703D01*
X1352Y3703D01*
X1352Y3701D01*
X1354Y3701D01*
X1354Y3699D01*
X1356Y3699D01*
X1356Y3697D01*
X1358Y3697D01*
X1358Y3695D01*
X1360Y3695D01*
X1360Y3691D01*
X1362Y3691D01*
X1362Y3689D01*
X1364Y3689D01*
X1364Y3687D01*
X1366Y3687D01*
X1366Y3683D01*
X1368Y3683D01*
X1368Y3679D01*
X1370Y3679D01*
X1370Y3675D01*
X1372Y3675D01*
X1372Y3671D01*
X1374Y3671D01*
X1374Y3665D01*
X1376Y3665D01*
X1376Y3655D01*
X1378Y3655D01*
X1378Y3633D01*
X1376Y3633D01*
X1376Y3623D01*
X1374Y3623D01*
X1374Y3617D01*
X1372Y3617D01*
X1372Y3613D01*
X1370Y3613D01*
X1370Y3609D01*
X1368Y3609D01*
X1368Y3605D01*
X1366Y3605D01*
X1366Y3601D01*
X1364Y3601D01*
X1364Y3599D01*
X1362Y3599D01*
X1362Y3597D01*
X1360Y3597D01*
X1360Y3593D01*
X1358Y3593D01*
X1358Y3591D01*
X1356Y3591D01*
X1356Y3589D01*
X1354Y3589D01*
X1354Y3587D01*
X1352Y3587D01*
X1352Y3585D01*
X1350Y3585D01*
X1350Y3583D01*
X1346Y3583D01*
X1346Y3581D01*
X1344Y3581D01*
X1344Y3579D01*
X1342Y3579D01*
X1342Y3577D01*
X1338Y3577D01*
X1338Y3575D01*
X1334Y3575D01*
X1334Y3573D01*
X1330Y3573D01*
X1330Y3571D01*
X1326Y3571D01*
X1326Y3569D01*
X1320Y3569D01*
X1320Y3567D01*
X1310Y3567D01*
X1310Y3565D01*
X1534Y3565D01*
X1534Y3897D01*
X40Y3897D01*
G37*
D02*
G36*
X40Y3805D02*
X40Y3337D01*
X274Y3337D01*
X274Y3437D01*
X286Y3437D01*
X286Y3457D01*
X284Y3457D01*
X284Y3461D01*
X282Y3461D01*
X282Y3463D01*
X280Y3463D01*
X280Y3467D01*
X278Y3467D01*
X278Y3469D01*
X268Y3469D01*
X268Y3471D01*
X264Y3471D01*
X264Y3473D01*
X262Y3473D01*
X262Y3475D01*
X260Y3475D01*
X260Y3477D01*
X258Y3477D01*
X258Y3479D01*
X256Y3479D01*
X256Y3481D01*
X254Y3481D01*
X254Y3483D01*
X252Y3483D01*
X252Y3485D01*
X250Y3485D01*
X250Y3487D01*
X248Y3487D01*
X248Y3489D01*
X246Y3489D01*
X246Y3491D01*
X244Y3491D01*
X244Y3493D01*
X242Y3493D01*
X242Y3495D01*
X240Y3495D01*
X240Y3497D01*
X238Y3497D01*
X238Y3499D01*
X236Y3499D01*
X236Y3501D01*
X234Y3501D01*
X234Y3503D01*
X232Y3503D01*
X232Y3769D01*
X234Y3769D01*
X234Y3773D01*
X236Y3773D01*
X236Y3775D01*
X238Y3775D01*
X238Y3777D01*
X240Y3777D01*
X240Y3779D01*
X242Y3779D01*
X242Y3781D01*
X244Y3781D01*
X244Y3783D01*
X246Y3783D01*
X246Y3785D01*
X248Y3785D01*
X248Y3787D01*
X250Y3787D01*
X250Y3789D01*
X252Y3789D01*
X252Y3791D01*
X254Y3791D01*
X254Y3793D01*
X256Y3793D01*
X256Y3795D01*
X258Y3795D01*
X258Y3797D01*
X260Y3797D01*
X260Y3799D01*
X262Y3799D01*
X262Y3801D01*
X264Y3801D01*
X264Y3803D01*
X270Y3803D01*
X270Y3805D01*
X40Y3805D01*
G37*
D02*
G36*
X992Y3723D02*
X992Y3565D01*
X1288Y3565D01*
X1288Y3567D01*
X1280Y3567D01*
X1280Y3569D01*
X1274Y3569D01*
X1274Y3571D01*
X1268Y3571D01*
X1268Y3573D01*
X1264Y3573D01*
X1264Y3575D01*
X1260Y3575D01*
X1260Y3577D01*
X1258Y3577D01*
X1258Y3579D01*
X1254Y3579D01*
X1254Y3581D01*
X1252Y3581D01*
X1252Y3583D01*
X1250Y3583D01*
X1250Y3585D01*
X1246Y3585D01*
X1246Y3587D01*
X1244Y3587D01*
X1244Y3589D01*
X1242Y3589D01*
X1242Y3591D01*
X1240Y3591D01*
X1240Y3595D01*
X1238Y3595D01*
X1238Y3597D01*
X1236Y3597D01*
X1236Y3599D01*
X1234Y3599D01*
X1234Y3603D01*
X1232Y3603D01*
X1232Y3605D01*
X1230Y3605D01*
X1230Y3609D01*
X1228Y3609D01*
X1228Y3613D01*
X1226Y3613D01*
X1226Y3619D01*
X1224Y3619D01*
X1224Y3625D01*
X1222Y3625D01*
X1222Y3633D01*
X1220Y3633D01*
X1220Y3655D01*
X1222Y3655D01*
X1222Y3663D01*
X1224Y3663D01*
X1224Y3669D01*
X1226Y3669D01*
X1226Y3675D01*
X1228Y3675D01*
X1228Y3679D01*
X1230Y3679D01*
X1230Y3683D01*
X1232Y3683D01*
X1232Y3685D01*
X1234Y3685D01*
X1234Y3689D01*
X1236Y3689D01*
X1236Y3691D01*
X1238Y3691D01*
X1238Y3693D01*
X1240Y3693D01*
X1240Y3697D01*
X1242Y3697D01*
X1242Y3699D01*
X1244Y3699D01*
X1244Y3701D01*
X1246Y3701D01*
X1246Y3703D01*
X1248Y3703D01*
X1248Y3705D01*
X1252Y3705D01*
X1252Y3707D01*
X1254Y3707D01*
X1254Y3709D01*
X1258Y3709D01*
X1258Y3711D01*
X1260Y3711D01*
X1260Y3713D01*
X1264Y3713D01*
X1264Y3715D01*
X1268Y3715D01*
X1268Y3717D01*
X1272Y3717D01*
X1272Y3719D01*
X1278Y3719D01*
X1278Y3721D01*
X1288Y3721D01*
X1288Y3723D01*
X992Y3723D01*
G37*
D02*
G36*
X992Y3565D02*
X992Y3563D01*
X1534Y3563D01*
X1534Y3565D01*
X992Y3565D01*
G37*
D02*
G36*
X992Y3565D02*
X992Y3563D01*
X1534Y3563D01*
X1534Y3565D01*
X992Y3565D01*
G37*
D02*
G36*
X992Y3563D02*
X992Y3519D01*
X1060Y3519D01*
X1060Y3517D01*
X1066Y3517D01*
X1066Y3515D01*
X1072Y3515D01*
X1072Y3513D01*
X1074Y3513D01*
X1074Y3511D01*
X1078Y3511D01*
X1078Y3509D01*
X1082Y3509D01*
X1082Y3507D01*
X1084Y3507D01*
X1084Y3505D01*
X1086Y3505D01*
X1086Y3503D01*
X1088Y3503D01*
X1088Y3501D01*
X1090Y3501D01*
X1090Y3499D01*
X1092Y3499D01*
X1092Y3497D01*
X1094Y3497D01*
X1094Y3493D01*
X1096Y3493D01*
X1096Y3489D01*
X1098Y3489D01*
X1098Y3487D01*
X1100Y3487D01*
X1100Y3481D01*
X1102Y3481D01*
X1102Y3473D01*
X1104Y3473D01*
X1104Y3461D01*
X1102Y3461D01*
X1102Y3453D01*
X1100Y3453D01*
X1100Y3449D01*
X1098Y3449D01*
X1098Y3445D01*
X1096Y3445D01*
X1096Y3441D01*
X1094Y3441D01*
X1094Y3439D01*
X1092Y3439D01*
X1092Y3435D01*
X1090Y3435D01*
X1090Y3433D01*
X1088Y3433D01*
X1088Y3431D01*
X1086Y3431D01*
X1086Y3429D01*
X1084Y3429D01*
X1084Y3427D01*
X1080Y3427D01*
X1080Y3425D01*
X1078Y3425D01*
X1078Y3423D01*
X1074Y3423D01*
X1074Y3421D01*
X1070Y3421D01*
X1070Y3419D01*
X1066Y3419D01*
X1066Y3417D01*
X1058Y3417D01*
X1058Y3415D01*
X1534Y3415D01*
X1534Y3563D01*
X992Y3563D01*
G37*
D02*
G36*
X992Y3519D02*
X992Y3497D01*
X1012Y3497D01*
X1012Y3499D01*
X1014Y3499D01*
X1014Y3501D01*
X1016Y3501D01*
X1016Y3503D01*
X1018Y3503D01*
X1018Y3505D01*
X1020Y3505D01*
X1020Y3507D01*
X1022Y3507D01*
X1022Y3509D01*
X1026Y3509D01*
X1026Y3511D01*
X1028Y3511D01*
X1028Y3513D01*
X1032Y3513D01*
X1032Y3515D01*
X1036Y3515D01*
X1036Y3517D01*
X1044Y3517D01*
X1044Y3519D01*
X992Y3519D01*
G37*
D02*
G36*
X992Y3439D02*
X992Y3415D01*
X1046Y3415D01*
X1046Y3417D01*
X1038Y3417D01*
X1038Y3419D01*
X1032Y3419D01*
X1032Y3421D01*
X1030Y3421D01*
X1030Y3423D01*
X1026Y3423D01*
X1026Y3425D01*
X1024Y3425D01*
X1024Y3427D01*
X1020Y3427D01*
X1020Y3429D01*
X1018Y3429D01*
X1018Y3431D01*
X1016Y3431D01*
X1016Y3433D01*
X1014Y3433D01*
X1014Y3435D01*
X1012Y3435D01*
X1012Y3439D01*
X992Y3439D01*
G37*
D02*
G36*
X992Y3415D02*
X992Y3413D01*
X1534Y3413D01*
X1534Y3415D01*
X992Y3415D01*
G37*
D02*
G36*
X992Y3415D02*
X992Y3413D01*
X1534Y3413D01*
X1534Y3415D01*
X992Y3415D01*
G37*
D02*
G36*
X992Y3413D02*
X992Y3381D01*
X1064Y3381D01*
X1064Y3379D01*
X1070Y3379D01*
X1070Y3377D01*
X1074Y3377D01*
X1074Y3375D01*
X1078Y3375D01*
X1078Y3373D01*
X1080Y3373D01*
X1080Y3371D01*
X1084Y3371D01*
X1084Y3369D01*
X1086Y3369D01*
X1086Y3367D01*
X1088Y3367D01*
X1088Y3365D01*
X1090Y3365D01*
X1090Y3363D01*
X1092Y3363D01*
X1092Y3361D01*
X1094Y3361D01*
X1094Y3357D01*
X1096Y3357D01*
X1096Y3355D01*
X1098Y3355D01*
X1098Y3351D01*
X1100Y3351D01*
X1100Y3347D01*
X1102Y3347D01*
X1102Y3341D01*
X1104Y3341D01*
X1104Y3317D01*
X1102Y3317D01*
X1102Y3311D01*
X1100Y3311D01*
X1100Y3309D01*
X1098Y3309D01*
X1098Y3305D01*
X1096Y3305D01*
X1096Y3301D01*
X1094Y3301D01*
X1094Y3299D01*
X1092Y3299D01*
X1092Y3297D01*
X1090Y3297D01*
X1090Y3295D01*
X1088Y3295D01*
X1088Y3293D01*
X1086Y3293D01*
X1086Y3291D01*
X1084Y3291D01*
X1084Y3289D01*
X1082Y3289D01*
X1082Y3287D01*
X1078Y3287D01*
X1078Y3285D01*
X1074Y3285D01*
X1074Y3283D01*
X1072Y3283D01*
X1072Y3281D01*
X1066Y3281D01*
X1066Y3279D01*
X1534Y3279D01*
X1534Y3413D01*
X992Y3413D01*
G37*
D02*
G36*
X992Y3381D02*
X992Y3357D01*
X1012Y3357D01*
X1012Y3359D01*
X1014Y3359D01*
X1014Y3361D01*
X1016Y3361D01*
X1016Y3365D01*
X1018Y3365D01*
X1018Y3367D01*
X1022Y3367D01*
X1022Y3369D01*
X1024Y3369D01*
X1024Y3371D01*
X1026Y3371D01*
X1026Y3373D01*
X1030Y3373D01*
X1030Y3375D01*
X1032Y3375D01*
X1032Y3377D01*
X1038Y3377D01*
X1038Y3379D01*
X1044Y3379D01*
X1044Y3381D01*
X992Y3381D01*
G37*
D02*
G36*
X374Y3365D02*
X374Y3337D01*
X502Y3337D01*
X502Y3353D01*
X500Y3353D01*
X500Y3355D01*
X498Y3355D01*
X498Y3357D01*
X496Y3357D01*
X496Y3359D01*
X494Y3359D01*
X494Y3361D01*
X492Y3361D01*
X492Y3363D01*
X462Y3363D01*
X462Y3365D01*
X374Y3365D01*
G37*
D02*
G36*
X40Y3337D02*
X40Y3335D01*
X502Y3335D01*
X502Y3337D01*
X40Y3337D01*
G37*
D02*
G36*
X40Y3337D02*
X40Y3335D01*
X502Y3335D01*
X502Y3337D01*
X40Y3337D01*
G37*
D02*
G36*
X40Y3335D02*
X40Y3133D01*
X410Y3133D01*
X410Y3131D01*
X416Y3131D01*
X416Y3129D01*
X420Y3129D01*
X420Y3127D01*
X422Y3127D01*
X422Y3125D01*
X426Y3125D01*
X426Y3123D01*
X428Y3123D01*
X428Y3121D01*
X430Y3121D01*
X430Y3119D01*
X434Y3119D01*
X434Y3115D01*
X436Y3115D01*
X436Y3113D01*
X438Y3113D01*
X438Y3111D01*
X440Y3111D01*
X440Y3109D01*
X442Y3109D01*
X442Y3105D01*
X444Y3105D01*
X444Y3101D01*
X446Y3101D01*
X446Y3097D01*
X448Y3097D01*
X448Y3085D01*
X450Y3085D01*
X450Y3081D01*
X448Y3081D01*
X448Y3071D01*
X446Y3071D01*
X446Y3065D01*
X444Y3065D01*
X444Y3063D01*
X442Y3063D01*
X442Y3059D01*
X440Y3059D01*
X440Y3055D01*
X438Y3055D01*
X438Y3053D01*
X436Y3053D01*
X436Y3051D01*
X434Y3051D01*
X434Y3049D01*
X432Y3049D01*
X432Y3047D01*
X430Y3047D01*
X430Y3045D01*
X428Y3045D01*
X428Y3043D01*
X424Y3043D01*
X424Y3041D01*
X422Y3041D01*
X422Y3039D01*
X418Y3039D01*
X418Y3037D01*
X414Y3037D01*
X414Y3035D01*
X406Y3035D01*
X406Y3033D01*
X502Y3033D01*
X502Y3335D01*
X40Y3335D01*
G37*
D02*
G36*
X992Y3303D02*
X992Y3279D01*
X1040Y3279D01*
X1040Y3281D01*
X1036Y3281D01*
X1036Y3283D01*
X1032Y3283D01*
X1032Y3285D01*
X1028Y3285D01*
X1028Y3287D01*
X1026Y3287D01*
X1026Y3289D01*
X1022Y3289D01*
X1022Y3291D01*
X1020Y3291D01*
X1020Y3293D01*
X1018Y3293D01*
X1018Y3295D01*
X1016Y3295D01*
X1016Y3297D01*
X1014Y3297D01*
X1014Y3299D01*
X1012Y3299D01*
X1012Y3303D01*
X992Y3303D01*
G37*
D02*
G36*
X992Y3279D02*
X992Y3277D01*
X1534Y3277D01*
X1534Y3279D01*
X992Y3279D01*
G37*
D02*
G36*
X992Y3279D02*
X992Y3277D01*
X1534Y3277D01*
X1534Y3279D01*
X992Y3279D01*
G37*
D02*
G36*
X992Y3277D02*
X992Y3259D01*
X1062Y3259D01*
X1062Y3257D01*
X1070Y3257D01*
X1070Y3255D01*
X1074Y3255D01*
X1074Y3253D01*
X1076Y3253D01*
X1076Y3251D01*
X1080Y3251D01*
X1080Y3249D01*
X1082Y3249D01*
X1082Y3247D01*
X1086Y3247D01*
X1086Y3245D01*
X1088Y3245D01*
X1088Y3243D01*
X1090Y3243D01*
X1090Y3241D01*
X1092Y3241D01*
X1092Y3237D01*
X1094Y3237D01*
X1094Y3235D01*
X1096Y3235D01*
X1096Y3233D01*
X1098Y3233D01*
X1098Y3229D01*
X1100Y3229D01*
X1100Y3225D01*
X1102Y3225D01*
X1102Y3219D01*
X1104Y3219D01*
X1104Y3195D01*
X1102Y3195D01*
X1102Y3189D01*
X1100Y3189D01*
X1100Y3185D01*
X1098Y3185D01*
X1098Y3183D01*
X1096Y3183D01*
X1096Y3179D01*
X1094Y3179D01*
X1094Y3177D01*
X1092Y3177D01*
X1092Y3175D01*
X1090Y3175D01*
X1090Y3173D01*
X1088Y3173D01*
X1088Y3171D01*
X1086Y3171D01*
X1086Y3169D01*
X1084Y3169D01*
X1084Y3167D01*
X1082Y3167D01*
X1082Y3165D01*
X1078Y3165D01*
X1078Y3163D01*
X1076Y3163D01*
X1076Y3161D01*
X1072Y3161D01*
X1072Y3159D01*
X1066Y3159D01*
X1066Y3139D01*
X1068Y3139D01*
X1068Y3137D01*
X1072Y3137D01*
X1072Y3135D01*
X1076Y3135D01*
X1076Y3133D01*
X1080Y3133D01*
X1080Y3131D01*
X1082Y3131D01*
X1082Y3129D01*
X1084Y3129D01*
X1084Y3127D01*
X1086Y3127D01*
X1086Y3125D01*
X1090Y3125D01*
X1090Y3121D01*
X1092Y3121D01*
X1092Y3119D01*
X1094Y3119D01*
X1094Y3117D01*
X1096Y3117D01*
X1096Y3113D01*
X1098Y3113D01*
X1098Y3111D01*
X1100Y3111D01*
X1100Y3107D01*
X1102Y3107D01*
X1102Y3101D01*
X1104Y3101D01*
X1104Y3077D01*
X1102Y3077D01*
X1102Y3071D01*
X1100Y3071D01*
X1100Y3067D01*
X1098Y3067D01*
X1098Y3065D01*
X1096Y3065D01*
X1096Y3061D01*
X1094Y3061D01*
X1094Y3059D01*
X1092Y3059D01*
X1092Y3057D01*
X1090Y3057D01*
X1090Y3053D01*
X1088Y3053D01*
X1088Y3051D01*
X1084Y3051D01*
X1084Y3049D01*
X1082Y3049D01*
X1082Y3047D01*
X1080Y3047D01*
X1080Y3045D01*
X1076Y3045D01*
X1076Y3043D01*
X1072Y3043D01*
X1072Y3041D01*
X1068Y3041D01*
X1068Y3039D01*
X1066Y3039D01*
X1066Y3019D01*
X1072Y3019D01*
X1072Y3017D01*
X1076Y3017D01*
X1076Y3015D01*
X1078Y3015D01*
X1078Y3013D01*
X1082Y3013D01*
X1082Y3011D01*
X1084Y3011D01*
X1084Y3009D01*
X1086Y3009D01*
X1086Y3007D01*
X1088Y3007D01*
X1088Y3005D01*
X1090Y3005D01*
X1090Y3003D01*
X1092Y3003D01*
X1092Y3001D01*
X1094Y3001D01*
X1094Y2999D01*
X1096Y2999D01*
X1096Y2995D01*
X1098Y2995D01*
X1098Y2991D01*
X1100Y2991D01*
X1100Y2989D01*
X1102Y2989D01*
X1102Y2983D01*
X1104Y2983D01*
X1104Y2959D01*
X1102Y2959D01*
X1102Y2953D01*
X1100Y2953D01*
X1100Y2949D01*
X1098Y2949D01*
X1098Y2945D01*
X1096Y2945D01*
X1096Y2943D01*
X1094Y2943D01*
X1094Y2939D01*
X1092Y2939D01*
X1092Y2937D01*
X1090Y2937D01*
X1090Y2935D01*
X1088Y2935D01*
X1088Y2933D01*
X1086Y2933D01*
X1086Y2931D01*
X1082Y2931D01*
X1082Y2929D01*
X1080Y2929D01*
X1080Y2927D01*
X1076Y2927D01*
X1076Y2925D01*
X1074Y2925D01*
X1074Y2923D01*
X1070Y2923D01*
X1070Y2921D01*
X1064Y2921D01*
X1064Y2901D01*
X1070Y2901D01*
X1070Y2899D01*
X1074Y2899D01*
X1074Y2897D01*
X1078Y2897D01*
X1078Y2895D01*
X1080Y2895D01*
X1080Y2893D01*
X1084Y2893D01*
X1084Y2891D01*
X1086Y2891D01*
X1086Y2889D01*
X1088Y2889D01*
X1088Y2887D01*
X1090Y2887D01*
X1090Y2885D01*
X1092Y2885D01*
X1092Y2883D01*
X1094Y2883D01*
X1094Y2879D01*
X1096Y2879D01*
X1096Y2877D01*
X1098Y2877D01*
X1098Y2873D01*
X1100Y2873D01*
X1100Y2869D01*
X1102Y2869D01*
X1102Y2865D01*
X1104Y2865D01*
X1104Y2839D01*
X1102Y2839D01*
X1102Y2835D01*
X1100Y2835D01*
X1100Y2831D01*
X1098Y2831D01*
X1098Y2827D01*
X1096Y2827D01*
X1096Y2823D01*
X1094Y2823D01*
X1094Y2821D01*
X1092Y2821D01*
X1092Y2819D01*
X1090Y2819D01*
X1090Y2817D01*
X1088Y2817D01*
X1088Y2815D01*
X1086Y2815D01*
X1086Y2813D01*
X1084Y2813D01*
X1084Y2811D01*
X1082Y2811D01*
X1082Y2809D01*
X1078Y2809D01*
X1078Y2807D01*
X1074Y2807D01*
X1074Y2805D01*
X1070Y2805D01*
X1070Y2803D01*
X1064Y2803D01*
X1064Y2783D01*
X1068Y2783D01*
X1068Y2781D01*
X1074Y2781D01*
X1074Y2779D01*
X1076Y2779D01*
X1076Y2777D01*
X1080Y2777D01*
X1080Y2775D01*
X1082Y2775D01*
X1082Y2773D01*
X1086Y2773D01*
X1086Y2771D01*
X1088Y2771D01*
X1088Y2769D01*
X1090Y2769D01*
X1090Y2767D01*
X1092Y2767D01*
X1092Y2763D01*
X1094Y2763D01*
X1094Y2761D01*
X1096Y2761D01*
X1096Y2759D01*
X1098Y2759D01*
X1098Y2755D01*
X1100Y2755D01*
X1100Y2751D01*
X1102Y2751D01*
X1102Y2745D01*
X1104Y2745D01*
X1104Y2721D01*
X1102Y2721D01*
X1102Y2715D01*
X1100Y2715D01*
X1100Y2711D01*
X1098Y2711D01*
X1098Y2709D01*
X1096Y2709D01*
X1096Y2705D01*
X1094Y2705D01*
X1094Y2703D01*
X1092Y2703D01*
X1092Y2701D01*
X1090Y2701D01*
X1090Y2699D01*
X1088Y2699D01*
X1088Y2697D01*
X1086Y2697D01*
X1086Y2695D01*
X1084Y2695D01*
X1084Y2693D01*
X1082Y2693D01*
X1082Y2691D01*
X1078Y2691D01*
X1078Y2689D01*
X1076Y2689D01*
X1076Y2687D01*
X1072Y2687D01*
X1072Y2685D01*
X1066Y2685D01*
X1066Y2665D01*
X1070Y2665D01*
X1070Y2663D01*
X1074Y2663D01*
X1074Y2661D01*
X1078Y2661D01*
X1078Y2659D01*
X1082Y2659D01*
X1082Y2657D01*
X1084Y2657D01*
X1084Y2655D01*
X1086Y2655D01*
X1086Y2653D01*
X1088Y2653D01*
X1088Y2651D01*
X1090Y2651D01*
X1090Y2649D01*
X1092Y2649D01*
X1092Y2647D01*
X1094Y2647D01*
X1094Y2645D01*
X1096Y2645D01*
X1096Y2641D01*
X1098Y2641D01*
X1098Y2637D01*
X1100Y2637D01*
X1100Y2633D01*
X1102Y2633D01*
X1102Y2629D01*
X1104Y2629D01*
X1104Y2603D01*
X1102Y2603D01*
X1102Y2599D01*
X1100Y2599D01*
X1100Y2595D01*
X1098Y2595D01*
X1098Y2591D01*
X1096Y2591D01*
X1096Y2589D01*
X1094Y2589D01*
X1094Y2585D01*
X1092Y2585D01*
X1092Y2583D01*
X1090Y2583D01*
X1090Y2581D01*
X1088Y2581D01*
X1088Y2579D01*
X1086Y2579D01*
X1086Y2577D01*
X1084Y2577D01*
X1084Y2575D01*
X1080Y2575D01*
X1080Y2573D01*
X1078Y2573D01*
X1078Y2571D01*
X1074Y2571D01*
X1074Y2569D01*
X1070Y2569D01*
X1070Y2567D01*
X1064Y2567D01*
X1064Y2547D01*
X1070Y2547D01*
X1070Y2545D01*
X1074Y2545D01*
X1074Y2543D01*
X1078Y2543D01*
X1078Y2541D01*
X1080Y2541D01*
X1080Y2539D01*
X1084Y2539D01*
X1084Y2537D01*
X1086Y2537D01*
X1086Y2535D01*
X1088Y2535D01*
X1088Y2533D01*
X1090Y2533D01*
X1090Y2531D01*
X1092Y2531D01*
X1092Y2529D01*
X1094Y2529D01*
X1094Y2525D01*
X1096Y2525D01*
X1096Y2523D01*
X1098Y2523D01*
X1098Y2519D01*
X1100Y2519D01*
X1100Y2515D01*
X1102Y2515D01*
X1102Y2509D01*
X1104Y2509D01*
X1104Y2485D01*
X1102Y2485D01*
X1102Y2481D01*
X1100Y2481D01*
X1100Y2477D01*
X1098Y2477D01*
X1098Y2473D01*
X1096Y2473D01*
X1096Y2469D01*
X1094Y2469D01*
X1094Y2467D01*
X1092Y2467D01*
X1092Y2465D01*
X1090Y2465D01*
X1090Y2463D01*
X1088Y2463D01*
X1088Y2461D01*
X1086Y2461D01*
X1086Y2459D01*
X1084Y2459D01*
X1084Y2457D01*
X1082Y2457D01*
X1082Y2455D01*
X1078Y2455D01*
X1078Y2453D01*
X1074Y2453D01*
X1074Y2451D01*
X1070Y2451D01*
X1070Y2449D01*
X1066Y2449D01*
X1066Y2429D01*
X1072Y2429D01*
X1072Y2427D01*
X1076Y2427D01*
X1076Y2425D01*
X1078Y2425D01*
X1078Y2423D01*
X1082Y2423D01*
X1082Y2421D01*
X1084Y2421D01*
X1084Y2419D01*
X1086Y2419D01*
X1086Y2417D01*
X1088Y2417D01*
X1088Y2415D01*
X1090Y2415D01*
X1090Y2413D01*
X1092Y2413D01*
X1092Y2411D01*
X1094Y2411D01*
X1094Y2409D01*
X1096Y2409D01*
X1096Y2405D01*
X1098Y2405D01*
X1098Y2403D01*
X1100Y2403D01*
X1100Y2399D01*
X1102Y2399D01*
X1102Y2393D01*
X1104Y2393D01*
X1104Y2385D01*
X1106Y2385D01*
X1106Y2375D01*
X1104Y2375D01*
X1104Y2367D01*
X1102Y2367D01*
X1102Y2361D01*
X1100Y2361D01*
X1100Y2357D01*
X1098Y2357D01*
X1098Y2355D01*
X1096Y2355D01*
X1096Y2351D01*
X1094Y2351D01*
X1094Y2349D01*
X1092Y2349D01*
X1092Y2347D01*
X1090Y2347D01*
X1090Y2345D01*
X1088Y2345D01*
X1088Y2343D01*
X1086Y2343D01*
X1086Y2341D01*
X1084Y2341D01*
X1084Y2339D01*
X1082Y2339D01*
X1082Y2337D01*
X1078Y2337D01*
X1078Y2335D01*
X1074Y2335D01*
X1074Y2333D01*
X1070Y2333D01*
X1070Y2331D01*
X1064Y2331D01*
X1064Y2329D01*
X1534Y2329D01*
X1534Y3277D01*
X992Y3277D01*
G37*
D02*
G36*
X992Y3259D02*
X992Y3235D01*
X1012Y3235D01*
X1012Y3237D01*
X1014Y3237D01*
X1014Y3239D01*
X1016Y3239D01*
X1016Y3243D01*
X1020Y3243D01*
X1020Y3245D01*
X1022Y3245D01*
X1022Y3247D01*
X1024Y3247D01*
X1024Y3249D01*
X1026Y3249D01*
X1026Y3251D01*
X1030Y3251D01*
X1030Y3253D01*
X1034Y3253D01*
X1034Y3255D01*
X1038Y3255D01*
X1038Y3257D01*
X1044Y3257D01*
X1044Y3259D01*
X992Y3259D01*
G37*
D02*
G36*
X40Y3133D02*
X40Y3033D01*
X394Y3033D01*
X394Y3035D01*
X386Y3035D01*
X386Y3037D01*
X380Y3037D01*
X380Y3039D01*
X378Y3039D01*
X378Y3041D01*
X374Y3041D01*
X374Y3043D01*
X370Y3043D01*
X370Y3045D01*
X368Y3045D01*
X368Y3047D01*
X366Y3047D01*
X366Y3049D01*
X364Y3049D01*
X364Y3051D01*
X362Y3051D01*
X362Y3053D01*
X360Y3053D01*
X360Y3055D01*
X358Y3055D01*
X358Y3059D01*
X356Y3059D01*
X356Y3063D01*
X354Y3063D01*
X354Y3067D01*
X352Y3067D01*
X352Y3071D01*
X350Y3071D01*
X350Y3095D01*
X352Y3095D01*
X352Y3101D01*
X354Y3101D01*
X354Y3105D01*
X356Y3105D01*
X356Y3107D01*
X358Y3107D01*
X358Y3111D01*
X360Y3111D01*
X360Y3113D01*
X362Y3113D01*
X362Y3115D01*
X364Y3115D01*
X364Y3117D01*
X366Y3117D01*
X366Y3119D01*
X368Y3119D01*
X368Y3121D01*
X370Y3121D01*
X370Y3123D01*
X372Y3123D01*
X372Y3125D01*
X376Y3125D01*
X376Y3127D01*
X378Y3127D01*
X378Y3129D01*
X382Y3129D01*
X382Y3131D01*
X388Y3131D01*
X388Y3133D01*
X40Y3133D01*
G37*
D02*
G36*
X40Y3033D02*
X40Y3031D01*
X502Y3031D01*
X502Y3033D01*
X40Y3033D01*
G37*
D02*
G36*
X40Y3033D02*
X40Y3031D01*
X502Y3031D01*
X502Y3033D01*
X40Y3033D01*
G37*
D02*
G36*
X40Y3031D02*
X40Y2937D01*
X448Y2937D01*
X448Y2935D01*
X450Y2935D01*
X450Y2837D01*
X502Y2837D01*
X502Y3031D01*
X40Y3031D01*
G37*
D02*
G36*
X40Y2937D02*
X40Y2837D01*
X350Y2837D01*
X350Y2937D01*
X40Y2937D01*
G37*
D02*
G36*
X40Y2837D02*
X40Y2835D01*
X502Y2835D01*
X502Y2837D01*
X40Y2837D01*
G37*
D02*
G36*
X40Y2837D02*
X40Y2835D01*
X502Y2835D01*
X502Y2837D01*
X40Y2837D01*
G37*
D02*
G36*
X40Y2835D02*
X40Y2559D01*
X280Y2559D01*
X280Y2557D01*
X288Y2557D01*
X288Y2555D01*
X292Y2555D01*
X292Y2553D01*
X296Y2553D01*
X296Y2551D01*
X300Y2551D01*
X300Y2549D01*
X302Y2549D01*
X302Y2547D01*
X304Y2547D01*
X304Y2545D01*
X306Y2545D01*
X306Y2543D01*
X308Y2543D01*
X308Y2541D01*
X310Y2541D01*
X310Y2539D01*
X312Y2539D01*
X312Y2535D01*
X314Y2535D01*
X314Y2533D01*
X316Y2533D01*
X316Y2529D01*
X318Y2529D01*
X318Y2523D01*
X320Y2523D01*
X320Y2513D01*
X322Y2513D01*
X322Y2509D01*
X320Y2509D01*
X320Y2499D01*
X318Y2499D01*
X318Y2495D01*
X316Y2495D01*
X316Y2491D01*
X314Y2491D01*
X314Y2487D01*
X312Y2487D01*
X312Y2485D01*
X310Y2485D01*
X310Y2483D01*
X308Y2483D01*
X308Y2481D01*
X306Y2481D01*
X306Y2479D01*
X304Y2479D01*
X304Y2477D01*
X302Y2477D01*
X302Y2475D01*
X300Y2475D01*
X300Y2473D01*
X298Y2473D01*
X298Y2471D01*
X296Y2471D01*
X296Y2451D01*
X300Y2451D01*
X300Y2449D01*
X302Y2449D01*
X302Y2447D01*
X304Y2447D01*
X304Y2445D01*
X306Y2445D01*
X306Y2443D01*
X308Y2443D01*
X308Y2441D01*
X310Y2441D01*
X310Y2439D01*
X312Y2439D01*
X312Y2435D01*
X314Y2435D01*
X314Y2433D01*
X316Y2433D01*
X316Y2429D01*
X318Y2429D01*
X318Y2423D01*
X320Y2423D01*
X320Y2413D01*
X322Y2413D01*
X322Y2409D01*
X320Y2409D01*
X320Y2399D01*
X318Y2399D01*
X318Y2395D01*
X316Y2395D01*
X316Y2391D01*
X314Y2391D01*
X314Y2387D01*
X312Y2387D01*
X312Y2385D01*
X310Y2385D01*
X310Y2383D01*
X308Y2383D01*
X308Y2381D01*
X306Y2381D01*
X306Y2379D01*
X304Y2379D01*
X304Y2377D01*
X302Y2377D01*
X302Y2375D01*
X300Y2375D01*
X300Y2373D01*
X298Y2373D01*
X298Y2371D01*
X296Y2371D01*
X296Y2351D01*
X300Y2351D01*
X300Y2349D01*
X302Y2349D01*
X302Y2347D01*
X304Y2347D01*
X304Y2345D01*
X306Y2345D01*
X306Y2343D01*
X308Y2343D01*
X308Y2341D01*
X310Y2341D01*
X310Y2339D01*
X312Y2339D01*
X312Y2335D01*
X314Y2335D01*
X314Y2333D01*
X316Y2333D01*
X316Y2329D01*
X318Y2329D01*
X318Y2323D01*
X320Y2323D01*
X320Y2313D01*
X322Y2313D01*
X322Y2309D01*
X320Y2309D01*
X320Y2299D01*
X318Y2299D01*
X318Y2295D01*
X316Y2295D01*
X316Y2291D01*
X314Y2291D01*
X314Y2287D01*
X312Y2287D01*
X312Y2285D01*
X310Y2285D01*
X310Y2283D01*
X308Y2283D01*
X308Y2281D01*
X306Y2281D01*
X306Y2279D01*
X304Y2279D01*
X304Y2277D01*
X302Y2277D01*
X302Y2275D01*
X300Y2275D01*
X300Y2273D01*
X298Y2273D01*
X298Y2271D01*
X296Y2271D01*
X296Y2251D01*
X300Y2251D01*
X300Y2249D01*
X302Y2249D01*
X302Y2247D01*
X304Y2247D01*
X304Y2245D01*
X306Y2245D01*
X306Y2243D01*
X308Y2243D01*
X308Y2241D01*
X310Y2241D01*
X310Y2239D01*
X312Y2239D01*
X312Y2235D01*
X314Y2235D01*
X314Y2233D01*
X316Y2233D01*
X316Y2229D01*
X318Y2229D01*
X318Y2223D01*
X320Y2223D01*
X320Y2213D01*
X322Y2213D01*
X322Y2209D01*
X320Y2209D01*
X320Y2199D01*
X318Y2199D01*
X318Y2195D01*
X316Y2195D01*
X316Y2191D01*
X314Y2191D01*
X314Y2187D01*
X312Y2187D01*
X312Y2185D01*
X310Y2185D01*
X310Y2183D01*
X308Y2183D01*
X308Y2181D01*
X306Y2181D01*
X306Y2179D01*
X304Y2179D01*
X304Y2177D01*
X302Y2177D01*
X302Y2175D01*
X300Y2175D01*
X300Y2173D01*
X298Y2173D01*
X298Y2171D01*
X296Y2171D01*
X296Y2151D01*
X300Y2151D01*
X300Y2149D01*
X302Y2149D01*
X302Y2147D01*
X304Y2147D01*
X304Y2145D01*
X306Y2145D01*
X306Y2143D01*
X308Y2143D01*
X308Y2141D01*
X310Y2141D01*
X310Y2139D01*
X312Y2139D01*
X312Y2135D01*
X314Y2135D01*
X314Y2133D01*
X316Y2133D01*
X316Y2129D01*
X318Y2129D01*
X318Y2123D01*
X320Y2123D01*
X320Y2113D01*
X322Y2113D01*
X322Y2109D01*
X320Y2109D01*
X320Y2099D01*
X318Y2099D01*
X318Y2095D01*
X316Y2095D01*
X316Y2091D01*
X314Y2091D01*
X314Y2087D01*
X312Y2087D01*
X312Y2085D01*
X310Y2085D01*
X310Y2083D01*
X308Y2083D01*
X308Y2081D01*
X306Y2081D01*
X306Y2079D01*
X304Y2079D01*
X304Y2077D01*
X302Y2077D01*
X302Y2075D01*
X300Y2075D01*
X300Y2073D01*
X298Y2073D01*
X298Y2071D01*
X296Y2071D01*
X296Y2051D01*
X300Y2051D01*
X300Y2049D01*
X302Y2049D01*
X302Y2047D01*
X304Y2047D01*
X304Y2045D01*
X306Y2045D01*
X306Y2043D01*
X308Y2043D01*
X308Y2041D01*
X310Y2041D01*
X310Y2039D01*
X312Y2039D01*
X312Y2035D01*
X314Y2035D01*
X314Y2033D01*
X316Y2033D01*
X316Y2029D01*
X318Y2029D01*
X318Y2023D01*
X320Y2023D01*
X320Y2013D01*
X322Y2013D01*
X322Y2009D01*
X320Y2009D01*
X320Y1999D01*
X318Y1999D01*
X318Y1995D01*
X316Y1995D01*
X316Y1991D01*
X314Y1991D01*
X314Y1987D01*
X312Y1987D01*
X312Y1985D01*
X310Y1985D01*
X310Y1983D01*
X308Y1983D01*
X308Y1981D01*
X306Y1981D01*
X306Y1979D01*
X304Y1979D01*
X304Y1977D01*
X302Y1977D01*
X302Y1975D01*
X300Y1975D01*
X300Y1973D01*
X298Y1973D01*
X298Y1971D01*
X296Y1971D01*
X296Y1951D01*
X300Y1951D01*
X300Y1949D01*
X302Y1949D01*
X302Y1947D01*
X304Y1947D01*
X304Y1945D01*
X306Y1945D01*
X306Y1943D01*
X308Y1943D01*
X308Y1941D01*
X310Y1941D01*
X310Y1939D01*
X312Y1939D01*
X312Y1935D01*
X314Y1935D01*
X314Y1933D01*
X316Y1933D01*
X316Y1929D01*
X318Y1929D01*
X318Y1923D01*
X320Y1923D01*
X320Y1913D01*
X322Y1913D01*
X322Y1909D01*
X320Y1909D01*
X320Y1899D01*
X318Y1899D01*
X318Y1895D01*
X316Y1895D01*
X316Y1891D01*
X314Y1891D01*
X314Y1887D01*
X312Y1887D01*
X312Y1885D01*
X310Y1885D01*
X310Y1883D01*
X308Y1883D01*
X308Y1881D01*
X306Y1881D01*
X306Y1879D01*
X304Y1879D01*
X304Y1877D01*
X302Y1877D01*
X302Y1875D01*
X300Y1875D01*
X300Y1873D01*
X298Y1873D01*
X298Y1871D01*
X296Y1871D01*
X296Y1851D01*
X300Y1851D01*
X300Y1849D01*
X302Y1849D01*
X302Y1847D01*
X304Y1847D01*
X304Y1845D01*
X306Y1845D01*
X306Y1843D01*
X308Y1843D01*
X308Y1841D01*
X310Y1841D01*
X310Y1839D01*
X312Y1839D01*
X312Y1835D01*
X314Y1835D01*
X314Y1833D01*
X316Y1833D01*
X316Y1829D01*
X318Y1829D01*
X318Y1823D01*
X320Y1823D01*
X320Y1813D01*
X322Y1813D01*
X322Y1809D01*
X320Y1809D01*
X320Y1799D01*
X318Y1799D01*
X318Y1795D01*
X316Y1795D01*
X316Y1791D01*
X314Y1791D01*
X314Y1787D01*
X312Y1787D01*
X312Y1785D01*
X310Y1785D01*
X310Y1783D01*
X308Y1783D01*
X308Y1781D01*
X306Y1781D01*
X306Y1779D01*
X304Y1779D01*
X304Y1777D01*
X302Y1777D01*
X302Y1775D01*
X300Y1775D01*
X300Y1773D01*
X298Y1773D01*
X298Y1771D01*
X296Y1771D01*
X296Y1751D01*
X300Y1751D01*
X300Y1749D01*
X302Y1749D01*
X302Y1747D01*
X304Y1747D01*
X304Y1745D01*
X306Y1745D01*
X306Y1743D01*
X308Y1743D01*
X308Y1741D01*
X310Y1741D01*
X310Y1739D01*
X312Y1739D01*
X312Y1735D01*
X314Y1735D01*
X314Y1733D01*
X316Y1733D01*
X316Y1729D01*
X318Y1729D01*
X318Y1723D01*
X320Y1723D01*
X320Y1713D01*
X322Y1713D01*
X322Y1709D01*
X320Y1709D01*
X320Y1699D01*
X318Y1699D01*
X318Y1695D01*
X316Y1695D01*
X316Y1691D01*
X314Y1691D01*
X314Y1687D01*
X312Y1687D01*
X312Y1685D01*
X310Y1685D01*
X310Y1683D01*
X308Y1683D01*
X308Y1681D01*
X306Y1681D01*
X306Y1679D01*
X304Y1679D01*
X304Y1677D01*
X302Y1677D01*
X302Y1675D01*
X300Y1675D01*
X300Y1673D01*
X298Y1673D01*
X298Y1671D01*
X296Y1671D01*
X296Y1651D01*
X300Y1651D01*
X300Y1649D01*
X302Y1649D01*
X302Y1647D01*
X304Y1647D01*
X304Y1645D01*
X306Y1645D01*
X306Y1643D01*
X308Y1643D01*
X308Y1641D01*
X310Y1641D01*
X310Y1639D01*
X312Y1639D01*
X312Y1635D01*
X314Y1635D01*
X314Y1633D01*
X316Y1633D01*
X316Y1629D01*
X318Y1629D01*
X318Y1623D01*
X320Y1623D01*
X320Y1613D01*
X322Y1613D01*
X322Y1609D01*
X320Y1609D01*
X320Y1599D01*
X318Y1599D01*
X318Y1595D01*
X316Y1595D01*
X316Y1591D01*
X314Y1591D01*
X314Y1587D01*
X312Y1587D01*
X312Y1585D01*
X310Y1585D01*
X310Y1583D01*
X308Y1583D01*
X308Y1581D01*
X306Y1581D01*
X306Y1579D01*
X304Y1579D01*
X304Y1577D01*
X302Y1577D01*
X302Y1575D01*
X300Y1575D01*
X300Y1573D01*
X298Y1573D01*
X298Y1571D01*
X296Y1571D01*
X296Y1551D01*
X300Y1551D01*
X300Y1549D01*
X302Y1549D01*
X302Y1547D01*
X304Y1547D01*
X304Y1545D01*
X306Y1545D01*
X306Y1543D01*
X308Y1543D01*
X308Y1541D01*
X310Y1541D01*
X310Y1539D01*
X312Y1539D01*
X312Y1535D01*
X314Y1535D01*
X314Y1533D01*
X316Y1533D01*
X316Y1529D01*
X318Y1529D01*
X318Y1523D01*
X320Y1523D01*
X320Y1513D01*
X322Y1513D01*
X322Y1509D01*
X320Y1509D01*
X320Y1499D01*
X318Y1499D01*
X318Y1495D01*
X316Y1495D01*
X316Y1491D01*
X314Y1491D01*
X314Y1487D01*
X312Y1487D01*
X312Y1485D01*
X310Y1485D01*
X310Y1483D01*
X308Y1483D01*
X308Y1481D01*
X306Y1481D01*
X306Y1479D01*
X304Y1479D01*
X304Y1477D01*
X302Y1477D01*
X302Y1475D01*
X300Y1475D01*
X300Y1473D01*
X298Y1473D01*
X298Y1471D01*
X296Y1471D01*
X296Y1451D01*
X300Y1451D01*
X300Y1449D01*
X302Y1449D01*
X302Y1447D01*
X304Y1447D01*
X304Y1445D01*
X306Y1445D01*
X306Y1443D01*
X308Y1443D01*
X308Y1441D01*
X310Y1441D01*
X310Y1439D01*
X312Y1439D01*
X312Y1435D01*
X314Y1435D01*
X314Y1433D01*
X316Y1433D01*
X316Y1429D01*
X318Y1429D01*
X318Y1423D01*
X320Y1423D01*
X320Y1413D01*
X322Y1413D01*
X322Y1409D01*
X320Y1409D01*
X320Y1399D01*
X318Y1399D01*
X318Y1395D01*
X316Y1395D01*
X316Y1391D01*
X314Y1391D01*
X314Y1387D01*
X312Y1387D01*
X312Y1385D01*
X310Y1385D01*
X310Y1383D01*
X308Y1383D01*
X308Y1381D01*
X306Y1381D01*
X306Y1379D01*
X304Y1379D01*
X304Y1377D01*
X302Y1377D01*
X302Y1375D01*
X300Y1375D01*
X300Y1373D01*
X298Y1373D01*
X298Y1371D01*
X296Y1371D01*
X296Y1351D01*
X300Y1351D01*
X300Y1349D01*
X302Y1349D01*
X302Y1347D01*
X304Y1347D01*
X304Y1345D01*
X306Y1345D01*
X306Y1343D01*
X308Y1343D01*
X308Y1341D01*
X310Y1341D01*
X310Y1339D01*
X312Y1339D01*
X312Y1335D01*
X314Y1335D01*
X314Y1333D01*
X390Y1333D01*
X390Y1335D01*
X392Y1335D01*
X392Y1337D01*
X394Y1337D01*
X394Y1339D01*
X396Y1339D01*
X396Y1341D01*
X398Y1341D01*
X398Y1343D01*
X400Y1343D01*
X400Y1345D01*
X402Y1345D01*
X402Y2641D01*
X404Y2641D01*
X404Y2647D01*
X406Y2647D01*
X406Y2649D01*
X408Y2649D01*
X408Y2653D01*
X410Y2653D01*
X410Y2655D01*
X412Y2655D01*
X412Y2657D01*
X414Y2657D01*
X414Y2659D01*
X416Y2659D01*
X416Y2661D01*
X418Y2661D01*
X418Y2663D01*
X420Y2663D01*
X420Y2665D01*
X422Y2665D01*
X422Y2667D01*
X424Y2667D01*
X424Y2669D01*
X426Y2669D01*
X426Y2671D01*
X428Y2671D01*
X428Y2673D01*
X430Y2673D01*
X430Y2675D01*
X432Y2675D01*
X432Y2677D01*
X434Y2677D01*
X434Y2679D01*
X436Y2679D01*
X436Y2681D01*
X438Y2681D01*
X438Y2683D01*
X440Y2683D01*
X440Y2685D01*
X442Y2685D01*
X442Y2687D01*
X444Y2687D01*
X444Y2689D01*
X446Y2689D01*
X446Y2691D01*
X448Y2691D01*
X448Y2693D01*
X450Y2693D01*
X450Y2695D01*
X452Y2695D01*
X452Y2697D01*
X454Y2697D01*
X454Y2699D01*
X456Y2699D01*
X456Y2701D01*
X458Y2701D01*
X458Y2703D01*
X460Y2703D01*
X460Y2705D01*
X462Y2705D01*
X462Y2707D01*
X464Y2707D01*
X464Y2709D01*
X466Y2709D01*
X466Y2711D01*
X468Y2711D01*
X468Y2713D01*
X470Y2713D01*
X470Y2715D01*
X472Y2715D01*
X472Y2717D01*
X474Y2717D01*
X474Y2719D01*
X476Y2719D01*
X476Y2721D01*
X478Y2721D01*
X478Y2723D01*
X480Y2723D01*
X480Y2725D01*
X482Y2725D01*
X482Y2727D01*
X484Y2727D01*
X484Y2729D01*
X486Y2729D01*
X486Y2731D01*
X488Y2731D01*
X488Y2733D01*
X490Y2733D01*
X490Y2735D01*
X492Y2735D01*
X492Y2737D01*
X494Y2737D01*
X494Y2739D01*
X496Y2739D01*
X496Y2741D01*
X498Y2741D01*
X498Y2743D01*
X500Y2743D01*
X500Y2745D01*
X502Y2745D01*
X502Y2835D01*
X40Y2835D01*
G37*
D02*
G36*
X40Y2559D02*
X40Y2421D01*
X60Y2421D01*
X60Y2425D01*
X62Y2425D01*
X62Y2429D01*
X64Y2429D01*
X64Y2431D01*
X66Y2431D01*
X66Y2435D01*
X68Y2435D01*
X68Y2437D01*
X70Y2437D01*
X70Y2439D01*
X72Y2439D01*
X72Y2441D01*
X74Y2441D01*
X74Y2443D01*
X76Y2443D01*
X76Y2445D01*
X80Y2445D01*
X80Y2447D01*
X84Y2447D01*
X84Y2449D01*
X90Y2449D01*
X90Y2451D01*
X128Y2451D01*
X128Y2559D01*
X40Y2559D01*
G37*
D02*
G36*
X220Y2559D02*
X220Y2557D01*
X222Y2557D01*
X222Y2551D01*
X252Y2551D01*
X252Y2553D01*
X256Y2553D01*
X256Y2555D01*
X260Y2555D01*
X260Y2557D01*
X268Y2557D01*
X268Y2559D01*
X220Y2559D01*
G37*
D02*
G36*
X992Y2353D02*
X992Y2329D01*
X1042Y2329D01*
X1042Y2331D01*
X1038Y2331D01*
X1038Y2333D01*
X1032Y2333D01*
X1032Y2335D01*
X1030Y2335D01*
X1030Y2337D01*
X1026Y2337D01*
X1026Y2339D01*
X1024Y2339D01*
X1024Y2341D01*
X1022Y2341D01*
X1022Y2343D01*
X1020Y2343D01*
X1020Y2345D01*
X1018Y2345D01*
X1018Y2347D01*
X1016Y2347D01*
X1016Y2349D01*
X1014Y2349D01*
X1014Y2351D01*
X1012Y2351D01*
X1012Y2353D01*
X992Y2353D01*
G37*
D02*
G36*
X992Y2329D02*
X992Y2327D01*
X1534Y2327D01*
X1534Y2329D01*
X992Y2329D01*
G37*
D02*
G36*
X992Y2329D02*
X992Y2327D01*
X1534Y2327D01*
X1534Y2329D01*
X992Y2329D01*
G37*
D02*
G36*
X992Y2327D02*
X992Y2309D01*
X1064Y2309D01*
X1064Y2307D01*
X1070Y2307D01*
X1070Y2305D01*
X1074Y2305D01*
X1074Y2303D01*
X1078Y2303D01*
X1078Y2301D01*
X1080Y2301D01*
X1080Y2299D01*
X1084Y2299D01*
X1084Y2297D01*
X1086Y2297D01*
X1086Y2295D01*
X1088Y2295D01*
X1088Y2293D01*
X1090Y2293D01*
X1090Y2291D01*
X1092Y2291D01*
X1092Y2289D01*
X1094Y2289D01*
X1094Y2287D01*
X1096Y2287D01*
X1096Y2283D01*
X1408Y2283D01*
X1408Y2281D01*
X1412Y2281D01*
X1412Y2279D01*
X1414Y2279D01*
X1414Y2277D01*
X1416Y2277D01*
X1416Y2275D01*
X1418Y2275D01*
X1418Y2273D01*
X1420Y2273D01*
X1420Y2271D01*
X1422Y2271D01*
X1422Y2269D01*
X1424Y2269D01*
X1424Y2267D01*
X1426Y2267D01*
X1426Y2265D01*
X1428Y2265D01*
X1428Y2263D01*
X1430Y2263D01*
X1430Y2261D01*
X1432Y2261D01*
X1432Y2259D01*
X1434Y2259D01*
X1434Y2257D01*
X1436Y2257D01*
X1436Y2255D01*
X1438Y2255D01*
X1438Y2253D01*
X1440Y2253D01*
X1440Y2251D01*
X1442Y2251D01*
X1442Y2247D01*
X1444Y2247D01*
X1444Y2243D01*
X1446Y2243D01*
X1446Y231D01*
X1444Y231D01*
X1444Y225D01*
X1442Y225D01*
X1442Y223D01*
X1440Y223D01*
X1440Y221D01*
X1438Y221D01*
X1438Y219D01*
X1436Y219D01*
X1436Y217D01*
X1434Y217D01*
X1434Y215D01*
X1432Y215D01*
X1432Y213D01*
X1430Y213D01*
X1430Y211D01*
X1428Y211D01*
X1428Y209D01*
X1426Y209D01*
X1426Y207D01*
X1424Y207D01*
X1424Y205D01*
X1422Y205D01*
X1422Y203D01*
X1420Y203D01*
X1420Y201D01*
X1418Y201D01*
X1418Y199D01*
X1416Y199D01*
X1416Y197D01*
X1414Y197D01*
X1414Y195D01*
X1412Y195D01*
X1412Y193D01*
X1408Y193D01*
X1408Y191D01*
X1402Y191D01*
X1402Y189D01*
X1534Y189D01*
X1534Y2327D01*
X992Y2327D01*
G37*
D02*
G36*
X992Y2309D02*
X992Y2285D01*
X1012Y2285D01*
X1012Y2287D01*
X1014Y2287D01*
X1014Y2291D01*
X1016Y2291D01*
X1016Y2293D01*
X1018Y2293D01*
X1018Y2295D01*
X1020Y2295D01*
X1020Y2297D01*
X1024Y2297D01*
X1024Y2299D01*
X1026Y2299D01*
X1026Y2301D01*
X1028Y2301D01*
X1028Y2303D01*
X1032Y2303D01*
X1032Y2305D01*
X1036Y2305D01*
X1036Y2307D01*
X1042Y2307D01*
X1042Y2309D01*
X992Y2309D01*
G37*
D02*
G36*
X40Y395D02*
X40Y235D01*
X198Y235D01*
X198Y347D01*
X114Y347D01*
X114Y349D01*
X108Y349D01*
X108Y351D01*
X104Y351D01*
X104Y353D01*
X102Y353D01*
X102Y355D01*
X98Y355D01*
X98Y357D01*
X96Y357D01*
X96Y359D01*
X94Y359D01*
X94Y361D01*
X92Y361D01*
X92Y363D01*
X90Y363D01*
X90Y365D01*
X88Y365D01*
X88Y367D01*
X86Y367D01*
X86Y369D01*
X84Y369D01*
X84Y371D01*
X82Y371D01*
X82Y373D01*
X80Y373D01*
X80Y375D01*
X78Y375D01*
X78Y377D01*
X76Y377D01*
X76Y379D01*
X74Y379D01*
X74Y381D01*
X72Y381D01*
X72Y383D01*
X70Y383D01*
X70Y385D01*
X68Y385D01*
X68Y387D01*
X66Y387D01*
X66Y389D01*
X64Y389D01*
X64Y391D01*
X62Y391D01*
X62Y393D01*
X60Y393D01*
X60Y395D01*
X40Y395D01*
G37*
D02*
G36*
X300Y347D02*
X300Y237D01*
X298Y237D01*
X298Y235D01*
X542Y235D01*
X542Y237D01*
X534Y237D01*
X534Y239D01*
X528Y239D01*
X528Y241D01*
X526Y241D01*
X526Y243D01*
X522Y243D01*
X522Y245D01*
X518Y245D01*
X518Y247D01*
X516Y247D01*
X516Y249D01*
X514Y249D01*
X514Y251D01*
X512Y251D01*
X512Y253D01*
X510Y253D01*
X510Y255D01*
X508Y255D01*
X508Y257D01*
X506Y257D01*
X506Y261D01*
X504Y261D01*
X504Y263D01*
X502Y263D01*
X502Y267D01*
X500Y267D01*
X500Y271D01*
X498Y271D01*
X498Y279D01*
X496Y279D01*
X496Y295D01*
X498Y295D01*
X498Y301D01*
X500Y301D01*
X500Y307D01*
X502Y307D01*
X502Y309D01*
X504Y309D01*
X504Y313D01*
X506Y313D01*
X506Y315D01*
X508Y315D01*
X508Y319D01*
X510Y319D01*
X510Y321D01*
X512Y321D01*
X512Y323D01*
X514Y323D01*
X514Y325D01*
X518Y325D01*
X518Y327D01*
X520Y327D01*
X520Y347D01*
X300Y347D01*
G37*
D02*
G36*
X574Y347D02*
X574Y327D01*
X578Y327D01*
X578Y325D01*
X580Y325D01*
X580Y323D01*
X582Y323D01*
X582Y321D01*
X584Y321D01*
X584Y319D01*
X586Y319D01*
X586Y315D01*
X588Y315D01*
X588Y313D01*
X590Y313D01*
X590Y309D01*
X592Y309D01*
X592Y307D01*
X594Y307D01*
X594Y303D01*
X596Y303D01*
X596Y295D01*
X598Y295D01*
X598Y277D01*
X596Y277D01*
X596Y271D01*
X594Y271D01*
X594Y267D01*
X592Y267D01*
X592Y263D01*
X590Y263D01*
X590Y259D01*
X588Y259D01*
X588Y257D01*
X586Y257D01*
X586Y255D01*
X584Y255D01*
X584Y253D01*
X582Y253D01*
X582Y251D01*
X580Y251D01*
X580Y249D01*
X578Y249D01*
X578Y247D01*
X576Y247D01*
X576Y245D01*
X572Y245D01*
X572Y243D01*
X570Y243D01*
X570Y241D01*
X566Y241D01*
X566Y239D01*
X692Y239D01*
X692Y241D01*
X686Y241D01*
X686Y243D01*
X680Y243D01*
X680Y245D01*
X678Y245D01*
X678Y247D01*
X674Y247D01*
X674Y249D01*
X672Y249D01*
X672Y251D01*
X670Y251D01*
X670Y253D01*
X666Y253D01*
X666Y255D01*
X664Y255D01*
X664Y259D01*
X662Y259D01*
X662Y261D01*
X660Y261D01*
X660Y263D01*
X658Y263D01*
X658Y267D01*
X656Y267D01*
X656Y271D01*
X654Y271D01*
X654Y277D01*
X652Y277D01*
X652Y297D01*
X654Y297D01*
X654Y301D01*
X656Y301D01*
X656Y307D01*
X658Y307D01*
X658Y309D01*
X660Y309D01*
X660Y313D01*
X662Y313D01*
X662Y315D01*
X664Y315D01*
X664Y317D01*
X666Y317D01*
X666Y319D01*
X668Y319D01*
X668Y321D01*
X670Y321D01*
X670Y323D01*
X672Y323D01*
X672Y325D01*
X674Y325D01*
X674Y327D01*
X678Y327D01*
X678Y347D01*
X574Y347D01*
G37*
D02*
G36*
X720Y347D02*
X720Y327D01*
X724Y327D01*
X724Y325D01*
X726Y325D01*
X726Y323D01*
X728Y323D01*
X728Y321D01*
X730Y321D01*
X730Y319D01*
X732Y319D01*
X732Y317D01*
X734Y317D01*
X734Y315D01*
X736Y315D01*
X736Y313D01*
X738Y313D01*
X738Y309D01*
X740Y309D01*
X740Y307D01*
X742Y307D01*
X742Y303D01*
X744Y303D01*
X744Y297D01*
X746Y297D01*
X746Y277D01*
X744Y277D01*
X744Y271D01*
X742Y271D01*
X742Y267D01*
X740Y267D01*
X740Y263D01*
X738Y263D01*
X738Y261D01*
X736Y261D01*
X736Y257D01*
X734Y257D01*
X734Y255D01*
X732Y255D01*
X732Y253D01*
X730Y253D01*
X730Y251D01*
X726Y251D01*
X726Y249D01*
X724Y249D01*
X724Y247D01*
X722Y247D01*
X722Y245D01*
X718Y245D01*
X718Y243D01*
X712Y243D01*
X712Y241D01*
X706Y241D01*
X706Y239D01*
X1078Y239D01*
X1078Y247D01*
X1074Y247D01*
X1074Y249D01*
X1072Y249D01*
X1072Y251D01*
X1070Y251D01*
X1070Y253D01*
X1066Y253D01*
X1066Y255D01*
X1064Y255D01*
X1064Y259D01*
X1062Y259D01*
X1062Y261D01*
X1060Y261D01*
X1060Y263D01*
X1058Y263D01*
X1058Y267D01*
X1056Y267D01*
X1056Y271D01*
X1054Y271D01*
X1054Y277D01*
X1052Y277D01*
X1052Y297D01*
X1054Y297D01*
X1054Y301D01*
X1056Y301D01*
X1056Y307D01*
X1058Y307D01*
X1058Y309D01*
X1060Y309D01*
X1060Y313D01*
X1062Y313D01*
X1062Y315D01*
X1064Y315D01*
X1064Y317D01*
X1066Y317D01*
X1066Y319D01*
X1068Y319D01*
X1068Y321D01*
X1070Y321D01*
X1070Y323D01*
X1072Y323D01*
X1072Y325D01*
X1074Y325D01*
X1074Y327D01*
X1078Y327D01*
X1078Y347D01*
X720Y347D01*
G37*
D02*
G36*
X560Y239D02*
X560Y237D01*
X1078Y237D01*
X1078Y239D01*
X560Y239D01*
G37*
D02*
G36*
X560Y239D02*
X560Y237D01*
X1078Y237D01*
X1078Y239D01*
X560Y239D01*
G37*
D02*
G36*
X552Y237D02*
X552Y235D01*
X1078Y235D01*
X1078Y237D01*
X552Y237D01*
G37*
D02*
G36*
X40Y235D02*
X40Y233D01*
X1078Y233D01*
X1078Y235D01*
X40Y235D01*
G37*
D02*
G36*
X40Y235D02*
X40Y233D01*
X1078Y233D01*
X1078Y235D01*
X40Y235D01*
G37*
D02*
G36*
X40Y235D02*
X40Y233D01*
X1078Y233D01*
X1078Y235D01*
X40Y235D01*
G37*
D02*
G36*
X40Y233D02*
X40Y189D01*
X1120Y189D01*
X1120Y191D01*
X1114Y191D01*
X1114Y193D01*
X1112Y193D01*
X1112Y195D01*
X1108Y195D01*
X1108Y197D01*
X1106Y197D01*
X1106Y199D01*
X1104Y199D01*
X1104Y201D01*
X1102Y201D01*
X1102Y203D01*
X1100Y203D01*
X1100Y205D01*
X1098Y205D01*
X1098Y207D01*
X1096Y207D01*
X1096Y209D01*
X1094Y209D01*
X1094Y211D01*
X1092Y211D01*
X1092Y213D01*
X1090Y213D01*
X1090Y215D01*
X1088Y215D01*
X1088Y217D01*
X1086Y217D01*
X1086Y219D01*
X1084Y219D01*
X1084Y221D01*
X1082Y221D01*
X1082Y225D01*
X1080Y225D01*
X1080Y227D01*
X1078Y227D01*
X1078Y233D01*
X40Y233D01*
G37*
D02*
G36*
X40Y189D02*
X40Y187D01*
X1534Y187D01*
X1534Y189D01*
X40Y189D01*
G37*
D02*
G36*
X40Y189D02*
X40Y187D01*
X1534Y187D01*
X1534Y189D01*
X40Y189D01*
G37*
D02*
G36*
X40Y187D02*
X40Y41D01*
X1534Y41D01*
X1534Y187D01*
X40Y187D01*
G37*
D02*
G36*
X850Y2069D02*
X897Y2069D01*
X897Y2037D01*
X850Y2037D01*
X850Y2069D01*
G37*
D02*
G36*
X635Y2871D02*
X660Y2871D01*
X660Y2845D01*
X635Y2845D01*
X635Y2871D01*
G37*
D02*
G36*
X635Y2831D02*
X660Y2831D01*
X660Y2807D01*
X635Y2807D01*
X635Y2831D01*
G37*
D02*
G36*
X654Y2850D02*
X678Y2850D01*
X678Y2825D01*
X654Y2825D01*
X654Y2850D01*
G37*
D02*
G36*
X375Y2941D02*
X420Y2941D01*
X420Y2907D01*
X375Y2907D01*
X375Y2941D01*
G37*
D02*
G36*
X375Y2869D02*
X420Y2869D01*
X420Y2837D01*
X375Y2837D01*
X375Y2869D01*
G37*
D02*
G36*
X346Y2910D02*
X378Y2910D01*
X378Y2865D01*
X346Y2865D01*
X346Y2910D01*
G37*
D02*
G36*
X626Y3413D02*
X669Y3413D01*
X669Y3381D01*
X626Y3381D01*
X626Y3413D01*
G37*
D02*
G36*
X626Y3347D02*
X669Y3347D01*
X669Y3315D01*
X626Y3315D01*
X626Y3347D01*
G37*
D02*
G36*
X664Y3385D02*
X696Y3385D01*
X696Y3342D01*
X664Y3342D01*
X664Y3385D01*
G37*
D02*
G36*
X1068Y1901D02*
X1102Y1901D01*
X1102Y1854D01*
X1068Y1854D01*
X1068Y1901D01*
G37*
D02*
G36*
X1024Y2071D02*
X1071Y2071D01*
X1071Y2039D01*
X1024Y2039D01*
X1024Y2071D01*
G37*
D02*
G36*
X1068Y2041D02*
X1102Y2041D01*
X1102Y1994D01*
X1068Y1994D01*
X1068Y2041D01*
G37*
D02*
G36*
X290Y835D02*
X322Y835D01*
X322Y792D01*
X290Y792D01*
X290Y835D01*
G37*
D02*
G36*
X522Y269D02*
X569Y269D01*
X569Y235D01*
X522Y235D01*
X522Y269D01*
G37*
D02*
G36*
X492Y313D02*
X524Y313D01*
X524Y266D01*
X492Y266D01*
X492Y313D01*
G37*
D02*
G04 End of Copper0*
M02*