; NON-PLATED HOLES START AT T1
; THROUGH (PLATED) HOLES START AT T100
M48
INCH
T1C0.137795
T100C0.042000
T101C0.015748
T102C0.040000
T103C0.043307
T104C0.035000
T105C0.035433
%
T1
X012991Y003106
X012991Y036440
X012991Y021143
T100
X005471Y002866
X002491Y002866
T101
X006491Y028366
X005241Y012866
T102
X001741Y019116
X002741Y006116
X002741Y019116
X001741Y020116
X003241Y033866
X001741Y012116
X002741Y020116
X001741Y025116
X002741Y012116
X001741Y017116
X002741Y025116
X001741Y009116
X002741Y017116
X002741Y009116
X001741Y010116
X001741Y023116
X003241Y036866
X002741Y010116
X001741Y015116
X002741Y023116
X001741Y007116
X002741Y015116
X002741Y007116
X001741Y021116
X003241Y034866
X001741Y013116
X002741Y021116
X002741Y013116
X001741Y018116
X002741Y018116
X003991Y030834
X001741Y011116
X001741Y024116
X002741Y011116
X001741Y016116
X002741Y024116
X001741Y008116
X002741Y016116
X002741Y008116
X001741Y022116
X003241Y035866
X001741Y014116
X003991Y028866
X002741Y022116
X001741Y006116
X002741Y014116
T103
X008763Y009286
X010533Y028518
X010533Y032074
X008745Y013991
X008755Y018750
X010533Y024977
X008755Y020139
X010505Y011658
X010533Y030889
X008782Y030880
X008787Y023792
X008745Y017546
X008745Y012806
X010496Y016370
X008782Y028523
X010510Y008104
X010533Y027333
X008760Y005339
X010505Y018759
X008782Y024982
X008782Y033287
X010496Y015185
X010513Y009295
X008782Y027338
X010537Y023801
X010482Y010477
X008745Y016361
X010533Y033296
X010505Y020148
X008760Y006717
X008732Y010467
X008782Y034662
X008755Y011649
X008782Y029694
X010510Y005348
X010496Y014000
X008745Y015176
X010533Y029704
X008782Y026153
X008782Y032065
X010519Y034671
X010496Y012815
X010496Y017556
X010533Y022579
X008760Y008094
X010533Y026162
X008782Y022570
X010510Y006726
T104
X010991Y002866
X006491Y029616
X006991Y002866
X006491Y033616
T105
X006241Y022866
X007491Y022866
T00
M30
