G04 MADE WITH FRITZING*
G04 WWW.FRITZING.ORG*
G04 DOUBLE SIDED*
G04 HOLES PLATED*
G04 CONTOUR ON CENTER OF CONTOUR VECTOR*
%ASAXBY*%
%FSLAX23Y23*%
%MOIN*%
%OFA0B0*%
%SFA1.0B1.0*%
%ADD10C,0.085433*%
%ADD11C,0.049370*%
%ADD12C,0.085000*%
%ADD13C,0.092000*%
%ADD14C,0.090000*%
%ADD15C,0.084000*%
%ADD16C,0.147795*%
%ADD17C,0.093307*%
%ADD18R,0.092000X0.092000*%
%ADD19R,0.090000X0.090000*%
%ADD20R,0.084000X0.084000*%
%LNMASK0*%
G90*
G70*
G54D10*
X624Y2287D03*
G54D11*
X649Y2837D03*
G54D12*
X1099Y287D03*
X699Y287D03*
X649Y3362D03*
X649Y2962D03*
G54D13*
X249Y287D03*
X547Y287D03*
G54D10*
X749Y2287D03*
G54D11*
X524Y1287D03*
G54D14*
X324Y3387D03*
X324Y3487D03*
X324Y3587D03*
X324Y3687D03*
X399Y2887D03*
X399Y3083D03*
G54D15*
X274Y2512D03*
X274Y2412D03*
X274Y2312D03*
X274Y2212D03*
X274Y2112D03*
X274Y2012D03*
X274Y1912D03*
X274Y1812D03*
X274Y1712D03*
X274Y1612D03*
X274Y1512D03*
X274Y1412D03*
X274Y1312D03*
X274Y1212D03*
X274Y1112D03*
X274Y1012D03*
X274Y912D03*
X274Y812D03*
X274Y712D03*
X274Y612D03*
X174Y2512D03*
X174Y2412D03*
X174Y2312D03*
X174Y2212D03*
X174Y2112D03*
X174Y2012D03*
X174Y1912D03*
X174Y1812D03*
X174Y1712D03*
X174Y1612D03*
X174Y1512D03*
X174Y1412D03*
X174Y1312D03*
X174Y1212D03*
X174Y1112D03*
X174Y1012D03*
X174Y912D03*
X174Y812D03*
X174Y712D03*
X174Y612D03*
G54D16*
X1299Y311D03*
X1299Y2114D03*
X1299Y3644D03*
G54D17*
X876Y534D03*
X876Y672D03*
X876Y809D03*
X876Y929D03*
X873Y1047D03*
X876Y1165D03*
X875Y1281D03*
X875Y1399D03*
X875Y1518D03*
X875Y1636D03*
X875Y1755D03*
X876Y1875D03*
X1051Y535D03*
X1051Y673D03*
X1051Y810D03*
X1051Y930D03*
X1048Y1048D03*
X1051Y1166D03*
X1050Y1282D03*
X1050Y1400D03*
X1050Y1519D03*
X1050Y1637D03*
X1050Y1756D03*
X1051Y1876D03*
X1051Y2015D03*
X876Y2014D03*
X878Y2257D03*
X1053Y2258D03*
X879Y2379D03*
X1054Y2380D03*
X878Y2498D03*
X1053Y2498D03*
X878Y2615D03*
X1053Y2616D03*
X878Y2734D03*
X1053Y2733D03*
X878Y2852D03*
X1053Y2852D03*
X878Y2969D03*
X1053Y2970D03*
X878Y3088D03*
X1053Y3089D03*
X878Y3207D03*
X1053Y3207D03*
X878Y3329D03*
X1053Y3330D03*
X878Y3466D03*
X1052Y3467D03*
G54D18*
X248Y287D03*
G54D19*
X324Y3387D03*
X399Y2887D03*
G54D20*
X174Y2512D03*
G04 End of Mask0*
M02*