; NON-PLATED HOLES START AT T1
; THROUGH (PLATED) HOLES START AT T100
M48
INCH
T1C0.165354
T100C0.035433
T101C0.040000
T102C0.043302
T103C0.015748
T104C0.035000
T105C0.042000
%
T1
X012757Y003283
X012757Y021332
X012757Y036632
T100
X005991Y024116
X004991Y004866
X007741Y022866
X005991Y004116
X006866Y022866
T101
X003491Y022116
X003491Y014116
X002491Y022116
X003491Y006116
X002491Y014116
X003241Y034866
X003491Y019116
X002491Y006116
X002491Y019116
X003491Y020116
X003491Y012116
X002491Y020116
X003491Y025116
X002491Y012116
X003491Y017116
X002491Y025116
X003991Y030834
X003491Y009116
X002491Y017116
X002491Y009116
X003491Y010116
X003491Y023116
X002491Y010116
X003491Y015116
X002491Y023116
X003491Y007116
X002491Y015116
X003241Y035866
X003991Y028866
X002491Y007116
X003491Y021116
X003491Y013116
X002491Y021116
X002491Y013116
X003241Y033866
X003491Y018116
X002491Y018116
X003491Y011116
X003491Y024116
X002491Y011116
X003491Y016116
X002491Y024116
X003491Y008116
X002491Y016116
X003241Y036866
X002491Y008116
T102
X008741Y015149
X010511Y010424
X008741Y018732
X008741Y028499
X010511Y013970
X010511Y027315
X010511Y032040
X010511Y023774
X008741Y033265
X010511Y017516
X008741Y006649
X010511Y020116
X010511Y011608
X010511Y024957
X010511Y005270
X008741Y016332
X008741Y012791
X008741Y026136
X008741Y008024
X008741Y029682
X010511Y034640
X008741Y010424
X010511Y030861
X008741Y013970
X008741Y027315
X008741Y032040
X008741Y023774
X008741Y017516
X010511Y022557
X008741Y020116
X008741Y011608
X008741Y024957
X010511Y009245
X008741Y005270
X010511Y015149
X008741Y034640
X010511Y018732
X010511Y028499
X010511Y033265
X008741Y030861
X008741Y022557
X010511Y006649
X010511Y016332
X010511Y012791
X010511Y026136
X008741Y009245
X010511Y008024
X010511Y029682
T103
X009741Y014616
X009741Y016866
X009741Y020866
X006491Y028366
X006491Y031616
X009491Y023116
T104
X006491Y029616
X010491Y002616
X006491Y033616
X006491Y002616
T105
X002491Y002616
X005471Y002616
T00
M30
