; NON-PLATED HOLES START AT T1
; THROUGH (PLATED) HOLES START AT T100
M48
INCH
T100C0.038000
T101C0.038194
T102C0.015748
%
T100
X024021Y009166
X022021Y009166
X020021Y009166
X021021Y015166
X023021Y015166
X019021Y013166
X020021Y015166
X022021Y015166
X024021Y015166
X019021Y011166
X005021Y009166
X003021Y009166
X001021Y009166
X008021Y009166
X006021Y009166
X004021Y009166
X002021Y009166
X019021Y014166
X009021Y009166
X007021Y009166
X001021Y015166
X003021Y015166
X005021Y015166
X002021Y015166
X004021Y015166
X006021Y015166
X008021Y015166
X007021Y015166
X009021Y015166
X019021Y012166
X015021Y009166
X013021Y009166
X011021Y009166
X018021Y009166
X016021Y009166
X014021Y009166
X012021Y009166
X010021Y009166
X005021Y003416
X003021Y003416
X019021Y009166
X017021Y009166
X011021Y015166
X013021Y015166
X015021Y015166
X006021Y003416
X004021Y003416
X019021Y010166
X010021Y015166
X012021Y015166
X014021Y015166
X016021Y015166
X018021Y015166
X007021Y003416
X017021Y015166
X019021Y015166
X023021Y009166
X021021Y009166
T101
X038021Y004916
X037021Y015916
X029021Y019916
X038021Y019916
X014021Y000916
X038021Y003916
X021021Y019916
X037021Y014916
X023021Y000916
X030021Y019916
X032021Y000916
X012421Y019916
X038021Y018916
X038021Y002916
X017021Y000916
X037021Y013916
X024021Y019916
X026021Y000916
X038021Y017916
X037021Y009916
X033021Y019916
X015421Y019916
X035021Y000916
X037021Y012916
X018021Y019916
X027021Y019916
X029021Y000916
X038021Y016916
X009421Y019916
X037021Y008916
X037021Y011916
X012021Y000916
X021021Y000916
X038021Y015916
X037021Y007916
X030021Y000916
X010421Y019916
X037021Y010916
X015021Y000916
X022021Y019916
X038021Y014916
X024021Y000916
X037021Y006916
X031021Y019916
X013421Y019916
X033021Y000916
X038021Y013916
X037021Y005916
X018021Y000916
X025021Y019916
X027021Y000916
X007421Y019916
X034021Y019916
X038021Y009916
X016421Y019916
X036021Y000916
X038021Y012916
X037021Y004916
X019021Y019916
X028021Y019916
X038021Y008916
X037021Y019916
X038021Y011916
X013021Y000916
X037021Y003916
X020021Y019916
X022021Y000916
X038021Y007916
X011421Y019916
X031021Y000916
X037021Y018916
X038021Y010916
X037021Y002916
X016021Y000916
X023021Y019916
X038021Y006916
X025021Y000916
X037021Y017916
X032021Y019916
X014421Y019916
X034021Y000916
X038021Y005916
X037021Y016916
X008421Y019916
X011021Y000916
X020021Y000916
T102
X037021Y001166
X021646Y010666
X014521Y002666
X018771Y000916
X005771Y011666
X009271Y002916
X014021Y004916
X014521Y004166
X009271Y001166
X028521Y012416
X028271Y008666
X017271Y004666
X018021Y004666
X030771Y004666
X030521Y009666
X016521Y000416
X014521Y002166
X027771Y004166
X014521Y003666
X024021Y009916
X038521Y001166
X032021Y008666
X030521Y007666
X014521Y005166
X014521Y001666
X034771Y011916
X019271Y004166
X014521Y003166
X032021Y012666
X020271Y004166
X014521Y004666
X025271Y004166
X023271Y004166
X021271Y004166
X018771Y004666
X026271Y004166
X024271Y004166
X022271Y004166
T00
M30
