G04 MADE WITH FRITZING*
G04 WWW.FRITZING.ORG*
G04 DOUBLE SIDED*
G04 HOLES PLATED*
G04 CONTOUR ON CENTER OF CONTOUR VECTOR*
%ASAXBY*%
%FSLAX23Y23*%
%MOIN*%
%OFA0B0*%
%SFA1.0B1.0*%
%ADD10R,0.023622X0.047244*%
%ADD11R,0.059055X0.055118*%
%ADD12R,0.001000X0.001000*%
%LNPASTEMASK1*%
G90*
G70*
G54D10*
X3052Y1117D03*
X3102Y1117D03*
X3152Y1117D03*
X3202Y1117D03*
X3252Y1117D03*
X3302Y1117D03*
X3352Y1117D03*
X3352Y1337D03*
X3302Y1337D03*
X3252Y1337D03*
X3202Y1337D03*
X3152Y1337D03*
X3102Y1337D03*
X3052Y1337D03*
X2502Y1117D03*
X2552Y1117D03*
X2602Y1117D03*
X2652Y1117D03*
X2702Y1117D03*
X2752Y1117D03*
X2802Y1117D03*
X2802Y1337D03*
X2752Y1337D03*
X2702Y1337D03*
X2652Y1337D03*
X2602Y1337D03*
X2552Y1337D03*
X2502Y1337D03*
G54D11*
X2677Y511D03*
X2677Y592D03*
X2277Y511D03*
X2277Y592D03*
X2677Y292D03*
X2677Y211D03*
X2277Y292D03*
X2277Y211D03*
X2577Y511D03*
X2577Y592D03*
X2177Y511D03*
X2177Y592D03*
X2577Y292D03*
X2577Y211D03*
X2177Y292D03*
X2177Y211D03*
X2377Y511D03*
X2377Y592D03*
X1977Y511D03*
X1977Y592D03*
X2377Y292D03*
X2377Y211D03*
X1977Y292D03*
X1977Y211D03*
X2477Y511D03*
X2477Y592D03*
X2077Y511D03*
X2077Y592D03*
X2477Y292D03*
X2477Y211D03*
X2077Y292D03*
X2077Y211D03*
G54D12*
D02*
G04 End of PasteMask1*
M02*