G04 MADE WITH FRITZING*
G04 WWW.FRITZING.ORG*
G04 DOUBLE SIDED*
G04 HOLES PLATED*
G04 CONTOUR ON CENTER OF CONTOUR VECTOR*
%ASAXBY*%
%FSLAX23Y23*%
%MOIN*%
%OFA0B0*%
%SFA1.0B1.0*%
%ADD10R,0.023622X0.047244*%
%ADD11R,0.059055X0.055118*%
%ADD12R,0.001000X0.001000*%
%LNPASTEMASK1*%
G90*
G70*
G54D10*
X3078Y1117D03*
X3128Y1117D03*
X3178Y1117D03*
X3228Y1117D03*
X3278Y1117D03*
X3328Y1117D03*
X3378Y1117D03*
X3378Y1337D03*
X3328Y1337D03*
X3278Y1337D03*
X3228Y1337D03*
X3178Y1337D03*
X3128Y1337D03*
X3078Y1337D03*
X2528Y1117D03*
X2578Y1117D03*
X2628Y1117D03*
X2678Y1117D03*
X2728Y1117D03*
X2778Y1117D03*
X2828Y1117D03*
X2828Y1337D03*
X2778Y1337D03*
X2728Y1337D03*
X2678Y1337D03*
X2628Y1337D03*
X2578Y1337D03*
X2528Y1337D03*
G54D11*
X2703Y511D03*
X2703Y592D03*
X2303Y511D03*
X2303Y592D03*
X2703Y292D03*
X2703Y211D03*
X2303Y292D03*
X2303Y211D03*
X2603Y511D03*
X2603Y592D03*
X2203Y511D03*
X2203Y592D03*
X2603Y292D03*
X2603Y211D03*
X2203Y292D03*
X2203Y211D03*
X2403Y511D03*
X2403Y592D03*
X2003Y511D03*
X2003Y592D03*
X2403Y211D03*
X2403Y292D03*
X2003Y292D03*
X2003Y211D03*
X2503Y511D03*
X2503Y592D03*
X2103Y511D03*
X2103Y592D03*
X2503Y292D03*
X2503Y211D03*
X2103Y292D03*
X2103Y211D03*
G54D12*
D02*
G04 End of PasteMask1*
M02*