; NON-PLATED HOLES START AT T1
; THROUGH (PLATED) HOLES START AT T100
M48
INCH
T100C0.038000
T101C0.038194
T102C0.015748
%
T100
X001277Y015166
X003277Y015166
X005277Y015166
X007277Y015166
X009277Y015166
X019277Y012166
X006277Y015166
X008277Y015166
X014277Y009166
X012277Y009166
X010277Y009166
X019277Y009166
X017277Y009166
X015277Y009166
X013277Y009166
X011277Y009166
X018277Y009166
X016277Y009166
X019277Y010166
X010277Y015166
X012277Y015166
X014277Y015166
X011277Y015166
X013277Y015166
X015277Y015166
X017277Y015166
X019277Y015166
X016277Y015166
X018277Y015166
X024277Y009166
X022277Y009166
X020277Y009166
X023277Y009166
X021277Y009166
X019277Y013166
X020277Y015166
X022277Y015166
X024277Y015166
X021277Y015166
X023277Y015166
X019277Y011166
X004277Y009166
X002277Y009166
X019277Y014166
X009277Y009166
X007277Y009166
X005277Y009166
X003277Y009166
X001277Y009166
X008277Y009166
X006277Y009166
X002277Y015166
X004277Y015166
T101
X030027Y019916
X032027Y000916
X012427Y019916
X038027Y018916
X038027Y002916
X017027Y000916
X037027Y013916
X024027Y019916
X026027Y000916
X038027Y017916
X033027Y019916
X015427Y019916
X037027Y009916
X035027Y000916
X037027Y012916
X018027Y019916
X029027Y000916
X038027Y016916
X027027Y019916
X009427Y019916
X037027Y008916
X037027Y011916
X012027Y000916
X021027Y000916
X038027Y015916
X037027Y007916
X010427Y019916
X030027Y000916
X037027Y010916
X015027Y000916
X022027Y019916
X038027Y014916
X024027Y000916
X037027Y006916
X031027Y019916
X013427Y019916
X033027Y000916
X038027Y013916
X018027Y000916
X037027Y005916
X025027Y019916
X007427Y019916
X027027Y000916
X034027Y019916
X038027Y009916
X016427Y019916
X036027Y000916
X038027Y012916
X037027Y004916
X019027Y019916
X028027Y019916
X038027Y008916
X037027Y019916
X038027Y011916
X013027Y000916
X037027Y003916
X020027Y019916
X022027Y000916
X038027Y007916
X011427Y019916
X031027Y000916
X037027Y018916
X038027Y010916
X037027Y002916
X016027Y000916
X023027Y019916
X038027Y006916
X025027Y000916
X032027Y019916
X037027Y017916
X034027Y000916
X014427Y019916
X038027Y005916
X008427Y019916
X037027Y016916
X011027Y000916
X038027Y004916
X020027Y000916
X037027Y015916
X029027Y019916
X038027Y019916
X014027Y000916
X038027Y003916
X021027Y019916
X023027Y000916
X037027Y014916
T102
X014777Y001666
X017527Y004666
X019027Y000916
X009527Y003416
X009527Y001166
X026527Y004166
X020277Y010666
X038777Y001166
X024527Y004166
X031027Y004666
X018277Y004666
X023527Y004166
X014777Y004166
X014777Y003666
X020527Y004166
X035527Y011166
X016527Y000416
X030777Y007666
X032277Y008666
X032277Y012666
X014777Y003166
X037277Y001166
X025527Y004166
X028777Y012416
X014777Y002666
X019527Y004166
X022527Y004166
X028527Y008666
X030777Y009666
X021527Y004166
X014777Y005166
X014777Y002166
X014777Y004666
T00
M30
