G04 #@! TF.GenerationSoftware,KiCad,Pcbnew,(5.1.6-0-10_14)*
G04 #@! TF.CreationDate,2021-02-23T10:58:49+00:00*
G04 #@! TF.ProjectId,VR-Conditioner-MAX9926+reg,56522d43-6f6e-4646-9974-696f6e65722d,0.4*
G04 #@! TF.SameCoordinates,PX68c4118PY713e7a8*
G04 #@! TF.FileFunction,Legend,Top*
G04 #@! TF.FilePolarity,Positive*
%FSLAX46Y46*%
G04 Gerber Fmt 4.6, Leading zero omitted, Abs format (unit mm)*
G04 Created by KiCad (PCBNEW (5.1.6-0-10_14)) date 2021-02-23 10:58:49*
%MOMM*%
%LPD*%
G01*
G04 APERTURE LIST*
%ADD10C,0.150000*%
%ADD11C,0.120000*%
%ADD12C,0.152400*%
G04 APERTURE END LIST*
D10*
X5393333Y1202143D02*
X5926666Y1202143D01*
X5660000Y973572D02*
X5660000Y1430715D01*
X6260000Y973572D02*
X6260000Y1573572D01*
X6593333Y973572D02*
X6593333Y1573572D01*
X6993333Y973572D01*
X6993333Y1573572D01*
X8226666Y1545000D02*
X8160000Y1573572D01*
X8060000Y1573572D01*
X7960000Y1545000D01*
X7893333Y1487858D01*
X7860000Y1430715D01*
X7826666Y1316429D01*
X7826666Y1230715D01*
X7860000Y1116429D01*
X7893333Y1059286D01*
X7960000Y1002143D01*
X8060000Y973572D01*
X8126666Y973572D01*
X8226666Y1002143D01*
X8260000Y1030715D01*
X8260000Y1230715D01*
X8126666Y1230715D01*
X8560000Y973572D02*
X8560000Y1573572D01*
X8960000Y973572D01*
X8960000Y1573572D01*
X9293333Y973572D02*
X9293333Y1573572D01*
X9460000Y1573572D01*
X9560000Y1545000D01*
X9626666Y1487858D01*
X9660000Y1430715D01*
X9693333Y1316429D01*
X9693333Y1230715D01*
X9660000Y1116429D01*
X9626666Y1059286D01*
X9560000Y1002143D01*
X9460000Y973572D01*
X9293333Y973572D01*
X10926666Y1030715D02*
X10893333Y1002143D01*
X10793333Y973572D01*
X10726666Y973572D01*
X10626666Y1002143D01*
X10560000Y1059286D01*
X10526666Y1116429D01*
X10493333Y1230715D01*
X10493333Y1316429D01*
X10526666Y1430715D01*
X10560000Y1487858D01*
X10626666Y1545000D01*
X10726666Y1573572D01*
X10793333Y1573572D01*
X10893333Y1545000D01*
X10926666Y1516429D01*
X11360000Y1573572D02*
X11493333Y1573572D01*
X11560000Y1545000D01*
X11626666Y1487858D01*
X11660000Y1373572D01*
X11660000Y1173572D01*
X11626666Y1059286D01*
X11560000Y1002143D01*
X11493333Y973572D01*
X11360000Y973572D01*
X11293333Y1002143D01*
X11226666Y1059286D01*
X11193333Y1173572D01*
X11193333Y1373572D01*
X11226666Y1487858D01*
X11293333Y1545000D01*
X11360000Y1573572D01*
X11926666Y1516429D02*
X11960000Y1545000D01*
X12026666Y1573572D01*
X12193333Y1573572D01*
X12260000Y1545000D01*
X12293333Y1516429D01*
X12326666Y1459286D01*
X12326666Y1402143D01*
X12293333Y1316429D01*
X11893333Y973572D01*
X12326666Y973572D01*
X13560000Y1030715D02*
X13526666Y1002143D01*
X13426666Y973572D01*
X13360000Y973572D01*
X13260000Y1002143D01*
X13193333Y1059286D01*
X13160000Y1116429D01*
X13126666Y1230715D01*
X13126666Y1316429D01*
X13160000Y1430715D01*
X13193333Y1487858D01*
X13260000Y1545000D01*
X13360000Y1573572D01*
X13426666Y1573572D01*
X13526666Y1545000D01*
X13560000Y1516429D01*
X13993333Y1573572D02*
X14126666Y1573572D01*
X14193333Y1545000D01*
X14260000Y1487858D01*
X14293333Y1373572D01*
X14293333Y1173572D01*
X14260000Y1059286D01*
X14193333Y1002143D01*
X14126666Y973572D01*
X13993333Y973572D01*
X13926666Y1002143D01*
X13860000Y1059286D01*
X13826666Y1173572D01*
X13826666Y1373572D01*
X13860000Y1487858D01*
X13926666Y1545000D01*
X13993333Y1573572D01*
X14960000Y973572D02*
X14560000Y973572D01*
X14760000Y973572D02*
X14760000Y1573572D01*
X14693333Y1487858D01*
X14626666Y1430715D01*
X14560000Y1402143D01*
X1228333Y16328334D02*
X1628333Y16328334D01*
X1428333Y15628334D02*
X1428333Y16328334D01*
X1995000Y16328334D02*
X2128333Y16328334D01*
X2195000Y16295000D01*
X2261666Y16228334D01*
X2295000Y16095000D01*
X2295000Y15861667D01*
X2261666Y15728334D01*
X2195000Y15661667D01*
X2128333Y15628334D01*
X1995000Y15628334D01*
X1928333Y15661667D01*
X1861666Y15728334D01*
X1828333Y15861667D01*
X1828333Y16095000D01*
X1861666Y16228334D01*
X1928333Y16295000D01*
X1995000Y16328334D01*
X2595000Y15628334D02*
X2595000Y16328334D01*
X2861666Y16328334D01*
X2928333Y16295000D01*
X2961666Y16261667D01*
X2995000Y16195000D01*
X2995000Y16095000D01*
X2961666Y16028334D01*
X2928333Y15995000D01*
X2861666Y15961667D01*
X2595000Y15961667D01*
X2986009Y2745249D02*
X3052676Y2745249D01*
X3119343Y2711915D01*
X3152676Y2678582D01*
X3186009Y2611915D01*
X3219343Y2478582D01*
X3219343Y2311915D01*
X3186009Y2178582D01*
X3152676Y2111915D01*
X3119343Y2078582D01*
X3052676Y2045249D01*
X2986009Y2045249D01*
X2919343Y2078582D01*
X2886009Y2111915D01*
X2852676Y2178582D01*
X2819343Y2311915D01*
X2819343Y2478582D01*
X2852676Y2611915D01*
X2886009Y2678582D01*
X2919343Y2711915D01*
X2986009Y2745249D01*
X3519343Y2111915D02*
X3552676Y2078582D01*
X3519343Y2045249D01*
X3486009Y2078582D01*
X3519343Y2111915D01*
X3519343Y2045249D01*
X4152676Y2511915D02*
X4152676Y2045249D01*
X3986009Y2778582D02*
X3819343Y2278582D01*
X4252676Y2278582D01*
X2063629Y3071648D02*
X1830296Y3404981D01*
X1663629Y3071648D02*
X1663629Y3771648D01*
X1930296Y3771648D01*
X1996962Y3738314D01*
X2030296Y3704981D01*
X2063629Y3638314D01*
X2063629Y3538314D01*
X2030296Y3471648D01*
X1996962Y3438314D01*
X1930296Y3404981D01*
X1663629Y3404981D01*
X2630296Y3104981D02*
X2563629Y3071648D01*
X2430296Y3071648D01*
X2363629Y3104981D01*
X2330296Y3171648D01*
X2330296Y3438314D01*
X2363629Y3504981D01*
X2430296Y3538314D01*
X2563629Y3538314D01*
X2630296Y3504981D01*
X2663629Y3438314D01*
X2663629Y3371648D01*
X2330296Y3304981D01*
X2896962Y3538314D02*
X3063629Y3071648D01*
X3230296Y3538314D01*
X3496962Y3138314D02*
X3530296Y3104981D01*
X3496962Y3071648D01*
X3463629Y3104981D01*
X3496962Y3138314D01*
X3496962Y3071648D01*
X11970000Y16516429D02*
X11970000Y15983096D01*
X11779523Y16821191D02*
X11589047Y16249762D01*
X12084285Y16249762D01*
X12389047Y15983096D02*
X12389047Y16783096D01*
X12465238Y16287858D02*
X12693809Y15983096D01*
X12693809Y16516429D02*
X12389047Y16211667D01*
X12960476Y16783096D02*
X13493809Y16783096D01*
X13150952Y15983096D01*
X14941428Y16783096D02*
X15436666Y16783096D01*
X15170000Y16478334D01*
X15284285Y16478334D01*
X15360476Y16440239D01*
X15398571Y16402143D01*
X15436666Y16325953D01*
X15436666Y16135477D01*
X15398571Y16059286D01*
X15360476Y16021191D01*
X15284285Y15983096D01*
X15055714Y15983096D01*
X14979523Y16021191D01*
X14941428Y16059286D01*
X15703333Y16783096D02*
X15893809Y15983096D01*
X16046190Y16554524D01*
X16198571Y15983096D01*
X16389047Y16783096D01*
X8795000Y19296429D02*
X8795000Y18763096D01*
X8604523Y19601191D02*
X8414047Y19029762D01*
X8909285Y19029762D01*
X9214047Y18763096D02*
X9214047Y19563096D01*
X9290238Y19067858D02*
X9518809Y18763096D01*
X9518809Y19296429D02*
X9214047Y18991667D01*
X9785476Y19563096D02*
X10318809Y19563096D01*
X9975952Y18763096D01*
X11766428Y19563096D02*
X12261666Y19563096D01*
X11995000Y19258334D01*
X12109285Y19258334D01*
X12185476Y19220239D01*
X12223571Y19182143D01*
X12261666Y19105953D01*
X12261666Y18915477D01*
X12223571Y18839286D01*
X12185476Y18801191D01*
X12109285Y18763096D01*
X11880714Y18763096D01*
X11804523Y18801191D01*
X11766428Y18839286D01*
X12528333Y19563096D02*
X12718809Y18763096D01*
X12871190Y19334524D01*
X13023571Y18763096D01*
X13214047Y19563096D01*
D11*
G04 #@! TO.C,C20*
X3337779Y7495000D02*
X3012221Y7495000D01*
X3337779Y6475000D02*
X3012221Y6475000D01*
G04 #@! TO.C,C10*
X3012221Y12190000D02*
X3337779Y12190000D01*
X3012221Y13210000D02*
X3337779Y13210000D01*
G04 #@! TO.C,C4*
X8933922Y5885000D02*
X9451078Y5885000D01*
X8933922Y7305000D02*
X9451078Y7305000D01*
G04 #@! TO.C,C3*
X17307779Y11305000D02*
X16982221Y11305000D01*
X17307779Y10285000D02*
X16982221Y10285000D01*
G04 #@! TO.C,C2*
X17307779Y9400000D02*
X16982221Y9400000D01*
X17307779Y8380000D02*
X16982221Y8380000D01*
G04 #@! TO.C,C1*
X17307779Y7495000D02*
X16982221Y7495000D01*
X17307779Y6475000D02*
X16982221Y6475000D01*
G04 #@! TO.C,R22*
X3003733Y9400000D02*
X3346267Y9400000D01*
X3003733Y8380000D02*
X3346267Y8380000D01*
G04 #@! TO.C,R23*
X10700000Y18185000D02*
X10700000Y18515000D01*
X10700000Y18515000D02*
X17240000Y18515000D01*
X17240000Y18515000D02*
X17240000Y18185000D01*
X10700000Y16105000D02*
X10700000Y15775000D01*
X10700000Y15775000D02*
X17240000Y15775000D01*
X17240000Y15775000D02*
X17240000Y16105000D01*
G04 #@! TO.C,R13*
X7525000Y19455000D02*
X7525000Y19785000D01*
X7525000Y19785000D02*
X14065000Y19785000D01*
X14065000Y19785000D02*
X14065000Y19455000D01*
X7525000Y17375000D02*
X7525000Y17045000D01*
X7525000Y17045000D02*
X14065000Y17045000D01*
X14065000Y17045000D02*
X14065000Y17375000D01*
D12*
G04 #@! TO.C,U1*
X7543800Y13171055D02*
X7543800Y9688945D01*
X12776200Y9688945D02*
X12776200Y13171055D01*
X8763000Y7473201D02*
X8382000Y7473201D01*
X8382000Y7473201D02*
X8382000Y7727201D01*
X8382000Y7727201D02*
X8763000Y7727201D01*
X8763000Y7727201D02*
X8763000Y7473201D01*
D11*
G04 #@! TO.C,R21*
X3346267Y4570000D02*
X3003733Y4570000D01*
X3346267Y5590000D02*
X3003733Y5590000D01*
G04 #@! TO.C,R20*
X17316267Y12190000D02*
X16973733Y12190000D01*
X17316267Y13210000D02*
X16973733Y13210000D01*
G04 #@! TO.C,R12*
X3003733Y15115000D02*
X3346267Y15115000D01*
X3003733Y14095000D02*
X3346267Y14095000D01*
G04 #@! TO.C,R11*
X3003733Y11305000D02*
X3346267Y11305000D01*
X3003733Y10285000D02*
X3346267Y10285000D01*
G04 #@! TO.C,R10*
X17316267Y14095000D02*
X16973733Y14095000D01*
X17316267Y15115000D02*
X16973733Y15115000D01*
G04 #@! TO.C,J1*
X9160000Y15935000D02*
X7510000Y15935000D01*
X7510000Y15935000D02*
X7510000Y5655000D01*
X7510000Y5655000D02*
X12810000Y5655000D01*
X12810000Y5655000D02*
X12810000Y15935000D01*
X12810000Y15935000D02*
X11160000Y15935000D01*
X11160000Y15935000D02*
G75*
G02*
X9160000Y15935000I-1000000J0D01*
G01*
G04 #@! TO.C,C20*
D10*
X-1912858Y6627858D02*
X-1960477Y6580239D01*
X-2103334Y6532620D01*
X-2198572Y6532620D01*
X-2341429Y6580239D01*
X-2436667Y6675477D01*
X-2484286Y6770715D01*
X-2531905Y6961191D01*
X-2531905Y7104048D01*
X-2484286Y7294524D01*
X-2436667Y7389762D01*
X-2341429Y7485000D01*
X-2198572Y7532620D01*
X-2103334Y7532620D01*
X-1960477Y7485000D01*
X-1912858Y7437381D01*
X-1531905Y7437381D02*
X-1484286Y7485000D01*
X-1389048Y7532620D01*
X-1150953Y7532620D01*
X-1055715Y7485000D01*
X-1008096Y7437381D01*
X-960477Y7342143D01*
X-960477Y7246905D01*
X-1008096Y7104048D01*
X-1579524Y6532620D01*
X-960477Y6532620D01*
X-341429Y7532620D02*
X-246191Y7532620D01*
X-150953Y7485000D01*
X-103334Y7437381D01*
X-55715Y7342143D01*
X-8096Y7151667D01*
X-8096Y6913572D01*
X-55715Y6723096D01*
X-103334Y6627858D01*
X-150953Y6580239D01*
X-246191Y6532620D01*
X-341429Y6532620D01*
X-436667Y6580239D01*
X-484286Y6627858D01*
X-531905Y6723096D01*
X-579524Y6913572D01*
X-579524Y7151667D01*
X-531905Y7342143D01*
X-484286Y7437381D01*
X-436667Y7485000D01*
X-341429Y7532620D01*
G04 #@! TO.C,C10*
X-1912858Y12342858D02*
X-1960477Y12295239D01*
X-2103334Y12247620D01*
X-2198572Y12247620D01*
X-2341429Y12295239D01*
X-2436667Y12390477D01*
X-2484286Y12485715D01*
X-2531905Y12676191D01*
X-2531905Y12819048D01*
X-2484286Y13009524D01*
X-2436667Y13104762D01*
X-2341429Y13200000D01*
X-2198572Y13247620D01*
X-2103334Y13247620D01*
X-1960477Y13200000D01*
X-1912858Y13152381D01*
X-960477Y12247620D02*
X-1531905Y12247620D01*
X-1246191Y12247620D02*
X-1246191Y13247620D01*
X-1341429Y13104762D01*
X-1436667Y13009524D01*
X-1531905Y12961905D01*
X-341429Y13247620D02*
X-246191Y13247620D01*
X-150953Y13200000D01*
X-103334Y13152381D01*
X-55715Y13057143D01*
X-8096Y12866667D01*
X-8096Y12628572D01*
X-55715Y12438096D01*
X-103334Y12342858D01*
X-150953Y12295239D01*
X-246191Y12247620D01*
X-341429Y12247620D01*
X-436667Y12295239D01*
X-484286Y12342858D01*
X-531905Y12438096D01*
X-579524Y12628572D01*
X-579524Y12866667D01*
X-531905Y13057143D01*
X-484286Y13152381D01*
X-436667Y13200000D01*
X-341429Y13247620D01*
G04 #@! TO.C,C4*
X9025833Y7887858D02*
X8978214Y7840239D01*
X8835357Y7792620D01*
X8740119Y7792620D01*
X8597261Y7840239D01*
X8502023Y7935477D01*
X8454404Y8030715D01*
X8406785Y8221191D01*
X8406785Y8364048D01*
X8454404Y8554524D01*
X8502023Y8649762D01*
X8597261Y8745000D01*
X8740119Y8792620D01*
X8835357Y8792620D01*
X8978214Y8745000D01*
X9025833Y8697381D01*
X9882976Y8459286D02*
X9882976Y7792620D01*
X9644880Y8840239D02*
X9406785Y8125953D01*
X10025833Y8125953D01*
G04 #@! TO.C,C3*
X20788333Y10437858D02*
X20740714Y10390239D01*
X20597857Y10342620D01*
X20502619Y10342620D01*
X20359761Y10390239D01*
X20264523Y10485477D01*
X20216904Y10580715D01*
X20169285Y10771191D01*
X20169285Y10914048D01*
X20216904Y11104524D01*
X20264523Y11199762D01*
X20359761Y11295000D01*
X20502619Y11342620D01*
X20597857Y11342620D01*
X20740714Y11295000D01*
X20788333Y11247381D01*
X21121666Y11342620D02*
X21740714Y11342620D01*
X21407380Y10961667D01*
X21550238Y10961667D01*
X21645476Y10914048D01*
X21693095Y10866429D01*
X21740714Y10771191D01*
X21740714Y10533096D01*
X21693095Y10437858D01*
X21645476Y10390239D01*
X21550238Y10342620D01*
X21264523Y10342620D01*
X21169285Y10390239D01*
X21121666Y10437858D01*
G04 #@! TO.C,C2*
X20788333Y8532858D02*
X20740714Y8485239D01*
X20597857Y8437620D01*
X20502619Y8437620D01*
X20359761Y8485239D01*
X20264523Y8580477D01*
X20216904Y8675715D01*
X20169285Y8866191D01*
X20169285Y9009048D01*
X20216904Y9199524D01*
X20264523Y9294762D01*
X20359761Y9390000D01*
X20502619Y9437620D01*
X20597857Y9437620D01*
X20740714Y9390000D01*
X20788333Y9342381D01*
X21169285Y9342381D02*
X21216904Y9390000D01*
X21312142Y9437620D01*
X21550238Y9437620D01*
X21645476Y9390000D01*
X21693095Y9342381D01*
X21740714Y9247143D01*
X21740714Y9151905D01*
X21693095Y9009048D01*
X21121666Y8437620D01*
X21740714Y8437620D01*
G04 #@! TO.C,C1*
X20788333Y6627858D02*
X20740714Y6580239D01*
X20597857Y6532620D01*
X20502619Y6532620D01*
X20359761Y6580239D01*
X20264523Y6675477D01*
X20216904Y6770715D01*
X20169285Y6961191D01*
X20169285Y7104048D01*
X20216904Y7294524D01*
X20264523Y7389762D01*
X20359761Y7485000D01*
X20502619Y7532620D01*
X20597857Y7532620D01*
X20740714Y7485000D01*
X20788333Y7437381D01*
X21740714Y6532620D02*
X21169285Y6532620D01*
X21455000Y6532620D02*
X21455000Y7532620D01*
X21359761Y7389762D01*
X21264523Y7294524D01*
X21169285Y7246905D01*
G04 #@! TO.C,*
G04 #@! TO.C,H2*
X-1396905Y17327620D02*
X-1396905Y18327620D01*
X-1396905Y17851429D02*
X-825477Y17851429D01*
X-825477Y17327620D02*
X-825477Y18327620D01*
X-396905Y18232381D02*
X-349286Y18280000D01*
X-254048Y18327620D01*
X-15953Y18327620D01*
X79285Y18280000D01*
X126904Y18232381D01*
X174523Y18137143D01*
X174523Y18041905D01*
X126904Y17899048D01*
X-444524Y17327620D01*
X174523Y17327620D01*
G04 #@! TO.C,H1*
X20193095Y2722620D02*
X20193095Y3722620D01*
X20193095Y3246429D02*
X20764523Y3246429D01*
X20764523Y2722620D02*
X20764523Y3722620D01*
X21764523Y2722620D02*
X21193095Y2722620D01*
X21478809Y2722620D02*
X21478809Y3722620D01*
X21383571Y3579762D01*
X21288333Y3484524D01*
X21193095Y3436905D01*
G04 #@! TO.C,R22*
X-1912858Y8437620D02*
X-2246191Y8913810D01*
X-2484286Y8437620D02*
X-2484286Y9437620D01*
X-2103334Y9437620D01*
X-2008096Y9390000D01*
X-1960477Y9342381D01*
X-1912858Y9247143D01*
X-1912858Y9104286D01*
X-1960477Y9009048D01*
X-2008096Y8961429D01*
X-2103334Y8913810D01*
X-2484286Y8913810D01*
X-1531905Y9342381D02*
X-1484286Y9390000D01*
X-1389048Y9437620D01*
X-1150953Y9437620D01*
X-1055715Y9390000D01*
X-1008096Y9342381D01*
X-960477Y9247143D01*
X-960477Y9151905D01*
X-1008096Y9009048D01*
X-1579524Y8437620D01*
X-960477Y8437620D01*
X-579524Y9342381D02*
X-531905Y9390000D01*
X-436667Y9437620D01*
X-198572Y9437620D01*
X-103334Y9390000D01*
X-55715Y9342381D01*
X-8096Y9247143D01*
X-8096Y9151905D01*
X-55715Y9009048D01*
X-627143Y8437620D01*
X-8096Y8437620D01*
G04 #@! TO.C,R23*
X16060000Y18733334D02*
X15826666Y19066667D01*
X15660000Y18733334D02*
X15660000Y19433334D01*
X15926666Y19433334D01*
X15993333Y19400000D01*
X16026666Y19366667D01*
X16060000Y19300000D01*
X16060000Y19200000D01*
X16026666Y19133334D01*
X15993333Y19100000D01*
X15926666Y19066667D01*
X15660000Y19066667D01*
X16326666Y19366667D02*
X16360000Y19400000D01*
X16426666Y19433334D01*
X16593333Y19433334D01*
X16660000Y19400000D01*
X16693333Y19366667D01*
X16726666Y19300000D01*
X16726666Y19233334D01*
X16693333Y19133334D01*
X16293333Y18733334D01*
X16726666Y18733334D01*
X16960000Y19433334D02*
X17393333Y19433334D01*
X17160000Y19166667D01*
X17260000Y19166667D01*
X17326666Y19133334D01*
X17360000Y19100000D01*
X17393333Y19033334D01*
X17393333Y18866667D01*
X17360000Y18800000D01*
X17326666Y18766667D01*
X17260000Y18733334D01*
X17060000Y18733334D01*
X16993333Y18766667D01*
X16960000Y18800000D01*
G04 #@! TO.C,R13*
X4967282Y19048803D02*
X4733948Y19382136D01*
X4567282Y19048803D02*
X4567282Y19748803D01*
X4833948Y19748803D01*
X4900615Y19715469D01*
X4933948Y19682136D01*
X4967282Y19615469D01*
X4967282Y19515469D01*
X4933948Y19448803D01*
X4900615Y19415469D01*
X4833948Y19382136D01*
X4567282Y19382136D01*
X5633948Y19048803D02*
X5233948Y19048803D01*
X5433948Y19048803D02*
X5433948Y19748803D01*
X5367282Y19648803D01*
X5300615Y19582136D01*
X5233948Y19548803D01*
X5867282Y19748803D02*
X6300615Y19748803D01*
X6067282Y19482136D01*
X6167282Y19482136D01*
X6233948Y19448803D01*
X6267282Y19415469D01*
X6300615Y19348803D01*
X6300615Y19182136D01*
X6267282Y19115469D01*
X6233948Y19082136D01*
X6167282Y19048803D01*
X5967282Y19048803D01*
X5900615Y19082136D01*
X5867282Y19115469D01*
G04 #@! TO.C,U1*
X7721666Y16893334D02*
X7721666Y16326667D01*
X7755000Y16260000D01*
X7788333Y16226667D01*
X7855000Y16193334D01*
X7988333Y16193334D01*
X8055000Y16226667D01*
X8088333Y16260000D01*
X8121666Y16326667D01*
X8121666Y16893334D01*
X8821666Y16193334D02*
X8421666Y16193334D01*
X8621666Y16193334D02*
X8621666Y16893334D01*
X8555000Y16793334D01*
X8488333Y16726667D01*
X8421666Y16693334D01*
X12152380Y15875000D02*
X12390476Y15875000D01*
X12295238Y15636905D02*
X12390476Y15875000D01*
X12295238Y16113096D01*
X12580952Y15732143D02*
X12390476Y15875000D01*
X12580952Y16017858D01*
X12152380Y15875000D02*
X12390476Y15875000D01*
X12295238Y15636905D02*
X12390476Y15875000D01*
X12295238Y16113096D01*
X12580952Y15732143D02*
X12390476Y15875000D01*
X12580952Y16017858D01*
G04 #@! TO.C,R21*
X-1912858Y4627620D02*
X-2246191Y5103810D01*
X-2484286Y4627620D02*
X-2484286Y5627620D01*
X-2103334Y5627620D01*
X-2008096Y5580000D01*
X-1960477Y5532381D01*
X-1912858Y5437143D01*
X-1912858Y5294286D01*
X-1960477Y5199048D01*
X-2008096Y5151429D01*
X-2103334Y5103810D01*
X-2484286Y5103810D01*
X-1531905Y5532381D02*
X-1484286Y5580000D01*
X-1389048Y5627620D01*
X-1150953Y5627620D01*
X-1055715Y5580000D01*
X-1008096Y5532381D01*
X-960477Y5437143D01*
X-960477Y5341905D01*
X-1008096Y5199048D01*
X-1579524Y4627620D01*
X-960477Y4627620D01*
X-8096Y4627620D02*
X-579524Y4627620D01*
X-293810Y4627620D02*
X-293810Y5627620D01*
X-389048Y5484762D01*
X-484286Y5389524D01*
X-579524Y5341905D01*
G04 #@! TO.C,R20*
X20947142Y12247620D02*
X20613809Y12723810D01*
X20375714Y12247620D02*
X20375714Y13247620D01*
X20756666Y13247620D01*
X20851904Y13200000D01*
X20899523Y13152381D01*
X20947142Y13057143D01*
X20947142Y12914286D01*
X20899523Y12819048D01*
X20851904Y12771429D01*
X20756666Y12723810D01*
X20375714Y12723810D01*
X21328095Y13152381D02*
X21375714Y13200000D01*
X21470952Y13247620D01*
X21709047Y13247620D01*
X21804285Y13200000D01*
X21851904Y13152381D01*
X21899523Y13057143D01*
X21899523Y12961905D01*
X21851904Y12819048D01*
X21280476Y12247620D01*
X21899523Y12247620D01*
X22518571Y13247620D02*
X22613809Y13247620D01*
X22709047Y13200000D01*
X22756666Y13152381D01*
X22804285Y13057143D01*
X22851904Y12866667D01*
X22851904Y12628572D01*
X22804285Y12438096D01*
X22756666Y12342858D01*
X22709047Y12295239D01*
X22613809Y12247620D01*
X22518571Y12247620D01*
X22423333Y12295239D01*
X22375714Y12342858D01*
X22328095Y12438096D01*
X22280476Y12628572D01*
X22280476Y12866667D01*
X22328095Y13057143D01*
X22375714Y13152381D01*
X22423333Y13200000D01*
X22518571Y13247620D01*
G04 #@! TO.C,R12*
X-1912858Y14152620D02*
X-2246191Y14628810D01*
X-2484286Y14152620D02*
X-2484286Y15152620D01*
X-2103334Y15152620D01*
X-2008096Y15105000D01*
X-1960477Y15057381D01*
X-1912858Y14962143D01*
X-1912858Y14819286D01*
X-1960477Y14724048D01*
X-2008096Y14676429D01*
X-2103334Y14628810D01*
X-2484286Y14628810D01*
X-960477Y14152620D02*
X-1531905Y14152620D01*
X-1246191Y14152620D02*
X-1246191Y15152620D01*
X-1341429Y15009762D01*
X-1436667Y14914524D01*
X-1531905Y14866905D01*
X-579524Y15057381D02*
X-531905Y15105000D01*
X-436667Y15152620D01*
X-198572Y15152620D01*
X-103334Y15105000D01*
X-55715Y15057381D01*
X-8096Y14962143D01*
X-8096Y14866905D01*
X-55715Y14724048D01*
X-627143Y14152620D01*
X-8096Y14152620D01*
G04 #@! TO.C,R11*
X-1912858Y10342620D02*
X-2246191Y10818810D01*
X-2484286Y10342620D02*
X-2484286Y11342620D01*
X-2103334Y11342620D01*
X-2008096Y11295000D01*
X-1960477Y11247381D01*
X-1912858Y11152143D01*
X-1912858Y11009286D01*
X-1960477Y10914048D01*
X-2008096Y10866429D01*
X-2103334Y10818810D01*
X-2484286Y10818810D01*
X-960477Y10342620D02*
X-1531905Y10342620D01*
X-1246191Y10342620D02*
X-1246191Y11342620D01*
X-1341429Y11199762D01*
X-1436667Y11104524D01*
X-1531905Y11056905D01*
X-8096Y10342620D02*
X-579524Y10342620D01*
X-293810Y10342620D02*
X-293810Y11342620D01*
X-389048Y11199762D01*
X-484286Y11104524D01*
X-579524Y11056905D01*
G04 #@! TO.C,R10*
X20947142Y14152620D02*
X20613809Y14628810D01*
X20375714Y14152620D02*
X20375714Y15152620D01*
X20756666Y15152620D01*
X20851904Y15105000D01*
X20899523Y15057381D01*
X20947142Y14962143D01*
X20947142Y14819286D01*
X20899523Y14724048D01*
X20851904Y14676429D01*
X20756666Y14628810D01*
X20375714Y14628810D01*
X21899523Y14152620D02*
X21328095Y14152620D01*
X21613809Y14152620D02*
X21613809Y15152620D01*
X21518571Y15009762D01*
X21423333Y14914524D01*
X21328095Y14866905D01*
X22518571Y15152620D02*
X22613809Y15152620D01*
X22709047Y15105000D01*
X22756666Y15057381D01*
X22804285Y14962143D01*
X22851904Y14771667D01*
X22851904Y14533572D01*
X22804285Y14343096D01*
X22756666Y14247858D01*
X22709047Y14200239D01*
X22613809Y14152620D01*
X22518571Y14152620D01*
X22423333Y14200239D01*
X22375714Y14247858D01*
X22328095Y14343096D01*
X22280476Y14533572D01*
X22280476Y14771667D01*
X22328095Y14962143D01*
X22375714Y15057381D01*
X22423333Y15105000D01*
X22518571Y15152620D01*
G04 #@! TO.C,J1*
X5481666Y16628334D02*
X5481666Y16128334D01*
X5448333Y16028334D01*
X5381666Y15961667D01*
X5281666Y15928334D01*
X5215000Y15928334D01*
X6181666Y15928334D02*
X5781666Y15928334D01*
X5981666Y15928334D02*
X5981666Y16628334D01*
X5915000Y16528334D01*
X5848333Y16461667D01*
X5781666Y16428334D01*
G04 #@! TO.C,FID2*
X20312142Y19092858D02*
X20112142Y19092858D01*
X20112142Y18778572D02*
X20112142Y19378572D01*
X20397857Y19378572D01*
X20626428Y18778572D02*
X20626428Y19378572D01*
X20912142Y18778572D02*
X20912142Y19378572D01*
X21055000Y19378572D01*
X21140714Y19350000D01*
X21197857Y19292858D01*
X21226428Y19235715D01*
X21255000Y19121429D01*
X21255000Y19035715D01*
X21226428Y18921429D01*
X21197857Y18864286D01*
X21140714Y18807143D01*
X21055000Y18778572D01*
X20912142Y18778572D01*
X21483571Y19321429D02*
X21512142Y19350000D01*
X21569285Y19378572D01*
X21712142Y19378572D01*
X21769285Y19350000D01*
X21797857Y19321429D01*
X21826428Y19264286D01*
X21826428Y19207143D01*
X21797857Y19121429D01*
X21455000Y18778572D01*
X21826428Y18778572D01*
G04 #@! TO.C,FID1*
X-1277858Y1947858D02*
X-1477858Y1947858D01*
X-1477858Y1633572D02*
X-1477858Y2233572D01*
X-1192143Y2233572D01*
X-963572Y1633572D02*
X-963572Y2233572D01*
X-677858Y1633572D02*
X-677858Y2233572D01*
X-535000Y2233572D01*
X-449286Y2205000D01*
X-392143Y2147858D01*
X-363572Y2090715D01*
X-335000Y1976429D01*
X-335000Y1890715D01*
X-363572Y1776429D01*
X-392143Y1719286D01*
X-449286Y1662143D01*
X-535000Y1633572D01*
X-677858Y1633572D01*
X236428Y1633572D02*
X-106429Y1633572D01*
X65000Y1633572D02*
X65000Y2233572D01*
X7857Y2147858D01*
X-49286Y2090715D01*
X-106429Y2062143D01*
G04 #@! TD*
M02*
