G04 #@! TF.GenerationSoftware,KiCad,Pcbnew,(5.1.6-0-10_14)*
G04 #@! TF.CreationDate,2021-02-23T10:58:49+00:00*
G04 #@! TF.ProjectId,VR-Conditioner-MAX9926+reg,56522d43-6f6e-4646-9974-696f6e65722d,0.4*
G04 #@! TF.SameCoordinates,PX68c4118PY713e7a8*
G04 #@! TF.FileFunction,Soldermask,Top*
G04 #@! TF.FilePolarity,Negative*
%FSLAX46Y46*%
G04 Gerber Fmt 4.6, Leading zero omitted, Abs format (unit mm)*
G04 Created by KiCad (PCBNEW (5.1.6-0-10_14)) date 2021-02-23 10:58:49*
%MOMM*%
%LPD*%
G01*
G04 APERTURE LIST*
%ADD10O,1.801600X1.801600*%
%ADD11R,1.801600X1.801600*%
%ADD12R,1.601600X1.601600*%
%ADD13C,1.601600*%
%ADD14C,2.301600*%
%ADD15O,1.701600X1.701600*%
%ADD16C,1.701600*%
%ADD17R,0.456400X1.556499*%
%ADD18R,1.701600X1.701600*%
%ADD19C,1.000000*%
G04 APERTURE END LIST*
G04 #@! TO.C,C20*
G36*
G01*
X2875800Y7266650D02*
X2875800Y6703350D01*
G75*
G02*
X2631650Y6459200I-244150J0D01*
G01*
X2143350Y6459200D01*
G75*
G02*
X1899200Y6703350I0J244150D01*
G01*
X1899200Y7266650D01*
G75*
G02*
X2143350Y7510800I244150J0D01*
G01*
X2631650Y7510800D01*
G75*
G02*
X2875800Y7266650I0J-244150D01*
G01*
G37*
G36*
G01*
X4450800Y7266650D02*
X4450800Y6703350D01*
G75*
G02*
X4206650Y6459200I-244150J0D01*
G01*
X3718350Y6459200D01*
G75*
G02*
X3474200Y6703350I0J244150D01*
G01*
X3474200Y7266650D01*
G75*
G02*
X3718350Y7510800I244150J0D01*
G01*
X4206650Y7510800D01*
G75*
G02*
X4450800Y7266650I0J-244150D01*
G01*
G37*
G04 #@! TD*
G04 #@! TO.C,C10*
G36*
G01*
X3474200Y12418350D02*
X3474200Y12981650D01*
G75*
G02*
X3718350Y13225800I244150J0D01*
G01*
X4206650Y13225800D01*
G75*
G02*
X4450800Y12981650I0J-244150D01*
G01*
X4450800Y12418350D01*
G75*
G02*
X4206650Y12174200I-244150J0D01*
G01*
X3718350Y12174200D01*
G75*
G02*
X3474200Y12418350I0J244150D01*
G01*
G37*
G36*
G01*
X1899200Y12418350D02*
X1899200Y12981650D01*
G75*
G02*
X2143350Y13225800I244150J0D01*
G01*
X2631650Y13225800D01*
G75*
G02*
X2875800Y12981650I0J-244150D01*
G01*
X2875800Y12418350D01*
G75*
G02*
X2631650Y12174200I-244150J0D01*
G01*
X2143350Y12174200D01*
G75*
G02*
X1899200Y12418350I0J244150D01*
G01*
G37*
G04 #@! TD*
G04 #@! TO.C,C4*
G36*
G01*
X9591700Y6113350D02*
X9591700Y7076650D01*
G75*
G02*
X9860850Y7345800I269150J0D01*
G01*
X10399150Y7345800D01*
G75*
G02*
X10668300Y7076650I0J-269150D01*
G01*
X10668300Y6113350D01*
G75*
G02*
X10399150Y5844200I-269150J0D01*
G01*
X9860850Y5844200D01*
G75*
G02*
X9591700Y6113350I0J269150D01*
G01*
G37*
G36*
G01*
X7716700Y6113350D02*
X7716700Y7076650D01*
G75*
G02*
X7985850Y7345800I269150J0D01*
G01*
X8524150Y7345800D01*
G75*
G02*
X8793300Y7076650I0J-269150D01*
G01*
X8793300Y6113350D01*
G75*
G02*
X8524150Y5844200I-269150J0D01*
G01*
X7985850Y5844200D01*
G75*
G02*
X7716700Y6113350I0J269150D01*
G01*
G37*
G04 #@! TD*
G04 #@! TO.C,C3*
G36*
G01*
X16845800Y11076650D02*
X16845800Y10513350D01*
G75*
G02*
X16601650Y10269200I-244150J0D01*
G01*
X16113350Y10269200D01*
G75*
G02*
X15869200Y10513350I0J244150D01*
G01*
X15869200Y11076650D01*
G75*
G02*
X16113350Y11320800I244150J0D01*
G01*
X16601650Y11320800D01*
G75*
G02*
X16845800Y11076650I0J-244150D01*
G01*
G37*
G36*
G01*
X18420800Y11076650D02*
X18420800Y10513350D01*
G75*
G02*
X18176650Y10269200I-244150J0D01*
G01*
X17688350Y10269200D01*
G75*
G02*
X17444200Y10513350I0J244150D01*
G01*
X17444200Y11076650D01*
G75*
G02*
X17688350Y11320800I244150J0D01*
G01*
X18176650Y11320800D01*
G75*
G02*
X18420800Y11076650I0J-244150D01*
G01*
G37*
G04 #@! TD*
G04 #@! TO.C,C2*
G36*
G01*
X16845800Y9171650D02*
X16845800Y8608350D01*
G75*
G02*
X16601650Y8364200I-244150J0D01*
G01*
X16113350Y8364200D01*
G75*
G02*
X15869200Y8608350I0J244150D01*
G01*
X15869200Y9171650D01*
G75*
G02*
X16113350Y9415800I244150J0D01*
G01*
X16601650Y9415800D01*
G75*
G02*
X16845800Y9171650I0J-244150D01*
G01*
G37*
G36*
G01*
X18420800Y9171650D02*
X18420800Y8608350D01*
G75*
G02*
X18176650Y8364200I-244150J0D01*
G01*
X17688350Y8364200D01*
G75*
G02*
X17444200Y8608350I0J244150D01*
G01*
X17444200Y9171650D01*
G75*
G02*
X17688350Y9415800I244150J0D01*
G01*
X18176650Y9415800D01*
G75*
G02*
X18420800Y9171650I0J-244150D01*
G01*
G37*
G04 #@! TD*
G04 #@! TO.C,C1*
G36*
G01*
X16845800Y7266650D02*
X16845800Y6703350D01*
G75*
G02*
X16601650Y6459200I-244150J0D01*
G01*
X16113350Y6459200D01*
G75*
G02*
X15869200Y6703350I0J244150D01*
G01*
X15869200Y7266650D01*
G75*
G02*
X16113350Y7510800I244150J0D01*
G01*
X16601650Y7510800D01*
G75*
G02*
X16845800Y7266650I0J-244150D01*
G01*
G37*
G36*
G01*
X18420800Y7266650D02*
X18420800Y6703350D01*
G75*
G02*
X18176650Y6459200I-244150J0D01*
G01*
X17688350Y6459200D01*
G75*
G02*
X17444200Y6703350I0J244150D01*
G01*
X17444200Y7266650D01*
G75*
G02*
X17688350Y7510800I244150J0D01*
G01*
X18176650Y7510800D01*
G75*
G02*
X18420800Y7266650I0J-244150D01*
G01*
G37*
G04 #@! TD*
D10*
G04 #@! TO.C,J2*
X13970000Y2540000D03*
X11430000Y2540000D03*
X8890000Y2540000D03*
D11*
X6350000Y2540000D03*
G04 #@! TD*
D12*
G04 #@! TO.C,U2*
X12700000Y4745000D03*
D13*
X7620000Y4745000D03*
X10160000Y4745000D03*
G04 #@! TD*
D14*
G04 #@! TO.C,H2*
X3175000Y17780000D03*
G04 #@! TD*
G04 #@! TO.C,H1*
X17145000Y3175000D03*
G04 #@! TD*
G04 #@! TO.C,R22*
G36*
G01*
X3474200Y8627100D02*
X3474200Y9152900D01*
G75*
G02*
X3737100Y9415800I262900J0D01*
G01*
X4362900Y9415800D01*
G75*
G02*
X4625800Y9152900I0J-262900D01*
G01*
X4625800Y8627100D01*
G75*
G02*
X4362900Y8364200I-262900J0D01*
G01*
X3737100Y8364200D01*
G75*
G02*
X3474200Y8627100I0J262900D01*
G01*
G37*
G36*
G01*
X1724200Y8627100D02*
X1724200Y9152900D01*
G75*
G02*
X1987100Y9415800I262900J0D01*
G01*
X2612900Y9415800D01*
G75*
G02*
X2875800Y9152900I0J-262900D01*
G01*
X2875800Y8627100D01*
G75*
G02*
X2612900Y8364200I-262900J0D01*
G01*
X1987100Y8364200D01*
G75*
G02*
X1724200Y8627100I0J262900D01*
G01*
G37*
G04 #@! TD*
D15*
G04 #@! TO.C,R23*
X17780000Y17145000D03*
D16*
X10160000Y17145000D03*
G04 #@! TD*
D15*
G04 #@! TO.C,R13*
X14605000Y18415000D03*
D16*
X6985000Y18415000D03*
G04 #@! TD*
D17*
G04 #@! TO.C,U1*
X12382500Y8708652D03*
X11747500Y8708652D03*
X11112500Y8708652D03*
X10477500Y8708652D03*
X9842500Y8708652D03*
X9207500Y8708652D03*
X8572500Y8708652D03*
X7937500Y8708652D03*
X7937500Y14151348D03*
X8572500Y14151348D03*
X9207500Y14151348D03*
X9842500Y14151348D03*
X10477500Y14151348D03*
X11112500Y14151348D03*
X11747500Y14151348D03*
X12382500Y14151348D03*
G04 #@! TD*
G04 #@! TO.C,R21*
G36*
G01*
X2875800Y5342900D02*
X2875800Y4817100D01*
G75*
G02*
X2612900Y4554200I-262900J0D01*
G01*
X1987100Y4554200D01*
G75*
G02*
X1724200Y4817100I0J262900D01*
G01*
X1724200Y5342900D01*
G75*
G02*
X1987100Y5605800I262900J0D01*
G01*
X2612900Y5605800D01*
G75*
G02*
X2875800Y5342900I0J-262900D01*
G01*
G37*
G36*
G01*
X4625800Y5342900D02*
X4625800Y4817100D01*
G75*
G02*
X4362900Y4554200I-262900J0D01*
G01*
X3737100Y4554200D01*
G75*
G02*
X3474200Y4817100I0J262900D01*
G01*
X3474200Y5342900D01*
G75*
G02*
X3737100Y5605800I262900J0D01*
G01*
X4362900Y5605800D01*
G75*
G02*
X4625800Y5342900I0J-262900D01*
G01*
G37*
G04 #@! TD*
G04 #@! TO.C,R20*
G36*
G01*
X16845800Y12962900D02*
X16845800Y12437100D01*
G75*
G02*
X16582900Y12174200I-262900J0D01*
G01*
X15957100Y12174200D01*
G75*
G02*
X15694200Y12437100I0J262900D01*
G01*
X15694200Y12962900D01*
G75*
G02*
X15957100Y13225800I262900J0D01*
G01*
X16582900Y13225800D01*
G75*
G02*
X16845800Y12962900I0J-262900D01*
G01*
G37*
G36*
G01*
X18595800Y12962900D02*
X18595800Y12437100D01*
G75*
G02*
X18332900Y12174200I-262900J0D01*
G01*
X17707100Y12174200D01*
G75*
G02*
X17444200Y12437100I0J262900D01*
G01*
X17444200Y12962900D01*
G75*
G02*
X17707100Y13225800I262900J0D01*
G01*
X18332900Y13225800D01*
G75*
G02*
X18595800Y12962900I0J-262900D01*
G01*
G37*
G04 #@! TD*
G04 #@! TO.C,R12*
G36*
G01*
X3474200Y14342100D02*
X3474200Y14867900D01*
G75*
G02*
X3737100Y15130800I262900J0D01*
G01*
X4362900Y15130800D01*
G75*
G02*
X4625800Y14867900I0J-262900D01*
G01*
X4625800Y14342100D01*
G75*
G02*
X4362900Y14079200I-262900J0D01*
G01*
X3737100Y14079200D01*
G75*
G02*
X3474200Y14342100I0J262900D01*
G01*
G37*
G36*
G01*
X1724200Y14342100D02*
X1724200Y14867900D01*
G75*
G02*
X1987100Y15130800I262900J0D01*
G01*
X2612900Y15130800D01*
G75*
G02*
X2875800Y14867900I0J-262900D01*
G01*
X2875800Y14342100D01*
G75*
G02*
X2612900Y14079200I-262900J0D01*
G01*
X1987100Y14079200D01*
G75*
G02*
X1724200Y14342100I0J262900D01*
G01*
G37*
G04 #@! TD*
G04 #@! TO.C,R11*
G36*
G01*
X3474200Y10532100D02*
X3474200Y11057900D01*
G75*
G02*
X3737100Y11320800I262900J0D01*
G01*
X4362900Y11320800D01*
G75*
G02*
X4625800Y11057900I0J-262900D01*
G01*
X4625800Y10532100D01*
G75*
G02*
X4362900Y10269200I-262900J0D01*
G01*
X3737100Y10269200D01*
G75*
G02*
X3474200Y10532100I0J262900D01*
G01*
G37*
G36*
G01*
X1724200Y10532100D02*
X1724200Y11057900D01*
G75*
G02*
X1987100Y11320800I262900J0D01*
G01*
X2612900Y11320800D01*
G75*
G02*
X2875800Y11057900I0J-262900D01*
G01*
X2875800Y10532100D01*
G75*
G02*
X2612900Y10269200I-262900J0D01*
G01*
X1987100Y10269200D01*
G75*
G02*
X1724200Y10532100I0J262900D01*
G01*
G37*
G04 #@! TD*
G04 #@! TO.C,R10*
G36*
G01*
X16845800Y14867900D02*
X16845800Y14342100D01*
G75*
G02*
X16582900Y14079200I-262900J0D01*
G01*
X15957100Y14079200D01*
G75*
G02*
X15694200Y14342100I0J262900D01*
G01*
X15694200Y14867900D01*
G75*
G02*
X15957100Y15130800I262900J0D01*
G01*
X16582900Y15130800D01*
G75*
G02*
X16845800Y14867900I0J-262900D01*
G01*
G37*
G36*
G01*
X18595800Y14867900D02*
X18595800Y14342100D01*
G75*
G02*
X18332900Y14079200I-262900J0D01*
G01*
X17707100Y14079200D01*
G75*
G02*
X17444200Y14342100I0J262900D01*
G01*
X17444200Y14867900D01*
G75*
G02*
X17707100Y15130800I262900J0D01*
G01*
X18332900Y15130800D01*
G75*
G02*
X18595800Y14867900I0J-262900D01*
G01*
G37*
G04 #@! TD*
D15*
G04 #@! TO.C,J1*
X13970000Y14605000D03*
X6350000Y6985000D03*
X13970000Y12065000D03*
X6350000Y9525000D03*
X13970000Y9525000D03*
X6350000Y12065000D03*
X13970000Y6985000D03*
D18*
X6350000Y14605000D03*
G04 #@! TD*
D19*
G04 #@! TO.C,FID2*
X18415000Y19050000D03*
G04 #@! TD*
G04 #@! TO.C,FID1*
X1905000Y1905000D03*
G04 #@! TD*
M02*
