; NON-PLATED HOLES START AT T1
; THROUGH (PLATED) HOLES START AT T100
M48
INCH
T1C0.125984
T2C0.145669
T100C0.038000
T101C0.034722
T102C0.035000
T103C0.042000
T104C0.038917
T105C0.059055
T106C0.031496
T107C0.031497
T108C0.030000
T109C0.037778
T110C0.039370
%
T1
X001921Y001914
X026921Y009414
X001921Y052414
X031421Y045914
T2
X005698Y011951
X005717Y002840
T100
X020921Y040914
X037921Y008914
X037921Y012914
X010421Y007914
X010421Y004914
X035921Y009914
X020921Y038914
X037921Y014914
X010421Y009914
X010421Y006914
X035921Y008914
X036921Y012914
X035921Y012914
X037921Y009914
X010421Y008914
X010421Y005914
X020921Y039914
X036921Y014914
X035921Y014914
T101
X014921Y017414
X037920Y029414
X036921Y030414
X023921Y017414
X023921Y036414
X012320Y036414
X037920Y032414
X036921Y026414
X037920Y028414
X012920Y017414
X026921Y017414
X037920Y031414
X030920Y017414
X026921Y036414
X030920Y036414
X037920Y027414
X015920Y017414
X037920Y030414
X009320Y036414
X036921Y024414
X029921Y017414
X029921Y036414
X037920Y026414
X021921Y017414
X021921Y036414
X036921Y023414
X015321Y036414
X027920Y036414
X036921Y019414
X010920Y017414
X036921Y022414
X024921Y017414
X024921Y036414
X013320Y036414
X033921Y017414
X037920Y024414
X036921Y021414
X010321Y036414
X018921Y036414
X022920Y017414
X007320Y036414
X022920Y036414
X037920Y023414
X016320Y036414
X036921Y036414
X037920Y019414
X016920Y017414
X037920Y022414
X025920Y017414
X036921Y035414
X013921Y017414
X037920Y021414
X011320Y036414
X031921Y017414
X036921Y034414
X037920Y036414
X011920Y017414
X020920Y017414
X020920Y036414
X036921Y033414
X014320Y036414
X034921Y017414
X037920Y035414
X036921Y029414
X019921Y017414
X019921Y036414
X028921Y017414
X036921Y032414
X008320Y036414
X028921Y036414
X032920Y017414
X037920Y034414
X036921Y028414
X017920Y017414
X036921Y031414
X017920Y036414
X037920Y033414
X035920Y017414
X036921Y027414
T102
X022921Y032414
X025421Y048414
X031921Y032414
X020421Y034414
X022921Y028414
X019421Y010914
X033921Y044414
X016921Y048414
X027421Y044414
X010921Y026414
X031921Y024914
X019421Y006914
X035921Y033914
X018921Y044414
X010421Y044414
X020921Y026914
X014921Y034414
X033421Y019414
X037921Y048414
X022921Y026414
X017921Y031914
X031921Y026414
X033421Y022414
X020921Y048414
X035921Y035414
X007921Y019914
X017921Y027914
X007921Y022914
X014921Y029414
X022421Y024414
X035921Y027914
X032921Y010914
X008421Y048414
X025421Y044414
X014921Y032414
X035921Y030914
X032921Y006914
X016921Y025414
X016921Y044414
X025421Y020914
X011921Y019914
X035921Y029414
X031421Y019414
X035921Y048414
X026921Y032414
X011921Y022914
X029421Y048414
X035921Y032414
X031421Y022414
X024421Y034414
X026921Y028414
X037921Y044414
X012421Y048414
X014921Y026414
X020921Y025414
X015921Y011914
X035921Y024914
X034421Y019414
X020921Y044414
X030921Y010914
X018921Y031914
X015921Y007914
X034421Y022414
X009921Y015414
X030921Y006914
X018921Y027914
X026421Y022914
X031921Y033914
X024921Y010914
X008421Y044414
X026921Y026414
X033921Y010914
X035921Y026414
X024921Y006914
X010921Y034414
X021421Y011414
X033921Y006914
X033921Y048414
X027421Y048414
X021421Y007414
X026421Y024414
X031921Y035414
X018921Y048414
X035921Y044414
X010421Y048414
X029421Y044414
X013921Y011914
X030421Y022914
X032421Y019414
X010921Y029414
X031921Y027914
X012421Y044414
X013921Y007914
X032421Y022414
X010921Y032414
X031921Y030914
X029421Y020914
X009921Y011414
X031921Y029414
X016921Y026914
T103
X020921Y051914
X006921Y039434
X019421Y012934
X030921Y012934
X016921Y049434
X033921Y052414
X015921Y012914
X013921Y012914
X024921Y015894
X026921Y015894
X022921Y041394
X021421Y022894
X012421Y051914
X010421Y051914
X011421Y051914
X025421Y052414
X036921Y051914
X024921Y012914
X026921Y012914
X037921Y051914
X035921Y051914
X019421Y022914
X036921Y039414
X008421Y049434
X032921Y015894
X036921Y040414
X006921Y042414
X016921Y052414
X029421Y051914
X027421Y051914
X028421Y051914
X032921Y012914
X021421Y015894
X033921Y049434
X022921Y038414
X021421Y019914
X008421Y052414
X019421Y015914
X019921Y051914
X030921Y015914
X021421Y012914
X036921Y041414
X025421Y049434
X018921Y051914
X015921Y015894
X013921Y015894
X019421Y019934
T104
X033921Y036414
X032920Y036414
X031921Y036414
T105
X016462Y003324
X004421Y021914
X012525Y003324
X030242Y003324
X004421Y027508
X004421Y036914
X004421Y023882
X018431Y003324
X004421Y049414
X032210Y003324
X004421Y029477
X004421Y038883
X024336Y003324
X004421Y043508
X034179Y003324
X004421Y047445
X020399Y003324
X004421Y045477
X004421Y033414
X036147Y003324
X026305Y003324
X004421Y031446
X022368Y003324
X004421Y019946
X028273Y003324
X038116Y003324
X004421Y017977
X014494Y003324
T106
X011873Y038914
X008921Y038914
T107
X008921Y032414
X008921Y025430
X008921Y029414
X031921Y052914
X023421Y052914
X008921Y031430
X014921Y052914
X006421Y052914
X008921Y035414
X008921Y028430
X008921Y026414
X031921Y051930
X023421Y051930
X014921Y051930
X006421Y051930
X008921Y034430
T108
X009421Y021414
X011921Y012914
X022921Y008914
X005921Y015914
X003921Y015914
X007921Y015914
X028921Y008914
X022921Y014914
X023421Y021914
X012421Y008914
X005921Y013914
X003921Y013914
X007921Y013914
X028921Y014914
X011421Y021414
X017421Y008914
X022921Y012914
X017421Y014914
X032421Y038414
X034921Y040414
X028921Y012914
X022921Y010914
X009921Y042414
X024421Y022914
X022421Y022914
X017421Y012914
X028921Y010914
X011921Y042414
X009921Y040414
X012421Y010914
X023421Y019914
X017421Y010914
X027421Y029414
X029421Y029414
X011921Y014914
X011921Y040414
X032421Y040414
X034921Y038414
X027421Y035414
X029421Y035414
T109
X037920Y020414
X037920Y025414
X036921Y020414
X036921Y025414
T110
X016421Y019914
X027921Y032914
X030921Y032914
X027921Y025914
X016421Y020914
X013421Y019914
X030921Y025914
X013421Y020914
X027921Y027914
X016421Y022914
X030921Y027914
X027921Y031914
X030921Y031914
X027921Y024914
X030921Y024914
X013421Y022914
X027921Y033914
X030921Y033914
X027921Y026914
X016421Y021914
X030921Y026914
X027921Y030914
X030921Y030914
X013421Y021914
T00
M30
