G04 MADE WITH FRITZING*
G04 WWW.FRITZING.ORG*
G04 DOUBLE SIDED*
G04 HOLES PLATED*
G04 CONTOUR ON CENTER OF CONTOUR VECTOR*
%ASAXBY*%
%FSLAX23Y23*%
%MOIN*%
%OFA0B0*%
%SFA1.0B1.0*%
%ADD10C,0.033465*%
%ADD11C,0.074000*%
%ADD12C,0.165354*%
%ADD13R,0.039370X0.045276*%
%ADD14R,0.059055X0.055118*%
%ADD15R,0.055118X0.059055*%
%ADD16R,0.057874X0.050000*%
%ADD17R,0.001000X0.001000*%
%LNPASTEMASK1*%
G90*
G70*
G54D10*
X2009Y414D03*
X2127Y414D03*
G54D11*
X616Y2653D03*
X616Y2753D03*
X616Y2853D03*
G54D12*
X144Y2148D03*
X144Y3058D03*
G54D13*
X1969Y303D03*
X2068Y303D03*
X2166Y303D03*
X1969Y525D03*
X2068Y525D03*
X2166Y525D03*
G54D14*
X1841Y503D03*
X1841Y422D03*
X2366Y578D03*
X2366Y497D03*
G54D15*
X2591Y578D03*
X2672Y578D03*
G54D14*
X1441Y1453D03*
X1441Y1534D03*
G54D16*
X2441Y3228D03*
X2441Y3397D03*
G54D14*
X2641Y1028D03*
X2641Y1109D03*
X2866Y903D03*
X2866Y984D03*
X1766Y953D03*
X1766Y1034D03*
X1566Y953D03*
X1566Y1034D03*
X1541Y1528D03*
X1541Y1447D03*
X2466Y3553D03*
X2466Y3472D03*
X3791Y878D03*
X3791Y959D03*
G54D15*
X3466Y278D03*
X3547Y278D03*
G54D14*
X2441Y828D03*
X2441Y909D03*
X2541Y828D03*
X2541Y909D03*
X2666Y1553D03*
X2666Y1634D03*
X766Y2803D03*
X766Y2722D03*
X1741Y728D03*
X1741Y647D03*
G54D15*
X1235Y628D03*
X1316Y628D03*
X2841Y1328D03*
X2760Y1328D03*
G36*
X2637Y2231D02*
X2696Y2231D01*
X2696Y2175D01*
X2637Y2175D01*
X2637Y2231D01*
G37*
D02*
G36*
X2637Y2311D02*
X2696Y2311D01*
X2696Y2256D01*
X2637Y2256D01*
X2637Y2311D01*
G37*
D02*
G54D17*
D02*
G04 End of PasteMask1*
M02*