; NON-PLATED HOLES START AT T1
; THROUGH (PLATED) HOLES START AT T100
M48
INCH
T1C0.165354
T2C0.125984
T3C0.033465
T100C0.059055
T101C0.040000
T102C0.031496
T103C0.031497
T104C0.030000
T105C0.070000
T106C0.039370
T107C0.038000
T108C0.038194
T109C0.035000
T110C0.042000
T111C0.015748
%
T1
X001437Y021480
X001437Y030579
T2
X037569Y012280
X035411Y031280
T3
X021268Y004142
X020087Y004142
T100
X036411Y034811
X036411Y036780
T101
X007911Y021780
X008911Y005780
X007911Y013780
X008911Y018780
X007911Y005780
X007911Y018780
X006161Y026530
X008911Y011780
X008911Y003780
X007911Y011780
X008911Y016780
X007911Y003780
X008911Y008780
X007911Y016780
X006161Y024530
X007911Y008780
X008911Y022780
X008911Y014780
X007911Y022780
X008911Y006780
X007911Y014780
X008911Y019780
X007911Y006780
X007911Y019780
X006161Y027530
X008911Y020780
X008911Y012780
X007911Y020780
X008911Y004780
X007911Y012780
X008911Y017780
X007911Y004780
X008911Y009780
X007911Y017780
X006161Y025530
X007911Y009780
X008911Y010780
X007911Y010780
X008911Y015780
X008911Y007780
X007911Y015780
X006161Y023530
X007911Y007780
X006161Y028531
X008911Y021780
X008911Y013780
T102
X033911Y036983
X033911Y034030
T103
X005421Y035789
X005421Y034805
X018161Y033045
X025911Y023030
X024927Y023030
X018161Y034030
X018161Y035045
X025911Y015030
X024927Y015030
X018161Y036030
X005421Y033789
X005421Y032805
X025911Y017030
X025911Y021030
X024927Y017030
X024927Y021030
T104
X004661Y018030
X002661Y018030
X032161Y035780
X013911Y013780
X011911Y013780
X028911Y035280
X027161Y035280
X032161Y033780
X028911Y030030
X029911Y030030
X028911Y033280
X027161Y033280
X031911Y030030
X033911Y030030
X030911Y030030
X032911Y030030
X034911Y030030
X028911Y025030
X035911Y030030
X029911Y025030
X004661Y016780
X002661Y016780
X032411Y037280
X030411Y037280
X031911Y025030
X033911Y025030
X024661Y002780
X026661Y002780
X030911Y025030
X032911Y025030
X034911Y025030
X011411Y003780
X035911Y025030
X014661Y003780
X016661Y003780
X013411Y003780
T105
X012411Y024280
X012411Y022280
X012411Y028280
X012411Y026280
T106
X027661Y014530
X030661Y023530
X027661Y015530
X030661Y014530
X027661Y016530
X030661Y015530
X027661Y020530
X027661Y017530
X030661Y016530
X027661Y021530
X030661Y020530
X030661Y017530
X027661Y022530
X030661Y021530
X027661Y023530
X030661Y022530
T107
X001911Y010530
X004911Y011530
X003911Y003530
X002911Y014530
X001911Y006530
X005911Y015530
X004911Y007530
X004911Y010530
X003911Y002530
X002911Y013530
X001911Y005530
X005911Y014530
X004911Y006530
X002911Y009530
X027911Y028280
X002911Y012530
X001911Y004530
X005911Y013530
X029911Y004030
X004911Y005530
X035661Y007280
X002911Y008530
X027911Y027280
X005911Y009530
X002911Y011530
X001911Y003530
X032661Y004030
X005911Y012530
X030911Y004030
X004911Y004530
X035661Y006280
X002911Y007530
X003911Y015530
X027911Y026280
X005911Y008530
X002911Y010530
X001911Y002530
X005911Y011530
X004911Y003530
X035661Y005280
X003911Y014530
X002911Y006530
X005911Y007530
X005911Y010530
X004911Y002530
X003911Y013530
X002911Y005530
X005911Y006530
X003911Y009530
X003911Y012530
X002911Y004530
X005911Y005530
X001911Y015530
X003911Y008530
X003911Y011530
X002911Y003530
X033661Y004030
X005911Y004530
X001911Y014530
X004911Y015530
X003911Y007530
X003911Y010530
X002911Y002530
X001911Y013530
X005911Y003530
X035661Y009780
X004911Y014530
X003911Y006530
X001911Y009530
X001911Y012530
X005911Y002530
X035661Y008780
X004911Y013530
X003911Y005530
X001911Y008530
X004911Y009530
X001911Y011530
X004911Y012530
X003911Y004530
X002911Y015530
X001911Y007530
X035661Y010780
X004911Y008530
T108
X021911Y012280
X021911Y031280
X037911Y019280
X030911Y012280
X015311Y031280
X030911Y031280
X037911Y022280
X036911Y014280
X015911Y012280
X037911Y018280
X024911Y012280
X009311Y031280
X024911Y031280
X036911Y029280
X033911Y012280
X037911Y021280
X033911Y031280
X037911Y017280
X010311Y031280
X018911Y031280
X036911Y028280
X027911Y031280
X037911Y020280
X010911Y012280
X036911Y031280
X037911Y016280
X036911Y027280
X013311Y031280
X036911Y030280
X037911Y015280
X013911Y012280
X022911Y012280
X036911Y026280
X007311Y031280
X022911Y031280
X031911Y012280
X016311Y031280
X031911Y031280
X037911Y014280
X016911Y012280
X036911Y025280
X025911Y012280
X037911Y029280
X034911Y012280
X036911Y024280
X019911Y012280
X011311Y031280
X019911Y031280
X037911Y028280
X028911Y012280
X028911Y031280
X037911Y031280
X036911Y023280
X011911Y012280
X020911Y012280
X020911Y031280
X037911Y027280
X036911Y019280
X014311Y031280
X037911Y030280
X036911Y022280
X014911Y012280
X037911Y026280
X008311Y031280
X023911Y012280
X036911Y018280
X023911Y031280
X032911Y012280
X032911Y031280
X036911Y021280
X037911Y025280
X017911Y012280
X036911Y017280
X017911Y031280
X026911Y012280
X026911Y031280
X036911Y020280
X035911Y012280
X037911Y024280
X036911Y016280
X012311Y031280
X029911Y012280
X029911Y031280
X037911Y023280
X012911Y012280
X036911Y015280
T109
X016661Y035530
X014661Y007030
X020661Y026280
X031661Y023280
X035911Y017530
X029911Y006030
X016661Y034530
X022661Y021030
X023661Y030280
X020661Y018780
X031661Y022280
X021911Y007280
X023661Y025030
X023661Y026280
X035911Y016530
X029911Y005030
X030911Y007280
X021911Y010280
X017661Y030280
X030911Y010280
X031661Y021280
X017411Y014530
X021911Y018780
X017661Y026280
X016661Y029530
X023161Y017780
X035911Y015530
X012652Y036521
X033911Y006030
X033911Y007280
X016661Y032530
X031661Y020280
X006911Y037780
X006911Y036530
X033911Y010280
X035911Y014530
X018911Y007280
X027661Y010780
X033911Y005030
X018911Y010280
X021661Y030280
X006911Y035530
X027661Y006780
X024661Y030030
X021661Y026280
X006911Y034530
X012661Y037780
X000661Y019030
X023661Y021030
X010911Y037780
X010911Y036530
X025911Y030030
X012652Y033521
X024661Y025030
X035661Y023280
X020661Y013780
X016411Y018530
X031911Y007280
X006911Y033530
X023411Y010780
X012661Y035530
X018661Y030280
X016661Y025530
X010911Y035530
X023161Y013780
X031911Y010280
X023411Y006780
X035661Y022280
X018661Y026280
X024161Y017780
X031911Y017530
X006911Y032530
X025911Y025030
X021911Y013780
X012661Y034530
X010911Y034530
X035661Y021280
X019911Y007280
X031911Y016530
X016661Y011030
X010911Y033530
X019911Y010280
X016652Y036521
X022661Y030280
X035661Y020280
X016661Y007030
X020911Y007280
X031911Y015530
X022661Y025030
X022661Y026280
X012661Y032530
X010911Y032530
X020911Y010280
X016411Y014530
X031911Y014530
X017411Y018530
X032911Y007280
X019661Y030280
X024161Y013780
X032911Y010280
X016661Y037780
X004661Y019030
X019661Y026280
X016652Y033521
X014661Y011030
X020661Y030280
T110
X019661Y024780
X014911Y027280
X024911Y037280
X020911Y037280
X011911Y007780
X025661Y033030
X017931Y037280
X003891Y036530
X022161Y035280
X020161Y035280
X000911Y037780
X020661Y024780
X021161Y035280
X021931Y037280
X014911Y025030
X030661Y036280
X003891Y037780
X001411Y033030
X014911Y028280
X018661Y022280
X002411Y033030
X011911Y010760
X019661Y022280
X022161Y033030
X020161Y033030
X014911Y023030
X003411Y033030
X021161Y033030
X030661Y033300
X028661Y037030
X026661Y037030
X020661Y022280
X027661Y037030
X014911Y029280
X001421Y035289
X003421Y035289
X025661Y036010
X002421Y035289
X014911Y024030
X000911Y036530
X018661Y024780
T111
X030411Y027280
X024911Y013280
X028661Y017530
X023411Y034530
X036911Y013030
X012411Y003780
X013161Y014780
X022161Y029530
X029411Y002780
X034911Y028780
X009661Y026530
X018911Y012280
X009661Y033030
X029661Y023530
X019161Y014530
X033911Y023780
X006411Y017530
X025411Y029030
X001661Y026530
X031161Y008530
X017661Y025280
X023661Y036780
X020161Y029530
X025911Y006780
X006411Y022030
X030661Y006030
X007161Y010530
X027911Y018780
X034911Y025780
X024411Y022030
X037911Y010780
X007161Y025530
X010661Y009280
X034911Y027030
X035661Y004280
X026911Y008530
X028661Y015030
X035911Y028780
X038661Y020780
X026661Y014530
X031161Y009280
X010661Y003530
X036661Y010030
X012411Y016280
X007161Y004530
X015411Y017280
X005911Y031030
X022661Y008280
X015661Y035780
X035661Y013780
X015023Y006280
X016661Y010030
X024411Y033030
X019911Y016530
X002161Y038530
X009911Y011530
X024911Y010530
X013661Y036780
X033161Y016030
X011661Y007030
X019661Y006030
X031661Y004030
X003411Y019530
X029911Y011030
X013411Y016280
X027661Y018280
X038161Y007780
T00
M30
