M48
INCH
T10C0.038000
T11C0.059055
T12C0.042000
T13C0.030000
T14C0.033454
T15C0.037396
T16C0.037368
T17C0.035000
T18C0.040000
T19C0.015748
%
T10
X023707Y007885
X023707Y008885
X023707Y009885
T11
X048707Y000916
X048707Y002885
X048707Y018916
X048707Y020885
X013738Y001885
X015707Y001885
X002707Y002853
X002707Y000885
X002707Y020853
X002707Y018885
T12
X008687Y018885
X005707Y018885
X024727Y018885
X027707Y018885
X008687Y020885
X005707Y020885
X025727Y015885
X028707Y015885
X015707Y016885
X015707Y015885
X015707Y014885
X010707Y008885
X010707Y007885
X010707Y006885
X015707Y011885
X015707Y010885
X015707Y009885
X010707Y003885
X010707Y002885
X010707Y001885
T13
X005707Y016885
X005707Y014885
X023707Y016885
X023707Y014885
X007707Y016885
X007707Y014885
X028707Y013885
X026707Y013885
T14
X035707Y001885
X025707Y020885
X027706Y020885
X029706Y020885
X031707Y020885
X023706Y001885
X021707Y001885
X019706Y001885
X017706Y001885
X022107Y020885
X020106Y020885
X018106Y020885
X016106Y020885
X014106Y020885
X026707Y020885
X030707Y020885
X022706Y001885
X018706Y001885
X023106Y020885
X019106Y020885
X015106Y020885
X033707Y020885
X034706Y020885
X035707Y020885
X036707Y020885
X037706Y020885
X038707Y020885
X039706Y020885
X040707Y020885
X024706Y020885
X024706Y001885
X017107Y020885
X028707Y020885
X033707Y001885
X032706Y001885
X031707Y001885
X030707Y001885
X029706Y001885
X028707Y001885
X027706Y001885
X026707Y001885
X021106Y020885
X042706Y001885
X041707Y001885
X040707Y001885
X039706Y001885
X038707Y001885
X037706Y001885
X020707Y001885
X036707Y001885
T15
X044706Y003885
X044706Y005885
X044706Y006885
X044706Y007885
X044706Y008885
X044706Y010885
X044706Y011885
X044706Y012885
X044706Y013885
X044706Y014885
X044706Y015885
X044706Y016885
X044706Y017885
X044706Y018885
X044706Y019885
X044706Y020885
X043707Y006885
X043707Y008885
X043707Y010885
X043707Y012885
X043707Y014885
X043707Y016885
X043707Y018885
X043707Y020885
X043707Y005885
X043707Y013885
X043707Y017885
X043707Y003885
X043707Y011885
X043707Y019885
X043707Y007885
X043707Y015885
T16
X044706Y004885
X044706Y009885
X043707Y004885
X043707Y009885
T17
X029707Y011885
X025707Y011885
X011707Y017885
X011707Y013885
X019707Y016885
X019707Y012885
X008707Y010885
X008707Y014885
X017707Y007885
X017707Y011885
X009707Y010885
X009707Y014885
X018707Y007885
X018707Y011885
X010707Y017885
X010707Y013885
X018707Y016885
X018707Y012885
X029707Y008885
X025707Y008885
X031707Y009885
X031707Y012885
X032707Y009885
X032707Y012885
X033707Y009885
X033707Y012885
T18
X048707Y004979
X048707Y006948
X048707Y008916
X048707Y010885
X048707Y012853
X048707Y014822
X048707Y016790
T19
X020707Y005885
X042707Y014885
T00
M30
