G04 #@! TF.GenerationSoftware,KiCad,Pcbnew,(5.1.7)-1*
G04 #@! TF.CreationDate,2021-04-14T19:18:07-03:00*
G04 #@! TF.ProjectId,BlackPill Adaptor,426c6163-6b50-4696-9c6c-204164617074,rev?*
G04 #@! TF.SameCoordinates,Original*
G04 #@! TF.FileFunction,Legend,Bot*
G04 #@! TF.FilePolarity,Positive*
%FSLAX46Y46*%
G04 Gerber Fmt 4.6, Leading zero omitted, Abs format (unit mm)*
G04 Created by KiCad (PCBNEW (5.1.7)-1) date 2021-04-14 19:18:07*
%MOMM*%
%LPD*%
G01*
G04 APERTURE LIST*
%ADD10C,0.250000*%
%ADD11C,0.200000*%
%ADD12C,0.010000*%
%ADD13C,0.120000*%
%ADD14C,0.150000*%
G04 APERTURE END LIST*
D10*
X186010285Y-98853714D02*
X186081714Y-98925142D01*
X186296000Y-98996571D01*
X186438857Y-98996571D01*
X186653142Y-98925142D01*
X186796000Y-98782285D01*
X186867428Y-98639428D01*
X186938857Y-98353714D01*
X186938857Y-98139428D01*
X186867428Y-97853714D01*
X186796000Y-97710857D01*
X186653142Y-97568000D01*
X186438857Y-97496571D01*
X186296000Y-97496571D01*
X186081714Y-97568000D01*
X186010285Y-97639428D01*
X185153142Y-98996571D02*
X185296000Y-98925142D01*
X185367428Y-98853714D01*
X185438857Y-98710857D01*
X185438857Y-98282285D01*
X185367428Y-98139428D01*
X185296000Y-98068000D01*
X185153142Y-97996571D01*
X184938857Y-97996571D01*
X184796000Y-98068000D01*
X184724571Y-98139428D01*
X184653142Y-98282285D01*
X184653142Y-98710857D01*
X184724571Y-98853714D01*
X184796000Y-98925142D01*
X184938857Y-98996571D01*
X185153142Y-98996571D01*
X184010285Y-98996571D02*
X184010285Y-97996571D01*
X184010285Y-98139428D02*
X183938857Y-98068000D01*
X183796000Y-97996571D01*
X183581714Y-97996571D01*
X183438857Y-98068000D01*
X183367428Y-98210857D01*
X183367428Y-98996571D01*
X183367428Y-98210857D02*
X183296000Y-98068000D01*
X183153142Y-97996571D01*
X182938857Y-97996571D01*
X182796000Y-98068000D01*
X182724571Y-98210857D01*
X182724571Y-98996571D01*
X182010285Y-97996571D02*
X182010285Y-99496571D01*
X182010285Y-98068000D02*
X181867428Y-97996571D01*
X181581714Y-97996571D01*
X181438857Y-98068000D01*
X181367428Y-98139428D01*
X181296000Y-98282285D01*
X181296000Y-98710857D01*
X181367428Y-98853714D01*
X181438857Y-98925142D01*
X181581714Y-98996571D01*
X181867428Y-98996571D01*
X182010285Y-98925142D01*
X180010285Y-98996571D02*
X180010285Y-98210857D01*
X180081714Y-98068000D01*
X180224571Y-97996571D01*
X180510285Y-97996571D01*
X180653142Y-98068000D01*
X180010285Y-98925142D02*
X180153142Y-98996571D01*
X180510285Y-98996571D01*
X180653142Y-98925142D01*
X180724571Y-98782285D01*
X180724571Y-98639428D01*
X180653142Y-98496571D01*
X180510285Y-98425142D01*
X180153142Y-98425142D01*
X180010285Y-98353714D01*
X179510285Y-97996571D02*
X178938857Y-97996571D01*
X179296000Y-97496571D02*
X179296000Y-98782285D01*
X179224571Y-98925142D01*
X179081714Y-98996571D01*
X178938857Y-98996571D01*
X178438857Y-98996571D02*
X178438857Y-97996571D01*
X178438857Y-97496571D02*
X178510285Y-97568000D01*
X178438857Y-97639428D01*
X178367428Y-97568000D01*
X178438857Y-97496571D01*
X178438857Y-97639428D01*
X177724571Y-98996571D02*
X177724571Y-97496571D01*
X177724571Y-98068000D02*
X177581714Y-97996571D01*
X177296000Y-97996571D01*
X177153142Y-98068000D01*
X177081714Y-98139428D01*
X177010285Y-98282285D01*
X177010285Y-98710857D01*
X177081714Y-98853714D01*
X177153142Y-98925142D01*
X177296000Y-98996571D01*
X177581714Y-98996571D01*
X177724571Y-98925142D01*
X176153142Y-98996571D02*
X176296000Y-98925142D01*
X176367428Y-98782285D01*
X176367428Y-97496571D01*
X175010285Y-98925142D02*
X175153142Y-98996571D01*
X175438857Y-98996571D01*
X175581714Y-98925142D01*
X175653142Y-98782285D01*
X175653142Y-98210857D01*
X175581714Y-98068000D01*
X175438857Y-97996571D01*
X175153142Y-97996571D01*
X175010285Y-98068000D01*
X174938857Y-98210857D01*
X174938857Y-98353714D01*
X175653142Y-98496571D01*
X173296000Y-97996571D02*
X173010285Y-98996571D01*
X172724571Y-98282285D01*
X172438857Y-98996571D01*
X172153142Y-97996571D01*
X171581714Y-98996571D02*
X171581714Y-97996571D01*
X171581714Y-97496571D02*
X171653142Y-97568000D01*
X171581714Y-97639428D01*
X171510285Y-97568000D01*
X171581714Y-97496571D01*
X171581714Y-97639428D01*
X171081714Y-97996571D02*
X170510285Y-97996571D01*
X170867428Y-97496571D02*
X170867428Y-98782285D01*
X170796000Y-98925142D01*
X170653142Y-98996571D01*
X170510285Y-98996571D01*
X170010285Y-98996571D02*
X170010285Y-97496571D01*
X169367428Y-98996571D02*
X169367428Y-98210857D01*
X169438857Y-98068000D01*
X169581714Y-97996571D01*
X169796000Y-97996571D01*
X169938857Y-98068000D01*
X170010285Y-98139428D01*
X186938857Y-100496571D02*
X186581714Y-101496571D01*
X186224571Y-100496571D01*
X185367428Y-99996571D02*
X185224571Y-99996571D01*
X185081714Y-100068000D01*
X185010285Y-100139428D01*
X184938857Y-100282285D01*
X184867428Y-100568000D01*
X184867428Y-100925142D01*
X184938857Y-101210857D01*
X185010285Y-101353714D01*
X185081714Y-101425142D01*
X185224571Y-101496571D01*
X185367428Y-101496571D01*
X185510285Y-101425142D01*
X185581714Y-101353714D01*
X185653142Y-101210857D01*
X185724571Y-100925142D01*
X185724571Y-100568000D01*
X185653142Y-100282285D01*
X185581714Y-100139428D01*
X185510285Y-100068000D01*
X185367428Y-99996571D01*
X184224571Y-101353714D02*
X184153142Y-101425142D01*
X184224571Y-101496571D01*
X184296000Y-101425142D01*
X184224571Y-101353714D01*
X184224571Y-101496571D01*
X182867428Y-100496571D02*
X182867428Y-101496571D01*
X183224571Y-99925142D02*
X183581714Y-100996571D01*
X182653142Y-100996571D01*
X180938857Y-101496571D02*
X180938857Y-99996571D01*
X180938857Y-100568000D02*
X180796000Y-100496571D01*
X180510285Y-100496571D01*
X180367428Y-100568000D01*
X180296000Y-100639428D01*
X180224571Y-100782285D01*
X180224571Y-101210857D01*
X180296000Y-101353714D01*
X180367428Y-101425142D01*
X180510285Y-101496571D01*
X180796000Y-101496571D01*
X180938857Y-101425142D01*
X179367428Y-101496571D02*
X179510285Y-101425142D01*
X179581714Y-101353714D01*
X179653142Y-101210857D01*
X179653142Y-100782285D01*
X179581714Y-100639428D01*
X179510285Y-100568000D01*
X179367428Y-100496571D01*
X179153142Y-100496571D01*
X179010285Y-100568000D01*
X178938857Y-100639428D01*
X178867428Y-100782285D01*
X178867428Y-101210857D01*
X178938857Y-101353714D01*
X179010285Y-101425142D01*
X179153142Y-101496571D01*
X179367428Y-101496571D01*
X177581714Y-101496571D02*
X177581714Y-100710857D01*
X177653142Y-100568000D01*
X177796000Y-100496571D01*
X178081714Y-100496571D01*
X178224571Y-100568000D01*
X177581714Y-101425142D02*
X177724571Y-101496571D01*
X178081714Y-101496571D01*
X178224571Y-101425142D01*
X178296000Y-101282285D01*
X178296000Y-101139428D01*
X178224571Y-100996571D01*
X178081714Y-100925142D01*
X177724571Y-100925142D01*
X177581714Y-100853714D01*
X176867428Y-101496571D02*
X176867428Y-100496571D01*
X176867428Y-100782285D02*
X176796000Y-100639428D01*
X176724571Y-100568000D01*
X176581714Y-100496571D01*
X176438857Y-100496571D01*
X175296000Y-101496571D02*
X175296000Y-99996571D01*
X175296000Y-101425142D02*
X175438857Y-101496571D01*
X175724571Y-101496571D01*
X175867428Y-101425142D01*
X175938857Y-101353714D01*
X176010285Y-101210857D01*
X176010285Y-100782285D01*
X175938857Y-100639428D01*
X175867428Y-100568000D01*
X175724571Y-100496571D01*
X175438857Y-100496571D01*
X175296000Y-100568000D01*
X174653142Y-101425142D02*
X174510285Y-101496571D01*
X174224571Y-101496571D01*
X174081714Y-101425142D01*
X174010285Y-101282285D01*
X174010285Y-101210857D01*
X174081714Y-101068000D01*
X174224571Y-100996571D01*
X174438857Y-100996571D01*
X174581714Y-100925142D01*
X174653142Y-100782285D01*
X174653142Y-100710857D01*
X174581714Y-100568000D01*
X174438857Y-100496571D01*
X174224571Y-100496571D01*
X174081714Y-100568000D01*
X172010285Y-101496571D02*
X172153142Y-101425142D01*
X172224571Y-101353714D01*
X172296000Y-101210857D01*
X172296000Y-100782285D01*
X172224571Y-100639428D01*
X172153142Y-100568000D01*
X172010285Y-100496571D01*
X171796000Y-100496571D01*
X171653142Y-100568000D01*
X171581714Y-100639428D01*
X171510285Y-100782285D01*
X171510285Y-101210857D01*
X171581714Y-101353714D01*
X171653142Y-101425142D01*
X171796000Y-101496571D01*
X172010285Y-101496571D01*
X170867428Y-100496571D02*
X170867428Y-101496571D01*
X170867428Y-100639428D02*
X170796000Y-100568000D01*
X170653142Y-100496571D01*
X170438857Y-100496571D01*
X170296000Y-100568000D01*
X170224571Y-100710857D01*
X170224571Y-101496571D01*
X169296000Y-101496571D02*
X169438857Y-101425142D01*
X169510285Y-101282285D01*
X169510285Y-99996571D01*
X168867428Y-100496571D02*
X168510285Y-101496571D01*
X168153142Y-100496571D02*
X168510285Y-101496571D01*
X168653142Y-101853714D01*
X168724571Y-101925142D01*
X168867428Y-101996571D01*
X149310571Y-97532857D02*
X149310571Y-98332857D01*
X149596285Y-97075714D02*
X149882000Y-97932857D01*
X149139142Y-97932857D01*
X148682000Y-98218571D02*
X148624857Y-98275714D01*
X148682000Y-98332857D01*
X148739142Y-98275714D01*
X148682000Y-98218571D01*
X148682000Y-98332857D01*
X148224857Y-97132857D02*
X147424857Y-97132857D01*
X147939142Y-98332857D01*
X146967714Y-98332857D02*
X146967714Y-97132857D01*
X146282000Y-98332857D02*
X146796285Y-97647142D01*
X146282000Y-97132857D02*
X146967714Y-97818571D01*
D11*
X192552857Y-83228571D02*
X192552857Y-81728571D01*
X192195714Y-81728571D01*
X191981428Y-81800000D01*
X191838571Y-81942857D01*
X191767142Y-82085714D01*
X191695714Y-82371428D01*
X191695714Y-82585714D01*
X191767142Y-82871428D01*
X191838571Y-83014285D01*
X191981428Y-83157142D01*
X192195714Y-83228571D01*
X192552857Y-83228571D01*
X190481428Y-83157142D02*
X190624285Y-83228571D01*
X190910000Y-83228571D01*
X191052857Y-83157142D01*
X191124285Y-83014285D01*
X191124285Y-82442857D01*
X191052857Y-82300000D01*
X190910000Y-82228571D01*
X190624285Y-82228571D01*
X190481428Y-82300000D01*
X190410000Y-82442857D01*
X190410000Y-82585714D01*
X191124285Y-82728571D01*
X189838571Y-83157142D02*
X189695714Y-83228571D01*
X189410000Y-83228571D01*
X189267142Y-83157142D01*
X189195714Y-83014285D01*
X189195714Y-82942857D01*
X189267142Y-82800000D01*
X189410000Y-82728571D01*
X189624285Y-82728571D01*
X189767142Y-82657142D01*
X189838571Y-82514285D01*
X189838571Y-82442857D01*
X189767142Y-82300000D01*
X189624285Y-82228571D01*
X189410000Y-82228571D01*
X189267142Y-82300000D01*
X188552857Y-83228571D02*
X188552857Y-82228571D01*
X188552857Y-81728571D02*
X188624285Y-81800000D01*
X188552857Y-81871428D01*
X188481428Y-81800000D01*
X188552857Y-81728571D01*
X188552857Y-81871428D01*
X187195714Y-82228571D02*
X187195714Y-83442857D01*
X187267142Y-83585714D01*
X187338571Y-83657142D01*
X187481428Y-83728571D01*
X187695714Y-83728571D01*
X187838571Y-83657142D01*
X187195714Y-83157142D02*
X187338571Y-83228571D01*
X187624285Y-83228571D01*
X187767142Y-83157142D01*
X187838571Y-83085714D01*
X187910000Y-82942857D01*
X187910000Y-82514285D01*
X187838571Y-82371428D01*
X187767142Y-82300000D01*
X187624285Y-82228571D01*
X187338571Y-82228571D01*
X187195714Y-82300000D01*
X186481428Y-82228571D02*
X186481428Y-83228571D01*
X186481428Y-82371428D02*
X186410000Y-82300000D01*
X186267142Y-82228571D01*
X186052857Y-82228571D01*
X185910000Y-82300000D01*
X185838571Y-82442857D01*
X185838571Y-83228571D01*
X184552857Y-83157142D02*
X184695714Y-83228571D01*
X184981428Y-83228571D01*
X185124285Y-83157142D01*
X185195714Y-83014285D01*
X185195714Y-82442857D01*
X185124285Y-82300000D01*
X184981428Y-82228571D01*
X184695714Y-82228571D01*
X184552857Y-82300000D01*
X184481428Y-82442857D01*
X184481428Y-82585714D01*
X185195714Y-82728571D01*
X183195714Y-83228571D02*
X183195714Y-81728571D01*
X183195714Y-83157142D02*
X183338571Y-83228571D01*
X183624285Y-83228571D01*
X183767142Y-83157142D01*
X183838571Y-83085714D01*
X183910000Y-82942857D01*
X183910000Y-82514285D01*
X183838571Y-82371428D01*
X183767142Y-82300000D01*
X183624285Y-82228571D01*
X183338571Y-82228571D01*
X183195714Y-82300000D01*
X181552857Y-82228571D02*
X180981428Y-82228571D01*
X181338571Y-83228571D02*
X181338571Y-81942857D01*
X181267142Y-81800000D01*
X181124285Y-81728571D01*
X180981428Y-81728571D01*
X180267142Y-83228571D02*
X180410000Y-83157142D01*
X180481428Y-83085714D01*
X180552857Y-82942857D01*
X180552857Y-82514285D01*
X180481428Y-82371428D01*
X180410000Y-82300000D01*
X180267142Y-82228571D01*
X180052857Y-82228571D01*
X179910000Y-82300000D01*
X179838571Y-82371428D01*
X179767142Y-82514285D01*
X179767142Y-82942857D01*
X179838571Y-83085714D01*
X179910000Y-83157142D01*
X180052857Y-83228571D01*
X180267142Y-83228571D01*
X179124285Y-83228571D02*
X179124285Y-82228571D01*
X179124285Y-82514285D02*
X179052857Y-82371428D01*
X178981428Y-82300000D01*
X178838571Y-82228571D01*
X178695714Y-82228571D01*
D10*
X134527714Y-98332857D02*
X134299142Y-98332857D01*
X134184857Y-98275714D01*
X134127714Y-98218571D01*
X134013428Y-98047142D01*
X133956285Y-97818571D01*
X133956285Y-97361428D01*
X134013428Y-97247142D01*
X134070571Y-97190000D01*
X134184857Y-97132857D01*
X134413428Y-97132857D01*
X134527714Y-97190000D01*
X134584857Y-97247142D01*
X134642000Y-97361428D01*
X134642000Y-97647142D01*
X134584857Y-97761428D01*
X134527714Y-97818571D01*
X134413428Y-97875714D01*
X134184857Y-97875714D01*
X134070571Y-97818571D01*
X134013428Y-97761428D01*
X133956285Y-97647142D01*
X133442000Y-98218571D02*
X133384857Y-98275714D01*
X133442000Y-98332857D01*
X133499142Y-98275714D01*
X133442000Y-98218571D01*
X133442000Y-98332857D01*
X132242000Y-98332857D02*
X132927714Y-98332857D01*
X132584857Y-98332857D02*
X132584857Y-97132857D01*
X132699142Y-97304285D01*
X132813428Y-97418571D01*
X132927714Y-97475714D01*
X131727714Y-98332857D02*
X131727714Y-97132857D01*
X131042000Y-98332857D02*
X131556285Y-97647142D01*
X131042000Y-97132857D02*
X131727714Y-97818571D01*
D12*
G36*
X177692660Y-88638163D02*
G01*
X177480983Y-88791998D01*
X177383196Y-89060244D01*
X177373936Y-89211072D01*
X177412291Y-89524831D01*
X177507112Y-89834556D01*
X177532979Y-89890151D01*
X177786296Y-90255278D01*
X178130707Y-90573298D01*
X178522418Y-90814114D01*
X178917637Y-90947633D01*
X179096726Y-90964774D01*
X179324666Y-90964774D01*
X178316194Y-88591844D01*
X178027167Y-88590244D01*
X177692660Y-88638163D01*
G37*
X177692660Y-88638163D02*
X177480983Y-88791998D01*
X177383196Y-89060244D01*
X177373936Y-89211072D01*
X177412291Y-89524831D01*
X177507112Y-89834556D01*
X177532979Y-89890151D01*
X177786296Y-90255278D01*
X178130707Y-90573298D01*
X178522418Y-90814114D01*
X178917637Y-90947633D01*
X179096726Y-90964774D01*
X179324666Y-90964774D01*
X178316194Y-88591844D01*
X178027167Y-88590244D01*
X177692660Y-88638163D01*
G36*
X166042850Y-88658964D02*
G01*
X165955090Y-88761455D01*
X165853776Y-88960348D01*
X165831389Y-89184341D01*
X165889421Y-89475233D01*
X165991268Y-89774914D01*
X166205613Y-90219623D01*
X166471703Y-90573659D01*
X166768934Y-90823030D01*
X167076701Y-90953747D01*
X167374401Y-90951817D01*
X167580143Y-90853833D01*
X167698554Y-90672961D01*
X167729843Y-90396076D01*
X167684340Y-90058909D01*
X167572376Y-89697193D01*
X167404283Y-89346658D01*
X167190390Y-89043036D01*
X167005805Y-88867353D01*
X166742918Y-88717081D01*
X166454414Y-88620642D01*
X166408803Y-88612935D01*
X166181886Y-88600971D01*
X166042850Y-88658964D01*
G37*
X166042850Y-88658964D02*
X165955090Y-88761455D01*
X165853776Y-88960348D01*
X165831389Y-89184341D01*
X165889421Y-89475233D01*
X165991268Y-89774914D01*
X166205613Y-90219623D01*
X166471703Y-90573659D01*
X166768934Y-90823030D01*
X167076701Y-90953747D01*
X167374401Y-90951817D01*
X167580143Y-90853833D01*
X167698554Y-90672961D01*
X167729843Y-90396076D01*
X167684340Y-90058909D01*
X167572376Y-89697193D01*
X167404283Y-89346658D01*
X167190390Y-89043036D01*
X167005805Y-88867353D01*
X166742918Y-88717081D01*
X166454414Y-88620642D01*
X166408803Y-88612935D01*
X166181886Y-88600971D01*
X166042850Y-88658964D01*
G36*
X184939312Y-93286280D02*
G01*
X184950559Y-93334990D01*
X184993936Y-93340903D01*
X185061378Y-93310924D01*
X185048559Y-93286280D01*
X184951321Y-93276474D01*
X184939312Y-93286280D01*
G37*
X184939312Y-93286280D02*
X184950559Y-93334990D01*
X184993936Y-93340903D01*
X185061378Y-93310924D01*
X185048559Y-93286280D01*
X184951321Y-93276474D01*
X184939312Y-93286280D01*
G36*
X189070860Y-92851854D02*
G01*
X189028571Y-93031032D01*
X189013114Y-93299936D01*
X189130782Y-93054129D01*
X189237748Y-92830679D01*
X189162439Y-92780665D01*
X189070860Y-92851854D01*
G37*
X189070860Y-92851854D02*
X189028571Y-93031032D01*
X189013114Y-93299936D01*
X189130782Y-93054129D01*
X189237748Y-92830679D01*
X189162439Y-92780665D01*
X189070860Y-92851854D01*
G36*
X161806194Y-94406065D02*
G01*
X192777806Y-94406065D01*
X192777806Y-92845032D01*
X191940025Y-92845032D01*
X191872984Y-92987443D01*
X191716291Y-93091115D01*
X191452098Y-93163050D01*
X191062556Y-93210250D01*
X190529817Y-93239716D01*
X190441504Y-93242869D01*
X189349421Y-93279907D01*
X189322485Y-93044815D01*
X189260275Y-92845640D01*
X189246711Y-92836632D01*
X189231032Y-93091877D01*
X189201291Y-93260949D01*
X189118565Y-93374706D01*
X188955655Y-93444350D01*
X188685362Y-93481083D01*
X188280488Y-93496107D01*
X188248299Y-93496607D01*
X187921022Y-93512659D01*
X187729703Y-93552779D01*
X187647456Y-93622738D01*
X187646213Y-93625823D01*
X187581447Y-93691701D01*
X187430361Y-93723577D01*
X187160380Y-93726602D01*
X187037549Y-93722053D01*
X186707321Y-93718096D01*
X186514348Y-93744412D01*
X186434236Y-93804386D01*
X186433659Y-93805844D01*
X186327372Y-93905801D01*
X186158783Y-93884624D01*
X185964985Y-93751460D01*
X185891382Y-93672115D01*
X185744741Y-93523702D01*
X185583813Y-93450896D01*
X185341996Y-93427474D01*
X185267054Y-93426308D01*
X184991239Y-93404598D01*
X184824249Y-93350372D01*
X184795925Y-93320419D01*
X184742115Y-93260164D01*
X184700333Y-93320419D01*
X184606818Y-93415011D01*
X184572595Y-93422839D01*
X184530036Y-93372238D01*
X184543290Y-93340903D01*
X184536794Y-93265401D01*
X184507158Y-93258968D01*
X184423722Y-93318446D01*
X184420387Y-93340903D01*
X184357399Y-93419690D01*
X184333616Y-93422839D01*
X184284681Y-93372642D01*
X184297484Y-93340903D01*
X184290988Y-93265401D01*
X184261352Y-93258968D01*
X184179916Y-93323680D01*
X184173326Y-93361387D01*
X184144821Y-93404323D01*
X184091391Y-93340903D01*
X184014263Y-93259196D01*
X183940958Y-93324508D01*
X183930029Y-93340903D01*
X183862819Y-93407767D01*
X183848093Y-93361387D01*
X183808529Y-93272550D01*
X183785387Y-93268671D01*
X183682968Y-93267407D01*
X183597236Y-93265774D01*
X183358157Y-93263872D01*
X182976252Y-93261733D01*
X182462043Y-93259395D01*
X181826055Y-93256892D01*
X181078808Y-93254258D01*
X180230826Y-93251530D01*
X179292632Y-93248741D01*
X178274747Y-93245928D01*
X177187694Y-93243125D01*
X176041996Y-93240368D01*
X174848176Y-93237691D01*
X174629097Y-93237220D01*
X173217544Y-93234109D01*
X171960554Y-93231024D01*
X170848821Y-93227797D01*
X169873036Y-93224257D01*
X169023893Y-93220237D01*
X168292084Y-93215565D01*
X167668302Y-93210072D01*
X167143238Y-93203589D01*
X166707587Y-93195947D01*
X166352041Y-93186975D01*
X166067291Y-93176504D01*
X165844032Y-93164366D01*
X165672955Y-93150389D01*
X165544753Y-93134406D01*
X165450119Y-93116245D01*
X165379746Y-93095738D01*
X165324326Y-93072715D01*
X165313734Y-93067554D01*
X165085413Y-92922539D01*
X164908757Y-92757087D01*
X164886466Y-92726627D01*
X164819364Y-92591610D01*
X164706506Y-92327677D01*
X164555928Y-91956284D01*
X164375664Y-91498885D01*
X164173748Y-90976938D01*
X163958216Y-90411897D01*
X163737101Y-89825218D01*
X163518440Y-89238357D01*
X163310266Y-88672769D01*
X163120614Y-88149910D01*
X162957519Y-87691235D01*
X162829016Y-87318200D01*
X162743140Y-87052261D01*
X162707924Y-86914873D01*
X162707484Y-86907960D01*
X162727336Y-86759513D01*
X162799464Y-86644897D01*
X162942730Y-86558882D01*
X163175993Y-86496237D01*
X163518112Y-86451734D01*
X163987949Y-86420141D01*
X164546210Y-86398079D01*
X165982932Y-86351656D01*
X166106821Y-86648164D01*
X166186860Y-86859871D01*
X166228865Y-87010287D01*
X166230710Y-87029239D01*
X166151453Y-87069132D01*
X165923734Y-87097151D01*
X165562627Y-87111875D01*
X165334753Y-87113806D01*
X164828000Y-87122061D01*
X164463994Y-87150665D01*
X164222264Y-87205375D01*
X164082338Y-87291952D01*
X164023743Y-87416153D01*
X164018452Y-87484069D01*
X164046764Y-87610820D01*
X164125631Y-87865489D01*
X164245954Y-88223369D01*
X164398628Y-88659754D01*
X164574554Y-89149935D01*
X164764629Y-89669205D01*
X164959752Y-90192858D01*
X165150820Y-90696186D01*
X165328733Y-91154481D01*
X165484388Y-91543037D01*
X165608684Y-91837145D01*
X165672706Y-91974682D01*
X165715615Y-92066025D01*
X165753172Y-92147389D01*
X165794581Y-92219373D01*
X165849043Y-92282577D01*
X165925760Y-92337601D01*
X166033935Y-92385043D01*
X166182770Y-92425503D01*
X166381468Y-92459580D01*
X166639230Y-92487875D01*
X166965260Y-92510987D01*
X167368759Y-92529515D01*
X167858929Y-92544058D01*
X168444974Y-92555217D01*
X169136095Y-92563590D01*
X169941495Y-92569777D01*
X170870376Y-92574379D01*
X171931940Y-92577993D01*
X173135389Y-92581220D01*
X174489927Y-92584659D01*
X175059258Y-92586182D01*
X176561675Y-92589553D01*
X177929229Y-92591067D01*
X179158903Y-92590744D01*
X180247680Y-92588604D01*
X181192542Y-92584666D01*
X181990472Y-92578951D01*
X182638452Y-92571477D01*
X183133465Y-92562263D01*
X183472493Y-92551331D01*
X183652519Y-92538699D01*
X183682968Y-92530156D01*
X183751137Y-92483285D01*
X183887806Y-92487609D01*
X184052398Y-92482694D01*
X184093900Y-92420731D01*
X184120296Y-92373938D01*
X184175835Y-92439613D01*
X184252963Y-92521320D01*
X184326268Y-92456009D01*
X184337197Y-92439613D01*
X184403341Y-92378362D01*
X184419132Y-92408887D01*
X184490214Y-92478187D01*
X184625226Y-92501065D01*
X184779655Y-92469502D01*
X184831319Y-92408887D01*
X184868210Y-92385126D01*
X184919493Y-92439613D01*
X185001260Y-92513801D01*
X185047969Y-92460097D01*
X185150050Y-92393423D01*
X185351331Y-92359071D01*
X185404494Y-92357677D01*
X185665539Y-92321641D01*
X185847206Y-92192753D01*
X185880587Y-92152839D01*
X186034228Y-92024723D01*
X186217598Y-91954850D01*
X186378549Y-91951957D01*
X186464932Y-92024779D01*
X186468774Y-92054303D01*
X186513225Y-92111974D01*
X186663722Y-92136059D01*
X186945979Y-92129994D01*
X187007787Y-92126283D01*
X187344947Y-92120383D01*
X187569574Y-92149684D01*
X187638690Y-92183852D01*
X187764479Y-92232131D01*
X187999372Y-92265411D01*
X188246774Y-92275742D01*
X188562108Y-92287808D01*
X188765636Y-92332416D01*
X188908208Y-92422177D01*
X188933231Y-92446005D01*
X189035763Y-92531750D01*
X189156188Y-92576539D01*
X189338652Y-92586608D01*
X189627306Y-92568197D01*
X189732101Y-92558885D01*
X190141350Y-92511784D01*
X190411945Y-92452042D01*
X190569093Y-92368641D01*
X190638004Y-92250562D01*
X190647484Y-92158783D01*
X190618083Y-92023372D01*
X190536134Y-91760775D01*
X190411020Y-91395524D01*
X190340230Y-91197994D01*
X190098593Y-91197994D01*
X189819974Y-91367852D01*
X189434583Y-91510556D01*
X188997699Y-91514915D01*
X188800273Y-91456387D01*
X184979559Y-91456387D01*
X184042461Y-91456387D01*
X182610505Y-91456387D01*
X181669870Y-91456387D01*
X180242147Y-91456387D01*
X179473827Y-91456387D01*
X179016509Y-91440774D01*
X178626451Y-91397496D01*
X178366563Y-91336801D01*
X177807472Y-91060682D01*
X177535861Y-90838802D01*
X176570067Y-90838802D01*
X176560101Y-91044885D01*
X176491433Y-91199716D01*
X176366711Y-91322491D01*
X176281927Y-91379220D01*
X175917208Y-91511169D01*
X175494079Y-91516257D01*
X175279924Y-91456387D01*
X173754398Y-91456387D01*
X173052977Y-91456387D01*
X172286634Y-91456387D01*
X171662809Y-91456387D01*
X171179501Y-90315021D01*
X170696194Y-89173654D01*
X170524970Y-89843892D01*
X170384966Y-90388027D01*
X170275848Y-90793572D01*
X170188626Y-91080882D01*
X170114307Y-91270309D01*
X170043899Y-91382210D01*
X169968411Y-91436937D01*
X169878852Y-91454846D01*
X169812639Y-91456387D01*
X169548179Y-91456387D01*
X169025353Y-90246773D01*
X168479825Y-90246773D01*
X168476479Y-90666229D01*
X168351200Y-91030686D01*
X168101917Y-91318413D01*
X168017737Y-91377219D01*
X167685114Y-91498640D01*
X167276642Y-91514010D01*
X166840014Y-91424940D01*
X166599419Y-91329299D01*
X166207025Y-91075613D01*
X165822557Y-90709379D01*
X165491530Y-90277550D01*
X165359484Y-90050170D01*
X165206173Y-89688961D01*
X165138699Y-89329128D01*
X165129148Y-89102520D01*
X165134363Y-88809823D01*
X165170392Y-88619262D01*
X165258030Y-88469408D01*
X165392649Y-88324133D01*
X165557701Y-88174376D01*
X165710865Y-88094067D01*
X165913657Y-88062148D01*
X166172026Y-88057338D01*
X166643802Y-88112371D01*
X167073892Y-88285284D01*
X167492689Y-88591555D01*
X167779014Y-88875721D01*
X168129019Y-89329788D01*
X168363314Y-89794049D01*
X168479825Y-90246773D01*
X169025353Y-90246773D01*
X168852186Y-89846133D01*
X168645221Y-89367018D01*
X168460182Y-88938126D01*
X168306983Y-88582484D01*
X168195539Y-88323117D01*
X168135766Y-88183049D01*
X168128882Y-88166456D01*
X168182833Y-88122797D01*
X168350828Y-88099389D01*
X168415656Y-88098082D01*
X168729742Y-88099131D01*
X169698004Y-90395107D01*
X169890070Y-89635263D01*
X169991434Y-89247767D01*
X170096050Y-88869943D01*
X170186299Y-88564744D01*
X170212918Y-88481639D01*
X170298601Y-88248980D01*
X170378936Y-88136486D01*
X170493008Y-88106590D01*
X170596513Y-88112930D01*
X170671362Y-88125793D01*
X170741356Y-88158239D01*
X170814068Y-88224793D01*
X170897069Y-88339981D01*
X170997933Y-88518328D01*
X171124231Y-88774359D01*
X171283535Y-89122601D01*
X171483418Y-89577578D01*
X171731451Y-90153816D01*
X172035208Y-90865840D01*
X172051167Y-90903323D01*
X172286634Y-91456387D01*
X173052977Y-91456387D01*
X172345714Y-89819289D01*
X172138671Y-89337966D01*
X171955550Y-88908276D01*
X171805752Y-88552606D01*
X171698678Y-88293349D01*
X171643731Y-88152892D01*
X171638452Y-88134900D01*
X171711105Y-88111250D01*
X171893684Y-88107897D01*
X171982927Y-88112805D01*
X172327403Y-88138000D01*
X173040900Y-89797194D01*
X173754398Y-91456387D01*
X175279924Y-91456387D01*
X175058021Y-91394351D01*
X175032153Y-91382864D01*
X174752502Y-91229806D01*
X174508051Y-91030373D01*
X174281501Y-90761317D01*
X174055552Y-90399387D01*
X173812905Y-89921332D01*
X173607710Y-89468388D01*
X173428605Y-89059151D01*
X173271403Y-88699029D01*
X173148532Y-88416564D01*
X173072420Y-88240299D01*
X173055190Y-88199452D01*
X173084178Y-88128362D01*
X173255641Y-88098626D01*
X173336864Y-88097032D01*
X173659905Y-88097032D01*
X174139187Y-89223645D01*
X174414975Y-89835804D01*
X174662053Y-90301115D01*
X174890257Y-90632001D01*
X175109424Y-90840888D01*
X175329390Y-90940199D01*
X175505764Y-90949790D01*
X175675452Y-90907916D01*
X175774704Y-90810449D01*
X175802035Y-90640707D01*
X175755961Y-90382004D01*
X175634996Y-90017655D01*
X175437656Y-89530977D01*
X175364356Y-89360961D01*
X175194559Y-88970728D01*
X175046495Y-88630114D01*
X174933346Y-88369466D01*
X174868294Y-88219132D01*
X174859861Y-88199452D01*
X174884701Y-88131460D01*
X175045574Y-88100428D01*
X175175724Y-88097032D01*
X175535046Y-88097032D01*
X175969935Y-89118030D01*
X176221264Y-89721082D01*
X176403297Y-90196097D01*
X176518682Y-90562272D01*
X176570067Y-90838802D01*
X177535861Y-90838802D01*
X177325138Y-90666662D01*
X176944603Y-90182690D01*
X176690908Y-89636710D01*
X176628521Y-89397211D01*
X176581215Y-89105286D01*
X176586175Y-88898665D01*
X176647800Y-88705926D01*
X176674724Y-88647001D01*
X176831501Y-88408766D01*
X177054504Y-88245578D01*
X177370204Y-88147119D01*
X177805074Y-88103073D01*
X178082770Y-88098240D01*
X178807806Y-88099447D01*
X179422323Y-89538844D01*
X179621917Y-90006288D01*
X179805656Y-90436468D01*
X179961370Y-90800901D01*
X180076891Y-91071108D01*
X180139493Y-91217314D01*
X180242147Y-91456387D01*
X181669870Y-91456387D01*
X181265755Y-91455222D01*
X180995191Y-91447563D01*
X180827859Y-91427167D01*
X180733439Y-91387789D01*
X180681611Y-91323185D01*
X180649327Y-91246214D01*
X180590487Y-91079867D01*
X180569419Y-91000408D01*
X180644396Y-90982748D01*
X180841520Y-90970002D01*
X181119085Y-90964790D01*
X181136061Y-90964774D01*
X181702702Y-90964774D01*
X181485422Y-90473161D01*
X181268143Y-89981548D01*
X180797982Y-89981548D01*
X180527245Y-89974797D01*
X180368934Y-89940397D01*
X180271728Y-89857128D01*
X180199949Y-89734270D01*
X180121655Y-89562766D01*
X180127351Y-89479376D01*
X180196731Y-89439157D01*
X180353137Y-89415609D01*
X180592526Y-89414878D01*
X180675684Y-89420145D01*
X181029981Y-89448968D01*
X180692323Y-88588970D01*
X180178198Y-88588808D01*
X179893840Y-88583207D01*
X179729231Y-88556240D01*
X179640349Y-88492320D01*
X179584166Y-88378472D01*
X179525266Y-88211004D01*
X179504258Y-88129800D01*
X179580414Y-88115914D01*
X179786005Y-88108905D01*
X180086714Y-88109395D01*
X180339647Y-88114650D01*
X181175035Y-88138000D01*
X181640491Y-89203161D01*
X181836239Y-89652375D01*
X182034015Y-90108405D01*
X182211908Y-90520604D01*
X182348011Y-90838324D01*
X182358226Y-90862355D01*
X182610505Y-91456387D01*
X184042461Y-91456387D01*
X183639233Y-91455210D01*
X183369488Y-91447491D01*
X183202840Y-91426951D01*
X183108902Y-91387310D01*
X183057288Y-91322288D01*
X183025456Y-91246214D01*
X182966616Y-91079867D01*
X182945548Y-91000408D01*
X183020525Y-90982748D01*
X183217649Y-90970002D01*
X183495214Y-90964790D01*
X183512190Y-90964774D01*
X184078831Y-90964774D01*
X183861551Y-90473161D01*
X183644272Y-89981548D01*
X183174111Y-89981548D01*
X182903374Y-89974797D01*
X182745063Y-89940397D01*
X182647857Y-89857128D01*
X182576078Y-89734270D01*
X182497784Y-89562766D01*
X182503481Y-89479376D01*
X182572860Y-89439157D01*
X182728786Y-89415704D01*
X182968683Y-89414707D01*
X183056787Y-89420145D01*
X183416059Y-89448968D01*
X183236835Y-89039290D01*
X183057611Y-88629613D01*
X182547385Y-88605127D01*
X182262159Y-88584772D01*
X182096753Y-88546735D01*
X182007115Y-88473754D01*
X181958773Y-88374471D01*
X181900565Y-88208590D01*
X181880387Y-88129800D01*
X181956545Y-88115917D01*
X182162146Y-88108907D01*
X182462881Y-88109391D01*
X182716177Y-88114650D01*
X183551967Y-88138000D01*
X184265763Y-89797194D01*
X184979559Y-91456387D01*
X188800273Y-91456387D01*
X188553495Y-91383229D01*
X187602215Y-91383229D01*
X187546729Y-91426990D01*
X187374902Y-91452434D01*
X187274473Y-91455149D01*
X186919419Y-91453910D01*
X186305651Y-90021278D01*
X186083106Y-89506549D01*
X185910304Y-89125758D01*
X185774364Y-88861412D01*
X185662403Y-88696017D01*
X185561541Y-88612077D01*
X185458897Y-88592100D01*
X185341590Y-88618589D01*
X185287411Y-88638379D01*
X185164572Y-88754841D01*
X185149852Y-88940678D01*
X185224665Y-89161344D01*
X185370423Y-89382294D01*
X185568540Y-89568982D01*
X185800429Y-89686863D01*
X185859197Y-89701107D01*
X186046487Y-89749452D01*
X186139836Y-89799408D01*
X186142151Y-89806312D01*
X186162169Y-89918194D01*
X186195950Y-90055524D01*
X186218770Y-90176556D01*
X186174392Y-90223978D01*
X186025090Y-90215824D01*
X185900538Y-90196740D01*
X185413237Y-90056460D01*
X184995008Y-89814939D01*
X184674265Y-89495363D01*
X184479422Y-89120918D01*
X184452396Y-89014978D01*
X184429817Y-88665185D01*
X184526181Y-88405030D01*
X184749571Y-88227982D01*
X185108064Y-88127508D01*
X185587998Y-88097032D01*
X186190198Y-88097032D01*
X186882551Y-89703552D01*
X187088759Y-90182473D01*
X187273081Y-90611402D01*
X187425604Y-90967200D01*
X187536414Y-91226729D01*
X187595597Y-91366852D01*
X187602215Y-91383229D01*
X188553495Y-91383229D01*
X188550023Y-91382200D01*
X188183452Y-91134319D01*
X187920658Y-90787406D01*
X187808164Y-90471886D01*
X187799432Y-90279282D01*
X187855891Y-90046606D01*
X187989198Y-89729932D01*
X188024928Y-89655090D01*
X188178579Y-89303493D01*
X188246049Y-89052850D01*
X188239354Y-88881976D01*
X188111965Y-88671855D01*
X187891050Y-88556105D01*
X187630449Y-88557417D01*
X187542742Y-88588390D01*
X187387559Y-88633406D01*
X187255670Y-88581667D01*
X187135143Y-88472903D01*
X186928222Y-88265981D01*
X187228447Y-88140539D01*
X187597757Y-88032198D01*
X187941693Y-88045857D01*
X188323366Y-88184346D01*
X188335428Y-88190153D01*
X188671945Y-88420436D01*
X188904754Y-88719219D01*
X189006256Y-89049065D01*
X189008468Y-89103078D01*
X188972068Y-89293514D01*
X188876840Y-89564661D01*
X188758074Y-89827372D01*
X188593058Y-90222501D01*
X188551071Y-90524598D01*
X188634086Y-90751083D01*
X188844078Y-90919374D01*
X188884066Y-90939447D01*
X189081791Y-91018184D01*
X189235458Y-91013944D01*
X189425663Y-90932490D01*
X189611689Y-90850108D01*
X189730129Y-90855045D01*
X189858207Y-90957920D01*
X189898039Y-90997441D01*
X190098593Y-91197994D01*
X190340230Y-91197994D01*
X190252125Y-90952151D01*
X190068829Y-90455189D01*
X189870517Y-89929168D01*
X189666570Y-89398623D01*
X189466372Y-88888084D01*
X189279305Y-88422083D01*
X189114752Y-88025154D01*
X188982094Y-87721827D01*
X188890716Y-87536635D01*
X188864642Y-87497320D01*
X188808641Y-87434364D01*
X188752823Y-87378702D01*
X188687297Y-87329886D01*
X188602171Y-87287465D01*
X188487554Y-87250991D01*
X188333553Y-87220015D01*
X188130276Y-87194089D01*
X187867834Y-87172764D01*
X187536333Y-87155590D01*
X187125881Y-87142119D01*
X186626588Y-87131902D01*
X186028562Y-87124490D01*
X185321910Y-87119434D01*
X184496742Y-87116285D01*
X183543165Y-87114595D01*
X182451288Y-87113915D01*
X181211219Y-87113796D01*
X180413016Y-87113806D01*
X178938810Y-87114671D01*
X177613727Y-87117254D01*
X176439427Y-87121538D01*
X175417570Y-87127506D01*
X174549816Y-87135139D01*
X173837823Y-87144421D01*
X173283253Y-87155335D01*
X172887764Y-87167862D01*
X172653016Y-87181986D01*
X172580710Y-87195742D01*
X172476417Y-87241867D01*
X172263704Y-87271586D01*
X172096226Y-87277677D01*
X171800397Y-87295821D01*
X171596930Y-87364621D01*
X171441356Y-87482516D01*
X171209273Y-87635367D01*
X170919775Y-87686650D01*
X170869499Y-87687355D01*
X170641077Y-87675716D01*
X170488603Y-87646537D01*
X170464577Y-87633265D01*
X170361249Y-87608868D01*
X170140975Y-87596021D01*
X169850437Y-87597357D01*
X169835949Y-87597810D01*
X169518420Y-87600422D01*
X169329429Y-87578728D01*
X169234663Y-87526688D01*
X169212132Y-87488028D01*
X169118177Y-87401485D01*
X168904684Y-87363227D01*
X168766779Y-87359613D01*
X168524095Y-87342679D01*
X168354986Y-87299655D01*
X168315961Y-87271038D01*
X168203722Y-87219997D01*
X168071832Y-87229997D01*
X167894693Y-87222866D01*
X167664197Y-87155340D01*
X167449095Y-87054256D01*
X167318137Y-86946449D01*
X167310672Y-86932887D01*
X167227212Y-86927854D01*
X167040397Y-86976679D01*
X166877478Y-87035307D01*
X166643349Y-87125018D01*
X166478856Y-87183246D01*
X166432515Y-87195742D01*
X166411735Y-87121615D01*
X166397956Y-86930407D01*
X166394581Y-86745097D01*
X166407211Y-86467450D01*
X166465083Y-86325100D01*
X166598173Y-86300278D01*
X166836452Y-86375215D01*
X166944283Y-86419228D01*
X167143901Y-86483418D01*
X167273655Y-86489768D01*
X167289878Y-86479012D01*
X167463811Y-86352127D01*
X167766877Y-86249083D01*
X168164963Y-86179428D01*
X168438699Y-86157469D01*
X168788485Y-86130661D01*
X169019928Y-86082543D01*
X169178268Y-86001560D01*
X169234730Y-85954145D01*
X169371920Y-85851531D01*
X169530795Y-85811424D01*
X169772894Y-85821520D01*
X169853515Y-85830433D01*
X170149045Y-85849781D01*
X170436836Y-85843565D01*
X170677110Y-85816147D01*
X170830091Y-85771891D01*
X170859554Y-85720077D01*
X170875881Y-85619280D01*
X170968454Y-85473428D01*
X171091715Y-85337820D01*
X171200108Y-85267755D01*
X171229674Y-85270814D01*
X171328856Y-85256531D01*
X171351082Y-85230254D01*
X171432395Y-85232997D01*
X171585934Y-85316712D01*
X171766992Y-85447568D01*
X171930860Y-85591734D01*
X172032829Y-85715379D01*
X172046652Y-85756590D01*
X171996431Y-85864818D01*
X171873252Y-86019379D01*
X171869976Y-86022880D01*
X171691822Y-86212516D01*
X172099395Y-86212516D01*
X172351829Y-86227517D01*
X172536915Y-86265685D01*
X172586558Y-86292106D01*
X172682023Y-86306085D01*
X172936620Y-86319340D01*
X173345610Y-86331813D01*
X173904256Y-86343446D01*
X174607818Y-86354179D01*
X175451559Y-86363955D01*
X176430741Y-86372715D01*
X177540625Y-86380399D01*
X178776474Y-86386949D01*
X180133549Y-86392307D01*
X180857945Y-86394526D01*
X182197483Y-86398325D01*
X183382938Y-86401954D01*
X184424098Y-86405628D01*
X185330749Y-86409562D01*
X186112680Y-86413973D01*
X186779677Y-86419075D01*
X187341529Y-86425086D01*
X187808022Y-86432221D01*
X188188944Y-86440694D01*
X188494083Y-86450723D01*
X188733226Y-86462523D01*
X188916160Y-86476309D01*
X189052673Y-86492297D01*
X189152552Y-86510704D01*
X189225586Y-86531744D01*
X189281560Y-86555634D01*
X189327951Y-86581226D01*
X189555981Y-86746173D01*
X189742720Y-86930956D01*
X189757358Y-86949936D01*
X189822179Y-87074980D01*
X189934657Y-87331938D01*
X190086373Y-87698747D01*
X190268907Y-88153341D01*
X190473837Y-88673659D01*
X190692746Y-89237635D01*
X190917211Y-89823207D01*
X191138814Y-90408310D01*
X191349134Y-90970882D01*
X191539751Y-91488858D01*
X191702246Y-91940175D01*
X191828198Y-92302768D01*
X191909187Y-92554576D01*
X191935264Y-92656879D01*
X191940025Y-92845032D01*
X192777806Y-92845032D01*
X192777806Y-84409936D01*
X161806194Y-84409936D01*
X161806194Y-94406065D01*
G37*
X161806194Y-94406065D02*
X192777806Y-94406065D01*
X192777806Y-92845032D01*
X191940025Y-92845032D01*
X191872984Y-92987443D01*
X191716291Y-93091115D01*
X191452098Y-93163050D01*
X191062556Y-93210250D01*
X190529817Y-93239716D01*
X190441504Y-93242869D01*
X189349421Y-93279907D01*
X189322485Y-93044815D01*
X189260275Y-92845640D01*
X189246711Y-92836632D01*
X189231032Y-93091877D01*
X189201291Y-93260949D01*
X189118565Y-93374706D01*
X188955655Y-93444350D01*
X188685362Y-93481083D01*
X188280488Y-93496107D01*
X188248299Y-93496607D01*
X187921022Y-93512659D01*
X187729703Y-93552779D01*
X187647456Y-93622738D01*
X187646213Y-93625823D01*
X187581447Y-93691701D01*
X187430361Y-93723577D01*
X187160380Y-93726602D01*
X187037549Y-93722053D01*
X186707321Y-93718096D01*
X186514348Y-93744412D01*
X186434236Y-93804386D01*
X186433659Y-93805844D01*
X186327372Y-93905801D01*
X186158783Y-93884624D01*
X185964985Y-93751460D01*
X185891382Y-93672115D01*
X185744741Y-93523702D01*
X185583813Y-93450896D01*
X185341996Y-93427474D01*
X185267054Y-93426308D01*
X184991239Y-93404598D01*
X184824249Y-93350372D01*
X184795925Y-93320419D01*
X184742115Y-93260164D01*
X184700333Y-93320419D01*
X184606818Y-93415011D01*
X184572595Y-93422839D01*
X184530036Y-93372238D01*
X184543290Y-93340903D01*
X184536794Y-93265401D01*
X184507158Y-93258968D01*
X184423722Y-93318446D01*
X184420387Y-93340903D01*
X184357399Y-93419690D01*
X184333616Y-93422839D01*
X184284681Y-93372642D01*
X184297484Y-93340903D01*
X184290988Y-93265401D01*
X184261352Y-93258968D01*
X184179916Y-93323680D01*
X184173326Y-93361387D01*
X184144821Y-93404323D01*
X184091391Y-93340903D01*
X184014263Y-93259196D01*
X183940958Y-93324508D01*
X183930029Y-93340903D01*
X183862819Y-93407767D01*
X183848093Y-93361387D01*
X183808529Y-93272550D01*
X183785387Y-93268671D01*
X183682968Y-93267407D01*
X183597236Y-93265774D01*
X183358157Y-93263872D01*
X182976252Y-93261733D01*
X182462043Y-93259395D01*
X181826055Y-93256892D01*
X181078808Y-93254258D01*
X180230826Y-93251530D01*
X179292632Y-93248741D01*
X178274747Y-93245928D01*
X177187694Y-93243125D01*
X176041996Y-93240368D01*
X174848176Y-93237691D01*
X174629097Y-93237220D01*
X173217544Y-93234109D01*
X171960554Y-93231024D01*
X170848821Y-93227797D01*
X169873036Y-93224257D01*
X169023893Y-93220237D01*
X168292084Y-93215565D01*
X167668302Y-93210072D01*
X167143238Y-93203589D01*
X166707587Y-93195947D01*
X166352041Y-93186975D01*
X166067291Y-93176504D01*
X165844032Y-93164366D01*
X165672955Y-93150389D01*
X165544753Y-93134406D01*
X165450119Y-93116245D01*
X165379746Y-93095738D01*
X165324326Y-93072715D01*
X165313734Y-93067554D01*
X165085413Y-92922539D01*
X164908757Y-92757087D01*
X164886466Y-92726627D01*
X164819364Y-92591610D01*
X164706506Y-92327677D01*
X164555928Y-91956284D01*
X164375664Y-91498885D01*
X164173748Y-90976938D01*
X163958216Y-90411897D01*
X163737101Y-89825218D01*
X163518440Y-89238357D01*
X163310266Y-88672769D01*
X163120614Y-88149910D01*
X162957519Y-87691235D01*
X162829016Y-87318200D01*
X162743140Y-87052261D01*
X162707924Y-86914873D01*
X162707484Y-86907960D01*
X162727336Y-86759513D01*
X162799464Y-86644897D01*
X162942730Y-86558882D01*
X163175993Y-86496237D01*
X163518112Y-86451734D01*
X163987949Y-86420141D01*
X164546210Y-86398079D01*
X165982932Y-86351656D01*
X166106821Y-86648164D01*
X166186860Y-86859871D01*
X166228865Y-87010287D01*
X166230710Y-87029239D01*
X166151453Y-87069132D01*
X165923734Y-87097151D01*
X165562627Y-87111875D01*
X165334753Y-87113806D01*
X164828000Y-87122061D01*
X164463994Y-87150665D01*
X164222264Y-87205375D01*
X164082338Y-87291952D01*
X164023743Y-87416153D01*
X164018452Y-87484069D01*
X164046764Y-87610820D01*
X164125631Y-87865489D01*
X164245954Y-88223369D01*
X164398628Y-88659754D01*
X164574554Y-89149935D01*
X164764629Y-89669205D01*
X164959752Y-90192858D01*
X165150820Y-90696186D01*
X165328733Y-91154481D01*
X165484388Y-91543037D01*
X165608684Y-91837145D01*
X165672706Y-91974682D01*
X165715615Y-92066025D01*
X165753172Y-92147389D01*
X165794581Y-92219373D01*
X165849043Y-92282577D01*
X165925760Y-92337601D01*
X166033935Y-92385043D01*
X166182770Y-92425503D01*
X166381468Y-92459580D01*
X166639230Y-92487875D01*
X166965260Y-92510987D01*
X167368759Y-92529515D01*
X167858929Y-92544058D01*
X168444974Y-92555217D01*
X169136095Y-92563590D01*
X169941495Y-92569777D01*
X170870376Y-92574379D01*
X171931940Y-92577993D01*
X173135389Y-92581220D01*
X174489927Y-92584659D01*
X175059258Y-92586182D01*
X176561675Y-92589553D01*
X177929229Y-92591067D01*
X179158903Y-92590744D01*
X180247680Y-92588604D01*
X181192542Y-92584666D01*
X181990472Y-92578951D01*
X182638452Y-92571477D01*
X183133465Y-92562263D01*
X183472493Y-92551331D01*
X183652519Y-92538699D01*
X183682968Y-92530156D01*
X183751137Y-92483285D01*
X183887806Y-92487609D01*
X184052398Y-92482694D01*
X184093900Y-92420731D01*
X184120296Y-92373938D01*
X184175835Y-92439613D01*
X184252963Y-92521320D01*
X184326268Y-92456009D01*
X184337197Y-92439613D01*
X184403341Y-92378362D01*
X184419132Y-92408887D01*
X184490214Y-92478187D01*
X184625226Y-92501065D01*
X184779655Y-92469502D01*
X184831319Y-92408887D01*
X184868210Y-92385126D01*
X184919493Y-92439613D01*
X185001260Y-92513801D01*
X185047969Y-92460097D01*
X185150050Y-92393423D01*
X185351331Y-92359071D01*
X185404494Y-92357677D01*
X185665539Y-92321641D01*
X185847206Y-92192753D01*
X185880587Y-92152839D01*
X186034228Y-92024723D01*
X186217598Y-91954850D01*
X186378549Y-91951957D01*
X186464932Y-92024779D01*
X186468774Y-92054303D01*
X186513225Y-92111974D01*
X186663722Y-92136059D01*
X186945979Y-92129994D01*
X187007787Y-92126283D01*
X187344947Y-92120383D01*
X187569574Y-92149684D01*
X187638690Y-92183852D01*
X187764479Y-92232131D01*
X187999372Y-92265411D01*
X188246774Y-92275742D01*
X188562108Y-92287808D01*
X188765636Y-92332416D01*
X188908208Y-92422177D01*
X188933231Y-92446005D01*
X189035763Y-92531750D01*
X189156188Y-92576539D01*
X189338652Y-92586608D01*
X189627306Y-92568197D01*
X189732101Y-92558885D01*
X190141350Y-92511784D01*
X190411945Y-92452042D01*
X190569093Y-92368641D01*
X190638004Y-92250562D01*
X190647484Y-92158783D01*
X190618083Y-92023372D01*
X190536134Y-91760775D01*
X190411020Y-91395524D01*
X190340230Y-91197994D01*
X190098593Y-91197994D01*
X189819974Y-91367852D01*
X189434583Y-91510556D01*
X188997699Y-91514915D01*
X188800273Y-91456387D01*
X184979559Y-91456387D01*
X184042461Y-91456387D01*
X182610505Y-91456387D01*
X181669870Y-91456387D01*
X180242147Y-91456387D01*
X179473827Y-91456387D01*
X179016509Y-91440774D01*
X178626451Y-91397496D01*
X178366563Y-91336801D01*
X177807472Y-91060682D01*
X177535861Y-90838802D01*
X176570067Y-90838802D01*
X176560101Y-91044885D01*
X176491433Y-91199716D01*
X176366711Y-91322491D01*
X176281927Y-91379220D01*
X175917208Y-91511169D01*
X175494079Y-91516257D01*
X175279924Y-91456387D01*
X173754398Y-91456387D01*
X173052977Y-91456387D01*
X172286634Y-91456387D01*
X171662809Y-91456387D01*
X171179501Y-90315021D01*
X170696194Y-89173654D01*
X170524970Y-89843892D01*
X170384966Y-90388027D01*
X170275848Y-90793572D01*
X170188626Y-91080882D01*
X170114307Y-91270309D01*
X170043899Y-91382210D01*
X169968411Y-91436937D01*
X169878852Y-91454846D01*
X169812639Y-91456387D01*
X169548179Y-91456387D01*
X169025353Y-90246773D01*
X168479825Y-90246773D01*
X168476479Y-90666229D01*
X168351200Y-91030686D01*
X168101917Y-91318413D01*
X168017737Y-91377219D01*
X167685114Y-91498640D01*
X167276642Y-91514010D01*
X166840014Y-91424940D01*
X166599419Y-91329299D01*
X166207025Y-91075613D01*
X165822557Y-90709379D01*
X165491530Y-90277550D01*
X165359484Y-90050170D01*
X165206173Y-89688961D01*
X165138699Y-89329128D01*
X165129148Y-89102520D01*
X165134363Y-88809823D01*
X165170392Y-88619262D01*
X165258030Y-88469408D01*
X165392649Y-88324133D01*
X165557701Y-88174376D01*
X165710865Y-88094067D01*
X165913657Y-88062148D01*
X166172026Y-88057338D01*
X166643802Y-88112371D01*
X167073892Y-88285284D01*
X167492689Y-88591555D01*
X167779014Y-88875721D01*
X168129019Y-89329788D01*
X168363314Y-89794049D01*
X168479825Y-90246773D01*
X169025353Y-90246773D01*
X168852186Y-89846133D01*
X168645221Y-89367018D01*
X168460182Y-88938126D01*
X168306983Y-88582484D01*
X168195539Y-88323117D01*
X168135766Y-88183049D01*
X168128882Y-88166456D01*
X168182833Y-88122797D01*
X168350828Y-88099389D01*
X168415656Y-88098082D01*
X168729742Y-88099131D01*
X169698004Y-90395107D01*
X169890070Y-89635263D01*
X169991434Y-89247767D01*
X170096050Y-88869943D01*
X170186299Y-88564744D01*
X170212918Y-88481639D01*
X170298601Y-88248980D01*
X170378936Y-88136486D01*
X170493008Y-88106590D01*
X170596513Y-88112930D01*
X170671362Y-88125793D01*
X170741356Y-88158239D01*
X170814068Y-88224793D01*
X170897069Y-88339981D01*
X170997933Y-88518328D01*
X171124231Y-88774359D01*
X171283535Y-89122601D01*
X171483418Y-89577578D01*
X171731451Y-90153816D01*
X172035208Y-90865840D01*
X172051167Y-90903323D01*
X172286634Y-91456387D01*
X173052977Y-91456387D01*
X172345714Y-89819289D01*
X172138671Y-89337966D01*
X171955550Y-88908276D01*
X171805752Y-88552606D01*
X171698678Y-88293349D01*
X171643731Y-88152892D01*
X171638452Y-88134900D01*
X171711105Y-88111250D01*
X171893684Y-88107897D01*
X171982927Y-88112805D01*
X172327403Y-88138000D01*
X173040900Y-89797194D01*
X173754398Y-91456387D01*
X175279924Y-91456387D01*
X175058021Y-91394351D01*
X175032153Y-91382864D01*
X174752502Y-91229806D01*
X174508051Y-91030373D01*
X174281501Y-90761317D01*
X174055552Y-90399387D01*
X173812905Y-89921332D01*
X173607710Y-89468388D01*
X173428605Y-89059151D01*
X173271403Y-88699029D01*
X173148532Y-88416564D01*
X173072420Y-88240299D01*
X173055190Y-88199452D01*
X173084178Y-88128362D01*
X173255641Y-88098626D01*
X173336864Y-88097032D01*
X173659905Y-88097032D01*
X174139187Y-89223645D01*
X174414975Y-89835804D01*
X174662053Y-90301115D01*
X174890257Y-90632001D01*
X175109424Y-90840888D01*
X175329390Y-90940199D01*
X175505764Y-90949790D01*
X175675452Y-90907916D01*
X175774704Y-90810449D01*
X175802035Y-90640707D01*
X175755961Y-90382004D01*
X175634996Y-90017655D01*
X175437656Y-89530977D01*
X175364356Y-89360961D01*
X175194559Y-88970728D01*
X175046495Y-88630114D01*
X174933346Y-88369466D01*
X174868294Y-88219132D01*
X174859861Y-88199452D01*
X174884701Y-88131460D01*
X175045574Y-88100428D01*
X175175724Y-88097032D01*
X175535046Y-88097032D01*
X175969935Y-89118030D01*
X176221264Y-89721082D01*
X176403297Y-90196097D01*
X176518682Y-90562272D01*
X176570067Y-90838802D01*
X177535861Y-90838802D01*
X177325138Y-90666662D01*
X176944603Y-90182690D01*
X176690908Y-89636710D01*
X176628521Y-89397211D01*
X176581215Y-89105286D01*
X176586175Y-88898665D01*
X176647800Y-88705926D01*
X176674724Y-88647001D01*
X176831501Y-88408766D01*
X177054504Y-88245578D01*
X177370204Y-88147119D01*
X177805074Y-88103073D01*
X178082770Y-88098240D01*
X178807806Y-88099447D01*
X179422323Y-89538844D01*
X179621917Y-90006288D01*
X179805656Y-90436468D01*
X179961370Y-90800901D01*
X180076891Y-91071108D01*
X180139493Y-91217314D01*
X180242147Y-91456387D01*
X181669870Y-91456387D01*
X181265755Y-91455222D01*
X180995191Y-91447563D01*
X180827859Y-91427167D01*
X180733439Y-91387789D01*
X180681611Y-91323185D01*
X180649327Y-91246214D01*
X180590487Y-91079867D01*
X180569419Y-91000408D01*
X180644396Y-90982748D01*
X180841520Y-90970002D01*
X181119085Y-90964790D01*
X181136061Y-90964774D01*
X181702702Y-90964774D01*
X181485422Y-90473161D01*
X181268143Y-89981548D01*
X180797982Y-89981548D01*
X180527245Y-89974797D01*
X180368934Y-89940397D01*
X180271728Y-89857128D01*
X180199949Y-89734270D01*
X180121655Y-89562766D01*
X180127351Y-89479376D01*
X180196731Y-89439157D01*
X180353137Y-89415609D01*
X180592526Y-89414878D01*
X180675684Y-89420145D01*
X181029981Y-89448968D01*
X180692323Y-88588970D01*
X180178198Y-88588808D01*
X179893840Y-88583207D01*
X179729231Y-88556240D01*
X179640349Y-88492320D01*
X179584166Y-88378472D01*
X179525266Y-88211004D01*
X179504258Y-88129800D01*
X179580414Y-88115914D01*
X179786005Y-88108905D01*
X180086714Y-88109395D01*
X180339647Y-88114650D01*
X181175035Y-88138000D01*
X181640491Y-89203161D01*
X181836239Y-89652375D01*
X182034015Y-90108405D01*
X182211908Y-90520604D01*
X182348011Y-90838324D01*
X182358226Y-90862355D01*
X182610505Y-91456387D01*
X184042461Y-91456387D01*
X183639233Y-91455210D01*
X183369488Y-91447491D01*
X183202840Y-91426951D01*
X183108902Y-91387310D01*
X183057288Y-91322288D01*
X183025456Y-91246214D01*
X182966616Y-91079867D01*
X182945548Y-91000408D01*
X183020525Y-90982748D01*
X183217649Y-90970002D01*
X183495214Y-90964790D01*
X183512190Y-90964774D01*
X184078831Y-90964774D01*
X183861551Y-90473161D01*
X183644272Y-89981548D01*
X183174111Y-89981548D01*
X182903374Y-89974797D01*
X182745063Y-89940397D01*
X182647857Y-89857128D01*
X182576078Y-89734270D01*
X182497784Y-89562766D01*
X182503481Y-89479376D01*
X182572860Y-89439157D01*
X182728786Y-89415704D01*
X182968683Y-89414707D01*
X183056787Y-89420145D01*
X183416059Y-89448968D01*
X183236835Y-89039290D01*
X183057611Y-88629613D01*
X182547385Y-88605127D01*
X182262159Y-88584772D01*
X182096753Y-88546735D01*
X182007115Y-88473754D01*
X181958773Y-88374471D01*
X181900565Y-88208590D01*
X181880387Y-88129800D01*
X181956545Y-88115917D01*
X182162146Y-88108907D01*
X182462881Y-88109391D01*
X182716177Y-88114650D01*
X183551967Y-88138000D01*
X184265763Y-89797194D01*
X184979559Y-91456387D01*
X188800273Y-91456387D01*
X188553495Y-91383229D01*
X187602215Y-91383229D01*
X187546729Y-91426990D01*
X187374902Y-91452434D01*
X187274473Y-91455149D01*
X186919419Y-91453910D01*
X186305651Y-90021278D01*
X186083106Y-89506549D01*
X185910304Y-89125758D01*
X185774364Y-88861412D01*
X185662403Y-88696017D01*
X185561541Y-88612077D01*
X185458897Y-88592100D01*
X185341590Y-88618589D01*
X185287411Y-88638379D01*
X185164572Y-88754841D01*
X185149852Y-88940678D01*
X185224665Y-89161344D01*
X185370423Y-89382294D01*
X185568540Y-89568982D01*
X185800429Y-89686863D01*
X185859197Y-89701107D01*
X186046487Y-89749452D01*
X186139836Y-89799408D01*
X186142151Y-89806312D01*
X186162169Y-89918194D01*
X186195950Y-90055524D01*
X186218770Y-90176556D01*
X186174392Y-90223978D01*
X186025090Y-90215824D01*
X185900538Y-90196740D01*
X185413237Y-90056460D01*
X184995008Y-89814939D01*
X184674265Y-89495363D01*
X184479422Y-89120918D01*
X184452396Y-89014978D01*
X184429817Y-88665185D01*
X184526181Y-88405030D01*
X184749571Y-88227982D01*
X185108064Y-88127508D01*
X185587998Y-88097032D01*
X186190198Y-88097032D01*
X186882551Y-89703552D01*
X187088759Y-90182473D01*
X187273081Y-90611402D01*
X187425604Y-90967200D01*
X187536414Y-91226729D01*
X187595597Y-91366852D01*
X187602215Y-91383229D01*
X188553495Y-91383229D01*
X188550023Y-91382200D01*
X188183452Y-91134319D01*
X187920658Y-90787406D01*
X187808164Y-90471886D01*
X187799432Y-90279282D01*
X187855891Y-90046606D01*
X187989198Y-89729932D01*
X188024928Y-89655090D01*
X188178579Y-89303493D01*
X188246049Y-89052850D01*
X188239354Y-88881976D01*
X188111965Y-88671855D01*
X187891050Y-88556105D01*
X187630449Y-88557417D01*
X187542742Y-88588390D01*
X187387559Y-88633406D01*
X187255670Y-88581667D01*
X187135143Y-88472903D01*
X186928222Y-88265981D01*
X187228447Y-88140539D01*
X187597757Y-88032198D01*
X187941693Y-88045857D01*
X188323366Y-88184346D01*
X188335428Y-88190153D01*
X188671945Y-88420436D01*
X188904754Y-88719219D01*
X189006256Y-89049065D01*
X189008468Y-89103078D01*
X188972068Y-89293514D01*
X188876840Y-89564661D01*
X188758074Y-89827372D01*
X188593058Y-90222501D01*
X188551071Y-90524598D01*
X188634086Y-90751083D01*
X188844078Y-90919374D01*
X188884066Y-90939447D01*
X189081791Y-91018184D01*
X189235458Y-91013944D01*
X189425663Y-90932490D01*
X189611689Y-90850108D01*
X189730129Y-90855045D01*
X189858207Y-90957920D01*
X189898039Y-90997441D01*
X190098593Y-91197994D01*
X190340230Y-91197994D01*
X190252125Y-90952151D01*
X190068829Y-90455189D01*
X189870517Y-89929168D01*
X189666570Y-89398623D01*
X189466372Y-88888084D01*
X189279305Y-88422083D01*
X189114752Y-88025154D01*
X188982094Y-87721827D01*
X188890716Y-87536635D01*
X188864642Y-87497320D01*
X188808641Y-87434364D01*
X188752823Y-87378702D01*
X188687297Y-87329886D01*
X188602171Y-87287465D01*
X188487554Y-87250991D01*
X188333553Y-87220015D01*
X188130276Y-87194089D01*
X187867834Y-87172764D01*
X187536333Y-87155590D01*
X187125881Y-87142119D01*
X186626588Y-87131902D01*
X186028562Y-87124490D01*
X185321910Y-87119434D01*
X184496742Y-87116285D01*
X183543165Y-87114595D01*
X182451288Y-87113915D01*
X181211219Y-87113796D01*
X180413016Y-87113806D01*
X178938810Y-87114671D01*
X177613727Y-87117254D01*
X176439427Y-87121538D01*
X175417570Y-87127506D01*
X174549816Y-87135139D01*
X173837823Y-87144421D01*
X173283253Y-87155335D01*
X172887764Y-87167862D01*
X172653016Y-87181986D01*
X172580710Y-87195742D01*
X172476417Y-87241867D01*
X172263704Y-87271586D01*
X172096226Y-87277677D01*
X171800397Y-87295821D01*
X171596930Y-87364621D01*
X171441356Y-87482516D01*
X171209273Y-87635367D01*
X170919775Y-87686650D01*
X170869499Y-87687355D01*
X170641077Y-87675716D01*
X170488603Y-87646537D01*
X170464577Y-87633265D01*
X170361249Y-87608868D01*
X170140975Y-87596021D01*
X169850437Y-87597357D01*
X169835949Y-87597810D01*
X169518420Y-87600422D01*
X169329429Y-87578728D01*
X169234663Y-87526688D01*
X169212132Y-87488028D01*
X169118177Y-87401485D01*
X168904684Y-87363227D01*
X168766779Y-87359613D01*
X168524095Y-87342679D01*
X168354986Y-87299655D01*
X168315961Y-87271038D01*
X168203722Y-87219997D01*
X168071832Y-87229997D01*
X167894693Y-87222866D01*
X167664197Y-87155340D01*
X167449095Y-87054256D01*
X167318137Y-86946449D01*
X167310672Y-86932887D01*
X167227212Y-86927854D01*
X167040397Y-86976679D01*
X166877478Y-87035307D01*
X166643349Y-87125018D01*
X166478856Y-87183246D01*
X166432515Y-87195742D01*
X166411735Y-87121615D01*
X166397956Y-86930407D01*
X166394581Y-86745097D01*
X166407211Y-86467450D01*
X166465083Y-86325100D01*
X166598173Y-86300278D01*
X166836452Y-86375215D01*
X166944283Y-86419228D01*
X167143901Y-86483418D01*
X167273655Y-86489768D01*
X167289878Y-86479012D01*
X167463811Y-86352127D01*
X167766877Y-86249083D01*
X168164963Y-86179428D01*
X168438699Y-86157469D01*
X168788485Y-86130661D01*
X169019928Y-86082543D01*
X169178268Y-86001560D01*
X169234730Y-85954145D01*
X169371920Y-85851531D01*
X169530795Y-85811424D01*
X169772894Y-85821520D01*
X169853515Y-85830433D01*
X170149045Y-85849781D01*
X170436836Y-85843565D01*
X170677110Y-85816147D01*
X170830091Y-85771891D01*
X170859554Y-85720077D01*
X170875881Y-85619280D01*
X170968454Y-85473428D01*
X171091715Y-85337820D01*
X171200108Y-85267755D01*
X171229674Y-85270814D01*
X171328856Y-85256531D01*
X171351082Y-85230254D01*
X171432395Y-85232997D01*
X171585934Y-85316712D01*
X171766992Y-85447568D01*
X171930860Y-85591734D01*
X172032829Y-85715379D01*
X172046652Y-85756590D01*
X171996431Y-85864818D01*
X171873252Y-86019379D01*
X171869976Y-86022880D01*
X171691822Y-86212516D01*
X172099395Y-86212516D01*
X172351829Y-86227517D01*
X172536915Y-86265685D01*
X172586558Y-86292106D01*
X172682023Y-86306085D01*
X172936620Y-86319340D01*
X173345610Y-86331813D01*
X173904256Y-86343446D01*
X174607818Y-86354179D01*
X175451559Y-86363955D01*
X176430741Y-86372715D01*
X177540625Y-86380399D01*
X178776474Y-86386949D01*
X180133549Y-86392307D01*
X180857945Y-86394526D01*
X182197483Y-86398325D01*
X183382938Y-86401954D01*
X184424098Y-86405628D01*
X185330749Y-86409562D01*
X186112680Y-86413973D01*
X186779677Y-86419075D01*
X187341529Y-86425086D01*
X187808022Y-86432221D01*
X188188944Y-86440694D01*
X188494083Y-86450723D01*
X188733226Y-86462523D01*
X188916160Y-86476309D01*
X189052673Y-86492297D01*
X189152552Y-86510704D01*
X189225586Y-86531744D01*
X189281560Y-86555634D01*
X189327951Y-86581226D01*
X189555981Y-86746173D01*
X189742720Y-86930956D01*
X189757358Y-86949936D01*
X189822179Y-87074980D01*
X189934657Y-87331938D01*
X190086373Y-87698747D01*
X190268907Y-88153341D01*
X190473837Y-88673659D01*
X190692746Y-89237635D01*
X190917211Y-89823207D01*
X191138814Y-90408310D01*
X191349134Y-90970882D01*
X191539751Y-91488858D01*
X191702246Y-91940175D01*
X191828198Y-92302768D01*
X191909187Y-92554576D01*
X191935264Y-92656879D01*
X191940025Y-92845032D01*
X192777806Y-92845032D01*
X192777806Y-84409936D01*
X161806194Y-84409936D01*
X161806194Y-94406065D01*
D13*
X119178000Y-91356922D02*
X119178000Y-91874078D01*
X120598000Y-91356922D02*
X120598000Y-91874078D01*
X124258000Y-91356922D02*
X124258000Y-91874078D01*
X125678000Y-91356922D02*
X125678000Y-91874078D01*
X126798000Y-91356922D02*
X126798000Y-91874078D01*
X128218000Y-91356922D02*
X128218000Y-91874078D01*
X129338000Y-91356922D02*
X129338000Y-91874078D01*
X130758000Y-91356922D02*
X130758000Y-91874078D01*
X131878000Y-91356922D02*
X131878000Y-91874078D01*
X133298000Y-91356922D02*
X133298000Y-91874078D01*
X134418000Y-91356922D02*
X134418000Y-91874078D01*
X135838000Y-91356922D02*
X135838000Y-91874078D01*
X136958000Y-91356922D02*
X136958000Y-91874078D01*
X138378000Y-91356922D02*
X138378000Y-91874078D01*
X147372000Y-91356922D02*
X147372000Y-91874078D01*
X148792000Y-91356922D02*
X148792000Y-91874078D01*
X144832000Y-91356922D02*
X144832000Y-91874078D01*
X146252000Y-91356922D02*
X146252000Y-91874078D01*
X149912000Y-91356922D02*
X149912000Y-91874078D01*
X151332000Y-91356922D02*
X151332000Y-91874078D01*
X139498000Y-91356922D02*
X139498000Y-91874078D01*
X140918000Y-91356922D02*
X140918000Y-91874078D01*
X161238000Y-115399078D02*
X161238000Y-114881922D01*
X159818000Y-115399078D02*
X159818000Y-114881922D01*
D14*
X120340380Y-94353142D02*
X119864190Y-94019809D01*
X120340380Y-93781714D02*
X119340380Y-93781714D01*
X119340380Y-94162666D01*
X119388000Y-94257904D01*
X119435619Y-94305523D01*
X119530857Y-94353142D01*
X119673714Y-94353142D01*
X119768952Y-94305523D01*
X119816571Y-94257904D01*
X119864190Y-94162666D01*
X119864190Y-93781714D01*
X120340380Y-95305523D02*
X120340380Y-94734095D01*
X120340380Y-95019809D02*
X119340380Y-95019809D01*
X119483238Y-94924571D01*
X119578476Y-94829333D01*
X119626095Y-94734095D01*
X119340380Y-96162666D02*
X119340380Y-95972190D01*
X119388000Y-95876952D01*
X119435619Y-95829333D01*
X119578476Y-95734095D01*
X119768952Y-95686476D01*
X120149904Y-95686476D01*
X120245142Y-95734095D01*
X120292761Y-95781714D01*
X120340380Y-95876952D01*
X120340380Y-96067428D01*
X120292761Y-96162666D01*
X120245142Y-96210285D01*
X120149904Y-96257904D01*
X119911809Y-96257904D01*
X119816571Y-96210285D01*
X119768952Y-96162666D01*
X119721333Y-96067428D01*
X119721333Y-95876952D01*
X119768952Y-95781714D01*
X119816571Y-95734095D01*
X119911809Y-95686476D01*
X125420380Y-94353142D02*
X124944190Y-94019809D01*
X125420380Y-93781714D02*
X124420380Y-93781714D01*
X124420380Y-94162666D01*
X124468000Y-94257904D01*
X124515619Y-94305523D01*
X124610857Y-94353142D01*
X124753714Y-94353142D01*
X124848952Y-94305523D01*
X124896571Y-94257904D01*
X124944190Y-94162666D01*
X124944190Y-93781714D01*
X125420380Y-95305523D02*
X125420380Y-94734095D01*
X125420380Y-95019809D02*
X124420380Y-95019809D01*
X124563238Y-94924571D01*
X124658476Y-94829333D01*
X124706095Y-94734095D01*
X124753714Y-96162666D02*
X125420380Y-96162666D01*
X124372761Y-95924571D02*
X125087047Y-95686476D01*
X125087047Y-96305523D01*
X127960380Y-94353142D02*
X127484190Y-94019809D01*
X127960380Y-93781714D02*
X126960380Y-93781714D01*
X126960380Y-94162666D01*
X127008000Y-94257904D01*
X127055619Y-94305523D01*
X127150857Y-94353142D01*
X127293714Y-94353142D01*
X127388952Y-94305523D01*
X127436571Y-94257904D01*
X127484190Y-94162666D01*
X127484190Y-93781714D01*
X127960380Y-95305523D02*
X127960380Y-94734095D01*
X127960380Y-95019809D02*
X126960380Y-95019809D01*
X127103238Y-94924571D01*
X127198476Y-94829333D01*
X127246095Y-94734095D01*
X127055619Y-95686476D02*
X127008000Y-95734095D01*
X126960380Y-95829333D01*
X126960380Y-96067428D01*
X127008000Y-96162666D01*
X127055619Y-96210285D01*
X127150857Y-96257904D01*
X127246095Y-96257904D01*
X127388952Y-96210285D01*
X127960380Y-95638857D01*
X127960380Y-96257904D01*
X130500380Y-94353142D02*
X130024190Y-94019809D01*
X130500380Y-93781714D02*
X129500380Y-93781714D01*
X129500380Y-94162666D01*
X129548000Y-94257904D01*
X129595619Y-94305523D01*
X129690857Y-94353142D01*
X129833714Y-94353142D01*
X129928952Y-94305523D01*
X129976571Y-94257904D01*
X130024190Y-94162666D01*
X130024190Y-93781714D01*
X130500380Y-95305523D02*
X130500380Y-94734095D01*
X130500380Y-95019809D02*
X129500380Y-95019809D01*
X129643238Y-94924571D01*
X129738476Y-94829333D01*
X129786095Y-94734095D01*
X129500380Y-95924571D02*
X129500380Y-96019809D01*
X129548000Y-96115047D01*
X129595619Y-96162666D01*
X129690857Y-96210285D01*
X129881333Y-96257904D01*
X130119428Y-96257904D01*
X130309904Y-96210285D01*
X130405142Y-96162666D01*
X130452761Y-96115047D01*
X130500380Y-96019809D01*
X130500380Y-95924571D01*
X130452761Y-95829333D01*
X130405142Y-95781714D01*
X130309904Y-95734095D01*
X130119428Y-95686476D01*
X129881333Y-95686476D01*
X129690857Y-95734095D01*
X129595619Y-95781714D01*
X129548000Y-95829333D01*
X129500380Y-95924571D01*
X133040380Y-94321333D02*
X132564190Y-93988000D01*
X133040380Y-93749904D02*
X132040380Y-93749904D01*
X132040380Y-94130857D01*
X132088000Y-94226095D01*
X132135619Y-94273714D01*
X132230857Y-94321333D01*
X132373714Y-94321333D01*
X132468952Y-94273714D01*
X132516571Y-94226095D01*
X132564190Y-94130857D01*
X132564190Y-93749904D01*
X132468952Y-94892761D02*
X132421333Y-94797523D01*
X132373714Y-94749904D01*
X132278476Y-94702285D01*
X132230857Y-94702285D01*
X132135619Y-94749904D01*
X132088000Y-94797523D01*
X132040380Y-94892761D01*
X132040380Y-95083238D01*
X132088000Y-95178476D01*
X132135619Y-95226095D01*
X132230857Y-95273714D01*
X132278476Y-95273714D01*
X132373714Y-95226095D01*
X132421333Y-95178476D01*
X132468952Y-95083238D01*
X132468952Y-94892761D01*
X132516571Y-94797523D01*
X132564190Y-94749904D01*
X132659428Y-94702285D01*
X132849904Y-94702285D01*
X132945142Y-94749904D01*
X132992761Y-94797523D01*
X133040380Y-94892761D01*
X133040380Y-95083238D01*
X132992761Y-95178476D01*
X132945142Y-95226095D01*
X132849904Y-95273714D01*
X132659428Y-95273714D01*
X132564190Y-95226095D01*
X132516571Y-95178476D01*
X132468952Y-95083238D01*
X135580380Y-94321333D02*
X135104190Y-93988000D01*
X135580380Y-93749904D02*
X134580380Y-93749904D01*
X134580380Y-94130857D01*
X134628000Y-94226095D01*
X134675619Y-94273714D01*
X134770857Y-94321333D01*
X134913714Y-94321333D01*
X135008952Y-94273714D01*
X135056571Y-94226095D01*
X135104190Y-94130857D01*
X135104190Y-93749904D01*
X134580380Y-95178476D02*
X134580380Y-94988000D01*
X134628000Y-94892761D01*
X134675619Y-94845142D01*
X134818476Y-94749904D01*
X135008952Y-94702285D01*
X135389904Y-94702285D01*
X135485142Y-94749904D01*
X135532761Y-94797523D01*
X135580380Y-94892761D01*
X135580380Y-95083238D01*
X135532761Y-95178476D01*
X135485142Y-95226095D01*
X135389904Y-95273714D01*
X135151809Y-95273714D01*
X135056571Y-95226095D01*
X135008952Y-95178476D01*
X134961333Y-95083238D01*
X134961333Y-94892761D01*
X135008952Y-94797523D01*
X135056571Y-94749904D01*
X135151809Y-94702285D01*
X138120380Y-94321333D02*
X137644190Y-93988000D01*
X138120380Y-93749904D02*
X137120380Y-93749904D01*
X137120380Y-94130857D01*
X137168000Y-94226095D01*
X137215619Y-94273714D01*
X137310857Y-94321333D01*
X137453714Y-94321333D01*
X137548952Y-94273714D01*
X137596571Y-94226095D01*
X137644190Y-94130857D01*
X137644190Y-93749904D01*
X137453714Y-95178476D02*
X138120380Y-95178476D01*
X137072761Y-94940380D02*
X137787047Y-94702285D01*
X137787047Y-95321333D01*
X148534380Y-94099142D02*
X148058190Y-93765809D01*
X148534380Y-93527714D02*
X147534380Y-93527714D01*
X147534380Y-93908666D01*
X147582000Y-94003904D01*
X147629619Y-94051523D01*
X147724857Y-94099142D01*
X147867714Y-94099142D01*
X147962952Y-94051523D01*
X148010571Y-94003904D01*
X148058190Y-93908666D01*
X148058190Y-93527714D01*
X147629619Y-94480095D02*
X147582000Y-94527714D01*
X147534380Y-94622952D01*
X147534380Y-94861047D01*
X147582000Y-94956285D01*
X147629619Y-95003904D01*
X147724857Y-95051523D01*
X147820095Y-95051523D01*
X147962952Y-95003904D01*
X148534380Y-94432476D01*
X148534380Y-95051523D01*
X147534380Y-95670571D02*
X147534380Y-95765809D01*
X147582000Y-95861047D01*
X147629619Y-95908666D01*
X147724857Y-95956285D01*
X147915333Y-96003904D01*
X148153428Y-96003904D01*
X148343904Y-95956285D01*
X148439142Y-95908666D01*
X148486761Y-95861047D01*
X148534380Y-95765809D01*
X148534380Y-95670571D01*
X148486761Y-95575333D01*
X148439142Y-95527714D01*
X148343904Y-95480095D01*
X148153428Y-95432476D01*
X147915333Y-95432476D01*
X147724857Y-95480095D01*
X147629619Y-95527714D01*
X147582000Y-95575333D01*
X147534380Y-95670571D01*
X145994380Y-94099142D02*
X145518190Y-93765809D01*
X145994380Y-93527714D02*
X144994380Y-93527714D01*
X144994380Y-93908666D01*
X145042000Y-94003904D01*
X145089619Y-94051523D01*
X145184857Y-94099142D01*
X145327714Y-94099142D01*
X145422952Y-94051523D01*
X145470571Y-94003904D01*
X145518190Y-93908666D01*
X145518190Y-93527714D01*
X145089619Y-94480095D02*
X145042000Y-94527714D01*
X144994380Y-94622952D01*
X144994380Y-94861047D01*
X145042000Y-94956285D01*
X145089619Y-95003904D01*
X145184857Y-95051523D01*
X145280095Y-95051523D01*
X145422952Y-95003904D01*
X145994380Y-94432476D01*
X145994380Y-95051523D01*
X145089619Y-95432476D02*
X145042000Y-95480095D01*
X144994380Y-95575333D01*
X144994380Y-95813428D01*
X145042000Y-95908666D01*
X145089619Y-95956285D01*
X145184857Y-96003904D01*
X145280095Y-96003904D01*
X145422952Y-95956285D01*
X145994380Y-95384857D01*
X145994380Y-96003904D01*
X151074380Y-94099142D02*
X150598190Y-93765809D01*
X151074380Y-93527714D02*
X150074380Y-93527714D01*
X150074380Y-93908666D01*
X150122000Y-94003904D01*
X150169619Y-94051523D01*
X150264857Y-94099142D01*
X150407714Y-94099142D01*
X150502952Y-94051523D01*
X150550571Y-94003904D01*
X150598190Y-93908666D01*
X150598190Y-93527714D01*
X151074380Y-95051523D02*
X151074380Y-94480095D01*
X151074380Y-94765809D02*
X150074380Y-94765809D01*
X150217238Y-94670571D01*
X150312476Y-94575333D01*
X150360095Y-94480095D01*
X150502952Y-95622952D02*
X150455333Y-95527714D01*
X150407714Y-95480095D01*
X150312476Y-95432476D01*
X150264857Y-95432476D01*
X150169619Y-95480095D01*
X150122000Y-95527714D01*
X150074380Y-95622952D01*
X150074380Y-95813428D01*
X150122000Y-95908666D01*
X150169619Y-95956285D01*
X150264857Y-96003904D01*
X150312476Y-96003904D01*
X150407714Y-95956285D01*
X150455333Y-95908666D01*
X150502952Y-95813428D01*
X150502952Y-95622952D01*
X150550571Y-95527714D01*
X150598190Y-95480095D01*
X150693428Y-95432476D01*
X150883904Y-95432476D01*
X150979142Y-95480095D01*
X151026761Y-95527714D01*
X151074380Y-95622952D01*
X151074380Y-95813428D01*
X151026761Y-95908666D01*
X150979142Y-95956285D01*
X150883904Y-96003904D01*
X150693428Y-96003904D01*
X150598190Y-95956285D01*
X150550571Y-95908666D01*
X150502952Y-95813428D01*
X140660380Y-94321333D02*
X140184190Y-93988000D01*
X140660380Y-93749904D02*
X139660380Y-93749904D01*
X139660380Y-94130857D01*
X139708000Y-94226095D01*
X139755619Y-94273714D01*
X139850857Y-94321333D01*
X139993714Y-94321333D01*
X140088952Y-94273714D01*
X140136571Y-94226095D01*
X140184190Y-94130857D01*
X140184190Y-93749904D01*
X139755619Y-94702285D02*
X139708000Y-94749904D01*
X139660380Y-94845142D01*
X139660380Y-95083238D01*
X139708000Y-95178476D01*
X139755619Y-95226095D01*
X139850857Y-95273714D01*
X139946095Y-95273714D01*
X140088952Y-95226095D01*
X140660380Y-94654666D01*
X140660380Y-95273714D01*
X160885142Y-117943333D02*
X160932761Y-117895714D01*
X160980380Y-117752857D01*
X160980380Y-117657619D01*
X160932761Y-117514761D01*
X160837523Y-117419523D01*
X160742285Y-117371904D01*
X160551809Y-117324285D01*
X160408952Y-117324285D01*
X160218476Y-117371904D01*
X160123238Y-117419523D01*
X160028000Y-117514761D01*
X159980380Y-117657619D01*
X159980380Y-117752857D01*
X160028000Y-117895714D01*
X160075619Y-117943333D01*
X160075619Y-118324285D02*
X160028000Y-118371904D01*
X159980380Y-118467142D01*
X159980380Y-118705238D01*
X160028000Y-118800476D01*
X160075619Y-118848095D01*
X160170857Y-118895714D01*
X160266095Y-118895714D01*
X160408952Y-118848095D01*
X160980380Y-118276666D01*
X160980380Y-118895714D01*
M02*
