G04 #@! TF.GenerationSoftware,KiCad,Pcbnew,(5.1.7)-1*
G04 #@! TF.CreationDate,2021-04-14T19:18:07-03:00*
G04 #@! TF.ProjectId,BlackPill Adaptor,426c6163-6b50-4696-9c6c-204164617074,rev?*
G04 #@! TF.SameCoordinates,Original*
G04 #@! TF.FileFunction,Soldermask,Bot*
G04 #@! TF.FilePolarity,Negative*
%FSLAX46Y46*%
G04 Gerber Fmt 4.6, Leading zero omitted, Abs format (unit mm)*
G04 Created by KiCad (PCBNEW (5.1.7)-1) date 2021-04-14 19:18:07*
%MOMM*%
%LPD*%
G01*
G04 APERTURE LIST*
%ADD10C,1.626000*%
%ADD11O,2.302000X2.302000*%
%ADD12O,1.802000X1.802000*%
%ADD13C,4.039000*%
%ADD14O,1.626000X2.642000*%
G04 APERTURE END LIST*
G36*
G01*
X119406250Y-92014500D02*
X120369750Y-92014500D01*
G75*
G02*
X120639000Y-92283750I0J-269250D01*
G01*
X120639000Y-92822250D01*
G75*
G02*
X120369750Y-93091500I-269250J0D01*
G01*
X119406250Y-93091500D01*
G75*
G02*
X119137000Y-92822250I0J269250D01*
G01*
X119137000Y-92283750D01*
G75*
G02*
X119406250Y-92014500I269250J0D01*
G01*
G37*
G36*
G01*
X119406250Y-90139500D02*
X120369750Y-90139500D01*
G75*
G02*
X120639000Y-90408750I0J-269250D01*
G01*
X120639000Y-90947250D01*
G75*
G02*
X120369750Y-91216500I-269250J0D01*
G01*
X119406250Y-91216500D01*
G75*
G02*
X119137000Y-90947250I0J269250D01*
G01*
X119137000Y-90408750D01*
G75*
G02*
X119406250Y-90139500I269250J0D01*
G01*
G37*
G36*
G01*
X124486250Y-92014500D02*
X125449750Y-92014500D01*
G75*
G02*
X125719000Y-92283750I0J-269250D01*
G01*
X125719000Y-92822250D01*
G75*
G02*
X125449750Y-93091500I-269250J0D01*
G01*
X124486250Y-93091500D01*
G75*
G02*
X124217000Y-92822250I0J269250D01*
G01*
X124217000Y-92283750D01*
G75*
G02*
X124486250Y-92014500I269250J0D01*
G01*
G37*
G36*
G01*
X124486250Y-90139500D02*
X125449750Y-90139500D01*
G75*
G02*
X125719000Y-90408750I0J-269250D01*
G01*
X125719000Y-90947250D01*
G75*
G02*
X125449750Y-91216500I-269250J0D01*
G01*
X124486250Y-91216500D01*
G75*
G02*
X124217000Y-90947250I0J269250D01*
G01*
X124217000Y-90408750D01*
G75*
G02*
X124486250Y-90139500I269250J0D01*
G01*
G37*
G36*
G01*
X127026250Y-92014500D02*
X127989750Y-92014500D01*
G75*
G02*
X128259000Y-92283750I0J-269250D01*
G01*
X128259000Y-92822250D01*
G75*
G02*
X127989750Y-93091500I-269250J0D01*
G01*
X127026250Y-93091500D01*
G75*
G02*
X126757000Y-92822250I0J269250D01*
G01*
X126757000Y-92283750D01*
G75*
G02*
X127026250Y-92014500I269250J0D01*
G01*
G37*
G36*
G01*
X127026250Y-90139500D02*
X127989750Y-90139500D01*
G75*
G02*
X128259000Y-90408750I0J-269250D01*
G01*
X128259000Y-90947250D01*
G75*
G02*
X127989750Y-91216500I-269250J0D01*
G01*
X127026250Y-91216500D01*
G75*
G02*
X126757000Y-90947250I0J269250D01*
G01*
X126757000Y-90408750D01*
G75*
G02*
X127026250Y-90139500I269250J0D01*
G01*
G37*
G36*
G01*
X129566250Y-92014500D02*
X130529750Y-92014500D01*
G75*
G02*
X130799000Y-92283750I0J-269250D01*
G01*
X130799000Y-92822250D01*
G75*
G02*
X130529750Y-93091500I-269250J0D01*
G01*
X129566250Y-93091500D01*
G75*
G02*
X129297000Y-92822250I0J269250D01*
G01*
X129297000Y-92283750D01*
G75*
G02*
X129566250Y-92014500I269250J0D01*
G01*
G37*
G36*
G01*
X129566250Y-90139500D02*
X130529750Y-90139500D01*
G75*
G02*
X130799000Y-90408750I0J-269250D01*
G01*
X130799000Y-90947250D01*
G75*
G02*
X130529750Y-91216500I-269250J0D01*
G01*
X129566250Y-91216500D01*
G75*
G02*
X129297000Y-90947250I0J269250D01*
G01*
X129297000Y-90408750D01*
G75*
G02*
X129566250Y-90139500I269250J0D01*
G01*
G37*
G36*
G01*
X132106250Y-92014500D02*
X133069750Y-92014500D01*
G75*
G02*
X133339000Y-92283750I0J-269250D01*
G01*
X133339000Y-92822250D01*
G75*
G02*
X133069750Y-93091500I-269250J0D01*
G01*
X132106250Y-93091500D01*
G75*
G02*
X131837000Y-92822250I0J269250D01*
G01*
X131837000Y-92283750D01*
G75*
G02*
X132106250Y-92014500I269250J0D01*
G01*
G37*
G36*
G01*
X132106250Y-90139500D02*
X133069750Y-90139500D01*
G75*
G02*
X133339000Y-90408750I0J-269250D01*
G01*
X133339000Y-90947250D01*
G75*
G02*
X133069750Y-91216500I-269250J0D01*
G01*
X132106250Y-91216500D01*
G75*
G02*
X131837000Y-90947250I0J269250D01*
G01*
X131837000Y-90408750D01*
G75*
G02*
X132106250Y-90139500I269250J0D01*
G01*
G37*
G36*
G01*
X134646250Y-92014500D02*
X135609750Y-92014500D01*
G75*
G02*
X135879000Y-92283750I0J-269250D01*
G01*
X135879000Y-92822250D01*
G75*
G02*
X135609750Y-93091500I-269250J0D01*
G01*
X134646250Y-93091500D01*
G75*
G02*
X134377000Y-92822250I0J269250D01*
G01*
X134377000Y-92283750D01*
G75*
G02*
X134646250Y-92014500I269250J0D01*
G01*
G37*
G36*
G01*
X134646250Y-90139500D02*
X135609750Y-90139500D01*
G75*
G02*
X135879000Y-90408750I0J-269250D01*
G01*
X135879000Y-90947250D01*
G75*
G02*
X135609750Y-91216500I-269250J0D01*
G01*
X134646250Y-91216500D01*
G75*
G02*
X134377000Y-90947250I0J269250D01*
G01*
X134377000Y-90408750D01*
G75*
G02*
X134646250Y-90139500I269250J0D01*
G01*
G37*
G36*
G01*
X137186250Y-92014500D02*
X138149750Y-92014500D01*
G75*
G02*
X138419000Y-92283750I0J-269250D01*
G01*
X138419000Y-92822250D01*
G75*
G02*
X138149750Y-93091500I-269250J0D01*
G01*
X137186250Y-93091500D01*
G75*
G02*
X136917000Y-92822250I0J269250D01*
G01*
X136917000Y-92283750D01*
G75*
G02*
X137186250Y-92014500I269250J0D01*
G01*
G37*
G36*
G01*
X137186250Y-90139500D02*
X138149750Y-90139500D01*
G75*
G02*
X138419000Y-90408750I0J-269250D01*
G01*
X138419000Y-90947250D01*
G75*
G02*
X138149750Y-91216500I-269250J0D01*
G01*
X137186250Y-91216500D01*
G75*
G02*
X136917000Y-90947250I0J269250D01*
G01*
X136917000Y-90408750D01*
G75*
G02*
X137186250Y-90139500I269250J0D01*
G01*
G37*
D10*
X104775000Y-88392000D03*
X107315000Y-88392000D03*
X109855000Y-88392000D03*
X112395000Y-88392000D03*
X114935000Y-88392000D03*
X117475000Y-88392000D03*
X120015000Y-88392000D03*
X122555000Y-88392000D03*
X125095000Y-88392000D03*
X127635000Y-88392000D03*
X130175000Y-88392000D03*
X132715000Y-88392000D03*
X135255000Y-88392000D03*
X137795000Y-88392000D03*
X140335000Y-88392000D03*
X142875000Y-88392000D03*
X145415000Y-88392000D03*
X147955000Y-88392000D03*
X150495000Y-88392000D03*
X153035000Y-88392000D03*
X153035000Y-103632000D03*
X150495000Y-103632000D03*
X147955000Y-103632000D03*
X145415000Y-103632000D03*
X142875000Y-103632000D03*
X140335000Y-103632000D03*
X137795000Y-103632000D03*
X135255000Y-103632000D03*
X132715000Y-103632000D03*
X130175000Y-103632000D03*
X127635000Y-103632000D03*
X125095000Y-103632000D03*
X122555000Y-103632000D03*
X120015000Y-103632000D03*
X117475000Y-103632000D03*
X114935000Y-103632000D03*
X112395000Y-103632000D03*
X109855000Y-103632000D03*
X107315000Y-103632000D03*
G36*
G01*
X105537000Y-104445000D02*
X104013000Y-104445000D01*
G75*
G02*
X103962000Y-104394000I0J51000D01*
G01*
X103962000Y-102870000D01*
G75*
G02*
X104013000Y-102819000I51000J0D01*
G01*
X105537000Y-102819000D01*
G75*
G02*
X105588000Y-102870000I0J-51000D01*
G01*
X105588000Y-104394000D01*
G75*
G02*
X105537000Y-104445000I-51000J0D01*
G01*
G37*
D11*
X139954000Y-122428000D03*
G36*
G01*
X128643000Y-123528000D02*
X128643000Y-121328000D01*
G75*
G02*
X128694000Y-121277000I51000J0D01*
G01*
X130894000Y-121277000D01*
G75*
G02*
X130945000Y-121328000I0J-51000D01*
G01*
X130945000Y-123528000D01*
G75*
G02*
X130894000Y-123579000I-51000J0D01*
G01*
X128694000Y-123579000D01*
G75*
G02*
X128643000Y-123528000I0J51000D01*
G01*
G37*
D12*
X107315000Y-108458000D03*
X109855000Y-108458000D03*
X112395000Y-108458000D03*
X114935000Y-108458000D03*
X117475000Y-108458000D03*
G36*
G01*
X119165000Y-107557000D02*
X120865000Y-107557000D01*
G75*
G02*
X120916000Y-107608000I0J-51000D01*
G01*
X120916000Y-109308000D01*
G75*
G02*
X120865000Y-109359000I-51000J0D01*
G01*
X119165000Y-109359000D01*
G75*
G02*
X119114000Y-109308000I0J51000D01*
G01*
X119114000Y-107608000D01*
G75*
G02*
X119165000Y-107557000I51000J0D01*
G01*
G37*
G36*
G01*
X147600250Y-92014500D02*
X148563750Y-92014500D01*
G75*
G02*
X148833000Y-92283750I0J-269250D01*
G01*
X148833000Y-92822250D01*
G75*
G02*
X148563750Y-93091500I-269250J0D01*
G01*
X147600250Y-93091500D01*
G75*
G02*
X147331000Y-92822250I0J269250D01*
G01*
X147331000Y-92283750D01*
G75*
G02*
X147600250Y-92014500I269250J0D01*
G01*
G37*
G36*
G01*
X147600250Y-90139500D02*
X148563750Y-90139500D01*
G75*
G02*
X148833000Y-90408750I0J-269250D01*
G01*
X148833000Y-90947250D01*
G75*
G02*
X148563750Y-91216500I-269250J0D01*
G01*
X147600250Y-91216500D01*
G75*
G02*
X147331000Y-90947250I0J269250D01*
G01*
X147331000Y-90408750D01*
G75*
G02*
X147600250Y-90139500I269250J0D01*
G01*
G37*
G36*
G01*
X145060250Y-92014500D02*
X146023750Y-92014500D01*
G75*
G02*
X146293000Y-92283750I0J-269250D01*
G01*
X146293000Y-92822250D01*
G75*
G02*
X146023750Y-93091500I-269250J0D01*
G01*
X145060250Y-93091500D01*
G75*
G02*
X144791000Y-92822250I0J269250D01*
G01*
X144791000Y-92283750D01*
G75*
G02*
X145060250Y-92014500I269250J0D01*
G01*
G37*
G36*
G01*
X145060250Y-90139500D02*
X146023750Y-90139500D01*
G75*
G02*
X146293000Y-90408750I0J-269250D01*
G01*
X146293000Y-90947250D01*
G75*
G02*
X146023750Y-91216500I-269250J0D01*
G01*
X145060250Y-91216500D01*
G75*
G02*
X144791000Y-90947250I0J269250D01*
G01*
X144791000Y-90408750D01*
G75*
G02*
X145060250Y-90139500I269250J0D01*
G01*
G37*
G36*
G01*
X150140250Y-92014500D02*
X151103750Y-92014500D01*
G75*
G02*
X151373000Y-92283750I0J-269250D01*
G01*
X151373000Y-92822250D01*
G75*
G02*
X151103750Y-93091500I-269250J0D01*
G01*
X150140250Y-93091500D01*
G75*
G02*
X149871000Y-92822250I0J269250D01*
G01*
X149871000Y-92283750D01*
G75*
G02*
X150140250Y-92014500I269250J0D01*
G01*
G37*
G36*
G01*
X150140250Y-90139500D02*
X151103750Y-90139500D01*
G75*
G02*
X151373000Y-90408750I0J-269250D01*
G01*
X151373000Y-90947250D01*
G75*
G02*
X151103750Y-91216500I-269250J0D01*
G01*
X150140250Y-91216500D01*
G75*
G02*
X149871000Y-90947250I0J269250D01*
G01*
X149871000Y-90408750D01*
G75*
G02*
X150140250Y-90139500I269250J0D01*
G01*
G37*
D10*
X198374000Y-120650000D03*
X195834000Y-120650000D03*
X198374000Y-118110000D03*
X195834000Y-118110000D03*
X198374000Y-115570000D03*
X195834000Y-115570000D03*
X198374000Y-113030000D03*
X195834000Y-113030000D03*
X198374000Y-110490000D03*
X195834000Y-110490000D03*
X198374000Y-107950000D03*
X195834000Y-107950000D03*
X198374000Y-105410000D03*
X195834000Y-105410000D03*
X198374000Y-102870000D03*
X195834000Y-102870000D03*
X198374000Y-100330000D03*
X195834000Y-100330000D03*
X198374000Y-97790000D03*
X195834000Y-97790000D03*
X198374000Y-95250000D03*
X195834000Y-95250000D03*
X198374000Y-92710000D03*
X195834000Y-92710000D03*
X195834000Y-90170000D03*
X198374000Y-90170000D03*
X198374000Y-77470000D03*
X195834000Y-77470000D03*
X198374000Y-87630000D03*
X195834000Y-87630000D03*
X198374000Y-85090000D03*
X195834000Y-85090000D03*
X198374000Y-82550000D03*
X195834000Y-82550000D03*
X198374000Y-80010000D03*
X195834000Y-80010000D03*
D13*
X115824000Y-125730000D03*
X117094000Y-77470000D03*
X192024000Y-77470000D03*
X198374000Y-125730000D03*
D14*
X139954000Y-125730000D03*
X125730000Y-77470000D03*
X128270000Y-77470000D03*
X130810000Y-77470000D03*
X133350000Y-77470000D03*
X135890000Y-77470000D03*
X138430000Y-77470000D03*
X140970000Y-77470000D03*
X143510000Y-77470000D03*
X147574000Y-77470000D03*
X150114000Y-77470000D03*
X152654000Y-77470000D03*
X155194000Y-77470000D03*
X157734000Y-77470000D03*
X160274000Y-77470000D03*
X162814000Y-77470000D03*
X165354000Y-77470000D03*
X134874000Y-125730000D03*
X137414000Y-125730000D03*
X142494000Y-125730000D03*
X145034000Y-125730000D03*
X147574000Y-125730000D03*
X157734000Y-125730000D03*
X155194000Y-125730000D03*
X152654000Y-125730000D03*
X160274000Y-125730000D03*
X162814000Y-125730000D03*
X165354000Y-125730000D03*
X183134000Y-125730000D03*
X180594000Y-125730000D03*
X178054000Y-125730000D03*
X167894000Y-125730000D03*
X170434000Y-125730000D03*
X175514000Y-125730000D03*
X185674000Y-125730000D03*
X188214000Y-125730000D03*
X190754000Y-125730000D03*
X193294000Y-125730000D03*
X188214000Y-77470000D03*
X185674000Y-77470000D03*
X183134000Y-77470000D03*
X180594000Y-77470000D03*
X178054000Y-77470000D03*
X175514000Y-77470000D03*
X172974000Y-77470000D03*
X170434000Y-77470000D03*
G36*
G01*
X139726250Y-92014500D02*
X140689750Y-92014500D01*
G75*
G02*
X140959000Y-92283750I0J-269250D01*
G01*
X140959000Y-92822250D01*
G75*
G02*
X140689750Y-93091500I-269250J0D01*
G01*
X139726250Y-93091500D01*
G75*
G02*
X139457000Y-92822250I0J269250D01*
G01*
X139457000Y-92283750D01*
G75*
G02*
X139726250Y-92014500I269250J0D01*
G01*
G37*
G36*
G01*
X139726250Y-90139500D02*
X140689750Y-90139500D01*
G75*
G02*
X140959000Y-90408750I0J-269250D01*
G01*
X140959000Y-90947250D01*
G75*
G02*
X140689750Y-91216500I-269250J0D01*
G01*
X139726250Y-91216500D01*
G75*
G02*
X139457000Y-90947250I0J269250D01*
G01*
X139457000Y-90408750D01*
G75*
G02*
X139726250Y-90139500I269250J0D01*
G01*
G37*
G36*
G01*
X161009750Y-114741500D02*
X160046250Y-114741500D01*
G75*
G02*
X159777000Y-114472250I0J269250D01*
G01*
X159777000Y-113933750D01*
G75*
G02*
X160046250Y-113664500I269250J0D01*
G01*
X161009750Y-113664500D01*
G75*
G02*
X161279000Y-113933750I0J-269250D01*
G01*
X161279000Y-114472250D01*
G75*
G02*
X161009750Y-114741500I-269250J0D01*
G01*
G37*
G36*
G01*
X161009750Y-116616500D02*
X160046250Y-116616500D01*
G75*
G02*
X159777000Y-116347250I0J269250D01*
G01*
X159777000Y-115808750D01*
G75*
G02*
X160046250Y-115539500I269250J0D01*
G01*
X161009750Y-115539500D01*
G75*
G02*
X161279000Y-115808750I0J-269250D01*
G01*
X161279000Y-116347250D01*
G75*
G02*
X161009750Y-116616500I-269250J0D01*
G01*
G37*
M02*
