M48
; DRILL file {KiCad (5.1.7)-1} date 04/14/21 19:18:10
; FORMAT={-:-/ absolute / inch / decimal}
; #@! TF.CreationDate,2021-04-14T19:18:10-03:00
; #@! TF.GenerationSoftware,Kicad,Pcbnew,(5.1.7)-1
; #@! TF.FileFunction,Plated,1,2,PTH
FMAT,2
INCH
T1C0.0157
T2C0.0300
T3C0.0320
T4C0.0394
T5C0.0433
T6C0.1250
%
G90
G05
T1
X4.12Y-4.355
X4.28Y-4.175
X4.325Y-4.355
X4.92Y-3.73
X5.02Y-3.73
X5.12Y-3.73
X5.16Y-4.95
X5.2Y-4.95
X5.22Y-3.73
X5.24Y-4.95
X5.63Y-3.57
X5.77Y-3.38
X5.885Y-4.855
X5.96Y-4.59
X5.97Y-3.775
X5.97Y-3.83
X5.97Y-3.875
X6.05Y-4.59
X6.16Y-4.87
X6.39Y-4.61
X6.43Y-4.52
X6.5Y-4.59
X6.56Y-4.87
X6.755Y-3.795
X6.79Y-3.92
X6.84Y-3.92
X6.84Y-4.61
X7.11Y-3.84
X7.21Y-3.76
X7.54Y-3.95
X7.54Y-4.05
X7.61Y-4.3
X7.61Y-4.74
T2
X4.125Y-3.48
X4.125Y-4.08
X4.225Y-3.48
X4.225Y-4.08
X4.325Y-3.48
X4.325Y-4.08
X4.425Y-3.48
X4.425Y-4.08
X4.525Y-3.48
X4.525Y-4.08
X4.625Y-3.48
X4.625Y-4.08
X4.725Y-3.48
X4.725Y-4.08
X4.825Y-3.48
X4.825Y-4.08
X4.925Y-3.48
X4.925Y-4.08
X5.025Y-3.48
X5.025Y-4.08
X5.125Y-3.48
X5.125Y-4.08
X5.225Y-3.48
X5.225Y-4.08
X5.325Y-3.48
X5.325Y-4.08
X5.425Y-3.48
X5.425Y-4.08
X5.525Y-3.48
X5.525Y-4.08
X5.625Y-3.48
X5.625Y-4.08
X5.725Y-3.48
X5.725Y-4.08
X5.825Y-3.48
X5.825Y-4.08
X5.925Y-3.48
X5.925Y-4.08
X6.025Y-3.48
X6.025Y-4.08
T3
X4.95Y-3.05
X5.05Y-3.05
X5.15Y-3.05
X5.25Y-3.05
X5.31Y-4.95
X5.35Y-3.05
X5.41Y-4.95
X5.45Y-3.05
X5.51Y-4.95
X5.55Y-3.05
X5.61Y-4.95
X5.65Y-3.05
X5.71Y-4.95
X5.81Y-3.05
X5.81Y-4.95
X5.91Y-3.05
X6.01Y-3.05
X6.01Y-4.95
X6.11Y-3.05
X6.11Y-4.95
X6.21Y-3.05
X6.21Y-4.95
X6.31Y-3.05
X6.31Y-4.95
X6.41Y-3.05
X6.41Y-4.95
X6.51Y-3.05
X6.51Y-4.95
X6.61Y-4.95
X6.71Y-3.05
X6.71Y-4.95
X6.81Y-3.05
X6.91Y-3.05
X6.91Y-4.95
X7.01Y-3.05
X7.01Y-4.95
X7.11Y-3.05
X7.11Y-4.95
X7.21Y-3.05
X7.21Y-4.95
X7.31Y-3.05
X7.31Y-4.95
X7.41Y-3.05
X7.41Y-4.95
X7.51Y-4.95
X7.61Y-4.95
X7.71Y-3.05
X7.71Y-3.15
X7.71Y-3.25
X7.71Y-3.35
X7.71Y-3.45
X7.71Y-3.55
X7.71Y-3.65
X7.71Y-3.75
X7.71Y-3.85
X7.71Y-3.95
X7.71Y-4.05
X7.71Y-4.15
X7.71Y-4.25
X7.71Y-4.35
X7.71Y-4.45
X7.71Y-4.55
X7.71Y-4.65
X7.71Y-4.75
X7.81Y-3.05
X7.81Y-3.15
X7.81Y-3.25
X7.81Y-3.35
X7.81Y-3.45
X7.81Y-3.55
X7.81Y-3.65
X7.81Y-3.75
X7.81Y-3.85
X7.81Y-3.95
X7.81Y-4.05
X7.81Y-4.15
X7.81Y-4.25
X7.81Y-4.35
X7.81Y-4.45
X7.81Y-4.55
X7.81Y-4.65
X7.81Y-4.75
T4
X4.225Y-4.27
X4.325Y-4.27
X4.425Y-4.27
X4.525Y-4.27
X4.625Y-4.27
X4.725Y-4.27
T5
X5.11Y-4.82
X5.51Y-4.82
T6
X4.56Y-4.95
X4.61Y-3.05
X7.56Y-3.05
X7.81Y-4.95
T0
M30
