G04 #@! TF.GenerationSoftware,KiCad,Pcbnew,(5.1.7)-1*
G04 #@! TF.CreationDate,2021-04-14T19:18:07-03:00*
G04 #@! TF.ProjectId,BlackPill Adaptor,426c6163-6b50-4696-9c6c-204164617074,rev?*
G04 #@! TF.SameCoordinates,Original*
G04 #@! TF.FileFunction,Legend,Top*
G04 #@! TF.FilePolarity,Positive*
%FSLAX46Y46*%
G04 Gerber Fmt 4.6, Leading zero omitted, Abs format (unit mm)*
G04 Created by KiCad (PCBNEW (5.1.7)-1) date 2021-04-14 19:18:07*
%MOMM*%
%LPD*%
G01*
G04 APERTURE LIST*
%ADD10C,0.150000*%
%ADD11C,0.250000*%
%ADD12C,0.380000*%
%ADD13C,0.120000*%
%ADD14C,0.300000*%
%ADD15C,0.381000*%
G04 APERTURE END LIST*
D10*
X131239047Y-118340714D02*
X131239047Y-119197857D01*
X131191428Y-119293095D01*
X131096190Y-119340714D01*
X131048571Y-119340714D01*
X131239047Y-118007380D02*
X131191428Y-118055000D01*
X131239047Y-118102619D01*
X131286666Y-118055000D01*
X131239047Y-118007380D01*
X131239047Y-118102619D01*
X132143809Y-118340714D02*
X132143809Y-119007380D01*
X131715238Y-118340714D02*
X131715238Y-118864523D01*
X131762857Y-118959761D01*
X131858095Y-119007380D01*
X132000952Y-119007380D01*
X132096190Y-118959761D01*
X132143809Y-118912142D01*
X132620000Y-119007380D02*
X132620000Y-118340714D01*
X132620000Y-118435952D02*
X132667619Y-118388333D01*
X132762857Y-118340714D01*
X132905714Y-118340714D01*
X133000952Y-118388333D01*
X133048571Y-118483571D01*
X133048571Y-119007380D01*
X133048571Y-118483571D02*
X133096190Y-118388333D01*
X133191428Y-118340714D01*
X133334285Y-118340714D01*
X133429523Y-118388333D01*
X133477142Y-118483571D01*
X133477142Y-119007380D01*
X133953333Y-118340714D02*
X133953333Y-119340714D01*
X133953333Y-118388333D02*
X134048571Y-118340714D01*
X134239047Y-118340714D01*
X134334285Y-118388333D01*
X134381904Y-118435952D01*
X134429523Y-118531190D01*
X134429523Y-118816904D01*
X134381904Y-118912142D01*
X134334285Y-118959761D01*
X134239047Y-119007380D01*
X134048571Y-119007380D01*
X133953333Y-118959761D01*
X135477142Y-118340714D02*
X135858095Y-118340714D01*
X135620000Y-119007380D02*
X135620000Y-118150238D01*
X135667619Y-118055000D01*
X135762857Y-118007380D01*
X135858095Y-118007380D01*
X136334285Y-119007380D02*
X136239047Y-118959761D01*
X136191428Y-118912142D01*
X136143809Y-118816904D01*
X136143809Y-118531190D01*
X136191428Y-118435952D01*
X136239047Y-118388333D01*
X136334285Y-118340714D01*
X136477142Y-118340714D01*
X136572380Y-118388333D01*
X136620000Y-118435952D01*
X136667619Y-118531190D01*
X136667619Y-118816904D01*
X136620000Y-118912142D01*
X136572380Y-118959761D01*
X136477142Y-119007380D01*
X136334285Y-119007380D01*
X137096190Y-119007380D02*
X137096190Y-118340714D01*
X137096190Y-118531190D02*
X137143809Y-118435952D01*
X137191428Y-118388333D01*
X137286666Y-118340714D01*
X137381904Y-118340714D01*
X128429523Y-119657380D02*
X128667619Y-120657380D01*
X128858095Y-119943095D01*
X129048571Y-120657380D01*
X129286666Y-119657380D01*
X130048571Y-120609761D02*
X129953333Y-120657380D01*
X129762857Y-120657380D01*
X129667619Y-120609761D01*
X129620000Y-120514523D01*
X129620000Y-120133571D01*
X129667619Y-120038333D01*
X129762857Y-119990714D01*
X129953333Y-119990714D01*
X130048571Y-120038333D01*
X130096190Y-120133571D01*
X130096190Y-120228809D01*
X129620000Y-120324047D01*
X130477142Y-120371666D02*
X130953333Y-120371666D01*
X130381904Y-120657380D02*
X130715238Y-119657380D01*
X131048571Y-120657380D01*
X131953333Y-120562142D02*
X131905714Y-120609761D01*
X131762857Y-120657380D01*
X131667619Y-120657380D01*
X131524761Y-120609761D01*
X131429523Y-120514523D01*
X131381904Y-120419285D01*
X131334285Y-120228809D01*
X131334285Y-120085952D01*
X131381904Y-119895476D01*
X131429523Y-119800238D01*
X131524761Y-119705000D01*
X131667619Y-119657380D01*
X131762857Y-119657380D01*
X131905714Y-119705000D01*
X131953333Y-119752619D01*
X132239047Y-119657380D02*
X132810476Y-119657380D01*
X132524761Y-120657380D02*
X132524761Y-119657380D01*
X133810476Y-119657380D02*
X134429523Y-119657380D01*
X134096190Y-120038333D01*
X134239047Y-120038333D01*
X134334285Y-120085952D01*
X134381904Y-120133571D01*
X134429523Y-120228809D01*
X134429523Y-120466904D01*
X134381904Y-120562142D01*
X134334285Y-120609761D01*
X134239047Y-120657380D01*
X133953333Y-120657380D01*
X133858095Y-120609761D01*
X133810476Y-120562142D01*
X134858095Y-120562142D02*
X134905714Y-120609761D01*
X134858095Y-120657380D01*
X134810476Y-120609761D01*
X134858095Y-120562142D01*
X134858095Y-120657380D01*
X135524761Y-119657380D02*
X135620000Y-119657380D01*
X135715238Y-119705000D01*
X135762857Y-119752619D01*
X135810476Y-119847857D01*
X135858095Y-120038333D01*
X135858095Y-120276428D01*
X135810476Y-120466904D01*
X135762857Y-120562142D01*
X135715238Y-120609761D01*
X135620000Y-120657380D01*
X135524761Y-120657380D01*
X135429523Y-120609761D01*
X135381904Y-120562142D01*
X135334285Y-120466904D01*
X135286666Y-120276428D01*
X135286666Y-120038333D01*
X135334285Y-119847857D01*
X135381904Y-119752619D01*
X135429523Y-119705000D01*
X135524761Y-119657380D01*
X137048571Y-120657380D02*
X137048571Y-119657380D01*
X137048571Y-120038333D02*
X137143809Y-119990714D01*
X137334285Y-119990714D01*
X137429523Y-120038333D01*
X137477142Y-120085952D01*
X137524761Y-120181190D01*
X137524761Y-120466904D01*
X137477142Y-120562142D01*
X137429523Y-120609761D01*
X137334285Y-120657380D01*
X137143809Y-120657380D01*
X137048571Y-120609761D01*
X138096190Y-120657380D02*
X138000952Y-120609761D01*
X137953333Y-120562142D01*
X137905714Y-120466904D01*
X137905714Y-120181190D01*
X137953333Y-120085952D01*
X138000952Y-120038333D01*
X138096190Y-119990714D01*
X138239047Y-119990714D01*
X138334285Y-120038333D01*
X138381904Y-120085952D01*
X138429523Y-120181190D01*
X138429523Y-120466904D01*
X138381904Y-120562142D01*
X138334285Y-120609761D01*
X138239047Y-120657380D01*
X138096190Y-120657380D01*
X138858095Y-120657380D02*
X138858095Y-119990714D01*
X138858095Y-120181190D02*
X138905714Y-120085952D01*
X138953333Y-120038333D01*
X139048571Y-119990714D01*
X139143809Y-119990714D01*
X139905714Y-120657380D02*
X139905714Y-119657380D01*
X139905714Y-120609761D02*
X139810476Y-120657380D01*
X139620000Y-120657380D01*
X139524761Y-120609761D01*
X139477142Y-120562142D01*
X139429523Y-120466904D01*
X139429523Y-120181190D01*
X139477142Y-120085952D01*
X139524761Y-120038333D01*
X139620000Y-119990714D01*
X139810476Y-119990714D01*
X139905714Y-120038333D01*
X140334285Y-120609761D02*
X140429523Y-120657380D01*
X140620000Y-120657380D01*
X140715238Y-120609761D01*
X140762857Y-120514523D01*
X140762857Y-120466904D01*
X140715238Y-120371666D01*
X140620000Y-120324047D01*
X140477142Y-120324047D01*
X140381904Y-120276428D01*
X140334285Y-120181190D01*
X140334285Y-120133571D01*
X140381904Y-120038333D01*
X140477142Y-119990714D01*
X140620000Y-119990714D01*
X140715238Y-120038333D01*
D11*
X142281428Y-84578857D02*
X142281428Y-85378857D01*
X141995714Y-84121714D02*
X141710000Y-84978857D01*
X142452857Y-84978857D01*
X142910000Y-85264571D02*
X142967142Y-85321714D01*
X142910000Y-85378857D01*
X142852857Y-85321714D01*
X142910000Y-85264571D01*
X142910000Y-85378857D01*
X143367142Y-84178857D02*
X144167142Y-84178857D01*
X143652857Y-85378857D01*
X144624285Y-85378857D02*
X144624285Y-84178857D01*
X145310000Y-85378857D02*
X144795714Y-84693142D01*
X145310000Y-84178857D02*
X144624285Y-84864571D01*
D12*
X200914000Y-87630000D02*
X200914000Y-125730000D01*
D10*
X113119761Y-113603404D02*
X113167380Y-113460547D01*
X113167380Y-113222452D01*
X113119761Y-113127214D01*
X113072142Y-113079595D01*
X112976904Y-113031976D01*
X112881666Y-113031976D01*
X112786428Y-113079595D01*
X112738809Y-113127214D01*
X112691190Y-113222452D01*
X112643571Y-113412928D01*
X112595952Y-113508166D01*
X112548333Y-113555785D01*
X112453095Y-113603404D01*
X112357857Y-113603404D01*
X112262619Y-113555785D01*
X112215000Y-113508166D01*
X112167380Y-113412928D01*
X112167380Y-113174833D01*
X112215000Y-113031976D01*
X113072142Y-112031976D02*
X113119761Y-112079595D01*
X113167380Y-112222452D01*
X113167380Y-112317690D01*
X113119761Y-112460547D01*
X113024523Y-112555785D01*
X112929285Y-112603404D01*
X112738809Y-112651023D01*
X112595952Y-112651023D01*
X112405476Y-112603404D01*
X112310238Y-112555785D01*
X112215000Y-112460547D01*
X112167380Y-112317690D01*
X112167380Y-112222452D01*
X112215000Y-112079595D01*
X112262619Y-112031976D01*
X113167380Y-111603404D02*
X112167380Y-111603404D01*
X113167380Y-111031976D02*
X112595952Y-111460547D01*
X112167380Y-111031976D02*
X112738809Y-111603404D01*
X114817380Y-114222452D02*
X113817380Y-114222452D01*
X114531666Y-113889119D01*
X113817380Y-113555785D01*
X114817380Y-113555785D01*
X114817380Y-113079595D02*
X113817380Y-113079595D01*
X114769761Y-112651023D02*
X114817380Y-112508166D01*
X114817380Y-112270071D01*
X114769761Y-112174833D01*
X114722142Y-112127214D01*
X114626904Y-112079595D01*
X114531666Y-112079595D01*
X114436428Y-112127214D01*
X114388809Y-112174833D01*
X114341190Y-112270071D01*
X114293571Y-112460547D01*
X114245952Y-112555785D01*
X114198333Y-112603404D01*
X114103095Y-112651023D01*
X114007857Y-112651023D01*
X113912619Y-112603404D01*
X113865000Y-112555785D01*
X113817380Y-112460547D01*
X113817380Y-112222452D01*
X113865000Y-112079595D01*
X113817380Y-111460547D02*
X113817380Y-111270071D01*
X113865000Y-111174833D01*
X113960238Y-111079595D01*
X114150714Y-111031976D01*
X114484047Y-111031976D01*
X114674523Y-111079595D01*
X114769761Y-111174833D01*
X114817380Y-111270071D01*
X114817380Y-111460547D01*
X114769761Y-111555785D01*
X114674523Y-111651023D01*
X114484047Y-111698642D01*
X114150714Y-111698642D01*
X113960238Y-111651023D01*
X113865000Y-111555785D01*
X113817380Y-111460547D01*
X116467380Y-114222452D02*
X115467380Y-114222452D01*
X116181666Y-113889119D01*
X115467380Y-113555785D01*
X116467380Y-113555785D01*
X115467380Y-112889119D02*
X115467380Y-112698642D01*
X115515000Y-112603404D01*
X115610238Y-112508166D01*
X115800714Y-112460547D01*
X116134047Y-112460547D01*
X116324523Y-112508166D01*
X116419761Y-112603404D01*
X116467380Y-112698642D01*
X116467380Y-112889119D01*
X116419761Y-112984357D01*
X116324523Y-113079595D01*
X116134047Y-113127214D01*
X115800714Y-113127214D01*
X115610238Y-113079595D01*
X115515000Y-112984357D01*
X115467380Y-112889119D01*
X116419761Y-112079595D02*
X116467380Y-111936738D01*
X116467380Y-111698642D01*
X116419761Y-111603404D01*
X116372142Y-111555785D01*
X116276904Y-111508166D01*
X116181666Y-111508166D01*
X116086428Y-111555785D01*
X116038809Y-111603404D01*
X115991190Y-111698642D01*
X115943571Y-111889119D01*
X115895952Y-111984357D01*
X115848333Y-112031976D01*
X115753095Y-112079595D01*
X115657857Y-112079595D01*
X115562619Y-112031976D01*
X115515000Y-111984357D01*
X115467380Y-111889119D01*
X115467380Y-111651023D01*
X115515000Y-111508166D01*
X116467380Y-111079595D02*
X115467380Y-111079595D01*
X117117380Y-113936738D02*
X117117380Y-113317690D01*
X117498333Y-113651023D01*
X117498333Y-113508166D01*
X117545952Y-113412928D01*
X117593571Y-113365309D01*
X117688809Y-113317690D01*
X117926904Y-113317690D01*
X118022142Y-113365309D01*
X118069761Y-113412928D01*
X118117380Y-113508166D01*
X118117380Y-113793880D01*
X118069761Y-113889119D01*
X118022142Y-113936738D01*
X118022142Y-112889119D02*
X118069761Y-112841500D01*
X118117380Y-112889119D01*
X118069761Y-112936738D01*
X118022142Y-112889119D01*
X118117380Y-112889119D01*
X117117380Y-112508166D02*
X117117380Y-111889119D01*
X117498333Y-112222452D01*
X117498333Y-112079595D01*
X117545952Y-111984357D01*
X117593571Y-111936738D01*
X117688809Y-111889119D01*
X117926904Y-111889119D01*
X118022142Y-111936738D01*
X118069761Y-111984357D01*
X118117380Y-112079595D01*
X118117380Y-112365309D01*
X118069761Y-112460547D01*
X118022142Y-112508166D01*
X117117380Y-111603404D02*
X118117380Y-111270071D01*
X117117380Y-110936738D01*
X118815000Y-113127214D02*
X118767380Y-113222452D01*
X118767380Y-113365309D01*
X118815000Y-113508166D01*
X118910238Y-113603404D01*
X119005476Y-113651023D01*
X119195952Y-113698642D01*
X119338809Y-113698642D01*
X119529285Y-113651023D01*
X119624523Y-113603404D01*
X119719761Y-113508166D01*
X119767380Y-113365309D01*
X119767380Y-113270071D01*
X119719761Y-113127214D01*
X119672142Y-113079595D01*
X119338809Y-113079595D01*
X119338809Y-113270071D01*
X119767380Y-112651023D02*
X118767380Y-112651023D01*
X119767380Y-112079595D01*
X118767380Y-112079595D01*
X119767380Y-111603404D02*
X118767380Y-111603404D01*
X118767380Y-111365309D01*
X118815000Y-111222452D01*
X118910238Y-111127214D01*
X119005476Y-111079595D01*
X119195952Y-111031976D01*
X119338809Y-111031976D01*
X119529285Y-111079595D01*
X119624523Y-111127214D01*
X119719761Y-111222452D01*
X119767380Y-111365309D01*
X119767380Y-111603404D01*
X121322142Y-111984357D02*
X121369761Y-112031976D01*
X121417380Y-112174833D01*
X121417380Y-112270071D01*
X121369761Y-112412928D01*
X121274523Y-112508166D01*
X121179285Y-112555785D01*
X120988809Y-112603404D01*
X120845952Y-112603404D01*
X120655476Y-112555785D01*
X120560238Y-112508166D01*
X120465000Y-112412928D01*
X120417380Y-112270071D01*
X120417380Y-112174833D01*
X120465000Y-112031976D01*
X120512619Y-111984357D01*
X121369761Y-111603404D02*
X121417380Y-111460547D01*
X121417380Y-111222452D01*
X121369761Y-111127214D01*
X121322142Y-111079595D01*
X121226904Y-111031976D01*
X121131666Y-111031976D01*
X121036428Y-111079595D01*
X120988809Y-111127214D01*
X120941190Y-111222452D01*
X120893571Y-111412928D01*
X120845952Y-111508166D01*
X120798333Y-111555785D01*
X120703095Y-111603404D01*
X120607857Y-111603404D01*
X120512619Y-111555785D01*
X120465000Y-111508166D01*
X120417380Y-111412928D01*
X120417380Y-111174833D01*
X120465000Y-111031976D01*
D11*
X146396285Y-98332857D02*
X146624857Y-98332857D01*
X146739142Y-98275714D01*
X146796285Y-98218571D01*
X146910571Y-98047142D01*
X146967714Y-97818571D01*
X146967714Y-97361428D01*
X146910571Y-97247142D01*
X146853428Y-97190000D01*
X146739142Y-97132857D01*
X146510571Y-97132857D01*
X146396285Y-97190000D01*
X146339142Y-97247142D01*
X146282000Y-97361428D01*
X146282000Y-97647142D01*
X146339142Y-97761428D01*
X146396285Y-97818571D01*
X146510571Y-97875714D01*
X146739142Y-97875714D01*
X146853428Y-97818571D01*
X146910571Y-97761428D01*
X146967714Y-97647142D01*
X147482000Y-98218571D02*
X147539142Y-98275714D01*
X147482000Y-98332857D01*
X147424857Y-98275714D01*
X147482000Y-98218571D01*
X147482000Y-98332857D01*
X148682000Y-98332857D02*
X147996285Y-98332857D01*
X148339142Y-98332857D02*
X148339142Y-97132857D01*
X148224857Y-97304285D01*
X148110571Y-97418571D01*
X147996285Y-97475714D01*
X149196285Y-98332857D02*
X149196285Y-97132857D01*
X149882000Y-98332857D02*
X149367714Y-97647142D01*
X149882000Y-97132857D02*
X149196285Y-97818571D01*
X105596428Y-93992142D02*
X104382142Y-93992142D01*
X104239285Y-94063571D01*
X104167857Y-94135000D01*
X104096428Y-94277857D01*
X104096428Y-94563571D01*
X104167857Y-94706428D01*
X104239285Y-94777857D01*
X104382142Y-94849285D01*
X105596428Y-94849285D01*
X104167857Y-95492142D02*
X104096428Y-95706428D01*
X104096428Y-96063571D01*
X104167857Y-96206428D01*
X104239285Y-96277857D01*
X104382142Y-96349285D01*
X104525000Y-96349285D01*
X104667857Y-96277857D01*
X104739285Y-96206428D01*
X104810714Y-96063571D01*
X104882142Y-95777857D01*
X104953571Y-95635000D01*
X105025000Y-95563571D01*
X105167857Y-95492142D01*
X105310714Y-95492142D01*
X105453571Y-95563571D01*
X105525000Y-95635000D01*
X105596428Y-95777857D01*
X105596428Y-96135000D01*
X105525000Y-96349285D01*
X104882142Y-97492142D02*
X104810714Y-97706428D01*
X104739285Y-97777857D01*
X104596428Y-97849285D01*
X104382142Y-97849285D01*
X104239285Y-97777857D01*
X104167857Y-97706428D01*
X104096428Y-97563571D01*
X104096428Y-96992142D01*
X105596428Y-96992142D01*
X105596428Y-97492142D01*
X105525000Y-97635000D01*
X105453571Y-97706428D01*
X105310714Y-97777857D01*
X105167857Y-97777857D01*
X105025000Y-97706428D01*
X104953571Y-97635000D01*
X104882142Y-97492142D01*
X104882142Y-96992142D01*
X125924214Y-111371142D02*
X126138500Y-111442571D01*
X126495642Y-111442571D01*
X126638500Y-111371142D01*
X126709928Y-111299714D01*
X126781357Y-111156857D01*
X126781357Y-111014000D01*
X126709928Y-110871142D01*
X126638500Y-110799714D01*
X126495642Y-110728285D01*
X126209928Y-110656857D01*
X126067071Y-110585428D01*
X125995642Y-110514000D01*
X125924214Y-110371142D01*
X125924214Y-110228285D01*
X125995642Y-110085428D01*
X126067071Y-110014000D01*
X126209928Y-109942571D01*
X126567071Y-109942571D01*
X126781357Y-110014000D01*
X127209928Y-109942571D02*
X128067071Y-109942571D01*
X127638500Y-111442571D02*
X127638500Y-109942571D01*
X128567071Y-111442571D02*
X128567071Y-109942571D01*
X129067071Y-111014000D01*
X129567071Y-109942571D01*
X129567071Y-111442571D01*
X130138500Y-109942571D02*
X131067071Y-109942571D01*
X130567071Y-110514000D01*
X130781357Y-110514000D01*
X130924214Y-110585428D01*
X130995642Y-110656857D01*
X131067071Y-110799714D01*
X131067071Y-111156857D01*
X130995642Y-111299714D01*
X130924214Y-111371142D01*
X130781357Y-111442571D01*
X130352785Y-111442571D01*
X130209928Y-111371142D01*
X130138500Y-111299714D01*
X131638500Y-110085428D02*
X131709928Y-110014000D01*
X131852785Y-109942571D01*
X132209928Y-109942571D01*
X132352785Y-110014000D01*
X132424214Y-110085428D01*
X132495642Y-110228285D01*
X132495642Y-110371142D01*
X132424214Y-110585428D01*
X131567071Y-111442571D01*
X132495642Y-111442571D01*
X134781357Y-110656857D02*
X134995642Y-110728285D01*
X135067071Y-110799714D01*
X135138500Y-110942571D01*
X135138500Y-111156857D01*
X135067071Y-111299714D01*
X134995642Y-111371142D01*
X134852785Y-111442571D01*
X134281357Y-111442571D01*
X134281357Y-109942571D01*
X134781357Y-109942571D01*
X134924214Y-110014000D01*
X134995642Y-110085428D01*
X135067071Y-110228285D01*
X135067071Y-110371142D01*
X134995642Y-110514000D01*
X134924214Y-110585428D01*
X134781357Y-110656857D01*
X134281357Y-110656857D01*
X135995642Y-111442571D02*
X135852785Y-111371142D01*
X135781357Y-111228285D01*
X135781357Y-109942571D01*
X137209928Y-111442571D02*
X137209928Y-110656857D01*
X137138500Y-110514000D01*
X136995642Y-110442571D01*
X136709928Y-110442571D01*
X136567071Y-110514000D01*
X137209928Y-111371142D02*
X137067071Y-111442571D01*
X136709928Y-111442571D01*
X136567071Y-111371142D01*
X136495642Y-111228285D01*
X136495642Y-111085428D01*
X136567071Y-110942571D01*
X136709928Y-110871142D01*
X137067071Y-110871142D01*
X137209928Y-110799714D01*
X138567071Y-111371142D02*
X138424214Y-111442571D01*
X138138500Y-111442571D01*
X137995642Y-111371142D01*
X137924214Y-111299714D01*
X137852785Y-111156857D01*
X137852785Y-110728285D01*
X137924214Y-110585428D01*
X137995642Y-110514000D01*
X138138500Y-110442571D01*
X138424214Y-110442571D01*
X138567071Y-110514000D01*
X139209928Y-111442571D02*
X139209928Y-109942571D01*
X139352785Y-110871142D02*
X139781357Y-111442571D01*
X139781357Y-110442571D02*
X139209928Y-111014000D01*
X140424214Y-111442571D02*
X140424214Y-109942571D01*
X140995642Y-109942571D01*
X141138500Y-110014000D01*
X141209928Y-110085428D01*
X141281357Y-110228285D01*
X141281357Y-110442571D01*
X141209928Y-110585428D01*
X141138500Y-110656857D01*
X140995642Y-110728285D01*
X140424214Y-110728285D01*
X141924214Y-111442571D02*
X141924214Y-110442571D01*
X141924214Y-109942571D02*
X141852785Y-110014000D01*
X141924214Y-110085428D01*
X141995642Y-110014000D01*
X141924214Y-109942571D01*
X141924214Y-110085428D01*
X142852785Y-111442571D02*
X142709928Y-111371142D01*
X142638500Y-111228285D01*
X142638500Y-109942571D01*
X143638500Y-111442571D02*
X143495642Y-111371142D01*
X143424214Y-111228285D01*
X143424214Y-109942571D01*
X145281357Y-111014000D02*
X145995642Y-111014000D01*
X145138500Y-111442571D02*
X145638500Y-109942571D01*
X146138500Y-111442571D01*
X147281357Y-111442571D02*
X147281357Y-109942571D01*
X147281357Y-111371142D02*
X147138500Y-111442571D01*
X146852785Y-111442571D01*
X146709928Y-111371142D01*
X146638500Y-111299714D01*
X146567071Y-111156857D01*
X146567071Y-110728285D01*
X146638500Y-110585428D01*
X146709928Y-110514000D01*
X146852785Y-110442571D01*
X147138500Y-110442571D01*
X147281357Y-110514000D01*
X148638500Y-111442571D02*
X148638500Y-110656857D01*
X148567071Y-110514000D01*
X148424214Y-110442571D01*
X148138500Y-110442571D01*
X147995642Y-110514000D01*
X148638500Y-111371142D02*
X148495642Y-111442571D01*
X148138500Y-111442571D01*
X147995642Y-111371142D01*
X147924214Y-111228285D01*
X147924214Y-111085428D01*
X147995642Y-110942571D01*
X148138500Y-110871142D01*
X148495642Y-110871142D01*
X148638500Y-110799714D01*
X149352785Y-110442571D02*
X149352785Y-111942571D01*
X149352785Y-110514000D02*
X149495642Y-110442571D01*
X149781357Y-110442571D01*
X149924214Y-110514000D01*
X149995642Y-110585428D01*
X150067071Y-110728285D01*
X150067071Y-111156857D01*
X149995642Y-111299714D01*
X149924214Y-111371142D01*
X149781357Y-111442571D01*
X149495642Y-111442571D01*
X149352785Y-111371142D01*
X151281357Y-111371142D02*
X151138500Y-111442571D01*
X150852785Y-111442571D01*
X150709928Y-111371142D01*
X150638500Y-111228285D01*
X150638500Y-110656857D01*
X150709928Y-110514000D01*
X150852785Y-110442571D01*
X151138500Y-110442571D01*
X151281357Y-110514000D01*
X151352785Y-110656857D01*
X151352785Y-110799714D01*
X150638500Y-110942571D01*
X151995642Y-111442571D02*
X151995642Y-110442571D01*
X151995642Y-110728285D02*
X152067071Y-110585428D01*
X152138500Y-110514000D01*
X152281357Y-110442571D01*
X152424214Y-110442571D01*
X125852785Y-112942571D02*
X126209928Y-113942571D01*
X126567071Y-112942571D01*
X127424214Y-112442571D02*
X127567071Y-112442571D01*
X127709928Y-112514000D01*
X127781357Y-112585428D01*
X127852785Y-112728285D01*
X127924214Y-113014000D01*
X127924214Y-113371142D01*
X127852785Y-113656857D01*
X127781357Y-113799714D01*
X127709928Y-113871142D01*
X127567071Y-113942571D01*
X127424214Y-113942571D01*
X127281357Y-113871142D01*
X127209928Y-113799714D01*
X127138500Y-113656857D01*
X127067071Y-113371142D01*
X127067071Y-113014000D01*
X127138500Y-112728285D01*
X127209928Y-112585428D01*
X127281357Y-112514000D01*
X127424214Y-112442571D01*
X128567071Y-113799714D02*
X128638500Y-113871142D01*
X128567071Y-113942571D01*
X128495642Y-113871142D01*
X128567071Y-113799714D01*
X128567071Y-113942571D01*
X130067071Y-113942571D02*
X129209928Y-113942571D01*
X129638500Y-113942571D02*
X129638500Y-112442571D01*
X129495642Y-112656857D01*
X129352785Y-112799714D01*
X129209928Y-112871142D01*
X130709928Y-113799714D02*
X130781357Y-113871142D01*
X130709928Y-113942571D01*
X130638500Y-113871142D01*
X130709928Y-113799714D01*
X130709928Y-113942571D01*
X131709928Y-112442571D02*
X131852785Y-112442571D01*
X131995642Y-112514000D01*
X132067071Y-112585428D01*
X132138500Y-112728285D01*
X132209928Y-113014000D01*
X132209928Y-113371142D01*
X132138500Y-113656857D01*
X132067071Y-113799714D01*
X131995642Y-113871142D01*
X131852785Y-113942571D01*
X131709928Y-113942571D01*
X131567071Y-113871142D01*
X131495642Y-113799714D01*
X131424214Y-113656857D01*
X131352785Y-113371142D01*
X131352785Y-113014000D01*
X131424214Y-112728285D01*
X131495642Y-112585428D01*
X131567071Y-112514000D01*
X131709928Y-112442571D01*
X133709928Y-112942571D02*
X133495642Y-113656857D01*
X133424214Y-113799714D01*
X133352785Y-113871142D01*
X133209928Y-113942571D01*
X133067071Y-113942571D01*
X132924214Y-113871142D01*
X132852785Y-113799714D01*
X132781357Y-113585428D01*
X132781357Y-113299714D01*
X132852785Y-113085428D01*
X132924214Y-113014000D01*
X133067071Y-112942571D01*
X133209928Y-112942571D01*
X133352785Y-113014000D01*
X133424214Y-113085428D01*
X133495642Y-113228285D01*
X133567071Y-113728285D01*
X133638500Y-113871142D01*
X133781357Y-113942571D01*
D13*
X111379000Y-99695000D02*
X103505000Y-99695000D01*
X111379000Y-92075000D02*
X111379000Y-99695000D01*
X103505000Y-92075000D02*
X111379000Y-92075000D01*
D14*
X160786285Y-109644571D02*
X160072000Y-109644571D01*
X160072000Y-108144571D01*
X161286285Y-109644571D02*
X161286285Y-108144571D01*
X161786285Y-109216000D01*
X162286285Y-108144571D01*
X162286285Y-109644571D01*
X162857714Y-108144571D02*
X163786285Y-108144571D01*
X163286285Y-108716000D01*
X163500571Y-108716000D01*
X163643428Y-108787428D01*
X163714857Y-108858857D01*
X163786285Y-109001714D01*
X163786285Y-109358857D01*
X163714857Y-109501714D01*
X163643428Y-109573142D01*
X163500571Y-109644571D01*
X163072000Y-109644571D01*
X162929142Y-109573142D01*
X162857714Y-109501714D01*
X164357714Y-108287428D02*
X164429142Y-108216000D01*
X164572000Y-108144571D01*
X164929142Y-108144571D01*
X165072000Y-108216000D01*
X165143428Y-108287428D01*
X165214857Y-108430285D01*
X165214857Y-108573142D01*
X165143428Y-108787428D01*
X164286285Y-109644571D01*
X165214857Y-109644571D01*
X166500571Y-108644571D02*
X166500571Y-109644571D01*
X166143428Y-108073142D02*
X165786285Y-109144571D01*
X166714857Y-109144571D01*
D13*
X107950000Y-119057000D02*
X110675000Y-119057000D01*
X110675000Y-119057000D02*
X110675000Y-118797000D01*
X107950000Y-119057000D02*
X105225000Y-119057000D01*
X105225000Y-119057000D02*
X105225000Y-118797000D01*
X107950000Y-113607000D02*
X110675000Y-113607000D01*
X110675000Y-113607000D02*
X110675000Y-113867000D01*
X107950000Y-113607000D02*
X105225000Y-113607000D01*
X105225000Y-113607000D02*
X105225000Y-113867000D01*
X105225000Y-113867000D02*
X103550000Y-113867000D01*
X169229000Y-121021000D02*
X171179000Y-121021000D01*
X169229000Y-121021000D02*
X167279000Y-121021000D01*
X169229000Y-112151000D02*
X171179000Y-112151000D01*
X169229000Y-112151000D02*
X165779000Y-112151000D01*
X123138000Y-84655922D02*
X123138000Y-85173078D01*
X121718000Y-84655922D02*
X121718000Y-85173078D01*
X125678000Y-84655922D02*
X125678000Y-85173078D01*
X124258000Y-84655922D02*
X124258000Y-85173078D01*
X128218000Y-84655922D02*
X128218000Y-85173078D01*
X126798000Y-84655922D02*
X126798000Y-85173078D01*
X130758000Y-84655922D02*
X130758000Y-85173078D01*
X129338000Y-84655922D02*
X129338000Y-85173078D01*
X133298000Y-84655922D02*
X133298000Y-85173078D01*
X131878000Y-84655922D02*
X131878000Y-85173078D01*
X135838000Y-84655922D02*
X135838000Y-85173078D01*
X134418000Y-84655922D02*
X134418000Y-85173078D01*
X138378000Y-84655922D02*
X138378000Y-85173078D01*
X136958000Y-84655922D02*
X136958000Y-85173078D01*
X103445000Y-102302000D02*
X103445000Y-87062000D01*
X154365000Y-87062000D02*
X154365000Y-104962000D01*
X103445000Y-87062000D02*
X154365000Y-87062000D01*
X154365000Y-104962000D02*
X106045000Y-104962000D01*
X103445000Y-102302000D02*
X154365000Y-102302000D01*
X154365000Y-89722000D02*
X103445000Y-89722000D01*
X106045000Y-104962000D02*
X106045000Y-102302000D01*
X103445000Y-103632000D02*
X103445000Y-104962000D01*
X103445000Y-104962000D02*
X104775000Y-104962000D01*
X132154000Y-120958000D02*
X132154000Y-123898000D01*
X132154000Y-123898000D02*
X137594000Y-123898000D01*
X137594000Y-123898000D02*
X137594000Y-120958000D01*
X137594000Y-120958000D02*
X132154000Y-120958000D01*
X131134000Y-122428000D02*
X132154000Y-122428000D01*
X138614000Y-122428000D02*
X137594000Y-122428000D01*
X133054000Y-120958000D02*
X133054000Y-123898000D01*
X133174000Y-120958000D02*
X133174000Y-123898000D01*
X132934000Y-120958000D02*
X132934000Y-123898000D01*
X108033078Y-121106000D02*
X107515922Y-121106000D01*
X108033078Y-119686000D02*
X107515922Y-119686000D01*
X105985000Y-107128000D02*
X105985000Y-109788000D01*
X118745000Y-107128000D02*
X105985000Y-107128000D01*
X118745000Y-109788000D02*
X105985000Y-109788000D01*
X118745000Y-107128000D02*
X118745000Y-109788000D01*
X120015000Y-107128000D02*
X121345000Y-107128000D01*
X121345000Y-107128000D02*
X121345000Y-108458000D01*
X105483922Y-90476000D02*
X106001078Y-90476000D01*
X105483922Y-91896000D02*
X106001078Y-91896000D01*
X148792000Y-91356922D02*
X148792000Y-91874078D01*
X147372000Y-91356922D02*
X147372000Y-91874078D01*
X146252000Y-91356922D02*
X146252000Y-91874078D01*
X144832000Y-91356922D02*
X144832000Y-91874078D01*
X151332000Y-91356922D02*
X151332000Y-91874078D01*
X149912000Y-91356922D02*
X149912000Y-91874078D01*
X157799000Y-121021000D02*
X159749000Y-121021000D01*
X157799000Y-121021000D02*
X155849000Y-121021000D01*
X157799000Y-112151000D02*
X159749000Y-112151000D01*
X157799000Y-112151000D02*
X154349000Y-112151000D01*
D15*
X200914000Y-128270000D02*
X101854000Y-128270000D01*
X199644000Y-74930000D02*
X101854000Y-74930000D01*
X200914000Y-87630000D02*
X200914000Y-76200000D01*
X200914000Y-76200000D02*
X199644000Y-74930000D01*
X101854000Y-128270000D02*
X101854000Y-74930000D01*
X200914000Y-87630000D02*
X203454000Y-90170000D01*
X203454000Y-90170000D02*
X203454000Y-123190000D01*
X203454000Y-123190000D02*
X200914000Y-125730000D01*
X200914000Y-125730000D02*
X200914000Y-128270000D01*
D13*
X107261922Y-111812000D02*
X107779078Y-111812000D01*
X107261922Y-113232000D02*
X107779078Y-113232000D01*
X140918000Y-84655922D02*
X140918000Y-85173078D01*
X139498000Y-84655922D02*
X139498000Y-85173078D01*
X125954064Y-123788000D02*
X124749936Y-123788000D01*
X125954064Y-121068000D02*
X124749936Y-121068000D01*
X152237064Y-108675000D02*
X151032936Y-108675000D01*
X152237064Y-105955000D02*
X151032936Y-105955000D01*
X152356078Y-101548000D02*
X151838922Y-101548000D01*
X152356078Y-100128000D02*
X151838922Y-100128000D01*
D10*
X103505095Y-112228380D02*
X103505095Y-113037904D01*
X103552714Y-113133142D01*
X103600333Y-113180761D01*
X103695571Y-113228380D01*
X103886047Y-113228380D01*
X103981285Y-113180761D01*
X104028904Y-113133142D01*
X104076523Y-113037904D01*
X104076523Y-112228380D01*
X104981285Y-112561714D02*
X104981285Y-113228380D01*
X104743190Y-112180761D02*
X104505095Y-112895047D01*
X105124142Y-112895047D01*
X168656095Y-110704380D02*
X168656095Y-111513904D01*
X168703714Y-111609142D01*
X168751333Y-111656761D01*
X168846571Y-111704380D01*
X169037047Y-111704380D01*
X169132285Y-111656761D01*
X169179904Y-111609142D01*
X169227523Y-111513904D01*
X169227523Y-110704380D01*
X169656095Y-110799619D02*
X169703714Y-110752000D01*
X169798952Y-110704380D01*
X170037047Y-110704380D01*
X170132285Y-110752000D01*
X170179904Y-110799619D01*
X170227523Y-110894857D01*
X170227523Y-110990095D01*
X170179904Y-111132952D01*
X169608476Y-111704380D01*
X170227523Y-111704380D01*
X122880380Y-82430857D02*
X122404190Y-82764190D01*
X122880380Y-83002285D02*
X121880380Y-83002285D01*
X121880380Y-82621333D01*
X121928000Y-82526095D01*
X121975619Y-82478476D01*
X122070857Y-82430857D01*
X122213714Y-82430857D01*
X122308952Y-82478476D01*
X122356571Y-82526095D01*
X122404190Y-82621333D01*
X122404190Y-83002285D01*
X122880380Y-81478476D02*
X122880380Y-82049904D01*
X122880380Y-81764190D02*
X121880380Y-81764190D01*
X122023238Y-81859428D01*
X122118476Y-81954666D01*
X122166095Y-82049904D01*
X121880380Y-80573714D02*
X121880380Y-81049904D01*
X122356571Y-81097523D01*
X122308952Y-81049904D01*
X122261333Y-80954666D01*
X122261333Y-80716571D01*
X122308952Y-80621333D01*
X122356571Y-80573714D01*
X122451809Y-80526095D01*
X122689904Y-80526095D01*
X122785142Y-80573714D01*
X122832761Y-80621333D01*
X122880380Y-80716571D01*
X122880380Y-80954666D01*
X122832761Y-81049904D01*
X122785142Y-81097523D01*
X125420380Y-82430857D02*
X124944190Y-82764190D01*
X125420380Y-83002285D02*
X124420380Y-83002285D01*
X124420380Y-82621333D01*
X124468000Y-82526095D01*
X124515619Y-82478476D01*
X124610857Y-82430857D01*
X124753714Y-82430857D01*
X124848952Y-82478476D01*
X124896571Y-82526095D01*
X124944190Y-82621333D01*
X124944190Y-83002285D01*
X125420380Y-81478476D02*
X125420380Y-82049904D01*
X125420380Y-81764190D02*
X124420380Y-81764190D01*
X124563238Y-81859428D01*
X124658476Y-81954666D01*
X124706095Y-82049904D01*
X124420380Y-81145142D02*
X124420380Y-80526095D01*
X124801333Y-80859428D01*
X124801333Y-80716571D01*
X124848952Y-80621333D01*
X124896571Y-80573714D01*
X124991809Y-80526095D01*
X125229904Y-80526095D01*
X125325142Y-80573714D01*
X125372761Y-80621333D01*
X125420380Y-80716571D01*
X125420380Y-81002285D01*
X125372761Y-81097523D01*
X125325142Y-81145142D01*
X127960380Y-82430857D02*
X127484190Y-82764190D01*
X127960380Y-83002285D02*
X126960380Y-83002285D01*
X126960380Y-82621333D01*
X127008000Y-82526095D01*
X127055619Y-82478476D01*
X127150857Y-82430857D01*
X127293714Y-82430857D01*
X127388952Y-82478476D01*
X127436571Y-82526095D01*
X127484190Y-82621333D01*
X127484190Y-83002285D01*
X127960380Y-81478476D02*
X127960380Y-82049904D01*
X127960380Y-81764190D02*
X126960380Y-81764190D01*
X127103238Y-81859428D01*
X127198476Y-81954666D01*
X127246095Y-82049904D01*
X127960380Y-80526095D02*
X127960380Y-81097523D01*
X127960380Y-80811809D02*
X126960380Y-80811809D01*
X127103238Y-80907047D01*
X127198476Y-81002285D01*
X127246095Y-81097523D01*
X130500380Y-82462666D02*
X130024190Y-82796000D01*
X130500380Y-83034095D02*
X129500380Y-83034095D01*
X129500380Y-82653142D01*
X129548000Y-82557904D01*
X129595619Y-82510285D01*
X129690857Y-82462666D01*
X129833714Y-82462666D01*
X129928952Y-82510285D01*
X129976571Y-82557904D01*
X130024190Y-82653142D01*
X130024190Y-83034095D01*
X130500380Y-81986476D02*
X130500380Y-81796000D01*
X130452761Y-81700761D01*
X130405142Y-81653142D01*
X130262285Y-81557904D01*
X130071809Y-81510285D01*
X129690857Y-81510285D01*
X129595619Y-81557904D01*
X129548000Y-81605523D01*
X129500380Y-81700761D01*
X129500380Y-81891238D01*
X129548000Y-81986476D01*
X129595619Y-82034095D01*
X129690857Y-82081714D01*
X129928952Y-82081714D01*
X130024190Y-82034095D01*
X130071809Y-81986476D01*
X130119428Y-81891238D01*
X130119428Y-81700761D01*
X130071809Y-81605523D01*
X130024190Y-81557904D01*
X129928952Y-81510285D01*
X133040380Y-82462666D02*
X132564190Y-82796000D01*
X133040380Y-83034095D02*
X132040380Y-83034095D01*
X132040380Y-82653142D01*
X132088000Y-82557904D01*
X132135619Y-82510285D01*
X132230857Y-82462666D01*
X132373714Y-82462666D01*
X132468952Y-82510285D01*
X132516571Y-82557904D01*
X132564190Y-82653142D01*
X132564190Y-83034095D01*
X132040380Y-82129333D02*
X132040380Y-81462666D01*
X133040380Y-81891238D01*
X135580380Y-82462666D02*
X135104190Y-82796000D01*
X135580380Y-83034095D02*
X134580380Y-83034095D01*
X134580380Y-82653142D01*
X134628000Y-82557904D01*
X134675619Y-82510285D01*
X134770857Y-82462666D01*
X134913714Y-82462666D01*
X135008952Y-82510285D01*
X135056571Y-82557904D01*
X135104190Y-82653142D01*
X135104190Y-83034095D01*
X134580380Y-81557904D02*
X134580380Y-82034095D01*
X135056571Y-82081714D01*
X135008952Y-82034095D01*
X134961333Y-81938857D01*
X134961333Y-81700761D01*
X135008952Y-81605523D01*
X135056571Y-81557904D01*
X135151809Y-81510285D01*
X135389904Y-81510285D01*
X135485142Y-81557904D01*
X135532761Y-81605523D01*
X135580380Y-81700761D01*
X135580380Y-81938857D01*
X135532761Y-82034095D01*
X135485142Y-82081714D01*
X138120380Y-82462666D02*
X137644190Y-82796000D01*
X138120380Y-83034095D02*
X137120380Y-83034095D01*
X137120380Y-82653142D01*
X137168000Y-82557904D01*
X137215619Y-82510285D01*
X137310857Y-82462666D01*
X137453714Y-82462666D01*
X137548952Y-82510285D01*
X137596571Y-82557904D01*
X137644190Y-82653142D01*
X137644190Y-83034095D01*
X137120380Y-82129333D02*
X137120380Y-81510285D01*
X137501333Y-81843619D01*
X137501333Y-81700761D01*
X137548952Y-81605523D01*
X137596571Y-81557904D01*
X137691809Y-81510285D01*
X137929904Y-81510285D01*
X138025142Y-81557904D01*
X138072761Y-81605523D01*
X138120380Y-81700761D01*
X138120380Y-81986476D01*
X138072761Y-82081714D01*
X138025142Y-82129333D01*
X104140095Y-101052380D02*
X104140095Y-101861904D01*
X104187714Y-101957142D01*
X104235333Y-102004761D01*
X104330571Y-102052380D01*
X104521047Y-102052380D01*
X104616285Y-102004761D01*
X104663904Y-101957142D01*
X104711523Y-101861904D01*
X104711523Y-101052380D01*
X105092476Y-101052380D02*
X105711523Y-101052380D01*
X105378190Y-101433333D01*
X105521047Y-101433333D01*
X105616285Y-101480952D01*
X105663904Y-101528571D01*
X105711523Y-101623809D01*
X105711523Y-101861904D01*
X105663904Y-101957142D01*
X105616285Y-102004761D01*
X105521047Y-102052380D01*
X105235333Y-102052380D01*
X105140095Y-102004761D01*
X105092476Y-101957142D01*
X142009904Y-122880380D02*
X142009904Y-121880380D01*
X142248000Y-121880380D01*
X142390857Y-121928000D01*
X142486095Y-122023238D01*
X142533714Y-122118476D01*
X142581333Y-122308952D01*
X142581333Y-122451809D01*
X142533714Y-122642285D01*
X142486095Y-122737523D01*
X142390857Y-122832761D01*
X142248000Y-122880380D01*
X142009904Y-122880380D01*
X143533714Y-122880380D02*
X142962285Y-122880380D01*
X143248000Y-122880380D02*
X143248000Y-121880380D01*
X143152761Y-122023238D01*
X143057523Y-122118476D01*
X142962285Y-122166095D01*
X129532095Y-124912380D02*
X129532095Y-123912380D01*
X130103523Y-124912380D02*
X129674952Y-124340952D01*
X130103523Y-123912380D02*
X129532095Y-124483809D01*
X110577333Y-120753142D02*
X110529714Y-120800761D01*
X110386857Y-120848380D01*
X110291619Y-120848380D01*
X110148761Y-120800761D01*
X110053523Y-120705523D01*
X110005904Y-120610285D01*
X109958285Y-120419809D01*
X109958285Y-120276952D01*
X110005904Y-120086476D01*
X110053523Y-119991238D01*
X110148761Y-119896000D01*
X110291619Y-119848380D01*
X110386857Y-119848380D01*
X110529714Y-119896000D01*
X110577333Y-119943619D01*
X111434476Y-119848380D02*
X111244000Y-119848380D01*
X111148761Y-119896000D01*
X111101142Y-119943619D01*
X111005904Y-120086476D01*
X110958285Y-120276952D01*
X110958285Y-120657904D01*
X111005904Y-120753142D01*
X111053523Y-120800761D01*
X111148761Y-120848380D01*
X111339238Y-120848380D01*
X111434476Y-120800761D01*
X111482095Y-120753142D01*
X111529714Y-120657904D01*
X111529714Y-120419809D01*
X111482095Y-120324571D01*
X111434476Y-120276952D01*
X111339238Y-120229333D01*
X111148761Y-120229333D01*
X111053523Y-120276952D01*
X111005904Y-120324571D01*
X110958285Y-120419809D01*
X122011666Y-107910380D02*
X122011666Y-108624666D01*
X121964047Y-108767523D01*
X121868809Y-108862761D01*
X121725952Y-108910380D01*
X121630714Y-108910380D01*
X122964047Y-107910380D02*
X122487857Y-107910380D01*
X122440238Y-108386571D01*
X122487857Y-108338952D01*
X122583095Y-108291333D01*
X122821190Y-108291333D01*
X122916428Y-108338952D01*
X122964047Y-108386571D01*
X123011666Y-108481809D01*
X123011666Y-108719904D01*
X122964047Y-108815142D01*
X122916428Y-108862761D01*
X122821190Y-108910380D01*
X122583095Y-108910380D01*
X122487857Y-108862761D01*
X122440238Y-108815142D01*
X108496833Y-91543142D02*
X108449214Y-91590761D01*
X108306357Y-91638380D01*
X108211119Y-91638380D01*
X108068261Y-91590761D01*
X107973023Y-91495523D01*
X107925404Y-91400285D01*
X107877785Y-91209809D01*
X107877785Y-91066952D01*
X107925404Y-90876476D01*
X107973023Y-90781238D01*
X108068261Y-90686000D01*
X108211119Y-90638380D01*
X108306357Y-90638380D01*
X108449214Y-90686000D01*
X108496833Y-90733619D01*
X109401595Y-90638380D02*
X108925404Y-90638380D01*
X108877785Y-91114571D01*
X108925404Y-91066952D01*
X109020642Y-91019333D01*
X109258738Y-91019333D01*
X109353976Y-91066952D01*
X109401595Y-91114571D01*
X109449214Y-91209809D01*
X109449214Y-91447904D01*
X109401595Y-91543142D01*
X109353976Y-91590761D01*
X109258738Y-91638380D01*
X109020642Y-91638380D01*
X108925404Y-91590761D01*
X108877785Y-91543142D01*
X148534380Y-95481857D02*
X148058190Y-95815190D01*
X148534380Y-96053285D02*
X147534380Y-96053285D01*
X147534380Y-95672333D01*
X147582000Y-95577095D01*
X147629619Y-95529476D01*
X147724857Y-95481857D01*
X147867714Y-95481857D01*
X147962952Y-95529476D01*
X148010571Y-95577095D01*
X148058190Y-95672333D01*
X148058190Y-96053285D01*
X147629619Y-95100904D02*
X147582000Y-95053285D01*
X147534380Y-94958047D01*
X147534380Y-94719952D01*
X147582000Y-94624714D01*
X147629619Y-94577095D01*
X147724857Y-94529476D01*
X147820095Y-94529476D01*
X147962952Y-94577095D01*
X148534380Y-95148523D01*
X148534380Y-94529476D01*
X148534380Y-93577095D02*
X148534380Y-94148523D01*
X148534380Y-93862809D02*
X147534380Y-93862809D01*
X147677238Y-93958047D01*
X147772476Y-94053285D01*
X147820095Y-94148523D01*
X145994380Y-95481857D02*
X145518190Y-95815190D01*
X145994380Y-96053285D02*
X144994380Y-96053285D01*
X144994380Y-95672333D01*
X145042000Y-95577095D01*
X145089619Y-95529476D01*
X145184857Y-95481857D01*
X145327714Y-95481857D01*
X145422952Y-95529476D01*
X145470571Y-95577095D01*
X145518190Y-95672333D01*
X145518190Y-96053285D01*
X145089619Y-95100904D02*
X145042000Y-95053285D01*
X144994380Y-94958047D01*
X144994380Y-94719952D01*
X145042000Y-94624714D01*
X145089619Y-94577095D01*
X145184857Y-94529476D01*
X145280095Y-94529476D01*
X145422952Y-94577095D01*
X145994380Y-95148523D01*
X145994380Y-94529476D01*
X144994380Y-94196142D02*
X144994380Y-93577095D01*
X145375333Y-93910428D01*
X145375333Y-93767571D01*
X145422952Y-93672333D01*
X145470571Y-93624714D01*
X145565809Y-93577095D01*
X145803904Y-93577095D01*
X145899142Y-93624714D01*
X145946761Y-93672333D01*
X145994380Y-93767571D01*
X145994380Y-94053285D01*
X145946761Y-94148523D01*
X145899142Y-94196142D01*
X151074380Y-95481857D02*
X150598190Y-95815190D01*
X151074380Y-96053285D02*
X150074380Y-96053285D01*
X150074380Y-95672333D01*
X150122000Y-95577095D01*
X150169619Y-95529476D01*
X150264857Y-95481857D01*
X150407714Y-95481857D01*
X150502952Y-95529476D01*
X150550571Y-95577095D01*
X150598190Y-95672333D01*
X150598190Y-96053285D01*
X151074380Y-94529476D02*
X151074380Y-95100904D01*
X151074380Y-94815190D02*
X150074380Y-94815190D01*
X150217238Y-94910428D01*
X150312476Y-95005666D01*
X150360095Y-95100904D01*
X151074380Y-94053285D02*
X151074380Y-93862809D01*
X151026761Y-93767571D01*
X150979142Y-93719952D01*
X150836285Y-93624714D01*
X150645809Y-93577095D01*
X150264857Y-93577095D01*
X150169619Y-93624714D01*
X150122000Y-93672333D01*
X150074380Y-93767571D01*
X150074380Y-93958047D01*
X150122000Y-94053285D01*
X150169619Y-94100904D01*
X150264857Y-94148523D01*
X150502952Y-94148523D01*
X150598190Y-94100904D01*
X150645809Y-94053285D01*
X150693428Y-93958047D01*
X150693428Y-93767571D01*
X150645809Y-93672333D01*
X150598190Y-93624714D01*
X150502952Y-93577095D01*
X157226095Y-110704380D02*
X157226095Y-111513904D01*
X157273714Y-111609142D01*
X157321333Y-111656761D01*
X157416571Y-111704380D01*
X157607047Y-111704380D01*
X157702285Y-111656761D01*
X157749904Y-111609142D01*
X157797523Y-111513904D01*
X157797523Y-110704380D01*
X158797523Y-111704380D02*
X158226095Y-111704380D01*
X158511809Y-111704380D02*
X158511809Y-110704380D01*
X158416571Y-110847238D01*
X158321333Y-110942476D01*
X158226095Y-110990095D01*
X106877642Y-111324380D02*
X106544309Y-110848190D01*
X106306214Y-111324380D02*
X106306214Y-110324380D01*
X106687166Y-110324380D01*
X106782404Y-110372000D01*
X106830023Y-110419619D01*
X106877642Y-110514857D01*
X106877642Y-110657714D01*
X106830023Y-110752952D01*
X106782404Y-110800571D01*
X106687166Y-110848190D01*
X106306214Y-110848190D01*
X107830023Y-111324380D02*
X107258595Y-111324380D01*
X107544309Y-111324380D02*
X107544309Y-110324380D01*
X107449071Y-110467238D01*
X107353833Y-110562476D01*
X107258595Y-110610095D01*
X108163357Y-110324380D02*
X108830023Y-110324380D01*
X108401452Y-111324380D01*
X140660380Y-82462666D02*
X140184190Y-82796000D01*
X140660380Y-83034095D02*
X139660380Y-83034095D01*
X139660380Y-82653142D01*
X139708000Y-82557904D01*
X139755619Y-82510285D01*
X139850857Y-82462666D01*
X139993714Y-82462666D01*
X140088952Y-82510285D01*
X140136571Y-82557904D01*
X140184190Y-82653142D01*
X140184190Y-83034095D01*
X140660380Y-81510285D02*
X140660380Y-82081714D01*
X140660380Y-81796000D02*
X139660380Y-81796000D01*
X139803238Y-81891238D01*
X139898476Y-81986476D01*
X139946095Y-82081714D01*
X121756333Y-122785142D02*
X121708714Y-122832761D01*
X121565857Y-122880380D01*
X121470619Y-122880380D01*
X121327761Y-122832761D01*
X121232523Y-122737523D01*
X121184904Y-122642285D01*
X121137285Y-122451809D01*
X121137285Y-122308952D01*
X121184904Y-122118476D01*
X121232523Y-122023238D01*
X121327761Y-121928000D01*
X121470619Y-121880380D01*
X121565857Y-121880380D01*
X121708714Y-121928000D01*
X121756333Y-121975619D01*
X122613476Y-122213714D02*
X122613476Y-122880380D01*
X122375380Y-121832761D02*
X122137285Y-122547047D01*
X122756333Y-122547047D01*
X147661333Y-107672142D02*
X147613714Y-107719761D01*
X147470857Y-107767380D01*
X147375619Y-107767380D01*
X147232761Y-107719761D01*
X147137523Y-107624523D01*
X147089904Y-107529285D01*
X147042285Y-107338809D01*
X147042285Y-107195952D01*
X147089904Y-107005476D01*
X147137523Y-106910238D01*
X147232761Y-106815000D01*
X147375619Y-106767380D01*
X147470857Y-106767380D01*
X147613714Y-106815000D01*
X147661333Y-106862619D01*
X147994666Y-106767380D02*
X148613714Y-106767380D01*
X148280380Y-107148333D01*
X148423238Y-107148333D01*
X148518476Y-107195952D01*
X148566095Y-107243571D01*
X148613714Y-107338809D01*
X148613714Y-107576904D01*
X148566095Y-107672142D01*
X148518476Y-107719761D01*
X148423238Y-107767380D01*
X148137523Y-107767380D01*
X148042285Y-107719761D01*
X147994666Y-107672142D01*
X149058333Y-101195142D02*
X149010714Y-101242761D01*
X148867857Y-101290380D01*
X148772619Y-101290380D01*
X148629761Y-101242761D01*
X148534523Y-101147523D01*
X148486904Y-101052285D01*
X148439285Y-100861809D01*
X148439285Y-100718952D01*
X148486904Y-100528476D01*
X148534523Y-100433238D01*
X148629761Y-100338000D01*
X148772619Y-100290380D01*
X148867857Y-100290380D01*
X149010714Y-100338000D01*
X149058333Y-100385619D01*
X150010714Y-101290380D02*
X149439285Y-101290380D01*
X149725000Y-101290380D02*
X149725000Y-100290380D01*
X149629761Y-100433238D01*
X149534523Y-100528476D01*
X149439285Y-100576095D01*
M02*
