M48
; DRILL file {KiCad (5.1.6)-1} date 10/08/20 23:39:17
; FORMAT={-:-/ absolute / metric / decimal}
; #@! TF.CreationDate,2020-10-08T23:39:17-03:00
; #@! TF.GenerationSoftware,Kicad,Pcbnew,(5.1.6)-1
FMAT,2
METRIC
T1C0.400
T2C0.762
T3C0.813
T4C1.000
T5C1.100
T6C3.175
%
G90
G05
T1
X104.648Y-110.617
X108.712Y-106.045
X109.855Y-110.617
X124.968Y-94.742
X127.508Y-94.742
X130.048Y-94.742
X131.064Y-125.73
X132.08Y-125.73
X132.588Y-94.742
X133.096Y-125.73
X143.002Y-90.678
X146.558Y-85.852
X149.479Y-123.317
X151.384Y-116.586
X151.638Y-95.885
X151.638Y-97.282
X151.638Y-98.425
X153.67Y-116.586
X156.464Y-123.698
X162.306Y-117.094
X163.322Y-114.808
X165.1Y-116.586
X166.624Y-123.698
X171.577Y-96.393
X172.466Y-99.568
X173.736Y-99.568
X173.736Y-117.094
X180.594Y-97.536
X183.134Y-95.504
X191.516Y-100.33
X191.516Y-102.87
X193.294Y-109.22
X193.294Y-120.396
T2
X104.775Y-88.392
X104.775Y-103.632
X107.315Y-88.392
X107.315Y-103.632
X109.855Y-88.392
X109.855Y-103.632
X112.395Y-88.392
X112.395Y-103.632
X114.935Y-88.392
X114.935Y-103.632
X117.475Y-88.392
X117.475Y-103.632
X120.015Y-88.392
X120.015Y-103.632
X122.555Y-88.392
X122.555Y-103.632
X125.095Y-88.392
X125.095Y-103.632
X127.635Y-88.392
X127.635Y-103.632
X130.175Y-88.392
X130.175Y-103.632
X132.715Y-88.392
X132.715Y-103.632
X135.255Y-88.392
X135.255Y-103.632
X137.795Y-88.392
X137.795Y-103.632
X140.335Y-88.392
X140.335Y-103.632
X142.875Y-88.392
X142.875Y-103.632
X145.415Y-88.392
X145.415Y-103.632
X147.955Y-88.392
X147.955Y-103.632
X150.495Y-88.392
X150.495Y-103.632
X153.035Y-88.392
X153.035Y-103.632
T3
X125.73Y-77.47
X128.27Y-77.47
X130.81Y-77.47
X133.35Y-77.47
X134.874Y-125.73
X135.89Y-77.47
X137.414Y-125.73
X138.43Y-77.47
X139.954Y-125.73
X140.97Y-77.47
X142.494Y-125.73
X143.51Y-77.47
X145.034Y-125.73
X147.574Y-77.47
X147.574Y-125.73
X150.114Y-77.47
X152.654Y-77.47
X152.654Y-125.73
X155.194Y-77.47
X155.194Y-125.73
X157.734Y-77.47
X157.734Y-125.73
X160.274Y-77.47
X160.274Y-125.73
X162.814Y-77.47
X162.814Y-125.73
X165.354Y-77.47
X165.354Y-125.73
X167.894Y-125.73
X170.434Y-77.47
X170.434Y-125.73
X172.974Y-77.47
X175.514Y-77.47
X175.514Y-125.73
X178.054Y-77.47
X178.054Y-125.73
X180.594Y-77.47
X180.594Y-125.73
X183.134Y-77.47
X183.134Y-125.73
X185.674Y-77.47
X185.674Y-125.73
X188.214Y-77.47
X188.214Y-125.73
X190.754Y-125.73
X193.294Y-125.73
X195.834Y-77.47
X195.834Y-80.01
X195.834Y-82.55
X195.834Y-85.09
X195.834Y-87.63
X195.834Y-90.17
X195.834Y-92.71
X195.834Y-95.25
X195.834Y-97.79
X195.834Y-100.33
X195.834Y-102.87
X195.834Y-105.41
X195.834Y-107.95
X195.834Y-110.49
X195.834Y-113.03
X195.834Y-115.57
X195.834Y-118.11
X195.834Y-120.65
X198.374Y-77.47
X198.374Y-80.01
X198.374Y-82.55
X198.374Y-85.09
X198.374Y-87.63
X198.374Y-90.17
X198.374Y-92.71
X198.374Y-95.25
X198.374Y-97.79
X198.374Y-100.33
X198.374Y-102.87
X198.374Y-105.41
X198.374Y-107.95
X198.374Y-110.49
X198.374Y-113.03
X198.374Y-115.57
X198.374Y-118.11
X198.374Y-120.65
T4
X107.315Y-108.458
X109.855Y-108.458
X112.395Y-108.458
X114.935Y-108.458
X117.475Y-108.458
X120.015Y-108.458
T5
X129.794Y-122.428
X139.954Y-122.428
T6
X115.824Y-125.73
X117.094Y-77.47
X192.024Y-77.47
X198.374Y-125.73
T0
M30
