G04 MADE WITH FRITZING*
G04 WWW.FRITZING.ORG*
G04 DOUBLE SIDED*
G04 HOLES PLATED*
G04 CONTOUR ON CENTER OF CONTOUR VECTOR*
%ASAXBY*%
%FSLAX23Y23*%
%MOIN*%
%OFA0B0*%
%SFA1.0B1.0*%
%ADD10C,0.078000*%
%ADD11C,0.099055*%
%ADD12C,0.082000*%
%ADD13C,0.070000*%
%ADD14C,0.055990*%
%ADD15C,0.065993*%
%ADD16C,0.065965*%
%ADD17C,0.075000*%
%ADD18C,0.080000*%
%ADD19C,0.039370*%
%ADD20R,0.082000X0.082000*%
%ADD21R,0.099055X0.099055*%
%ADD22R,0.075000X0.075000*%
%ADD23R,0.080000X0.080000*%
%ADD24C,0.024000*%
%ADD25C,0.067000*%
%ADD26C,0.020000*%
%LNCOPPER0*%
G90*
G70*
G54D10*
X2371Y989D03*
X2371Y889D03*
X2371Y789D03*
G54D11*
X271Y1889D03*
X271Y2085D03*
X271Y89D03*
X271Y285D03*
G54D12*
X1071Y189D03*
X1071Y289D03*
X1071Y389D03*
X1571Y989D03*
X1571Y1089D03*
X1571Y1189D03*
X1071Y689D03*
X1071Y789D03*
X1071Y889D03*
X1571Y1489D03*
X1571Y1589D03*
X1571Y1689D03*
X2871Y1589D03*
X2573Y1589D03*
X571Y2089D03*
X869Y2089D03*
X2771Y1889D03*
X2473Y1889D03*
X571Y1889D03*
X869Y1889D03*
G54D13*
X2671Y1389D03*
X2871Y1389D03*
X771Y1489D03*
X771Y1689D03*
X2371Y1489D03*
X2371Y1689D03*
X571Y1489D03*
X571Y1689D03*
G54D11*
X1571Y189D03*
X1374Y189D03*
X4871Y2089D03*
X4871Y1892D03*
X4871Y289D03*
X4871Y92D03*
G54D14*
X3671Y189D03*
X2071Y189D03*
X3771Y189D03*
X3871Y189D03*
X3971Y189D03*
X4071Y189D03*
G54D15*
X4371Y1589D03*
G54D14*
X4171Y189D03*
X4271Y189D03*
X2111Y2089D03*
X2671Y189D03*
X2771Y189D03*
X2871Y189D03*
X2971Y189D03*
G54D15*
X4371Y789D03*
G54D14*
X3071Y189D03*
X3171Y189D03*
X3271Y189D03*
X3371Y189D03*
X2871Y2089D03*
G54D15*
X4371Y1989D03*
X4371Y1189D03*
X4371Y389D03*
G54D14*
X1711Y2089D03*
X2471Y189D03*
X2471Y2089D03*
G54D15*
X4371Y1789D03*
X4371Y1389D03*
G54D16*
X4371Y989D03*
G54D14*
X4071Y2089D03*
G54D15*
X4371Y589D03*
G54D14*
X3971Y2089D03*
X3871Y2089D03*
X3771Y2089D03*
X3671Y2089D03*
X3571Y2089D03*
X3471Y2089D03*
X3371Y2089D03*
X1511Y2089D03*
X1911Y2089D03*
X2311Y2089D03*
X1871Y189D03*
X2271Y189D03*
X3071Y2089D03*
X2671Y2089D03*
G54D15*
X4371Y2089D03*
X4371Y1889D03*
X4371Y1689D03*
X4371Y1489D03*
X4371Y1289D03*
X4371Y1089D03*
X4371Y889D03*
X4371Y689D03*
G54D16*
X4371Y489D03*
G54D14*
X1411Y2089D03*
X1611Y2089D03*
X1811Y2089D03*
X2011Y2089D03*
X2211Y2089D03*
X1771Y189D03*
X1971Y189D03*
X2171Y189D03*
X2371Y189D03*
X3171Y2089D03*
X2971Y2089D03*
X2771Y2089D03*
X2571Y2089D03*
G54D15*
X4471Y2089D03*
X4471Y1989D03*
X4471Y1889D03*
X4471Y1789D03*
X4471Y1689D03*
X4471Y1589D03*
X4471Y1489D03*
X4471Y1389D03*
X4471Y1289D03*
X4471Y1189D03*
X4471Y1089D03*
G54D16*
X4471Y989D03*
G54D15*
X4471Y889D03*
X4471Y789D03*
X4471Y689D03*
X4471Y589D03*
G54D16*
X4471Y489D03*
G54D15*
X4471Y389D03*
G54D14*
X3571Y189D03*
G54D17*
X3371Y1289D03*
X3371Y989D03*
X3271Y1289D03*
X3271Y989D03*
X3171Y1289D03*
X3171Y989D03*
X2571Y889D03*
X2971Y889D03*
X1871Y1289D03*
X1871Y1689D03*
X1071Y1389D03*
X1071Y1789D03*
X1871Y1189D03*
X1871Y789D03*
X971Y1489D03*
X971Y1089D03*
X1771Y1189D03*
X1771Y789D03*
X871Y1489D03*
X871Y1089D03*
X1971Y1289D03*
X1971Y1689D03*
X1171Y1389D03*
X1171Y1789D03*
X2571Y1189D03*
X2971Y1189D03*
G54D18*
X4871Y1679D03*
X4871Y1482D03*
X4871Y1285D03*
X4871Y1089D03*
X4871Y892D03*
X4871Y695D03*
X4871Y498D03*
G54D19*
X4271Y1489D03*
X2071Y589D03*
G54D20*
X1071Y189D03*
X1571Y989D03*
X1071Y689D03*
X1571Y1489D03*
X2872Y1589D03*
X570Y2089D03*
X570Y1889D03*
G54D21*
X1571Y189D03*
X4871Y2089D03*
X4871Y289D03*
G54D22*
X3371Y1289D03*
X2571Y889D03*
X1871Y1289D03*
X1071Y1389D03*
X1771Y1189D03*
X871Y1489D03*
X1971Y1289D03*
X1171Y1389D03*
X2571Y1189D03*
G54D23*
X4871Y1679D03*
G54D24*
X2471Y789D02*
X2401Y789D01*
D02*
X2471Y489D02*
X2471Y789D01*
G54D18*
D02*
X1571Y389D02*
X1571Y257D01*
D02*
X2271Y389D02*
X1571Y389D01*
D02*
X2271Y244D02*
X2271Y389D01*
D02*
X2371Y489D02*
X2471Y489D01*
D02*
X1371Y489D02*
X2371Y489D01*
D02*
X2471Y489D02*
X2471Y244D01*
D02*
X1373Y257D02*
X1371Y489D01*
G54D25*
D02*
X1271Y1589D02*
X1511Y1589D01*
D02*
X1271Y2189D02*
X1271Y1589D01*
D02*
X4671Y289D02*
X4670Y2188D01*
D02*
X4670Y2188D02*
X1271Y2189D01*
D02*
X4802Y289D02*
X4671Y289D01*
G54D13*
D02*
X1271Y1089D02*
X1511Y1089D01*
D02*
X1271Y89D02*
X1271Y1089D01*
D02*
X4671Y89D02*
X4670Y87D01*
D02*
X4670Y87D02*
X1271Y89D01*
D02*
X4802Y91D02*
X4671Y89D01*
G54D24*
D02*
X2372Y2087D02*
X2371Y1789D01*
D02*
X2071Y1389D02*
X2071Y1189D01*
D02*
X2271Y1389D02*
X2071Y1389D01*
D02*
X2071Y1189D02*
X1899Y1189D01*
D02*
X2371Y1789D02*
X2271Y1789D01*
D02*
X2271Y1789D02*
X2271Y1389D01*
D02*
X2339Y2088D02*
X2372Y2087D01*
D02*
X1471Y789D02*
X1471Y989D01*
D02*
X1471Y989D02*
X1539Y989D01*
D02*
X1742Y789D02*
X1471Y789D01*
D02*
X1471Y1489D02*
X1471Y1389D01*
D02*
X1771Y1389D02*
X1771Y1289D01*
D02*
X1771Y1289D02*
X1842Y1289D01*
D02*
X1471Y1389D02*
X1771Y1389D01*
D02*
X1539Y1489D02*
X1471Y1489D01*
D02*
X1842Y789D02*
X1799Y789D01*
D02*
X1942Y1289D02*
X1899Y1289D01*
D02*
X2171Y1689D02*
X1999Y1689D01*
D02*
X2271Y1889D02*
X2171Y1889D01*
D02*
X2171Y1889D02*
X2171Y1689D01*
D02*
X2271Y1989D02*
X2271Y1889D01*
D02*
X2225Y2065D02*
X2271Y1989D01*
D02*
X2971Y2061D02*
X2971Y1889D01*
D02*
X3571Y1889D02*
X3571Y889D01*
D02*
X2971Y1889D02*
X3571Y1889D01*
D02*
X3571Y889D02*
X3271Y889D01*
D02*
X3271Y889D02*
X3271Y960D01*
D02*
X2771Y1688D02*
X2771Y1856D01*
D02*
X2471Y1689D02*
X2771Y1688D01*
D02*
X2397Y1689D02*
X2471Y1689D01*
D02*
X4271Y2089D02*
X4341Y2089D01*
D02*
X4271Y1508D02*
X4271Y2089D01*
G54D18*
D02*
X471Y789D02*
X1011Y789D01*
D02*
X471Y289D02*
X471Y789D01*
D02*
X339Y286D02*
X471Y289D01*
D02*
X871Y289D02*
X1011Y289D01*
D02*
X871Y89D02*
X871Y289D01*
D02*
X339Y89D02*
X871Y89D01*
G54D24*
D02*
X2471Y1089D02*
X2071Y1089D01*
D02*
X2471Y1189D02*
X2471Y1089D01*
D02*
X2071Y1089D02*
X2071Y608D01*
D02*
X2542Y1189D02*
X2471Y1189D01*
D02*
X871Y1289D02*
X1671Y1289D01*
D02*
X1671Y1289D02*
X1671Y1189D01*
D02*
X871Y1460D02*
X871Y1289D01*
D02*
X1671Y1189D02*
X1742Y1189D01*
D02*
X1171Y189D02*
X1171Y1089D01*
D02*
X1171Y1089D02*
X999Y1089D01*
D02*
X1103Y189D02*
X1171Y189D01*
D02*
X899Y1089D02*
X942Y1089D01*
D02*
X871Y1517D02*
X871Y1789D01*
D02*
X871Y1789D02*
X1042Y1789D01*
G54D26*
X231Y1849D02*
X231Y1928D01*
X310Y1928D01*
X310Y1849D01*
X231Y1849D01*
D02*
X231Y49D02*
X231Y128D01*
X310Y128D01*
X310Y49D01*
X231Y49D01*
D02*
X2741Y1858D02*
X2741Y1920D01*
X2803Y1920D01*
X2803Y1858D01*
X2741Y1858D01*
D02*
X1898Y1161D02*
X1843Y1161D01*
X1843Y1216D01*
X1898Y1216D01*
X1898Y1161D01*
D02*
X998Y1461D02*
X943Y1461D01*
X943Y1516D01*
X998Y1516D01*
X998Y1461D01*
D02*
G04 End of Copper0*
M02*