; NON-PLATED HOLES START AT T1
; THROUGH (PLATED) HOLES START AT T100
M48
INCH
T1C0.125984
T2C0.165354
T100C0.038194
T101C0.035000
T102C0.042000
T103C0.015748
T104C0.059055
T105C0.040000
T106C0.031496
T107C0.031497
T108C0.030000
T109C0.039370
T110C0.038000
%
T1
X001921Y001914
X005921Y036414
X035421Y036414
X037921Y017414
X001921Y052414
T2
X003707Y011963
X003707Y002865
T100
X019921Y017414
X019921Y036414
X036921Y032414
X008320Y036414
X028921Y017414
X032920Y017414
X028921Y036414
X037920Y034414
X032920Y036414
X036921Y028414
X017920Y017414
X036921Y031414
X017920Y036414
X037920Y033414
X035920Y017414
X036921Y027414
X014921Y017414
X037920Y029414
X036921Y030414
X023921Y017414
X023921Y036414
X012320Y036414
X037920Y032414
X036921Y026414
X037920Y028414
X012920Y017414
X026921Y017414
X037920Y031414
X026921Y036414
X030920Y017414
X036921Y025414
X030920Y036414
X037920Y027414
X015920Y017414
X037920Y030414
X009320Y036414
X036921Y024414
X029921Y017414
X029921Y036414
X037920Y026414
X021921Y017414
X021921Y036414
X036921Y023414
X015321Y036414
X037920Y025414
X027920Y036414
X036921Y019414
X010920Y017414
X036921Y022414
X024921Y017414
X024921Y036414
X013320Y036414
X033921Y017414
X037920Y024414
X033921Y036414
X036921Y021414
X010321Y036414
X022920Y017414
X018921Y036414
X007320Y036414
X022920Y036414
X037920Y023414
X016320Y036414
X036921Y036414
X037920Y019414
X036921Y020414
X016920Y017414
X037920Y022414
X025920Y017414
X036921Y035414
X013921Y017414
X037920Y021414
X011320Y036414
X031921Y017414
X036921Y034414
X031921Y036414
X037920Y036414
X011920Y017414
X037920Y020414
X020920Y017414
X020920Y036414
X036921Y033414
X014320Y036414
X034921Y017414
X037920Y035414
X036921Y029414
T101
X013182Y010414
X016921Y035414
X031921Y027914
X031921Y015414
X012421Y044414
X015182Y015914
X013182Y006414
X026432Y029664
X031921Y030914
X021932Y015414
X016682Y027414
X018921Y031414
X021182Y037664
X011932Y021914
X031921Y029414
X032682Y010914
X025421Y048414
X020921Y035414
X031921Y032414
X016932Y015914
X014432Y021914
X016432Y018414
X032682Y006914
X033921Y044414
X016921Y048414
X018932Y015414
X020682Y027414
X027421Y044414
X017932Y026414
X012932Y028414
X022921Y031414
X031921Y024914
X031921Y012414
X035921Y033914
X019921Y010914
X018921Y044414
X010421Y044414
X021932Y012414
X019921Y006914
X016921Y031414
X013682Y015914
X015182Y011914
X021932Y027414
X037921Y048414
X017921Y035414
X009932Y025914
X032921Y015414
X031921Y026414
X020921Y048414
X035921Y035414
X016921Y030414
X025182Y034914
X006682Y026914
X035921Y027914
X018932Y012414
X031432Y010914
X008421Y048414
X025421Y044414
X020921Y031414
X035921Y030914
X016932Y011914
X031432Y006914
X019932Y035414
X016921Y044414
X025182Y029914
X021921Y035414
X017932Y022414
X009932Y019914
X020921Y030414
X019932Y015414
X035921Y029414
X032921Y012414
X010682Y026914
X035921Y048414
X030921Y015414
X029421Y048414
X012932Y023414
X035921Y032414
X013682Y011914
X020932Y015414
X037921Y044414
X012421Y048414
X017921Y031414
X009932Y021914
X024432Y012164
X035921Y024914
X012432Y018414
X020921Y044414
X018921Y035414
X027432Y013164
X033921Y015414
X013932Y019914
X024432Y008164
X027432Y009164
X014432Y026914
X031921Y033914
X025932Y027414
X011932Y025914
X008421Y044414
X019932Y012414
X019932Y031414
X035921Y026414
X021921Y031414
X030921Y012414
X033921Y048414
X017182Y037664
X027421Y048414
X026432Y034664
X022921Y035414
X020932Y012414
X031921Y035414
X035921Y044414
X018921Y048414
X010421Y048414
X029421Y044414
X033921Y012414
T102
X028421Y051914
X033921Y049434
X028912Y007914
X028932Y006664
X018921Y051914
X012921Y034414
X014921Y034414
X031162Y043414
X008421Y052414
X019921Y051914
X013921Y034414
X028182Y043414
X036921Y041414
X011932Y011394
X025421Y049434
X008921Y031914
X007921Y031914
X009921Y031914
X020921Y051914
X025932Y007914
X025952Y006664
X016921Y049434
X033921Y052414
X023932Y038414
X012921Y031914
X014921Y031914
X012421Y051914
X010421Y051914
X013921Y031914
X011421Y051914
X025421Y052414
X036921Y051914
X037921Y051914
X035921Y051914
X036921Y039414
X008421Y049434
X011932Y008414
X036921Y040414
X016921Y052414
X008921Y034414
X029421Y051914
X027421Y051914
X007921Y034414
X009921Y034414
X023932Y041394
T103
X035182Y015664
X038432Y013914
X034932Y026914
X011432Y034414
X016182Y033914
X019432Y032164
X028682Y041664
X034932Y033414
X016432Y023414
T104
X004432Y030304
X004421Y045398
X022432Y003414
X018432Y003414
X004421Y017804
X004421Y021804
X016432Y003414
X036432Y003414
X004432Y028304
X034432Y003414
X004432Y032304
X004421Y047398
X012432Y003414
X004421Y019804
X004421Y040367
X030432Y003414
X026432Y003414
X004421Y023804
X024432Y003414
X004432Y034304
X004421Y049398
X038432Y003414
X004421Y038367
X020432Y003414
X004421Y043398
X014432Y003414
X032432Y003414
X028432Y003414
T105
X008431Y005914
X008431Y006914
X008431Y007914
X008431Y008914
X008432Y009914
X008432Y004913
T106
X008932Y038164
X011885Y038164
T107
X007421Y017414
X008405Y017414
X006421Y052914
X007421Y019914
X031921Y051930
X007421Y022414
X008405Y019914
X023421Y051930
X008405Y022414
X014921Y051930
X007421Y024914
X008405Y024914
X006421Y051930
X031921Y052914
X023421Y052914
X014921Y052914
T108
X010921Y015412
X005932Y013914
X026432Y015664
X014421Y010914
X023182Y006664
X025182Y006664
X017921Y008914
X033182Y040414
X011921Y014914
X035432Y038414
X025932Y011164
X026432Y013664
X017182Y021664
X011921Y012914
X028421Y035414
X022921Y008914
X015932Y021664
X010921Y016414
X034932Y043414
X036932Y043414
X003921Y015914
X024932Y015664
X021182Y009414
X028921Y014914
X030421Y035414
X017182Y026414
X015182Y026414
X014421Y008914
X003921Y013914
X031182Y046414
X017921Y010914
X024932Y013664
X035432Y040414
X021182Y007414
X028921Y012914
X033182Y038414
X025932Y009164
X028182Y024914
X005932Y015914
X031182Y044414
X017182Y019664
X022921Y010914
X030182Y024914
X015932Y019664
T109
X027932Y029414
X027921Y030914
X030932Y028414
X027921Y031914
X030932Y029414
X030921Y030914
X027921Y032914
X030921Y031914
X027921Y033914
X027932Y026414
X030921Y032914
X027932Y027414
X030921Y033914
X030932Y026414
X027932Y028414
X030932Y027414
T110
X035182Y009914
X029682Y038664
X018932Y021414
X024932Y020414
X033932Y020414
X027932Y021414
X022932Y023414
X020932Y038914
X031932Y023414
X035182Y008914
X022932Y019414
X030682Y038664
X018932Y020414
X031932Y019414
X022432Y026164
X027932Y020414
X022932Y022414
X025932Y023414
X031932Y022414
X037921Y012914
X034932Y023414
X020932Y040914
X025932Y019414
X022432Y025164
X022932Y021414
X034932Y019414
X025432Y026164
X025932Y022414
X019932Y023414
X031932Y021414
X034932Y022414
X028932Y023414
X035921Y014914
X019932Y019414
X027682Y038664
X022932Y020414
X028932Y019414
X025432Y025164
X025932Y021414
X019932Y022414
X020932Y023414
X031932Y020414
X034932Y021414
X028932Y022414
X020932Y019414
X020432Y026164
X025932Y020414
X019932Y021414
X020932Y022414
X023932Y023414
X034932Y020414
X028932Y021414
X035921Y012914
X032932Y023414
X023932Y019414
X020432Y025164
X019932Y020414
X020932Y021414
X032932Y019414
X023432Y026164
X023932Y022414
X028932Y020414
X032932Y022414
X026932Y023414
X037932Y009914
X020932Y020414
X026932Y019414
X023432Y025164
X023932Y021414
X032932Y021414
X026932Y022414
X029932Y023414
X037932Y008914
X036921Y014914
X028682Y038664
X023932Y020414
X029932Y019414
X032932Y020414
X026932Y021414
X021932Y023414
X029932Y022414
X030932Y023414
X021932Y019414
X030932Y019414
X021432Y026164
X026932Y020414
X021932Y022414
X029932Y021414
X030932Y022414
X024932Y023414
X036921Y012914
X033932Y023414
X024932Y019414
X021432Y025164
X033932Y019414
X021932Y021414
X024432Y026164
X018932Y023414
X029932Y020414
X030932Y021414
X024932Y022414
X033932Y022414
X027932Y023414
X018932Y019414
X026682Y038664
X027932Y019414
X021932Y020414
X024432Y025164
X018932Y022414
X030932Y020414
X024932Y021414
X033932Y021414
X027932Y022414
X020932Y039914
X037921Y014914
T00
M30
