G04 MADE WITH FRITZING*
G04 WWW.FRITZING.ORG*
G04 DOUBLE SIDED*
G04 HOLES PLATED*
G04 CONTOUR ON CENTER OF CONTOUR VECTOR*
%ASAXBY*%
%FSLAX23Y23*%
%MOIN*%
%OFA0B0*%
%SFA1.0B1.0*%
%ADD10C,0.135984*%
%ADD11C,0.092000*%
%ADD12C,0.080000*%
%ADD13C,0.085000*%
%ADD14C,0.072500*%
%ADD15C,0.075555*%
%ADD16C,0.076694*%
%ADD17C,0.155669*%
%ADD18C,0.088000*%
%ADD19C,0.061496*%
%ADD20C,0.089370*%
%ADD21C,0.072992*%
%ADD22C,0.109055*%
%ADD23C,0.108425*%
%ADD24C,0.049370*%
%ADD25R,0.092000X0.092000*%
%ADD26R,0.085000X0.085000*%
%ADD27R,0.089370X0.089370*%
%ADD28R,0.072992X0.072992*%
%ADD29R,0.109055X0.109055*%
%ADD30R,0.001000X0.001000*%
%LNMASK1*%
G90*
G70*
G54D10*
X3792Y1741D03*
X3542Y3641D03*
X592Y3641D03*
G54D11*
X992Y3441D03*
X892Y3441D03*
X792Y3441D03*
X1492Y3441D03*
X1392Y3441D03*
X1292Y3441D03*
X1492Y3191D03*
X1392Y3191D03*
X1292Y3191D03*
X992Y3191D03*
X892Y3191D03*
X792Y3191D03*
G54D12*
X1092Y1641D03*
X1092Y1541D03*
G54D13*
X1342Y591D03*
X1342Y991D03*
G54D14*
X2992Y1741D03*
X1392Y1741D03*
X3092Y1741D03*
X3192Y1741D03*
X3292Y1741D03*
X3392Y1741D03*
X3692Y3141D03*
X3492Y1741D03*
X3592Y1741D03*
X1432Y3641D03*
X1992Y1741D03*
X2092Y1741D03*
X2192Y1741D03*
X2292Y1741D03*
X3692Y2341D03*
X2392Y1741D03*
X2492Y1741D03*
X2592Y1741D03*
X2692Y1741D03*
X2192Y3641D03*
X3692Y3541D03*
X3692Y2741D03*
X3692Y1941D03*
X1032Y3641D03*
X1792Y1741D03*
X1792Y3641D03*
X3692Y3341D03*
X3692Y2941D03*
G54D15*
X3692Y2541D03*
G54D16*
X3392Y3641D03*
G54D14*
X3692Y2141D03*
G54D16*
X3292Y3641D03*
X3192Y3641D03*
G54D14*
X3092Y3641D03*
X2992Y3641D03*
X2892Y3641D03*
X2792Y3641D03*
X2692Y3641D03*
X832Y3641D03*
X1232Y3641D03*
X1632Y3641D03*
X1192Y1741D03*
X1592Y1741D03*
X2392Y3641D03*
X1992Y3641D03*
X3692Y3641D03*
X3692Y3441D03*
X3692Y3241D03*
X3692Y3041D03*
X3692Y2841D03*
X3692Y2641D03*
X3692Y2441D03*
X3692Y2241D03*
G54D15*
X3692Y2041D03*
G54D14*
X732Y3641D03*
X932Y3641D03*
X1132Y3641D03*
X1332Y3641D03*
X1532Y3641D03*
X1092Y1741D03*
X1292Y1741D03*
X1492Y1741D03*
X1692Y1741D03*
X2492Y3641D03*
X2292Y3641D03*
X2092Y3641D03*
X1892Y3641D03*
X3792Y3641D03*
X3792Y3541D03*
X3792Y3441D03*
X3792Y3341D03*
X3792Y3241D03*
X3792Y3141D03*
X3792Y3041D03*
X3792Y2941D03*
X3792Y2841D03*
X3792Y2741D03*
X3792Y2641D03*
G54D15*
X3792Y2541D03*
G54D14*
X3792Y2441D03*
X3792Y2341D03*
X3792Y2241D03*
X3792Y2141D03*
G54D15*
X3792Y2041D03*
G54D14*
X3792Y1941D03*
X2892Y1741D03*
G54D11*
X2292Y3841D03*
X2292Y4139D03*
G54D13*
X992Y1141D03*
X992Y1541D03*
G54D17*
X572Y284D03*
X570Y1195D03*
G54D10*
X192Y191D03*
X192Y5241D03*
X3142Y4591D03*
G54D18*
X1042Y991D03*
X1042Y891D03*
X1042Y791D03*
X1042Y691D03*
X1042Y591D03*
X1042Y491D03*
G54D13*
X3092Y1241D03*
X3092Y1541D03*
X3192Y1241D03*
X3192Y1541D03*
X3292Y1241D03*
X3292Y1541D03*
X3392Y1241D03*
X3392Y1541D03*
G54D18*
X3592Y1291D03*
X3692Y1291D03*
X3792Y1291D03*
X3792Y1491D03*
X3692Y1491D03*
X3592Y1491D03*
X2092Y3891D03*
X2092Y3991D03*
X2092Y4091D03*
G54D13*
X3292Y1091D03*
X3292Y691D03*
X3392Y1091D03*
X3392Y691D03*
G54D18*
X3592Y991D03*
X3592Y891D03*
X3792Y991D03*
X3792Y891D03*
G54D13*
X3592Y2491D03*
X3192Y2491D03*
X2292Y3541D03*
X2292Y3141D03*
X1792Y3541D03*
X1792Y3141D03*
X3592Y3091D03*
X3192Y3091D03*
X3592Y2941D03*
X3192Y2941D03*
X2092Y3541D03*
X2092Y3141D03*
X2092Y3041D03*
X1692Y3041D03*
X3592Y3541D03*
X3192Y3541D03*
G54D11*
X3692Y4141D03*
X3692Y4041D03*
X3692Y3941D03*
G54D12*
X1192Y4041D03*
X1192Y4241D03*
X3492Y4041D03*
X3492Y3841D03*
X992Y4041D03*
X992Y4241D03*
X3242Y4041D03*
X3242Y3841D03*
G54D11*
X692Y4241D03*
X692Y3943D03*
G54D19*
X892Y3891D03*
X1187Y3891D03*
X892Y3891D03*
X1187Y3891D03*
G54D20*
X3092Y2491D03*
X2792Y2491D03*
X3092Y2591D03*
X2792Y2591D03*
X3092Y2691D03*
X2792Y2691D03*
X3092Y2791D03*
X2792Y2791D03*
X3092Y3091D03*
X2792Y3091D03*
X3092Y3191D03*
X2792Y3191D03*
X3092Y3291D03*
X2792Y3291D03*
X3092Y3391D03*
X2792Y3391D03*
G54D13*
X3592Y2641D03*
X3192Y2641D03*
X2192Y3541D03*
X2192Y3141D03*
X1892Y3541D03*
X1892Y3141D03*
X3592Y3241D03*
X3192Y3241D03*
X3592Y2791D03*
X3192Y2791D03*
X1992Y3541D03*
X1992Y3141D03*
X1692Y3541D03*
X1692Y3141D03*
X3592Y3391D03*
X3192Y3391D03*
G54D12*
X3042Y2941D03*
X2842Y2941D03*
X3042Y3541D03*
X2842Y3541D03*
G54D13*
X2192Y2641D03*
X2692Y2641D03*
X2642Y2891D03*
X2642Y3391D03*
X2442Y3391D03*
X2442Y2891D03*
X1192Y2191D03*
X1592Y2191D03*
X1092Y2191D03*
X1092Y2591D03*
X1342Y1991D03*
X1742Y1991D03*
X942Y2191D03*
X942Y2591D03*
G54D21*
X841Y1991D03*
X742Y1991D03*
X841Y2491D03*
X742Y2491D03*
X841Y1741D03*
X742Y1741D03*
X841Y2241D03*
X742Y2241D03*
G54D13*
X2642Y2291D03*
X3042Y2291D03*
X2142Y1141D03*
X2142Y741D03*
X1692Y941D03*
X1692Y541D03*
G54D12*
X1742Y1291D03*
X1742Y1491D03*
X1792Y1091D03*
X1792Y891D03*
X1192Y1291D03*
X1192Y1491D03*
X1442Y1091D03*
X1442Y891D03*
G54D13*
X1992Y691D03*
X1992Y1091D03*
X1542Y541D03*
X1542Y941D03*
G54D11*
X2142Y1291D03*
X2142Y1589D03*
X1392Y1589D03*
X1392Y1291D03*
X1592Y1291D03*
X1592Y1589D03*
X1242Y841D03*
X1242Y1139D03*
X2142Y1991D03*
X2142Y2289D03*
X1942Y1591D03*
X1942Y1293D03*
G54D22*
X442Y2845D03*
X442Y3041D03*
X442Y3238D03*
X442Y3435D03*
X3812Y332D03*
X3615Y332D03*
X3418Y332D03*
X3221Y332D03*
X3024Y332D03*
X2827Y332D03*
X2631Y332D03*
X2434Y332D03*
X2237Y332D03*
X2040Y332D03*
X1843Y332D03*
X1646Y332D03*
X1449Y332D03*
X1253Y332D03*
G54D12*
X2892Y1291D03*
X2892Y1491D03*
X792Y1591D03*
X792Y1391D03*
X2292Y1291D03*
X2292Y1491D03*
X392Y1591D03*
X392Y1391D03*
X592Y1591D03*
X592Y1391D03*
X2842Y1041D03*
X2842Y841D03*
X2292Y1091D03*
X2292Y891D03*
G54D13*
X2992Y691D03*
X2992Y1091D03*
X2442Y691D03*
X2442Y1091D03*
G54D11*
X3142Y741D03*
X3142Y1039D03*
X2692Y1291D03*
X2692Y1589D03*
X2642Y1041D03*
X2642Y743D03*
X2492Y1589D03*
X2492Y1291D03*
G54D13*
X3292Y4191D03*
X2892Y4191D03*
G54D12*
X2342Y2291D03*
X2542Y2291D03*
X2342Y2191D03*
X2342Y1991D03*
G54D13*
X2542Y2091D03*
X2942Y2091D03*
G54D11*
X1942Y2291D03*
X1942Y1993D03*
G54D13*
X842Y4441D03*
X842Y4841D03*
X2542Y4441D03*
X2542Y4841D03*
X1692Y4441D03*
X1692Y4841D03*
X3392Y4441D03*
X3392Y4841D03*
G54D21*
X642Y5193D03*
X642Y5291D03*
X2342Y5193D03*
X2342Y5291D03*
X1492Y5193D03*
X1492Y5291D03*
X3192Y5193D03*
X3192Y5291D03*
G54D11*
X842Y5241D03*
X842Y4943D03*
X2542Y5241D03*
X2542Y4943D03*
X1692Y5241D03*
X1692Y4943D03*
X3392Y5241D03*
X3392Y4943D03*
X1042Y5191D03*
X1142Y5191D03*
X1242Y5191D03*
X2742Y5191D03*
X2842Y5191D03*
X2942Y5191D03*
X1892Y5191D03*
X1992Y5191D03*
X2092Y5191D03*
X3592Y5191D03*
X3692Y5191D03*
X3792Y5191D03*
G54D13*
X1042Y4441D03*
X1042Y4841D03*
X2742Y4441D03*
X2742Y4841D03*
X1892Y4441D03*
X1892Y4841D03*
X3592Y4441D03*
X3592Y4841D03*
X1242Y4441D03*
X1242Y4841D03*
X2942Y4441D03*
X2942Y4841D03*
X2092Y4441D03*
X2092Y4841D03*
X3792Y4441D03*
X3792Y4841D03*
G54D22*
X442Y3841D03*
X442Y4038D03*
X442Y1791D03*
X442Y1988D03*
X442Y2185D03*
X442Y2382D03*
X442Y4351D03*
X442Y4548D03*
X442Y4745D03*
X442Y4941D03*
G54D23*
X2542Y2541D03*
X2542Y1891D03*
G54D24*
X3044Y2190D03*
X2742Y2191D03*
G54D13*
X1742Y2741D03*
X2042Y2741D03*
X1742Y2641D03*
X2042Y2641D03*
X1742Y2541D03*
X2042Y2541D03*
X1742Y2441D03*
X2042Y2441D03*
X3192Y1991D03*
X3192Y2391D03*
X1592Y2341D03*
X1192Y2341D03*
X2692Y2791D03*
X2192Y2791D03*
G54D25*
X992Y3441D03*
X1492Y3441D03*
X1492Y3191D03*
X992Y3191D03*
X2292Y3840D03*
G54D26*
X3092Y1241D03*
G54D25*
X3692Y4141D03*
X692Y4242D03*
G54D27*
X3092Y2491D03*
X3092Y3091D03*
G54D28*
X841Y1991D03*
X841Y2491D03*
X841Y1741D03*
X841Y2241D03*
G54D25*
X2142Y1290D03*
X1392Y1590D03*
X1592Y1290D03*
X1242Y840D03*
X2142Y1990D03*
X1942Y1592D03*
G54D29*
X442Y2845D03*
X3812Y332D03*
G54D25*
X3142Y740D03*
X2692Y1290D03*
X2642Y1042D03*
X2492Y1590D03*
X1942Y2292D03*
G54D28*
X642Y5193D03*
X2342Y5193D03*
X1492Y5193D03*
X3192Y5193D03*
G54D25*
X842Y5242D03*
X2542Y5242D03*
X1692Y5242D03*
X3392Y5242D03*
X1042Y5191D03*
X2742Y5191D03*
X1892Y5191D03*
X3592Y5191D03*
G54D29*
X442Y3841D03*
X442Y1791D03*
X442Y4351D03*
G54D26*
X1742Y2741D03*
G54D30*
X2886Y1932D02*
X2897Y1932D01*
X2986Y1932D02*
X2997Y1932D01*
X3086Y1932D02*
X3097Y1932D01*
X3186Y1932D02*
X3197Y1932D01*
X3286Y1932D02*
X3297Y1932D01*
X3386Y1932D02*
X3397Y1932D01*
X2882Y1931D02*
X2901Y1931D01*
X2982Y1931D02*
X3001Y1931D01*
X3082Y1931D02*
X3101Y1931D01*
X3182Y1931D02*
X3201Y1931D01*
X3282Y1931D02*
X3301Y1931D01*
X3382Y1931D02*
X3401Y1931D01*
X2879Y1930D02*
X2904Y1930D01*
X2979Y1930D02*
X3004Y1930D01*
X3079Y1930D02*
X3104Y1930D01*
X3179Y1930D02*
X3204Y1930D01*
X3279Y1930D02*
X3304Y1930D01*
X3379Y1930D02*
X3404Y1930D01*
X2877Y1929D02*
X2906Y1929D01*
X2977Y1929D02*
X3006Y1929D01*
X3077Y1929D02*
X3106Y1929D01*
X3177Y1929D02*
X3206Y1929D01*
X3277Y1929D02*
X3306Y1929D01*
X3377Y1929D02*
X3406Y1929D01*
X2875Y1928D02*
X2908Y1928D01*
X2975Y1928D02*
X3008Y1928D01*
X3075Y1928D02*
X3108Y1928D01*
X3175Y1928D02*
X3208Y1928D01*
X3275Y1928D02*
X3308Y1928D01*
X3375Y1928D02*
X3408Y1928D01*
X2873Y1927D02*
X2910Y1927D01*
X2973Y1927D02*
X3010Y1927D01*
X3073Y1927D02*
X3110Y1927D01*
X3173Y1927D02*
X3210Y1927D01*
X3273Y1927D02*
X3310Y1927D01*
X3373Y1927D02*
X3410Y1927D01*
X2872Y1926D02*
X2912Y1926D01*
X2972Y1926D02*
X3012Y1926D01*
X3072Y1926D02*
X3112Y1926D01*
X3172Y1926D02*
X3212Y1926D01*
X3272Y1926D02*
X3312Y1926D01*
X3372Y1926D02*
X3412Y1926D01*
X2870Y1925D02*
X2913Y1925D01*
X2970Y1925D02*
X3013Y1925D01*
X3070Y1925D02*
X3113Y1925D01*
X3170Y1925D02*
X3213Y1925D01*
X3270Y1925D02*
X3313Y1925D01*
X3370Y1925D02*
X3413Y1925D01*
X2869Y1924D02*
X2914Y1924D01*
X2969Y1924D02*
X3014Y1924D01*
X3069Y1924D02*
X3114Y1924D01*
X3169Y1924D02*
X3214Y1924D01*
X3269Y1924D02*
X3314Y1924D01*
X3369Y1924D02*
X3414Y1924D01*
X2868Y1923D02*
X2916Y1923D01*
X2968Y1923D02*
X3016Y1923D01*
X3068Y1923D02*
X3116Y1923D01*
X3168Y1923D02*
X3216Y1923D01*
X3268Y1923D02*
X3316Y1923D01*
X3368Y1923D02*
X3416Y1923D01*
X2867Y1922D02*
X2917Y1922D01*
X2967Y1922D02*
X3017Y1922D01*
X3067Y1922D02*
X3117Y1922D01*
X3167Y1922D02*
X3217Y1922D01*
X3267Y1922D02*
X3317Y1922D01*
X3367Y1922D02*
X3417Y1922D01*
X2865Y1921D02*
X2918Y1921D01*
X2965Y1921D02*
X3018Y1921D01*
X3065Y1921D02*
X3118Y1921D01*
X3165Y1921D02*
X3218Y1921D01*
X3265Y1921D02*
X3318Y1921D01*
X3365Y1921D02*
X3418Y1921D01*
X2864Y1920D02*
X2919Y1920D01*
X2964Y1920D02*
X3019Y1920D01*
X3064Y1920D02*
X3119Y1920D01*
X3164Y1920D02*
X3219Y1920D01*
X3264Y1920D02*
X3319Y1920D01*
X3364Y1920D02*
X3419Y1920D01*
X2863Y1919D02*
X2920Y1919D01*
X2963Y1919D02*
X3020Y1919D01*
X3063Y1919D02*
X3120Y1919D01*
X3163Y1919D02*
X3220Y1919D01*
X3263Y1919D02*
X3320Y1919D01*
X3363Y1919D02*
X3420Y1919D01*
X2863Y1918D02*
X2921Y1918D01*
X2963Y1918D02*
X3021Y1918D01*
X3063Y1918D02*
X3121Y1918D01*
X3163Y1918D02*
X3221Y1918D01*
X3263Y1918D02*
X3321Y1918D01*
X3363Y1918D02*
X3421Y1918D01*
X2862Y1917D02*
X2922Y1917D01*
X2962Y1917D02*
X3022Y1917D01*
X3062Y1917D02*
X3122Y1917D01*
X3162Y1917D02*
X3222Y1917D01*
X3262Y1917D02*
X3322Y1917D01*
X3362Y1917D02*
X3422Y1917D01*
X2861Y1916D02*
X2922Y1916D01*
X2961Y1916D02*
X3022Y1916D01*
X3061Y1916D02*
X3122Y1916D01*
X3161Y1916D02*
X3222Y1916D01*
X3261Y1916D02*
X3322Y1916D01*
X3361Y1916D02*
X3422Y1916D01*
X2860Y1915D02*
X2923Y1915D01*
X2960Y1915D02*
X3023Y1915D01*
X3060Y1915D02*
X3123Y1915D01*
X3160Y1915D02*
X3223Y1915D01*
X3260Y1915D02*
X3323Y1915D01*
X3360Y1915D02*
X3423Y1915D01*
X2859Y1914D02*
X2924Y1914D01*
X2959Y1914D02*
X3024Y1914D01*
X3059Y1914D02*
X3124Y1914D01*
X3159Y1914D02*
X3224Y1914D01*
X3259Y1914D02*
X3324Y1914D01*
X3359Y1914D02*
X3424Y1914D01*
X2859Y1913D02*
X2924Y1913D01*
X2959Y1913D02*
X3024Y1913D01*
X3059Y1913D02*
X3124Y1913D01*
X3159Y1913D02*
X3224Y1913D01*
X3259Y1913D02*
X3324Y1913D01*
X3359Y1913D02*
X3424Y1913D01*
X2858Y1912D02*
X2925Y1912D01*
X2958Y1912D02*
X3025Y1912D01*
X3058Y1912D02*
X3125Y1912D01*
X3158Y1912D02*
X3225Y1912D01*
X3258Y1912D02*
X3325Y1912D01*
X3358Y1912D02*
X3425Y1912D01*
X2857Y1911D02*
X2926Y1911D01*
X2957Y1911D02*
X3026Y1911D01*
X3057Y1911D02*
X3126Y1911D01*
X3157Y1911D02*
X3226Y1911D01*
X3257Y1911D02*
X3326Y1911D01*
X3357Y1911D02*
X3426Y1911D01*
X2857Y1910D02*
X2926Y1910D01*
X2957Y1910D02*
X3026Y1910D01*
X3057Y1910D02*
X3126Y1910D01*
X3157Y1910D02*
X3226Y1910D01*
X3257Y1910D02*
X3326Y1910D01*
X3357Y1910D02*
X3426Y1910D01*
X2856Y1909D02*
X2927Y1909D01*
X2956Y1909D02*
X3027Y1909D01*
X3056Y1909D02*
X3127Y1909D01*
X3156Y1909D02*
X3227Y1909D01*
X3256Y1909D02*
X3327Y1909D01*
X3356Y1909D02*
X3427Y1909D01*
X2856Y1908D02*
X2927Y1908D01*
X2956Y1908D02*
X3027Y1908D01*
X3056Y1908D02*
X3127Y1908D01*
X3156Y1908D02*
X3227Y1908D01*
X3256Y1908D02*
X3327Y1908D01*
X3356Y1908D02*
X3427Y1908D01*
X2855Y1907D02*
X2928Y1907D01*
X2955Y1907D02*
X3028Y1907D01*
X3055Y1907D02*
X3128Y1907D01*
X3155Y1907D02*
X3228Y1907D01*
X3255Y1907D02*
X3328Y1907D01*
X3355Y1907D02*
X3428Y1907D01*
X2855Y1906D02*
X2928Y1906D01*
X2955Y1906D02*
X3028Y1906D01*
X3055Y1906D02*
X3128Y1906D01*
X3155Y1906D02*
X3228Y1906D01*
X3255Y1906D02*
X3328Y1906D01*
X3355Y1906D02*
X3428Y1906D01*
X2855Y1905D02*
X2929Y1905D01*
X2955Y1905D02*
X3029Y1905D01*
X3055Y1905D02*
X3129Y1905D01*
X3155Y1905D02*
X3229Y1905D01*
X3255Y1905D02*
X3329Y1905D01*
X3355Y1905D02*
X3429Y1905D01*
X2854Y1904D02*
X2929Y1904D01*
X2954Y1904D02*
X3029Y1904D01*
X3054Y1904D02*
X3129Y1904D01*
X3154Y1904D02*
X3229Y1904D01*
X3254Y1904D02*
X3329Y1904D01*
X3354Y1904D02*
X3429Y1904D01*
X2854Y1903D02*
X2929Y1903D01*
X2954Y1903D02*
X3029Y1903D01*
X3054Y1903D02*
X3129Y1903D01*
X3154Y1903D02*
X3229Y1903D01*
X3254Y1903D02*
X3329Y1903D01*
X3354Y1903D02*
X3429Y1903D01*
X2854Y1902D02*
X2930Y1902D01*
X2954Y1902D02*
X3030Y1902D01*
X3054Y1902D02*
X3130Y1902D01*
X3154Y1902D02*
X3230Y1902D01*
X3254Y1902D02*
X3330Y1902D01*
X3354Y1902D02*
X3430Y1902D01*
X2853Y1901D02*
X2930Y1901D01*
X2953Y1901D02*
X3030Y1901D01*
X3053Y1901D02*
X3130Y1901D01*
X3153Y1901D02*
X3230Y1901D01*
X3253Y1901D02*
X3330Y1901D01*
X3353Y1901D02*
X3430Y1901D01*
X2853Y1900D02*
X2930Y1900D01*
X2953Y1900D02*
X3030Y1900D01*
X3053Y1900D02*
X3130Y1900D01*
X3153Y1900D02*
X3230Y1900D01*
X3253Y1900D02*
X3330Y1900D01*
X3353Y1900D02*
X3430Y1900D01*
X2853Y1899D02*
X2930Y1899D01*
X2953Y1899D02*
X3030Y1899D01*
X3053Y1899D02*
X3130Y1899D01*
X3153Y1899D02*
X3230Y1899D01*
X3253Y1899D02*
X3330Y1899D01*
X3353Y1899D02*
X3430Y1899D01*
X2853Y1898D02*
X2931Y1898D01*
X2953Y1898D02*
X3031Y1898D01*
X3053Y1898D02*
X3131Y1898D01*
X3153Y1898D02*
X3231Y1898D01*
X3253Y1898D02*
X3331Y1898D01*
X3353Y1898D02*
X3431Y1898D01*
X2852Y1897D02*
X2931Y1897D01*
X2952Y1897D02*
X3031Y1897D01*
X3052Y1897D02*
X3131Y1897D01*
X3152Y1897D02*
X3231Y1897D01*
X3252Y1897D02*
X3331Y1897D01*
X3352Y1897D02*
X3431Y1897D01*
X2852Y1896D02*
X2931Y1896D01*
X2952Y1896D02*
X3031Y1896D01*
X3052Y1896D02*
X3131Y1896D01*
X3152Y1896D02*
X3231Y1896D01*
X3252Y1896D02*
X3331Y1896D01*
X3352Y1896D02*
X3431Y1896D01*
X2852Y1895D02*
X2931Y1895D01*
X2952Y1895D02*
X3031Y1895D01*
X3052Y1895D02*
X3131Y1895D01*
X3152Y1895D02*
X3231Y1895D01*
X3252Y1895D02*
X3331Y1895D01*
X3352Y1895D02*
X3431Y1895D01*
X2852Y1894D02*
X2931Y1894D01*
X2952Y1894D02*
X3031Y1894D01*
X3052Y1894D02*
X3131Y1894D01*
X3152Y1894D02*
X3231Y1894D01*
X3252Y1894D02*
X3331Y1894D01*
X3352Y1894D02*
X3431Y1894D01*
X2852Y1893D02*
X2931Y1893D01*
X2952Y1893D02*
X3031Y1893D01*
X3052Y1893D02*
X3131Y1893D01*
X3152Y1893D02*
X3231Y1893D01*
X3252Y1893D02*
X3331Y1893D01*
X3352Y1893D02*
X3431Y1893D01*
X2852Y1892D02*
X2931Y1892D01*
X2952Y1892D02*
X3031Y1892D01*
X3052Y1892D02*
X3131Y1892D01*
X3152Y1892D02*
X3231Y1892D01*
X3252Y1892D02*
X3331Y1892D01*
X3352Y1892D02*
X3431Y1892D01*
X2852Y1891D02*
X2931Y1891D01*
X2952Y1891D02*
X3031Y1891D01*
X3052Y1891D02*
X3131Y1891D01*
X3152Y1891D02*
X3231Y1891D01*
X3252Y1891D02*
X3331Y1891D01*
X3352Y1891D02*
X3431Y1891D01*
X2852Y1890D02*
X2931Y1890D01*
X2952Y1890D02*
X3031Y1890D01*
X3052Y1890D02*
X3131Y1890D01*
X3152Y1890D02*
X3231Y1890D01*
X3252Y1890D02*
X3331Y1890D01*
X3352Y1890D02*
X3431Y1890D01*
X2852Y1889D02*
X2931Y1889D01*
X2952Y1889D02*
X3031Y1889D01*
X3052Y1889D02*
X3131Y1889D01*
X3152Y1889D02*
X3231Y1889D01*
X3252Y1889D02*
X3331Y1889D01*
X3352Y1889D02*
X3431Y1889D01*
X2852Y1888D02*
X2931Y1888D01*
X2952Y1888D02*
X3031Y1888D01*
X3052Y1888D02*
X3131Y1888D01*
X3152Y1888D02*
X3231Y1888D01*
X3252Y1888D02*
X3331Y1888D01*
X3352Y1888D02*
X3431Y1888D01*
X2853Y1887D02*
X2931Y1887D01*
X2953Y1887D02*
X3031Y1887D01*
X3053Y1887D02*
X3131Y1887D01*
X3153Y1887D02*
X3231Y1887D01*
X3253Y1887D02*
X3331Y1887D01*
X3353Y1887D02*
X3431Y1887D01*
X2853Y1886D02*
X2930Y1886D01*
X2953Y1886D02*
X3030Y1886D01*
X3053Y1886D02*
X3130Y1886D01*
X3153Y1886D02*
X3230Y1886D01*
X3253Y1886D02*
X3330Y1886D01*
X3353Y1886D02*
X3430Y1886D01*
X2853Y1885D02*
X2930Y1885D01*
X2953Y1885D02*
X3030Y1885D01*
X3053Y1885D02*
X3130Y1885D01*
X3153Y1885D02*
X3230Y1885D01*
X3253Y1885D02*
X3330Y1885D01*
X3353Y1885D02*
X3430Y1885D01*
X2853Y1884D02*
X2930Y1884D01*
X2953Y1884D02*
X3030Y1884D01*
X3053Y1884D02*
X3130Y1884D01*
X3153Y1884D02*
X3230Y1884D01*
X3253Y1884D02*
X3330Y1884D01*
X3353Y1884D02*
X3430Y1884D01*
X2854Y1883D02*
X2930Y1883D01*
X2954Y1883D02*
X3030Y1883D01*
X3054Y1883D02*
X3130Y1883D01*
X3154Y1883D02*
X3230Y1883D01*
X3254Y1883D02*
X3330Y1883D01*
X3354Y1883D02*
X3430Y1883D01*
X2854Y1882D02*
X2929Y1882D01*
X2954Y1882D02*
X3029Y1882D01*
X3054Y1882D02*
X3129Y1882D01*
X3154Y1882D02*
X3229Y1882D01*
X3254Y1882D02*
X3329Y1882D01*
X3354Y1882D02*
X3429Y1882D01*
X2854Y1881D02*
X2929Y1881D01*
X2954Y1881D02*
X3029Y1881D01*
X3054Y1881D02*
X3129Y1881D01*
X3154Y1881D02*
X3229Y1881D01*
X3254Y1881D02*
X3329Y1881D01*
X3354Y1881D02*
X3429Y1881D01*
X2855Y1880D02*
X2928Y1880D01*
X2955Y1880D02*
X3028Y1880D01*
X3055Y1880D02*
X3128Y1880D01*
X3155Y1880D02*
X3228Y1880D01*
X3255Y1880D02*
X3328Y1880D01*
X3355Y1880D02*
X3428Y1880D01*
X2855Y1879D02*
X2928Y1879D01*
X2955Y1879D02*
X3028Y1879D01*
X3055Y1879D02*
X3128Y1879D01*
X3155Y1879D02*
X3228Y1879D01*
X3255Y1879D02*
X3328Y1879D01*
X3355Y1879D02*
X3428Y1879D01*
X2856Y1878D02*
X2928Y1878D01*
X2956Y1878D02*
X3028Y1878D01*
X3056Y1878D02*
X3128Y1878D01*
X3156Y1878D02*
X3228Y1878D01*
X3256Y1878D02*
X3328Y1878D01*
X3356Y1878D02*
X3428Y1878D01*
X2856Y1877D02*
X2927Y1877D01*
X2956Y1877D02*
X3027Y1877D01*
X3056Y1877D02*
X3127Y1877D01*
X3156Y1877D02*
X3227Y1877D01*
X3256Y1877D02*
X3327Y1877D01*
X3356Y1877D02*
X3427Y1877D01*
X2857Y1876D02*
X2927Y1876D01*
X2957Y1876D02*
X3027Y1876D01*
X3057Y1876D02*
X3127Y1876D01*
X3157Y1876D02*
X3227Y1876D01*
X3257Y1876D02*
X3327Y1876D01*
X3357Y1876D02*
X3427Y1876D01*
X2857Y1875D02*
X2926Y1875D01*
X2957Y1875D02*
X3026Y1875D01*
X3057Y1875D02*
X3126Y1875D01*
X3157Y1875D02*
X3226Y1875D01*
X3257Y1875D02*
X3326Y1875D01*
X3357Y1875D02*
X3426Y1875D01*
X2858Y1874D02*
X2925Y1874D01*
X2958Y1874D02*
X3025Y1874D01*
X3058Y1874D02*
X3125Y1874D01*
X3158Y1874D02*
X3225Y1874D01*
X3258Y1874D02*
X3325Y1874D01*
X3358Y1874D02*
X3425Y1874D01*
X2858Y1873D02*
X2925Y1873D01*
X2958Y1873D02*
X3025Y1873D01*
X3058Y1873D02*
X3125Y1873D01*
X3158Y1873D02*
X3225Y1873D01*
X3258Y1873D02*
X3325Y1873D01*
X3358Y1873D02*
X3425Y1873D01*
X2859Y1872D02*
X2924Y1872D01*
X2959Y1872D02*
X3024Y1872D01*
X3059Y1872D02*
X3124Y1872D01*
X3159Y1872D02*
X3224Y1872D01*
X3259Y1872D02*
X3324Y1872D01*
X3359Y1872D02*
X3424Y1872D01*
X2860Y1871D02*
X2924Y1871D01*
X2960Y1871D02*
X3024Y1871D01*
X3060Y1871D02*
X3124Y1871D01*
X3160Y1871D02*
X3224Y1871D01*
X3260Y1871D02*
X3324Y1871D01*
X3360Y1871D02*
X3424Y1871D01*
X2860Y1870D02*
X2923Y1870D01*
X2960Y1870D02*
X3023Y1870D01*
X3060Y1870D02*
X3123Y1870D01*
X3160Y1870D02*
X3223Y1870D01*
X3260Y1870D02*
X3323Y1870D01*
X3360Y1870D02*
X3423Y1870D01*
X2861Y1869D02*
X2922Y1869D01*
X2961Y1869D02*
X3022Y1869D01*
X3061Y1869D02*
X3122Y1869D01*
X3161Y1869D02*
X3222Y1869D01*
X3261Y1869D02*
X3322Y1869D01*
X3361Y1869D02*
X3422Y1869D01*
X2862Y1868D02*
X2921Y1868D01*
X2962Y1868D02*
X3021Y1868D01*
X3062Y1868D02*
X3121Y1868D01*
X3162Y1868D02*
X3221Y1868D01*
X3262Y1868D02*
X3321Y1868D01*
X3362Y1868D02*
X3421Y1868D01*
X2863Y1867D02*
X2920Y1867D01*
X2963Y1867D02*
X3020Y1867D01*
X3063Y1867D02*
X3120Y1867D01*
X3163Y1867D02*
X3220Y1867D01*
X3263Y1867D02*
X3320Y1867D01*
X3363Y1867D02*
X3420Y1867D01*
X2864Y1866D02*
X2919Y1866D01*
X2964Y1866D02*
X3019Y1866D01*
X3064Y1866D02*
X3119Y1866D01*
X3164Y1866D02*
X3219Y1866D01*
X3264Y1866D02*
X3319Y1866D01*
X3364Y1866D02*
X3419Y1866D01*
X2865Y1865D02*
X2918Y1865D01*
X2965Y1865D02*
X3018Y1865D01*
X3065Y1865D02*
X3118Y1865D01*
X3165Y1865D02*
X3218Y1865D01*
X3265Y1865D02*
X3318Y1865D01*
X3365Y1865D02*
X3418Y1865D01*
X2866Y1864D02*
X2917Y1864D01*
X2966Y1864D02*
X3017Y1864D01*
X3066Y1864D02*
X3117Y1864D01*
X3166Y1864D02*
X3217Y1864D01*
X3266Y1864D02*
X3317Y1864D01*
X3366Y1864D02*
X3417Y1864D01*
X2867Y1863D02*
X2916Y1863D01*
X2967Y1863D02*
X3016Y1863D01*
X3067Y1863D02*
X3116Y1863D01*
X3167Y1863D02*
X3216Y1863D01*
X3267Y1863D02*
X3316Y1863D01*
X3367Y1863D02*
X3416Y1863D01*
X2868Y1862D02*
X2915Y1862D01*
X2968Y1862D02*
X3015Y1862D01*
X3068Y1862D02*
X3115Y1862D01*
X3168Y1862D02*
X3215Y1862D01*
X3268Y1862D02*
X3315Y1862D01*
X3368Y1862D02*
X3415Y1862D01*
X2869Y1861D02*
X2914Y1861D01*
X2969Y1861D02*
X3014Y1861D01*
X3069Y1861D02*
X3114Y1861D01*
X3169Y1861D02*
X3214Y1861D01*
X3269Y1861D02*
X3314Y1861D01*
X3369Y1861D02*
X3414Y1861D01*
X2871Y1860D02*
X2912Y1860D01*
X2971Y1860D02*
X3012Y1860D01*
X3071Y1860D02*
X3112Y1860D01*
X3171Y1860D02*
X3212Y1860D01*
X3271Y1860D02*
X3312Y1860D01*
X3371Y1860D02*
X3412Y1860D01*
X2872Y1859D02*
X2911Y1859D01*
X2972Y1859D02*
X3011Y1859D01*
X3072Y1859D02*
X3111Y1859D01*
X3172Y1859D02*
X3211Y1859D01*
X3272Y1859D02*
X3311Y1859D01*
X3372Y1859D02*
X3411Y1859D01*
X2874Y1858D02*
X2909Y1858D01*
X2974Y1858D02*
X3009Y1858D01*
X3074Y1858D02*
X3109Y1858D01*
X3174Y1858D02*
X3209Y1858D01*
X3274Y1858D02*
X3309Y1858D01*
X3374Y1858D02*
X3409Y1858D01*
X2876Y1857D02*
X2907Y1857D01*
X2976Y1857D02*
X3007Y1857D01*
X3076Y1857D02*
X3107Y1857D01*
X3176Y1857D02*
X3207Y1857D01*
X3276Y1857D02*
X3307Y1857D01*
X3376Y1857D02*
X3407Y1857D01*
X2878Y1856D02*
X2905Y1856D01*
X2978Y1856D02*
X3005Y1856D01*
X3078Y1856D02*
X3105Y1856D01*
X3178Y1856D02*
X3205Y1856D01*
X3278Y1856D02*
X3305Y1856D01*
X3378Y1856D02*
X3405Y1856D01*
X2880Y1855D02*
X2903Y1855D01*
X2980Y1855D02*
X3003Y1855D01*
X3080Y1855D02*
X3103Y1855D01*
X3180Y1855D02*
X3203Y1855D01*
X3280Y1855D02*
X3303Y1855D01*
X3380Y1855D02*
X3403Y1855D01*
X2883Y1854D02*
X2900Y1854D01*
X2983Y1854D02*
X3000Y1854D01*
X3083Y1854D02*
X3100Y1854D01*
X3183Y1854D02*
X3200Y1854D01*
X3283Y1854D02*
X3300Y1854D01*
X3383Y1854D02*
X3400Y1854D01*
X2888Y1853D02*
X2895Y1853D01*
X2988Y1853D02*
X2995Y1853D01*
X3088Y1853D02*
X3095Y1853D01*
X3188Y1853D02*
X3195Y1853D01*
X3288Y1853D02*
X3295Y1853D01*
X3388Y1853D02*
X3395Y1853D01*
D02*
G04 End of Mask1*
M02*