; NON-PLATED HOLES START AT T1
; THROUGH (PLATED) HOLES START AT T100
M48
INCH
T1C0.125984
T2C0.165354
T100C0.030000
T101C0.038000
T102C0.039370
T103C0.015748
T104C0.059055
T105C0.031496
T106C0.031497
T107C0.035000
T108C0.038194
T109C0.042000
%
T1
X001921Y052414
X031421Y045914
X001921Y001914
X005921Y036414
X035421Y036414
X037921Y017414
T2
X003717Y002840
X003698Y011951
T100
X017921Y008914
X032682Y038414
X011921Y014914
X011921Y040414
X028421Y008414
X034921Y038414
X003921Y015914
X011921Y012914
X028421Y035414
X022921Y008914
X010921Y016414
X028932Y025414
X007921Y015914
X003921Y013914
X022921Y014914
X028921Y014914
X030421Y035414
X017682Y023914
X014421Y008914
X007921Y013914
X017921Y010914
X032682Y040414
X030932Y025414
X022921Y012914
X028921Y012914
X017682Y021914
X028421Y010414
X017421Y014914
X034921Y040414
X005932Y015914
X022921Y010914
X009921Y042414
X017421Y012914
X010921Y015412
X005932Y013914
X011921Y042414
X009921Y040414
X019432Y026414
X017432Y026414
X014421Y010914
T101
X029932Y023414
X031932Y022414
X022432Y025164
X026932Y019414
X018932Y021414
X025932Y022414
X033932Y020414
X023932Y023414
X020932Y038914
X027932Y020414
X033932Y019414
X032932Y022414
X023432Y025164
X027932Y019414
X019932Y021414
X037921Y008914
X021432Y026164
X021932Y020414
X034932Y020414
X024932Y023414
X008421Y009914
X021932Y019414
X034932Y019414
X026932Y021414
X020932Y022414
X031932Y023414
X022432Y026164
X022932Y020414
X018932Y022414
X020932Y040914
X025932Y023414
X033932Y021414
X035921Y012914
X022932Y019414
X008421Y004914
X020932Y039914
X027932Y021414
X032932Y023414
X023432Y026164
X019932Y022414
X037921Y009914
X021932Y021414
X034932Y021414
X030932Y020414
X026932Y022414
X020932Y023414
X030932Y019414
X028932Y020414
X022932Y021414
X018932Y023414
X033932Y022414
X024432Y025164
X028932Y019414
X008421Y005914
X027932Y022414
X029932Y020414
X019932Y023414
X021932Y022414
X034932Y022414
X025432Y025164
X029932Y019414
X023932Y020414
X030932Y021414
X026932Y023414
X036921Y012914
X023932Y019414
X028932Y021414
X022932Y022414
X033932Y023414
X035921Y014914
X024432Y026164
X024932Y020414
X008421Y006914
X027932Y023414
X037921Y012914
X020432Y025164
X024932Y019414
X029932Y021414
X031932Y020414
X021932Y023414
X034932Y023414
X025432Y026164
X025932Y020414
X031932Y019414
X023932Y021414
X030932Y022414
X025932Y019414
X035921Y008914
X032932Y020414
X028932Y022414
X022932Y023414
X032932Y019414
X024932Y021414
X008421Y007914
X020432Y026164
X020932Y020414
X029932Y022414
X031932Y021414
X020932Y019414
X018932Y020414
X025932Y021414
X023932Y022414
X018932Y019414
X030932Y023414
X035921Y009914
X036921Y014914
X032932Y021414
X028932Y023414
X019932Y020414
X021432Y025164
X024932Y022414
X019932Y019414
X008421Y008914
X037921Y014914
X026932Y020414
X020932Y021414
T102
X027932Y028414
X030932Y027414
X027932Y029414
X027921Y030914
X030932Y028414
X027921Y031914
X030932Y029414
X030921Y030914
X027921Y032914
X030921Y031914
X027921Y033914
X027932Y026414
X030921Y032914
X027932Y027414
X030921Y033914
X030932Y026414
T103
X034932Y033414
X027932Y039414
X034932Y026914
X029932Y014414
X038432Y013914
T104
X004421Y019882
X028273Y003324
X018431Y003324
X004421Y049414
X032210Y003324
X024336Y003324
X004421Y043508
X014494Y003324
X004421Y040383
X034179Y003324
X004421Y047445
X004421Y023820
X020399Y003324
X004432Y034320
X004421Y045477
X004421Y021851
X036147Y003324
X026305Y003324
X004432Y032351
X022368Y003324
X004421Y038414
X004432Y030382
X038116Y003324
X004421Y017914
X016462Y003324
X004432Y028414
X012525Y003324
X030242Y003324
T105
X011873Y038914
X008921Y038914
T106
X031921Y052914
X023421Y052914
X014921Y052914
X007421Y017414
X008405Y017414
X006421Y052914
X007421Y019914
X031921Y051930
X007421Y022414
X008405Y019914
X023421Y051930
X008405Y022414
X014921Y051930
X007421Y024914
X008405Y024914
X006421Y051930
T107
X031921Y030914
X018921Y031414
X024432Y034414
X009921Y011414
X016932Y005664
X014932Y019914
X013421Y005914
X011932Y021914
X031921Y029414
X025421Y048414
X020921Y035414
X031921Y032414
X016921Y048414
X033921Y044414
X024432Y029414
X027421Y044414
X012932Y028414
X022921Y031414
X031921Y024914
X031921Y012414
X035921Y033914
X019921Y010914
X018921Y044414
X010421Y044414
X019921Y006914
X016921Y031414
X021932Y027414
X015432Y009664
X037921Y048414
X017921Y035414
X009932Y025914
X032921Y015414
X031921Y026414
X020921Y048414
X006932Y027414
X035921Y035414
X016921Y030414
X014432Y022414
X035921Y027914
X032921Y010914
X025421Y044414
X008421Y048414
X020921Y031414
X035921Y030914
X032921Y006914
X019932Y035414
X016921Y044414
X021921Y035414
X010932Y027414
X020921Y030414
X028921Y041914
X035921Y029414
X032921Y012414
X035921Y048414
X030921Y015414
X029421Y048414
X012932Y023414
X035921Y032414
X010932Y019914
X029921Y010914
X015432Y005664
X037921Y044414
X012421Y048414
X017921Y031414
X009932Y021914
X029921Y006914
X035921Y024914
X020921Y044414
X018921Y035414
X033921Y015414
X024421Y010914
X009921Y015414
X016932Y009664
X016932Y027414
X032921Y041914
X031921Y033914
X013421Y009914
X024421Y006914
X025932Y027414
X011932Y025914
X008421Y044414
X026432Y034414
X033921Y010914
X019932Y031414
X035921Y026414
X021921Y031414
X030921Y012414
X021421Y011414
X033921Y006914
X033921Y048414
X027421Y048414
X022921Y035414
X021421Y007414
X031921Y035414
X035921Y044414
X018921Y048414
X010421Y048414
X026432Y029414
X029421Y044414
X020932Y027414
X033921Y012414
X016921Y035414
X014432Y027414
X031921Y027914
X031921Y015414
X012421Y044414
T108
X037920Y034414
X032920Y036414
X036921Y028414
X017920Y017414
X036921Y031414
X017920Y036414
X037920Y033414
X035920Y017414
X036921Y027414
X014921Y017414
X037920Y029414
X036921Y030414
X023921Y017414
X023921Y036414
X012320Y036414
X037920Y032414
X036921Y026414
X037920Y028414
X012920Y017414
X026921Y017414
X037920Y031414
X026921Y036414
X030920Y017414
X036921Y025414
X030920Y036414
X037920Y027414
X015920Y017414
X037920Y030414
X009320Y036414
X036921Y024414
X029921Y017414
X029921Y036414
X037920Y026414
X021921Y017414
X021921Y036414
X036921Y023414
X015321Y036414
X027920Y036414
X037920Y025414
X036921Y019414
X010920Y017414
X036921Y022414
X024921Y017414
X024921Y036414
X013320Y036414
X033921Y017414
X037920Y024414
X033921Y036414
X036921Y021414
X010321Y036414
X018921Y036414
X007320Y036414
X022920Y017414
X022920Y036414
X037920Y023414
X016320Y036414
X036921Y036414
X037920Y019414
X036921Y020414
X016920Y017414
X037920Y022414
X025920Y017414
X036921Y035414
X013921Y017414
X037920Y021414
X011320Y036414
X031921Y017414
X036921Y034414
X031921Y036414
X037920Y036414
X011920Y017414
X037920Y020414
X020920Y017414
X020920Y036414
X036921Y033414
X014320Y036414
X034921Y017414
X037920Y035414
X036921Y029414
X019921Y017414
X019921Y036414
X036921Y032414
X008320Y036414
X028921Y017414
X028921Y036414
X032920Y017414
T109
X018921Y051914
X012921Y034414
X014921Y034414
X013921Y015894
X019421Y015914
X019921Y051914
X036921Y041414
X025421Y049434
X026421Y007434
X015932Y024434
X015921Y015894
X008921Y031914
X033921Y052414
X012421Y011394
X007921Y031914
X009921Y031914
X013921Y012914
X020921Y051914
X006921Y039434
X019421Y012934
X016921Y049434
X015921Y012914
X024921Y015894
X026921Y015894
X022921Y041394
X013921Y031914
X031421Y010394
X011421Y051914
X012921Y031914
X014921Y031914
X012421Y051914
X010421Y051914
X016432Y019934
X008421Y049434
X025421Y052414
X026421Y010414
X036921Y051914
X024921Y012914
X026921Y012914
X037921Y051914
X035921Y051914
X036921Y039414
X036921Y040414
X006921Y042414
X016921Y052414
X008921Y034414
X021421Y015894
X012421Y008414
X029421Y051914
X027421Y051914
X007921Y034414
X009921Y034414
X033921Y049434
X028421Y051914
X015932Y027414
X016432Y022914
X022921Y038414
X008421Y052414
X031421Y007414
X013921Y034414
X021421Y012914
T00
M30
