; NON-PLATED HOLES START AT T1
; THROUGH (PLATED) HOLES START AT T100
M48
INCH
T1C0.098425
T2C0.125984
T3C0.145669
T100C0.038194
T101C0.035000
T102C0.042000
T103C0.015748
T104C0.059055
T105C0.031496
T106C0.031497
T107C0.030000
T108C0.039370
T109C0.038000
%
T1
X025421Y025414
X025421Y018914
T2
X001921Y052414
X031421Y045914
X001921Y001914
X005921Y036414
X035421Y036414
X037921Y017414
T3
X003698Y011951
X003717Y002840
T100
X013921Y017414
X037920Y021414
X011320Y036414
X031921Y017414
X036921Y034414
X031921Y036414
X037920Y036414
X011920Y017414
X037920Y020414
X020920Y017414
X020920Y036414
X036921Y033414
X014320Y036414
X034921Y017414
X037920Y035414
X036921Y029414
X019921Y017414
X019921Y036414
X036921Y032414
X008320Y036414
X028921Y017414
X032920Y017414
X028921Y036414
X032920Y036414
X037920Y034414
X036921Y028414
X017920Y017414
X036921Y031414
X017920Y036414
X037920Y033414
X035920Y017414
X036921Y027414
X014921Y017414
X037920Y029414
X036921Y030414
X023921Y017414
X023921Y036414
X012320Y036414
X037920Y032414
X036921Y026414
X012920Y017414
X037920Y028414
X026921Y017414
X037920Y031414
X026921Y036414
X030920Y017414
X036921Y025414
X030920Y036414
X037920Y027414
X015920Y017414
X037920Y030414
X009320Y036414
X036921Y024414
X029921Y017414
X029921Y036414
X037920Y026414
X021921Y017414
X021921Y036414
X036921Y023414
X015321Y036414
X027920Y036414
X037920Y025414
X036921Y019414
X010920Y017414
X036921Y022414
X024921Y017414
X024921Y036414
X013320Y036414
X033921Y017414
X037920Y024414
X033921Y036414
X036921Y021414
X010321Y036414
X022920Y017414
X018921Y036414
X007320Y036414
X022920Y036414
X037920Y023414
X016320Y036414
X036921Y036414
X037920Y019414
X036921Y020414
X016920Y017414
X037920Y022414
X025920Y017414
X036921Y035414
T101
X032921Y041914
X026421Y022914
X031921Y033914
X013421Y009914
X024421Y006914
X008421Y044414
X026921Y026414
X017421Y025414
X015421Y009414
X033921Y010914
X035921Y026414
X011921Y023414
X021921Y031414
X021421Y011414
X009421Y025914
X030921Y012414
X033921Y006914
X033921Y048414
X027421Y048414
X022921Y035414
X017421Y024414
X021421Y007414
X031921Y035414
X035921Y044414
X018921Y048414
X010421Y048414
X029421Y044414
X033921Y012414
X030421Y022914
X016921Y035414
X021921Y026414
X031921Y027914
X031921Y015414
X012421Y044414
X010921Y025914
X031921Y030914
X018921Y031414
X029421Y020914
X019921Y035414
X009921Y011414
X013421Y005914
X031921Y029414
X015421Y005414
X025421Y048414
X020921Y035414
X015921Y021914
X026421Y033914
X031921Y032414
X009421Y021914
X033921Y044414
X016921Y048414
X027421Y044414
X022921Y031414
X031921Y024914
X031921Y012414
X035921Y033914
X019921Y010914
X016921Y009414
X013421Y019914
X018921Y044414
X010421Y044414
X026421Y028914
X019921Y006914
X016921Y031414
X015921Y023414
X010921Y021914
X037921Y048414
X017921Y035414
X032921Y015414
X031921Y026414
X020921Y048414
X035921Y035414
X016921Y030414
X019921Y031414
X024421Y033914
X026921Y027914
X035921Y027914
X032921Y010914
X020421Y027414
X008421Y048414
X025421Y044414
X020921Y031414
X035921Y030914
X032921Y006914
X016921Y044414
X021921Y035414
X020421Y026414
X024421Y028914
X020921Y030414
X025421Y020914
X016921Y005414
X028921Y041914
X035921Y029414
X021921Y027914
X032921Y012414
X035921Y048414
X030921Y015414
X029421Y048414
X035921Y032414
X020421Y025414
X029921Y010914
X017421Y027414
X037921Y044414
X012421Y048414
X017921Y031414
X032921Y023914
X029921Y006914
X011921Y021914
X035921Y024914
X020921Y044414
X018921Y035414
X033921Y015414
X020421Y024414
X017421Y019914
X032921Y019914
X017421Y026414
X024421Y010914
X009921Y015414
T102
X031421Y010394
X021421Y022894
X012921Y031914
X014921Y031914
X012421Y051914
X010421Y051914
X013921Y031914
X011421Y051914
X025421Y052414
X036921Y051914
X024921Y012914
X026921Y012914
X037921Y051914
X035921Y051914
X019421Y022914
X036921Y039414
X008421Y049434
X026421Y010414
X036921Y040414
X006921Y042414
X016921Y052414
X008921Y034414
X012421Y008414
X029421Y051914
X027421Y051914
X007921Y034414
X009921Y034414
X028421Y051914
X021421Y015894
X033921Y049434
X022921Y038414
X031421Y007414
X021421Y019914
X018921Y051914
X012921Y034414
X014921Y034414
X008421Y052414
X019421Y015914
X019921Y051914
X013921Y034414
X021421Y012914
X036921Y041414
X025421Y049434
X015921Y015894
X013921Y015894
X019421Y019934
X008921Y031914
X026421Y007434
X012421Y011394
X007921Y031914
X009921Y031914
X020921Y051914
X006921Y039434
X019421Y012934
X016921Y049434
X033921Y052414
X015921Y012914
X013921Y012914
X024921Y015894
X026921Y015894
X022921Y041394
T103
X030439Y021895
X027421Y021914
T104
X004432Y032351
X022368Y003324
X004421Y038414
X004432Y030382
X038116Y003324
X014494Y003324
X004421Y017914
X016462Y003324
X004432Y028414
X012525Y003324
X030242Y003324
X004421Y019882
X028273Y003324
X018431Y003324
X004421Y049414
X032210Y003324
X024336Y003324
X004421Y043508
X004421Y040383
X034179Y003324
X004421Y047445
X004421Y023820
X020399Y003324
X004432Y034320
X004421Y045477
X004421Y021851
X036147Y003324
X026305Y003324
T105
X008921Y038914
X011873Y038914
T106
X023421Y052914
X014921Y052914
X007421Y017414
X008405Y017414
X006421Y052914
X007421Y019914
X031921Y051930
X007421Y022414
X008405Y019914
X023421Y051930
X008405Y022414
X014921Y051930
X007421Y024914
X008405Y024914
X006421Y051930
X031921Y052914
T107
X030421Y035414
X023421Y021914
X014421Y008914
X007921Y013914
X017921Y010914
X022921Y012914
X028921Y012914
X028421Y010414
X017421Y014914
X032421Y038414
X034921Y040414
X005932Y015914
X022921Y010914
X009921Y042414
X017421Y012914
X010921Y015412
X025421Y022914
X023421Y022914
X005932Y013914
X011921Y042414
X009921Y040414
X014421Y010914
X023421Y019914
X028921Y018914
X017921Y008914
X011921Y014914
X011921Y040414
X029921Y018914
X028421Y029414
X032421Y040414
X028421Y008414
X034921Y038414
X003921Y015914
X011921Y012914
X028421Y035414
X031921Y018914
X022921Y008914
X010921Y016414
X030421Y029414
X032921Y018914
X030921Y018914
X007921Y015914
X033921Y018914
X003921Y013914
X022921Y014914
X028921Y014914
T108
X027921Y026914
X030921Y025914
X027921Y030914
X027921Y027914
X030921Y026914
X027921Y031914
X030921Y030914
X030921Y027914
X027921Y032914
X030921Y031914
X027921Y033914
X030921Y032914
X027921Y024914
X030921Y033914
X027921Y025914
X030921Y024914
T109
X008421Y009914
X036921Y014914
X008421Y006914
X035921Y014914
X037921Y008914
X037921Y012914
X020932Y039914
X008421Y008914
X035921Y009914
X008421Y005914
X020932Y040914
X037921Y014914
X020932Y038914
X008421Y007914
X035921Y008914
X036921Y012914
X008421Y004914
X035921Y012914
X037921Y009914
T00
M30
