G04 #@! TF.GenerationSoftware,KiCad,Pcbnew,(5.1.6-0-10_14)*
G04 #@! TF.CreationDate,2021-04-24T12:15:59+01:00*
G04 #@! TF.ProjectId,VR-Conditioner-MAX9926+reg,56522d43-6f6e-4646-9974-696f6e65722d,3.7*
G04 #@! TF.SameCoordinates,PX68c4118PY713e7a8*
G04 #@! TF.FileFunction,Legend,Top*
G04 #@! TF.FilePolarity,Positive*
%FSLAX46Y46*%
G04 Gerber Fmt 4.6, Leading zero omitted, Abs format (unit mm)*
G04 Created by KiCad (PCBNEW (5.1.6-0-10_14)) date 2021-04-24 12:15:59*
%MOMM*%
%LPD*%
G01*
G04 APERTURE LIST*
%ADD10C,0.150000*%
%ADD11C,0.120000*%
%ADD12C,0.152400*%
G04 APERTURE END LIST*
D10*
X7933333Y3107143D02*
X8466666Y3107143D01*
X8200000Y2878572D02*
X8200000Y3335715D01*
X8800000Y2878572D02*
X8800000Y3478572D01*
X9133333Y2878572D02*
X9133333Y3478572D01*
X9533333Y2878572D01*
X9533333Y3478572D01*
X10766666Y3450000D02*
X10700000Y3478572D01*
X10600000Y3478572D01*
X10500000Y3450000D01*
X10433333Y3392858D01*
X10400000Y3335715D01*
X10366666Y3221429D01*
X10366666Y3135715D01*
X10400000Y3021429D01*
X10433333Y2964286D01*
X10500000Y2907143D01*
X10600000Y2878572D01*
X10666666Y2878572D01*
X10766666Y2907143D01*
X10800000Y2935715D01*
X10800000Y3135715D01*
X10666666Y3135715D01*
X11100000Y2878572D02*
X11100000Y3478572D01*
X11500000Y2878572D01*
X11500000Y3478572D01*
X11833333Y2878572D02*
X11833333Y3478572D01*
X12000000Y3478572D01*
X12100000Y3450000D01*
X12166666Y3392858D01*
X12200000Y3335715D01*
X12233333Y3221429D01*
X12233333Y3135715D01*
X12200000Y3021429D01*
X12166666Y2964286D01*
X12100000Y2907143D01*
X12000000Y2878572D01*
X11833333Y2878572D01*
X13466666Y2935715D02*
X13433333Y2907143D01*
X13333333Y2878572D01*
X13266666Y2878572D01*
X13166666Y2907143D01*
X13100000Y2964286D01*
X13066666Y3021429D01*
X13033333Y3135715D01*
X13033333Y3221429D01*
X13066666Y3335715D01*
X13100000Y3392858D01*
X13166666Y3450000D01*
X13266666Y3478572D01*
X13333333Y3478572D01*
X13433333Y3450000D01*
X13466666Y3421429D01*
X13900000Y3478572D02*
X14033333Y3478572D01*
X14100000Y3450000D01*
X14166666Y3392858D01*
X14200000Y3278572D01*
X14200000Y3078572D01*
X14166666Y2964286D01*
X14100000Y2907143D01*
X14033333Y2878572D01*
X13900000Y2878572D01*
X13833333Y2907143D01*
X13766666Y2964286D01*
X13733333Y3078572D01*
X13733333Y3278572D01*
X13766666Y3392858D01*
X13833333Y3450000D01*
X13900000Y3478572D01*
X14466666Y3421429D02*
X14500000Y3450000D01*
X14566666Y3478572D01*
X14733333Y3478572D01*
X14800000Y3450000D01*
X14833333Y3421429D01*
X14866666Y3364286D01*
X14866666Y3307143D01*
X14833333Y3221429D01*
X14433333Y2878572D01*
X14866666Y2878572D01*
X16100000Y2935715D02*
X16066666Y2907143D01*
X15966666Y2878572D01*
X15900000Y2878572D01*
X15800000Y2907143D01*
X15733333Y2964286D01*
X15700000Y3021429D01*
X15666666Y3135715D01*
X15666666Y3221429D01*
X15700000Y3335715D01*
X15733333Y3392858D01*
X15800000Y3450000D01*
X15900000Y3478572D01*
X15966666Y3478572D01*
X16066666Y3450000D01*
X16100000Y3421429D01*
X16533333Y3478572D02*
X16666666Y3478572D01*
X16733333Y3450000D01*
X16800000Y3392858D01*
X16833333Y3278572D01*
X16833333Y3078572D01*
X16800000Y2964286D01*
X16733333Y2907143D01*
X16666666Y2878572D01*
X16533333Y2878572D01*
X16466666Y2907143D01*
X16400000Y2964286D01*
X16366666Y3078572D01*
X16366666Y3278572D01*
X16400000Y3392858D01*
X16466666Y3450000D01*
X16533333Y3478572D01*
X17500000Y2878572D02*
X17100000Y2878572D01*
X17300000Y2878572D02*
X17300000Y3478572D01*
X17233333Y3392858D01*
X17166666Y3335715D01*
X17100000Y3307143D01*
X3768333Y18233334D02*
X4168333Y18233334D01*
X3968333Y17533334D02*
X3968333Y18233334D01*
X4535000Y18233334D02*
X4668333Y18233334D01*
X4735000Y18200000D01*
X4801666Y18133334D01*
X4835000Y18000000D01*
X4835000Y17766667D01*
X4801666Y17633334D01*
X4735000Y17566667D01*
X4668333Y17533334D01*
X4535000Y17533334D01*
X4468333Y17566667D01*
X4401666Y17633334D01*
X4368333Y17766667D01*
X4368333Y18000000D01*
X4401666Y18133334D01*
X4468333Y18200000D01*
X4535000Y18233334D01*
X5135000Y17533334D02*
X5135000Y18233334D01*
X5401666Y18233334D01*
X5468333Y18200000D01*
X5501666Y18166667D01*
X5535000Y18100000D01*
X5535000Y18000000D01*
X5501666Y17933334D01*
X5468333Y17900000D01*
X5401666Y17866667D01*
X5135000Y17866667D01*
X5072142Y4063572D02*
X4872142Y4349286D01*
X4729285Y4063572D02*
X4729285Y4663572D01*
X4957857Y4663572D01*
X5015000Y4635000D01*
X5043571Y4606429D01*
X5072142Y4549286D01*
X5072142Y4463572D01*
X5043571Y4406429D01*
X5015000Y4377858D01*
X4957857Y4349286D01*
X4729285Y4349286D01*
X5557857Y4092143D02*
X5500714Y4063572D01*
X5386428Y4063572D01*
X5329285Y4092143D01*
X5300714Y4149286D01*
X5300714Y4377858D01*
X5329285Y4435000D01*
X5386428Y4463572D01*
X5500714Y4463572D01*
X5557857Y4435000D01*
X5586428Y4377858D01*
X5586428Y4320715D01*
X5300714Y4263572D01*
X5786428Y4463572D02*
X5929285Y4063572D01*
X6072142Y4463572D01*
X6300714Y4120715D02*
X6329285Y4092143D01*
X6300714Y4063572D01*
X6272142Y4092143D01*
X6300714Y4120715D01*
X6300714Y4063572D01*
X4886428Y3613572D02*
X5257857Y3613572D01*
X5057857Y3385000D01*
X5143571Y3385000D01*
X5200714Y3356429D01*
X5229285Y3327858D01*
X5257857Y3270715D01*
X5257857Y3127858D01*
X5229285Y3070715D01*
X5200714Y3042143D01*
X5143571Y3013572D01*
X4972142Y3013572D01*
X4915000Y3042143D01*
X4886428Y3070715D01*
X5515000Y3070715D02*
X5543571Y3042143D01*
X5515000Y3013572D01*
X5486428Y3042143D01*
X5515000Y3070715D01*
X5515000Y3013572D01*
X5743571Y3613572D02*
X6143571Y3613572D01*
X5886428Y3013572D01*
X14510000Y18421429D02*
X14510000Y17888096D01*
X14319523Y18726191D02*
X14129047Y18154762D01*
X14624285Y18154762D01*
X14929047Y17888096D02*
X14929047Y18688096D01*
X15005238Y18192858D02*
X15233809Y17888096D01*
X15233809Y18421429D02*
X14929047Y18116667D01*
X15500476Y18688096D02*
X16033809Y18688096D01*
X15690952Y17888096D01*
X17481428Y18688096D02*
X17976666Y18688096D01*
X17710000Y18383334D01*
X17824285Y18383334D01*
X17900476Y18345239D01*
X17938571Y18307143D01*
X17976666Y18230953D01*
X17976666Y18040477D01*
X17938571Y17964286D01*
X17900476Y17926191D01*
X17824285Y17888096D01*
X17595714Y17888096D01*
X17519523Y17926191D01*
X17481428Y17964286D01*
X18243333Y18688096D02*
X18433809Y17888096D01*
X18586190Y18459524D01*
X18738571Y17888096D01*
X18929047Y18688096D01*
X11335000Y21201429D02*
X11335000Y20668096D01*
X11144523Y21506191D02*
X10954047Y20934762D01*
X11449285Y20934762D01*
X11754047Y20668096D02*
X11754047Y21468096D01*
X11830238Y20972858D02*
X12058809Y20668096D01*
X12058809Y21201429D02*
X11754047Y20896667D01*
X12325476Y21468096D02*
X12858809Y21468096D01*
X12515952Y20668096D01*
X14306428Y21468096D02*
X14801666Y21468096D01*
X14535000Y21163334D01*
X14649285Y21163334D01*
X14725476Y21125239D01*
X14763571Y21087143D01*
X14801666Y21010953D01*
X14801666Y20820477D01*
X14763571Y20744286D01*
X14725476Y20706191D01*
X14649285Y20668096D01*
X14420714Y20668096D01*
X14344523Y20706191D01*
X14306428Y20744286D01*
X15068333Y21468096D02*
X15258809Y20668096D01*
X15411190Y21239524D01*
X15563571Y20668096D01*
X15754047Y21468096D01*
D11*
G04 #@! TO.C,C20*
X5433279Y7491000D02*
X5107721Y7491000D01*
X5433279Y8511000D02*
X5107721Y8511000D01*
G04 #@! TO.C,C10*
X5107721Y14797500D02*
X5433279Y14797500D01*
X5107721Y13777500D02*
X5433279Y13777500D01*
G04 #@! TO.C,C4*
X11806422Y9219000D02*
X12323578Y9219000D01*
X11806422Y7799000D02*
X12323578Y7799000D01*
G04 #@! TO.C,C3*
X20165279Y12190000D02*
X19839721Y12190000D01*
X20165279Y13210000D02*
X19839721Y13210000D01*
G04 #@! TO.C,C2*
X20165279Y10285000D02*
X19839721Y10285000D01*
X20165279Y11305000D02*
X19839721Y11305000D01*
G04 #@! TO.C,C1*
X20165279Y8380000D02*
X19839721Y8380000D01*
X20165279Y9400000D02*
X19839721Y9400000D01*
G04 #@! TO.C,R23*
X19780000Y17680000D02*
X19780000Y18010000D01*
X13240000Y17680000D02*
X19780000Y17680000D01*
X13240000Y18010000D02*
X13240000Y17680000D01*
X19780000Y20420000D02*
X19780000Y20090000D01*
X13240000Y20420000D02*
X19780000Y20420000D01*
X13240000Y20090000D02*
X13240000Y20420000D01*
G04 #@! TO.C,R13*
X16605000Y18950000D02*
X16605000Y19280000D01*
X10065000Y18950000D02*
X16605000Y18950000D01*
X10065000Y19280000D02*
X10065000Y18950000D01*
X16605000Y21690000D02*
X16605000Y21360000D01*
X10065000Y21690000D02*
X16605000Y21690000D01*
X10065000Y21360000D02*
X10065000Y21690000D01*
D12*
G04 #@! TO.C,U1*
X11620500Y9632201D02*
X11620500Y9378201D01*
X11239500Y9632201D02*
X11620500Y9632201D01*
X11239500Y9378201D02*
X11239500Y9632201D01*
X11620500Y9378201D02*
X11239500Y9378201D01*
X15633700Y11593945D02*
X15633700Y15076055D01*
X10401300Y15076055D02*
X10401300Y11593945D01*
D11*
G04 #@! TO.C,R20*
X20173767Y15115000D02*
X19831233Y15115000D01*
X20173767Y14095000D02*
X19831233Y14095000D01*
G04 #@! TO.C,R10*
X20173767Y17020000D02*
X19831233Y17020000D01*
X20173767Y16000000D02*
X19831233Y16000000D01*
G04 #@! TO.C,J1*
X15667500Y17840000D02*
X14017500Y17840000D01*
X15667500Y7560000D02*
X15667500Y17840000D01*
X10367500Y7560000D02*
X15667500Y7560000D01*
X10367500Y17840000D02*
X10367500Y7560000D01*
X12017500Y17840000D02*
X10367500Y17840000D01*
X14017500Y17840000D02*
G75*
G02*
X12017500Y17840000I-1000000J0D01*
G01*
G04 #@! TO.C,R1*
X4670436Y11409000D02*
X6124564Y11409000D01*
X4670436Y13229000D02*
X6124564Y13229000D01*
G04 #@! TO.C,R2*
X4670436Y6942500D02*
X6124564Y6942500D01*
X4670436Y5122500D02*
X6124564Y5122500D01*
G04 #@! TO.C,R3*
X4670436Y9059500D02*
X6124564Y9059500D01*
X4670436Y10879500D02*
X6124564Y10879500D01*
G04 #@! TO.C,R12*
X4670436Y17166000D02*
X6124564Y17166000D01*
X4670436Y15346000D02*
X6124564Y15346000D01*
G04 #@! TO.C,C20*
D10*
X-7858Y7643858D02*
X-55477Y7596239D01*
X-198334Y7548620D01*
X-293572Y7548620D01*
X-436429Y7596239D01*
X-531667Y7691477D01*
X-579286Y7786715D01*
X-626905Y7977191D01*
X-626905Y8120048D01*
X-579286Y8310524D01*
X-531667Y8405762D01*
X-436429Y8501000D01*
X-293572Y8548620D01*
X-198334Y8548620D01*
X-55477Y8501000D01*
X-7858Y8453381D01*
X373095Y8453381D02*
X420714Y8501000D01*
X515952Y8548620D01*
X754047Y8548620D01*
X849285Y8501000D01*
X896904Y8453381D01*
X944523Y8358143D01*
X944523Y8262905D01*
X896904Y8120048D01*
X325476Y7548620D01*
X944523Y7548620D01*
X1563571Y8548620D02*
X1658809Y8548620D01*
X1754047Y8501000D01*
X1801666Y8453381D01*
X1849285Y8358143D01*
X1896904Y8167667D01*
X1896904Y7929572D01*
X1849285Y7739096D01*
X1801666Y7643858D01*
X1754047Y7596239D01*
X1658809Y7548620D01*
X1563571Y7548620D01*
X1468333Y7596239D01*
X1420714Y7643858D01*
X1373095Y7739096D01*
X1325476Y7929572D01*
X1325476Y8167667D01*
X1373095Y8358143D01*
X1420714Y8453381D01*
X1468333Y8501000D01*
X1563571Y8548620D01*
G04 #@! TO.C,C10*
X-7858Y13930358D02*
X-55477Y13882739D01*
X-198334Y13835120D01*
X-293572Y13835120D01*
X-436429Y13882739D01*
X-531667Y13977977D01*
X-579286Y14073215D01*
X-626905Y14263691D01*
X-626905Y14406548D01*
X-579286Y14597024D01*
X-531667Y14692262D01*
X-436429Y14787500D01*
X-293572Y14835120D01*
X-198334Y14835120D01*
X-55477Y14787500D01*
X-7858Y14739881D01*
X944523Y13835120D02*
X373095Y13835120D01*
X658809Y13835120D02*
X658809Y14835120D01*
X563571Y14692262D01*
X468333Y14597024D01*
X373095Y14549405D01*
X1563571Y14835120D02*
X1658809Y14835120D01*
X1754047Y14787500D01*
X1801666Y14739881D01*
X1849285Y14644643D01*
X1896904Y14454167D01*
X1896904Y14216072D01*
X1849285Y14025596D01*
X1801666Y13930358D01*
X1754047Y13882739D01*
X1658809Y13835120D01*
X1563571Y13835120D01*
X1468333Y13882739D01*
X1420714Y13930358D01*
X1373095Y14025596D01*
X1325476Y14216072D01*
X1325476Y14454167D01*
X1373095Y14644643D01*
X1420714Y14739881D01*
X1468333Y14787500D01*
X1563571Y14835120D01*
G04 #@! TO.C,C4*
X11898333Y9801858D02*
X11850714Y9754239D01*
X11707857Y9706620D01*
X11612619Y9706620D01*
X11469761Y9754239D01*
X11374523Y9849477D01*
X11326904Y9944715D01*
X11279285Y10135191D01*
X11279285Y10278048D01*
X11326904Y10468524D01*
X11374523Y10563762D01*
X11469761Y10659000D01*
X11612619Y10706620D01*
X11707857Y10706620D01*
X11850714Y10659000D01*
X11898333Y10611381D01*
X12755476Y10373286D02*
X12755476Y9706620D01*
X12517380Y10754239D02*
X12279285Y10039953D01*
X12898333Y10039953D01*
G04 #@! TO.C,C3*
X23645833Y12342858D02*
X23598214Y12295239D01*
X23455357Y12247620D01*
X23360119Y12247620D01*
X23217261Y12295239D01*
X23122023Y12390477D01*
X23074404Y12485715D01*
X23026785Y12676191D01*
X23026785Y12819048D01*
X23074404Y13009524D01*
X23122023Y13104762D01*
X23217261Y13200000D01*
X23360119Y13247620D01*
X23455357Y13247620D01*
X23598214Y13200000D01*
X23645833Y13152381D01*
X23979166Y13247620D02*
X24598214Y13247620D01*
X24264880Y12866667D01*
X24407738Y12866667D01*
X24502976Y12819048D01*
X24550595Y12771429D01*
X24598214Y12676191D01*
X24598214Y12438096D01*
X24550595Y12342858D01*
X24502976Y12295239D01*
X24407738Y12247620D01*
X24122023Y12247620D01*
X24026785Y12295239D01*
X23979166Y12342858D01*
G04 #@! TO.C,C2*
X23645833Y10437858D02*
X23598214Y10390239D01*
X23455357Y10342620D01*
X23360119Y10342620D01*
X23217261Y10390239D01*
X23122023Y10485477D01*
X23074404Y10580715D01*
X23026785Y10771191D01*
X23026785Y10914048D01*
X23074404Y11104524D01*
X23122023Y11199762D01*
X23217261Y11295000D01*
X23360119Y11342620D01*
X23455357Y11342620D01*
X23598214Y11295000D01*
X23645833Y11247381D01*
X24026785Y11247381D02*
X24074404Y11295000D01*
X24169642Y11342620D01*
X24407738Y11342620D01*
X24502976Y11295000D01*
X24550595Y11247381D01*
X24598214Y11152143D01*
X24598214Y11056905D01*
X24550595Y10914048D01*
X23979166Y10342620D01*
X24598214Y10342620D01*
G04 #@! TO.C,C1*
X23645833Y8532858D02*
X23598214Y8485239D01*
X23455357Y8437620D01*
X23360119Y8437620D01*
X23217261Y8485239D01*
X23122023Y8580477D01*
X23074404Y8675715D01*
X23026785Y8866191D01*
X23026785Y9009048D01*
X23074404Y9199524D01*
X23122023Y9294762D01*
X23217261Y9390000D01*
X23360119Y9437620D01*
X23455357Y9437620D01*
X23598214Y9390000D01*
X23645833Y9342381D01*
X24598214Y8437620D02*
X24026785Y8437620D01*
X24312500Y8437620D02*
X24312500Y9437620D01*
X24217261Y9294762D01*
X24122023Y9199524D01*
X24026785Y9151905D01*
G04 #@! TO.C,H2*
X508095Y19232620D02*
X508095Y20232620D01*
X508095Y19756429D02*
X1079523Y19756429D01*
X1079523Y19232620D02*
X1079523Y20232620D01*
X1508095Y20137381D02*
X1555714Y20185000D01*
X1650952Y20232620D01*
X1889047Y20232620D01*
X1984285Y20185000D01*
X2031904Y20137381D01*
X2079523Y20042143D01*
X2079523Y19946905D01*
X2031904Y19804048D01*
X1460476Y19232620D01*
X2079523Y19232620D01*
G04 #@! TO.C,H1*
X22733095Y4627620D02*
X22733095Y5627620D01*
X22733095Y5151429D02*
X23304523Y5151429D01*
X23304523Y4627620D02*
X23304523Y5627620D01*
X24304523Y4627620D02*
X23733095Y4627620D01*
X24018809Y4627620D02*
X24018809Y5627620D01*
X23923571Y5484762D01*
X23828333Y5389524D01*
X23733095Y5341905D01*
G04 #@! TO.C,R23*
X18600000Y20638334D02*
X18366666Y20971667D01*
X18200000Y20638334D02*
X18200000Y21338334D01*
X18466666Y21338334D01*
X18533333Y21305000D01*
X18566666Y21271667D01*
X18600000Y21205000D01*
X18600000Y21105000D01*
X18566666Y21038334D01*
X18533333Y21005000D01*
X18466666Y20971667D01*
X18200000Y20971667D01*
X18866666Y21271667D02*
X18900000Y21305000D01*
X18966666Y21338334D01*
X19133333Y21338334D01*
X19200000Y21305000D01*
X19233333Y21271667D01*
X19266666Y21205000D01*
X19266666Y21138334D01*
X19233333Y21038334D01*
X18833333Y20638334D01*
X19266666Y20638334D01*
X19500000Y21338334D02*
X19933333Y21338334D01*
X19700000Y21071667D01*
X19800000Y21071667D01*
X19866666Y21038334D01*
X19900000Y21005000D01*
X19933333Y20938334D01*
X19933333Y20771667D01*
X19900000Y20705000D01*
X19866666Y20671667D01*
X19800000Y20638334D01*
X19600000Y20638334D01*
X19533333Y20671667D01*
X19500000Y20705000D01*
G04 #@! TO.C,R13*
X7507282Y20953803D02*
X7273948Y21287136D01*
X7107282Y20953803D02*
X7107282Y21653803D01*
X7373948Y21653803D01*
X7440615Y21620469D01*
X7473948Y21587136D01*
X7507282Y21520469D01*
X7507282Y21420469D01*
X7473948Y21353803D01*
X7440615Y21320469D01*
X7373948Y21287136D01*
X7107282Y21287136D01*
X8173948Y20953803D02*
X7773948Y20953803D01*
X7973948Y20953803D02*
X7973948Y21653803D01*
X7907282Y21553803D01*
X7840615Y21487136D01*
X7773948Y21453803D01*
X8407282Y21653803D02*
X8840615Y21653803D01*
X8607282Y21387136D01*
X8707282Y21387136D01*
X8773948Y21353803D01*
X8807282Y21320469D01*
X8840615Y21253803D01*
X8840615Y21087136D01*
X8807282Y21020469D01*
X8773948Y20987136D01*
X8707282Y20953803D01*
X8507282Y20953803D01*
X8440615Y20987136D01*
X8407282Y21020469D01*
G04 #@! TO.C,U1*
X10579166Y18798334D02*
X10579166Y18231667D01*
X10612500Y18165000D01*
X10645833Y18131667D01*
X10712500Y18098334D01*
X10845833Y18098334D01*
X10912500Y18131667D01*
X10945833Y18165000D01*
X10979166Y18231667D01*
X10979166Y18798334D01*
X11679166Y18098334D02*
X11279166Y18098334D01*
X11479166Y18098334D02*
X11479166Y18798334D01*
X11412500Y18698334D01*
X11345833Y18631667D01*
X11279166Y18598334D01*
X15009880Y17780000D02*
X15247976Y17780000D01*
X15152738Y17541905D02*
X15247976Y17780000D01*
X15152738Y18018096D01*
X15438452Y17637143D02*
X15247976Y17780000D01*
X15438452Y17922858D01*
X15009880Y17780000D02*
X15247976Y17780000D01*
X15152738Y17541905D02*
X15247976Y17780000D01*
X15152738Y18018096D01*
X15438452Y17637143D02*
X15247976Y17780000D01*
X15438452Y17922858D01*
G04 #@! TO.C,R20*
X23487142Y14152620D02*
X23153809Y14628810D01*
X22915714Y14152620D02*
X22915714Y15152620D01*
X23296666Y15152620D01*
X23391904Y15105000D01*
X23439523Y15057381D01*
X23487142Y14962143D01*
X23487142Y14819286D01*
X23439523Y14724048D01*
X23391904Y14676429D01*
X23296666Y14628810D01*
X22915714Y14628810D01*
X23868095Y15057381D02*
X23915714Y15105000D01*
X24010952Y15152620D01*
X24249047Y15152620D01*
X24344285Y15105000D01*
X24391904Y15057381D01*
X24439523Y14962143D01*
X24439523Y14866905D01*
X24391904Y14724048D01*
X23820476Y14152620D01*
X24439523Y14152620D01*
X25058571Y15152620D02*
X25153809Y15152620D01*
X25249047Y15105000D01*
X25296666Y15057381D01*
X25344285Y14962143D01*
X25391904Y14771667D01*
X25391904Y14533572D01*
X25344285Y14343096D01*
X25296666Y14247858D01*
X25249047Y14200239D01*
X25153809Y14152620D01*
X25058571Y14152620D01*
X24963333Y14200239D01*
X24915714Y14247858D01*
X24868095Y14343096D01*
X24820476Y14533572D01*
X24820476Y14771667D01*
X24868095Y14962143D01*
X24915714Y15057381D01*
X24963333Y15105000D01*
X25058571Y15152620D01*
G04 #@! TO.C,R10*
X23487142Y16057620D02*
X23153809Y16533810D01*
X22915714Y16057620D02*
X22915714Y17057620D01*
X23296666Y17057620D01*
X23391904Y17010000D01*
X23439523Y16962381D01*
X23487142Y16867143D01*
X23487142Y16724286D01*
X23439523Y16629048D01*
X23391904Y16581429D01*
X23296666Y16533810D01*
X22915714Y16533810D01*
X24439523Y16057620D02*
X23868095Y16057620D01*
X24153809Y16057620D02*
X24153809Y17057620D01*
X24058571Y16914762D01*
X23963333Y16819524D01*
X23868095Y16771905D01*
X25058571Y17057620D02*
X25153809Y17057620D01*
X25249047Y17010000D01*
X25296666Y16962381D01*
X25344285Y16867143D01*
X25391904Y16676667D01*
X25391904Y16438572D01*
X25344285Y16248096D01*
X25296666Y16152858D01*
X25249047Y16105239D01*
X25153809Y16057620D01*
X25058571Y16057620D01*
X24963333Y16105239D01*
X24915714Y16152858D01*
X24868095Y16248096D01*
X24820476Y16438572D01*
X24820476Y16676667D01*
X24868095Y16867143D01*
X24915714Y16962381D01*
X24963333Y17010000D01*
X25058571Y17057620D01*
G04 #@! TO.C,J1*
X8339166Y18533334D02*
X8339166Y18033334D01*
X8305833Y17933334D01*
X8239166Y17866667D01*
X8139166Y17833334D01*
X8072500Y17833334D01*
X9039166Y17833334D02*
X8639166Y17833334D01*
X8839166Y17833334D02*
X8839166Y18533334D01*
X8772500Y18433334D01*
X8705833Y18366667D01*
X8639166Y18333334D01*
G04 #@! TO.C,FID2*
X22852142Y20997858D02*
X22652142Y20997858D01*
X22652142Y20683572D02*
X22652142Y21283572D01*
X22937857Y21283572D01*
X23166428Y20683572D02*
X23166428Y21283572D01*
X23452142Y20683572D02*
X23452142Y21283572D01*
X23595000Y21283572D01*
X23680714Y21255000D01*
X23737857Y21197858D01*
X23766428Y21140715D01*
X23795000Y21026429D01*
X23795000Y20940715D01*
X23766428Y20826429D01*
X23737857Y20769286D01*
X23680714Y20712143D01*
X23595000Y20683572D01*
X23452142Y20683572D01*
X24023571Y21226429D02*
X24052142Y21255000D01*
X24109285Y21283572D01*
X24252142Y21283572D01*
X24309285Y21255000D01*
X24337857Y21226429D01*
X24366428Y21169286D01*
X24366428Y21112143D01*
X24337857Y21026429D01*
X23995000Y20683572D01*
X24366428Y20683572D01*
G04 #@! TO.C,FID1*
X627142Y3852858D02*
X427142Y3852858D01*
X427142Y3538572D02*
X427142Y4138572D01*
X712857Y4138572D01*
X941428Y3538572D02*
X941428Y4138572D01*
X1227142Y3538572D02*
X1227142Y4138572D01*
X1370000Y4138572D01*
X1455714Y4110000D01*
X1512857Y4052858D01*
X1541428Y3995715D01*
X1570000Y3881429D01*
X1570000Y3795715D01*
X1541428Y3681429D01*
X1512857Y3624286D01*
X1455714Y3567143D01*
X1370000Y3538572D01*
X1227142Y3538572D01*
X2141428Y3538572D02*
X1798571Y3538572D01*
X1970000Y3538572D02*
X1970000Y4138572D01*
X1912857Y4052858D01*
X1855714Y3995715D01*
X1798571Y3967143D01*
G04 #@! TO.C,R1*
X1103333Y11866620D02*
X770000Y12342810D01*
X531904Y11866620D02*
X531904Y12866620D01*
X912857Y12866620D01*
X1008095Y12819000D01*
X1055714Y12771381D01*
X1103333Y12676143D01*
X1103333Y12533286D01*
X1055714Y12438048D01*
X1008095Y12390429D01*
X912857Y12342810D01*
X531904Y12342810D01*
X2055714Y11866620D02*
X1484285Y11866620D01*
X1770000Y11866620D02*
X1770000Y12866620D01*
X1674761Y12723762D01*
X1579523Y12628524D01*
X1484285Y12580905D01*
G04 #@! TO.C,R2*
X912833Y5580120D02*
X579500Y6056310D01*
X341404Y5580120D02*
X341404Y6580120D01*
X722357Y6580120D01*
X817595Y6532500D01*
X865214Y6484881D01*
X912833Y6389643D01*
X912833Y6246786D01*
X865214Y6151548D01*
X817595Y6103929D01*
X722357Y6056310D01*
X341404Y6056310D01*
X1293785Y6484881D02*
X1341404Y6532500D01*
X1436642Y6580120D01*
X1674738Y6580120D01*
X1769976Y6532500D01*
X1817595Y6484881D01*
X1865214Y6389643D01*
X1865214Y6294405D01*
X1817595Y6151548D01*
X1246166Y5580120D01*
X1865214Y5580120D01*
G04 #@! TO.C,R3*
X1103333Y9517120D02*
X770000Y9993310D01*
X531904Y9517120D02*
X531904Y10517120D01*
X912857Y10517120D01*
X1008095Y10469500D01*
X1055714Y10421881D01*
X1103333Y10326643D01*
X1103333Y10183786D01*
X1055714Y10088548D01*
X1008095Y10040929D01*
X912857Y9993310D01*
X531904Y9993310D01*
X1436666Y10517120D02*
X2055714Y10517120D01*
X1722380Y10136167D01*
X1865238Y10136167D01*
X1960476Y10088548D01*
X2008095Y10040929D01*
X2055714Y9945691D01*
X2055714Y9707596D01*
X2008095Y9612358D01*
X1960476Y9564739D01*
X1865238Y9517120D01*
X1579523Y9517120D01*
X1484285Y9564739D01*
X1436666Y9612358D01*
G04 #@! TO.C,R12*
X-7858Y15930620D02*
X-341191Y16406810D01*
X-579286Y15930620D02*
X-579286Y16930620D01*
X-198334Y16930620D01*
X-103096Y16883000D01*
X-55477Y16835381D01*
X-7858Y16740143D01*
X-7858Y16597286D01*
X-55477Y16502048D01*
X-103096Y16454429D01*
X-198334Y16406810D01*
X-579286Y16406810D01*
X944523Y15930620D02*
X373095Y15930620D01*
X658809Y15930620D02*
X658809Y16930620D01*
X563571Y16787762D01*
X468333Y16692524D01*
X373095Y16644905D01*
X1325476Y16835381D02*
X1373095Y16883000D01*
X1468333Y16930620D01*
X1706428Y16930620D01*
X1801666Y16883000D01*
X1849285Y16835381D01*
X1896904Y16740143D01*
X1896904Y16644905D01*
X1849285Y16502048D01*
X1277857Y15930620D01*
X1896904Y15930620D01*
G04 #@! TD*
M02*
