M48
; DRILL file {KiCad (5.1.9-0-10_14)} date Thursday, April 22, 2021 at 04:17:40 PM
; FORMAT={-:-/ absolute / inch / decimal}
; #@! TF.CreationDate,2021-04-22T16:17:40+10:00
; #@! TF.GenerationSoftware,Kicad,Pcbnew,(5.1.9-0-10_14)
FMAT,2
INCH
T1C0.0118
T2C0.0315
T3C0.0394
T4C0.0866
%
G90
G05
T1
X0.06Y0.49
X0.11Y0.16
X0.13Y0.43
X0.19Y0.66
X0.34Y0.4
X0.39Y0.48
X0.425Y0.3964
X0.56Y0.65
T2
X0.25Y0.575
X0.25Y0.475
X0.25Y0.375
X0.25Y0.275
X0.275Y0.725
X0.3Y0.1868
X0.4Y0.675
X0.4Y0.1868
X0.5Y0.1868
X0.55Y0.575
X0.55Y0.475
X0.55Y0.375
X0.55Y0.275
X0.575Y0.725
X0.7Y0.675
T3
X0.25Y0.1
X0.35Y0.1
X0.45Y0.1
X0.55Y0.1
T4
X0.125Y0.7
X0.675Y0.125
T0
M30
