M48
INCH,TZ
T1C0.0118
T2C0.0315
T3C0.0394
T4C0.0866
%
G90
G05
T1
X2035Y4385
X2750Y7750
X2791Y1541
X5375Y4714
X7250Y7500
X7750Y2750
T2
X4000Y2618
X5000Y2618
X6000Y2618
X5000Y7500
X8000Y7500
X3625Y6500
X3625Y5500
X3625Y4500
X3625Y3500
X6625Y6500
X6625Y5500
X6625Y4500
X6625Y3500
X3750Y8000
X6750Y8000
T3
X3500Y1750
X4500Y1750
X5500Y1750
X6500Y1750
T4
X2000Y7750
X7750Y2000
T0
M30
