G04 #@! TF.GenerationSoftware,KiCad,Pcbnew,(5.1.6-0-10_14)*
G04 #@! TF.CreationDate,2021-04-24T12:15:59+01:00*
G04 #@! TF.ProjectId,VR-Conditioner-MAX9926+reg,56522d43-6f6e-4646-9974-696f6e65722d,3.7*
G04 #@! TF.SameCoordinates,PX68c4118PY713e7a8*
G04 #@! TF.FileFunction,Copper,L2,Bot*
G04 #@! TF.FilePolarity,Positive*
%FSLAX46Y46*%
G04 Gerber Fmt 4.6, Leading zero omitted, Abs format (unit mm)*
G04 Created by KiCad (PCBNEW (5.1.6-0-10_14)) date 2021-04-24 12:15:59*
%MOMM*%
%LPD*%
G01*
G04 APERTURE LIST*
G04 #@! TA.AperFunction,ComponentPad*
%ADD10O,1.700000X1.700000*%
G04 #@! TD*
G04 #@! TA.AperFunction,ComponentPad*
%ADD11R,1.700000X1.700000*%
G04 #@! TD*
G04 #@! TA.AperFunction,ComponentPad*
%ADD12R,1.500000X1.500000*%
G04 #@! TD*
G04 #@! TA.AperFunction,ComponentPad*
%ADD13C,1.500000*%
G04 #@! TD*
G04 #@! TA.AperFunction,ComponentPad*
%ADD14O,1.600000X1.600000*%
G04 #@! TD*
G04 #@! TA.AperFunction,ComponentPad*
%ADD15C,1.600000*%
G04 #@! TD*
G04 #@! TA.AperFunction,ComponentPad*
%ADD16R,1.600000X1.600000*%
G04 #@! TD*
G04 #@! TA.AperFunction,ViaPad*
%ADD17C,0.600000*%
G04 #@! TD*
G04 #@! TA.AperFunction,Conductor*
%ADD18C,0.300000*%
G04 #@! TD*
G04 #@! TA.AperFunction,Conductor*
%ADD19C,0.400000*%
G04 #@! TD*
G04 #@! TA.AperFunction,Conductor*
%ADD20C,0.200000*%
G04 #@! TD*
G04 #@! TA.AperFunction,Conductor*
%ADD21C,0.254000*%
G04 #@! TD*
G04 APERTURE END LIST*
D10*
G04 #@! TO.P,J2,4*
G04 #@! TO.N,/COUT1*
X16510000Y4445000D03*
G04 #@! TO.P,J2,3*
G04 #@! TO.N,/COUT2*
X13970000Y4445000D03*
G04 #@! TO.P,J2,2*
G04 #@! TO.N,GND*
X11430000Y4445000D03*
D11*
G04 #@! TO.P,J2,1*
G04 #@! TO.N,+12V*
X8890000Y4445000D03*
G04 #@! TD*
D12*
G04 #@! TO.P,U2,1*
G04 #@! TO.N,GND*
X15240000Y6650000D03*
D13*
G04 #@! TO.P,U2,3*
G04 #@! TO.N,+12V*
X10160000Y6650000D03*
G04 #@! TO.P,U2,2*
G04 #@! TO.N,VCC*
X12700000Y6650000D03*
G04 #@! TD*
D14*
G04 #@! TO.P,R23,2*
G04 #@! TO.N,Net-(J1-Pad4)*
X20320000Y19050000D03*
D15*
G04 #@! TO.P,R23,1*
G04 #@! TO.N,Net-(J1-Pad3)*
X12700000Y19050000D03*
G04 #@! TD*
D14*
G04 #@! TO.P,R13,2*
G04 #@! TO.N,Net-(J1-Pad2)*
X17145000Y20320000D03*
D15*
G04 #@! TO.P,R13,1*
G04 #@! TO.N,Net-(J1-Pad1)*
X9525000Y20320000D03*
G04 #@! TD*
D14*
G04 #@! TO.P,J1,8*
G04 #@! TO.N,/COUT1*
X16827500Y16510000D03*
G04 #@! TO.P,J1,4*
G04 #@! TO.N,Net-(J1-Pad4)*
X9207500Y8890000D03*
G04 #@! TO.P,J1,7*
G04 #@! TO.N,/COUT2*
X16827500Y13970000D03*
G04 #@! TO.P,J1,3*
G04 #@! TO.N,Net-(J1-Pad3)*
X9207500Y11430000D03*
G04 #@! TO.P,J1,6*
G04 #@! TO.N,GND*
X16827500Y11430000D03*
G04 #@! TO.P,J1,2*
G04 #@! TO.N,Net-(J1-Pad2)*
X9207500Y13970000D03*
G04 #@! TO.P,J1,5*
G04 #@! TO.N,VCC*
X16827500Y8890000D03*
D16*
G04 #@! TO.P,J1,1*
G04 #@! TO.N,Net-(J1-Pad1)*
X9207500Y16510000D03*
G04 #@! TD*
D17*
G04 #@! TO.N,GND*
X13652500Y11972990D03*
X19685000Y6985000D03*
X6985000Y19685000D03*
X7089999Y3914999D03*
X18415000Y19050000D03*
X5169010Y11138010D03*
G04 #@! TD*
D18*
G04 #@! TO.N,GND*
X16827500Y11430000D02*
X14195490Y11430000D01*
X14195490Y11430000D02*
X13652500Y11972990D01*
X13652500Y12065000D02*
X13652500Y12065000D01*
X6985000Y19685000D02*
X6985000Y19685000D01*
X6985000Y4019998D02*
X6985000Y19685000D01*
X7089999Y3914999D02*
X6985000Y4019998D01*
X10725001Y3244999D02*
X11430000Y3949998D01*
X11430000Y3949998D02*
X11430000Y4445000D01*
X7089999Y3914999D02*
X7759999Y3244999D01*
X10229999Y3244999D02*
X21024999Y3244999D01*
X7759999Y3244999D02*
X10229999Y3244999D01*
X10229999Y3244999D02*
X10725001Y3244999D01*
X21024999Y3244999D02*
X21590000Y3810000D01*
D19*
G04 #@! TO.N,Net-(J1-Pad4)*
X17889999Y21480001D02*
X20320000Y19050000D01*
X8780001Y21480001D02*
X17889999Y21480001D01*
X8128000Y20828000D02*
X8780001Y21480001D01*
X7793499Y10304001D02*
X8477250Y9620250D01*
X7793499Y11031999D02*
X7793499Y10304001D01*
X8477250Y9620250D02*
X8047499Y10050001D01*
X9207500Y8890000D02*
X8477250Y9620250D01*
X7793499Y11031999D02*
X7793499Y20429999D01*
X7793499Y11031999D02*
X7793499Y19067001D01*
X7793499Y20493499D02*
X8128000Y20828000D01*
G04 #@! TO.N,Net-(J1-Pad3)*
X9207500Y11430000D02*
X11112500Y13335000D01*
X11112500Y13335000D02*
X11112500Y17145000D01*
X11112500Y17462500D02*
X11112500Y17145000D01*
X12700000Y19050000D02*
X11112500Y17462500D01*
G04 #@! TO.N,Net-(J1-Pad2)*
X10367501Y18813001D02*
X10367501Y15130001D01*
X10367501Y15130001D02*
X9207500Y13970000D01*
X11874500Y20320000D02*
X10367501Y18813001D01*
X17145000Y20320000D02*
X11874500Y20320000D01*
G04 #@! TO.N,Net-(J1-Pad1)*
X9207500Y20002500D02*
X9525000Y20320000D01*
X9207500Y18478500D02*
X9207500Y20002500D01*
X9207500Y16510000D02*
X9207500Y18478500D01*
X9207500Y18478500D02*
X9207500Y19685000D01*
D20*
G04 #@! TO.N,/COUT1*
X17927501Y15409999D02*
X16827500Y16510000D01*
X17927501Y8085001D02*
X17927501Y15409999D01*
X17716500Y7874000D02*
X17927501Y8085001D01*
X16573500Y6731000D02*
X17716500Y7874000D01*
X16827500Y6985000D02*
X17716500Y7874000D01*
X16510000Y6667500D02*
X16573500Y6731000D01*
X16510000Y4445000D02*
X16510000Y6667500D01*
G04 #@! TO.N,/COUT2*
X14669498Y13970000D02*
X16827500Y13970000D01*
X13052499Y12353001D02*
X14669498Y13970000D01*
X13052499Y11684989D02*
X13052499Y12353001D01*
X13970000Y4445000D02*
X13970000Y10767488D01*
X13970000Y10767488D02*
X13162494Y11574994D01*
X13162494Y11574994D02*
X13052499Y11684989D01*
G04 #@! TD*
D21*
G04 #@! TO.N,GND*
G36*
X7566576Y21447443D02*
G01*
X7566571Y21447439D01*
X7174061Y21054928D01*
X7095863Y20959644D01*
X7018327Y20814585D01*
X6970581Y20657187D01*
X6954459Y20493499D01*
X6958500Y20452470D01*
X6958499Y11073018D01*
X6958499Y10345019D01*
X6954459Y10304001D01*
X6958499Y10262983D01*
X6958499Y10262982D01*
X6968477Y10161680D01*
X6970581Y10140313D01*
X7018327Y9982915D01*
X7095863Y9837856D01*
X7095864Y9837855D01*
X7200209Y9710710D01*
X7232072Y9684560D01*
X7791214Y9125417D01*
X7772500Y9031335D01*
X7772500Y8748665D01*
X7827647Y8471426D01*
X7935820Y8210273D01*
X8092863Y7975241D01*
X8292741Y7775363D01*
X8527773Y7618320D01*
X8788926Y7510147D01*
X9036149Y7460971D01*
X8932629Y7306043D01*
X8828225Y7053989D01*
X8775000Y6786411D01*
X8775000Y6513589D01*
X8828225Y6246011D01*
X8932629Y5993957D01*
X8973311Y5933072D01*
X8040000Y5933072D01*
X7915518Y5920812D01*
X7795820Y5884502D01*
X7685506Y5825537D01*
X7588815Y5746185D01*
X7509463Y5649494D01*
X7450498Y5539180D01*
X7414188Y5419482D01*
X7401928Y5295000D01*
X7401928Y3595000D01*
X7414188Y3470518D01*
X7450498Y3350820D01*
X7504388Y3250000D01*
X3844720Y3250000D01*
X3701891Y3264005D01*
X3597901Y3295401D01*
X3501987Y3346399D01*
X3417801Y3415059D01*
X3348561Y3498757D01*
X3296895Y3594311D01*
X3264773Y3698078D01*
X3250000Y3838641D01*
X3250000Y19855883D01*
X3345000Y19855883D01*
X3345000Y19514117D01*
X3411675Y19178919D01*
X3542463Y18863169D01*
X3732337Y18579002D01*
X3974002Y18337337D01*
X4258169Y18147463D01*
X4573919Y18016675D01*
X4909117Y17950000D01*
X5250883Y17950000D01*
X5586081Y18016675D01*
X5901831Y18147463D01*
X6185998Y18337337D01*
X6427663Y18579002D01*
X6617537Y18863169D01*
X6748325Y19178919D01*
X6815000Y19514117D01*
X6815000Y19855883D01*
X6748325Y20191081D01*
X6617537Y20506831D01*
X6427663Y20790998D01*
X6185998Y21032663D01*
X5901831Y21222537D01*
X5586081Y21353325D01*
X5250883Y21420000D01*
X4909117Y21420000D01*
X4573919Y21353325D01*
X4258169Y21222537D01*
X3974002Y21032663D01*
X3732337Y20790998D01*
X3542463Y20506831D01*
X3411675Y20191081D01*
X3345000Y19855883D01*
X3250000Y19855883D01*
X3250000Y20920280D01*
X3264005Y21063109D01*
X3295402Y21167101D01*
X3346399Y21263014D01*
X3415055Y21347194D01*
X3498758Y21416440D01*
X3594311Y21468105D01*
X3698078Y21500227D01*
X3838641Y21515000D01*
X7634133Y21515000D01*
X7566576Y21447443D01*
G37*
X7566576Y21447443D02*
X7566571Y21447439D01*
X7174061Y21054928D01*
X7095863Y20959644D01*
X7018327Y20814585D01*
X6970581Y20657187D01*
X6954459Y20493499D01*
X6958500Y20452470D01*
X6958499Y11073018D01*
X6958499Y10345019D01*
X6954459Y10304001D01*
X6958499Y10262983D01*
X6958499Y10262982D01*
X6968477Y10161680D01*
X6970581Y10140313D01*
X7018327Y9982915D01*
X7095863Y9837856D01*
X7095864Y9837855D01*
X7200209Y9710710D01*
X7232072Y9684560D01*
X7791214Y9125417D01*
X7772500Y9031335D01*
X7772500Y8748665D01*
X7827647Y8471426D01*
X7935820Y8210273D01*
X8092863Y7975241D01*
X8292741Y7775363D01*
X8527773Y7618320D01*
X8788926Y7510147D01*
X9036149Y7460971D01*
X8932629Y7306043D01*
X8828225Y7053989D01*
X8775000Y6786411D01*
X8775000Y6513589D01*
X8828225Y6246011D01*
X8932629Y5993957D01*
X8973311Y5933072D01*
X8040000Y5933072D01*
X7915518Y5920812D01*
X7795820Y5884502D01*
X7685506Y5825537D01*
X7588815Y5746185D01*
X7509463Y5649494D01*
X7450498Y5539180D01*
X7414188Y5419482D01*
X7401928Y5295000D01*
X7401928Y3595000D01*
X7414188Y3470518D01*
X7450498Y3350820D01*
X7504388Y3250000D01*
X3844720Y3250000D01*
X3701891Y3264005D01*
X3597901Y3295401D01*
X3501987Y3346399D01*
X3417801Y3415059D01*
X3348561Y3498757D01*
X3296895Y3594311D01*
X3264773Y3698078D01*
X3250000Y3838641D01*
X3250000Y19855883D01*
X3345000Y19855883D01*
X3345000Y19514117D01*
X3411675Y19178919D01*
X3542463Y18863169D01*
X3732337Y18579002D01*
X3974002Y18337337D01*
X4258169Y18147463D01*
X4573919Y18016675D01*
X4909117Y17950000D01*
X5250883Y17950000D01*
X5586081Y18016675D01*
X5901831Y18147463D01*
X6185998Y18337337D01*
X6427663Y18579002D01*
X6617537Y18863169D01*
X6748325Y19178919D01*
X6815000Y19514117D01*
X6815000Y19855883D01*
X6748325Y20191081D01*
X6617537Y20506831D01*
X6427663Y20790998D01*
X6185998Y21032663D01*
X5901831Y21222537D01*
X5586081Y21353325D01*
X5250883Y21420000D01*
X4909117Y21420000D01*
X4573919Y21353325D01*
X4258169Y21222537D01*
X3974002Y21032663D01*
X3732337Y20790998D01*
X3542463Y20506831D01*
X3411675Y20191081D01*
X3345000Y19855883D01*
X3250000Y19855883D01*
X3250000Y20920280D01*
X3264005Y21063109D01*
X3295402Y21167101D01*
X3346399Y21263014D01*
X3415055Y21347194D01*
X3498758Y21416440D01*
X3594311Y21468105D01*
X3698078Y21500227D01*
X3838641Y21515000D01*
X7634133Y21515000D01*
X7566576Y21447443D01*
G36*
X10429731Y3347412D02*
G01*
X10560329Y3250000D01*
X10275612Y3250000D01*
X10329502Y3350820D01*
X10353966Y3431466D01*
X10429731Y3347412D01*
G37*
X10429731Y3347412D02*
X10560329Y3250000D01*
X10275612Y3250000D01*
X10329502Y3350820D01*
X10353966Y3431466D01*
X10429731Y3347412D01*
G36*
X18903714Y19285418D02*
G01*
X18885000Y19191335D01*
X18885000Y18908665D01*
X18940147Y18631426D01*
X19048320Y18370273D01*
X19205363Y18135241D01*
X19405241Y17935363D01*
X19640273Y17778320D01*
X19901426Y17670147D01*
X20178665Y17615000D01*
X20461335Y17615000D01*
X20738574Y17670147D01*
X20999727Y17778320D01*
X21234759Y17935363D01*
X21434637Y18135241D01*
X21515000Y18255513D01*
X21515001Y3844730D01*
X21500995Y3701891D01*
X21469599Y3597901D01*
X21418601Y3501987D01*
X21349941Y3417801D01*
X21266243Y3348561D01*
X21170689Y3296895D01*
X21066922Y3264773D01*
X20926359Y3250000D01*
X17394485Y3250000D01*
X17456632Y3291525D01*
X17663475Y3498368D01*
X17825990Y3741589D01*
X17937932Y4011842D01*
X17995000Y4298740D01*
X17995000Y4591260D01*
X17937932Y4878158D01*
X17825990Y5148411D01*
X17757521Y5250883D01*
X17950000Y5250883D01*
X17950000Y4909117D01*
X18016675Y4573919D01*
X18147463Y4258169D01*
X18337337Y3974002D01*
X18579002Y3732337D01*
X18863169Y3542463D01*
X19178919Y3411675D01*
X19514117Y3345000D01*
X19855883Y3345000D01*
X20191081Y3411675D01*
X20506831Y3542463D01*
X20790998Y3732337D01*
X21032663Y3974002D01*
X21222537Y4258169D01*
X21353325Y4573919D01*
X21420000Y4909117D01*
X21420000Y5250883D01*
X21353325Y5586081D01*
X21222537Y5901831D01*
X21032663Y6185998D01*
X20790998Y6427663D01*
X20506831Y6617537D01*
X20191081Y6748325D01*
X19855883Y6815000D01*
X19514117Y6815000D01*
X19178919Y6748325D01*
X18863169Y6617537D01*
X18579002Y6427663D01*
X18337337Y6185998D01*
X18147463Y5901831D01*
X18016675Y5586081D01*
X17950000Y5250883D01*
X17757521Y5250883D01*
X17663475Y5391632D01*
X17456632Y5598475D01*
X17245000Y5739883D01*
X17245000Y6363054D01*
X18261753Y7379806D01*
X18261758Y7379812D01*
X18421693Y7539747D01*
X18449738Y7562763D01*
X18541588Y7674681D01*
X18609838Y7802368D01*
X18651866Y7940916D01*
X18662501Y8048896D01*
X18662501Y8048905D01*
X18666056Y8085000D01*
X18662501Y8121095D01*
X18662501Y15373905D01*
X18666056Y15410000D01*
X18662501Y15446095D01*
X18662501Y15446104D01*
X18651866Y15554084D01*
X18609838Y15692632D01*
X18541588Y15820319D01*
X18449739Y15932237D01*
X18421694Y15955253D01*
X18220322Y16156625D01*
X18262500Y16368665D01*
X18262500Y16651335D01*
X18207353Y16928574D01*
X18099180Y17189727D01*
X17942137Y17424759D01*
X17742259Y17624637D01*
X17507227Y17781680D01*
X17246074Y17889853D01*
X16968835Y17945000D01*
X16686165Y17945000D01*
X16408926Y17889853D01*
X16147773Y17781680D01*
X15912741Y17624637D01*
X15712863Y17424759D01*
X15555820Y17189727D01*
X15447647Y16928574D01*
X15392500Y16651335D01*
X15392500Y16368665D01*
X15447647Y16091426D01*
X15555820Y15830273D01*
X15712863Y15595241D01*
X15912741Y15395363D01*
X16145259Y15240000D01*
X15912741Y15084637D01*
X15712863Y14884759D01*
X15592752Y14705000D01*
X14705603Y14705000D01*
X14669498Y14708556D01*
X14633393Y14705000D01*
X14525413Y14694365D01*
X14386865Y14652337D01*
X14259178Y14584087D01*
X14147260Y14492238D01*
X14124244Y14464193D01*
X12558307Y12898255D01*
X12530262Y12875239D01*
X12438413Y12763321D01*
X12371088Y12637364D01*
X12370163Y12635634D01*
X12328134Y12497086D01*
X12313943Y12353001D01*
X12317499Y12316896D01*
X12317499Y11721094D01*
X12313943Y11684989D01*
X12325137Y11571335D01*
X12328134Y11540905D01*
X12370162Y11402357D01*
X12438412Y11274670D01*
X12530261Y11162752D01*
X12558307Y11139735D01*
X12617241Y11080801D01*
X13235001Y10463040D01*
X13235001Y7927508D01*
X13103989Y7981775D01*
X12836411Y8035000D01*
X12563589Y8035000D01*
X12296011Y7981775D01*
X12043957Y7877371D01*
X11817114Y7725799D01*
X11624201Y7532886D01*
X11472629Y7306043D01*
X11430000Y7203127D01*
X11387371Y7306043D01*
X11235799Y7532886D01*
X11042886Y7725799D01*
X10816043Y7877371D01*
X10563989Y7981775D01*
X10354364Y8023472D01*
X10479180Y8210273D01*
X10587353Y8471426D01*
X10642500Y8748665D01*
X10642500Y9031335D01*
X10587353Y9308574D01*
X10479180Y9569727D01*
X10322137Y9804759D01*
X10122259Y10004637D01*
X9889741Y10160000D01*
X10122259Y10315363D01*
X10322137Y10515241D01*
X10479180Y10750273D01*
X10587353Y11011426D01*
X10642500Y11288665D01*
X10642500Y11571335D01*
X10623786Y11665418D01*
X11673933Y12715564D01*
X11705791Y12741709D01*
X11810136Y12868854D01*
X11887672Y13013913D01*
X11935418Y13171311D01*
X11947500Y13293981D01*
X11947500Y13293982D01*
X11951540Y13335000D01*
X11947500Y13376018D01*
X11947500Y17116633D01*
X12464582Y17633715D01*
X12558665Y17615000D01*
X12841335Y17615000D01*
X13118574Y17670147D01*
X13379727Y17778320D01*
X13614759Y17935363D01*
X13814637Y18135241D01*
X13971680Y18370273D01*
X14079853Y18631426D01*
X14135000Y18908665D01*
X14135000Y19191335D01*
X14079853Y19468574D01*
X14073049Y19485000D01*
X15977070Y19485000D01*
X16030363Y19405241D01*
X16230241Y19205363D01*
X16465273Y19048320D01*
X16726426Y18940147D01*
X17003665Y18885000D01*
X17286335Y18885000D01*
X17563574Y18940147D01*
X17824727Y19048320D01*
X18059759Y19205363D01*
X18259637Y19405241D01*
X18416680Y19640273D01*
X18455394Y19733738D01*
X18903714Y19285418D01*
G37*
X18903714Y19285418D02*
X18885000Y19191335D01*
X18885000Y18908665D01*
X18940147Y18631426D01*
X19048320Y18370273D01*
X19205363Y18135241D01*
X19405241Y17935363D01*
X19640273Y17778320D01*
X19901426Y17670147D01*
X20178665Y17615000D01*
X20461335Y17615000D01*
X20738574Y17670147D01*
X20999727Y17778320D01*
X21234759Y17935363D01*
X21434637Y18135241D01*
X21515000Y18255513D01*
X21515001Y3844730D01*
X21500995Y3701891D01*
X21469599Y3597901D01*
X21418601Y3501987D01*
X21349941Y3417801D01*
X21266243Y3348561D01*
X21170689Y3296895D01*
X21066922Y3264773D01*
X20926359Y3250000D01*
X17394485Y3250000D01*
X17456632Y3291525D01*
X17663475Y3498368D01*
X17825990Y3741589D01*
X17937932Y4011842D01*
X17995000Y4298740D01*
X17995000Y4591260D01*
X17937932Y4878158D01*
X17825990Y5148411D01*
X17757521Y5250883D01*
X17950000Y5250883D01*
X17950000Y4909117D01*
X18016675Y4573919D01*
X18147463Y4258169D01*
X18337337Y3974002D01*
X18579002Y3732337D01*
X18863169Y3542463D01*
X19178919Y3411675D01*
X19514117Y3345000D01*
X19855883Y3345000D01*
X20191081Y3411675D01*
X20506831Y3542463D01*
X20790998Y3732337D01*
X21032663Y3974002D01*
X21222537Y4258169D01*
X21353325Y4573919D01*
X21420000Y4909117D01*
X21420000Y5250883D01*
X21353325Y5586081D01*
X21222537Y5901831D01*
X21032663Y6185998D01*
X20790998Y6427663D01*
X20506831Y6617537D01*
X20191081Y6748325D01*
X19855883Y6815000D01*
X19514117Y6815000D01*
X19178919Y6748325D01*
X18863169Y6617537D01*
X18579002Y6427663D01*
X18337337Y6185998D01*
X18147463Y5901831D01*
X18016675Y5586081D01*
X17950000Y5250883D01*
X17757521Y5250883D01*
X17663475Y5391632D01*
X17456632Y5598475D01*
X17245000Y5739883D01*
X17245000Y6363054D01*
X18261753Y7379806D01*
X18261758Y7379812D01*
X18421693Y7539747D01*
X18449738Y7562763D01*
X18541588Y7674681D01*
X18609838Y7802368D01*
X18651866Y7940916D01*
X18662501Y8048896D01*
X18662501Y8048905D01*
X18666056Y8085000D01*
X18662501Y8121095D01*
X18662501Y15373905D01*
X18666056Y15410000D01*
X18662501Y15446095D01*
X18662501Y15446104D01*
X18651866Y15554084D01*
X18609838Y15692632D01*
X18541588Y15820319D01*
X18449739Y15932237D01*
X18421694Y15955253D01*
X18220322Y16156625D01*
X18262500Y16368665D01*
X18262500Y16651335D01*
X18207353Y16928574D01*
X18099180Y17189727D01*
X17942137Y17424759D01*
X17742259Y17624637D01*
X17507227Y17781680D01*
X17246074Y17889853D01*
X16968835Y17945000D01*
X16686165Y17945000D01*
X16408926Y17889853D01*
X16147773Y17781680D01*
X15912741Y17624637D01*
X15712863Y17424759D01*
X15555820Y17189727D01*
X15447647Y16928574D01*
X15392500Y16651335D01*
X15392500Y16368665D01*
X15447647Y16091426D01*
X15555820Y15830273D01*
X15712863Y15595241D01*
X15912741Y15395363D01*
X16145259Y15240000D01*
X15912741Y15084637D01*
X15712863Y14884759D01*
X15592752Y14705000D01*
X14705603Y14705000D01*
X14669498Y14708556D01*
X14633393Y14705000D01*
X14525413Y14694365D01*
X14386865Y14652337D01*
X14259178Y14584087D01*
X14147260Y14492238D01*
X14124244Y14464193D01*
X12558307Y12898255D01*
X12530262Y12875239D01*
X12438413Y12763321D01*
X12371088Y12637364D01*
X12370163Y12635634D01*
X12328134Y12497086D01*
X12313943Y12353001D01*
X12317499Y12316896D01*
X12317499Y11721094D01*
X12313943Y11684989D01*
X12325137Y11571335D01*
X12328134Y11540905D01*
X12370162Y11402357D01*
X12438412Y11274670D01*
X12530261Y11162752D01*
X12558307Y11139735D01*
X12617241Y11080801D01*
X13235001Y10463040D01*
X13235001Y7927508D01*
X13103989Y7981775D01*
X12836411Y8035000D01*
X12563589Y8035000D01*
X12296011Y7981775D01*
X12043957Y7877371D01*
X11817114Y7725799D01*
X11624201Y7532886D01*
X11472629Y7306043D01*
X11430000Y7203127D01*
X11387371Y7306043D01*
X11235799Y7532886D01*
X11042886Y7725799D01*
X10816043Y7877371D01*
X10563989Y7981775D01*
X10354364Y8023472D01*
X10479180Y8210273D01*
X10587353Y8471426D01*
X10642500Y8748665D01*
X10642500Y9031335D01*
X10587353Y9308574D01*
X10479180Y9569727D01*
X10322137Y9804759D01*
X10122259Y10004637D01*
X9889741Y10160000D01*
X10122259Y10315363D01*
X10322137Y10515241D01*
X10479180Y10750273D01*
X10587353Y11011426D01*
X10642500Y11288665D01*
X10642500Y11571335D01*
X10623786Y11665418D01*
X11673933Y12715564D01*
X11705791Y12741709D01*
X11810136Y12868854D01*
X11887672Y13013913D01*
X11935418Y13171311D01*
X11947500Y13293981D01*
X11947500Y13293982D01*
X11951540Y13335000D01*
X11947500Y13376018D01*
X11947500Y17116633D01*
X12464582Y17633715D01*
X12558665Y17615000D01*
X12841335Y17615000D01*
X13118574Y17670147D01*
X13379727Y17778320D01*
X13614759Y17935363D01*
X13814637Y18135241D01*
X13971680Y18370273D01*
X14079853Y18631426D01*
X14135000Y18908665D01*
X14135000Y19191335D01*
X14079853Y19468574D01*
X14073049Y19485000D01*
X15977070Y19485000D01*
X16030363Y19405241D01*
X16230241Y19205363D01*
X16465273Y19048320D01*
X16726426Y18940147D01*
X17003665Y18885000D01*
X17286335Y18885000D01*
X17563574Y18940147D01*
X17824727Y19048320D01*
X18059759Y19205363D01*
X18259637Y19405241D01*
X18416680Y19640273D01*
X18455394Y19733738D01*
X18903714Y19285418D01*
G36*
X11472629Y5993957D02*
G01*
X11607650Y5791885D01*
X11557000Y5765155D01*
X11557000Y4572000D01*
X11577000Y4572000D01*
X11577000Y4318000D01*
X11557000Y4318000D01*
X11557000Y4298000D01*
X11303000Y4298000D01*
X11303000Y4318000D01*
X11283000Y4318000D01*
X11283000Y4572000D01*
X11303000Y4572000D01*
X11303000Y5765155D01*
X11252350Y5791885D01*
X11387371Y5993957D01*
X11430000Y6096873D01*
X11472629Y5993957D01*
G37*
X11472629Y5993957D02*
X11607650Y5791885D01*
X11557000Y5765155D01*
X11557000Y4572000D01*
X11577000Y4572000D01*
X11577000Y4318000D01*
X11557000Y4318000D01*
X11557000Y4298000D01*
X11303000Y4298000D01*
X11303000Y4318000D01*
X11283000Y4318000D01*
X11283000Y4572000D01*
X11303000Y4572000D01*
X11303000Y5765155D01*
X11252350Y5791885D01*
X11387371Y5993957D01*
X11430000Y6096873D01*
X11472629Y5993957D01*
G36*
X15712863Y13055241D02*
G01*
X15912741Y12855363D01*
X16147773Y12698320D01*
X16408926Y12590147D01*
X16686165Y12535000D01*
X16968835Y12535000D01*
X17192502Y12579491D01*
X17192501Y10280509D01*
X16968835Y10325000D01*
X16686165Y10325000D01*
X16408926Y10269853D01*
X16147773Y10161680D01*
X15912741Y10004637D01*
X15712863Y9804759D01*
X15555820Y9569727D01*
X15447647Y9308574D01*
X15392500Y9031335D01*
X15392500Y8748665D01*
X15447647Y8471426D01*
X15555820Y8210273D01*
X15672286Y8035970D01*
X15525750Y8035000D01*
X15367000Y7876250D01*
X15367000Y6777000D01*
X15387000Y6777000D01*
X15387000Y6523000D01*
X15367000Y6523000D01*
X15367000Y5423750D01*
X15377822Y5412928D01*
X15356525Y5391632D01*
X15240000Y5217240D01*
X15123475Y5391632D01*
X15102179Y5412928D01*
X15113000Y5423750D01*
X15113000Y6523000D01*
X15093000Y6523000D01*
X15093000Y6777000D01*
X15113000Y6777000D01*
X15113000Y7876250D01*
X14954250Y8035000D01*
X14705000Y8036649D01*
X14705000Y10731383D01*
X14708556Y10767488D01*
X14694365Y10911573D01*
X14683790Y10946433D01*
X14652337Y11050121D01*
X14584087Y11177808D01*
X14492238Y11289726D01*
X14464193Y11312742D01*
X13787499Y11989435D01*
X13787499Y12048555D01*
X14973945Y13235000D01*
X15592752Y13235000D01*
X15712863Y13055241D01*
G37*
X15712863Y13055241D02*
X15912741Y12855363D01*
X16147773Y12698320D01*
X16408926Y12590147D01*
X16686165Y12535000D01*
X16968835Y12535000D01*
X17192502Y12579491D01*
X17192501Y10280509D01*
X16968835Y10325000D01*
X16686165Y10325000D01*
X16408926Y10269853D01*
X16147773Y10161680D01*
X15912741Y10004637D01*
X15712863Y9804759D01*
X15555820Y9569727D01*
X15447647Y9308574D01*
X15392500Y9031335D01*
X15392500Y8748665D01*
X15447647Y8471426D01*
X15555820Y8210273D01*
X15672286Y8035970D01*
X15525750Y8035000D01*
X15367000Y7876250D01*
X15367000Y6777000D01*
X15387000Y6777000D01*
X15387000Y6523000D01*
X15367000Y6523000D01*
X15367000Y5423750D01*
X15377822Y5412928D01*
X15356525Y5391632D01*
X15240000Y5217240D01*
X15123475Y5391632D01*
X15102179Y5412928D01*
X15113000Y5423750D01*
X15113000Y6523000D01*
X15093000Y6523000D01*
X15093000Y6777000D01*
X15113000Y6777000D01*
X15113000Y7876250D01*
X14954250Y8035000D01*
X14705000Y8036649D01*
X14705000Y10731383D01*
X14708556Y10767488D01*
X14694365Y10911573D01*
X14683790Y10946433D01*
X14652337Y11050121D01*
X14584087Y11177808D01*
X14492238Y11289726D01*
X14464193Y11312742D01*
X13787499Y11989435D01*
X13787499Y12048555D01*
X14973945Y13235000D01*
X15592752Y13235000D01*
X15712863Y13055241D01*
G04 #@! TD*
M02*
