G04 #@! TF.GenerationSoftware,KiCad,Pcbnew,(5.1.6-0-10_14)*
G04 #@! TF.CreationDate,2021-04-24T12:15:59+01:00*
G04 #@! TF.ProjectId,VR-Conditioner-MAX9926+reg,56522d43-6f6e-4646-9974-696f6e65722d,3.7*
G04 #@! TF.SameCoordinates,PX68c4118PY713e7a8*
G04 #@! TF.FileFunction,Legend,Bot*
G04 #@! TF.FilePolarity,Positive*
%FSLAX46Y46*%
G04 Gerber Fmt 4.6, Leading zero omitted, Abs format (unit mm)*
G04 Created by KiCad (PCBNEW (5.1.6-0-10_14)) date 2021-04-24 12:15:59*
%MOMM*%
%LPD*%
G01*
G04 APERTURE LIST*
%ADD10C,0.150000*%
%ADD11C,0.120000*%
G04 APERTURE END LIST*
D10*
X11516230Y18467286D02*
X11516230Y18933952D01*
X11516230Y18867286D02*
X11482897Y18900619D01*
X11416230Y18933952D01*
X11316230Y18933952D01*
X11249563Y18900619D01*
X11216230Y18833952D01*
X11216230Y18467286D01*
X11216230Y18833952D02*
X11182897Y18900619D01*
X11116230Y18933952D01*
X11016230Y18933952D01*
X10949563Y18900619D01*
X10916230Y18833952D01*
X10916230Y18467286D01*
X10482897Y18467286D02*
X10549563Y18500619D01*
X10582897Y18533952D01*
X10616230Y18600619D01*
X10616230Y18800619D01*
X10582897Y18867286D01*
X10549563Y18900619D01*
X10482897Y18933952D01*
X10382897Y18933952D01*
X10316230Y18900619D01*
X10282897Y18867286D01*
X10249563Y18800619D01*
X10249563Y18600619D01*
X10282897Y18533952D01*
X10316230Y18500619D01*
X10382897Y18467286D01*
X10482897Y18467286D01*
X9649563Y18467286D02*
X9649563Y19167286D01*
X9649563Y18500619D02*
X9716230Y18467286D01*
X9849563Y18467286D01*
X9916230Y18500619D01*
X9949563Y18533952D01*
X9982897Y18600619D01*
X9982897Y18800619D01*
X9949563Y18867286D01*
X9916230Y18900619D01*
X9849563Y18933952D01*
X9716230Y18933952D01*
X9649563Y18900619D01*
X9049563Y18500619D02*
X9116230Y18467286D01*
X9249563Y18467286D01*
X9316230Y18500619D01*
X9349563Y18567286D01*
X9349563Y18833952D01*
X9316230Y18900619D01*
X9249563Y18933952D01*
X9116230Y18933952D01*
X9049563Y18900619D01*
X9016230Y18833952D01*
X9016230Y18767286D01*
X9349563Y18700619D01*
X8216230Y18667286D02*
X7882897Y18667286D01*
X8282897Y18467286D02*
X8049563Y19167286D01*
X7816230Y18467286D01*
X7616230Y19100619D02*
X7582897Y19133952D01*
X7516230Y19167286D01*
X7349563Y19167286D01*
X7282897Y19133952D01*
X7249563Y19100619D01*
X7216230Y19033952D01*
X7216230Y18967286D01*
X7249563Y18867286D01*
X7649563Y18467286D01*
X7216230Y18467286D01*
X15860000Y20866667D02*
X15760000Y20833334D01*
X15593333Y20833334D01*
X15526666Y20866667D01*
X15493333Y20900000D01*
X15460000Y20966667D01*
X15460000Y21033334D01*
X15493333Y21100000D01*
X15526666Y21133334D01*
X15593333Y21166667D01*
X15726666Y21200000D01*
X15793333Y21233334D01*
X15826666Y21266667D01*
X15860000Y21333334D01*
X15860000Y21400000D01*
X15826666Y21466667D01*
X15793333Y21500000D01*
X15726666Y21533334D01*
X15560000Y21533334D01*
X15460000Y21500000D01*
X15160000Y21300000D02*
X15160000Y20600000D01*
X15160000Y21266667D02*
X15093333Y21300000D01*
X14960000Y21300000D01*
X14893333Y21266667D01*
X14860000Y21233334D01*
X14826666Y21166667D01*
X14826666Y20966667D01*
X14860000Y20900000D01*
X14893333Y20866667D01*
X14960000Y20833334D01*
X15093333Y20833334D01*
X15160000Y20866667D01*
X14260000Y20866667D02*
X14326666Y20833334D01*
X14460000Y20833334D01*
X14526666Y20866667D01*
X14560000Y20933334D01*
X14560000Y21200000D01*
X14526666Y21266667D01*
X14460000Y21300000D01*
X14326666Y21300000D01*
X14260000Y21266667D01*
X14226666Y21200000D01*
X14226666Y21133334D01*
X14560000Y21066667D01*
X13660000Y20866667D02*
X13726666Y20833334D01*
X13860000Y20833334D01*
X13926666Y20866667D01*
X13960000Y20933334D01*
X13960000Y21200000D01*
X13926666Y21266667D01*
X13860000Y21300000D01*
X13726666Y21300000D01*
X13660000Y21266667D01*
X13626666Y21200000D01*
X13626666Y21133334D01*
X13960000Y21066667D01*
X13026666Y20833334D02*
X13026666Y21533334D01*
X13026666Y20866667D02*
X13093333Y20833334D01*
X13226666Y20833334D01*
X13293333Y20866667D01*
X13326666Y20900000D01*
X13360000Y20966667D01*
X13360000Y21166667D01*
X13326666Y21233334D01*
X13293333Y21266667D01*
X13226666Y21300000D01*
X13093333Y21300000D01*
X13026666Y21266667D01*
X12393333Y21300000D02*
X12393333Y20833334D01*
X12693333Y21300000D02*
X12693333Y20933334D01*
X12660000Y20866667D01*
X12593333Y20833334D01*
X12493333Y20833334D01*
X12426666Y20866667D01*
X12393333Y20900000D01*
X12060000Y20833334D02*
X12060000Y21300000D01*
X12060000Y21533334D02*
X12093333Y21500000D01*
X12060000Y21466667D01*
X12026666Y21500000D01*
X12060000Y21533334D01*
X12060000Y21466667D01*
X11726666Y21300000D02*
X11726666Y20833334D01*
X11726666Y21233334D02*
X11693333Y21266667D01*
X11626666Y21300000D01*
X11526666Y21300000D01*
X11460000Y21266667D01*
X11426666Y21200000D01*
X11426666Y20833334D01*
X10993333Y20833334D02*
X11060000Y20866667D01*
X11093333Y20900000D01*
X11126666Y20966667D01*
X11126666Y21166667D01*
X11093333Y21233334D01*
X11060000Y21266667D01*
X10993333Y21300000D01*
X10893333Y21300000D01*
X10826666Y21266667D01*
X10793333Y21233334D01*
X10760000Y21166667D01*
X10760000Y20966667D01*
X10793333Y20900000D01*
X10826666Y20866667D01*
X10893333Y20833334D01*
X10993333Y20833334D01*
X14610000Y20366667D02*
X15210000Y19466667D01*
X18926666Y18466667D02*
X18993333Y18433334D01*
X19126666Y18433334D01*
X19193333Y18466667D01*
X19226666Y18500000D01*
X19260000Y18566667D01*
X19260000Y18766667D01*
X19226666Y18833334D01*
X19193333Y18866667D01*
X19126666Y18900000D01*
X18993333Y18900000D01*
X18926666Y18866667D01*
X18526666Y18433334D02*
X18593333Y18466667D01*
X18626666Y18500000D01*
X18660000Y18566667D01*
X18660000Y18766667D01*
X18626666Y18833334D01*
X18593333Y18866667D01*
X18526666Y18900000D01*
X18426666Y18900000D01*
X18360000Y18866667D01*
X18326666Y18833334D01*
X18293333Y18766667D01*
X18293333Y18566667D01*
X18326666Y18500000D01*
X18360000Y18466667D01*
X18426666Y18433334D01*
X18526666Y18433334D01*
X17993333Y18433334D02*
X17993333Y18900000D01*
X17993333Y18833334D02*
X17960000Y18866667D01*
X17893333Y18900000D01*
X17793333Y18900000D01*
X17726666Y18866667D01*
X17693333Y18800000D01*
X17693333Y18433334D01*
X17693333Y18800000D02*
X17660000Y18866667D01*
X17593333Y18900000D01*
X17493333Y18900000D01*
X17426666Y18866667D01*
X17393333Y18800000D01*
X17393333Y18433334D01*
X17060000Y18900000D02*
X17060000Y18200000D01*
X17060000Y18866667D02*
X16993333Y18900000D01*
X16860000Y18900000D01*
X16793333Y18866667D01*
X16760000Y18833334D01*
X16726666Y18766667D01*
X16726666Y18566667D01*
X16760000Y18500000D01*
X16793333Y18466667D01*
X16860000Y18433334D01*
X16993333Y18433334D01*
X17060000Y18466667D01*
X16126666Y18433334D02*
X16126666Y18800000D01*
X16160000Y18866667D01*
X16226666Y18900000D01*
X16360000Y18900000D01*
X16426666Y18866667D01*
X16126666Y18466667D02*
X16193333Y18433334D01*
X16360000Y18433334D01*
X16426666Y18466667D01*
X16460000Y18533334D01*
X16460000Y18600000D01*
X16426666Y18666667D01*
X16360000Y18700000D01*
X16193333Y18700000D01*
X16126666Y18733334D01*
X15893333Y18900000D02*
X15626666Y18900000D01*
X15793333Y19133334D02*
X15793333Y18533334D01*
X15760000Y18466667D01*
X15693333Y18433334D01*
X15626666Y18433334D01*
X15393333Y18433334D02*
X15393333Y18900000D01*
X15393333Y19133334D02*
X15426666Y19100000D01*
X15393333Y19066667D01*
X15360000Y19100000D01*
X15393333Y19133334D01*
X15393333Y19066667D01*
X15060000Y18433334D02*
X15060000Y19133334D01*
X15060000Y18866667D02*
X14993333Y18900000D01*
X14860000Y18900000D01*
X14793333Y18866667D01*
X14760000Y18833334D01*
X14726666Y18766667D01*
X14726666Y18566667D01*
X14760000Y18500000D01*
X14793333Y18466667D01*
X14860000Y18433334D01*
X14993333Y18433334D01*
X15060000Y18466667D01*
X14326666Y18433334D02*
X14393333Y18466667D01*
X14426666Y18533334D01*
X14426666Y19133334D01*
X13793333Y18466667D02*
X13860000Y18433334D01*
X13993333Y18433334D01*
X14060000Y18466667D01*
X14093333Y18533334D01*
X14093333Y18800000D01*
X14060000Y18866667D01*
X13993333Y18900000D01*
X13860000Y18900000D01*
X13793333Y18866667D01*
X13760000Y18800000D01*
X13760000Y18733334D01*
X14093333Y18666667D01*
X21069776Y12466557D02*
X21555490Y12466557D01*
X21612633Y12437986D01*
X21641205Y12409414D01*
X21669776Y12352272D01*
X21669776Y12237986D01*
X21641205Y12180843D01*
X21612633Y12152272D01*
X21555490Y12123700D01*
X21069776Y12123700D01*
X21669776Y11837986D02*
X21069776Y11837986D01*
X21669776Y11495129D01*
X21069776Y11495129D01*
X21669776Y11209414D02*
X21069776Y11209414D01*
X21069776Y11066557D01*
X21098348Y10980843D01*
X21155490Y10923700D01*
X21212633Y10895129D01*
X21326919Y10866557D01*
X21412633Y10866557D01*
X21526919Y10895129D01*
X21584062Y10923700D01*
X21641205Y10980843D01*
X21669776Y11066557D01*
X21669776Y11209414D01*
X21355490Y10609414D02*
X21355490Y10409414D01*
X21669776Y10323700D02*
X21669776Y10609414D01*
X21069776Y10609414D01*
X21069776Y10323700D01*
X21669776Y9723700D02*
X21384062Y9923700D01*
X21669776Y10066557D02*
X21069776Y10066557D01*
X21069776Y9837986D01*
X21098348Y9780843D01*
X21126919Y9752272D01*
X21184062Y9723700D01*
X21269776Y9723700D01*
X21326919Y9752272D01*
X21355490Y9780843D01*
X21384062Y9837986D01*
X21384062Y10066557D01*
X21641205Y9495129D02*
X21669776Y9409414D01*
X21669776Y9266557D01*
X21641205Y9209414D01*
X21612633Y9180843D01*
X21555490Y9152272D01*
X21498348Y9152272D01*
X21441205Y9180843D01*
X21412633Y9209414D01*
X21384062Y9266557D01*
X21355490Y9380843D01*
X21326919Y9437986D01*
X21298348Y9466557D01*
X21241205Y9495129D01*
X21184062Y9495129D01*
X21126919Y9466557D01*
X21098348Y9437986D01*
X21069776Y9380843D01*
X21069776Y9237986D01*
X21098348Y9152272D01*
X21669776Y8895129D02*
X21069776Y8895129D01*
X21669776Y8609414D02*
X21069776Y8609414D01*
X21069776Y8466557D01*
X21098348Y8380843D01*
X21155490Y8323700D01*
X21212633Y8295129D01*
X21326919Y8266557D01*
X21412633Y8266557D01*
X21526919Y8295129D01*
X21584062Y8323700D01*
X21641205Y8380843D01*
X21669776Y8466557D01*
X21669776Y8609414D01*
X21355490Y8009414D02*
X21355490Y7809414D01*
X21669776Y7723700D02*
X21669776Y8009414D01*
X21069776Y8009414D01*
X21069776Y7723700D01*
X4685000Y17200000D02*
X4656428Y17228572D01*
X4570714Y17285715D01*
X4513571Y17314286D01*
X4427857Y17342858D01*
X4285000Y17371429D01*
X4170714Y17371429D01*
X4027857Y17342858D01*
X3942142Y17314286D01*
X3885000Y17285715D01*
X3799285Y17228572D01*
X3770714Y17200000D01*
X4427857Y16714286D02*
X4456428Y16771429D01*
X4456428Y16885715D01*
X4427857Y16942858D01*
X4399285Y16971429D01*
X4342142Y17000000D01*
X4170714Y17000000D01*
X4113571Y16971429D01*
X4085000Y16942858D01*
X4056428Y16885715D01*
X4056428Y16771429D01*
X4085000Y16714286D01*
X4685000Y16514286D02*
X4656428Y16485715D01*
X4570714Y16428572D01*
X4513571Y16400000D01*
X4427857Y16371429D01*
X4285000Y16342858D01*
X4170714Y16342858D01*
X4027857Y16371429D01*
X3942142Y16400000D01*
X3885000Y16428572D01*
X3799285Y16485715D01*
X3770714Y16514286D01*
X3913571Y16085715D02*
X3885000Y16057143D01*
X3856428Y16000000D01*
X3856428Y15857143D01*
X3885000Y15800000D01*
X3913571Y15771429D01*
X3970714Y15742858D01*
X4027857Y15742858D01*
X4113571Y15771429D01*
X4456428Y16114286D01*
X4456428Y15742858D01*
X3856428Y15371429D02*
X3856428Y15314286D01*
X3885000Y15257143D01*
X3913571Y15228572D01*
X3970714Y15200000D01*
X4085000Y15171429D01*
X4227857Y15171429D01*
X4342142Y15200000D01*
X4399285Y15228572D01*
X4427857Y15257143D01*
X4456428Y15314286D01*
X4456428Y15371429D01*
X4427857Y15428572D01*
X4399285Y15457143D01*
X4342142Y15485715D01*
X4227857Y15514286D01*
X4085000Y15514286D01*
X3970714Y15485715D01*
X3913571Y15457143D01*
X3885000Y15428572D01*
X3856428Y15371429D01*
X3913571Y14942858D02*
X3885000Y14914286D01*
X3856428Y14857143D01*
X3856428Y14714286D01*
X3885000Y14657143D01*
X3913571Y14628572D01*
X3970714Y14600000D01*
X4027857Y14600000D01*
X4113571Y14628572D01*
X4456428Y14971429D01*
X4456428Y14600000D01*
X4456428Y14028572D02*
X4456428Y14371429D01*
X4456428Y14200000D02*
X3856428Y14200000D01*
X3942142Y14257143D01*
X3999285Y14314286D01*
X4027857Y14371429D01*
X4456428Y13314286D02*
X3856428Y13314286D01*
X3856428Y13085715D01*
X3885000Y13028572D01*
X3913571Y13000000D01*
X3970714Y12971429D01*
X4056428Y12971429D01*
X4113571Y13000000D01*
X4142142Y13028572D01*
X4170714Y13085715D01*
X4170714Y13314286D01*
X4456428Y12714286D02*
X3856428Y12714286D01*
X4456428Y12457143D02*
X4142142Y12457143D01*
X4085000Y12485715D01*
X4056428Y12542858D01*
X4056428Y12628572D01*
X4085000Y12685715D01*
X4113571Y12714286D01*
X4456428Y12171429D02*
X4056428Y12171429D01*
X3856428Y12171429D02*
X3885000Y12200000D01*
X3913571Y12171429D01*
X3885000Y12142858D01*
X3856428Y12171429D01*
X3913571Y12171429D01*
X4456428Y11800000D02*
X4427857Y11857143D01*
X4370714Y11885715D01*
X3856428Y11885715D01*
X4456428Y11485715D02*
X4427857Y11542858D01*
X4370714Y11571429D01*
X3856428Y11571429D01*
X4456428Y10457143D02*
X4170714Y10657143D01*
X4456428Y10800000D02*
X3856428Y10800000D01*
X3856428Y10571429D01*
X3885000Y10514286D01*
X3913571Y10485715D01*
X3970714Y10457143D01*
X4056428Y10457143D01*
X4113571Y10485715D01*
X4142142Y10514286D01*
X4170714Y10571429D01*
X4170714Y10800000D01*
X4456428Y10114286D02*
X4427857Y10171429D01*
X4399285Y10200000D01*
X4342142Y10228572D01*
X4170714Y10228572D01*
X4113571Y10200000D01*
X4085000Y10171429D01*
X4056428Y10114286D01*
X4056428Y10028572D01*
X4085000Y9971429D01*
X4113571Y9942858D01*
X4170714Y9914286D01*
X4342142Y9914286D01*
X4399285Y9942858D01*
X4427857Y9971429D01*
X4456428Y10028572D01*
X4456428Y10114286D01*
X4056428Y9400000D02*
X4542142Y9400000D01*
X4599285Y9428572D01*
X4627857Y9457143D01*
X4656428Y9514286D01*
X4656428Y9600000D01*
X4627857Y9657143D01*
X4427857Y9400000D02*
X4456428Y9457143D01*
X4456428Y9571429D01*
X4427857Y9628572D01*
X4399285Y9657143D01*
X4342142Y9685715D01*
X4170714Y9685715D01*
X4113571Y9657143D01*
X4085000Y9628572D01*
X4056428Y9571429D01*
X4056428Y9457143D01*
X4085000Y9400000D01*
X4427857Y8885715D02*
X4456428Y8942858D01*
X4456428Y9057143D01*
X4427857Y9114286D01*
X4370714Y9142858D01*
X4142142Y9142858D01*
X4085000Y9114286D01*
X4056428Y9057143D01*
X4056428Y8942858D01*
X4085000Y8885715D01*
X4142142Y8857143D01*
X4199285Y8857143D01*
X4256428Y9142858D01*
X4456428Y8600000D02*
X4056428Y8600000D01*
X4170714Y8600000D02*
X4113571Y8571429D01*
X4085000Y8542858D01*
X4056428Y8485715D01*
X4056428Y8428572D01*
X4427857Y8257143D02*
X4456428Y8200000D01*
X4456428Y8085715D01*
X4427857Y8028572D01*
X4370714Y8000000D01*
X4342142Y8000000D01*
X4285000Y8028572D01*
X4256428Y8085715D01*
X4256428Y8171429D01*
X4227857Y8228572D01*
X4170714Y8257143D01*
X4142142Y8257143D01*
X4085000Y8228572D01*
X4056428Y8171429D01*
X4056428Y8085715D01*
X4085000Y8028572D01*
X14721666Y17535000D02*
X14721666Y17201667D01*
X14921666Y17601667D02*
X14221666Y17368334D01*
X14921666Y17135000D01*
X14921666Y16901667D02*
X14221666Y16901667D01*
X14721666Y16668334D01*
X14221666Y16435000D01*
X14921666Y16435000D01*
X14888333Y16135000D02*
X14921666Y16035000D01*
X14921666Y15868334D01*
X14888333Y15801667D01*
X14855000Y15768334D01*
X14788333Y15735000D01*
X14721666Y15735000D01*
X14655000Y15768334D01*
X14621666Y15801667D01*
X14588333Y15868334D01*
X14555000Y16001667D01*
X14521666Y16068334D01*
X14488333Y16101667D01*
X14421666Y16135000D01*
X14355000Y16135000D01*
X14288333Y16101667D01*
X14255000Y16068334D01*
X14221666Y16001667D01*
X14221666Y15835000D01*
X14255000Y15735000D01*
X14921666Y15068334D02*
X14921666Y15468334D01*
X14921666Y15268334D02*
X14221666Y15268334D01*
X14321666Y15335000D01*
X14388333Y15401667D01*
X14421666Y15468334D01*
X14921666Y14401667D02*
X14921666Y14801667D01*
X14921666Y14601667D02*
X14221666Y14601667D01*
X14321666Y14668334D01*
X14388333Y14735000D01*
X14421666Y14801667D01*
X14921666Y13735000D02*
X14921666Y14135000D01*
X14921666Y13935000D02*
X14221666Y13935000D01*
X14321666Y14001667D01*
X14388333Y14068334D01*
X14421666Y14135000D01*
X14221666Y13501667D02*
X14221666Y13035000D01*
X14921666Y13335000D01*
X14855000Y12368334D02*
X14888333Y12401667D01*
X14921666Y12501667D01*
X14921666Y12568334D01*
X14888333Y12668334D01*
X14821666Y12735000D01*
X14755000Y12768334D01*
X14621666Y12801667D01*
X14521666Y12801667D01*
X14388333Y12768334D01*
X14321666Y12735000D01*
X14255000Y12668334D01*
X14221666Y12568334D01*
X14221666Y12501667D01*
X14255000Y12401667D01*
X14288333Y12368334D01*
X14921666Y12068334D02*
X14221666Y12068334D01*
X14221666Y11901667D01*
X14255000Y11801667D01*
X14321666Y11735000D01*
X14388333Y11701667D01*
X14521666Y11668334D01*
X14621666Y11668334D01*
X14755000Y11701667D01*
X14821666Y11735000D01*
X14888333Y11801667D01*
X14921666Y11901667D01*
X14921666Y12068334D01*
X14655000Y11368334D02*
X14655000Y10835000D01*
X14221666Y10168334D02*
X14221666Y10501667D01*
X14555000Y10535000D01*
X14521666Y10501667D01*
X14488333Y10435000D01*
X14488333Y10268334D01*
X14521666Y10201667D01*
X14555000Y10168334D01*
X14621666Y10135000D01*
X14788333Y10135000D01*
X14855000Y10168334D01*
X14888333Y10201667D01*
X14921666Y10268334D01*
X14921666Y10435000D01*
X14888333Y10501667D01*
X14855000Y10535000D01*
X14855000Y9835000D02*
X14888333Y9801667D01*
X14921666Y9835000D01*
X14888333Y9868334D01*
X14855000Y9835000D01*
X14921666Y9835000D01*
X14221666Y9368334D02*
X14221666Y9301667D01*
X14255000Y9235000D01*
X14288333Y9201667D01*
X14355000Y9168334D01*
X14488333Y9135000D01*
X14655000Y9135000D01*
X14788333Y9168334D01*
X14855000Y9201667D01*
X14888333Y9235000D01*
X14921666Y9301667D01*
X14921666Y9368334D01*
X14888333Y9435000D01*
X14855000Y9468334D01*
X14788333Y9501667D01*
X14655000Y9535000D01*
X14488333Y9535000D01*
X14355000Y9501667D01*
X14288333Y9468334D01*
X14255000Y9435000D01*
X14221666Y9368334D01*
X12346272Y14906986D02*
X11646272Y14906986D01*
X11646272Y14740319D01*
X11679606Y14640319D01*
X11746272Y14573653D01*
X11812939Y14540319D01*
X11946272Y14506986D01*
X12046272Y14506986D01*
X12179606Y14540319D01*
X12246272Y14573653D01*
X12312939Y14640319D01*
X12346272Y14740319D01*
X12346272Y14906986D01*
X11879606Y13906986D02*
X12346272Y13906986D01*
X11879606Y14206986D02*
X12246272Y14206986D01*
X12312939Y14173653D01*
X12346272Y14106986D01*
X12346272Y14006986D01*
X12312939Y13940319D01*
X12279606Y13906986D01*
X12346272Y13273653D02*
X11979606Y13273653D01*
X11912939Y13306986D01*
X11879606Y13373653D01*
X11879606Y13506986D01*
X11912939Y13573653D01*
X12312939Y13273653D02*
X12346272Y13340319D01*
X12346272Y13506986D01*
X12312939Y13573653D01*
X12246272Y13606986D01*
X12179606Y13606986D01*
X12112939Y13573653D01*
X12079606Y13506986D01*
X12079606Y13340319D01*
X12046272Y13273653D01*
X12346272Y12840319D02*
X12312939Y12906986D01*
X12246272Y12940319D01*
X11646272Y12940319D01*
X11646272Y12140319D02*
X12346272Y11906986D01*
X11646272Y11673653D01*
X12346272Y11040319D02*
X12012939Y11273653D01*
X12346272Y11440319D02*
X11646272Y11440319D01*
X11646272Y11173653D01*
X11679606Y11106986D01*
X11712939Y11073653D01*
X11779606Y11040319D01*
X11879606Y11040319D01*
X11946272Y11073653D01*
X11979606Y11106986D01*
X12012939Y11173653D01*
X12012939Y11440319D01*
X13512939Y15456986D02*
X13546272Y15523653D01*
X13546272Y15656986D01*
X13512939Y15723653D01*
X13479606Y15756986D01*
X13412939Y15790319D01*
X13212939Y15790319D01*
X13146272Y15756986D01*
X13112939Y15723653D01*
X13079606Y15656986D01*
X13079606Y15523653D01*
X13112939Y15456986D01*
X13546272Y15056986D02*
X13512939Y15123653D01*
X13479606Y15156986D01*
X13412939Y15190319D01*
X13212939Y15190319D01*
X13146272Y15156986D01*
X13112939Y15123653D01*
X13079606Y15056986D01*
X13079606Y14956986D01*
X13112939Y14890319D01*
X13146272Y14856986D01*
X13212939Y14823653D01*
X13412939Y14823653D01*
X13479606Y14856986D01*
X13512939Y14890319D01*
X13546272Y14956986D01*
X13546272Y15056986D01*
X13079606Y14523653D02*
X13546272Y14523653D01*
X13146272Y14523653D02*
X13112939Y14490319D01*
X13079606Y14423653D01*
X13079606Y14323653D01*
X13112939Y14256986D01*
X13179606Y14223653D01*
X13546272Y14223653D01*
X13546272Y13590319D02*
X12846272Y13590319D01*
X13512939Y13590319D02*
X13546272Y13656986D01*
X13546272Y13790319D01*
X13512939Y13856986D01*
X13479606Y13890319D01*
X13412939Y13923653D01*
X13212939Y13923653D01*
X13146272Y13890319D01*
X13112939Y13856986D01*
X13079606Y13790319D01*
X13079606Y13656986D01*
X13112939Y13590319D01*
X13546272Y13256986D02*
X13079606Y13256986D01*
X12846272Y13256986D02*
X12879606Y13290319D01*
X12912939Y13256986D01*
X12879606Y13223653D01*
X12846272Y13256986D01*
X12912939Y13256986D01*
X13079606Y13023653D02*
X13079606Y12756986D01*
X12846272Y12923653D02*
X13446272Y12923653D01*
X13512939Y12890319D01*
X13546272Y12823653D01*
X13546272Y12756986D01*
X13546272Y12523653D02*
X13079606Y12523653D01*
X12846272Y12523653D02*
X12879606Y12556986D01*
X12912939Y12523653D01*
X12879606Y12490319D01*
X12846272Y12523653D01*
X12912939Y12523653D01*
X13546272Y12090319D02*
X13512939Y12156986D01*
X13479606Y12190319D01*
X13412939Y12223653D01*
X13212939Y12223653D01*
X13146272Y12190319D01*
X13112939Y12156986D01*
X13079606Y12090319D01*
X13079606Y11990319D01*
X13112939Y11923653D01*
X13146272Y11890319D01*
X13212939Y11856986D01*
X13412939Y11856986D01*
X13479606Y11890319D01*
X13512939Y11923653D01*
X13546272Y11990319D01*
X13546272Y12090319D01*
X13079606Y11556986D02*
X13546272Y11556986D01*
X13146272Y11556986D02*
X13112939Y11523653D01*
X13079606Y11456986D01*
X13079606Y11356986D01*
X13112939Y11290319D01*
X13179606Y11256986D01*
X13546272Y11256986D01*
X13512939Y10656986D02*
X13546272Y10723653D01*
X13546272Y10856986D01*
X13512939Y10923653D01*
X13446272Y10956986D01*
X13179606Y10956986D01*
X13112939Y10923653D01*
X13079606Y10856986D01*
X13079606Y10723653D01*
X13112939Y10656986D01*
X13179606Y10623653D01*
X13246272Y10623653D01*
X13312939Y10956986D01*
X13546272Y10323653D02*
X13079606Y10323653D01*
X13212939Y10323653D02*
X13146272Y10290319D01*
X13112939Y10256986D01*
X13079606Y10190319D01*
X13079606Y10123653D01*
X8050000Y6733334D02*
X8183333Y6733334D01*
X8250000Y6700000D01*
X8283333Y6666667D01*
X8350000Y6566667D01*
X8383333Y6433334D01*
X8383333Y6166667D01*
X8350000Y6100000D01*
X8316666Y6066667D01*
X8250000Y6033334D01*
X8116666Y6033334D01*
X8050000Y6066667D01*
X8016666Y6100000D01*
X7983333Y6166667D01*
X7983333Y6333334D01*
X8016666Y6400000D01*
X8050000Y6433334D01*
X8116666Y6466667D01*
X8250000Y6466667D01*
X8316666Y6433334D01*
X8350000Y6400000D01*
X8383333Y6333334D01*
X7683333Y6300000D02*
X7150000Y6300000D01*
X6450000Y6033334D02*
X6850000Y6033334D01*
X6650000Y6033334D02*
X6650000Y6733334D01*
X6716666Y6633334D01*
X6783333Y6566667D01*
X6850000Y6533334D01*
X5816666Y6733334D02*
X6150000Y6733334D01*
X6183333Y6400000D01*
X6150000Y6433334D01*
X6083333Y6466667D01*
X5916666Y6466667D01*
X5850000Y6433334D01*
X5816666Y6400000D01*
X5783333Y6333334D01*
X5783333Y6166667D01*
X5816666Y6100000D01*
X5850000Y6066667D01*
X5916666Y6033334D01*
X6083333Y6033334D01*
X6150000Y6066667D01*
X6183333Y6100000D01*
X5583333Y6733334D02*
X5350000Y6033334D01*
X5116666Y6733334D01*
X4883333Y6300000D02*
X4350000Y6300000D01*
X4616666Y6033334D02*
X4616666Y6566667D01*
X7433333Y8573334D02*
X7433333Y9273334D01*
X7100000Y9040000D02*
X7100000Y8573334D01*
X7100000Y8973334D02*
X7066666Y9006667D01*
X7000000Y9040000D01*
X6900000Y9040000D01*
X6833333Y9006667D01*
X6800000Y8940000D01*
X6800000Y8573334D01*
X6500000Y9206667D02*
X6466666Y9240000D01*
X6400000Y9273334D01*
X6233333Y9273334D01*
X6166666Y9240000D01*
X6133333Y9206667D01*
X6100000Y9140000D01*
X6100000Y9073334D01*
X6133333Y8973334D01*
X6533333Y8573334D01*
X6100000Y8573334D01*
X5800000Y8840000D02*
X5266666Y8840000D01*
X7433333Y11113334D02*
X7433333Y11813334D01*
X7100000Y11580000D02*
X7100000Y11113334D01*
X7100000Y11513334D02*
X7066666Y11546667D01*
X7000000Y11580000D01*
X6900000Y11580000D01*
X6833333Y11546667D01*
X6800000Y11480000D01*
X6800000Y11113334D01*
X6500000Y11746667D02*
X6466666Y11780000D01*
X6400000Y11813334D01*
X6233333Y11813334D01*
X6166666Y11780000D01*
X6133333Y11746667D01*
X6100000Y11680000D01*
X6100000Y11613334D01*
X6133333Y11513334D01*
X6533333Y11113334D01*
X6100000Y11113334D01*
X5800000Y11380000D02*
X5266666Y11380000D01*
X5533333Y11113334D02*
X5533333Y11646667D01*
X7433333Y13653334D02*
X7433333Y14353334D01*
X7100000Y14120000D02*
X7100000Y13653334D01*
X7100000Y14053334D02*
X7066666Y14086667D01*
X7000000Y14120000D01*
X6900000Y14120000D01*
X6833333Y14086667D01*
X6800000Y14020000D01*
X6800000Y13653334D01*
X6100000Y13653334D02*
X6500000Y13653334D01*
X6300000Y13653334D02*
X6300000Y14353334D01*
X6366666Y14253334D01*
X6433333Y14186667D01*
X6500000Y14153334D01*
X5800000Y13920000D02*
X5266666Y13920000D01*
X7433333Y16193334D02*
X7433333Y16893334D01*
X7100000Y16660000D02*
X7100000Y16193334D01*
X7100000Y16593334D02*
X7066666Y16626667D01*
X7000000Y16660000D01*
X6900000Y16660000D01*
X6833333Y16626667D01*
X6800000Y16560000D01*
X6800000Y16193334D01*
X6100000Y16193334D02*
X6500000Y16193334D01*
X6300000Y16193334D02*
X6300000Y16893334D01*
X6366666Y16793334D01*
X6433333Y16726667D01*
X6500000Y16693334D01*
X5800000Y16460000D02*
X5266666Y16460000D01*
X5533333Y16193334D02*
X5533333Y16726667D01*
X19616666Y9273334D02*
X19950000Y9273334D01*
X19983333Y8940000D01*
X19950000Y8973334D01*
X19883333Y9006667D01*
X19716666Y9006667D01*
X19650000Y8973334D01*
X19616666Y8940000D01*
X19583333Y8873334D01*
X19583333Y8706667D01*
X19616666Y8640000D01*
X19650000Y8606667D01*
X19716666Y8573334D01*
X19883333Y8573334D01*
X19950000Y8606667D01*
X19983333Y8640000D01*
X19383333Y9273334D02*
X19150000Y8573334D01*
X18916666Y9273334D01*
X18683333Y8840000D02*
X18150000Y8840000D01*
X18416666Y8573334D02*
X18416666Y9106667D01*
X19583333Y11780000D02*
X19650000Y11813334D01*
X19750000Y11813334D01*
X19850000Y11780000D01*
X19916666Y11713334D01*
X19950000Y11646667D01*
X19983333Y11513334D01*
X19983333Y11413334D01*
X19950000Y11280000D01*
X19916666Y11213334D01*
X19850000Y11146667D01*
X19750000Y11113334D01*
X19683333Y11113334D01*
X19583333Y11146667D01*
X19550000Y11180000D01*
X19550000Y11413334D01*
X19683333Y11413334D01*
X19250000Y11113334D02*
X19250000Y11813334D01*
X18850000Y11113334D01*
X18850000Y11813334D01*
X18516666Y11113334D02*
X18516666Y11813334D01*
X18350000Y11813334D01*
X18250000Y11780000D01*
X18183333Y11713334D01*
X18150000Y11646667D01*
X18116666Y11513334D01*
X18116666Y11413334D01*
X18150000Y11280000D01*
X18183333Y11213334D01*
X18250000Y11146667D01*
X18350000Y11113334D01*
X18516666Y11113334D01*
X20801666Y13720000D02*
X20835000Y13686667D01*
X20935000Y13653334D01*
X21001666Y13653334D01*
X21101666Y13686667D01*
X21168333Y13753334D01*
X21201666Y13820000D01*
X21235000Y13953334D01*
X21235000Y14053334D01*
X21201666Y14186667D01*
X21168333Y14253334D01*
X21101666Y14320000D01*
X21001666Y14353334D01*
X20935000Y14353334D01*
X20835000Y14320000D01*
X20801666Y14286667D01*
X20368333Y14353334D02*
X20235000Y14353334D01*
X20168333Y14320000D01*
X20101666Y14253334D01*
X20068333Y14120000D01*
X20068333Y13886667D01*
X20101666Y13753334D01*
X20168333Y13686667D01*
X20235000Y13653334D01*
X20368333Y13653334D01*
X20435000Y13686667D01*
X20501666Y13753334D01*
X20535000Y13886667D01*
X20535000Y14120000D01*
X20501666Y14253334D01*
X20435000Y14320000D01*
X20368333Y14353334D01*
X19768333Y14353334D02*
X19768333Y13786667D01*
X19735000Y13720000D01*
X19701666Y13686667D01*
X19635000Y13653334D01*
X19501666Y13653334D01*
X19435000Y13686667D01*
X19401666Y13720000D01*
X19368333Y13786667D01*
X19368333Y14353334D01*
X19135000Y14353334D02*
X18735000Y14353334D01*
X18935000Y13653334D02*
X18935000Y14353334D01*
X18535000Y14286667D02*
X18501666Y14320000D01*
X18435000Y14353334D01*
X18268333Y14353334D01*
X18201666Y14320000D01*
X18168333Y14286667D01*
X18135000Y14220000D01*
X18135000Y14153334D01*
X18168333Y14053334D01*
X18568333Y13653334D01*
X18135000Y13653334D01*
X20801666Y16260000D02*
X20835000Y16226667D01*
X20935000Y16193334D01*
X21001666Y16193334D01*
X21101666Y16226667D01*
X21168333Y16293334D01*
X21201666Y16360000D01*
X21235000Y16493334D01*
X21235000Y16593334D01*
X21201666Y16726667D01*
X21168333Y16793334D01*
X21101666Y16860000D01*
X21001666Y16893334D01*
X20935000Y16893334D01*
X20835000Y16860000D01*
X20801666Y16826667D01*
X20368333Y16893334D02*
X20235000Y16893334D01*
X20168333Y16860000D01*
X20101666Y16793334D01*
X20068333Y16660000D01*
X20068333Y16426667D01*
X20101666Y16293334D01*
X20168333Y16226667D01*
X20235000Y16193334D01*
X20368333Y16193334D01*
X20435000Y16226667D01*
X20501666Y16293334D01*
X20535000Y16426667D01*
X20535000Y16660000D01*
X20501666Y16793334D01*
X20435000Y16860000D01*
X20368333Y16893334D01*
X19768333Y16893334D02*
X19768333Y16326667D01*
X19735000Y16260000D01*
X19701666Y16226667D01*
X19635000Y16193334D01*
X19501666Y16193334D01*
X19435000Y16226667D01*
X19401666Y16260000D01*
X19368333Y16326667D01*
X19368333Y16893334D01*
X19135000Y16893334D02*
X18735000Y16893334D01*
X18935000Y16193334D02*
X18935000Y16893334D01*
X18135000Y16193334D02*
X18535000Y16193334D01*
X18335000Y16193334D02*
X18335000Y16893334D01*
X18401666Y16793334D01*
X18468333Y16726667D01*
X18535000Y16693334D01*
D11*
G04 #@! TO.C,J2*
X7620000Y5715000D02*
X7620000Y4445000D01*
X8890000Y5715000D02*
X7620000Y5715000D01*
X16890000Y3402071D02*
X16890000Y3005000D01*
X16130000Y3402071D02*
X16130000Y3005000D01*
X16890000Y-5655000D02*
X16890000Y345000D01*
X16130000Y-5655000D02*
X16890000Y-5655000D01*
X16130000Y345000D02*
X16130000Y-5655000D01*
X15240000Y3005000D02*
X15240000Y345000D01*
X14350000Y3402071D02*
X14350000Y3005000D01*
X13590000Y3402071D02*
X13590000Y3005000D01*
X14350000Y-5655000D02*
X14350000Y345000D01*
X13590000Y-5655000D02*
X14350000Y-5655000D01*
X13590000Y345000D02*
X13590000Y-5655000D01*
X12700000Y3005000D02*
X12700000Y345000D01*
X11810000Y3402071D02*
X11810000Y3005000D01*
X11050000Y3402071D02*
X11050000Y3005000D01*
X11810000Y-5655000D02*
X11810000Y345000D01*
X11050000Y-5655000D02*
X11810000Y-5655000D01*
X11050000Y345000D02*
X11050000Y-5655000D01*
X10160000Y3005000D02*
X10160000Y345000D01*
X9270000Y3335000D02*
X9270000Y3005000D01*
X8510000Y3335000D02*
X8510000Y3005000D01*
X9170000Y345000D02*
X9170000Y-5655000D01*
X9050000Y345000D02*
X9050000Y-5655000D01*
X8930000Y345000D02*
X8930000Y-5655000D01*
X8810000Y345000D02*
X8810000Y-5655000D01*
X8690000Y345000D02*
X8690000Y-5655000D01*
X8570000Y345000D02*
X8570000Y-5655000D01*
X9270000Y-5655000D02*
X9270000Y345000D01*
X8510000Y-5655000D02*
X9270000Y-5655000D01*
X8510000Y345000D02*
X8510000Y-5655000D01*
X7560000Y345000D02*
X7560000Y3005000D01*
X17840000Y345000D02*
X7560000Y345000D01*
X17840000Y3005000D02*
X17840000Y345000D01*
X7560000Y3005000D02*
X17840000Y3005000D01*
G04 #@! TO.C,U2*
X14500000Y4800000D02*
X10900000Y4800000D01*
X10375816Y5527205D02*
G75*
G03*
X10900000Y4800000I2324184J1122795D01*
G01*
X10343600Y7748807D02*
G75*
G02*
X12700000Y9250000I2356400J-1098807D01*
G01*
X15056400Y7748807D02*
G75*
G03*
X12700000Y9250000I-2356400J-1098807D01*
G01*
X15024184Y5527205D02*
G75*
G02*
X14500000Y4800000I-2324184J1122795D01*
G01*
G04 #@! TO.C,J2*
D10*
X7218333Y4193334D02*
X7218333Y3693334D01*
X7251666Y3593334D01*
X7318333Y3526667D01*
X7418333Y3493334D01*
X7485000Y3493334D01*
X6918333Y4126667D02*
X6885000Y4160000D01*
X6818333Y4193334D01*
X6651666Y4193334D01*
X6585000Y4160000D01*
X6551666Y4126667D01*
X6518333Y4060000D01*
X6518333Y3993334D01*
X6551666Y3893334D01*
X6951666Y3493334D01*
X6518333Y3493334D01*
G04 #@! TO.C,U2*
X17660155Y6643529D02*
X17660155Y6076862D01*
X17626822Y6010195D01*
X17593488Y5976862D01*
X17526822Y5943529D01*
X17393488Y5943529D01*
X17326822Y5976862D01*
X17293488Y6010195D01*
X17260155Y6076862D01*
X17260155Y6643529D01*
X16960155Y6576862D02*
X16926822Y6610195D01*
X16860155Y6643529D01*
X16693488Y6643529D01*
X16626822Y6610195D01*
X16593488Y6576862D01*
X16560155Y6510195D01*
X16560155Y6443529D01*
X16593488Y6343529D01*
X16993488Y5943529D01*
X16560155Y5943529D01*
G04 #@! TO.C,U1*
X11429166Y17268334D02*
X10729166Y17268334D01*
X11229166Y17035000D01*
X10729166Y16801667D01*
X11429166Y16801667D01*
X11229166Y16501667D02*
X11229166Y16168334D01*
X11429166Y16568334D02*
X10729166Y16335000D01*
X11429166Y16101667D01*
X10729166Y15935000D02*
X11429166Y15468334D01*
X10729166Y15468334D02*
X11429166Y15935000D01*
X11429166Y15168334D02*
X11429166Y15035000D01*
X11395833Y14968334D01*
X11362500Y14935000D01*
X11262500Y14868334D01*
X11129166Y14835000D01*
X10862500Y14835000D01*
X10795833Y14868334D01*
X10762500Y14901667D01*
X10729166Y14968334D01*
X10729166Y15101667D01*
X10762500Y15168334D01*
X10795833Y15201667D01*
X10862500Y15235000D01*
X11029166Y15235000D01*
X11095833Y15201667D01*
X11129166Y15168334D01*
X11162500Y15101667D01*
X11162500Y14968334D01*
X11129166Y14901667D01*
X11095833Y14868334D01*
X11029166Y14835000D01*
X11429166Y14501667D02*
X11429166Y14368334D01*
X11395833Y14301667D01*
X11362500Y14268334D01*
X11262500Y14201667D01*
X11129166Y14168334D01*
X10862500Y14168334D01*
X10795833Y14201667D01*
X10762500Y14235000D01*
X10729166Y14301667D01*
X10729166Y14435000D01*
X10762500Y14501667D01*
X10795833Y14535000D01*
X10862500Y14568334D01*
X11029166Y14568334D01*
X11095833Y14535000D01*
X11129166Y14501667D01*
X11162500Y14435000D01*
X11162500Y14301667D01*
X11129166Y14235000D01*
X11095833Y14201667D01*
X11029166Y14168334D01*
X10795833Y13901667D02*
X10762500Y13868334D01*
X10729166Y13801667D01*
X10729166Y13635000D01*
X10762500Y13568334D01*
X10795833Y13535000D01*
X10862500Y13501667D01*
X10929166Y13501667D01*
X11029166Y13535000D01*
X11429166Y13935000D01*
X11429166Y13501667D01*
X10729166Y12901667D02*
X10729166Y13035000D01*
X10762500Y13101667D01*
X10795833Y13135000D01*
X10895833Y13201667D01*
X11029166Y13235000D01*
X11295833Y13235000D01*
X11362500Y13201667D01*
X11395833Y13168334D01*
X11429166Y13101667D01*
X11429166Y12968334D01*
X11395833Y12901667D01*
X11362500Y12868334D01*
X11295833Y12835000D01*
X11129166Y12835000D01*
X11062500Y12868334D01*
X11029166Y12901667D01*
X10995833Y12968334D01*
X10995833Y13101667D01*
X11029166Y13168334D01*
X11062500Y13201667D01*
X11129166Y13235000D01*
X10729166Y12535000D02*
X11295833Y12535000D01*
X11362500Y12501667D01*
X11395833Y12468334D01*
X11429166Y12401667D01*
X11429166Y12268334D01*
X11395833Y12201667D01*
X11362500Y12168334D01*
X11295833Y12135000D01*
X10729166Y12135000D01*
X11229166Y11835000D02*
X11229166Y11501667D01*
X11429166Y11901667D02*
X10729166Y11668334D01*
X11429166Y11435000D01*
X11062500Y11201667D02*
X11062500Y10968334D01*
X11429166Y10868334D02*
X11429166Y11201667D01*
X10729166Y11201667D01*
X10729166Y10868334D01*
X11062500Y10568334D02*
X11062500Y10335000D01*
X11429166Y10235000D02*
X11429166Y10568334D01*
X10729166Y10568334D01*
X10729166Y10235000D01*
X11162500Y9935000D02*
X11162500Y9401667D01*
X11429166Y9668334D02*
X10895833Y9668334D01*
G04 #@! TD*
M02*
