G04 #@! TF.GenerationSoftware,KiCad,Pcbnew,(5.1.9-0-10_14)*
G04 #@! TF.CreationDate,2021-04-22T16:17:37+10:00*
G04 #@! TF.ProjectId,VR-Conditioner-MAX9926+reg,56522d43-6f6e-4646-9974-696f6e65722d,3.6*
G04 #@! TF.SameCoordinates,PX68c4118PY713e7a8*
G04 #@! TF.FileFunction,Paste,Top*
G04 #@! TF.FilePolarity,Positive*
%FSLAX46Y46*%
G04 Gerber Fmt 4.6, Leading zero omitted, Abs format (unit mm)*
G04 Created by KiCad (PCBNEW (5.1.9-0-10_14)) date 2021-04-22 16:17:37*
%MOMM*%
%LPD*%
G01*
G04 APERTURE LIST*
%ADD10R,0.354800X1.454899*%
G04 APERTURE END LIST*
G04 #@! TO.C,C20*
G36*
G01*
X2825000Y6352250D02*
X2825000Y5839750D01*
G75*
G02*
X2606250Y5621000I-218750J0D01*
G01*
X2168750Y5621000D01*
G75*
G02*
X1950000Y5839750I0J218750D01*
G01*
X1950000Y6352250D01*
G75*
G02*
X2168750Y6571000I218750J0D01*
G01*
X2606250Y6571000D01*
G75*
G02*
X2825000Y6352250I0J-218750D01*
G01*
G37*
G36*
G01*
X4400000Y6352250D02*
X4400000Y5839750D01*
G75*
G02*
X4181250Y5621000I-218750J0D01*
G01*
X3743750Y5621000D01*
G75*
G02*
X3525000Y5839750I0J218750D01*
G01*
X3525000Y6352250D01*
G75*
G02*
X3743750Y6571000I218750J0D01*
G01*
X4181250Y6571000D01*
G75*
G02*
X4400000Y6352250I0J-218750D01*
G01*
G37*
G04 #@! TD*
G04 #@! TO.C,C10*
G36*
G01*
X2698000Y12956250D02*
X2698000Y12443750D01*
G75*
G02*
X2479250Y12225000I-218750J0D01*
G01*
X2041750Y12225000D01*
G75*
G02*
X1823000Y12443750I0J218750D01*
G01*
X1823000Y12956250D01*
G75*
G02*
X2041750Y13175000I218750J0D01*
G01*
X2479250Y13175000D01*
G75*
G02*
X2698000Y12956250I0J-218750D01*
G01*
G37*
G36*
G01*
X4273000Y12956250D02*
X4273000Y12443750D01*
G75*
G02*
X4054250Y12225000I-218750J0D01*
G01*
X3616750Y12225000D01*
G75*
G02*
X3398000Y12443750I0J218750D01*
G01*
X3398000Y12956250D01*
G75*
G02*
X3616750Y13175000I218750J0D01*
G01*
X4054250Y13175000D01*
G75*
G02*
X4273000Y12956250I0J-218750D01*
G01*
G37*
G04 #@! TD*
G04 #@! TO.C,C4*
G36*
G01*
X9642500Y6138750D02*
X9642500Y7051250D01*
G75*
G02*
X9886250Y7295000I243750J0D01*
G01*
X10373750Y7295000D01*
G75*
G02*
X10617500Y7051250I0J-243750D01*
G01*
X10617500Y6138750D01*
G75*
G02*
X10373750Y5895000I-243750J0D01*
G01*
X9886250Y5895000D01*
G75*
G02*
X9642500Y6138750I0J243750D01*
G01*
G37*
G36*
G01*
X7767500Y6138750D02*
X7767500Y7051250D01*
G75*
G02*
X8011250Y7295000I243750J0D01*
G01*
X8498750Y7295000D01*
G75*
G02*
X8742500Y7051250I0J-243750D01*
G01*
X8742500Y6138750D01*
G75*
G02*
X8498750Y5895000I-243750J0D01*
G01*
X8011250Y5895000D01*
G75*
G02*
X7767500Y6138750I0J243750D01*
G01*
G37*
G04 #@! TD*
G04 #@! TO.C,C3*
G36*
G01*
X16795000Y11051250D02*
X16795000Y10538750D01*
G75*
G02*
X16576250Y10320000I-218750J0D01*
G01*
X16138750Y10320000D01*
G75*
G02*
X15920000Y10538750I0J218750D01*
G01*
X15920000Y11051250D01*
G75*
G02*
X16138750Y11270000I218750J0D01*
G01*
X16576250Y11270000D01*
G75*
G02*
X16795000Y11051250I0J-218750D01*
G01*
G37*
G36*
G01*
X18370000Y11051250D02*
X18370000Y10538750D01*
G75*
G02*
X18151250Y10320000I-218750J0D01*
G01*
X17713750Y10320000D01*
G75*
G02*
X17495000Y10538750I0J218750D01*
G01*
X17495000Y11051250D01*
G75*
G02*
X17713750Y11270000I218750J0D01*
G01*
X18151250Y11270000D01*
G75*
G02*
X18370000Y11051250I0J-218750D01*
G01*
G37*
G04 #@! TD*
G04 #@! TO.C,C2*
G36*
G01*
X16795000Y9146250D02*
X16795000Y8633750D01*
G75*
G02*
X16576250Y8415000I-218750J0D01*
G01*
X16138750Y8415000D01*
G75*
G02*
X15920000Y8633750I0J218750D01*
G01*
X15920000Y9146250D01*
G75*
G02*
X16138750Y9365000I218750J0D01*
G01*
X16576250Y9365000D01*
G75*
G02*
X16795000Y9146250I0J-218750D01*
G01*
G37*
G36*
G01*
X18370000Y9146250D02*
X18370000Y8633750D01*
G75*
G02*
X18151250Y8415000I-218750J0D01*
G01*
X17713750Y8415000D01*
G75*
G02*
X17495000Y8633750I0J218750D01*
G01*
X17495000Y9146250D01*
G75*
G02*
X17713750Y9365000I218750J0D01*
G01*
X18151250Y9365000D01*
G75*
G02*
X18370000Y9146250I0J-218750D01*
G01*
G37*
G04 #@! TD*
G04 #@! TO.C,C1*
G36*
G01*
X16795000Y7241250D02*
X16795000Y6728750D01*
G75*
G02*
X16576250Y6510000I-218750J0D01*
G01*
X16138750Y6510000D01*
G75*
G02*
X15920000Y6728750I0J218750D01*
G01*
X15920000Y7241250D01*
G75*
G02*
X16138750Y7460000I218750J0D01*
G01*
X16576250Y7460000D01*
G75*
G02*
X16795000Y7241250I0J-218750D01*
G01*
G37*
G36*
G01*
X18370000Y7241250D02*
X18370000Y6728750D01*
G75*
G02*
X18151250Y6510000I-218750J0D01*
G01*
X17713750Y6510000D01*
G75*
G02*
X17495000Y6728750I0J218750D01*
G01*
X17495000Y7241250D01*
G75*
G02*
X17713750Y7460000I218750J0D01*
G01*
X18151250Y7460000D01*
G75*
G02*
X18370000Y7241250I0J-218750D01*
G01*
G37*
G04 #@! TD*
D10*
G04 #@! TO.C,U1*
X12382500Y8708652D03*
X11747500Y8708652D03*
X11112500Y8708652D03*
X10477500Y8708652D03*
X9842500Y8708652D03*
X9207500Y8708652D03*
X8572500Y8708652D03*
X7937500Y8708652D03*
X7937500Y14151348D03*
X8572500Y14151348D03*
X9207500Y14151348D03*
X9842500Y14151348D03*
X10477500Y14151348D03*
X11112500Y14151348D03*
X11747500Y14151348D03*
X12382500Y14151348D03*
G04 #@! TD*
G04 #@! TO.C,R20*
G36*
G01*
X16795000Y12937500D02*
X16795000Y12462500D01*
G75*
G02*
X16557500Y12225000I-237500J0D01*
G01*
X15982500Y12225000D01*
G75*
G02*
X15745000Y12462500I0J237500D01*
G01*
X15745000Y12937500D01*
G75*
G02*
X15982500Y13175000I237500J0D01*
G01*
X16557500Y13175000D01*
G75*
G02*
X16795000Y12937500I0J-237500D01*
G01*
G37*
G36*
G01*
X18545000Y12937500D02*
X18545000Y12462500D01*
G75*
G02*
X18307500Y12225000I-237500J0D01*
G01*
X17732500Y12225000D01*
G75*
G02*
X17495000Y12462500I0J237500D01*
G01*
X17495000Y12937500D01*
G75*
G02*
X17732500Y13175000I237500J0D01*
G01*
X18307500Y13175000D01*
G75*
G02*
X18545000Y12937500I0J-237500D01*
G01*
G37*
G04 #@! TD*
G04 #@! TO.C,R10*
G36*
G01*
X16795000Y14842500D02*
X16795000Y14367500D01*
G75*
G02*
X16557500Y14130000I-237500J0D01*
G01*
X15982500Y14130000D01*
G75*
G02*
X15745000Y14367500I0J237500D01*
G01*
X15745000Y14842500D01*
G75*
G02*
X15982500Y15080000I237500J0D01*
G01*
X16557500Y15080000D01*
G75*
G02*
X16795000Y14842500I0J-237500D01*
G01*
G37*
G36*
G01*
X18545000Y14842500D02*
X18545000Y14367500D01*
G75*
G02*
X18307500Y14130000I-237500J0D01*
G01*
X17732500Y14130000D01*
G75*
G02*
X17495000Y14367500I0J237500D01*
G01*
X17495000Y14842500D01*
G75*
G02*
X17732500Y15080000I237500J0D01*
G01*
X18307500Y15080000D01*
G75*
G02*
X18545000Y14842500I0J-237500D01*
G01*
G37*
G04 #@! TD*
G04 #@! TO.C,R1*
G36*
G01*
X2148000Y11293001D02*
X2148000Y10042999D01*
G75*
G02*
X1898001Y9793000I-249999J0D01*
G01*
X1272999Y9793000D01*
G75*
G02*
X1023000Y10042999I0J249999D01*
G01*
X1023000Y11293001D01*
G75*
G02*
X1272999Y11543000I249999J0D01*
G01*
X1898001Y11543000D01*
G75*
G02*
X2148000Y11293001I0J-249999D01*
G01*
G37*
G36*
G01*
X5073000Y11293001D02*
X5073000Y10042999D01*
G75*
G02*
X4823001Y9793000I-249999J0D01*
G01*
X4197999Y9793000D01*
G75*
G02*
X3948000Y10042999I0J249999D01*
G01*
X3948000Y11293001D01*
G75*
G02*
X4197999Y11543000I249999J0D01*
G01*
X4823001Y11543000D01*
G75*
G02*
X5073000Y11293001I0J-249999D01*
G01*
G37*
G04 #@! TD*
G04 #@! TO.C,R2*
G36*
G01*
X5073000Y4689001D02*
X5073000Y3438999D01*
G75*
G02*
X4823001Y3189000I-249999J0D01*
G01*
X4197999Y3189000D01*
G75*
G02*
X3948000Y3438999I0J249999D01*
G01*
X3948000Y4689001D01*
G75*
G02*
X4197999Y4939000I249999J0D01*
G01*
X4823001Y4939000D01*
G75*
G02*
X5073000Y4689001I0J-249999D01*
G01*
G37*
G36*
G01*
X2148000Y4689001D02*
X2148000Y3438999D01*
G75*
G02*
X1898001Y3189000I-249999J0D01*
G01*
X1272999Y3189000D01*
G75*
G02*
X1023000Y3438999I0J249999D01*
G01*
X1023000Y4689001D01*
G75*
G02*
X1272999Y4939000I249999J0D01*
G01*
X1898001Y4939000D01*
G75*
G02*
X2148000Y4689001I0J-249999D01*
G01*
G37*
G04 #@! TD*
G04 #@! TO.C,R3*
G36*
G01*
X2148000Y8753001D02*
X2148000Y7502999D01*
G75*
G02*
X1898001Y7253000I-249999J0D01*
G01*
X1272999Y7253000D01*
G75*
G02*
X1023000Y7502999I0J249999D01*
G01*
X1023000Y8753001D01*
G75*
G02*
X1272999Y9003000I249999J0D01*
G01*
X1898001Y9003000D01*
G75*
G02*
X2148000Y8753001I0J-249999D01*
G01*
G37*
G36*
G01*
X5073000Y8753001D02*
X5073000Y7502999D01*
G75*
G02*
X4823001Y7253000I-249999J0D01*
G01*
X4197999Y7253000D01*
G75*
G02*
X3948000Y7502999I0J249999D01*
G01*
X3948000Y8753001D01*
G75*
G02*
X4197999Y9003000I249999J0D01*
G01*
X4823001Y9003000D01*
G75*
G02*
X5073000Y8753001I0J-249999D01*
G01*
G37*
G04 #@! TD*
G04 #@! TO.C,R12*
G36*
G01*
X5073000Y15230001D02*
X5073000Y13979999D01*
G75*
G02*
X4823001Y13730000I-249999J0D01*
G01*
X4197999Y13730000D01*
G75*
G02*
X3948000Y13979999I0J249999D01*
G01*
X3948000Y15230001D01*
G75*
G02*
X4197999Y15480000I249999J0D01*
G01*
X4823001Y15480000D01*
G75*
G02*
X5073000Y15230001I0J-249999D01*
G01*
G37*
G36*
G01*
X2148000Y15230001D02*
X2148000Y13979999D01*
G75*
G02*
X1898001Y13730000I-249999J0D01*
G01*
X1272999Y13730000D01*
G75*
G02*
X1023000Y13979999I0J249999D01*
G01*
X1023000Y15230001D01*
G75*
G02*
X1272999Y15480000I249999J0D01*
G01*
X1898001Y15480000D01*
G75*
G02*
X2148000Y15230001I0J-249999D01*
G01*
G37*
G04 #@! TD*
M02*
