G04 #@! TF.GenerationSoftware,KiCad,Pcbnew,(5.1.9-0-10_14)*
G04 #@! TF.CreationDate,2021-04-22T16:17:37+10:00*
G04 #@! TF.ProjectId,VR-Conditioner-MAX9926+reg,56522d43-6f6e-4646-9974-696f6e65722d,3.6*
G04 #@! TF.SameCoordinates,PX68c4118PY713e7a8*
G04 #@! TF.FileFunction,Copper,L1,Top*
G04 #@! TF.FilePolarity,Positive*
%FSLAX46Y46*%
G04 Gerber Fmt 4.6, Leading zero omitted, Abs format (unit mm)*
G04 Created by KiCad (PCBNEW (5.1.9-0-10_14)) date 2021-04-22 16:17:37*
%MOMM*%
%LPD*%
G01*
G04 APERTURE LIST*
G04 #@! TA.AperFunction,ComponentPad*
%ADD10O,1.700000X1.700000*%
G04 #@! TD*
G04 #@! TA.AperFunction,ComponentPad*
%ADD11R,1.700000X1.700000*%
G04 #@! TD*
G04 #@! TA.AperFunction,ComponentPad*
%ADD12R,1.500000X1.500000*%
G04 #@! TD*
G04 #@! TA.AperFunction,ComponentPad*
%ADD13C,1.500000*%
G04 #@! TD*
G04 #@! TA.AperFunction,ComponentPad*
%ADD14O,1.600000X1.600000*%
G04 #@! TD*
G04 #@! TA.AperFunction,ComponentPad*
%ADD15C,1.600000*%
G04 #@! TD*
G04 #@! TA.AperFunction,SMDPad,CuDef*
%ADD16R,0.354800X1.454899*%
G04 #@! TD*
G04 #@! TA.AperFunction,ComponentPad*
%ADD17R,1.600000X1.600000*%
G04 #@! TD*
G04 #@! TA.AperFunction,SMDPad,CuDef*
%ADD18C,0.500000*%
G04 #@! TD*
G04 #@! TA.AperFunction,ViaPad*
%ADD19C,0.600000*%
G04 #@! TD*
G04 #@! TA.AperFunction,ViaPad*
%ADD20C,0.510000*%
G04 #@! TD*
G04 #@! TA.AperFunction,Conductor*
%ADD21C,0.400000*%
G04 #@! TD*
G04 #@! TA.AperFunction,Conductor*
%ADD22C,0.300000*%
G04 #@! TD*
G04 #@! TA.AperFunction,Conductor*
%ADD23C,0.200000*%
G04 #@! TD*
G04 #@! TA.AperFunction,Conductor*
%ADD24C,0.160000*%
G04 #@! TD*
G04 #@! TA.AperFunction,Conductor*
%ADD25C,0.254000*%
G04 #@! TD*
G04 #@! TA.AperFunction,Conductor*
%ADD26C,0.100000*%
G04 #@! TD*
G04 APERTURE END LIST*
G04 #@! TO.P,C20,2*
G04 #@! TO.N,Net-(C20-Pad2)*
G04 #@! TA.AperFunction,SMDPad,CuDef*
G36*
G01*
X2825000Y6352250D02*
X2825000Y5839750D01*
G75*
G02*
X2606250Y5621000I-218750J0D01*
G01*
X2168750Y5621000D01*
G75*
G02*
X1950000Y5839750I0J218750D01*
G01*
X1950000Y6352250D01*
G75*
G02*
X2168750Y6571000I218750J0D01*
G01*
X2606250Y6571000D01*
G75*
G02*
X2825000Y6352250I0J-218750D01*
G01*
G37*
G04 #@! TD.AperFunction*
G04 #@! TO.P,C20,1*
G04 #@! TO.N,Net-(C20-Pad1)*
G04 #@! TA.AperFunction,SMDPad,CuDef*
G36*
G01*
X4400000Y6352250D02*
X4400000Y5839750D01*
G75*
G02*
X4181250Y5621000I-218750J0D01*
G01*
X3743750Y5621000D01*
G75*
G02*
X3525000Y5839750I0J218750D01*
G01*
X3525000Y6352250D01*
G75*
G02*
X3743750Y6571000I218750J0D01*
G01*
X4181250Y6571000D01*
G75*
G02*
X4400000Y6352250I0J-218750D01*
G01*
G37*
G04 #@! TD.AperFunction*
G04 #@! TD*
G04 #@! TO.P,C10,2*
G04 #@! TO.N,Net-(C10-Pad2)*
G04 #@! TA.AperFunction,SMDPad,CuDef*
G36*
G01*
X2698000Y12956250D02*
X2698000Y12443750D01*
G75*
G02*
X2479250Y12225000I-218750J0D01*
G01*
X2041750Y12225000D01*
G75*
G02*
X1823000Y12443750I0J218750D01*
G01*
X1823000Y12956250D01*
G75*
G02*
X2041750Y13175000I218750J0D01*
G01*
X2479250Y13175000D01*
G75*
G02*
X2698000Y12956250I0J-218750D01*
G01*
G37*
G04 #@! TD.AperFunction*
G04 #@! TO.P,C10,1*
G04 #@! TO.N,Net-(C10-Pad1)*
G04 #@! TA.AperFunction,SMDPad,CuDef*
G36*
G01*
X4273000Y12956250D02*
X4273000Y12443750D01*
G75*
G02*
X4054250Y12225000I-218750J0D01*
G01*
X3616750Y12225000D01*
G75*
G02*
X3398000Y12443750I0J218750D01*
G01*
X3398000Y12956250D01*
G75*
G02*
X3616750Y13175000I218750J0D01*
G01*
X4054250Y13175000D01*
G75*
G02*
X4273000Y12956250I0J-218750D01*
G01*
G37*
G04 #@! TD.AperFunction*
G04 #@! TD*
G04 #@! TO.P,C4,2*
G04 #@! TO.N,GND*
G04 #@! TA.AperFunction,SMDPad,CuDef*
G36*
G01*
X9642500Y6138750D02*
X9642500Y7051250D01*
G75*
G02*
X9886250Y7295000I243750J0D01*
G01*
X10373750Y7295000D01*
G75*
G02*
X10617500Y7051250I0J-243750D01*
G01*
X10617500Y6138750D01*
G75*
G02*
X10373750Y5895000I-243750J0D01*
G01*
X9886250Y5895000D01*
G75*
G02*
X9642500Y6138750I0J243750D01*
G01*
G37*
G04 #@! TD.AperFunction*
G04 #@! TO.P,C4,1*
G04 #@! TO.N,+12V*
G04 #@! TA.AperFunction,SMDPad,CuDef*
G36*
G01*
X7767500Y6138750D02*
X7767500Y7051250D01*
G75*
G02*
X8011250Y7295000I243750J0D01*
G01*
X8498750Y7295000D01*
G75*
G02*
X8742500Y7051250I0J-243750D01*
G01*
X8742500Y6138750D01*
G75*
G02*
X8498750Y5895000I-243750J0D01*
G01*
X8011250Y5895000D01*
G75*
G02*
X7767500Y6138750I0J243750D01*
G01*
G37*
G04 #@! TD.AperFunction*
G04 #@! TD*
G04 #@! TO.P,C3,2*
G04 #@! TO.N,GND*
G04 #@! TA.AperFunction,SMDPad,CuDef*
G36*
G01*
X16795000Y11051250D02*
X16795000Y10538750D01*
G75*
G02*
X16576250Y10320000I-218750J0D01*
G01*
X16138750Y10320000D01*
G75*
G02*
X15920000Y10538750I0J218750D01*
G01*
X15920000Y11051250D01*
G75*
G02*
X16138750Y11270000I218750J0D01*
G01*
X16576250Y11270000D01*
G75*
G02*
X16795000Y11051250I0J-218750D01*
G01*
G37*
G04 #@! TD.AperFunction*
G04 #@! TO.P,C3,1*
G04 #@! TO.N,VCC*
G04 #@! TA.AperFunction,SMDPad,CuDef*
G36*
G01*
X18370000Y11051250D02*
X18370000Y10538750D01*
G75*
G02*
X18151250Y10320000I-218750J0D01*
G01*
X17713750Y10320000D01*
G75*
G02*
X17495000Y10538750I0J218750D01*
G01*
X17495000Y11051250D01*
G75*
G02*
X17713750Y11270000I218750J0D01*
G01*
X18151250Y11270000D01*
G75*
G02*
X18370000Y11051250I0J-218750D01*
G01*
G37*
G04 #@! TD.AperFunction*
G04 #@! TD*
G04 #@! TO.P,C2,2*
G04 #@! TO.N,GND*
G04 #@! TA.AperFunction,SMDPad,CuDef*
G36*
G01*
X16795000Y9146250D02*
X16795000Y8633750D01*
G75*
G02*
X16576250Y8415000I-218750J0D01*
G01*
X16138750Y8415000D01*
G75*
G02*
X15920000Y8633750I0J218750D01*
G01*
X15920000Y9146250D01*
G75*
G02*
X16138750Y9365000I218750J0D01*
G01*
X16576250Y9365000D01*
G75*
G02*
X16795000Y9146250I0J-218750D01*
G01*
G37*
G04 #@! TD.AperFunction*
G04 #@! TO.P,C2,1*
G04 #@! TO.N,VCC*
G04 #@! TA.AperFunction,SMDPad,CuDef*
G36*
G01*
X18370000Y9146250D02*
X18370000Y8633750D01*
G75*
G02*
X18151250Y8415000I-218750J0D01*
G01*
X17713750Y8415000D01*
G75*
G02*
X17495000Y8633750I0J218750D01*
G01*
X17495000Y9146250D01*
G75*
G02*
X17713750Y9365000I218750J0D01*
G01*
X18151250Y9365000D01*
G75*
G02*
X18370000Y9146250I0J-218750D01*
G01*
G37*
G04 #@! TD.AperFunction*
G04 #@! TD*
G04 #@! TO.P,C1,2*
G04 #@! TO.N,GND*
G04 #@! TA.AperFunction,SMDPad,CuDef*
G36*
G01*
X16795000Y7241250D02*
X16795000Y6728750D01*
G75*
G02*
X16576250Y6510000I-218750J0D01*
G01*
X16138750Y6510000D01*
G75*
G02*
X15920000Y6728750I0J218750D01*
G01*
X15920000Y7241250D01*
G75*
G02*
X16138750Y7460000I218750J0D01*
G01*
X16576250Y7460000D01*
G75*
G02*
X16795000Y7241250I0J-218750D01*
G01*
G37*
G04 #@! TD.AperFunction*
G04 #@! TO.P,C1,1*
G04 #@! TO.N,VCC*
G04 #@! TA.AperFunction,SMDPad,CuDef*
G36*
G01*
X18370000Y7241250D02*
X18370000Y6728750D01*
G75*
G02*
X18151250Y6510000I-218750J0D01*
G01*
X17713750Y6510000D01*
G75*
G02*
X17495000Y6728750I0J218750D01*
G01*
X17495000Y7241250D01*
G75*
G02*
X17713750Y7460000I218750J0D01*
G01*
X18151250Y7460000D01*
G75*
G02*
X18370000Y7241250I0J-218750D01*
G01*
G37*
G04 #@! TD.AperFunction*
G04 #@! TD*
D10*
G04 #@! TO.P,J2,4*
G04 #@! TO.N,/COUT1*
X13970000Y2540000D03*
G04 #@! TO.P,J2,3*
G04 #@! TO.N,/COUT2*
X11430000Y2540000D03*
G04 #@! TO.P,J2,2*
G04 #@! TO.N,GND*
X8890000Y2540000D03*
D11*
G04 #@! TO.P,J2,1*
G04 #@! TO.N,+12V*
X6350000Y2540000D03*
G04 #@! TD*
D12*
G04 #@! TO.P,U2,1*
G04 #@! TO.N,GND*
X12700000Y4745000D03*
D13*
G04 #@! TO.P,U2,3*
G04 #@! TO.N,+12V*
X7620000Y4745000D03*
G04 #@! TO.P,U2,2*
G04 #@! TO.N,VCC*
X10160000Y4745000D03*
G04 #@! TD*
D14*
G04 #@! TO.P,R23,2*
G04 #@! TO.N,Net-(J1-Pad4)*
X17780000Y17145000D03*
D15*
G04 #@! TO.P,R23,1*
G04 #@! TO.N,Net-(J1-Pad3)*
X10160000Y17145000D03*
G04 #@! TD*
D14*
G04 #@! TO.P,R13,2*
G04 #@! TO.N,Net-(J1-Pad2)*
X14605000Y18415000D03*
D15*
G04 #@! TO.P,R13,1*
G04 #@! TO.N,Net-(J1-Pad1)*
X6985000Y18415000D03*
G04 #@! TD*
D16*
G04 #@! TO.P,U1,16*
G04 #@! TO.N,Net-(C10-Pad1)*
X12382500Y8708652D03*
G04 #@! TO.P,U1,15*
G04 #@! TO.N,Net-(C10-Pad2)*
X11747500Y8708652D03*
G04 #@! TO.P,U1,14*
G04 #@! TO.N,VCC*
X11112500Y8708652D03*
G04 #@! TO.P,U1,13*
G04 #@! TO.N,GND*
X10477500Y8708652D03*
G04 #@! TO.P,U1,12*
G04 #@! TO.N,Net-(U1-Pad12)*
X9842500Y8708652D03*
G04 #@! TO.P,U1,11*
G04 #@! TO.N,GND*
X9207500Y8708652D03*
G04 #@! TO.P,U1,10*
G04 #@! TO.N,Net-(C20-Pad1)*
X8572500Y8708652D03*
G04 #@! TO.P,U1,9*
G04 #@! TO.N,Net-(C20-Pad2)*
X7937500Y8708652D03*
G04 #@! TO.P,U1,8*
G04 #@! TO.N,GND*
X7937500Y14151348D03*
G04 #@! TO.P,U1,7*
G04 #@! TO.N,Net-(U1-Pad7)*
X8572500Y14151348D03*
G04 #@! TO.P,U1,6*
G04 #@! TO.N,GND*
X9207500Y14151348D03*
G04 #@! TO.P,U1,5*
G04 #@! TO.N,/COUT2*
X9842500Y14151348D03*
G04 #@! TO.P,U1,4*
G04 #@! TO.N,/COUT1*
X10477500Y14151348D03*
G04 #@! TO.P,U1,3*
G04 #@! TO.N,GND*
X11112500Y14151348D03*
G04 #@! TO.P,U1,2*
G04 #@! TO.N,Net-(U1-Pad2)*
X11747500Y14151348D03*
G04 #@! TO.P,U1,1*
G04 #@! TO.N,GND*
X12382500Y14151348D03*
G04 #@! TD*
G04 #@! TO.P,R20,2*
G04 #@! TO.N,/COUT2*
G04 #@! TA.AperFunction,SMDPad,CuDef*
G36*
G01*
X16795000Y12937500D02*
X16795000Y12462500D01*
G75*
G02*
X16557500Y12225000I-237500J0D01*
G01*
X15982500Y12225000D01*
G75*
G02*
X15745000Y12462500I0J237500D01*
G01*
X15745000Y12937500D01*
G75*
G02*
X15982500Y13175000I237500J0D01*
G01*
X16557500Y13175000D01*
G75*
G02*
X16795000Y12937500I0J-237500D01*
G01*
G37*
G04 #@! TD.AperFunction*
G04 #@! TO.P,R20,1*
G04 #@! TO.N,VCC*
G04 #@! TA.AperFunction,SMDPad,CuDef*
G36*
G01*
X18545000Y12937500D02*
X18545000Y12462500D01*
G75*
G02*
X18307500Y12225000I-237500J0D01*
G01*
X17732500Y12225000D01*
G75*
G02*
X17495000Y12462500I0J237500D01*
G01*
X17495000Y12937500D01*
G75*
G02*
X17732500Y13175000I237500J0D01*
G01*
X18307500Y13175000D01*
G75*
G02*
X18545000Y12937500I0J-237500D01*
G01*
G37*
G04 #@! TD.AperFunction*
G04 #@! TD*
G04 #@! TO.P,R10,2*
G04 #@! TO.N,/COUT1*
G04 #@! TA.AperFunction,SMDPad,CuDef*
G36*
G01*
X16795000Y14842500D02*
X16795000Y14367500D01*
G75*
G02*
X16557500Y14130000I-237500J0D01*
G01*
X15982500Y14130000D01*
G75*
G02*
X15745000Y14367500I0J237500D01*
G01*
X15745000Y14842500D01*
G75*
G02*
X15982500Y15080000I237500J0D01*
G01*
X16557500Y15080000D01*
G75*
G02*
X16795000Y14842500I0J-237500D01*
G01*
G37*
G04 #@! TD.AperFunction*
G04 #@! TO.P,R10,1*
G04 #@! TO.N,VCC*
G04 #@! TA.AperFunction,SMDPad,CuDef*
G36*
G01*
X18545000Y14842500D02*
X18545000Y14367500D01*
G75*
G02*
X18307500Y14130000I-237500J0D01*
G01*
X17732500Y14130000D01*
G75*
G02*
X17495000Y14367500I0J237500D01*
G01*
X17495000Y14842500D01*
G75*
G02*
X17732500Y15080000I237500J0D01*
G01*
X18307500Y15080000D01*
G75*
G02*
X18545000Y14842500I0J-237500D01*
G01*
G37*
G04 #@! TD.AperFunction*
G04 #@! TD*
D14*
G04 #@! TO.P,J1,8*
G04 #@! TO.N,/COUT1*
X13970000Y14605000D03*
G04 #@! TO.P,J1,4*
G04 #@! TO.N,Net-(J1-Pad4)*
X6350000Y6985000D03*
G04 #@! TO.P,J1,7*
G04 #@! TO.N,/COUT2*
X13970000Y12065000D03*
G04 #@! TO.P,J1,3*
G04 #@! TO.N,Net-(J1-Pad3)*
X6350000Y9525000D03*
G04 #@! TO.P,J1,6*
G04 #@! TO.N,GND*
X13970000Y9525000D03*
G04 #@! TO.P,J1,2*
G04 #@! TO.N,Net-(J1-Pad2)*
X6350000Y12065000D03*
G04 #@! TO.P,J1,5*
G04 #@! TO.N,VCC*
X13970000Y6985000D03*
D17*
G04 #@! TO.P,J1,1*
G04 #@! TO.N,Net-(J1-Pad1)*
X6350000Y14605000D03*
G04 #@! TD*
D18*
G04 #@! TO.P,FID2,*
G04 #@! TO.N,*
X18415000Y19050000D03*
G04 #@! TD*
G04 #@! TO.P,FID1,*
G04 #@! TO.N,*
X1905000Y1905000D03*
G04 #@! TD*
G04 #@! TO.P,R1,2*
G04 #@! TO.N,Net-(J1-Pad2)*
G04 #@! TA.AperFunction,SMDPad,CuDef*
G36*
G01*
X2148000Y11293001D02*
X2148000Y10042999D01*
G75*
G02*
X1898001Y9793000I-249999J0D01*
G01*
X1272999Y9793000D01*
G75*
G02*
X1023000Y10042999I0J249999D01*
G01*
X1023000Y11293001D01*
G75*
G02*
X1272999Y11543000I249999J0D01*
G01*
X1898001Y11543000D01*
G75*
G02*
X2148000Y11293001I0J-249999D01*
G01*
G37*
G04 #@! TD.AperFunction*
G04 #@! TO.P,R1,1*
G04 #@! TO.N,Net-(C10-Pad2)*
G04 #@! TA.AperFunction,SMDPad,CuDef*
G36*
G01*
X5073000Y11293001D02*
X5073000Y10042999D01*
G75*
G02*
X4823001Y9793000I-249999J0D01*
G01*
X4197999Y9793000D01*
G75*
G02*
X3948000Y10042999I0J249999D01*
G01*
X3948000Y11293001D01*
G75*
G02*
X4197999Y11543000I249999J0D01*
G01*
X4823001Y11543000D01*
G75*
G02*
X5073000Y11293001I0J-249999D01*
G01*
G37*
G04 #@! TD.AperFunction*
G04 #@! TD*
G04 #@! TO.P,R2,1*
G04 #@! TO.N,Net-(C20-Pad1)*
G04 #@! TA.AperFunction,SMDPad,CuDef*
G36*
G01*
X5073000Y4689001D02*
X5073000Y3438999D01*
G75*
G02*
X4823001Y3189000I-249999J0D01*
G01*
X4197999Y3189000D01*
G75*
G02*
X3948000Y3438999I0J249999D01*
G01*
X3948000Y4689001D01*
G75*
G02*
X4197999Y4939000I249999J0D01*
G01*
X4823001Y4939000D01*
G75*
G02*
X5073000Y4689001I0J-249999D01*
G01*
G37*
G04 #@! TD.AperFunction*
G04 #@! TO.P,R2,2*
G04 #@! TO.N,Net-(J1-Pad4)*
G04 #@! TA.AperFunction,SMDPad,CuDef*
G36*
G01*
X2148000Y4689001D02*
X2148000Y3438999D01*
G75*
G02*
X1898001Y3189000I-249999J0D01*
G01*
X1272999Y3189000D01*
G75*
G02*
X1023000Y3438999I0J249999D01*
G01*
X1023000Y4689001D01*
G75*
G02*
X1272999Y4939000I249999J0D01*
G01*
X1898001Y4939000D01*
G75*
G02*
X2148000Y4689001I0J-249999D01*
G01*
G37*
G04 #@! TD.AperFunction*
G04 #@! TD*
G04 #@! TO.P,R3,2*
G04 #@! TO.N,Net-(J1-Pad3)*
G04 #@! TA.AperFunction,SMDPad,CuDef*
G36*
G01*
X2148000Y8753001D02*
X2148000Y7502999D01*
G75*
G02*
X1898001Y7253000I-249999J0D01*
G01*
X1272999Y7253000D01*
G75*
G02*
X1023000Y7502999I0J249999D01*
G01*
X1023000Y8753001D01*
G75*
G02*
X1272999Y9003000I249999J0D01*
G01*
X1898001Y9003000D01*
G75*
G02*
X2148000Y8753001I0J-249999D01*
G01*
G37*
G04 #@! TD.AperFunction*
G04 #@! TO.P,R3,1*
G04 #@! TO.N,Net-(C20-Pad2)*
G04 #@! TA.AperFunction,SMDPad,CuDef*
G36*
G01*
X5073000Y8753001D02*
X5073000Y7502999D01*
G75*
G02*
X4823001Y7253000I-249999J0D01*
G01*
X4197999Y7253000D01*
G75*
G02*
X3948000Y7502999I0J249999D01*
G01*
X3948000Y8753001D01*
G75*
G02*
X4197999Y9003000I249999J0D01*
G01*
X4823001Y9003000D01*
G75*
G02*
X5073000Y8753001I0J-249999D01*
G01*
G37*
G04 #@! TD.AperFunction*
G04 #@! TD*
G04 #@! TO.P,R12,1*
G04 #@! TO.N,Net-(C10-Pad1)*
G04 #@! TA.AperFunction,SMDPad,CuDef*
G36*
G01*
X5073000Y15230001D02*
X5073000Y13979999D01*
G75*
G02*
X4823001Y13730000I-249999J0D01*
G01*
X4197999Y13730000D01*
G75*
G02*
X3948000Y13979999I0J249999D01*
G01*
X3948000Y15230001D01*
G75*
G02*
X4197999Y15480000I249999J0D01*
G01*
X4823001Y15480000D01*
G75*
G02*
X5073000Y15230001I0J-249999D01*
G01*
G37*
G04 #@! TD.AperFunction*
G04 #@! TO.P,R12,2*
G04 #@! TO.N,Net-(J1-Pad1)*
G04 #@! TA.AperFunction,SMDPad,CuDef*
G36*
G01*
X2148000Y15230001D02*
X2148000Y13979999D01*
G75*
G02*
X1898001Y13730000I-249999J0D01*
G01*
X1272999Y13730000D01*
G75*
G02*
X1023000Y13979999I0J249999D01*
G01*
X1023000Y15230001D01*
G75*
G02*
X1272999Y15480000I249999J0D01*
G01*
X1898001Y15480000D01*
G75*
G02*
X2148000Y15230001I0J-249999D01*
G01*
G37*
G04 #@! TD.AperFunction*
G04 #@! TD*
D19*
G04 #@! TO.N,GND*
X10795000Y10067990D03*
X14224000Y16510000D03*
X8636000Y10160000D03*
X4826000Y16764000D03*
X9906000Y12192000D03*
D20*
G04 #@! TO.N,Net-(C10-Pad2)*
X1524000Y12446000D03*
X3302000Y10922000D03*
G04 #@! TO.N,Net-(J1-Pad4)*
X2794000Y4064000D03*
G04 #@! TD*
D21*
G04 #@! TO.N,GND*
X16270000Y8890000D02*
X16270000Y10795000D01*
X16270000Y8890000D02*
X16270000Y6985000D01*
D22*
X9207500Y13251496D02*
X9207500Y14151348D01*
X9029901Y13073897D02*
X9207500Y13251496D01*
X7937500Y13251496D02*
X8115099Y13073897D01*
X7937500Y14151348D02*
X7937500Y13251496D01*
X12204901Y13073897D02*
X12382500Y13251496D01*
X11290099Y13073897D02*
X12204901Y13073897D01*
X12382500Y13251496D02*
X12382500Y14151348D01*
X11112500Y13251496D02*
X11290099Y13073897D01*
X11112500Y14151348D02*
X11112500Y13251496D01*
X8628897Y13073897D02*
X9029901Y13073897D01*
X8115099Y13073897D02*
X8628897Y13073897D01*
X9207500Y15051199D02*
X9385099Y15228798D01*
X10934901Y15228798D02*
X11112500Y15051199D01*
X9207500Y14151348D02*
X9207500Y15051199D01*
X11112500Y15051199D02*
X11112500Y14151348D01*
X9385099Y15228798D02*
X10934901Y15228798D01*
X10477500Y6427500D02*
X10400000Y6350000D01*
X9385099Y9786102D02*
X10427499Y9786102D01*
X10477500Y9736101D02*
X10477500Y8708652D01*
X10427499Y9786102D02*
X10477500Y9736101D01*
X9207500Y9608503D02*
X9385099Y9786102D01*
X9207500Y8708652D02*
X9207500Y9608503D01*
X14605000Y8890000D02*
X13970000Y9525000D01*
X16270000Y8890000D02*
X14605000Y8890000D01*
X8890000Y5355000D02*
X10130000Y6595000D01*
X8890000Y2540000D02*
X8890000Y5355000D01*
X10477500Y6942500D02*
X10130000Y6595000D01*
X10477500Y8708652D02*
X10477500Y6942500D01*
X11858998Y4745000D02*
X12700000Y4745000D01*
X10758997Y3644999D02*
X11858998Y4745000D01*
X9994999Y3644999D02*
X10758997Y3644999D01*
X8890000Y2540000D02*
X9994999Y3644999D01*
X10477500Y8708652D02*
X10477500Y9750490D01*
X10477500Y9750490D02*
X10795000Y10067990D01*
X9207500Y13222489D02*
X10697967Y11732022D01*
X10697967Y11732022D02*
X11762978Y11732022D01*
X11762978Y11732022D02*
X13970000Y9525000D01*
X9207500Y13251496D02*
X9207500Y13222489D01*
D23*
G04 #@! TO.N,VCC*
X18020000Y10795000D02*
X18020000Y10640000D01*
D21*
X18020000Y14605000D02*
X18020000Y12700000D01*
X18020000Y12700000D02*
X18020000Y10795000D01*
X18020000Y10795000D02*
X18020000Y8890000D01*
X18020000Y8890000D02*
X18020000Y6985000D01*
D23*
X13970000Y6985000D02*
X14370010Y6584990D01*
D21*
X18020000Y6985000D02*
X17144990Y6109990D01*
D22*
X11808703Y6985000D02*
X13970000Y6985000D01*
X11112500Y7681203D02*
X11808703Y6985000D01*
X11112500Y8708652D02*
X11112500Y7681203D01*
X13463998Y6985000D02*
X13970000Y6985000D01*
X12400000Y6985000D02*
X13970000Y6985000D01*
X10160000Y4745000D02*
X12400000Y6985000D01*
D21*
X14845010Y6109990D02*
X13970000Y6985000D01*
X17144990Y6109990D02*
X14845010Y6109990D01*
D23*
G04 #@! TO.N,Net-(C10-Pad2)*
X4050000Y10795000D02*
X4050000Y11035000D01*
D24*
X1778000Y12700000D02*
X1524000Y12446000D01*
X2260500Y12700000D02*
X1778000Y12700000D01*
X4256500Y10922000D02*
X4510500Y10668000D01*
X3302000Y10922000D02*
X4256500Y10922000D01*
D23*
X4764500Y10922000D02*
X4510500Y10668000D01*
X11303000Y10922000D02*
X4764500Y10922000D01*
X11747500Y10477500D02*
X11303000Y10922000D01*
X11747500Y8708652D02*
X11747500Y10477500D01*
D24*
G04 #@! TO.N,Net-(C10-Pad1)*
X4510500Y13375000D02*
X3835500Y12700000D01*
X4510500Y14605000D02*
X4510500Y13375000D01*
D23*
X4510500Y13730000D02*
X4510500Y14605000D01*
X12382500Y10351632D02*
X11452121Y11282011D01*
X7090586Y13462000D02*
X4778500Y13462000D01*
X4778500Y13462000D02*
X4510500Y13730000D01*
X9270575Y11282011D02*
X7090586Y13462000D01*
X12382500Y8708652D02*
X12382500Y10351632D01*
X11452121Y11282011D02*
X9270575Y11282011D01*
G04 #@! TO.N,Net-(C20-Pad2)*
X7937500Y8708652D02*
X7356848Y8128000D01*
D24*
X2478500Y6096000D02*
X2387500Y6096000D01*
X4510500Y8128000D02*
X2478500Y6096000D01*
D23*
X7356848Y8128000D02*
X4510500Y8128000D01*
G04 #@! TO.N,Net-(C20-Pad1)*
X8572500Y7970800D02*
X8572500Y8708652D01*
X7786016Y7595010D02*
X8196710Y7595010D01*
X4216500Y5842000D02*
X6858000Y5842000D01*
X7410001Y7218995D02*
X7786016Y7595010D01*
X8196710Y7595010D02*
X8572500Y7970800D01*
X7410001Y6308100D02*
X7410001Y7218995D01*
X6858801Y5842801D02*
X6944702Y5842801D01*
X6858000Y5842000D02*
X6858801Y5842801D01*
X6944702Y5842801D02*
X7410001Y6308100D01*
X3962500Y6096000D02*
X4216500Y5842000D01*
D24*
X3962500Y4612000D02*
X4510500Y4064000D01*
X3962500Y6096000D02*
X3962500Y4612000D01*
G04 #@! TO.N,Net-(J1-Pad4)*
X2794000Y4064000D02*
X1585500Y4064000D01*
G04 #@! TO.N,Net-(J1-Pad3)*
X2982500Y9525000D02*
X1585500Y8128000D01*
X6350000Y9525000D02*
X2982500Y9525000D01*
D23*
G04 #@! TO.N,Net-(J1-Pad2)*
X5461000Y12065000D02*
X6350000Y12065000D01*
X5334000Y11938000D02*
X5461000Y12065000D01*
X2855500Y11938000D02*
X5334000Y11938000D01*
X1585500Y10668000D02*
X2855500Y11938000D01*
D24*
G04 #@! TO.N,Net-(J1-Pad1)*
X5234990Y15720010D02*
X2700510Y15720010D01*
X2700510Y15720010D02*
X1585500Y14605000D01*
X6350000Y14605000D02*
X5234990Y15720010D01*
G04 #@! TO.N,/COUT1*
X13970000Y14329996D02*
X13970000Y14605000D01*
D23*
X11077512Y12623887D02*
X12391302Y12623888D01*
X12391302Y12623888D02*
X13970000Y14202586D01*
X10477500Y13223899D02*
X11077512Y12623887D01*
X13970000Y14202586D02*
X13970000Y14605000D01*
X10477500Y14151348D02*
X10477500Y13223899D01*
X16270000Y14605000D02*
X13970000Y14605000D01*
X13970000Y5080000D02*
X13970000Y2540000D01*
X18288000Y5588000D02*
X14478000Y5588000D01*
X14478000Y5588000D02*
X13970000Y5080000D01*
X18845010Y15065146D02*
X18845010Y6145010D01*
X18845010Y6145010D02*
X18288000Y5588000D01*
X17045010Y15380010D02*
X18530146Y15380010D01*
X18530146Y15380010D02*
X18845010Y15065146D01*
X16270000Y14605000D02*
X17045010Y15380010D01*
G04 #@! TO.N,/COUT2*
X14605000Y12700000D02*
X13970000Y12065000D01*
X16270000Y12700000D02*
X14605000Y12700000D01*
X9842500Y13223899D02*
X10884366Y12182033D01*
X13852967Y12182033D02*
X13970000Y12065000D01*
X9842500Y14151348D02*
X9842500Y13223899D01*
X10884366Y12182033D02*
X13852967Y12182033D01*
D22*
G04 #@! TO.N,+12V*
X7620000Y3810000D02*
X6350000Y2540000D01*
X7620000Y4745000D02*
X7620000Y3810000D01*
X8255000Y5380000D02*
X7620000Y4745000D01*
X8255000Y6595000D02*
X8255000Y5380000D01*
G04 #@! TD*
D25*
G04 #@! TO.N,GND*
X8932629Y4088957D02*
X9067650Y3886885D01*
X9017000Y3860155D01*
X9017000Y2667000D01*
X9037000Y2667000D01*
X9037000Y2413000D01*
X9017000Y2413000D01*
X9017000Y2393000D01*
X8763000Y2393000D01*
X8763000Y2413000D01*
X8743000Y2413000D01*
X8743000Y2667000D01*
X8763000Y2667000D01*
X8763000Y3860155D01*
X8712350Y3886885D01*
X8847371Y4088957D01*
X8890000Y4191873D01*
X8932629Y4088957D01*
G04 #@! TA.AperFunction,Conductor*
D26*
G36*
X8932629Y4088957D02*
G01*
X9067650Y3886885D01*
X9017000Y3860155D01*
X9017000Y2667000D01*
X9037000Y2667000D01*
X9037000Y2413000D01*
X9017000Y2413000D01*
X9017000Y2393000D01*
X8763000Y2393000D01*
X8763000Y2413000D01*
X8743000Y2413000D01*
X8743000Y2667000D01*
X8763000Y2667000D01*
X8763000Y3860155D01*
X8712350Y3886885D01*
X8847371Y4088957D01*
X8890000Y4191873D01*
X8932629Y4088957D01*
G37*
G04 #@! TD.AperFunction*
D25*
X12855363Y6070241D02*
X12890677Y6034927D01*
X12827000Y5971250D01*
X12827000Y4872000D01*
X12847000Y4872000D01*
X12847000Y4618000D01*
X12827000Y4618000D01*
X12827000Y3518750D01*
X12837822Y3507928D01*
X12816525Y3486632D01*
X12700000Y3312240D01*
X12583475Y3486632D01*
X12562179Y3507928D01*
X12573000Y3518750D01*
X12573000Y4618000D01*
X12553000Y4618000D01*
X12553000Y4872000D01*
X12573000Y4872000D01*
X12573000Y5971250D01*
X12534704Y6009546D01*
X12725158Y6200000D01*
X12768661Y6200000D01*
X12855363Y6070241D01*
G04 #@! TA.AperFunction,Conductor*
D26*
G36*
X12855363Y6070241D02*
G01*
X12890677Y6034927D01*
X12827000Y5971250D01*
X12827000Y4872000D01*
X12847000Y4872000D01*
X12847000Y4618000D01*
X12827000Y4618000D01*
X12827000Y3518750D01*
X12837822Y3507928D01*
X12816525Y3486632D01*
X12700000Y3312240D01*
X12583475Y3486632D01*
X12562179Y3507928D01*
X12573000Y3518750D01*
X12573000Y4618000D01*
X12553000Y4618000D01*
X12553000Y4872000D01*
X12573000Y4872000D01*
X12573000Y5971250D01*
X12534704Y6009546D01*
X12725158Y6200000D01*
X12768661Y6200000D01*
X12855363Y6070241D01*
G37*
G04 #@! TD.AperFunction*
D25*
X10257000Y6722000D02*
X10277000Y6722000D01*
X10277000Y6468000D01*
X10257000Y6468000D01*
X10257000Y6448000D01*
X10003000Y6448000D01*
X10003000Y6468000D01*
X9983000Y6468000D01*
X9983000Y6722000D01*
X10003000Y6722000D01*
X10003000Y6742000D01*
X10257000Y6742000D01*
X10257000Y6722000D01*
G04 #@! TA.AperFunction,Conductor*
D26*
G36*
X10257000Y6722000D02*
G01*
X10277000Y6722000D01*
X10277000Y6468000D01*
X10257000Y6468000D01*
X10257000Y6448000D01*
X10003000Y6448000D01*
X10003000Y6468000D01*
X9983000Y6468000D01*
X9983000Y6722000D01*
X10003000Y6722000D01*
X10003000Y6742000D01*
X10257000Y6742000D01*
X10257000Y6722000D01*
G37*
G04 #@! TD.AperFunction*
D25*
X15490541Y11739015D02*
X15468815Y11721185D01*
X15389463Y11624494D01*
X15330498Y11514180D01*
X15294188Y11394482D01*
X15281928Y11270000D01*
X15285000Y11080750D01*
X15443750Y10922000D01*
X16230500Y10922000D01*
X16230500Y10942000D01*
X16484500Y10942000D01*
X16484500Y10922000D01*
X16504500Y10922000D01*
X16504500Y10668000D01*
X16484500Y10668000D01*
X16484500Y9843750D01*
X16485750Y9842500D01*
X16484500Y9841250D01*
X16484500Y9017000D01*
X16504500Y9017000D01*
X16504500Y8763000D01*
X16484500Y8763000D01*
X16484500Y7938750D01*
X16485750Y7937500D01*
X16484500Y7936250D01*
X16484500Y7112000D01*
X16504500Y7112000D01*
X16504500Y6944990D01*
X16210500Y6944990D01*
X16210500Y7112000D01*
X16230500Y7112000D01*
X16230500Y7936250D01*
X16229250Y7937500D01*
X16230500Y7938750D01*
X16230500Y8763000D01*
X15443750Y8763000D01*
X15285000Y8604250D01*
X15281928Y8415000D01*
X15294188Y8290518D01*
X15330498Y8170820D01*
X15389463Y8060506D01*
X15468815Y7963815D01*
X15500880Y7937500D01*
X15468815Y7911185D01*
X15389463Y7814494D01*
X15330498Y7704180D01*
X15294188Y7584482D01*
X15290486Y7546898D01*
X15241680Y7664727D01*
X15084637Y7899759D01*
X14884759Y8099637D01*
X14649727Y8256680D01*
X14388574Y8364853D01*
X14111335Y8420000D01*
X13828665Y8420000D01*
X13551426Y8364853D01*
X13290273Y8256680D01*
X13197972Y8195007D01*
X13197972Y9436101D01*
X13185712Y9560583D01*
X13149402Y9680281D01*
X13117500Y9739964D01*
X13117500Y10315527D01*
X13117940Y10320000D01*
X15281928Y10320000D01*
X15294188Y10195518D01*
X15330498Y10075820D01*
X15389463Y9965506D01*
X15468815Y9868815D01*
X15500880Y9842500D01*
X15468815Y9816185D01*
X15389463Y9719494D01*
X15330498Y9609180D01*
X15294188Y9489482D01*
X15281928Y9365000D01*
X15285000Y9175750D01*
X15443750Y9017000D01*
X16230500Y9017000D01*
X16230500Y9841250D01*
X16229250Y9842500D01*
X16230500Y9843750D01*
X16230500Y10668000D01*
X15443750Y10668000D01*
X15285000Y10509250D01*
X15281928Y10320000D01*
X13117940Y10320000D01*
X13121056Y10351632D01*
X13106865Y10495717D01*
X13064837Y10634266D01*
X12996587Y10761952D01*
X12935802Y10836018D01*
X12904738Y10873870D01*
X12876693Y10896886D01*
X12326545Y11447033D01*
X12672738Y11447033D01*
X12698320Y11385273D01*
X12855363Y11150241D01*
X13055241Y10950363D01*
X13290273Y10793320D01*
X13551426Y10685147D01*
X13828665Y10630000D01*
X14111335Y10630000D01*
X14388574Y10685147D01*
X14649727Y10793320D01*
X14884759Y10950363D01*
X15084637Y11150241D01*
X15241680Y11385273D01*
X15349853Y11646426D01*
X15385430Y11825279D01*
X15490541Y11739015D01*
G04 #@! TA.AperFunction,Conductor*
D26*
G36*
X15490541Y11739015D02*
G01*
X15468815Y11721185D01*
X15389463Y11624494D01*
X15330498Y11514180D01*
X15294188Y11394482D01*
X15281928Y11270000D01*
X15285000Y11080750D01*
X15443750Y10922000D01*
X16230500Y10922000D01*
X16230500Y10942000D01*
X16484500Y10942000D01*
X16484500Y10922000D01*
X16504500Y10922000D01*
X16504500Y10668000D01*
X16484500Y10668000D01*
X16484500Y9843750D01*
X16485750Y9842500D01*
X16484500Y9841250D01*
X16484500Y9017000D01*
X16504500Y9017000D01*
X16504500Y8763000D01*
X16484500Y8763000D01*
X16484500Y7938750D01*
X16485750Y7937500D01*
X16484500Y7936250D01*
X16484500Y7112000D01*
X16504500Y7112000D01*
X16504500Y6944990D01*
X16210500Y6944990D01*
X16210500Y7112000D01*
X16230500Y7112000D01*
X16230500Y7936250D01*
X16229250Y7937500D01*
X16230500Y7938750D01*
X16230500Y8763000D01*
X15443750Y8763000D01*
X15285000Y8604250D01*
X15281928Y8415000D01*
X15294188Y8290518D01*
X15330498Y8170820D01*
X15389463Y8060506D01*
X15468815Y7963815D01*
X15500880Y7937500D01*
X15468815Y7911185D01*
X15389463Y7814494D01*
X15330498Y7704180D01*
X15294188Y7584482D01*
X15290486Y7546898D01*
X15241680Y7664727D01*
X15084637Y7899759D01*
X14884759Y8099637D01*
X14649727Y8256680D01*
X14388574Y8364853D01*
X14111335Y8420000D01*
X13828665Y8420000D01*
X13551426Y8364853D01*
X13290273Y8256680D01*
X13197972Y8195007D01*
X13197972Y9436101D01*
X13185712Y9560583D01*
X13149402Y9680281D01*
X13117500Y9739964D01*
X13117500Y10315527D01*
X13117940Y10320000D01*
X15281928Y10320000D01*
X15294188Y10195518D01*
X15330498Y10075820D01*
X15389463Y9965506D01*
X15468815Y9868815D01*
X15500880Y9842500D01*
X15468815Y9816185D01*
X15389463Y9719494D01*
X15330498Y9609180D01*
X15294188Y9489482D01*
X15281928Y9365000D01*
X15285000Y9175750D01*
X15443750Y9017000D01*
X16230500Y9017000D01*
X16230500Y9841250D01*
X16229250Y9842500D01*
X16230500Y9843750D01*
X16230500Y10668000D01*
X15443750Y10668000D01*
X15285000Y10509250D01*
X15281928Y10320000D01*
X13117940Y10320000D01*
X13121056Y10351632D01*
X13106865Y10495717D01*
X13064837Y10634266D01*
X12996587Y10761952D01*
X12935802Y10836018D01*
X12904738Y10873870D01*
X12876693Y10896886D01*
X12326545Y11447033D01*
X12672738Y11447033D01*
X12698320Y11385273D01*
X12855363Y11150241D01*
X13055241Y10950363D01*
X13290273Y10793320D01*
X13551426Y10685147D01*
X13828665Y10630000D01*
X14111335Y10630000D01*
X14388574Y10685147D01*
X14649727Y10793320D01*
X14884759Y10950363D01*
X15084637Y11150241D01*
X15241680Y11385273D01*
X15349853Y11646426D01*
X15385430Y11825279D01*
X15490541Y11739015D01*
G37*
G04 #@! TD.AperFunction*
D25*
X11012501Y10173053D02*
X11012501Y10074173D01*
X10935100Y10074173D01*
X10810618Y10061913D01*
X10690920Y10025603D01*
X10580606Y9966638D01*
X10483915Y9887286D01*
X10477500Y9879469D01*
X10471085Y9887286D01*
X10374394Y9966638D01*
X10264080Y10025603D01*
X10144382Y10061913D01*
X10019900Y10074173D01*
X9665100Y10074173D01*
X9540618Y10061913D01*
X9420920Y10025603D01*
X9310606Y9966638D01*
X9213915Y9887286D01*
X9207500Y9879469D01*
X9201085Y9887286D01*
X9104394Y9966638D01*
X8994080Y10025603D01*
X8874382Y10061913D01*
X8749900Y10074173D01*
X8395100Y10074173D01*
X8270618Y10061913D01*
X8255000Y10057175D01*
X8239382Y10061913D01*
X8114900Y10074173D01*
X7760100Y10074173D01*
X7679063Y10066192D01*
X7629023Y10187000D01*
X10998554Y10187000D01*
X11012501Y10173053D01*
G04 #@! TA.AperFunction,Conductor*
D26*
G36*
X11012501Y10173053D02*
G01*
X11012501Y10074173D01*
X10935100Y10074173D01*
X10810618Y10061913D01*
X10690920Y10025603D01*
X10580606Y9966638D01*
X10483915Y9887286D01*
X10477500Y9879469D01*
X10471085Y9887286D01*
X10374394Y9966638D01*
X10264080Y10025603D01*
X10144382Y10061913D01*
X10019900Y10074173D01*
X9665100Y10074173D01*
X9540618Y10061913D01*
X9420920Y10025603D01*
X9310606Y9966638D01*
X9213915Y9887286D01*
X9207500Y9879469D01*
X9201085Y9887286D01*
X9104394Y9966638D01*
X8994080Y10025603D01*
X8874382Y10061913D01*
X8749900Y10074173D01*
X8395100Y10074173D01*
X8270618Y10061913D01*
X8255000Y10057175D01*
X8239382Y10061913D01*
X8114900Y10074173D01*
X7760100Y10074173D01*
X7679063Y10066192D01*
X7629023Y10187000D01*
X10998554Y10187000D01*
X11012501Y10173053D01*
G37*
G04 #@! TD.AperFunction*
D25*
X9228414Y12813579D02*
X9320263Y12701661D01*
X9348308Y12678645D01*
X10009941Y12017011D01*
X9575022Y12017011D01*
X8801157Y12790875D01*
X8874382Y12798087D01*
X8994080Y12834397D01*
X9104394Y12893362D01*
X9160957Y12939782D01*
X9228414Y12813579D01*
G04 #@! TA.AperFunction,Conductor*
D26*
G36*
X9228414Y12813579D02*
G01*
X9320263Y12701661D01*
X9348308Y12678645D01*
X10009941Y12017011D01*
X9575022Y12017011D01*
X8801157Y12790875D01*
X8874382Y12798087D01*
X8994080Y12834397D01*
X9104394Y12893362D01*
X9160957Y12939782D01*
X9228414Y12813579D01*
G37*
G04 #@! TD.AperFunction*
D25*
X6070241Y19529637D02*
X5870363Y19329759D01*
X5713320Y19094727D01*
X5605147Y18833574D01*
X5550000Y18556335D01*
X5550000Y18273665D01*
X5605147Y17996426D01*
X5713320Y17735273D01*
X5870363Y17500241D01*
X6070241Y17300363D01*
X6305273Y17143320D01*
X6566426Y17035147D01*
X6843665Y16980000D01*
X7126335Y16980000D01*
X7403574Y17035147D01*
X7664727Y17143320D01*
X7878764Y17286335D01*
X8725000Y17286335D01*
X8725000Y17003665D01*
X8780147Y16726426D01*
X8888320Y16465273D01*
X9045363Y16230241D01*
X9245241Y16030363D01*
X9480273Y15873320D01*
X9741426Y15765147D01*
X10018665Y15710000D01*
X10301335Y15710000D01*
X10578574Y15765147D01*
X10839727Y15873320D01*
X11074759Y16030363D01*
X11274637Y16230241D01*
X11431680Y16465273D01*
X11539853Y16726426D01*
X11595000Y17003665D01*
X11595000Y17286335D01*
X11539853Y17563574D01*
X11431680Y17824727D01*
X11274637Y18059759D01*
X11074759Y18259637D01*
X10839727Y18416680D01*
X10578574Y18524853D01*
X10301335Y18580000D01*
X10018665Y18580000D01*
X9741426Y18524853D01*
X9480273Y18416680D01*
X9245241Y18259637D01*
X9045363Y18059759D01*
X8888320Y17824727D01*
X8780147Y17563574D01*
X8725000Y17286335D01*
X7878764Y17286335D01*
X7899759Y17300363D01*
X8099637Y17500241D01*
X8256680Y17735273D01*
X8364853Y17996426D01*
X8420000Y18273665D01*
X8420000Y18556335D01*
X8364853Y18833574D01*
X8256680Y19094727D01*
X8099637Y19329759D01*
X7899759Y19529637D01*
X7779487Y19610000D01*
X13810513Y19610000D01*
X13690241Y19529637D01*
X13490363Y19329759D01*
X13333320Y19094727D01*
X13225147Y18833574D01*
X13170000Y18556335D01*
X13170000Y18273665D01*
X13225147Y17996426D01*
X13333320Y17735273D01*
X13490363Y17500241D01*
X13690241Y17300363D01*
X13925273Y17143320D01*
X14186426Y17035147D01*
X14463665Y16980000D01*
X14746335Y16980000D01*
X15023574Y17035147D01*
X15284727Y17143320D01*
X15519759Y17300363D01*
X15719637Y17500241D01*
X15876680Y17735273D01*
X15984853Y17996426D01*
X16040000Y18273665D01*
X16040000Y18556335D01*
X15984853Y18833574D01*
X15876680Y19094727D01*
X15719637Y19329759D01*
X15519759Y19529637D01*
X15399487Y19610000D01*
X17724800Y19610000D01*
X17630723Y19469205D01*
X17564010Y19308145D01*
X17530000Y19137165D01*
X17530000Y18962835D01*
X17564010Y18791855D01*
X17630723Y18630795D01*
X17664663Y18580000D01*
X17638665Y18580000D01*
X17361426Y18524853D01*
X17100273Y18416680D01*
X16865241Y18259637D01*
X16665363Y18059759D01*
X16508320Y17824727D01*
X16400147Y17563574D01*
X16345000Y17286335D01*
X16345000Y17003665D01*
X16400147Y16726426D01*
X16508320Y16465273D01*
X16665363Y16230241D01*
X16816760Y16078844D01*
X16762376Y16062347D01*
X16703379Y16030812D01*
X16634690Y15994097D01*
X16522772Y15902248D01*
X16499756Y15874203D01*
X16343625Y15718072D01*
X15982500Y15718072D01*
X15811684Y15701248D01*
X15647433Y15651423D01*
X15496058Y15570512D01*
X15363377Y15461623D01*
X15263563Y15340000D01*
X15204748Y15340000D01*
X15084637Y15519759D01*
X14884759Y15719637D01*
X14649727Y15876680D01*
X14388574Y15984853D01*
X14111335Y16040000D01*
X13828665Y16040000D01*
X13551426Y15984853D01*
X13290273Y15876680D01*
X13055241Y15719637D01*
X12855363Y15519759D01*
X12698320Y15284727D01*
X12590147Y15023574D01*
X12562434Y14884255D01*
X12550712Y15003279D01*
X12514402Y15122977D01*
X12455437Y15233291D01*
X12376085Y15329982D01*
X12279394Y15409334D01*
X12169080Y15468299D01*
X12049382Y15504609D01*
X11924900Y15516869D01*
X11570100Y15516869D01*
X11445618Y15504609D01*
X11325920Y15468299D01*
X11215606Y15409334D01*
X11118915Y15329982D01*
X11112500Y15322165D01*
X11106085Y15329982D01*
X11009394Y15409334D01*
X10899080Y15468299D01*
X10779382Y15504609D01*
X10654900Y15516869D01*
X10300100Y15516869D01*
X10175618Y15504609D01*
X10160000Y15499871D01*
X10144382Y15504609D01*
X10019900Y15516869D01*
X9665100Y15516869D01*
X9540618Y15504609D01*
X9420920Y15468299D01*
X9310606Y15409334D01*
X9213915Y15329982D01*
X9207500Y15322165D01*
X9201085Y15329982D01*
X9104394Y15409334D01*
X8994080Y15468299D01*
X8874382Y15504609D01*
X8749900Y15516869D01*
X8395100Y15516869D01*
X8270618Y15504609D01*
X8150920Y15468299D01*
X8040606Y15409334D01*
X7943915Y15329982D01*
X7864563Y15233291D01*
X7805598Y15122977D01*
X7788072Y15065202D01*
X7788072Y15405000D01*
X7775812Y15529482D01*
X7739502Y15649180D01*
X7680537Y15759494D01*
X7601185Y15856185D01*
X7504494Y15935537D01*
X7394180Y15994502D01*
X7274482Y16030812D01*
X7150000Y16043072D01*
X5923089Y16043072D01*
X5765410Y16200751D01*
X5743017Y16228037D01*
X5634144Y16317387D01*
X5509932Y16383780D01*
X5375154Y16424664D01*
X5270110Y16435010D01*
X5270100Y16435010D01*
X5234990Y16438468D01*
X5199880Y16435010D01*
X4283671Y16435010D01*
X4522663Y16674002D01*
X4712537Y16958169D01*
X4843325Y17273919D01*
X4910000Y17609117D01*
X4910000Y17950883D01*
X4843325Y18286081D01*
X4712537Y18601831D01*
X4522663Y18885998D01*
X4280998Y19127663D01*
X3996831Y19317537D01*
X3681081Y19448325D01*
X3345883Y19515000D01*
X3004117Y19515000D01*
X2668919Y19448325D01*
X2353169Y19317537D01*
X2069002Y19127663D01*
X1827337Y18885998D01*
X1637463Y18601831D01*
X1506675Y18286081D01*
X1440000Y17950883D01*
X1440000Y17609117D01*
X1506675Y17273919D01*
X1637463Y16958169D01*
X1827337Y16674002D01*
X2069002Y16432337D01*
X2274286Y16295171D01*
X2192483Y16228037D01*
X2170094Y16200756D01*
X2070428Y16101089D01*
X1898001Y16118072D01*
X1345000Y16118072D01*
X1345000Y19015280D01*
X1359005Y19158109D01*
X1390402Y19262101D01*
X1441399Y19358014D01*
X1510055Y19442194D01*
X1593758Y19511440D01*
X1689311Y19563105D01*
X1793078Y19595227D01*
X1933641Y19610000D01*
X6190513Y19610000D01*
X6070241Y19529637D01*
G04 #@! TA.AperFunction,Conductor*
D26*
G36*
X6070241Y19529637D02*
G01*
X5870363Y19329759D01*
X5713320Y19094727D01*
X5605147Y18833574D01*
X5550000Y18556335D01*
X5550000Y18273665D01*
X5605147Y17996426D01*
X5713320Y17735273D01*
X5870363Y17500241D01*
X6070241Y17300363D01*
X6305273Y17143320D01*
X6566426Y17035147D01*
X6843665Y16980000D01*
X7126335Y16980000D01*
X7403574Y17035147D01*
X7664727Y17143320D01*
X7878764Y17286335D01*
X8725000Y17286335D01*
X8725000Y17003665D01*
X8780147Y16726426D01*
X8888320Y16465273D01*
X9045363Y16230241D01*
X9245241Y16030363D01*
X9480273Y15873320D01*
X9741426Y15765147D01*
X10018665Y15710000D01*
X10301335Y15710000D01*
X10578574Y15765147D01*
X10839727Y15873320D01*
X11074759Y16030363D01*
X11274637Y16230241D01*
X11431680Y16465273D01*
X11539853Y16726426D01*
X11595000Y17003665D01*
X11595000Y17286335D01*
X11539853Y17563574D01*
X11431680Y17824727D01*
X11274637Y18059759D01*
X11074759Y18259637D01*
X10839727Y18416680D01*
X10578574Y18524853D01*
X10301335Y18580000D01*
X10018665Y18580000D01*
X9741426Y18524853D01*
X9480273Y18416680D01*
X9245241Y18259637D01*
X9045363Y18059759D01*
X8888320Y17824727D01*
X8780147Y17563574D01*
X8725000Y17286335D01*
X7878764Y17286335D01*
X7899759Y17300363D01*
X8099637Y17500241D01*
X8256680Y17735273D01*
X8364853Y17996426D01*
X8420000Y18273665D01*
X8420000Y18556335D01*
X8364853Y18833574D01*
X8256680Y19094727D01*
X8099637Y19329759D01*
X7899759Y19529637D01*
X7779487Y19610000D01*
X13810513Y19610000D01*
X13690241Y19529637D01*
X13490363Y19329759D01*
X13333320Y19094727D01*
X13225147Y18833574D01*
X13170000Y18556335D01*
X13170000Y18273665D01*
X13225147Y17996426D01*
X13333320Y17735273D01*
X13490363Y17500241D01*
X13690241Y17300363D01*
X13925273Y17143320D01*
X14186426Y17035147D01*
X14463665Y16980000D01*
X14746335Y16980000D01*
X15023574Y17035147D01*
X15284727Y17143320D01*
X15519759Y17300363D01*
X15719637Y17500241D01*
X15876680Y17735273D01*
X15984853Y17996426D01*
X16040000Y18273665D01*
X16040000Y18556335D01*
X15984853Y18833574D01*
X15876680Y19094727D01*
X15719637Y19329759D01*
X15519759Y19529637D01*
X15399487Y19610000D01*
X17724800Y19610000D01*
X17630723Y19469205D01*
X17564010Y19308145D01*
X17530000Y19137165D01*
X17530000Y18962835D01*
X17564010Y18791855D01*
X17630723Y18630795D01*
X17664663Y18580000D01*
X17638665Y18580000D01*
X17361426Y18524853D01*
X17100273Y18416680D01*
X16865241Y18259637D01*
X16665363Y18059759D01*
X16508320Y17824727D01*
X16400147Y17563574D01*
X16345000Y17286335D01*
X16345000Y17003665D01*
X16400147Y16726426D01*
X16508320Y16465273D01*
X16665363Y16230241D01*
X16816760Y16078844D01*
X16762376Y16062347D01*
X16703379Y16030812D01*
X16634690Y15994097D01*
X16522772Y15902248D01*
X16499756Y15874203D01*
X16343625Y15718072D01*
X15982500Y15718072D01*
X15811684Y15701248D01*
X15647433Y15651423D01*
X15496058Y15570512D01*
X15363377Y15461623D01*
X15263563Y15340000D01*
X15204748Y15340000D01*
X15084637Y15519759D01*
X14884759Y15719637D01*
X14649727Y15876680D01*
X14388574Y15984853D01*
X14111335Y16040000D01*
X13828665Y16040000D01*
X13551426Y15984853D01*
X13290273Y15876680D01*
X13055241Y15719637D01*
X12855363Y15519759D01*
X12698320Y15284727D01*
X12590147Y15023574D01*
X12562434Y14884255D01*
X12550712Y15003279D01*
X12514402Y15122977D01*
X12455437Y15233291D01*
X12376085Y15329982D01*
X12279394Y15409334D01*
X12169080Y15468299D01*
X12049382Y15504609D01*
X11924900Y15516869D01*
X11570100Y15516869D01*
X11445618Y15504609D01*
X11325920Y15468299D01*
X11215606Y15409334D01*
X11118915Y15329982D01*
X11112500Y15322165D01*
X11106085Y15329982D01*
X11009394Y15409334D01*
X10899080Y15468299D01*
X10779382Y15504609D01*
X10654900Y15516869D01*
X10300100Y15516869D01*
X10175618Y15504609D01*
X10160000Y15499871D01*
X10144382Y15504609D01*
X10019900Y15516869D01*
X9665100Y15516869D01*
X9540618Y15504609D01*
X9420920Y15468299D01*
X9310606Y15409334D01*
X9213915Y15329982D01*
X9207500Y15322165D01*
X9201085Y15329982D01*
X9104394Y15409334D01*
X8994080Y15468299D01*
X8874382Y15504609D01*
X8749900Y15516869D01*
X8395100Y15516869D01*
X8270618Y15504609D01*
X8150920Y15468299D01*
X8040606Y15409334D01*
X7943915Y15329982D01*
X7864563Y15233291D01*
X7805598Y15122977D01*
X7788072Y15065202D01*
X7788072Y15405000D01*
X7775812Y15529482D01*
X7739502Y15649180D01*
X7680537Y15759494D01*
X7601185Y15856185D01*
X7504494Y15935537D01*
X7394180Y15994502D01*
X7274482Y16030812D01*
X7150000Y16043072D01*
X5923089Y16043072D01*
X5765410Y16200751D01*
X5743017Y16228037D01*
X5634144Y16317387D01*
X5509932Y16383780D01*
X5375154Y16424664D01*
X5270110Y16435010D01*
X5270100Y16435010D01*
X5234990Y16438468D01*
X5199880Y16435010D01*
X4283671Y16435010D01*
X4522663Y16674002D01*
X4712537Y16958169D01*
X4843325Y17273919D01*
X4910000Y17609117D01*
X4910000Y17950883D01*
X4843325Y18286081D01*
X4712537Y18601831D01*
X4522663Y18885998D01*
X4280998Y19127663D01*
X3996831Y19317537D01*
X3681081Y19448325D01*
X3345883Y19515000D01*
X3004117Y19515000D01*
X2668919Y19448325D01*
X2353169Y19317537D01*
X2069002Y19127663D01*
X1827337Y18885998D01*
X1637463Y18601831D01*
X1506675Y18286081D01*
X1440000Y17950883D01*
X1440000Y17609117D01*
X1506675Y17273919D01*
X1637463Y16958169D01*
X1827337Y16674002D01*
X2069002Y16432337D01*
X2274286Y16295171D01*
X2192483Y16228037D01*
X2170094Y16200756D01*
X2070428Y16101089D01*
X1898001Y16118072D01*
X1345000Y16118072D01*
X1345000Y19015280D01*
X1359005Y19158109D01*
X1390402Y19262101D01*
X1441399Y19358014D01*
X1510055Y19442194D01*
X1593758Y19511440D01*
X1689311Y19563105D01*
X1793078Y19595227D01*
X1933641Y19610000D01*
X6190513Y19610000D01*
X6070241Y19529637D01*
G37*
G04 #@! TD.AperFunction*
G04 #@! TD*
M02*
