G04 MADE WITH FRITZING*
G04 WWW.FRITZING.ORG*
G04 DOUBLE SIDED*
G04 HOLES PLATED*
G04 CONTOUR ON CENTER OF CONTOUR VECTOR*
%ASAXBY*%
%FSLAX23Y23*%
%MOIN*%
%OFA0B0*%
%SFA1.0B1.0*%
%ADD10C,0.165354*%
%ADD11C,0.033465*%
%ADD12C,0.074000*%
%ADD13R,0.039370X0.045276*%
%ADD14R,0.055118X0.059055*%
%ADD15R,0.010000X0.045000*%
%ADD16R,0.045000X0.010000*%
%ADD17R,0.035433X0.031496*%
%ADD18R,0.062992X0.102362*%
%ADD19R,0.059055X0.055118*%
%ADD20R,0.024803X0.032677*%
%ADD21R,0.032677X0.024803*%
%ADD22R,0.087000X0.024000*%
%ADD23R,0.094488X0.102362*%
%ADD24R,0.074803X0.062992*%
%ADD25R,0.086614X0.078740*%
%ADD26R,0.026000X0.080000*%
%ADD27R,0.204724X0.204724*%
%ADD28R,0.001000X0.001000*%
%LNPASTEMASK1*%
G90*
G70*
G54D10*
X189Y179D03*
X189Y4565D03*
X189Y2759D03*
X189Y1708D03*
G54D11*
X1799Y2583D03*
X1681Y2583D03*
G54D12*
X2592Y2594D03*
X2592Y2494D03*
X2592Y2394D03*
G54D10*
X3064Y3099D03*
X3064Y2189D03*
G54D13*
X1838Y2694D03*
X1740Y2694D03*
X1642Y2694D03*
X1838Y2472D03*
X1740Y2472D03*
X1642Y2472D03*
G54D14*
X2290Y1819D03*
X2209Y1819D03*
X2640Y3544D03*
X2721Y3544D03*
G54D15*
X3038Y1348D03*
X3058Y1348D03*
X3077Y1348D03*
X3097Y1348D03*
X3117Y1348D03*
X3137Y1348D03*
X3156Y1348D03*
X3176Y1348D03*
X3196Y1348D03*
X3215Y1348D03*
X3235Y1348D03*
X3255Y1348D03*
G54D16*
X3314Y1407D03*
X3314Y1427D03*
X3314Y1447D03*
X3314Y1466D03*
X3314Y1486D03*
X3314Y1506D03*
X3314Y1525D03*
X3314Y1545D03*
X3314Y1565D03*
X3314Y1584D03*
X3314Y1604D03*
X3314Y1624D03*
G54D15*
X3255Y1683D03*
X3235Y1683D03*
X3215Y1683D03*
X3196Y1683D03*
X3176Y1683D03*
X3156Y1683D03*
X3137Y1683D03*
X3117Y1683D03*
X3097Y1683D03*
X3077Y1683D03*
X3058Y1683D03*
X3038Y1683D03*
G54D16*
X2979Y1624D03*
X2979Y1604D03*
X2979Y1584D03*
X2979Y1565D03*
X2979Y1545D03*
X2979Y1525D03*
X2979Y1506D03*
X2979Y1486D03*
X2979Y1466D03*
X2979Y1447D03*
X2979Y1427D03*
X2979Y1407D03*
G54D17*
X2920Y1309D03*
X2920Y1234D03*
X3003Y1271D03*
G54D18*
X2690Y1378D03*
X2690Y1519D03*
G54D14*
X2640Y2094D03*
X2559Y2094D03*
X2560Y2194D03*
X2640Y2194D03*
X2640Y2294D03*
X2559Y2294D03*
G54D19*
X2390Y3794D03*
X2390Y3714D03*
X2290Y3794D03*
X2290Y3714D03*
G54D14*
X2065Y4419D03*
X2146Y4419D03*
X2465Y4419D03*
X2384Y4419D03*
G54D19*
X2090Y3794D03*
X2090Y3714D03*
X2190Y3794D03*
X2190Y3714D03*
X2465Y2189D03*
X2465Y2269D03*
X1565Y1469D03*
X1565Y1389D03*
G54D20*
X1965Y2219D03*
X1875Y2219D03*
G54D21*
X1565Y1319D03*
X1565Y1229D03*
G54D22*
X1065Y1669D03*
X859Y1619D03*
X859Y1719D03*
X1065Y1719D03*
X859Y1669D03*
X1065Y1769D03*
X859Y1769D03*
X1065Y1619D03*
G54D14*
X2115Y1819D03*
X2034Y1819D03*
X759Y2394D03*
X839Y2394D03*
X759Y2494D03*
X839Y2494D03*
X1565Y2294D03*
X1646Y2294D03*
X1565Y2394D03*
X1646Y2394D03*
X1940Y1819D03*
X1859Y1819D03*
G54D20*
X2115Y1694D03*
X2025Y1694D03*
G54D14*
X797Y3044D03*
X716Y3044D03*
X715Y3244D03*
X796Y3244D03*
X715Y2944D03*
X796Y2944D03*
G54D19*
X815Y1114D03*
X815Y1194D03*
X965Y1114D03*
X965Y1194D03*
X965Y1264D03*
X965Y1344D03*
G54D14*
X797Y3144D03*
X716Y3144D03*
G54D19*
X815Y1264D03*
X815Y1344D03*
G54D23*
X2015Y1292D03*
X2015Y1544D03*
G54D14*
X1865Y3994D03*
X1946Y3994D03*
G54D20*
X1665Y4469D03*
X1756Y4469D03*
X1665Y4544D03*
X1756Y4544D03*
X1665Y4319D03*
X1756Y4319D03*
X1665Y4394D03*
X1756Y4394D03*
G54D14*
X840Y2294D03*
X759Y2294D03*
X2315Y4294D03*
X2234Y4294D03*
G54D19*
X1465Y1394D03*
X1465Y1475D03*
X1465Y1219D03*
X1465Y1300D03*
G54D14*
X1365Y1119D03*
X1284Y1119D03*
X2265Y1069D03*
X2184Y1069D03*
X840Y2194D03*
X759Y2194D03*
X2765Y1244D03*
X2846Y1244D03*
X715Y3344D03*
X796Y3344D03*
X797Y2844D03*
X716Y2844D03*
X2471Y1569D03*
X2390Y1569D03*
X1390Y2194D03*
X1309Y2194D03*
X1646Y2194D03*
X1566Y2194D03*
G54D24*
X3640Y1669D03*
X3640Y1791D03*
X3640Y1369D03*
X3640Y1491D03*
X1865Y1419D03*
X1865Y1297D03*
G54D14*
X1865Y4294D03*
X1946Y4294D03*
X2315Y4194D03*
X2234Y4194D03*
X1865Y4194D03*
X1946Y4194D03*
G54D25*
X3465Y1787D03*
X3465Y1669D03*
X3490Y1487D03*
X3490Y1369D03*
G54D19*
X1515Y3794D03*
X1515Y3714D03*
X1315Y3794D03*
X1315Y3714D03*
X1615Y3794D03*
X1615Y3714D03*
X1415Y3794D03*
X1415Y3714D03*
G54D14*
X1165Y4269D03*
X1084Y4269D03*
X1165Y4019D03*
X1084Y4019D03*
X1165Y4369D03*
X1084Y4369D03*
X1165Y4119D03*
X1084Y4119D03*
X2315Y4094D03*
X2234Y4094D03*
X2315Y3994D03*
X2234Y3994D03*
X1865Y4094D03*
X1946Y4094D03*
G54D22*
X1365Y1269D03*
X1159Y1219D03*
X1159Y1319D03*
X1365Y1319D03*
X1159Y1269D03*
X1365Y1369D03*
X1159Y1369D03*
X1365Y1219D03*
X1990Y3694D03*
X1784Y3644D03*
X1784Y3744D03*
X1990Y3744D03*
X1784Y3694D03*
X1990Y3794D03*
X1784Y3794D03*
X1990Y3644D03*
X971Y4319D03*
X765Y4269D03*
X765Y4369D03*
X971Y4369D03*
X765Y4319D03*
X971Y4419D03*
X765Y4419D03*
X971Y4269D03*
X965Y4069D03*
X759Y4019D03*
X759Y4119D03*
X965Y4119D03*
X759Y4069D03*
X965Y4169D03*
X759Y4169D03*
X965Y4019D03*
G54D14*
X1121Y2294D03*
X1040Y2294D03*
X1121Y2194D03*
X1040Y2194D03*
G54D19*
X1765Y1219D03*
X1765Y1300D03*
X1665Y1219D03*
X1665Y1300D03*
X1690Y1444D03*
X1690Y1525D03*
X1690Y1725D03*
X1690Y1644D03*
G54D14*
X2390Y1669D03*
X2471Y1669D03*
X1040Y2394D03*
X1120Y2394D03*
X1040Y2494D03*
X1121Y2494D03*
G54D26*
X2015Y2419D03*
X2065Y2419D03*
X2115Y2419D03*
X2165Y2419D03*
X2215Y2419D03*
X2265Y2419D03*
X2315Y2419D03*
X2365Y2419D03*
X2365Y2661D03*
X2315Y2661D03*
X2265Y2661D03*
X2215Y2661D03*
X2165Y2661D03*
X2115Y2661D03*
X2065Y2661D03*
X2015Y2661D03*
G54D14*
X1309Y2394D03*
X1389Y2394D03*
X1309Y2294D03*
X1389Y2294D03*
X2471Y1469D03*
X2390Y1469D03*
X2389Y1369D03*
X2470Y1369D03*
X2389Y1769D03*
X2470Y1769D03*
X684Y1669D03*
X765Y1669D03*
X765Y1769D03*
X684Y1769D03*
G54D27*
X3147Y1517D03*
G54D28*
D02*
G04 End of PasteMask1*
M02*