; NON-PLATED HOLES START AT T1
; THROUGH (PLATED) HOLES START AT T100
M48
INCH
T1C0.165354
T2C0.125984
T3C0.033465
T100C0.040000
T101C0.031496
T102C0.030000
T103C0.038000
T104C0.043302
T105C0.035433
T106C0.038194
T107C0.042000
T108C0.015748
%
T1
X001885Y027594
X001885Y045645
X030640Y030992
X001885Y001787
X030640Y021893
X001885Y017082
T2
X035400Y038943
X037650Y020193
T3
X016810Y025831
X017991Y025831
T100
X025916Y024943
X025916Y025943
X025916Y026943
X025916Y027943
X025916Y028942
X025916Y023942
T101
X022150Y015896
X022150Y012943
T102
X030895Y041448
X031895Y041448
X032895Y036448
X029895Y041448
X033895Y036448
X032895Y041448
X033895Y041448
X026895Y036448
X027895Y036448
X028895Y036448
X026895Y041448
X030895Y036448
X027895Y041448
X031895Y036448
X028895Y041448
X029895Y036448
T103
X017900Y030443
X012900Y032443
X015900Y033443
X021900Y032443
X018900Y034443
X012900Y028443
X015900Y029443
X033900Y033443
X021900Y028443
X012900Y031443
X010900Y034443
X015900Y032443
X021900Y031443
X018900Y033443
X015900Y028443
X012900Y030443
X018900Y029443
X010900Y033443
X015900Y031443
X021900Y030443
X013900Y034443
X018900Y032443
X037900Y045193
X022900Y034443
X010900Y029443
X018900Y028443
X010900Y032443
X015900Y030443
X018900Y031443
X013900Y033443
X037900Y044193
X016900Y034443
X010900Y028443
X022900Y033443
X013900Y029443
X010900Y031443
X034900Y023193
X022900Y029443
X029650Y035193
X018900Y030443
X013900Y032443
X037900Y043193
X016900Y033443
X022900Y032443
X019900Y034443
X013900Y028443
X010900Y030443
X034900Y022193
X016900Y029443
X022900Y028443
X030650Y035193
X013900Y031443
X037900Y042193
X011900Y034443
X022900Y031443
X016900Y032443
X020900Y034443
X019900Y033443
X034900Y021193
X016900Y028443
X013900Y030443
X019900Y029443
X037900Y041193
X011900Y033443
X016900Y031443
X022900Y030443
X014900Y034443
X020900Y033443
X019900Y032443
X023900Y034443
X011900Y029443
X020900Y029443
X019900Y028443
X037900Y040193
X011900Y032443
X016900Y030443
X019900Y031443
X014900Y033443
X020900Y032443
X017900Y034443
X011900Y028443
X023900Y033443
X014900Y029443
X020900Y028443
X011900Y031443
X023900Y029443
X020900Y031443
X019900Y030443
X014900Y032443
X017900Y033443
X023900Y032443
X014900Y028443
X011900Y030443
X017900Y029443
X023900Y028443
X014900Y031443
X020900Y030443
X012900Y034443
X017900Y032443
X023900Y031443
X021900Y034443
X017900Y028443
X014900Y030443
X017900Y031443
X012900Y033443
X023900Y030443
X015900Y034443
X021900Y033443
X012900Y029443
X033900Y034443
X021900Y029443
T104
X004129Y020567
X005900Y003775
X005900Y038500
X005900Y021748
X005900Y042279
X004129Y024110
X004129Y013460
X004129Y018205
X004129Y007555
X005900Y031413
X004129Y028815
X004129Y030193
X005900Y011098
X005900Y014641
X005900Y008736
X005900Y025291
X005900Y019386
X004129Y036138
X004129Y022929
X004129Y039681
X004129Y015862
X005900Y037319
X004129Y032594
X004129Y012279
X004129Y009917
X005900Y043657
X004129Y026472
X005900Y005153
X005900Y033775
X004129Y040901
X005900Y020567
X004129Y006374
X005900Y024110
X005900Y013460
X005900Y018205
X005900Y007555
X004129Y034957
X005900Y028815
X005900Y030193
X004129Y003775
X004129Y038500
X004129Y021748
X004129Y042279
X004129Y031413
X005900Y036138
X004129Y011098
X005900Y022929
X004129Y014641
X005900Y039681
X005900Y015862
X004129Y008736
X004129Y025291
X004129Y019386
X005900Y032594
X005900Y012279
X005900Y009917
X005900Y026472
X004129Y037319
X005900Y040901
X004129Y043657
X004129Y005153
X005900Y006374
X004129Y033775
X005900Y034957
T105
X037650Y019193
X037650Y012643
X037650Y015443
X037650Y016393
T106
X036900Y031943
X017900Y019943
X017900Y038943
X026900Y019943
X037900Y035943
X026900Y038943
X036900Y027943
X035900Y019943
X036900Y030943
X012300Y038943
X037900Y034943
X036900Y026943
X029900Y019943
X029900Y038943
X012900Y019943
X021900Y019943
X037900Y033943
X021900Y038943
X036900Y025943
X030900Y019943
X015300Y038943
X030900Y038943
X037900Y029943
X015900Y019943
X037900Y032943
X036900Y024943
X024900Y019943
X009300Y038943
X024900Y038943
X033900Y019943
X037900Y028943
X033900Y038943
X037900Y031943
X036900Y023943
X010300Y038943
X018900Y038943
X027900Y038943
X037900Y027943
X010900Y019943
X036900Y038943
X037900Y030943
X036900Y022943
X013300Y038943
X037900Y026943
X036900Y037943
X036900Y021943
X013900Y019943
X022900Y019943
X007300Y038943
X022900Y038943
X037900Y025943
X031900Y019943
X016300Y038943
X036900Y036943
X031900Y038943
X016900Y019943
X037900Y024943
X025900Y019943
X036900Y035943
X034900Y019943
X037900Y023943
X019900Y019943
X011300Y038943
X019900Y038943
X036900Y034943
X028900Y019943
X028900Y038943
X037900Y038943
X011900Y019943
X037900Y022943
X020900Y019943
X020900Y038943
X036900Y033943
X014300Y038943
X037900Y037943
X036900Y029943
X037900Y021943
X014900Y019943
X036900Y032943
X008300Y038943
X023900Y019943
X023900Y038943
X032900Y019943
X037900Y036943
X032900Y038943
X036900Y028943
T107
X007150Y036693
X023670Y012443
X010130Y036693
X026650Y012443
T108
X002150Y034193
X023150Y043943
X011900Y023443
X032546Y014073
X033150Y024193
X022150Y027193
X025400Y037693
X026150Y036193
X013400Y015443
X028412Y015057
X015900Y017193
X035900Y026693
X007400Y020693
X001900Y041193
X032940Y012104
X008900Y025693
X011150Y036943
X035650Y012443
X019150Y016943
X029003Y013679
X018650Y036693
X007400Y042193
X011650Y025693
X035650Y016193
X035650Y039943
X035150Y026443
X029150Y028693
X029150Y016193
X019150Y015943
X023400Y022693
X007650Y045193
X029650Y028693
X005150Y019443
X016900Y041193
X028900Y016693
X033900Y014193
X014650Y023443
X034900Y041193
X008400Y040693
X014150Y011193
X029150Y021943
X030900Y028193
X010900Y015193
X017150Y023443
X026650Y024443
X022150Y014443
X017900Y018693
X018900Y037943
X027900Y037943
X033900Y013193
X015150Y010443
X011900Y015693
X016900Y013693
X030150Y033193
X025400Y016193
X022150Y025943
X027822Y013088
X026900Y017693
X008150Y014943
X022650Y025943
X013900Y014193
X033400Y018443
X026900Y016693
X017650Y026193
X006900Y021443
X009400Y007193
X006650Y043443
X009650Y014193
X031650Y012443
X013900Y025693
X007650Y027443
X009150Y023443
X002150Y029693
X009400Y017693
X024900Y036693
X024900Y035443
X035650Y012943
X028150Y028693
X005150Y040193
X008650Y030943
X026650Y027943
X037650Y013693
X025400Y038443
X028650Y028693
X018400Y023193
X034900Y042443
T00
M30
