  0
SECTION
  2
BLOCKS
  0
ENDSEC
  0
SECTION
  2
ENTITIES
  0
LINE
  8
0
 10
-4
 20
0
 11
-3.96846
 21
-0.501332
  0
LINE
  8
0
 10
-3.96846
 20
-0.501332
 11
-3.87433
 21
-0.994759
  0
LINE
  8
0
 10
-3.87433
 20
-0.994759
 11
-3.71911
 21
-1.4725
  0
LINE
  8
0
 10
-3.71911
 20
-1.4725
 11
-3.50523
 21
-1.92701
  0
LINE
  8
0
 10
-3.50523
 20
-1.92701
 11
-3.23607
 21
-2.35114
  0
LINE
  8
0
 10
-3.23607
 20
-2.35114
 11
-2.91587
 21
-2.73819
  0
LINE
  8
0
 10
-2.91587
 20
-2.73819
 11
-2.5497
 21
-3.08205
  0
LINE
  8
0
 10
-2.5497
 20
-3.08205
 11
-2.14331
 21
-3.37731
  0
LINE
  8
0
 10
-2.14331
 20
-3.37731
 11
-1.70312
 21
-3.61931
  0
LINE
  8
0
 10
-1.70312
 20
-3.61931
 11
-1.23607
 21
-3.80423
  0
LINE
  8
0
 10
-1.23607
 20
-3.80423
 11
-0.749525
 21
-3.92915
  0
LINE
  8
0
 10
-0.749525
 20
-3.92915
 11
-0.251162
 21
-3.99211
  0
LINE
  8
0
 10
-0.251162
 20
-3.99211
 11
95.2712
 21
-3.99211
  0
LINE
  8
0
 10
95.2712
 20
-3.99211
 11
95.7695
 21
-3.92915
  0
LINE
  8
0
 10
95.7695
 20
-3.92915
 11
96.2561
 21
-3.80423
  0
LINE
  8
0
 10
96.2561
 20
-3.80423
 11
96.7231
 21
-3.61931
  0
LINE
  8
0
 10
96.7231
 20
-3.61931
 11
97.1633
 21
-3.37731
  0
LINE
  8
0
 10
97.1633
 20
-3.37731
 11
97.5697
 21
-3.08205
  0
LINE
  8
0
 10
97.5697
 20
-3.08205
 11
97.9359
 21
-2.73819
  0
LINE
  8
0
 10
97.9359
 20
-2.73819
 11
98.2561
 21
-2.35114
  0
LINE
  8
0
 10
98.2561
 20
-2.35114
 11
98.5252
 21
-1.92701
  0
LINE
  8
0
 10
98.5252
 20
-1.92701
 11
98.7391
 21
-1.4725
  0
LINE
  8
0
 10
98.7391
 20
-1.4725
 11
98.8943
 21
-0.994759
  0
LINE
  8
0
 10
98.8943
 20
-0.994759
 11
98.9885
 21
-0.501332
  0
LINE
  8
0
 10
98.9885
 20
-0.501332
 11
99.02
 21
0
  0
LINE
  8
0
 10
99.02
 20
0
 11
99.02
 21
45
  0
LINE
  8
0
 10
99.02
 20
45
 11
98.9885
 21
45.5013
  0
LINE
  8
0
 10
98.9885
 20
45.5013
 11
98.8943
 21
45.9948
  0
LINE
  8
0
 10
98.8943
 20
45.9948
 11
98.7391
 21
46.4725
  0
LINE
  8
0
 10
98.7391
 20
46.4725
 11
98.5252
 21
46.927
  0
LINE
  8
0
 10
98.5252
 20
46.927
 11
98.2561
 21
47.3511
  0
LINE
  8
0
 10
98.2561
 20
47.3511
 11
97.9359
 21
47.7382
  0
LINE
  8
0
 10
97.9359
 20
47.7382
 11
97.5697
 21
48.0821
  0
LINE
  8
0
 10
97.5697
 20
48.0821
 11
97.1633
 21
48.3773
  0
LINE
  8
0
 10
97.1633
 20
48.3773
 11
96.7231
 21
48.6193
  0
LINE
  8
0
 10
96.7231
 20
48.6193
 11
96.2561
 21
48.8042
  0
LINE
  8
0
 10
96.2561
 20
48.8042
 11
95.7695
 21
48.9291
  0
LINE
  8
0
 10
95.7695
 20
48.9291
 11
95.2712
 21
48.9921
  0
LINE
  8
0
 10
95.2712
 20
48.9921
 11
-0.251162
 21
48.9921
  0
LINE
  8
0
 10
-0.251162
 20
48.9921
 11
-0.749525
 21
48.9291
  0
LINE
  8
0
 10
-0.749525
 20
48.9291
 11
-1.23607
 21
48.8042
  0
LINE
  8
0
 10
-1.23607
 20
48.8042
 11
-1.70312
 21
48.6193
  0
LINE
  8
0
 10
-1.70312
 20
48.6193
 11
-2.14331
 21
48.3773
  0
LINE
  8
0
 10
-2.14331
 20
48.3773
 11
-2.5497
 21
48.0821
  0
LINE
  8
0
 10
-2.5497
 20
48.0821
 11
-2.91587
 21
47.7382
  0
LINE
  8
0
 10
-2.91587
 20
47.7382
 11
-3.23607
 21
47.3511
  0
LINE
  8
0
 10
-3.23607
 20
47.3511
 11
-3.50523
 21
46.927
  0
LINE
  8
0
 10
-3.50523
 20
46.927
 11
-3.71911
 21
46.4725
  0
LINE
  8
0
 10
-3.71911
 20
46.4725
 11
-3.87433
 21
45.9948
  0
LINE
  8
0
 10
-3.87433
 20
45.9948
 11
-3.96846
 21
45.5013
  0
LINE
  8
0
 10
-3.96846
 20
45.5013
 11
-4
 21
45
  0
LINE
  8
0
 10
-4
 20
45
 11
-4
 21
0
  0
LINE
  8
0
 10
-2.1891
 20
0
 11
-2.17184
 21
0.274366
  0
LINE
  8
0
 10
-2.17184
 20
0.274366
 11
-2.12033
 21
0.544407
  0
LINE
  8
0
 10
-2.12033
 20
0.544407
 11
-2.03537
 21
0.805861
  0
LINE
  8
0
 10
-2.03537
 20
0.805861
 11
-1.91832
 21
1.05461
  0
LINE
  8
0
 10
-1.91832
 20
1.05461
 11
-1.77102
 21
1.28672
  0
LINE
  8
0
 10
-1.77102
 20
1.28672
 11
-1.59579
 21
1.49854
  0
LINE
  8
0
 10
-1.59579
 20
1.49854
 11
-1.39538
 21
1.68673
  0
LINE
  8
0
 10
-1.39538
 20
1.68673
 11
-1.17298
 21
1.84832
  0
LINE
  8
0
 10
-1.17298
 20
1.84832
 11
-0.932073
 21
1.98076
  0
LINE
  8
0
 10
-0.932073
 20
1.98076
 11
-0.676469
 21
2.08196
  0
LINE
  8
0
 10
-0.676469
 20
2.08196
 11
-0.410196
 21
2.15032
  0
LINE
  8
0
 10
-0.410196
 20
2.15032
 11
-0.137454
 21
2.18478
  0
LINE
  8
0
 10
-0.137454
 20
2.18478
 11
0.137454
 21
2.18478
  0
LINE
  8
0
 10
0.137454
 20
2.18478
 11
0.410196
 21
2.15032
  0
LINE
  8
0
 10
0.410196
 20
2.15032
 11
0.676469
 21
2.08196
  0
LINE
  8
0
 10
0.676469
 20
2.08196
 11
0.932073
 21
1.98076
  0
LINE
  8
0
 10
0.932073
 20
1.98076
 11
1.17298
 21
1.84832
  0
LINE
  8
0
 10
1.17298
 20
1.84832
 11
1.39538
 21
1.68673
  0
LINE
  8
0
 10
1.39538
 20
1.68673
 11
1.59579
 21
1.49854
  0
LINE
  8
0
 10
1.59579
 20
1.49854
 11
1.77102
 21
1.28672
  0
LINE
  8
0
 10
1.77102
 20
1.28672
 11
1.91832
 21
1.05461
  0
LINE
  8
0
 10
1.91832
 20
1.05461
 11
2.03537
 21
0.805861
  0
LINE
  8
0
 10
2.03537
 20
0.805861
 11
2.12033
 21
0.544407
  0
LINE
  8
0
 10
2.12033
 20
0.544407
 11
2.17184
 21
0.274366
  0
LINE
  8
0
 10
2.17184
 20
0.274366
 11
2.1891
 21
0
  0
LINE
  8
0
 10
2.1891
 20
0
 11
2.17184
 21
-0.274366
  0
LINE
  8
0
 10
2.17184
 20
-0.274366
 11
2.12033
 21
-0.544407
  0
LINE
  8
0
 10
2.12033
 20
-0.544407
 11
2.03537
 21
-0.805861
  0
LINE
  8
0
 10
2.03537
 20
-0.805861
 11
1.91832
 21
-1.05461
  0
LINE
  8
0
 10
1.91832
 20
-1.05461
 11
1.77102
 21
-1.28672
  0
LINE
  8
0
 10
1.77102
 20
-1.28672
 11
1.59579
 21
-1.49854
  0
LINE
  8
0
 10
1.59579
 20
-1.49854
 11
1.39538
 21
-1.68673
  0
LINE
  8
0
 10
1.39538
 20
-1.68673
 11
1.17298
 21
-1.84832
  0
LINE
  8
0
 10
1.17298
 20
-1.84832
 11
0.932073
 21
-1.98076
  0
LINE
  8
0
 10
0.932073
 20
-1.98076
 11
0.676469
 21
-2.08196
  0
LINE
  8
0
 10
0.676469
 20
-2.08196
 11
0.410196
 21
-2.15032
  0
LINE
  8
0
 10
0.410196
 20
-2.15032
 11
0.137454
 21
-2.18478
  0
LINE
  8
0
 10
0.137454
 20
-2.18478
 11
-0.137454
 21
-2.18478
  0
LINE
  8
0
 10
-0.137454
 20
-2.18478
 11
-0.410196
 21
-2.15032
  0
LINE
  8
0
 10
-0.410196
 20
-2.15032
 11
-0.676469
 21
-2.08196
  0
LINE
  8
0
 10
-0.676469
 20
-2.08196
 11
-0.932073
 21
-1.98076
  0
LINE
  8
0
 10
-0.932073
 20
-1.98076
 11
-1.17298
 21
-1.84832
  0
LINE
  8
0
 10
-1.17298
 20
-1.84832
 11
-1.39538
 21
-1.68673
  0
LINE
  8
0
 10
-1.39538
 20
-1.68673
 11
-1.59579
 21
-1.49854
  0
LINE
  8
0
 10
-1.59579
 20
-1.49854
 11
-1.77102
 21
-1.28672
  0
LINE
  8
0
 10
-1.77102
 20
-1.28672
 11
-1.91832
 21
-1.05461
  0
LINE
  8
0
 10
-1.91832
 20
-1.05461
 11
-2.03537
 21
-0.805861
  0
LINE
  8
0
 10
-2.03537
 20
-0.805861
 11
-2.12033
 21
-0.544407
  0
LINE
  8
0
 10
-2.12033
 20
-0.544407
 11
-2.17184
 21
-0.274366
  0
LINE
  8
0
 10
-2.17184
 20
-0.274366
 11
-2.1891
 21
0
  0
LINE
  8
0
 10
-2.1891
 20
45
 11
-2.17184
 21
45.2744
  0
LINE
  8
0
 10
-2.17184
 20
45.2744
 11
-2.12033
 21
45.5444
  0
LINE
  8
0
 10
-2.12033
 20
45.5444
 11
-2.03537
 21
45.8059
  0
LINE
  8
0
 10
-2.03537
 20
45.8059
 11
-1.91832
 21
46.0546
  0
LINE
  8
0
 10
-1.91832
 20
46.0546
 11
-1.77102
 21
46.2867
  0
LINE
  8
0
 10
-1.77102
 20
46.2867
 11
-1.59579
 21
46.4985
  0
LINE
  8
0
 10
-1.59579
 20
46.4985
 11
-1.39538
 21
46.6867
  0
LINE
  8
0
 10
-1.39538
 20
46.6867
 11
-1.17298
 21
46.8483
  0
LINE
  8
0
 10
-1.17298
 20
46.8483
 11
-0.932073
 21
46.9808
  0
LINE
  8
0
 10
-0.932073
 20
46.9808
 11
-0.676469
 21
47.082
  0
LINE
  8
0
 10
-0.676469
 20
47.082
 11
-0.410196
 21
47.1503
  0
LINE
  8
0
 10
-0.410196
 20
47.1503
 11
-0.137454
 21
47.1848
  0
LINE
  8
0
 10
-0.137454
 20
47.1848
 11
0.137454
 21
47.1848
  0
LINE
  8
0
 10
0.137454
 20
47.1848
 11
0.410196
 21
47.1503
  0
LINE
  8
0
 10
0.410196
 20
47.1503
 11
0.676469
 21
47.082
  0
LINE
  8
0
 10
0.676469
 20
47.082
 11
0.932073
 21
46.9808
  0
LINE
  8
0
 10
0.932073
 20
46.9808
 11
1.17298
 21
46.8483
  0
LINE
  8
0
 10
1.17298
 20
46.8483
 11
1.39538
 21
46.6867
  0
LINE
  8
0
 10
1.39538
 20
46.6867
 11
1.59579
 21
46.4985
  0
LINE
  8
0
 10
1.59579
 20
46.4985
 11
1.77102
 21
46.2867
  0
LINE
  8
0
 10
1.77102
 20
46.2867
 11
1.91832
 21
46.0546
  0
LINE
  8
0
 10
1.91832
 20
46.0546
 11
2.03537
 21
45.8059
  0
LINE
  8
0
 10
2.03537
 20
45.8059
 11
2.12033
 21
45.5444
  0
LINE
  8
0
 10
2.12033
 20
45.5444
 11
2.17184
 21
45.2744
  0
LINE
  8
0
 10
2.17184
 20
45.2744
 11
2.1891
 21
45
  0
LINE
  8
0
 10
2.1891
 20
45
 11
2.17184
 21
44.7256
  0
LINE
  8
0
 10
2.17184
 20
44.7256
 11
2.12033
 21
44.4556
  0
LINE
  8
0
 10
2.12033
 20
44.4556
 11
2.03537
 21
44.1941
  0
LINE
  8
0
 10
2.03537
 20
44.1941
 11
1.91832
 21
43.9454
  0
LINE
  8
0
 10
1.91832
 20
43.9454
 11
1.77102
 21
43.7133
  0
LINE
  8
0
 10
1.77102
 20
43.7133
 11
1.59579
 21
43.5015
  0
LINE
  8
0
 10
1.59579
 20
43.5015
 11
1.39538
 21
43.3133
  0
LINE
  8
0
 10
1.39538
 20
43.3133
 11
1.17298
 21
43.1517
  0
LINE
  8
0
 10
1.17298
 20
43.1517
 11
0.932073
 21
43.0192
  0
LINE
  8
0
 10
0.932073
 20
43.0192
 11
0.676469
 21
42.918
  0
LINE
  8
0
 10
0.676469
 20
42.918
 11
0.410196
 21
42.8497
  0
LINE
  8
0
 10
0.410196
 20
42.8497
 11
0.137454
 21
42.8152
  0
LINE
  8
0
 10
0.137454
 20
42.8152
 11
-0.137454
 21
42.8152
  0
LINE
  8
0
 10
-0.137454
 20
42.8152
 11
-0.410196
 21
42.8497
  0
LINE
  8
0
 10
-0.410196
 20
42.8497
 11
-0.676469
 21
42.918
  0
LINE
  8
0
 10
-0.676469
 20
42.918
 11
-0.932073
 21
43.0192
  0
LINE
  8
0
 10
-0.932073
 20
43.0192
 11
-1.17298
 21
43.1517
  0
LINE
  8
0
 10
-1.17298
 20
43.1517
 11
-1.39538
 21
43.3133
  0
LINE
  8
0
 10
-1.39538
 20
43.3133
 11
-1.59579
 21
43.5015
  0
LINE
  8
0
 10
-1.59579
 20
43.5015
 11
-1.77102
 21
43.7133
  0
LINE
  8
0
 10
-1.77102
 20
43.7133
 11
-1.91832
 21
43.9454
  0
LINE
  8
0
 10
-1.91832
 20
43.9454
 11
-2.03537
 21
44.1941
  0
LINE
  8
0
 10
-2.03537
 20
44.1941
 11
-2.12033
 21
44.4556
  0
LINE
  8
0
 10
-2.12033
 20
44.4556
 11
-2.17184
 21
44.7256
  0
LINE
  8
0
 10
-2.17184
 20
44.7256
 11
-2.1891
 21
45
  0
LINE
  8
0
 10
92.8309
 20
0
 11
92.8482
 21
0.274366
  0
LINE
  8
0
 10
92.8482
 20
0.274366
 11
92.8997
 21
0.544407
  0
LINE
  8
0
 10
92.8997
 20
0.544407
 11
92.9846
 21
0.805861
  0
LINE
  8
0
 10
92.9846
 20
0.805861
 11
93.1017
 21
1.05461
  0
LINE
  8
0
 10
93.1017
 20
1.05461
 11
93.249
 21
1.28672
  0
LINE
  8
0
 10
93.249
 20
1.28672
 11
93.4242
 21
1.49854
  0
LINE
  8
0
 10
93.4242
 20
1.49854
 11
93.6246
 21
1.68673
  0
LINE
  8
0
 10
93.6246
 20
1.68673
 11
93.847
 21
1.84832
  0
LINE
  8
0
 10
93.847
 20
1.84832
 11
94.0879
 21
1.98076
  0
LINE
  8
0
 10
94.0879
 20
1.98076
 11
94.3435
 21
2.08196
  0
LINE
  8
0
 10
94.3435
 20
2.08196
 11
94.6098
 21
2.15032
  0
LINE
  8
0
 10
94.6098
 20
2.15032
 11
94.8825
 21
2.18478
  0
LINE
  8
0
 10
94.8825
 20
2.18478
 11
95.1575
 21
2.18478
  0
LINE
  8
0
 10
95.1575
 20
2.18478
 11
95.4302
 21
2.15032
  0
LINE
  8
0
 10
95.4302
 20
2.15032
 11
95.6965
 21
2.08196
  0
LINE
  8
0
 10
95.6965
 20
2.08196
 11
95.9521
 21
1.98076
  0
LINE
  8
0
 10
95.9521
 20
1.98076
 11
96.193
 21
1.84832
  0
LINE
  8
0
 10
96.193
 20
1.84832
 11
96.4154
 21
1.68673
  0
LINE
  8
0
 10
96.4154
 20
1.68673
 11
96.6158
 21
1.49854
  0
LINE
  8
0
 10
96.6158
 20
1.49854
 11
96.791
 21
1.28672
  0
LINE
  8
0
 10
96.791
 20
1.28672
 11
96.9383
 21
1.05461
  0
LINE
  8
0
 10
96.9383
 20
1.05461
 11
97.0554
 21
0.805861
  0
LINE
  8
0
 10
97.0554
 20
0.805861
 11
97.1403
 21
0.544407
  0
LINE
  8
0
 10
97.1403
 20
0.544407
 11
97.1918
 21
0.274366
  0
LINE
  8
0
 10
97.1918
 20
0.274366
 11
97.2091
 21
0
  0
LINE
  8
0
 10
97.2091
 20
0
 11
97.1918
 21
-0.274366
  0
LINE
  8
0
 10
97.1918
 20
-0.274366
 11
97.1403
 21
-0.544407
  0
LINE
  8
0
 10
97.1403
 20
-0.544407
 11
97.0554
 21
-0.805861
  0
LINE
  8
0
 10
97.0554
 20
-0.805861
 11
96.9383
 21
-1.05461
  0
LINE
  8
0
 10
96.9383
 20
-1.05461
 11
96.791
 21
-1.28672
  0
LINE
  8
0
 10
96.791
 20
-1.28672
 11
96.6158
 21
-1.49854
  0
LINE
  8
0
 10
96.6158
 20
-1.49854
 11
96.4154
 21
-1.68673
  0
LINE
  8
0
 10
96.4154
 20
-1.68673
 11
96.193
 21
-1.84832
  0
LINE
  8
0
 10
96.193
 20
-1.84832
 11
95.9521
 21
-1.98076
  0
LINE
  8
0
 10
95.9521
 20
-1.98076
 11
95.6965
 21
-2.08196
  0
LINE
  8
0
 10
95.6965
 20
-2.08196
 11
95.4302
 21
-2.15032
  0
LINE
  8
0
 10
95.4302
 20
-2.15032
 11
95.1575
 21
-2.18478
  0
LINE
  8
0
 10
95.1575
 20
-2.18478
 11
94.8825
 21
-2.18478
  0
LINE
  8
0
 10
94.8825
 20
-2.18478
 11
94.6098
 21
-2.15032
  0
LINE
  8
0
 10
94.6098
 20
-2.15032
 11
94.3435
 21
-2.08196
  0
LINE
  8
0
 10
94.3435
 20
-2.08196
 11
94.0879
 21
-1.98076
  0
LINE
  8
0
 10
94.0879
 20
-1.98076
 11
93.847
 21
-1.84832
  0
LINE
  8
0
 10
93.847
 20
-1.84832
 11
93.6246
 21
-1.68673
  0
LINE
  8
0
 10
93.6246
 20
-1.68673
 11
93.4242
 21
-1.49854
  0
LINE
  8
0
 10
93.4242
 20
-1.49854
 11
93.249
 21
-1.28672
  0
LINE
  8
0
 10
93.249
 20
-1.28672
 11
93.1017
 21
-1.05461
  0
LINE
  8
0
 10
93.1017
 20
-1.05461
 11
92.9846
 21
-0.805861
  0
LINE
  8
0
 10
92.9846
 20
-0.805861
 11
92.8997
 21
-0.544407
  0
LINE
  8
0
 10
92.8997
 20
-0.544407
 11
92.8482
 21
-0.274366
  0
LINE
  8
0
 10
92.8482
 20
-0.274366
 11
92.8309
 21
0
  0
LINE
  8
0
 10
92.8309
 20
45
 11
92.8482
 21
45.2744
  0
LINE
  8
0
 10
92.8482
 20
45.2744
 11
92.8997
 21
45.5444
  0
LINE
  8
0
 10
92.8997
 20
45.5444
 11
92.9846
 21
45.8059
  0
LINE
  8
0
 10
92.9846
 20
45.8059
 11
93.1017
 21
46.0546
  0
LINE
  8
0
 10
93.1017
 20
46.0546
 11
93.249
 21
46.2867
  0
LINE
  8
0
 10
93.249
 20
46.2867
 11
93.4242
 21
46.4985
  0
LINE
  8
0
 10
93.4242
 20
46.4985
 11
93.6246
 21
46.6867
  0
LINE
  8
0
 10
93.6246
 20
46.6867
 11
93.847
 21
46.8483
  0
LINE
  8
0
 10
93.847
 20
46.8483
 11
94.0879
 21
46.9808
  0
LINE
  8
0
 10
94.0879
 20
46.9808
 11
94.3435
 21
47.082
  0
LINE
  8
0
 10
94.3435
 20
47.082
 11
94.6098
 21
47.1503
  0
LINE
  8
0
 10
94.6098
 20
47.1503
 11
94.8825
 21
47.1848
  0
LINE
  8
0
 10
94.8825
 20
47.1848
 11
95.1575
 21
47.1848
  0
LINE
  8
0
 10
95.1575
 20
47.1848
 11
95.4302
 21
47.1503
  0
LINE
  8
0
 10
95.4302
 20
47.1503
 11
95.6965
 21
47.082
  0
LINE
  8
0
 10
95.6965
 20
47.082
 11
95.9521
 21
46.9808
  0
LINE
  8
0
 10
95.9521
 20
46.9808
 11
96.193
 21
46.8483
  0
LINE
  8
0
 10
96.193
 20
46.8483
 11
96.4154
 21
46.6867
  0
LINE
  8
0
 10
96.4154
 20
46.6867
 11
96.6158
 21
46.4985
  0
LINE
  8
0
 10
96.6158
 20
46.4985
 11
96.791
 21
46.2867
  0
LINE
  8
0
 10
96.791
 20
46.2867
 11
96.9383
 21
46.0546
  0
LINE
  8
0
 10
96.9383
 20
46.0546
 11
97.0554
 21
45.8059
  0
LINE
  8
0
 10
97.0554
 20
45.8059
 11
97.1403
 21
45.5444
  0
LINE
  8
0
 10
97.1403
 20
45.5444
 11
97.1918
 21
45.2744
  0
LINE
  8
0
 10
97.1918
 20
45.2744
 11
97.2091
 21
45
  0
LINE
  8
0
 10
97.2091
 20
45
 11
97.1918
 21
44.7256
  0
LINE
  8
0
 10
97.1918
 20
44.7256
 11
97.1403
 21
44.4556
  0
LINE
  8
0
 10
97.1403
 20
44.4556
 11
97.0554
 21
44.1941
  0
LINE
  8
0
 10
97.0554
 20
44.1941
 11
96.9383
 21
43.9454
  0
LINE
  8
0
 10
96.9383
 20
43.9454
 11
96.791
 21
43.7133
  0
LINE
  8
0
 10
96.791
 20
43.7133
 11
96.6158
 21
43.5015
  0
LINE
  8
0
 10
96.6158
 20
43.5015
 11
96.4154
 21
43.3133
  0
LINE
  8
0
 10
96.4154
 20
43.3133
 11
96.193
 21
43.1517
  0
LINE
  8
0
 10
96.193
 20
43.1517
 11
95.9521
 21
43.0192
  0
LINE
  8
0
 10
95.9521
 20
43.0192
 11
95.6965
 21
42.918
  0
LINE
  8
0
 10
95.6965
 20
42.918
 11
95.4302
 21
42.8497
  0
LINE
  8
0
 10
95.4302
 20
42.8497
 11
95.1575
 21
42.8152
  0
LINE
  8
0
 10
95.1575
 20
42.8152
 11
94.8825
 21
42.8152
  0
LINE
  8
0
 10
94.8825
 20
42.8152
 11
94.6098
 21
42.8497
  0
LINE
  8
0
 10
94.6098
 20
42.8497
 11
94.3435
 21
42.918
  0
LINE
  8
0
 10
94.3435
 20
42.918
 11
94.0879
 21
43.0192
  0
LINE
  8
0
 10
94.0879
 20
43.0192
 11
93.847
 21
43.1517
  0
LINE
  8
0
 10
93.847
 20
43.1517
 11
93.6246
 21
43.3133
  0
LINE
  8
0
 10
93.6246
 20
43.3133
 11
93.4242
 21
43.5015
  0
LINE
  8
0
 10
93.4242
 20
43.5015
 11
93.249
 21
43.7133
  0
LINE
  8
0
 10
93.249
 20
43.7133
 11
93.1017
 21
43.9454
  0
LINE
  8
0
 10
93.1017
 20
43.9454
 11
92.9846
 21
44.1941
  0
LINE
  8
0
 10
92.9846
 20
44.1941
 11
92.8997
 21
44.4556
  0
LINE
  8
0
 10
92.8997
 20
44.4556
 11
92.8482
 21
44.7256
  0
LINE
  8
0
 10
92.8482
 20
44.7256
 11
92.8309
 21
45
  0
ENDSEC
  0
SECTION
  2
OBJECTS
  0
DICTIONARY
  0
ENDSEC
  0
EOF
