G04 MADE WITH FRITZING*
G04 WWW.FRITZING.ORG*
G04 DOUBLE SIDED*
G04 HOLES PLATED*
G04 CONTOUR ON CENTER OF CONTOUR VECTOR*
%ASAXBY*%
%FSLAX23Y23*%
%MOIN*%
%OFA0B0*%
%SFA1.0B1.0*%
%ADD10R,3.937010X3.937010X3.921010X3.921010*%
%ADD11C,0.008000*%
%ADD12C,0.006000*%
%ADD13R,0.001000X0.001000*%
%LNSILK0*%
G90*
G70*
G54D11*
X4Y3933D02*
X3933Y3933D01*
X3933Y4D01*
X4Y4D01*
X4Y3933D01*
D02*
G54D12*
X2868Y964D02*
X2931Y964D01*
D02*
X2857Y974D02*
X2857Y1033D01*
D02*
X2943Y974D02*
X2943Y1033D01*
D02*
X2931Y1042D02*
X2868Y1042D01*
G54D13*
X2863Y1045D02*
X2868Y1045D01*
X2931Y1045D02*
X2936Y1045D01*
X2861Y1044D02*
X2868Y1044D01*
X2931Y1044D02*
X2938Y1044D01*
X2859Y1043D02*
X2867Y1043D01*
X2931Y1043D02*
X2940Y1043D01*
X2858Y1042D02*
X2867Y1042D01*
X2932Y1042D02*
X2941Y1042D01*
X2857Y1041D02*
X2867Y1041D01*
X2932Y1041D02*
X2942Y1041D01*
X2856Y1040D02*
X2867Y1040D01*
X2932Y1040D02*
X2943Y1040D01*
X2856Y1039D02*
X2862Y1039D01*
X2937Y1039D02*
X2943Y1039D01*
X2855Y1038D02*
X2861Y1038D01*
X2938Y1038D02*
X2944Y1038D01*
X2855Y1037D02*
X2860Y1037D01*
X2939Y1037D02*
X2944Y1037D01*
X2854Y1036D02*
X2860Y1036D01*
X2939Y1036D02*
X2945Y1036D01*
X2854Y1035D02*
X2859Y1035D01*
X2940Y1035D02*
X2945Y1035D01*
X2854Y1034D02*
X2859Y1034D01*
X2940Y1034D02*
X2945Y1034D01*
X2857Y1033D02*
X2858Y1033D01*
X2940Y1033D02*
X2942Y1033D01*
X2857Y974D02*
X2859Y974D01*
X2940Y974D02*
X2942Y974D01*
X2854Y973D02*
X2859Y973D01*
X2940Y973D02*
X2945Y973D01*
X2854Y972D02*
X2859Y972D01*
X2940Y972D02*
X2945Y972D01*
X2854Y971D02*
X2860Y971D01*
X2939Y971D02*
X2945Y971D01*
X2855Y970D02*
X2860Y970D01*
X2939Y970D02*
X2944Y970D01*
X2855Y969D02*
X2861Y969D01*
X2938Y969D02*
X2944Y969D01*
X2856Y968D02*
X2863Y968D01*
X2936Y968D02*
X2943Y968D01*
X2856Y967D02*
X2867Y967D01*
X2932Y967D02*
X2943Y967D01*
X2857Y966D02*
X2867Y966D01*
X2932Y966D02*
X2942Y966D01*
X2858Y965D02*
X2867Y965D01*
X2932Y965D02*
X2941Y965D01*
X2859Y964D02*
X2867Y964D01*
X2931Y964D02*
X2940Y964D01*
X2861Y963D02*
X2868Y963D01*
X2931Y963D02*
X2938Y963D01*
X2863Y962D02*
X2868Y962D01*
X2931Y962D02*
X2936Y962D01*
X2845Y952D02*
X2863Y952D01*
X2886Y952D02*
X2889Y952D01*
X2938Y952D02*
X2960Y952D01*
X2845Y951D02*
X2864Y951D01*
X2885Y951D02*
X2890Y951D01*
X2936Y951D02*
X2961Y951D01*
X2845Y950D02*
X2864Y950D01*
X2885Y950D02*
X2890Y950D01*
X2934Y950D02*
X2963Y950D01*
X2845Y949D02*
X2864Y949D01*
X2885Y949D02*
X2890Y949D01*
X2933Y949D02*
X2963Y949D01*
X2845Y948D02*
X2864Y948D01*
X2884Y948D02*
X2891Y948D01*
X2933Y948D02*
X2964Y948D01*
X2845Y947D02*
X2864Y947D01*
X2884Y947D02*
X2891Y947D01*
X2932Y947D02*
X2964Y947D01*
X2845Y946D02*
X2863Y946D01*
X2884Y946D02*
X2891Y946D01*
X2932Y946D02*
X2965Y946D01*
X2845Y945D02*
X2851Y945D01*
X2884Y945D02*
X2891Y945D01*
X2931Y945D02*
X2938Y945D01*
X2959Y945D02*
X2965Y945D01*
X2845Y944D02*
X2851Y944D01*
X2884Y944D02*
X2891Y944D01*
X2931Y944D02*
X2938Y944D01*
X2959Y944D02*
X2965Y944D01*
X2845Y943D02*
X2851Y943D01*
X2884Y943D02*
X2891Y943D01*
X2931Y943D02*
X2937Y943D01*
X2958Y943D02*
X2965Y943D01*
X2845Y942D02*
X2851Y942D01*
X2884Y942D02*
X2891Y942D01*
X2931Y942D02*
X2937Y942D01*
X2957Y942D02*
X2964Y942D01*
X2845Y941D02*
X2851Y941D01*
X2884Y941D02*
X2891Y941D01*
X2932Y941D02*
X2937Y941D01*
X2956Y941D02*
X2964Y941D01*
X2845Y940D02*
X2851Y940D01*
X2884Y940D02*
X2891Y940D01*
X2933Y940D02*
X2935Y940D01*
X2955Y940D02*
X2963Y940D01*
X2845Y939D02*
X2851Y939D01*
X2884Y939D02*
X2891Y939D01*
X2955Y939D02*
X2963Y939D01*
X2845Y938D02*
X2851Y938D01*
X2884Y938D02*
X2891Y938D01*
X2954Y938D02*
X2962Y938D01*
X2845Y937D02*
X2851Y937D01*
X2884Y937D02*
X2891Y937D01*
X2953Y937D02*
X2961Y937D01*
X2845Y936D02*
X2851Y936D01*
X2884Y936D02*
X2891Y936D01*
X2952Y936D02*
X2960Y936D01*
X2845Y935D02*
X2851Y935D01*
X2884Y935D02*
X2891Y935D01*
X2952Y935D02*
X2960Y935D01*
X2845Y934D02*
X2851Y934D01*
X2884Y934D02*
X2891Y934D01*
X2951Y934D02*
X2959Y934D01*
X2845Y933D02*
X2851Y933D01*
X2884Y933D02*
X2891Y933D01*
X2950Y933D02*
X2958Y933D01*
X2845Y932D02*
X2851Y932D01*
X2884Y932D02*
X2891Y932D01*
X2949Y932D02*
X2957Y932D01*
X2845Y931D02*
X2851Y931D01*
X2884Y931D02*
X2891Y931D01*
X2948Y931D02*
X2956Y931D01*
X2845Y930D02*
X2851Y930D01*
X2884Y930D02*
X2891Y930D01*
X2948Y930D02*
X2956Y930D01*
X2845Y929D02*
X2851Y929D01*
X2884Y929D02*
X2891Y929D01*
X2947Y929D02*
X2955Y929D01*
X2845Y928D02*
X2851Y928D01*
X2884Y928D02*
X2891Y928D01*
X2946Y928D02*
X2954Y928D01*
X2845Y927D02*
X2851Y927D01*
X2884Y927D02*
X2891Y927D01*
X2945Y927D02*
X2953Y927D01*
X2845Y926D02*
X2851Y926D01*
X2884Y926D02*
X2891Y926D01*
X2945Y926D02*
X2953Y926D01*
X2845Y925D02*
X2851Y925D01*
X2884Y925D02*
X2891Y925D01*
X2944Y925D02*
X2952Y925D01*
X2845Y924D02*
X2851Y924D01*
X2884Y924D02*
X2891Y924D01*
X2943Y924D02*
X2951Y924D01*
X2845Y923D02*
X2851Y923D01*
X2884Y923D02*
X2891Y923D01*
X2942Y923D02*
X2950Y923D01*
X2832Y922D02*
X2836Y922D01*
X2845Y922D02*
X2851Y922D01*
X2884Y922D02*
X2891Y922D01*
X2906Y922D02*
X2910Y922D01*
X2941Y922D02*
X2949Y922D01*
X2831Y921D02*
X2836Y921D01*
X2845Y921D02*
X2851Y921D01*
X2884Y921D02*
X2891Y921D01*
X2906Y921D02*
X2911Y921D01*
X2941Y921D02*
X2949Y921D01*
X2831Y920D02*
X2837Y920D01*
X2845Y920D02*
X2851Y920D01*
X2884Y920D02*
X2891Y920D01*
X2905Y920D02*
X2911Y920D01*
X2940Y920D02*
X2948Y920D01*
X2831Y919D02*
X2837Y919D01*
X2845Y919D02*
X2851Y919D01*
X2884Y919D02*
X2891Y919D01*
X2905Y919D02*
X2911Y919D01*
X2939Y919D02*
X2947Y919D01*
X2831Y918D02*
X2837Y918D01*
X2845Y918D02*
X2851Y918D01*
X2884Y918D02*
X2891Y918D01*
X2905Y918D02*
X2911Y918D01*
X2938Y918D02*
X2946Y918D01*
X2831Y917D02*
X2837Y917D01*
X2845Y917D02*
X2851Y917D01*
X2884Y917D02*
X2891Y917D01*
X2905Y917D02*
X2911Y917D01*
X2938Y917D02*
X2946Y917D01*
X2831Y916D02*
X2837Y916D01*
X2845Y916D02*
X2851Y916D01*
X2884Y916D02*
X2891Y916D01*
X2905Y916D02*
X2911Y916D01*
X2937Y916D02*
X2945Y916D01*
X2831Y915D02*
X2837Y915D01*
X2845Y915D02*
X2851Y915D01*
X2884Y915D02*
X2891Y915D01*
X2905Y915D02*
X2911Y915D01*
X2936Y915D02*
X2944Y915D01*
X2831Y914D02*
X2837Y914D01*
X2845Y914D02*
X2851Y914D01*
X2884Y914D02*
X2891Y914D01*
X2905Y914D02*
X2911Y914D01*
X2935Y914D02*
X2943Y914D01*
X2831Y913D02*
X2837Y913D01*
X2845Y913D02*
X2851Y913D01*
X2884Y913D02*
X2891Y913D01*
X2905Y913D02*
X2911Y913D01*
X2934Y913D02*
X2943Y913D01*
X2831Y912D02*
X2837Y912D01*
X2845Y912D02*
X2851Y912D01*
X2884Y912D02*
X2891Y912D01*
X2905Y912D02*
X2911Y912D01*
X2934Y912D02*
X2942Y912D01*
X2831Y911D02*
X2837Y911D01*
X2845Y911D02*
X2851Y911D01*
X2884Y911D02*
X2891Y911D01*
X2905Y911D02*
X2911Y911D01*
X2933Y911D02*
X2941Y911D01*
X2961Y911D02*
X2962Y911D01*
X2831Y910D02*
X2837Y910D01*
X2845Y910D02*
X2851Y910D01*
X2884Y910D02*
X2891Y910D01*
X2905Y910D02*
X2911Y910D01*
X2932Y910D02*
X2940Y910D01*
X2960Y910D02*
X2964Y910D01*
X2831Y909D02*
X2837Y909D01*
X2845Y909D02*
X2851Y909D01*
X2885Y909D02*
X2891Y909D01*
X2905Y909D02*
X2911Y909D01*
X2932Y909D02*
X2939Y909D01*
X2959Y909D02*
X2965Y909D01*
X2831Y908D02*
X2837Y908D01*
X2845Y908D02*
X2851Y908D01*
X2885Y908D02*
X2891Y908D01*
X2905Y908D02*
X2911Y908D01*
X2931Y908D02*
X2939Y908D01*
X2959Y908D02*
X2965Y908D01*
X2831Y907D02*
X2837Y907D01*
X2845Y907D02*
X2851Y907D01*
X2885Y907D02*
X2891Y907D01*
X2905Y907D02*
X2911Y907D01*
X2931Y907D02*
X2938Y907D01*
X2959Y907D02*
X2965Y907D01*
X2831Y906D02*
X2837Y906D01*
X2845Y906D02*
X2851Y906D01*
X2885Y906D02*
X2892Y906D01*
X2904Y906D02*
X2911Y906D01*
X2931Y906D02*
X2937Y906D01*
X2958Y906D02*
X2965Y906D01*
X2831Y905D02*
X2862Y905D01*
X2885Y905D02*
X2910Y905D01*
X2931Y905D02*
X2964Y905D01*
X2831Y904D02*
X2864Y904D01*
X2886Y904D02*
X2910Y904D01*
X2932Y904D02*
X2964Y904D01*
X2831Y903D02*
X2864Y903D01*
X2886Y903D02*
X2909Y903D01*
X2932Y903D02*
X2964Y903D01*
X2831Y902D02*
X2864Y902D01*
X2887Y902D02*
X2909Y902D01*
X2933Y902D02*
X2963Y902D01*
X2831Y901D02*
X2864Y901D01*
X2888Y901D02*
X2908Y901D01*
X2933Y901D02*
X2962Y901D01*
X2831Y900D02*
X2864Y900D01*
X2889Y900D02*
X2906Y900D01*
X2934Y900D02*
X2961Y900D01*
X2832Y899D02*
X2863Y899D01*
X2891Y899D02*
X2904Y899D01*
X2936Y899D02*
X2959Y899D01*
D02*
G04 End of Silk0*
M02*