; NON-PLATED HOLES START AT T1
; THROUGH (PLATED) HOLES START AT T100
M48
INCH
T1C0.165354
T2C0.125984
T3C0.033465
T100C0.015748
T101C0.040000
T102C0.031496
T103C0.030000
T104C0.038000
T105C0.043302
T106C0.035433
T107C0.038194
T108C0.042000
%
T1
X001895Y003148
X030651Y013731
X001895Y036497
X001895Y018448
X030651Y022829
T2
X035411Y030780
X037661Y012030
T3
X018002Y017668
X016821Y017668
T100
X006411Y035280
X024911Y028530
X012161Y002280
X014661Y015280
X015911Y009780
X007161Y006030
X003661Y002280
X029161Y013780
X037661Y005530
X017161Y015280
X026661Y016280
X022161Y006280
X018911Y029780
X017161Y033030
X027911Y029780
X018411Y015030
X015161Y002280
X035661Y031780
X002161Y026030
X022161Y017780
X027833Y004925
X028423Y006894
X006911Y013030
X033161Y016030
X022661Y017780
X022161Y019030
X025411Y029530
X026161Y028030
X011161Y006030
X032951Y003941
X002161Y021530
X005161Y011280
X035911Y018530
X007411Y012530
X001911Y033030
X008911Y017530
X028161Y020530
X005161Y007280
X031661Y004280
X029014Y005516
X018661Y028530
X007411Y034030
X009411Y009280
X005911Y004280
X011661Y017530
X035661Y008030
X028661Y020530
X029161Y008030
X007661Y019280
X009161Y015280
X023411Y014530
X007661Y037030
X024911Y027280
X028411Y008530
X008661Y006030
X035661Y004780
X009411Y011280
X008661Y022780
X026661Y019780
X033411Y010280
X009411Y006030
X011661Y003030
X033911Y006030
X005161Y015530
X034911Y033030
X034911Y034280
X009411Y010280
X003411Y004280
X014161Y003030
X008411Y032530
X023161Y035780
X033911Y005030
X016911Y005530
X030161Y025030
X011911Y015280
X025411Y008030
X032557Y005910
X009661Y008030
X029161Y020530
X014411Y008780
X013411Y007280
X026911Y009530
X029661Y020530
X013911Y006030
X035661Y004280
X011161Y028780
X019161Y008780
X017661Y018030
X025411Y030280
X013911Y017530
X035161Y018280
X030911Y020030
X019161Y007780
X017911Y010530
T101
X025927Y018780
X025927Y019780
X025927Y016780
X025927Y020780
X025927Y017780
X025927Y015779
T102
X022161Y007733
X022161Y004780
T103
X030906Y028285
X027906Y033285
X031906Y028285
X028906Y033285
X029906Y028285
X030906Y033285
X031906Y033285
X032906Y028285
X029906Y033285
X033906Y028285
X032906Y033285
X026906Y028285
X033906Y033285
X026906Y033285
X027906Y028285
X028906Y028285
T104
X019911Y026280
X010911Y022280
X015911Y020280
X013911Y023280
X018911Y021280
X011911Y026280
X022911Y023280
X016911Y024280
X020911Y026280
X019911Y025280
X010911Y021280
X013911Y022280
X018911Y020280
X011911Y025280
X016911Y023280
X022911Y022280
X014911Y026280
X020911Y025280
X019911Y024280
X010911Y020280
X023911Y026280
X013911Y021280
X011911Y024280
X016911Y022280
X022911Y021280
X019911Y023280
X014911Y025280
X020911Y024280
X017911Y026280
X023911Y025280
X013911Y020280
X011911Y023280
X016911Y021280
X022911Y020280
X020911Y023280
X019911Y022280
X014911Y024280
X037911Y037030
X017911Y025280
X023911Y024280
X011911Y022280
X016911Y020280
X014911Y023280
X020911Y022280
X019911Y021280
X004661Y002280
X012911Y026280
X037911Y036030
X017911Y024280
X023911Y023280
X021911Y026280
X011911Y021280
X034911Y015030
X029661Y027030
X014911Y022280
X020911Y021280
X019911Y020280
X037911Y035030
X017911Y023280
X012911Y025280
X023911Y022280
X015911Y026280
X021911Y025280
X011911Y020280
X034911Y014030
X030661Y027030
X014911Y021280
X020911Y020280
X033911Y026280
X037911Y034030
X017911Y022280
X012911Y024280
X023911Y021280
X015911Y025280
X021911Y024280
X018911Y026280
X034911Y013030
X014911Y020280
X033911Y025280
X037911Y033030
X012911Y023280
X017911Y021280
X023911Y020280
X010911Y026280
X021911Y023280
X015911Y024280
X018911Y025280
X037911Y032030
X012911Y022280
X017911Y020280
X010911Y025280
X015911Y023280
X021911Y022280
X013911Y026280
X018911Y024280
X022911Y026280
X012911Y021280
X010911Y024280
X015911Y022280
X021911Y021280
X018911Y023280
X013911Y025280
X016911Y026280
X022911Y025280
X012911Y020280
X010911Y023280
X015911Y021280
X021911Y020280
X018911Y022280
X013911Y024280
X016911Y025280
X022911Y024280
T105
X004141Y030535
X005911Y005140
X005911Y011281
X005911Y028172
X004141Y025810
X005911Y034510
X004141Y010098
X005911Y019664
X004141Y017223
X005911Y022264
X005911Y016006
X005911Y012464
X005911Y029356
X005911Y007740
X005911Y026989
X005911Y031756
X004141Y005140
X004141Y011281
X005911Y023447
X005911Y013644
X005911Y008919
X004141Y028172
X004141Y034510
X004141Y019664
X005911Y033131
X004141Y022264
X005911Y014823
X004141Y016006
X004141Y012464
X005911Y006515
X004141Y029356
X005911Y021047
X004141Y007740
X004141Y026989
X005911Y024631
X004141Y031756
X004141Y023447
X004141Y013644
X004141Y008919
X005911Y030535
X005911Y025810
X004141Y033131
X005911Y010098
X004141Y014823
X005911Y017223
X004141Y006515
X004141Y021047
X004141Y024631
T106
X037661Y004480
X037661Y007280
X037661Y011030
X037661Y008230
T107
X012311Y030780
X037911Y019780
X029911Y011780
X029911Y030780
X037911Y022780
X012911Y011780
X036911Y014780
X021911Y011780
X021911Y030780
X037911Y018780
X030911Y011780
X015311Y030780
X030911Y030780
X036911Y029780
X037911Y021780
X036911Y013780
X015911Y011780
X037911Y017780
X024911Y011780
X009311Y030780
X024911Y030780
X036911Y028780
X033911Y011780
X037911Y020780
X033911Y030780
X037911Y016780
X010311Y030780
X018911Y030780
X036911Y027780
X027911Y030780
X010911Y011780
X036911Y030780
X037911Y015780
X036911Y026780
X013311Y030780
X037911Y014780
X013911Y011780
X022911Y011780
X036911Y025780
X007311Y030780
X022911Y030780
X031911Y011780
X016311Y030780
X037911Y029780
X031911Y030780
X037911Y013780
X016911Y011780
X036911Y024780
X025911Y011780
X037911Y028780
X034911Y011780
X036911Y023780
X019911Y011780
X011311Y030780
X019911Y030780
X037911Y027780
X028911Y011780
X036911Y019780
X028911Y030780
X037911Y030780
X036911Y022780
X011911Y011780
X020911Y011780
X020911Y030780
X037911Y026780
X036911Y018780
X014311Y030780
X036911Y021780
X014911Y011780
X037911Y025780
X023911Y011780
X036911Y017780
X008311Y030780
X023911Y030780
X032911Y011780
X032911Y030780
X036911Y020780
X037911Y024780
X017911Y011780
X036911Y016780
X017911Y030780
X026911Y011780
X026911Y030780
X035911Y011780
X037911Y023780
X036911Y015780
T108
X026661Y004280
X023681Y004280
T00
M30
