G04 MADE WITH FRITZING*
G04 WWW.FRITZING.ORG*
G04 DOUBLE SIDED*
G04 HOLES PLATED*
G04 CONTOUR ON CENTER OF CONTOUR VECTOR*
%ASAXBY*%
%FSLAX23Y23*%
%MOIN*%
%OFA0B0*%
%SFA1.0B1.0*%
%ADD10C,0.033465*%
%ADD11C,0.074000*%
%ADD12C,0.165354*%
%ADD13R,0.039370X0.045276*%
%ADD14R,0.055118X0.059055*%
%ADD15R,0.010000X0.045000*%
%ADD16R,0.045000X0.010000*%
%ADD17R,0.035433X0.031496*%
%ADD18R,0.062992X0.102362*%
%ADD19R,0.059055X0.055118*%
%ADD20R,0.024803X0.032677*%
%ADD21R,0.032677X0.024803*%
%ADD22R,0.087000X0.024000*%
%ADD23R,0.094488X0.102362*%
%ADD24R,0.074803X0.062992*%
%ADD25R,0.086614X0.078740*%
%ADD26R,0.026000X0.080000*%
%ADD27R,0.204724X0.204724*%
%ADD28R,0.001000X0.001000*%
%LNPASTEMASK1*%
G90*
G70*
G54D10*
X1800Y1767D03*
X1682Y1767D03*
G54D11*
X2593Y1778D03*
X2593Y1678D03*
X2593Y1578D03*
G54D12*
X3065Y2283D03*
X3065Y1373D03*
X190Y315D03*
X190Y3650D03*
X190Y1845D03*
G54D13*
X1840Y1878D03*
X1741Y1878D03*
X1643Y1878D03*
X1840Y1656D03*
X1741Y1656D03*
X1643Y1656D03*
G54D14*
X2291Y1003D03*
X2210Y1003D03*
X2641Y2728D03*
X2722Y2728D03*
G54D15*
X3039Y532D03*
X3059Y532D03*
X3079Y532D03*
X3098Y532D03*
X3118Y532D03*
X3138Y532D03*
X3157Y532D03*
X3177Y532D03*
X3197Y532D03*
X3216Y532D03*
X3236Y532D03*
X3256Y532D03*
G54D16*
X3315Y591D03*
X3315Y611D03*
X3315Y630D03*
X3315Y650D03*
X3315Y670D03*
X3315Y689D03*
X3315Y709D03*
X3315Y729D03*
X3315Y748D03*
X3315Y768D03*
X3315Y788D03*
X3315Y808D03*
G54D15*
X3256Y867D03*
X3236Y867D03*
X3216Y867D03*
X3197Y867D03*
X3177Y867D03*
X3157Y867D03*
X3138Y867D03*
X3118Y867D03*
X3098Y867D03*
X3079Y867D03*
X3059Y867D03*
X3039Y867D03*
G54D16*
X2980Y808D03*
X2980Y788D03*
X2980Y768D03*
X2980Y748D03*
X2980Y729D03*
X2980Y709D03*
X2980Y689D03*
X2980Y670D03*
X2980Y650D03*
X2980Y630D03*
X2980Y611D03*
X2980Y591D03*
G54D17*
X2921Y493D03*
X2921Y418D03*
X3004Y455D03*
G54D18*
X2691Y561D03*
X2691Y703D03*
G54D14*
X2641Y1278D03*
X2560Y1278D03*
X2561Y1378D03*
X2641Y1378D03*
X2641Y1478D03*
X2560Y1478D03*
G54D19*
X2391Y2978D03*
X2391Y2897D03*
X2291Y2978D03*
X2291Y2897D03*
G54D14*
X2066Y3603D03*
X2147Y3603D03*
X2466Y3603D03*
X2385Y3603D03*
G54D19*
X2091Y2978D03*
X2091Y2897D03*
X2191Y2978D03*
X2191Y2897D03*
X2466Y1372D03*
X2466Y1453D03*
G54D14*
X716Y2978D03*
X797Y2978D03*
G54D20*
X1966Y1403D03*
X1876Y1403D03*
G54D21*
X916Y2978D03*
X916Y2887D03*
G54D22*
X1066Y928D03*
X860Y878D03*
X860Y978D03*
X1066Y978D03*
X860Y928D03*
X1066Y1028D03*
X860Y1028D03*
X1066Y878D03*
X1066Y703D03*
X860Y653D03*
X860Y753D03*
X1066Y753D03*
X860Y703D03*
X1066Y803D03*
X860Y803D03*
X1066Y653D03*
G54D14*
X2116Y1003D03*
X2035Y1003D03*
X760Y1578D03*
X841Y1578D03*
X760Y1678D03*
X841Y1678D03*
X1566Y1478D03*
X1647Y1478D03*
X1566Y1578D03*
X1647Y1578D03*
X1941Y1003D03*
X1860Y1003D03*
G54D20*
X2116Y878D03*
X2026Y878D03*
G54D14*
X841Y1178D03*
X760Y1178D03*
X798Y2228D03*
X717Y2228D03*
X716Y2428D03*
X797Y2428D03*
X716Y2128D03*
X797Y2128D03*
G54D19*
X1016Y303D03*
X1016Y384D03*
X716Y303D03*
X716Y384D03*
X866Y303D03*
X866Y384D03*
X866Y453D03*
X866Y534D03*
X1566Y578D03*
X1566Y659D03*
G54D14*
X798Y2328D03*
X717Y2328D03*
G54D19*
X716Y453D03*
X716Y534D03*
G54D14*
X1366Y803D03*
X1285Y803D03*
G54D19*
X1016Y453D03*
X1016Y534D03*
G54D23*
X2016Y476D03*
X2016Y728D03*
G54D14*
X1866Y3178D03*
X1947Y3178D03*
G54D20*
X1666Y3653D03*
X1757Y3653D03*
X1666Y3728D03*
X1757Y3728D03*
X1666Y3503D03*
X1757Y3503D03*
X1666Y3578D03*
X1757Y3578D03*
G54D14*
X841Y1478D03*
X760Y1478D03*
X2316Y3478D03*
X2235Y3478D03*
G54D19*
X1466Y578D03*
X1466Y659D03*
X1466Y403D03*
X1466Y484D03*
G54D14*
X1366Y303D03*
X1285Y303D03*
X2266Y253D03*
X2185Y253D03*
G54D19*
X1566Y403D03*
X1566Y484D03*
G54D14*
X841Y1378D03*
X760Y1378D03*
X2766Y428D03*
X2847Y428D03*
X716Y2528D03*
X797Y2528D03*
X798Y2028D03*
X717Y2028D03*
X2472Y753D03*
X2391Y753D03*
X1391Y1378D03*
X1310Y1378D03*
X1648Y1378D03*
X1567Y1378D03*
G54D24*
X3641Y853D03*
X3641Y975D03*
X3641Y553D03*
X3641Y675D03*
X1866Y603D03*
X1866Y481D03*
G54D14*
X1866Y3478D03*
X1947Y3478D03*
X2316Y3378D03*
X2235Y3378D03*
X1866Y3378D03*
X1947Y3378D03*
G54D25*
X3466Y971D03*
X3466Y853D03*
X3491Y671D03*
X3491Y553D03*
G54D19*
X1516Y2978D03*
X1516Y2897D03*
X1316Y2978D03*
X1316Y2897D03*
X1616Y2978D03*
X1616Y2897D03*
X1416Y2978D03*
X1416Y2897D03*
G54D14*
X1166Y3453D03*
X1085Y3453D03*
X1166Y3203D03*
X1085Y3203D03*
X1166Y3553D03*
X1085Y3553D03*
X1166Y3303D03*
X1085Y3303D03*
X2316Y3278D03*
X2235Y3278D03*
X2316Y3178D03*
X2235Y3178D03*
X1866Y3278D03*
X1947Y3278D03*
G54D22*
X1366Y453D03*
X1160Y403D03*
X1160Y503D03*
X1366Y503D03*
X1160Y453D03*
X1366Y553D03*
X1160Y553D03*
X1366Y403D03*
X1991Y2878D03*
X1785Y2828D03*
X1785Y2928D03*
X1991Y2928D03*
X1785Y2878D03*
X1991Y2978D03*
X1785Y2978D03*
X1991Y2828D03*
X972Y3503D03*
X766Y3453D03*
X766Y3553D03*
X972Y3553D03*
X766Y3503D03*
X972Y3603D03*
X766Y3603D03*
X972Y3453D03*
X966Y3253D03*
X760Y3203D03*
X760Y3303D03*
X966Y3303D03*
X760Y3253D03*
X966Y3353D03*
X760Y3353D03*
X966Y3203D03*
G54D14*
X1122Y1478D03*
X1041Y1478D03*
X1122Y1378D03*
X1041Y1378D03*
G54D19*
X1766Y403D03*
X1766Y484D03*
X1666Y403D03*
X1666Y484D03*
X1691Y628D03*
X1691Y709D03*
X1691Y909D03*
X1691Y828D03*
G54D14*
X2391Y853D03*
X2472Y853D03*
X1041Y1578D03*
X1121Y1578D03*
X1041Y1678D03*
X1122Y1678D03*
G54D26*
X2016Y1603D03*
X2066Y1603D03*
X2116Y1603D03*
X2166Y1603D03*
X2216Y1603D03*
X2266Y1603D03*
X2316Y1603D03*
X2366Y1603D03*
X2366Y1845D03*
X2316Y1845D03*
X2266Y1845D03*
X2216Y1845D03*
X2166Y1845D03*
X2116Y1845D03*
X2066Y1845D03*
X2016Y1845D03*
G54D14*
X1310Y1578D03*
X1391Y1578D03*
X1310Y1478D03*
X1391Y1478D03*
X2472Y653D03*
X2391Y653D03*
X2391Y553D03*
X2471Y553D03*
X2391Y953D03*
X2471Y953D03*
X691Y928D03*
X772Y928D03*
X772Y1028D03*
X691Y1028D03*
G54D27*
X3148Y701D03*
G54D28*
D02*
G04 End of PasteMask1*
M02*