; NON-PLATED HOLES START AT T1
; THROUGH (PLATED) HOLES START AT T100
M48
INCH
T100C0.039370
T101C0.035000
T102C0.015748
%
T100
X003694Y006148
X003694Y004148
X006694Y005148
X006694Y003148
X003694Y005148
X003694Y003148
X006694Y006148
X006694Y004148
T101
X008194Y008148
X008194Y001398
X004194Y008148
X004194Y001398
T102
X002694Y001148
X005444Y003148
X004944Y004148
X002944Y006898
X001444Y002648
X000444Y009148
X002444Y002648
X001944Y001398
X009444Y007398
X005694Y007398
X004944Y001148
X000694Y007148
X005194Y008398
X006444Y007398
T00
M30
