G04 MADE WITH FRITZING*
G04 WWW.FRITZING.ORG*
G04 DOUBLE SIDED*
G04 HOLES PLATED*
G04 CONTOUR ON CENTER OF CONTOUR VECTOR*
%ASAXBY*%
%FSLAX23Y23*%
%MOIN*%
%OFA0B0*%
%SFA1.0B1.0*%
%ADD10C,0.075000*%
%ADD11C,0.039370*%
%ADD12C,0.079370*%
%ADD13R,0.059055X0.055118*%
%ADD14R,0.055118X0.059055*%
%ADD15R,0.024000X0.087000*%
%ADD16R,0.079370X0.079370*%
%ADD17C,0.024000*%
%ADD18C,0.012000*%
%ADD19C,0.016000*%
%LNCOPPER1*%
G90*
G70*
G54D10*
X326Y788D03*
X552Y482D03*
X594Y114D03*
G54D11*
X569Y740D03*
X644Y740D03*
X944Y740D03*
G54D10*
X819Y815D03*
X419Y815D03*
G54D11*
X519Y840D03*
X544Y315D03*
X194Y140D03*
X269Y115D03*
X69Y715D03*
G54D10*
X819Y140D03*
X419Y140D03*
G54D12*
X369Y615D03*
X669Y615D03*
X369Y515D03*
X669Y515D03*
X369Y415D03*
X669Y415D03*
X369Y315D03*
X669Y315D03*
G54D11*
X494Y115D03*
X244Y265D03*
X144Y265D03*
X44Y915D03*
X294Y690D03*
X494Y415D03*
G54D13*
X819Y590D03*
X819Y509D03*
G54D14*
X819Y665D03*
X900Y665D03*
G54D13*
X194Y365D03*
X194Y446D03*
G54D15*
X94Y584D03*
X144Y584D03*
X194Y584D03*
X244Y584D03*
X244Y790D03*
X194Y790D03*
X144Y790D03*
X94Y790D03*
G54D14*
X219Y65D03*
X139Y65D03*
G54D16*
X369Y615D03*
G54D17*
X494Y364D02*
X531Y328D01*
D02*
X494Y396D02*
X494Y364D01*
G54D18*
D02*
X644Y689D02*
X595Y640D01*
D02*
X595Y640D02*
X594Y540D01*
D02*
X670Y690D02*
X670Y640D01*
D02*
X194Y865D02*
X220Y889D01*
D02*
X220Y889D02*
X869Y889D01*
D02*
X869Y889D02*
X895Y865D01*
D02*
X895Y865D02*
X895Y740D01*
D02*
X895Y740D02*
X870Y715D01*
D02*
X870Y715D02*
X694Y715D01*
D02*
X694Y715D02*
X670Y690D01*
D02*
X670Y640D02*
X670Y640D01*
D02*
X194Y828D02*
X194Y865D01*
D02*
X644Y726D02*
X644Y689D01*
D02*
X594Y540D02*
X645Y523D01*
D02*
X244Y515D02*
X244Y546D01*
D02*
X144Y546D02*
X144Y515D01*
D02*
X144Y515D02*
X244Y515D01*
D02*
X244Y715D02*
X244Y752D01*
D02*
X144Y715D02*
X244Y715D01*
D02*
X144Y752D02*
X144Y715D01*
D02*
X94Y865D02*
X144Y915D01*
D02*
X144Y915D02*
X919Y915D01*
D02*
X919Y915D02*
X944Y889D01*
D02*
X944Y889D02*
X944Y753D01*
D02*
X94Y828D02*
X94Y865D01*
G54D19*
D02*
X795Y515D02*
X770Y489D01*
D02*
X770Y489D02*
X770Y340D01*
D02*
X770Y340D02*
X744Y315D01*
D02*
X744Y315D02*
X695Y315D01*
D02*
X795Y514D02*
X795Y515D01*
D02*
X770Y565D02*
X795Y578D01*
D02*
X719Y565D02*
X770Y565D01*
D02*
X695Y664D02*
X669Y640D01*
D02*
X797Y665D02*
X695Y664D01*
D02*
X669Y640D02*
X669Y640D01*
D02*
X687Y533D02*
X719Y565D01*
G54D18*
D02*
X894Y640D02*
X895Y540D01*
D02*
X895Y540D02*
X870Y515D01*
D02*
X870Y515D02*
X843Y512D01*
D02*
X894Y641D02*
X894Y640D01*
D02*
X244Y140D02*
X260Y124D01*
D02*
X208Y140D02*
X244Y140D01*
G54D17*
D02*
X770Y190D02*
X799Y160D01*
D02*
X470Y515D02*
X519Y589D01*
D02*
X644Y815D02*
X791Y815D01*
D02*
X619Y790D02*
X644Y815D01*
D02*
X544Y789D02*
X619Y790D01*
D02*
X519Y589D02*
X519Y765D01*
D02*
X420Y168D02*
X420Y190D01*
D02*
X400Y515D02*
X470Y515D01*
D02*
X394Y765D02*
X407Y789D01*
D02*
X420Y414D02*
X444Y389D01*
G54D19*
D02*
X803Y124D02*
X719Y40D01*
G54D17*
D02*
X444Y389D02*
X444Y240D01*
D02*
X444Y240D02*
X495Y190D01*
D02*
X495Y190D02*
X770Y190D01*
D02*
X400Y415D02*
X420Y414D01*
D02*
X370Y240D02*
X370Y284D01*
D02*
X394Y665D02*
X394Y765D01*
D02*
X383Y642D02*
X394Y665D01*
G54D19*
D02*
X44Y640D02*
X44Y340D01*
D02*
X169Y315D02*
X194Y289D01*
D02*
X44Y340D02*
X69Y315D01*
D02*
X169Y664D02*
X69Y665D01*
D02*
X69Y315D02*
X169Y315D01*
D02*
X69Y665D02*
X44Y640D01*
D02*
X194Y240D02*
X144Y190D01*
D02*
X144Y190D02*
X144Y90D01*
D02*
X194Y289D02*
X194Y240D01*
D02*
X194Y622D02*
X194Y640D01*
D02*
X144Y90D02*
X144Y89D01*
D02*
X94Y546D02*
X94Y465D01*
D02*
X94Y465D02*
X120Y440D01*
D02*
X120Y440D02*
X169Y440D01*
D02*
X169Y440D02*
X170Y440D01*
G54D17*
D02*
X320Y514D02*
X339Y515D01*
D02*
X218Y365D02*
X269Y364D01*
D02*
X269Y364D02*
X295Y389D01*
D02*
X295Y489D02*
X320Y514D01*
D02*
X295Y389D02*
X295Y489D01*
G54D19*
D02*
X719Y40D02*
X320Y40D01*
D02*
X269Y40D02*
X241Y54D01*
D02*
X320Y40D02*
X269Y40D01*
G54D18*
D02*
X269Y215D02*
X295Y190D01*
D02*
X295Y190D02*
X320Y190D01*
D02*
X320Y190D02*
X344Y165D01*
D02*
X344Y165D02*
X344Y115D01*
D02*
X344Y115D02*
X395Y64D01*
D02*
X395Y64D02*
X444Y64D01*
D02*
X444Y64D02*
X485Y105D01*
D02*
X250Y253D02*
X269Y215D01*
G54D19*
D02*
X44Y265D02*
X19Y290D01*
D02*
X131Y265D02*
X44Y265D01*
G54D17*
D02*
X519Y765D02*
X544Y789D01*
G54D19*
D02*
X194Y640D02*
X169Y664D01*
D02*
X20Y889D02*
X35Y905D01*
D02*
X19Y290D02*
X20Y889D01*
G54D17*
D02*
X420Y190D02*
X370Y240D01*
G36*
X72Y944D02*
X72Y922D01*
X74Y922D01*
X74Y908D01*
X72Y908D01*
X72Y904D01*
X70Y904D01*
X70Y900D01*
X68Y900D01*
X68Y898D01*
X66Y898D01*
X66Y894D01*
X62Y894D01*
X62Y892D01*
X60Y892D01*
X60Y890D01*
X58Y890D01*
X58Y888D01*
X54Y888D01*
X54Y886D01*
X46Y886D01*
X46Y884D01*
X40Y884D01*
X40Y742D01*
X62Y742D01*
X62Y744D01*
X72Y744D01*
X72Y842D01*
X74Y842D01*
X74Y844D01*
X78Y844D01*
X78Y870D01*
X80Y870D01*
X80Y874D01*
X82Y874D01*
X82Y876D01*
X84Y876D01*
X84Y878D01*
X86Y878D01*
X86Y880D01*
X88Y880D01*
X88Y882D01*
X90Y882D01*
X90Y884D01*
X92Y884D01*
X92Y886D01*
X94Y886D01*
X94Y888D01*
X96Y888D01*
X96Y890D01*
X98Y890D01*
X98Y892D01*
X100Y892D01*
X100Y894D01*
X102Y894D01*
X102Y896D01*
X104Y896D01*
X104Y898D01*
X106Y898D01*
X106Y900D01*
X108Y900D01*
X108Y902D01*
X110Y902D01*
X110Y904D01*
X112Y904D01*
X112Y906D01*
X114Y906D01*
X114Y908D01*
X116Y908D01*
X116Y910D01*
X118Y910D01*
X118Y912D01*
X120Y912D01*
X120Y914D01*
X122Y914D01*
X122Y916D01*
X124Y916D01*
X124Y918D01*
X126Y918D01*
X126Y920D01*
X128Y920D01*
X128Y922D01*
X130Y922D01*
X130Y924D01*
X132Y924D01*
X132Y944D01*
X72Y944D01*
G37*
D02*
G36*
X150Y898D02*
X150Y896D01*
X148Y896D01*
X148Y894D01*
X146Y894D01*
X146Y892D01*
X144Y892D01*
X144Y890D01*
X142Y890D01*
X142Y888D01*
X140Y888D01*
X140Y886D01*
X138Y886D01*
X138Y884D01*
X136Y884D01*
X136Y882D01*
X134Y882D01*
X134Y880D01*
X132Y880D01*
X132Y878D01*
X130Y878D01*
X130Y876D01*
X128Y876D01*
X128Y874D01*
X126Y874D01*
X126Y872D01*
X124Y872D01*
X124Y870D01*
X122Y870D01*
X122Y868D01*
X120Y868D01*
X120Y866D01*
X118Y866D01*
X118Y864D01*
X116Y864D01*
X116Y844D01*
X178Y844D01*
X178Y870D01*
X180Y870D01*
X180Y874D01*
X182Y874D01*
X182Y876D01*
X184Y876D01*
X184Y878D01*
X186Y878D01*
X186Y898D01*
X150Y898D01*
G37*
D02*
G36*
X226Y874D02*
X226Y872D01*
X224Y872D01*
X224Y870D01*
X222Y870D01*
X222Y868D01*
X220Y868D01*
X220Y866D01*
X218Y866D01*
X218Y864D01*
X216Y864D01*
X216Y844D01*
X266Y844D01*
X266Y736D01*
X98Y736D01*
X98Y720D01*
X296Y720D01*
X296Y718D01*
X304Y718D01*
X304Y716D01*
X308Y716D01*
X308Y714D01*
X310Y714D01*
X310Y712D01*
X314Y712D01*
X314Y710D01*
X316Y710D01*
X316Y706D01*
X318Y706D01*
X318Y704D01*
X320Y704D01*
X320Y700D01*
X322Y700D01*
X322Y696D01*
X324Y696D01*
X324Y684D01*
X322Y684D01*
X322Y664D01*
X370Y664D01*
X370Y666D01*
X372Y666D01*
X372Y770D01*
X374Y770D01*
X374Y774D01*
X376Y774D01*
X376Y800D01*
X374Y800D01*
X374Y806D01*
X372Y806D01*
X372Y824D01*
X374Y824D01*
X374Y828D01*
X376Y828D01*
X376Y834D01*
X378Y834D01*
X378Y836D01*
X380Y836D01*
X380Y840D01*
X382Y840D01*
X382Y842D01*
X384Y842D01*
X384Y844D01*
X386Y844D01*
X386Y848D01*
X390Y848D01*
X390Y850D01*
X392Y850D01*
X392Y852D01*
X394Y852D01*
X394Y854D01*
X398Y854D01*
X398Y874D01*
X226Y874D01*
G37*
D02*
G36*
X98Y720D02*
X98Y716D01*
X100Y716D01*
X100Y714D01*
X98Y714D01*
X98Y706D01*
X96Y706D01*
X96Y702D01*
X94Y702D01*
X94Y682D01*
X176Y682D01*
X176Y680D01*
X180Y680D01*
X180Y678D01*
X182Y678D01*
X182Y676D01*
X184Y676D01*
X184Y674D01*
X186Y674D01*
X186Y672D01*
X188Y672D01*
X188Y670D01*
X190Y670D01*
X190Y668D01*
X192Y668D01*
X192Y666D01*
X194Y666D01*
X194Y664D01*
X196Y664D01*
X196Y662D01*
X198Y662D01*
X198Y660D01*
X288Y660D01*
X288Y662D01*
X284Y662D01*
X284Y664D01*
X280Y664D01*
X280Y666D01*
X278Y666D01*
X278Y668D01*
X274Y668D01*
X274Y670D01*
X272Y670D01*
X272Y674D01*
X270Y674D01*
X270Y676D01*
X268Y676D01*
X268Y680D01*
X266Y680D01*
X266Y688D01*
X264Y688D01*
X264Y692D01*
X266Y692D01*
X266Y700D01*
X268Y700D01*
X268Y702D01*
X270Y702D01*
X270Y706D01*
X272Y706D01*
X272Y708D01*
X274Y708D01*
X274Y710D01*
X276Y710D01*
X276Y712D01*
X278Y712D01*
X278Y714D01*
X282Y714D01*
X282Y716D01*
X284Y716D01*
X284Y718D01*
X292Y718D01*
X292Y720D01*
X98Y720D01*
G37*
D02*
G36*
X300Y662D02*
X300Y660D01*
X320Y660D01*
X320Y662D01*
X300Y662D01*
G37*
D02*
G36*
X200Y660D02*
X200Y658D01*
X320Y658D01*
X320Y660D01*
X200Y660D01*
G37*
D02*
G36*
X200Y660D02*
X200Y658D01*
X320Y658D01*
X320Y660D01*
X200Y660D01*
G37*
D02*
G36*
X202Y658D02*
X202Y656D01*
X204Y656D01*
X204Y654D01*
X206Y654D01*
X206Y652D01*
X208Y652D01*
X208Y650D01*
X210Y650D01*
X210Y646D01*
X212Y646D01*
X212Y638D01*
X266Y638D01*
X266Y530D01*
X112Y530D01*
X112Y482D01*
X234Y482D01*
X234Y386D01*
X262Y386D01*
X262Y388D01*
X264Y388D01*
X264Y390D01*
X266Y390D01*
X266Y392D01*
X268Y392D01*
X268Y394D01*
X270Y394D01*
X270Y396D01*
X272Y396D01*
X272Y398D01*
X274Y398D01*
X274Y498D01*
X276Y498D01*
X276Y502D01*
X278Y502D01*
X278Y504D01*
X280Y504D01*
X280Y506D01*
X282Y506D01*
X282Y508D01*
X284Y508D01*
X284Y510D01*
X286Y510D01*
X286Y512D01*
X288Y512D01*
X288Y514D01*
X290Y514D01*
X290Y516D01*
X292Y516D01*
X292Y518D01*
X294Y518D01*
X294Y520D01*
X296Y520D01*
X296Y522D01*
X298Y522D01*
X298Y524D01*
X300Y524D01*
X300Y526D01*
X302Y526D01*
X302Y528D01*
X304Y528D01*
X304Y530D01*
X306Y530D01*
X306Y532D01*
X308Y532D01*
X308Y534D01*
X312Y534D01*
X312Y536D01*
X326Y536D01*
X326Y538D01*
X328Y538D01*
X328Y542D01*
X330Y542D01*
X330Y544D01*
X332Y544D01*
X332Y564D01*
X320Y564D01*
X320Y658D01*
X202Y658D01*
G37*
D02*
G36*
X112Y482D02*
X112Y472D01*
X114Y472D01*
X114Y470D01*
X116Y470D01*
X116Y468D01*
X118Y468D01*
X118Y466D01*
X120Y466D01*
X120Y464D01*
X122Y464D01*
X122Y462D01*
X124Y462D01*
X124Y460D01*
X126Y460D01*
X126Y458D01*
X154Y458D01*
X154Y482D01*
X112Y482D01*
G37*
D02*
G36*
X442Y874D02*
X442Y854D01*
X446Y854D01*
X446Y852D01*
X448Y852D01*
X448Y850D01*
X450Y850D01*
X450Y848D01*
X452Y848D01*
X452Y846D01*
X454Y846D01*
X454Y844D01*
X456Y844D01*
X456Y842D01*
X458Y842D01*
X458Y838D01*
X460Y838D01*
X460Y834D01*
X462Y834D01*
X462Y832D01*
X464Y832D01*
X464Y826D01*
X466Y826D01*
X466Y804D01*
X464Y804D01*
X464Y798D01*
X462Y798D01*
X462Y794D01*
X460Y794D01*
X460Y790D01*
X458Y790D01*
X458Y788D01*
X456Y788D01*
X456Y786D01*
X454Y786D01*
X454Y784D01*
X452Y784D01*
X452Y782D01*
X450Y782D01*
X450Y780D01*
X448Y780D01*
X448Y778D01*
X446Y778D01*
X446Y776D01*
X444Y776D01*
X444Y774D01*
X440Y774D01*
X440Y772D01*
X436Y772D01*
X436Y770D01*
X430Y770D01*
X430Y768D01*
X420Y768D01*
X420Y764D01*
X418Y764D01*
X418Y760D01*
X416Y760D01*
X416Y664D01*
X420Y664D01*
X420Y566D01*
X418Y566D01*
X418Y564D01*
X406Y564D01*
X406Y544D01*
X408Y544D01*
X408Y542D01*
X410Y542D01*
X410Y540D01*
X412Y540D01*
X412Y536D01*
X458Y536D01*
X458Y538D01*
X460Y538D01*
X460Y542D01*
X462Y542D01*
X462Y544D01*
X464Y544D01*
X464Y548D01*
X466Y548D01*
X466Y550D01*
X468Y550D01*
X468Y554D01*
X470Y554D01*
X470Y556D01*
X472Y556D01*
X472Y560D01*
X474Y560D01*
X474Y562D01*
X476Y562D01*
X476Y566D01*
X478Y566D01*
X478Y568D01*
X480Y568D01*
X480Y572D01*
X482Y572D01*
X482Y574D01*
X484Y574D01*
X484Y578D01*
X486Y578D01*
X486Y580D01*
X488Y580D01*
X488Y584D01*
X490Y584D01*
X490Y586D01*
X492Y586D01*
X492Y590D01*
X494Y590D01*
X494Y592D01*
X496Y592D01*
X496Y596D01*
X498Y596D01*
X498Y774D01*
X500Y774D01*
X500Y776D01*
X502Y776D01*
X502Y780D01*
X504Y780D01*
X504Y782D01*
X506Y782D01*
X506Y784D01*
X508Y784D01*
X508Y786D01*
X510Y786D01*
X510Y788D01*
X512Y788D01*
X512Y790D01*
X514Y790D01*
X514Y810D01*
X512Y810D01*
X512Y812D01*
X508Y812D01*
X508Y814D01*
X504Y814D01*
X504Y816D01*
X502Y816D01*
X502Y818D01*
X500Y818D01*
X500Y820D01*
X498Y820D01*
X498Y822D01*
X496Y822D01*
X496Y824D01*
X494Y824D01*
X494Y828D01*
X492Y828D01*
X492Y832D01*
X490Y832D01*
X490Y846D01*
X492Y846D01*
X492Y852D01*
X494Y852D01*
X494Y854D01*
X496Y854D01*
X496Y874D01*
X442Y874D01*
G37*
D02*
G36*
X544Y874D02*
X544Y852D01*
X546Y852D01*
X546Y848D01*
X548Y848D01*
X548Y840D01*
X550Y840D01*
X550Y838D01*
X548Y838D01*
X548Y812D01*
X612Y812D01*
X612Y814D01*
X614Y814D01*
X614Y816D01*
X616Y816D01*
X616Y818D01*
X618Y818D01*
X618Y820D01*
X620Y820D01*
X620Y822D01*
X622Y822D01*
X622Y824D01*
X624Y824D01*
X624Y826D01*
X626Y826D01*
X626Y828D01*
X628Y828D01*
X628Y830D01*
X630Y830D01*
X630Y832D01*
X632Y832D01*
X632Y834D01*
X636Y834D01*
X636Y836D01*
X780Y836D01*
X780Y840D01*
X782Y840D01*
X782Y842D01*
X784Y842D01*
X784Y844D01*
X786Y844D01*
X786Y848D01*
X790Y848D01*
X790Y850D01*
X792Y850D01*
X792Y852D01*
X794Y852D01*
X794Y854D01*
X798Y854D01*
X798Y874D01*
X544Y874D01*
G37*
D02*
G36*
X652Y792D02*
X652Y790D01*
X780Y790D01*
X780Y792D01*
X652Y792D01*
G37*
D02*
G36*
X650Y790D02*
X650Y788D01*
X648Y788D01*
X648Y768D01*
X808Y768D01*
X808Y770D01*
X802Y770D01*
X802Y772D01*
X800Y772D01*
X800Y774D01*
X796Y774D01*
X796Y776D01*
X792Y776D01*
X792Y778D01*
X790Y778D01*
X790Y780D01*
X788Y780D01*
X788Y782D01*
X786Y782D01*
X786Y784D01*
X784Y784D01*
X784Y786D01*
X782Y786D01*
X782Y788D01*
X780Y788D01*
X780Y790D01*
X650Y790D01*
G37*
D02*
G36*
X858Y790D02*
X858Y788D01*
X856Y788D01*
X856Y786D01*
X854Y786D01*
X854Y784D01*
X852Y784D01*
X852Y782D01*
X850Y782D01*
X850Y780D01*
X848Y780D01*
X848Y778D01*
X846Y778D01*
X846Y776D01*
X844Y776D01*
X844Y774D01*
X840Y774D01*
X840Y772D01*
X836Y772D01*
X836Y770D01*
X830Y770D01*
X830Y768D01*
X878Y768D01*
X878Y790D01*
X858Y790D01*
G37*
D02*
G36*
X654Y768D02*
X654Y766D01*
X878Y766D01*
X878Y768D01*
X654Y768D01*
G37*
D02*
G36*
X654Y768D02*
X654Y766D01*
X878Y766D01*
X878Y768D01*
X654Y768D01*
G37*
D02*
G36*
X658Y766D02*
X658Y764D01*
X660Y764D01*
X660Y762D01*
X664Y762D01*
X664Y760D01*
X666Y760D01*
X666Y756D01*
X668Y756D01*
X668Y754D01*
X670Y754D01*
X670Y750D01*
X672Y750D01*
X672Y746D01*
X674Y746D01*
X674Y730D01*
X864Y730D01*
X864Y732D01*
X866Y732D01*
X866Y734D01*
X868Y734D01*
X868Y736D01*
X870Y736D01*
X870Y738D01*
X872Y738D01*
X872Y740D01*
X874Y740D01*
X874Y742D01*
X876Y742D01*
X876Y744D01*
X878Y744D01*
X878Y766D01*
X658Y766D01*
G37*
D02*
G36*
X718Y646D02*
X718Y616D01*
X720Y616D01*
X720Y612D01*
X718Y612D01*
X718Y602D01*
X716Y602D01*
X716Y582D01*
X766Y582D01*
X766Y584D01*
X770Y584D01*
X770Y586D01*
X774Y586D01*
X774Y588D01*
X778Y588D01*
X778Y590D01*
X780Y590D01*
X780Y646D01*
X718Y646D01*
G37*
D02*
G36*
X858Y626D02*
X858Y544D01*
X878Y544D01*
X878Y626D01*
X858Y626D01*
G37*
D02*
G36*
X726Y546D02*
X726Y544D01*
X724Y544D01*
X724Y542D01*
X722Y542D01*
X722Y540D01*
X720Y540D01*
X720Y538D01*
X718Y538D01*
X718Y516D01*
X720Y516D01*
X720Y512D01*
X718Y512D01*
X718Y502D01*
X716Y502D01*
X716Y496D01*
X714Y496D01*
X714Y494D01*
X712Y494D01*
X712Y490D01*
X710Y490D01*
X710Y486D01*
X708Y486D01*
X708Y484D01*
X706Y484D01*
X706Y482D01*
X704Y482D01*
X704Y480D01*
X702Y480D01*
X702Y478D01*
X700Y478D01*
X700Y476D01*
X698Y476D01*
X698Y474D01*
X696Y474D01*
X696Y454D01*
X698Y454D01*
X698Y452D01*
X700Y452D01*
X700Y450D01*
X704Y450D01*
X704Y446D01*
X706Y446D01*
X706Y444D01*
X708Y444D01*
X708Y442D01*
X710Y442D01*
X710Y440D01*
X712Y440D01*
X712Y436D01*
X714Y436D01*
X714Y432D01*
X716Y432D01*
X716Y428D01*
X718Y428D01*
X718Y416D01*
X720Y416D01*
X720Y412D01*
X718Y412D01*
X718Y402D01*
X716Y402D01*
X716Y396D01*
X714Y396D01*
X714Y394D01*
X712Y394D01*
X712Y390D01*
X710Y390D01*
X710Y386D01*
X708Y386D01*
X708Y384D01*
X706Y384D01*
X706Y382D01*
X704Y382D01*
X704Y380D01*
X702Y380D01*
X702Y378D01*
X700Y378D01*
X700Y376D01*
X698Y376D01*
X698Y374D01*
X696Y374D01*
X696Y354D01*
X698Y354D01*
X698Y352D01*
X700Y352D01*
X700Y350D01*
X704Y350D01*
X704Y346D01*
X706Y346D01*
X706Y344D01*
X708Y344D01*
X708Y342D01*
X710Y342D01*
X710Y340D01*
X712Y340D01*
X712Y336D01*
X714Y336D01*
X714Y332D01*
X738Y332D01*
X738Y334D01*
X740Y334D01*
X740Y336D01*
X742Y336D01*
X742Y338D01*
X744Y338D01*
X744Y340D01*
X746Y340D01*
X746Y342D01*
X748Y342D01*
X748Y344D01*
X750Y344D01*
X750Y346D01*
X752Y346D01*
X752Y496D01*
X754Y496D01*
X754Y500D01*
X756Y500D01*
X756Y502D01*
X758Y502D01*
X758Y504D01*
X760Y504D01*
X760Y506D01*
X762Y506D01*
X762Y508D01*
X764Y508D01*
X764Y510D01*
X766Y510D01*
X766Y512D01*
X768Y512D01*
X768Y514D01*
X770Y514D01*
X770Y516D01*
X772Y516D01*
X772Y518D01*
X774Y518D01*
X774Y520D01*
X776Y520D01*
X776Y522D01*
X778Y522D01*
X778Y524D01*
X780Y524D01*
X780Y546D01*
X726Y546D01*
G37*
D02*
G36*
X62Y452D02*
X62Y346D01*
X64Y346D01*
X64Y344D01*
X66Y344D01*
X66Y342D01*
X68Y342D01*
X68Y340D01*
X70Y340D01*
X70Y338D01*
X72Y338D01*
X72Y336D01*
X74Y336D01*
X74Y334D01*
X76Y334D01*
X76Y332D01*
X154Y332D01*
X154Y422D01*
X112Y422D01*
X112Y424D01*
X110Y424D01*
X110Y426D01*
X106Y426D01*
X106Y428D01*
X104Y428D01*
X104Y430D01*
X102Y430D01*
X102Y432D01*
X100Y432D01*
X100Y434D01*
X98Y434D01*
X98Y436D01*
X96Y436D01*
X96Y438D01*
X94Y438D01*
X94Y440D01*
X92Y440D01*
X92Y442D01*
X90Y442D01*
X90Y444D01*
X88Y444D01*
X88Y446D01*
X86Y446D01*
X86Y448D01*
X84Y448D01*
X84Y450D01*
X82Y450D01*
X82Y452D01*
X62Y452D01*
G37*
D02*
G36*
X596Y730D02*
X596Y726D01*
X594Y726D01*
X594Y724D01*
X592Y724D01*
X592Y722D01*
X590Y722D01*
X590Y718D01*
X586Y718D01*
X586Y716D01*
X584Y716D01*
X584Y714D01*
X580Y714D01*
X580Y712D01*
X576Y712D01*
X576Y710D01*
X628Y710D01*
X628Y718D01*
X624Y718D01*
X624Y720D01*
X622Y720D01*
X622Y724D01*
X620Y724D01*
X620Y726D01*
X618Y726D01*
X618Y730D01*
X596Y730D01*
G37*
D02*
G36*
X542Y712D02*
X542Y710D01*
X562Y710D01*
X562Y712D01*
X542Y712D01*
G37*
D02*
G36*
X542Y710D02*
X542Y708D01*
X628Y708D01*
X628Y710D01*
X542Y710D01*
G37*
D02*
G36*
X542Y710D02*
X542Y708D01*
X628Y708D01*
X628Y710D01*
X542Y710D01*
G37*
D02*
G36*
X542Y708D02*
X542Y586D01*
X540Y586D01*
X540Y580D01*
X538Y580D01*
X538Y576D01*
X536Y576D01*
X536Y574D01*
X534Y574D01*
X534Y570D01*
X532Y570D01*
X532Y568D01*
X530Y568D01*
X530Y564D01*
X528Y564D01*
X528Y562D01*
X526Y562D01*
X526Y558D01*
X524Y558D01*
X524Y556D01*
X522Y556D01*
X522Y552D01*
X520Y552D01*
X520Y550D01*
X518Y550D01*
X518Y546D01*
X516Y546D01*
X516Y544D01*
X514Y544D01*
X514Y540D01*
X512Y540D01*
X512Y536D01*
X510Y536D01*
X510Y534D01*
X508Y534D01*
X508Y530D01*
X506Y530D01*
X506Y528D01*
X504Y528D01*
X504Y524D01*
X502Y524D01*
X502Y522D01*
X500Y522D01*
X500Y518D01*
X498Y518D01*
X498Y516D01*
X496Y516D01*
X496Y512D01*
X494Y512D01*
X494Y510D01*
X492Y510D01*
X492Y506D01*
X490Y506D01*
X490Y504D01*
X488Y504D01*
X488Y502D01*
X486Y502D01*
X486Y498D01*
X482Y498D01*
X482Y496D01*
X480Y496D01*
X480Y494D01*
X474Y494D01*
X474Y492D01*
X412Y492D01*
X412Y490D01*
X410Y490D01*
X410Y486D01*
X408Y486D01*
X408Y484D01*
X406Y484D01*
X406Y482D01*
X404Y482D01*
X404Y480D01*
X402Y480D01*
X402Y478D01*
X400Y478D01*
X400Y476D01*
X398Y476D01*
X398Y474D01*
X396Y474D01*
X396Y454D01*
X398Y454D01*
X398Y452D01*
X400Y452D01*
X400Y450D01*
X404Y450D01*
X404Y446D01*
X406Y446D01*
X406Y444D01*
X502Y444D01*
X502Y442D01*
X506Y442D01*
X506Y440D01*
X510Y440D01*
X510Y438D01*
X512Y438D01*
X512Y436D01*
X514Y436D01*
X514Y434D01*
X516Y434D01*
X516Y432D01*
X518Y432D01*
X518Y430D01*
X520Y430D01*
X520Y426D01*
X522Y426D01*
X522Y422D01*
X524Y422D01*
X524Y408D01*
X522Y408D01*
X522Y404D01*
X520Y404D01*
X520Y400D01*
X518Y400D01*
X518Y398D01*
X516Y398D01*
X516Y394D01*
X512Y394D01*
X512Y392D01*
X510Y392D01*
X510Y390D01*
X508Y390D01*
X508Y388D01*
X504Y388D01*
X504Y386D01*
X496Y386D01*
X496Y384D01*
X632Y384D01*
X632Y386D01*
X630Y386D01*
X630Y388D01*
X628Y388D01*
X628Y392D01*
X626Y392D01*
X626Y394D01*
X624Y394D01*
X624Y398D01*
X622Y398D01*
X622Y404D01*
X620Y404D01*
X620Y424D01*
X622Y424D01*
X622Y430D01*
X624Y430D01*
X624Y434D01*
X626Y434D01*
X626Y438D01*
X628Y438D01*
X628Y442D01*
X630Y442D01*
X630Y444D01*
X632Y444D01*
X632Y446D01*
X634Y446D01*
X634Y448D01*
X636Y448D01*
X636Y450D01*
X638Y450D01*
X638Y452D01*
X640Y452D01*
X640Y454D01*
X642Y454D01*
X642Y476D01*
X640Y476D01*
X640Y478D01*
X638Y478D01*
X638Y480D01*
X634Y480D01*
X634Y484D01*
X632Y484D01*
X632Y486D01*
X630Y486D01*
X630Y488D01*
X628Y488D01*
X628Y492D01*
X626Y492D01*
X626Y494D01*
X624Y494D01*
X624Y498D01*
X622Y498D01*
X622Y504D01*
X620Y504D01*
X620Y514D01*
X618Y514D01*
X618Y516D01*
X612Y516D01*
X612Y518D01*
X606Y518D01*
X606Y520D01*
X600Y520D01*
X600Y522D01*
X594Y522D01*
X594Y524D01*
X588Y524D01*
X588Y526D01*
X584Y526D01*
X584Y528D01*
X582Y528D01*
X582Y530D01*
X580Y530D01*
X580Y534D01*
X578Y534D01*
X578Y642D01*
X580Y642D01*
X580Y648D01*
X582Y648D01*
X582Y650D01*
X584Y650D01*
X584Y652D01*
X586Y652D01*
X586Y654D01*
X588Y654D01*
X588Y656D01*
X590Y656D01*
X590Y658D01*
X592Y658D01*
X592Y660D01*
X594Y660D01*
X594Y662D01*
X596Y662D01*
X596Y664D01*
X598Y664D01*
X598Y666D01*
X600Y666D01*
X600Y668D01*
X602Y668D01*
X602Y670D01*
X604Y670D01*
X604Y672D01*
X606Y672D01*
X606Y674D01*
X608Y674D01*
X608Y676D01*
X610Y676D01*
X610Y678D01*
X612Y678D01*
X612Y680D01*
X614Y680D01*
X614Y682D01*
X616Y682D01*
X616Y684D01*
X618Y684D01*
X618Y686D01*
X620Y686D01*
X620Y688D01*
X622Y688D01*
X622Y690D01*
X624Y690D01*
X624Y692D01*
X626Y692D01*
X626Y694D01*
X628Y694D01*
X628Y708D01*
X542Y708D01*
G37*
D02*
G36*
X910Y626D02*
X910Y532D01*
X908Y532D01*
X908Y530D01*
X906Y530D01*
X906Y528D01*
X904Y528D01*
X904Y526D01*
X902Y526D01*
X902Y524D01*
X900Y524D01*
X900Y522D01*
X898Y522D01*
X898Y520D01*
X896Y520D01*
X896Y518D01*
X894Y518D01*
X894Y516D01*
X892Y516D01*
X892Y514D01*
X890Y514D01*
X890Y512D01*
X888Y512D01*
X888Y510D01*
X886Y510D01*
X886Y508D01*
X884Y508D01*
X884Y506D01*
X882Y506D01*
X882Y504D01*
X880Y504D01*
X880Y502D01*
X878Y502D01*
X878Y500D01*
X874Y500D01*
X874Y498D01*
X858Y498D01*
X858Y472D01*
X788Y472D01*
X788Y336D01*
X786Y336D01*
X786Y330D01*
X784Y330D01*
X784Y328D01*
X782Y328D01*
X782Y326D01*
X780Y326D01*
X780Y324D01*
X778Y324D01*
X778Y322D01*
X776Y322D01*
X776Y320D01*
X774Y320D01*
X774Y318D01*
X772Y318D01*
X772Y316D01*
X770Y316D01*
X770Y314D01*
X768Y314D01*
X768Y312D01*
X766Y312D01*
X766Y310D01*
X764Y310D01*
X764Y308D01*
X762Y308D01*
X762Y306D01*
X760Y306D01*
X760Y304D01*
X758Y304D01*
X758Y302D01*
X756Y302D01*
X756Y300D01*
X754Y300D01*
X754Y298D01*
X748Y298D01*
X748Y296D01*
X714Y296D01*
X714Y294D01*
X712Y294D01*
X712Y290D01*
X710Y290D01*
X710Y286D01*
X708Y286D01*
X708Y284D01*
X706Y284D01*
X706Y282D01*
X704Y282D01*
X704Y280D01*
X702Y280D01*
X702Y278D01*
X700Y278D01*
X700Y276D01*
X698Y276D01*
X698Y274D01*
X694Y274D01*
X694Y272D01*
X690Y272D01*
X690Y270D01*
X688Y270D01*
X688Y268D01*
X682Y268D01*
X682Y266D01*
X672Y266D01*
X672Y264D01*
X944Y264D01*
X944Y626D01*
X910Y626D01*
G37*
D02*
G36*
X408Y444D02*
X408Y442D01*
X410Y442D01*
X410Y440D01*
X412Y440D01*
X412Y436D01*
X426Y436D01*
X426Y434D01*
X432Y434D01*
X432Y432D01*
X434Y432D01*
X434Y430D01*
X436Y430D01*
X436Y428D01*
X438Y428D01*
X438Y426D01*
X440Y426D01*
X440Y424D01*
X442Y424D01*
X442Y422D01*
X444Y422D01*
X444Y420D01*
X446Y420D01*
X446Y418D01*
X466Y418D01*
X466Y424D01*
X468Y424D01*
X468Y428D01*
X470Y428D01*
X470Y430D01*
X472Y430D01*
X472Y434D01*
X474Y434D01*
X474Y436D01*
X476Y436D01*
X476Y438D01*
X480Y438D01*
X480Y440D01*
X482Y440D01*
X482Y442D01*
X488Y442D01*
X488Y444D01*
X408Y444D01*
G37*
D02*
G36*
X466Y388D02*
X466Y384D01*
X494Y384D01*
X494Y386D01*
X486Y386D01*
X486Y388D01*
X466Y388D01*
G37*
D02*
G36*
X466Y384D02*
X466Y382D01*
X634Y382D01*
X634Y384D01*
X466Y384D01*
G37*
D02*
G36*
X466Y384D02*
X466Y382D01*
X634Y382D01*
X634Y384D01*
X466Y384D01*
G37*
D02*
G36*
X466Y382D02*
X466Y344D01*
X552Y344D01*
X552Y342D01*
X556Y342D01*
X556Y340D01*
X560Y340D01*
X560Y338D01*
X562Y338D01*
X562Y336D01*
X564Y336D01*
X564Y334D01*
X566Y334D01*
X566Y332D01*
X568Y332D01*
X568Y330D01*
X570Y330D01*
X570Y326D01*
X572Y326D01*
X572Y322D01*
X574Y322D01*
X574Y308D01*
X572Y308D01*
X572Y304D01*
X570Y304D01*
X570Y300D01*
X568Y300D01*
X568Y298D01*
X566Y298D01*
X566Y294D01*
X562Y294D01*
X562Y292D01*
X560Y292D01*
X560Y290D01*
X558Y290D01*
X558Y288D01*
X554Y288D01*
X554Y286D01*
X546Y286D01*
X546Y284D01*
X632Y284D01*
X632Y286D01*
X630Y286D01*
X630Y288D01*
X628Y288D01*
X628Y292D01*
X626Y292D01*
X626Y294D01*
X624Y294D01*
X624Y298D01*
X622Y298D01*
X622Y304D01*
X620Y304D01*
X620Y324D01*
X622Y324D01*
X622Y330D01*
X624Y330D01*
X624Y334D01*
X626Y334D01*
X626Y338D01*
X628Y338D01*
X628Y342D01*
X630Y342D01*
X630Y344D01*
X632Y344D01*
X632Y346D01*
X634Y346D01*
X634Y348D01*
X636Y348D01*
X636Y350D01*
X638Y350D01*
X638Y352D01*
X640Y352D01*
X640Y354D01*
X642Y354D01*
X642Y376D01*
X640Y376D01*
X640Y378D01*
X638Y378D01*
X638Y380D01*
X634Y380D01*
X634Y382D01*
X466Y382D01*
G37*
D02*
G36*
X466Y344D02*
X466Y284D01*
X544Y284D01*
X544Y286D01*
X536Y286D01*
X536Y288D01*
X532Y288D01*
X532Y290D01*
X528Y290D01*
X528Y292D01*
X526Y292D01*
X526Y294D01*
X524Y294D01*
X524Y296D01*
X522Y296D01*
X522Y298D01*
X520Y298D01*
X520Y302D01*
X518Y302D01*
X518Y304D01*
X516Y304D01*
X516Y312D01*
X514Y312D01*
X514Y316D01*
X516Y316D01*
X516Y324D01*
X518Y324D01*
X518Y328D01*
X520Y328D01*
X520Y330D01*
X522Y330D01*
X522Y334D01*
X524Y334D01*
X524Y336D01*
X526Y336D01*
X526Y338D01*
X530Y338D01*
X530Y340D01*
X532Y340D01*
X532Y342D01*
X538Y342D01*
X538Y344D01*
X466Y344D01*
G37*
D02*
G36*
X466Y284D02*
X466Y282D01*
X634Y282D01*
X634Y284D01*
X466Y284D01*
G37*
D02*
G36*
X466Y284D02*
X466Y282D01*
X634Y282D01*
X634Y284D01*
X466Y284D01*
G37*
D02*
G36*
X466Y282D02*
X466Y264D01*
X668Y264D01*
X668Y266D01*
X656Y266D01*
X656Y268D01*
X652Y268D01*
X652Y270D01*
X648Y270D01*
X648Y272D01*
X644Y272D01*
X644Y274D01*
X642Y274D01*
X642Y276D01*
X640Y276D01*
X640Y278D01*
X638Y278D01*
X638Y280D01*
X634Y280D01*
X634Y282D01*
X466Y282D01*
G37*
D02*
G36*
X466Y264D02*
X466Y262D01*
X944Y262D01*
X944Y264D01*
X466Y264D01*
G37*
D02*
G36*
X466Y264D02*
X466Y262D01*
X944Y262D01*
X944Y264D01*
X466Y264D01*
G37*
D02*
G36*
X466Y262D02*
X466Y248D01*
X468Y248D01*
X468Y246D01*
X470Y246D01*
X470Y244D01*
X472Y244D01*
X472Y242D01*
X474Y242D01*
X474Y240D01*
X476Y240D01*
X476Y238D01*
X478Y238D01*
X478Y236D01*
X480Y236D01*
X480Y234D01*
X482Y234D01*
X482Y232D01*
X484Y232D01*
X484Y230D01*
X486Y230D01*
X486Y228D01*
X488Y228D01*
X488Y226D01*
X490Y226D01*
X490Y224D01*
X492Y224D01*
X492Y222D01*
X494Y222D01*
X494Y220D01*
X496Y220D01*
X496Y218D01*
X498Y218D01*
X498Y216D01*
X500Y216D01*
X500Y214D01*
X502Y214D01*
X502Y212D01*
X774Y212D01*
X774Y210D01*
X780Y210D01*
X780Y208D01*
X784Y208D01*
X784Y206D01*
X786Y206D01*
X786Y204D01*
X788Y204D01*
X788Y202D01*
X790Y202D01*
X790Y200D01*
X792Y200D01*
X792Y198D01*
X794Y198D01*
X794Y196D01*
X796Y196D01*
X796Y194D01*
X798Y194D01*
X798Y192D01*
X800Y192D01*
X800Y190D01*
X802Y190D01*
X802Y188D01*
X820Y188D01*
X820Y186D01*
X832Y186D01*
X832Y184D01*
X836Y184D01*
X836Y182D01*
X840Y182D01*
X840Y180D01*
X844Y180D01*
X844Y178D01*
X846Y178D01*
X846Y176D01*
X848Y176D01*
X848Y174D01*
X850Y174D01*
X850Y172D01*
X852Y172D01*
X852Y170D01*
X854Y170D01*
X854Y168D01*
X856Y168D01*
X856Y166D01*
X858Y166D01*
X858Y164D01*
X860Y164D01*
X860Y160D01*
X862Y160D01*
X862Y156D01*
X864Y156D01*
X864Y150D01*
X866Y150D01*
X866Y128D01*
X864Y128D01*
X864Y122D01*
X862Y122D01*
X862Y120D01*
X860Y120D01*
X860Y116D01*
X858Y116D01*
X858Y112D01*
X856Y112D01*
X856Y110D01*
X854Y110D01*
X854Y108D01*
X852Y108D01*
X852Y106D01*
X850Y106D01*
X850Y104D01*
X848Y104D01*
X848Y102D01*
X844Y102D01*
X844Y100D01*
X842Y100D01*
X842Y98D01*
X838Y98D01*
X838Y96D01*
X834Y96D01*
X834Y94D01*
X828Y94D01*
X828Y92D01*
X796Y92D01*
X796Y90D01*
X794Y90D01*
X794Y88D01*
X792Y88D01*
X792Y86D01*
X790Y86D01*
X790Y84D01*
X788Y84D01*
X788Y82D01*
X786Y82D01*
X786Y80D01*
X784Y80D01*
X784Y78D01*
X782Y78D01*
X782Y76D01*
X780Y76D01*
X780Y74D01*
X778Y74D01*
X778Y72D01*
X776Y72D01*
X776Y70D01*
X774Y70D01*
X774Y68D01*
X772Y68D01*
X772Y66D01*
X770Y66D01*
X770Y64D01*
X768Y64D01*
X768Y62D01*
X766Y62D01*
X766Y60D01*
X764Y60D01*
X764Y40D01*
X944Y40D01*
X944Y262D01*
X466Y262D01*
G37*
D02*
G36*
X314Y380D02*
X314Y376D01*
X312Y376D01*
X312Y374D01*
X310Y374D01*
X310Y372D01*
X308Y372D01*
X308Y370D01*
X306Y370D01*
X306Y368D01*
X304Y368D01*
X304Y366D01*
X302Y366D01*
X302Y364D01*
X300Y364D01*
X300Y362D01*
X298Y362D01*
X298Y360D01*
X296Y360D01*
X296Y358D01*
X294Y358D01*
X294Y356D01*
X292Y356D01*
X292Y354D01*
X290Y354D01*
X290Y352D01*
X288Y352D01*
X288Y350D01*
X284Y350D01*
X284Y348D01*
X282Y348D01*
X282Y346D01*
X280Y346D01*
X280Y344D01*
X274Y344D01*
X274Y342D01*
X234Y342D01*
X234Y328D01*
X232Y328D01*
X232Y326D01*
X202Y326D01*
X202Y306D01*
X204Y306D01*
X204Y304D01*
X206Y304D01*
X206Y302D01*
X208Y302D01*
X208Y298D01*
X210Y298D01*
X210Y294D01*
X252Y294D01*
X252Y292D01*
X256Y292D01*
X256Y290D01*
X260Y290D01*
X260Y288D01*
X262Y288D01*
X262Y286D01*
X264Y286D01*
X264Y284D01*
X266Y284D01*
X266Y282D01*
X268Y282D01*
X268Y280D01*
X270Y280D01*
X270Y276D01*
X272Y276D01*
X272Y272D01*
X274Y272D01*
X274Y240D01*
X276Y240D01*
X276Y236D01*
X278Y236D01*
X278Y232D01*
X280Y232D01*
X280Y228D01*
X282Y228D01*
X282Y224D01*
X284Y224D01*
X284Y222D01*
X286Y222D01*
X286Y220D01*
X288Y220D01*
X288Y218D01*
X290Y218D01*
X290Y216D01*
X292Y216D01*
X292Y214D01*
X294Y214D01*
X294Y212D01*
X296Y212D01*
X296Y210D01*
X298Y210D01*
X298Y208D01*
X300Y208D01*
X300Y206D01*
X322Y206D01*
X322Y204D01*
X328Y204D01*
X328Y202D01*
X330Y202D01*
X330Y200D01*
X332Y200D01*
X332Y198D01*
X334Y198D01*
X334Y196D01*
X336Y196D01*
X336Y194D01*
X338Y194D01*
X338Y192D01*
X340Y192D01*
X340Y190D01*
X342Y190D01*
X342Y188D01*
X344Y188D01*
X344Y186D01*
X346Y186D01*
X346Y184D01*
X348Y184D01*
X348Y182D01*
X350Y182D01*
X350Y180D01*
X352Y180D01*
X352Y178D01*
X354Y178D01*
X354Y176D01*
X356Y176D01*
X356Y174D01*
X358Y174D01*
X358Y170D01*
X360Y170D01*
X360Y162D01*
X380Y162D01*
X380Y166D01*
X382Y166D01*
X382Y168D01*
X384Y168D01*
X384Y170D01*
X386Y170D01*
X386Y172D01*
X388Y172D01*
X388Y192D01*
X386Y192D01*
X386Y194D01*
X384Y194D01*
X384Y196D01*
X382Y196D01*
X382Y198D01*
X380Y198D01*
X380Y200D01*
X378Y200D01*
X378Y202D01*
X376Y202D01*
X376Y204D01*
X374Y204D01*
X374Y206D01*
X372Y206D01*
X372Y208D01*
X370Y208D01*
X370Y210D01*
X368Y210D01*
X368Y212D01*
X366Y212D01*
X366Y214D01*
X364Y214D01*
X364Y216D01*
X362Y216D01*
X362Y218D01*
X360Y218D01*
X360Y220D01*
X358Y220D01*
X358Y222D01*
X356Y222D01*
X356Y224D01*
X354Y224D01*
X354Y226D01*
X352Y226D01*
X352Y228D01*
X350Y228D01*
X350Y234D01*
X348Y234D01*
X348Y272D01*
X344Y272D01*
X344Y274D01*
X342Y274D01*
X342Y276D01*
X340Y276D01*
X340Y278D01*
X338Y278D01*
X338Y280D01*
X334Y280D01*
X334Y284D01*
X332Y284D01*
X332Y286D01*
X330Y286D01*
X330Y288D01*
X328Y288D01*
X328Y292D01*
X326Y292D01*
X326Y294D01*
X324Y294D01*
X324Y298D01*
X322Y298D01*
X322Y304D01*
X320Y304D01*
X320Y324D01*
X322Y324D01*
X322Y330D01*
X324Y330D01*
X324Y334D01*
X326Y334D01*
X326Y338D01*
X328Y338D01*
X328Y342D01*
X330Y342D01*
X330Y344D01*
X332Y344D01*
X332Y346D01*
X334Y346D01*
X334Y348D01*
X336Y348D01*
X336Y350D01*
X338Y350D01*
X338Y352D01*
X340Y352D01*
X340Y354D01*
X342Y354D01*
X342Y376D01*
X340Y376D01*
X340Y378D01*
X338Y378D01*
X338Y380D01*
X314Y380D01*
G37*
D02*
G36*
X212Y294D02*
X212Y290D01*
X232Y290D01*
X232Y292D01*
X238Y292D01*
X238Y294D01*
X212Y294D01*
G37*
D02*
G36*
X40Y246D02*
X40Y40D01*
X102Y40D01*
X102Y104D01*
X126Y104D01*
X126Y194D01*
X128Y194D01*
X128Y198D01*
X130Y198D01*
X130Y202D01*
X132Y202D01*
X132Y204D01*
X134Y204D01*
X134Y206D01*
X136Y206D01*
X136Y208D01*
X138Y208D01*
X138Y210D01*
X140Y210D01*
X140Y212D01*
X142Y212D01*
X142Y214D01*
X144Y214D01*
X144Y236D01*
X136Y236D01*
X136Y238D01*
X132Y238D01*
X132Y240D01*
X128Y240D01*
X128Y242D01*
X126Y242D01*
X126Y244D01*
X124Y244D01*
X124Y246D01*
X40Y246D01*
G37*
D02*
G36*
X212Y240D02*
X212Y232D01*
X210Y232D01*
X210Y230D01*
X208Y230D01*
X208Y226D01*
X206Y226D01*
X206Y224D01*
X204Y224D01*
X204Y222D01*
X202Y222D01*
X202Y220D01*
X200Y220D01*
X200Y218D01*
X198Y218D01*
X198Y216D01*
X196Y216D01*
X196Y214D01*
X194Y214D01*
X194Y212D01*
X192Y212D01*
X192Y210D01*
X190Y210D01*
X190Y208D01*
X188Y208D01*
X188Y206D01*
X186Y206D01*
X186Y204D01*
X184Y204D01*
X184Y202D01*
X182Y202D01*
X182Y200D01*
X180Y200D01*
X180Y198D01*
X178Y198D01*
X178Y196D01*
X176Y196D01*
X176Y194D01*
X174Y194D01*
X174Y192D01*
X172Y192D01*
X172Y190D01*
X170Y190D01*
X170Y188D01*
X168Y188D01*
X168Y186D01*
X166Y186D01*
X166Y184D01*
X164Y184D01*
X164Y182D01*
X162Y182D01*
X162Y170D01*
X196Y170D01*
X196Y168D01*
X204Y168D01*
X204Y166D01*
X208Y166D01*
X208Y164D01*
X210Y164D01*
X210Y162D01*
X214Y162D01*
X214Y160D01*
X216Y160D01*
X216Y156D01*
X218Y156D01*
X218Y154D01*
X220Y154D01*
X220Y150D01*
X222Y150D01*
X222Y146D01*
X224Y146D01*
X224Y144D01*
X276Y144D01*
X276Y142D01*
X282Y142D01*
X282Y140D01*
X284Y140D01*
X284Y138D01*
X286Y138D01*
X286Y136D01*
X290Y136D01*
X290Y134D01*
X292Y134D01*
X292Y130D01*
X294Y130D01*
X294Y128D01*
X296Y128D01*
X296Y124D01*
X298Y124D01*
X298Y116D01*
X300Y116D01*
X300Y114D01*
X298Y114D01*
X298Y106D01*
X296Y106D01*
X296Y102D01*
X294Y102D01*
X294Y98D01*
X292Y98D01*
X292Y96D01*
X290Y96D01*
X290Y94D01*
X288Y94D01*
X288Y92D01*
X286Y92D01*
X286Y90D01*
X282Y90D01*
X282Y88D01*
X278Y88D01*
X278Y86D01*
X270Y86D01*
X270Y84D01*
X258Y84D01*
X258Y64D01*
X262Y64D01*
X262Y62D01*
X266Y62D01*
X266Y60D01*
X270Y60D01*
X270Y58D01*
X360Y58D01*
X360Y78D01*
X358Y78D01*
X358Y80D01*
X356Y80D01*
X356Y82D01*
X354Y82D01*
X354Y84D01*
X352Y84D01*
X352Y86D01*
X350Y86D01*
X350Y88D01*
X348Y88D01*
X348Y90D01*
X346Y90D01*
X346Y92D01*
X344Y92D01*
X344Y94D01*
X342Y94D01*
X342Y96D01*
X340Y96D01*
X340Y98D01*
X338Y98D01*
X338Y100D01*
X336Y100D01*
X336Y102D01*
X334Y102D01*
X334Y104D01*
X332Y104D01*
X332Y106D01*
X330Y106D01*
X330Y110D01*
X328Y110D01*
X328Y160D01*
X326Y160D01*
X326Y162D01*
X324Y162D01*
X324Y164D01*
X322Y164D01*
X322Y166D01*
X320Y166D01*
X320Y168D01*
X318Y168D01*
X318Y170D01*
X316Y170D01*
X316Y172D01*
X314Y172D01*
X314Y174D01*
X288Y174D01*
X288Y176D01*
X284Y176D01*
X284Y178D01*
X282Y178D01*
X282Y180D01*
X280Y180D01*
X280Y182D01*
X278Y182D01*
X278Y184D01*
X276Y184D01*
X276Y186D01*
X274Y186D01*
X274Y188D01*
X272Y188D01*
X272Y190D01*
X270Y190D01*
X270Y192D01*
X268Y192D01*
X268Y194D01*
X266Y194D01*
X266Y196D01*
X264Y196D01*
X264Y198D01*
X262Y198D01*
X262Y200D01*
X260Y200D01*
X260Y202D01*
X258Y202D01*
X258Y204D01*
X256Y204D01*
X256Y208D01*
X254Y208D01*
X254Y212D01*
X252Y212D01*
X252Y216D01*
X250Y216D01*
X250Y220D01*
X248Y220D01*
X248Y224D01*
X246Y224D01*
X246Y228D01*
X244Y228D01*
X244Y232D01*
X242Y232D01*
X242Y236D01*
X236Y236D01*
X236Y238D01*
X232Y238D01*
X232Y240D01*
X212Y240D01*
G37*
D02*
G36*
X162Y170D02*
X162Y164D01*
X182Y164D01*
X182Y166D01*
X184Y166D01*
X184Y168D01*
X192Y168D01*
X192Y170D01*
X162Y170D01*
G37*
D02*
G36*
X224Y144D02*
X224Y134D01*
X222Y134D01*
X222Y128D01*
X220Y128D01*
X220Y124D01*
X218Y124D01*
X218Y104D01*
X240Y104D01*
X240Y122D01*
X242Y122D01*
X242Y126D01*
X244Y126D01*
X244Y130D01*
X246Y130D01*
X246Y132D01*
X248Y132D01*
X248Y134D01*
X250Y134D01*
X250Y136D01*
X252Y136D01*
X252Y138D01*
X254Y138D01*
X254Y140D01*
X258Y140D01*
X258Y142D01*
X262Y142D01*
X262Y144D01*
X224Y144D01*
G37*
D02*
G36*
X442Y192D02*
X442Y180D01*
X444Y180D01*
X444Y178D01*
X446Y178D01*
X446Y176D01*
X448Y176D01*
X448Y174D01*
X450Y174D01*
X450Y172D01*
X452Y172D01*
X452Y170D01*
X454Y170D01*
X454Y168D01*
X456Y168D01*
X456Y166D01*
X458Y166D01*
X458Y164D01*
X460Y164D01*
X460Y160D01*
X462Y160D01*
X462Y156D01*
X464Y156D01*
X464Y150D01*
X466Y150D01*
X466Y144D01*
X502Y144D01*
X502Y142D01*
X506Y142D01*
X506Y140D01*
X510Y140D01*
X510Y138D01*
X512Y138D01*
X512Y136D01*
X514Y136D01*
X514Y134D01*
X516Y134D01*
X516Y132D01*
X518Y132D01*
X518Y130D01*
X520Y130D01*
X520Y126D01*
X522Y126D01*
X522Y122D01*
X524Y122D01*
X524Y108D01*
X522Y108D01*
X522Y104D01*
X520Y104D01*
X520Y100D01*
X518Y100D01*
X518Y98D01*
X516Y98D01*
X516Y94D01*
X512Y94D01*
X512Y92D01*
X510Y92D01*
X510Y90D01*
X508Y90D01*
X508Y88D01*
X504Y88D01*
X504Y86D01*
X496Y86D01*
X496Y84D01*
X486Y84D01*
X486Y82D01*
X484Y82D01*
X484Y80D01*
X482Y80D01*
X482Y78D01*
X480Y78D01*
X480Y58D01*
X714Y58D01*
X714Y60D01*
X716Y60D01*
X716Y62D01*
X718Y62D01*
X718Y64D01*
X720Y64D01*
X720Y66D01*
X722Y66D01*
X722Y68D01*
X724Y68D01*
X724Y70D01*
X726Y70D01*
X726Y72D01*
X728Y72D01*
X728Y74D01*
X730Y74D01*
X730Y76D01*
X732Y76D01*
X732Y78D01*
X734Y78D01*
X734Y80D01*
X736Y80D01*
X736Y82D01*
X738Y82D01*
X738Y84D01*
X740Y84D01*
X740Y86D01*
X742Y86D01*
X742Y88D01*
X744Y88D01*
X744Y90D01*
X746Y90D01*
X746Y92D01*
X748Y92D01*
X748Y94D01*
X750Y94D01*
X750Y96D01*
X752Y96D01*
X752Y98D01*
X754Y98D01*
X754Y100D01*
X756Y100D01*
X756Y102D01*
X758Y102D01*
X758Y104D01*
X760Y104D01*
X760Y106D01*
X762Y106D01*
X762Y108D01*
X764Y108D01*
X764Y110D01*
X766Y110D01*
X766Y112D01*
X768Y112D01*
X768Y114D01*
X770Y114D01*
X770Y116D01*
X772Y116D01*
X772Y158D01*
X770Y158D01*
X770Y160D01*
X768Y160D01*
X768Y162D01*
X766Y162D01*
X766Y164D01*
X764Y164D01*
X764Y166D01*
X762Y166D01*
X762Y168D01*
X488Y168D01*
X488Y170D01*
X484Y170D01*
X484Y172D01*
X480Y172D01*
X480Y174D01*
X478Y174D01*
X478Y176D01*
X476Y176D01*
X476Y178D01*
X474Y178D01*
X474Y180D01*
X472Y180D01*
X472Y182D01*
X470Y182D01*
X470Y184D01*
X468Y184D01*
X468Y186D01*
X466Y186D01*
X466Y188D01*
X464Y188D01*
X464Y190D01*
X462Y190D01*
X462Y192D01*
X442Y192D01*
G37*
D02*
G36*
X466Y144D02*
X466Y142D01*
X488Y142D01*
X488Y144D01*
X466Y144D01*
G37*
D02*
G36*
X616Y439D02*
X648Y439D01*
X648Y394D01*
X616Y394D01*
X616Y439D01*
G37*
D02*
G36*
X531Y310D02*
X556Y310D01*
X556Y284D01*
X531Y284D01*
X531Y310D01*
G37*
D02*
G36*
X550Y329D02*
X574Y329D01*
X574Y304D01*
X550Y304D01*
X550Y329D01*
G37*
D02*
G36*
X524Y853D02*
X550Y853D01*
X550Y828D01*
X524Y828D01*
X524Y853D01*
G37*
D02*
G36*
X555Y734D02*
X580Y734D01*
X580Y710D01*
X555Y710D01*
X555Y734D01*
G37*
D02*
G36*
X481Y448D02*
X506Y448D01*
X506Y424D01*
X481Y424D01*
X481Y448D01*
G37*
D02*
G36*
X500Y429D02*
X524Y429D01*
X524Y404D01*
X500Y404D01*
X500Y429D01*
G37*
D02*
G36*
X235Y642D02*
X252Y642D01*
X252Y586D01*
X235Y586D01*
X235Y642D01*
G37*
D02*
G36*
X244Y609D02*
X266Y609D01*
X266Y560D01*
X244Y560D01*
X244Y609D01*
G37*
D02*
G36*
X235Y848D02*
X252Y848D01*
X252Y792D01*
X235Y792D01*
X235Y848D01*
G37*
D02*
G36*
X244Y815D02*
X266Y815D01*
X266Y766D01*
X244Y766D01*
X244Y815D01*
G37*
D02*
G36*
X135Y848D02*
X152Y848D01*
X152Y792D01*
X135Y792D01*
X135Y848D01*
G37*
D02*
G36*
X281Y724D02*
X306Y724D01*
X306Y698D01*
X281Y698D01*
X281Y724D01*
G37*
D02*
G36*
X281Y684D02*
X306Y684D01*
X306Y660D01*
X281Y660D01*
X281Y684D01*
G37*
D02*
G36*
X300Y703D02*
X324Y703D01*
X324Y678D01*
X300Y678D01*
X300Y703D01*
G37*
D02*
G04 End of Copper1*
M02*