G04 MADE WITH FRITZING*
G04 WWW.FRITZING.ORG*
G04 DOUBLE SIDED*
G04 HOLES PLATED*
G04 CONTOUR ON CENTER OF CONTOUR VECTOR*
%ASAXBY*%
%FSLAX23Y23*%
%MOIN*%
%OFA0B0*%
%SFA1.0B1.0*%
%ADD10C,0.049370*%
%ADD11C,0.085000*%
%ADD12C,0.089370*%
%ADD13C,0.088000*%
%ADD14R,0.089370X0.089370*%
%ADD15R,0.065118X0.069055*%
%ADD16R,0.069055X0.065118*%
%ADD17C,0.026000*%
%LNMASK1*%
G90*
G70*
G54D10*
X580Y301D03*
X767Y664D03*
G54D11*
X592Y814D03*
X992Y814D03*
G54D12*
X417Y714D03*
X717Y714D03*
X417Y614D03*
X717Y614D03*
X417Y514D03*
X717Y514D03*
X417Y414D03*
X717Y414D03*
G54D11*
X992Y914D03*
X592Y914D03*
G54D10*
X767Y314D03*
G54D13*
X892Y151D03*
X792Y151D03*
G54D10*
X542Y189D03*
X355Y326D03*
G54D14*
X417Y714D03*
G54D15*
X830Y714D03*
X910Y714D03*
X830Y614D03*
X910Y614D03*
X830Y514D03*
X910Y514D03*
G54D16*
X830Y426D03*
X830Y345D03*
X930Y426D03*
X930Y345D03*
G54D15*
X317Y914D03*
X398Y914D03*
X767Y1001D03*
X848Y1001D03*
G54D16*
X242Y914D03*
X242Y994D03*
G54D15*
X242Y664D03*
X323Y664D03*
X317Y564D03*
X236Y564D03*
X242Y464D03*
X323Y464D03*
G54D17*
X690Y138D02*
X668Y138D01*
D02*
X690Y163D02*
X668Y163D01*
D02*
X690Y188D02*
X668Y188D01*
D02*
X690Y213D02*
X668Y213D01*
D02*
X690Y238D02*
X668Y238D01*
D02*
X690Y263D02*
X668Y263D01*
D02*
X690Y288D02*
X668Y288D01*
D02*
X690Y313D02*
X668Y313D01*
D02*
X478Y314D02*
X456Y314D01*
D02*
X478Y289D02*
X456Y289D01*
D02*
X478Y264D02*
X456Y264D01*
D02*
X478Y239D02*
X456Y239D01*
D02*
X478Y214D02*
X456Y214D01*
D02*
X478Y189D02*
X456Y189D01*
D02*
X478Y164D02*
X456Y164D01*
D02*
X478Y139D02*
X456Y139D01*
G04 End of Mask1*
M02*