G04 MADE WITH FRITZING*
G04 WWW.FRITZING.ORG*
G04 DOUBLE SIDED*
G04 HOLES PLATED*
G04 CONTOUR ON CENTER OF CONTOUR VECTOR*
%ASAXBY*%
%FSLAX23Y23*%
%MOIN*%
%OFA0B0*%
%SFA1.0B1.0*%
%ADD10C,0.085000*%
%ADD11C,0.049370*%
%ADD12C,0.089370*%
%ADD13R,0.065118X0.069055*%
%ADD14R,0.069055X0.065118*%
%ADD15R,0.089370X0.089370*%
%ADD16C,0.026000*%
%LNMASK0*%
G90*
G70*
G54D10*
X819Y815D03*
X419Y815D03*
G54D11*
X519Y840D03*
X544Y315D03*
X194Y140D03*
X269Y115D03*
X69Y715D03*
G54D10*
X819Y140D03*
X419Y140D03*
G54D12*
X369Y615D03*
X669Y615D03*
X369Y515D03*
X669Y515D03*
X369Y415D03*
X669Y415D03*
X369Y315D03*
X669Y315D03*
G54D11*
X494Y115D03*
X244Y265D03*
X144Y265D03*
X44Y915D03*
X294Y690D03*
X494Y415D03*
X644Y740D03*
X944Y740D03*
G54D13*
X869Y240D03*
X789Y240D03*
X869Y440D03*
X789Y440D03*
G54D14*
X244Y465D03*
X244Y546D03*
G54D13*
X119Y640D03*
X200Y640D03*
X144Y365D03*
X225Y365D03*
X114Y865D03*
X194Y865D03*
X194Y765D03*
X114Y765D03*
X569Y915D03*
X650Y915D03*
G54D14*
X544Y615D03*
X544Y534D03*
X119Y465D03*
X119Y546D03*
G54D13*
X344Y915D03*
X425Y915D03*
X869Y340D03*
X789Y340D03*
G54D14*
X569Y140D03*
X569Y221D03*
G54D13*
X794Y640D03*
X875Y640D03*
G54D14*
X669Y215D03*
X669Y134D03*
G54D15*
X369Y615D03*
G54D16*
X330Y240D02*
X308Y240D01*
D02*
X330Y215D02*
X308Y215D01*
D02*
X330Y190D02*
X308Y190D01*
D02*
X330Y165D02*
X308Y165D01*
D02*
X330Y140D02*
X308Y140D01*
D02*
X330Y115D02*
X308Y115D01*
D02*
X330Y90D02*
X308Y90D01*
D02*
X330Y65D02*
X308Y65D01*
D02*
X118Y64D02*
X96Y64D01*
D02*
X118Y89D02*
X96Y89D01*
D02*
X118Y114D02*
X96Y114D01*
D02*
X118Y139D02*
X96Y139D01*
D02*
X118Y164D02*
X96Y164D01*
D02*
X118Y189D02*
X96Y189D01*
D02*
X118Y214D02*
X96Y214D01*
D02*
X118Y239D02*
X96Y239D01*
G04 End of Mask0*
M02*