G04 MADE WITH FRITZING*
G04 WWW.FRITZING.ORG*
G04 DOUBLE SIDED*
G04 HOLES PLATED*
G04 CONTOUR ON CENTER OF CONTOUR VECTOR*
%ASAXBY*%
%FSLAX23Y23*%
%MOIN*%
%OFA0B0*%
%SFA1.0B1.0*%
%ADD10R,0.001000X0.001000*%
%LNSILK0*%
G90*
G70*
G54D10*
X486Y1016D02*
X490Y1016D01*
X555Y1016D02*
X559Y1016D01*
X485Y1015D02*
X491Y1015D01*
X554Y1015D02*
X560Y1015D01*
X176Y1014D02*
X188Y1014D01*
X238Y1014D02*
X257Y1014D01*
X485Y1014D02*
X491Y1014D01*
X554Y1014D02*
X560Y1014D01*
X580Y1014D02*
X582Y1014D01*
X683Y1014D02*
X695Y1014D01*
X755Y1014D02*
X773Y1014D01*
X786Y1014D02*
X788Y1014D01*
X805Y1014D02*
X807Y1014D01*
X864Y1014D02*
X873Y1014D01*
X967Y1014D02*
X979Y1014D01*
X176Y1013D02*
X189Y1013D01*
X236Y1013D02*
X258Y1013D01*
X485Y1013D02*
X491Y1013D01*
X554Y1013D02*
X560Y1013D01*
X579Y1013D02*
X582Y1013D01*
X682Y1013D02*
X697Y1013D01*
X753Y1013D02*
X773Y1013D01*
X785Y1013D02*
X789Y1013D01*
X804Y1013D02*
X807Y1013D01*
X863Y1013D02*
X874Y1013D01*
X965Y1013D02*
X979Y1013D01*
X176Y1012D02*
X189Y1012D01*
X236Y1012D02*
X258Y1012D01*
X485Y1012D02*
X491Y1012D01*
X525Y1012D02*
X527Y1012D01*
X554Y1012D02*
X560Y1012D01*
X579Y1012D02*
X583Y1012D01*
X682Y1012D02*
X698Y1012D01*
X752Y1012D02*
X773Y1012D01*
X785Y1012D02*
X789Y1012D01*
X804Y1012D02*
X808Y1012D01*
X863Y1012D02*
X874Y1012D01*
X964Y1012D02*
X979Y1012D01*
X176Y1011D02*
X189Y1011D01*
X235Y1011D02*
X257Y1011D01*
X485Y1011D02*
X491Y1011D01*
X524Y1011D02*
X528Y1011D01*
X554Y1011D02*
X560Y1011D01*
X579Y1011D02*
X583Y1011D01*
X682Y1011D02*
X698Y1011D01*
X752Y1011D02*
X773Y1011D01*
X785Y1011D02*
X789Y1011D01*
X804Y1011D02*
X808Y1011D01*
X863Y1011D02*
X874Y1011D01*
X963Y1011D02*
X979Y1011D01*
X176Y1010D02*
X188Y1010D01*
X235Y1010D02*
X256Y1010D01*
X487Y1010D02*
X490Y1010D01*
X524Y1010D02*
X528Y1010D01*
X555Y1010D02*
X559Y1010D01*
X579Y1010D02*
X583Y1010D01*
X683Y1010D02*
X699Y1010D01*
X751Y1010D02*
X773Y1010D01*
X785Y1010D02*
X789Y1010D01*
X804Y1010D02*
X808Y1010D01*
X863Y1010D02*
X873Y1010D01*
X963Y1010D02*
X978Y1010D01*
X176Y1009D02*
X180Y1009D01*
X235Y1009D02*
X239Y1009D01*
X524Y1009D02*
X528Y1009D01*
X579Y1009D02*
X583Y1009D01*
X695Y1009D02*
X699Y1009D01*
X751Y1009D02*
X755Y1009D01*
X769Y1009D02*
X773Y1009D01*
X785Y1009D02*
X789Y1009D01*
X804Y1009D02*
X808Y1009D01*
X863Y1009D02*
X867Y1009D01*
X962Y1009D02*
X967Y1009D01*
X971Y1009D02*
X975Y1009D01*
X176Y1008D02*
X180Y1008D01*
X235Y1008D02*
X239Y1008D01*
X524Y1008D02*
X528Y1008D01*
X579Y1008D02*
X583Y1008D01*
X695Y1008D02*
X700Y1008D01*
X751Y1008D02*
X755Y1008D01*
X769Y1008D02*
X773Y1008D01*
X785Y1008D02*
X789Y1008D01*
X804Y1008D02*
X808Y1008D01*
X863Y1008D02*
X867Y1008D01*
X962Y1008D02*
X966Y1008D01*
X971Y1008D02*
X975Y1008D01*
X176Y1007D02*
X180Y1007D01*
X235Y1007D02*
X239Y1007D01*
X524Y1007D02*
X528Y1007D01*
X579Y1007D02*
X583Y1007D01*
X696Y1007D02*
X700Y1007D01*
X751Y1007D02*
X754Y1007D01*
X769Y1007D02*
X773Y1007D01*
X785Y1007D02*
X789Y1007D01*
X804Y1007D02*
X808Y1007D01*
X863Y1007D02*
X867Y1007D01*
X961Y1007D02*
X965Y1007D01*
X971Y1007D02*
X975Y1007D01*
X176Y1006D02*
X180Y1006D01*
X235Y1006D02*
X239Y1006D01*
X524Y1006D02*
X528Y1006D01*
X579Y1006D02*
X583Y1006D01*
X696Y1006D02*
X701Y1006D01*
X751Y1006D02*
X754Y1006D01*
X769Y1006D02*
X773Y1006D01*
X785Y1006D02*
X789Y1006D01*
X804Y1006D02*
X808Y1006D01*
X863Y1006D02*
X867Y1006D01*
X961Y1006D02*
X965Y1006D01*
X971Y1006D02*
X975Y1006D01*
X176Y1005D02*
X180Y1005D01*
X235Y1005D02*
X239Y1005D01*
X524Y1005D02*
X528Y1005D01*
X579Y1005D02*
X583Y1005D01*
X697Y1005D02*
X701Y1005D01*
X751Y1005D02*
X754Y1005D01*
X769Y1005D02*
X773Y1005D01*
X785Y1005D02*
X789Y1005D01*
X804Y1005D02*
X808Y1005D01*
X863Y1005D02*
X867Y1005D01*
X960Y1005D02*
X964Y1005D01*
X971Y1005D02*
X975Y1005D01*
X176Y1004D02*
X180Y1004D01*
X235Y1004D02*
X239Y1004D01*
X270Y1004D02*
X272Y1004D01*
X289Y1004D02*
X291Y1004D01*
X343Y1004D02*
X350Y1004D01*
X358Y1004D02*
X360Y1004D01*
X379Y1004D02*
X389Y1004D01*
X412Y1004D02*
X419Y1004D01*
X427Y1004D02*
X429Y1004D01*
X448Y1004D02*
X458Y1004D01*
X486Y1004D02*
X495Y1004D01*
X513Y1004D02*
X532Y1004D01*
X555Y1004D02*
X564Y1004D01*
X579Y1004D02*
X583Y1004D01*
X587Y1004D02*
X595Y1004D01*
X618Y1004D02*
X625Y1004D01*
X633Y1004D02*
X635Y1004D01*
X654Y1004D02*
X664Y1004D01*
X697Y1004D02*
X702Y1004D01*
X751Y1004D02*
X755Y1004D01*
X769Y1004D02*
X773Y1004D01*
X785Y1004D02*
X789Y1004D01*
X804Y1004D02*
X808Y1004D01*
X863Y1004D02*
X867Y1004D01*
X893Y1004D02*
X905Y1004D01*
X924Y1004D02*
X925Y1004D01*
X942Y1004D02*
X944Y1004D01*
X960Y1004D02*
X964Y1004D01*
X971Y1004D02*
X975Y1004D01*
X176Y1003D02*
X180Y1003D01*
X235Y1003D02*
X239Y1003D01*
X270Y1003D02*
X273Y1003D01*
X289Y1003D02*
X292Y1003D01*
X341Y1003D02*
X352Y1003D01*
X357Y1003D02*
X361Y1003D01*
X377Y1003D02*
X391Y1003D01*
X410Y1003D02*
X421Y1003D01*
X426Y1003D02*
X429Y1003D01*
X446Y1003D02*
X459Y1003D01*
X485Y1003D02*
X496Y1003D01*
X513Y1003D02*
X532Y1003D01*
X554Y1003D02*
X564Y1003D01*
X579Y1003D02*
X583Y1003D01*
X586Y1003D02*
X597Y1003D01*
X617Y1003D02*
X627Y1003D01*
X632Y1003D02*
X636Y1003D01*
X652Y1003D02*
X666Y1003D01*
X698Y1003D02*
X702Y1003D01*
X751Y1003D02*
X755Y1003D01*
X769Y1003D02*
X773Y1003D01*
X785Y1003D02*
X789Y1003D01*
X803Y1003D02*
X807Y1003D01*
X863Y1003D02*
X867Y1003D01*
X892Y1003D02*
X906Y1003D01*
X923Y1003D02*
X926Y1003D01*
X942Y1003D02*
X945Y1003D01*
X959Y1003D02*
X963Y1003D01*
X971Y1003D02*
X975Y1003D01*
X176Y1002D02*
X180Y1002D01*
X235Y1002D02*
X239Y1002D01*
X269Y1002D02*
X273Y1002D01*
X288Y1002D02*
X292Y1002D01*
X340Y1002D02*
X353Y1002D01*
X357Y1002D02*
X361Y1002D01*
X376Y1002D02*
X392Y1002D01*
X409Y1002D02*
X422Y1002D01*
X426Y1002D02*
X430Y1002D01*
X445Y1002D02*
X461Y1002D01*
X485Y1002D02*
X496Y1002D01*
X512Y1002D02*
X533Y1002D01*
X554Y1002D02*
X565Y1002D01*
X579Y1002D02*
X598Y1002D01*
X616Y1002D02*
X629Y1002D01*
X632Y1002D02*
X636Y1002D01*
X651Y1002D02*
X667Y1002D01*
X698Y1002D02*
X703Y1002D01*
X751Y1002D02*
X773Y1002D01*
X786Y1002D02*
X790Y1002D01*
X803Y1002D02*
X807Y1002D01*
X863Y1002D02*
X867Y1002D01*
X890Y1002D02*
X906Y1002D01*
X922Y1002D02*
X926Y1002D01*
X941Y1002D02*
X945Y1002D01*
X959Y1002D02*
X963Y1002D01*
X971Y1002D02*
X975Y1002D01*
X176Y1001D02*
X180Y1001D01*
X235Y1001D02*
X239Y1001D01*
X269Y1001D02*
X273Y1001D01*
X288Y1001D02*
X292Y1001D01*
X339Y1001D02*
X354Y1001D01*
X357Y1001D02*
X361Y1001D01*
X375Y1001D02*
X393Y1001D01*
X409Y1001D02*
X424Y1001D01*
X426Y1001D02*
X430Y1001D01*
X443Y1001D02*
X462Y1001D01*
X485Y1001D02*
X496Y1001D01*
X513Y1001D02*
X532Y1001D01*
X554Y1001D02*
X564Y1001D01*
X579Y1001D02*
X599Y1001D01*
X615Y1001D02*
X630Y1001D01*
X632Y1001D02*
X636Y1001D01*
X650Y1001D02*
X668Y1001D01*
X699Y1001D02*
X703Y1001D01*
X752Y1001D02*
X773Y1001D01*
X786Y1001D02*
X790Y1001D01*
X802Y1001D02*
X807Y1001D01*
X863Y1001D02*
X867Y1001D01*
X890Y1001D02*
X906Y1001D01*
X922Y1001D02*
X926Y1001D01*
X941Y1001D02*
X945Y1001D01*
X958Y1001D02*
X962Y1001D01*
X971Y1001D02*
X975Y1001D01*
X176Y1000D02*
X180Y1000D01*
X235Y1000D02*
X239Y1000D01*
X269Y1000D02*
X273Y1000D01*
X288Y1000D02*
X292Y1000D01*
X339Y1000D02*
X355Y1000D01*
X357Y1000D02*
X361Y1000D01*
X374Y1000D02*
X394Y1000D01*
X408Y1000D02*
X430Y1000D01*
X443Y1000D02*
X462Y1000D01*
X485Y1000D02*
X495Y1000D01*
X514Y1000D02*
X531Y1000D01*
X554Y1000D02*
X563Y1000D01*
X579Y1000D02*
X600Y1000D01*
X614Y1000D02*
X636Y1000D01*
X649Y1000D02*
X669Y1000D01*
X699Y1000D02*
X704Y1000D01*
X753Y1000D02*
X773Y1000D01*
X786Y1000D02*
X791Y1000D01*
X802Y1000D02*
X806Y1000D01*
X863Y1000D02*
X867Y1000D01*
X889Y1000D02*
X905Y1000D01*
X922Y1000D02*
X926Y1000D01*
X941Y1000D02*
X945Y1000D01*
X958Y1000D02*
X962Y1000D01*
X971Y1000D02*
X975Y1000D01*
X176Y999D02*
X180Y999D01*
X235Y999D02*
X240Y999D01*
X269Y999D02*
X273Y999D01*
X288Y999D02*
X292Y999D01*
X338Y999D02*
X343Y999D01*
X350Y999D02*
X361Y999D01*
X373Y999D02*
X379Y999D01*
X389Y999D02*
X394Y999D01*
X408Y999D02*
X412Y999D01*
X419Y999D02*
X430Y999D01*
X442Y999D02*
X447Y999D01*
X458Y999D02*
X463Y999D01*
X485Y999D02*
X489Y999D01*
X524Y999D02*
X528Y999D01*
X554Y999D02*
X558Y999D01*
X579Y999D02*
X587Y999D01*
X595Y999D02*
X601Y999D01*
X614Y999D02*
X618Y999D01*
X625Y999D02*
X636Y999D01*
X648Y999D02*
X654Y999D01*
X664Y999D02*
X669Y999D01*
X700Y999D02*
X704Y999D01*
X754Y999D02*
X773Y999D01*
X787Y999D02*
X791Y999D01*
X802Y999D02*
X806Y999D01*
X863Y999D02*
X867Y999D01*
X889Y999D02*
X893Y999D01*
X922Y999D02*
X926Y999D01*
X941Y999D02*
X945Y999D01*
X957Y999D02*
X961Y999D01*
X971Y999D02*
X975Y999D01*
X176Y998D02*
X180Y998D01*
X236Y998D02*
X252Y998D01*
X269Y998D02*
X273Y998D01*
X288Y998D02*
X292Y998D01*
X338Y998D02*
X342Y998D01*
X351Y998D02*
X361Y998D01*
X373Y998D02*
X377Y998D01*
X390Y998D02*
X395Y998D01*
X408Y998D02*
X411Y998D01*
X421Y998D02*
X430Y998D01*
X442Y998D02*
X446Y998D01*
X459Y998D02*
X464Y998D01*
X485Y998D02*
X489Y998D01*
X524Y998D02*
X528Y998D01*
X554Y998D02*
X558Y998D01*
X579Y998D02*
X586Y998D01*
X596Y998D02*
X601Y998D01*
X614Y998D02*
X618Y998D01*
X627Y998D02*
X636Y998D01*
X648Y998D02*
X652Y998D01*
X665Y998D02*
X670Y998D01*
X700Y998D02*
X704Y998D01*
X756Y998D02*
X773Y998D01*
X787Y998D02*
X791Y998D01*
X801Y998D02*
X805Y998D01*
X863Y998D02*
X867Y998D01*
X889Y998D02*
X893Y998D01*
X922Y998D02*
X926Y998D01*
X941Y998D02*
X945Y998D01*
X957Y998D02*
X961Y998D01*
X971Y998D02*
X975Y998D01*
X176Y997D02*
X180Y997D01*
X236Y997D02*
X253Y997D01*
X270Y997D02*
X274Y997D01*
X288Y997D02*
X292Y997D01*
X338Y997D02*
X342Y997D01*
X352Y997D02*
X361Y997D01*
X373Y997D02*
X377Y997D01*
X391Y997D02*
X395Y997D01*
X407Y997D02*
X411Y997D01*
X422Y997D02*
X430Y997D01*
X441Y997D02*
X445Y997D01*
X460Y997D02*
X464Y997D01*
X485Y997D02*
X489Y997D01*
X524Y997D02*
X528Y997D01*
X554Y997D02*
X558Y997D01*
X579Y997D02*
X585Y997D01*
X597Y997D02*
X601Y997D01*
X614Y997D02*
X618Y997D01*
X628Y997D02*
X636Y997D01*
X648Y997D02*
X652Y997D01*
X666Y997D02*
X670Y997D01*
X701Y997D02*
X704Y997D01*
X760Y997D02*
X765Y997D01*
X769Y997D02*
X773Y997D01*
X788Y997D02*
X792Y997D01*
X801Y997D02*
X805Y997D01*
X863Y997D02*
X867Y997D01*
X889Y997D02*
X893Y997D01*
X922Y997D02*
X926Y997D01*
X941Y997D02*
X945Y997D01*
X957Y997D02*
X961Y997D01*
X971Y997D02*
X975Y997D01*
X176Y996D02*
X180Y996D01*
X237Y996D02*
X253Y996D01*
X270Y996D02*
X274Y996D01*
X287Y996D02*
X291Y996D01*
X338Y996D02*
X342Y996D01*
X353Y996D02*
X361Y996D01*
X373Y996D02*
X376Y996D01*
X391Y996D02*
X395Y996D01*
X407Y996D02*
X411Y996D01*
X424Y996D02*
X430Y996D01*
X441Y996D02*
X445Y996D01*
X460Y996D02*
X464Y996D01*
X485Y996D02*
X489Y996D01*
X524Y996D02*
X528Y996D01*
X554Y996D02*
X558Y996D01*
X579Y996D02*
X584Y996D01*
X598Y996D02*
X601Y996D01*
X614Y996D02*
X617Y996D01*
X630Y996D02*
X636Y996D01*
X648Y996D02*
X651Y996D01*
X666Y996D02*
X670Y996D01*
X701Y996D02*
X705Y996D01*
X760Y996D02*
X764Y996D01*
X769Y996D02*
X773Y996D01*
X788Y996D02*
X792Y996D01*
X801Y996D02*
X805Y996D01*
X863Y996D02*
X867Y996D01*
X889Y996D02*
X892Y996D01*
X922Y996D02*
X926Y996D01*
X941Y996D02*
X945Y996D01*
X957Y996D02*
X961Y996D01*
X971Y996D02*
X975Y996D01*
X176Y995D02*
X180Y995D01*
X236Y995D02*
X253Y995D01*
X271Y995D02*
X275Y995D01*
X287Y995D02*
X291Y995D01*
X338Y995D02*
X342Y995D01*
X355Y995D02*
X361Y995D01*
X373Y995D02*
X376Y995D01*
X391Y995D02*
X395Y995D01*
X407Y995D02*
X411Y995D01*
X425Y995D02*
X430Y995D01*
X441Y995D02*
X445Y995D01*
X460Y995D02*
X464Y995D01*
X485Y995D02*
X489Y995D01*
X524Y995D02*
X528Y995D01*
X554Y995D02*
X558Y995D01*
X579Y995D02*
X583Y995D01*
X598Y995D02*
X601Y995D01*
X614Y995D02*
X617Y995D01*
X631Y995D02*
X636Y995D01*
X647Y995D02*
X651Y995D01*
X666Y995D02*
X670Y995D01*
X701Y995D02*
X704Y995D01*
X759Y995D02*
X764Y995D01*
X769Y995D02*
X773Y995D01*
X788Y995D02*
X793Y995D01*
X800Y995D02*
X804Y995D01*
X863Y995D02*
X867Y995D01*
X889Y995D02*
X892Y995D01*
X922Y995D02*
X926Y995D01*
X941Y995D02*
X945Y995D01*
X957Y995D02*
X961Y995D01*
X971Y995D02*
X975Y995D01*
X167Y994D02*
X169Y994D01*
X176Y994D02*
X180Y994D01*
X236Y994D02*
X252Y994D01*
X271Y994D02*
X275Y994D01*
X286Y994D02*
X291Y994D01*
X339Y994D02*
X341Y994D01*
X356Y994D02*
X361Y994D01*
X373Y994D02*
X376Y994D01*
X391Y994D02*
X395Y994D01*
X407Y994D02*
X411Y994D01*
X426Y994D02*
X430Y994D01*
X441Y994D02*
X445Y994D01*
X460Y994D02*
X464Y994D01*
X485Y994D02*
X489Y994D01*
X524Y994D02*
X528Y994D01*
X554Y994D02*
X558Y994D01*
X579Y994D02*
X583Y994D01*
X598Y994D02*
X601Y994D01*
X614Y994D02*
X617Y994D01*
X632Y994D02*
X636Y994D01*
X647Y994D02*
X651Y994D01*
X666Y994D02*
X670Y994D01*
X700Y994D02*
X704Y994D01*
X758Y994D02*
X763Y994D01*
X769Y994D02*
X773Y994D01*
X789Y994D02*
X793Y994D01*
X800Y994D02*
X804Y994D01*
X863Y994D02*
X867Y994D01*
X889Y994D02*
X906Y994D01*
X922Y994D02*
X926Y994D01*
X941Y994D02*
X945Y994D01*
X957Y994D02*
X961Y994D01*
X971Y994D02*
X975Y994D01*
X167Y993D02*
X170Y993D01*
X176Y993D02*
X180Y993D01*
X235Y993D02*
X240Y993D01*
X271Y993D02*
X276Y993D01*
X286Y993D02*
X290Y993D01*
X357Y993D02*
X361Y993D01*
X373Y993D02*
X376Y993D01*
X391Y993D02*
X395Y993D01*
X407Y993D02*
X411Y993D01*
X426Y993D02*
X430Y993D01*
X441Y993D02*
X445Y993D01*
X460Y993D02*
X464Y993D01*
X485Y993D02*
X489Y993D01*
X524Y993D02*
X528Y993D01*
X554Y993D02*
X558Y993D01*
X579Y993D02*
X583Y993D01*
X598Y993D02*
X601Y993D01*
X614Y993D02*
X617Y993D01*
X632Y993D02*
X636Y993D01*
X647Y993D02*
X651Y993D01*
X666Y993D02*
X670Y993D01*
X700Y993D02*
X704Y993D01*
X758Y993D02*
X762Y993D01*
X769Y993D02*
X773Y993D01*
X789Y993D02*
X793Y993D01*
X799Y993D02*
X804Y993D01*
X863Y993D02*
X867Y993D01*
X889Y993D02*
X908Y993D01*
X922Y993D02*
X926Y993D01*
X941Y993D02*
X945Y993D01*
X957Y993D02*
X961Y993D01*
X971Y993D02*
X975Y993D01*
X166Y992D02*
X170Y992D01*
X176Y992D02*
X180Y992D01*
X209Y992D02*
X215Y992D01*
X235Y992D02*
X239Y992D01*
X272Y992D02*
X276Y992D01*
X285Y992D02*
X290Y992D01*
X357Y992D02*
X361Y992D01*
X373Y992D02*
X395Y992D01*
X407Y992D02*
X411Y992D01*
X426Y992D02*
X430Y992D01*
X441Y992D02*
X445Y992D01*
X460Y992D02*
X464Y992D01*
X485Y992D02*
X489Y992D01*
X524Y992D02*
X528Y992D01*
X554Y992D02*
X558Y992D01*
X579Y992D02*
X583Y992D01*
X598Y992D02*
X601Y992D01*
X614Y992D02*
X617Y992D01*
X632Y992D02*
X636Y992D01*
X647Y992D02*
X651Y992D01*
X666Y992D02*
X670Y992D01*
X699Y992D02*
X704Y992D01*
X757Y992D02*
X762Y992D01*
X769Y992D02*
X773Y992D01*
X790Y992D02*
X794Y992D01*
X799Y992D02*
X803Y992D01*
X863Y992D02*
X867Y992D01*
X889Y992D02*
X909Y992D01*
X922Y992D02*
X926Y992D01*
X941Y992D02*
X945Y992D01*
X958Y992D02*
X962Y992D01*
X971Y992D02*
X975Y992D01*
X166Y991D02*
X170Y991D01*
X176Y991D02*
X180Y991D01*
X208Y991D02*
X216Y991D01*
X235Y991D02*
X239Y991D01*
X272Y991D02*
X277Y991D01*
X285Y991D02*
X289Y991D01*
X357Y991D02*
X361Y991D01*
X373Y991D02*
X395Y991D01*
X407Y991D02*
X411Y991D01*
X426Y991D02*
X430Y991D01*
X441Y991D02*
X445Y991D01*
X460Y991D02*
X464Y991D01*
X485Y991D02*
X489Y991D01*
X524Y991D02*
X528Y991D01*
X554Y991D02*
X558Y991D01*
X579Y991D02*
X583Y991D01*
X598Y991D02*
X601Y991D01*
X614Y991D02*
X617Y991D01*
X632Y991D02*
X636Y991D01*
X647Y991D02*
X651Y991D01*
X666Y991D02*
X670Y991D01*
X699Y991D02*
X703Y991D01*
X757Y991D02*
X761Y991D01*
X769Y991D02*
X773Y991D01*
X790Y991D02*
X794Y991D01*
X799Y991D02*
X803Y991D01*
X863Y991D02*
X867Y991D01*
X888Y991D02*
X910Y991D01*
X922Y991D02*
X926Y991D01*
X941Y991D02*
X945Y991D01*
X958Y991D02*
X962Y991D01*
X971Y991D02*
X975Y991D01*
X166Y990D02*
X170Y990D01*
X176Y990D02*
X180Y990D01*
X208Y990D02*
X216Y990D01*
X235Y990D02*
X239Y990D01*
X273Y990D02*
X277Y990D01*
X285Y990D02*
X289Y990D01*
X357Y990D02*
X361Y990D01*
X373Y990D02*
X395Y990D01*
X407Y990D02*
X411Y990D01*
X426Y990D02*
X430Y990D01*
X441Y990D02*
X445Y990D01*
X460Y990D02*
X464Y990D01*
X485Y990D02*
X489Y990D01*
X524Y990D02*
X528Y990D01*
X554Y990D02*
X558Y990D01*
X579Y990D02*
X583Y990D01*
X598Y990D02*
X601Y990D01*
X613Y990D02*
X617Y990D01*
X632Y990D02*
X636Y990D01*
X647Y990D02*
X651Y990D01*
X666Y990D02*
X670Y990D01*
X698Y990D02*
X703Y990D01*
X756Y990D02*
X761Y990D01*
X769Y990D02*
X773Y990D01*
X790Y990D02*
X794Y990D01*
X798Y990D02*
X802Y990D01*
X863Y990D02*
X867Y990D01*
X888Y990D02*
X910Y990D01*
X922Y990D02*
X926Y990D01*
X941Y990D02*
X945Y990D01*
X959Y990D02*
X963Y990D01*
X971Y990D02*
X975Y990D01*
X166Y989D02*
X170Y989D01*
X176Y989D02*
X180Y989D01*
X208Y989D02*
X216Y989D01*
X235Y989D02*
X239Y989D01*
X273Y989D02*
X277Y989D01*
X284Y989D02*
X288Y989D01*
X357Y989D02*
X361Y989D01*
X373Y989D02*
X395Y989D01*
X407Y989D02*
X411Y989D01*
X426Y989D02*
X430Y989D01*
X441Y989D02*
X445Y989D01*
X460Y989D02*
X464Y989D01*
X485Y989D02*
X489Y989D01*
X524Y989D02*
X528Y989D01*
X554Y989D02*
X558Y989D01*
X579Y989D02*
X583Y989D01*
X598Y989D02*
X601Y989D01*
X613Y989D02*
X617Y989D01*
X632Y989D02*
X636Y989D01*
X647Y989D02*
X651Y989D01*
X666Y989D02*
X670Y989D01*
X698Y989D02*
X702Y989D01*
X756Y989D02*
X760Y989D01*
X769Y989D02*
X773Y989D01*
X791Y989D02*
X795Y989D01*
X798Y989D02*
X802Y989D01*
X863Y989D02*
X867Y989D01*
X888Y989D02*
X893Y989D01*
X906Y989D02*
X911Y989D01*
X922Y989D02*
X926Y989D01*
X941Y989D02*
X945Y989D01*
X959Y989D02*
X963Y989D01*
X971Y989D02*
X975Y989D01*
X166Y988D02*
X170Y988D01*
X176Y988D02*
X180Y988D01*
X208Y988D02*
X216Y988D01*
X235Y988D02*
X239Y988D01*
X274Y988D02*
X278Y988D01*
X284Y988D02*
X288Y988D01*
X357Y988D02*
X361Y988D01*
X374Y988D02*
X395Y988D01*
X407Y988D02*
X411Y988D01*
X426Y988D02*
X430Y988D01*
X441Y988D02*
X445Y988D01*
X460Y988D02*
X464Y988D01*
X485Y988D02*
X489Y988D01*
X524Y988D02*
X528Y988D01*
X554Y988D02*
X558Y988D01*
X579Y988D02*
X583Y988D01*
X598Y988D02*
X601Y988D01*
X613Y988D02*
X617Y988D01*
X632Y988D02*
X636Y988D01*
X647Y988D02*
X651Y988D01*
X666Y988D02*
X670Y988D01*
X697Y988D02*
X702Y988D01*
X755Y988D02*
X760Y988D01*
X769Y988D02*
X773Y988D01*
X791Y988D02*
X795Y988D01*
X797Y988D02*
X802Y988D01*
X863Y988D02*
X867Y988D01*
X888Y988D02*
X892Y988D01*
X907Y988D02*
X911Y988D01*
X922Y988D02*
X926Y988D01*
X941Y988D02*
X945Y988D01*
X960Y988D02*
X964Y988D01*
X971Y988D02*
X975Y988D01*
X166Y987D02*
X170Y987D01*
X176Y987D02*
X180Y987D01*
X208Y987D02*
X216Y987D01*
X235Y987D02*
X239Y987D01*
X274Y987D02*
X278Y987D01*
X283Y987D02*
X287Y987D01*
X357Y987D02*
X361Y987D01*
X391Y987D02*
X395Y987D01*
X407Y987D02*
X411Y987D01*
X426Y987D02*
X430Y987D01*
X441Y987D02*
X445Y987D01*
X460Y987D02*
X464Y987D01*
X485Y987D02*
X489Y987D01*
X524Y987D02*
X528Y987D01*
X554Y987D02*
X558Y987D01*
X579Y987D02*
X583Y987D01*
X598Y987D02*
X601Y987D01*
X613Y987D02*
X617Y987D01*
X632Y987D02*
X636Y987D01*
X647Y987D02*
X651Y987D01*
X666Y987D02*
X670Y987D01*
X697Y987D02*
X701Y987D01*
X754Y987D02*
X759Y987D01*
X769Y987D02*
X773Y987D01*
X791Y987D02*
X801Y987D01*
X863Y987D02*
X867Y987D01*
X888Y987D02*
X892Y987D01*
X907Y987D02*
X911Y987D01*
X922Y987D02*
X927Y987D01*
X941Y987D02*
X945Y987D01*
X960Y987D02*
X964Y987D01*
X971Y987D02*
X975Y987D01*
X166Y986D02*
X170Y986D01*
X176Y986D02*
X180Y986D01*
X208Y986D02*
X216Y986D01*
X235Y986D02*
X239Y986D01*
X274Y986D02*
X279Y986D01*
X283Y986D02*
X287Y986D01*
X357Y986D02*
X361Y986D01*
X391Y986D02*
X395Y986D01*
X407Y986D02*
X411Y986D01*
X426Y986D02*
X430Y986D01*
X441Y986D02*
X445Y986D01*
X460Y986D02*
X464Y986D01*
X485Y986D02*
X489Y986D01*
X511Y986D02*
X512Y986D01*
X524Y986D02*
X528Y986D01*
X554Y986D02*
X558Y986D01*
X579Y986D02*
X584Y986D01*
X598Y986D02*
X601Y986D01*
X613Y986D02*
X617Y986D01*
X632Y986D02*
X636Y986D01*
X647Y986D02*
X651Y986D01*
X666Y986D02*
X670Y986D01*
X696Y986D02*
X701Y986D01*
X754Y986D02*
X758Y986D01*
X769Y986D02*
X773Y986D01*
X792Y986D02*
X801Y986D01*
X863Y986D02*
X867Y986D01*
X888Y986D02*
X892Y986D01*
X907Y986D02*
X911Y986D01*
X922Y986D02*
X928Y986D01*
X941Y986D02*
X945Y986D01*
X961Y986D02*
X965Y986D01*
X971Y986D02*
X975Y986D01*
X166Y985D02*
X170Y985D01*
X176Y985D02*
X180Y985D01*
X208Y985D02*
X216Y985D01*
X235Y985D02*
X239Y985D01*
X275Y985D02*
X279Y985D01*
X282Y985D02*
X287Y985D01*
X357Y985D02*
X361Y985D01*
X391Y985D02*
X395Y985D01*
X407Y985D02*
X411Y985D01*
X426Y985D02*
X430Y985D01*
X441Y985D02*
X445Y985D01*
X460Y985D02*
X464Y985D01*
X485Y985D02*
X489Y985D01*
X510Y985D02*
X513Y985D01*
X524Y985D02*
X528Y985D01*
X554Y985D02*
X558Y985D01*
X579Y985D02*
X585Y985D01*
X597Y985D02*
X601Y985D01*
X613Y985D02*
X617Y985D01*
X632Y985D02*
X636Y985D01*
X648Y985D02*
X652Y985D01*
X666Y985D02*
X670Y985D01*
X696Y985D02*
X700Y985D01*
X753Y985D02*
X758Y985D01*
X769Y985D02*
X773Y985D01*
X792Y985D02*
X800Y985D01*
X863Y985D02*
X867Y985D01*
X888Y985D02*
X893Y985D01*
X907Y985D02*
X911Y985D01*
X922Y985D02*
X930Y985D01*
X941Y985D02*
X945Y985D01*
X961Y985D02*
X965Y985D01*
X971Y985D02*
X975Y985D01*
X166Y984D02*
X170Y984D01*
X176Y984D02*
X180Y984D01*
X209Y984D02*
X215Y984D01*
X235Y984D02*
X239Y984D01*
X275Y984D02*
X280Y984D01*
X282Y984D02*
X286Y984D01*
X357Y984D02*
X361Y984D01*
X390Y984D02*
X395Y984D01*
X407Y984D02*
X411Y984D01*
X426Y984D02*
X430Y984D01*
X442Y984D02*
X446Y984D01*
X459Y984D02*
X464Y984D01*
X485Y984D02*
X489Y984D01*
X510Y984D02*
X514Y984D01*
X524Y984D02*
X528Y984D01*
X554Y984D02*
X558Y984D01*
X579Y984D02*
X586Y984D01*
X597Y984D02*
X601Y984D01*
X613Y984D02*
X617Y984D01*
X632Y984D02*
X636Y984D01*
X648Y984D02*
X652Y984D01*
X665Y984D02*
X670Y984D01*
X695Y984D02*
X700Y984D01*
X753Y984D02*
X757Y984D01*
X769Y984D02*
X773Y984D01*
X793Y984D02*
X800Y984D01*
X863Y984D02*
X867Y984D01*
X888Y984D02*
X894Y984D01*
X907Y984D02*
X911Y984D01*
X922Y984D02*
X931Y984D01*
X941Y984D02*
X945Y984D01*
X962Y984D02*
X966Y984D01*
X971Y984D02*
X975Y984D01*
X166Y983D02*
X170Y983D01*
X176Y983D02*
X180Y983D01*
X235Y983D02*
X239Y983D01*
X276Y983D02*
X286Y983D01*
X357Y983D02*
X361Y983D01*
X389Y983D02*
X395Y983D01*
X407Y983D02*
X411Y983D01*
X426Y983D02*
X430Y983D01*
X442Y983D02*
X447Y983D01*
X458Y983D02*
X463Y983D01*
X485Y983D02*
X489Y983D01*
X510Y983D02*
X515Y983D01*
X523Y983D02*
X528Y983D01*
X554Y983D02*
X558Y983D01*
X579Y983D02*
X587Y983D01*
X595Y983D02*
X601Y983D01*
X613Y983D02*
X617Y983D01*
X632Y983D02*
X636Y983D01*
X648Y983D02*
X654Y983D01*
X664Y983D02*
X669Y983D01*
X695Y983D02*
X699Y983D01*
X752Y983D02*
X757Y983D01*
X769Y983D02*
X773Y983D01*
X793Y983D02*
X800Y983D01*
X863Y983D02*
X867Y983D01*
X888Y983D02*
X896Y983D01*
X906Y983D02*
X911Y983D01*
X922Y983D02*
X933Y983D01*
X940Y983D02*
X944Y983D01*
X962Y983D02*
X967Y983D01*
X971Y983D02*
X975Y983D01*
X166Y982D02*
X188Y982D01*
X235Y982D02*
X256Y982D01*
X276Y982D02*
X285Y982D01*
X357Y982D02*
X361Y982D01*
X374Y982D02*
X394Y982D01*
X407Y982D02*
X411Y982D01*
X426Y982D02*
X430Y982D01*
X443Y982D02*
X463Y982D01*
X479Y982D02*
X495Y982D01*
X511Y982D02*
X527Y982D01*
X548Y982D02*
X563Y982D01*
X579Y982D02*
X600Y982D01*
X613Y982D02*
X617Y982D01*
X632Y982D02*
X636Y982D01*
X649Y982D02*
X669Y982D01*
X683Y982D02*
X699Y982D01*
X751Y982D02*
X756Y982D01*
X769Y982D02*
X773Y982D01*
X793Y982D02*
X799Y982D01*
X858Y982D02*
X873Y982D01*
X888Y982D02*
X910Y982D01*
X922Y982D02*
X944Y982D01*
X963Y982D02*
X978Y982D01*
X166Y981D02*
X189Y981D01*
X235Y981D02*
X257Y981D01*
X277Y981D02*
X285Y981D01*
X357Y981D02*
X361Y981D01*
X373Y981D02*
X393Y981D01*
X407Y981D02*
X411Y981D01*
X426Y981D02*
X430Y981D01*
X444Y981D02*
X462Y981D01*
X478Y981D02*
X496Y981D01*
X511Y981D02*
X527Y981D01*
X547Y981D02*
X564Y981D01*
X579Y981D02*
X599Y981D01*
X613Y981D02*
X617Y981D01*
X632Y981D02*
X636Y981D01*
X650Y981D02*
X668Y981D01*
X682Y981D02*
X698Y981D01*
X751Y981D02*
X755Y981D01*
X769Y981D02*
X773Y981D01*
X794Y981D02*
X799Y981D01*
X856Y981D02*
X874Y981D01*
X888Y981D02*
X910Y981D01*
X922Y981D02*
X926Y981D01*
X928Y981D02*
X943Y981D01*
X963Y981D02*
X979Y981D01*
X166Y980D02*
X189Y980D01*
X236Y980D02*
X258Y980D01*
X277Y980D02*
X284Y980D01*
X357Y980D02*
X361Y980D01*
X373Y980D02*
X392Y980D01*
X407Y980D02*
X411Y980D01*
X426Y980D02*
X430Y980D01*
X445Y980D02*
X461Y980D01*
X478Y980D02*
X496Y980D01*
X512Y980D02*
X526Y980D01*
X547Y980D02*
X565Y980D01*
X579Y980D02*
X598Y980D01*
X613Y980D02*
X617Y980D01*
X632Y980D02*
X636Y980D01*
X651Y980D02*
X667Y980D01*
X682Y980D02*
X697Y980D01*
X751Y980D02*
X755Y980D01*
X769Y980D02*
X773Y980D01*
X794Y980D02*
X798Y980D01*
X856Y980D02*
X874Y980D01*
X888Y980D02*
X909Y980D01*
X922Y980D02*
X926Y980D01*
X930Y980D02*
X943Y980D01*
X964Y980D02*
X979Y980D01*
X167Y979D02*
X189Y979D01*
X236Y979D02*
X257Y979D01*
X278Y979D02*
X284Y979D01*
X357Y979D02*
X361Y979D01*
X373Y979D02*
X391Y979D01*
X407Y979D02*
X410Y979D01*
X426Y979D02*
X429Y979D01*
X446Y979D02*
X459Y979D01*
X478Y979D02*
X496Y979D01*
X513Y979D02*
X525Y979D01*
X547Y979D02*
X564Y979D01*
X579Y979D02*
X582Y979D01*
X585Y979D02*
X597Y979D01*
X613Y979D02*
X617Y979D01*
X632Y979D02*
X636Y979D01*
X652Y979D02*
X666Y979D01*
X682Y979D02*
X696Y979D01*
X751Y979D02*
X754Y979D01*
X770Y979D02*
X773Y979D01*
X795Y979D02*
X798Y979D01*
X856Y979D02*
X874Y979D01*
X888Y979D02*
X892Y979D01*
X894Y979D02*
X908Y979D01*
X923Y979D02*
X926Y979D01*
X931Y979D02*
X942Y979D01*
X965Y979D02*
X979Y979D01*
X167Y978D02*
X188Y978D01*
X238Y978D02*
X257Y978D01*
X278Y978D02*
X283Y978D01*
X358Y978D02*
X360Y978D01*
X374Y978D02*
X389Y978D01*
X408Y978D02*
X410Y978D01*
X427Y978D02*
X429Y978D01*
X448Y978D02*
X458Y978D01*
X479Y978D02*
X495Y978D01*
X515Y978D02*
X523Y978D01*
X548Y978D02*
X564Y978D01*
X580Y978D02*
X582Y978D01*
X587Y978D02*
X595Y978D01*
X614Y978D02*
X616Y978D01*
X633Y978D02*
X635Y978D01*
X654Y978D02*
X664Y978D01*
X683Y978D02*
X695Y978D01*
X752Y978D02*
X753Y978D01*
X770Y978D02*
X772Y978D01*
X795Y978D02*
X797Y978D01*
X857Y978D02*
X873Y978D01*
X889Y978D02*
X891Y978D01*
X896Y978D02*
X906Y978D01*
X923Y978D02*
X925Y978D01*
X933Y978D02*
X940Y978D01*
X967Y978D02*
X979Y978D01*
X895Y888D02*
X902Y888D01*
X890Y887D02*
X907Y887D01*
X888Y886D02*
X910Y886D01*
X886Y885D02*
X912Y885D01*
X884Y884D02*
X892Y884D01*
X907Y884D02*
X914Y884D01*
X883Y883D02*
X888Y883D01*
X909Y883D02*
X915Y883D01*
X882Y882D02*
X886Y882D01*
X897Y882D02*
X901Y882D01*
X912Y882D02*
X916Y882D01*
X881Y881D02*
X885Y881D01*
X893Y881D02*
X905Y881D01*
X913Y881D02*
X917Y881D01*
X880Y880D02*
X884Y880D01*
X891Y880D02*
X907Y880D01*
X914Y880D02*
X918Y880D01*
X879Y879D02*
X883Y879D01*
X890Y879D02*
X908Y879D01*
X915Y879D02*
X919Y879D01*
X879Y878D02*
X882Y878D01*
X888Y878D02*
X909Y878D01*
X916Y878D02*
X919Y878D01*
X878Y877D02*
X881Y877D01*
X888Y877D02*
X894Y877D01*
X904Y877D02*
X910Y877D01*
X917Y877D02*
X920Y877D01*
X878Y876D02*
X881Y876D01*
X887Y876D02*
X892Y876D01*
X906Y876D02*
X911Y876D01*
X917Y876D02*
X920Y876D01*
X878Y875D02*
X880Y875D01*
X886Y875D02*
X890Y875D01*
X907Y875D02*
X911Y875D01*
X918Y875D02*
X920Y875D01*
X878Y874D02*
X880Y874D01*
X886Y874D02*
X890Y874D01*
X908Y874D02*
X912Y874D01*
X918Y874D02*
X920Y874D01*
X878Y873D02*
X880Y873D01*
X886Y873D02*
X889Y873D01*
X909Y873D02*
X912Y873D01*
X918Y873D02*
X920Y873D01*
X878Y872D02*
X880Y872D01*
X886Y872D02*
X889Y872D01*
X909Y872D02*
X912Y872D01*
X918Y872D02*
X920Y872D01*
X878Y871D02*
X880Y871D01*
X885Y871D02*
X889Y871D01*
X910Y871D02*
X912Y871D01*
X918Y871D02*
X920Y871D01*
X878Y870D02*
X880Y870D01*
X885Y870D02*
X889Y870D01*
X910Y870D02*
X912Y870D01*
X918Y870D02*
X920Y870D01*
X878Y869D02*
X880Y869D01*
X886Y869D02*
X889Y869D01*
X910Y869D02*
X912Y869D01*
X918Y869D02*
X920Y869D01*
X878Y868D02*
X881Y868D01*
X886Y868D02*
X889Y868D01*
X910Y868D02*
X912Y868D01*
X917Y868D02*
X920Y868D01*
X878Y867D02*
X881Y867D01*
X886Y867D02*
X889Y867D01*
X909Y867D02*
X912Y867D01*
X917Y867D02*
X920Y867D01*
X879Y866D02*
X882Y866D01*
X886Y866D02*
X889Y866D01*
X909Y866D02*
X912Y866D01*
X916Y866D02*
X919Y866D01*
X879Y865D02*
X883Y865D01*
X886Y865D02*
X889Y865D01*
X909Y865D02*
X912Y865D01*
X915Y865D02*
X919Y865D01*
X880Y864D02*
X883Y864D01*
X914Y864D02*
X918Y864D01*
X881Y863D02*
X885Y863D01*
X913Y863D02*
X917Y863D01*
X882Y862D02*
X886Y862D01*
X912Y862D02*
X916Y862D01*
X883Y861D02*
X888Y861D01*
X910Y861D02*
X915Y861D01*
X884Y860D02*
X891Y860D01*
X907Y860D02*
X914Y860D01*
X886Y859D02*
X897Y859D01*
X901Y859D02*
X912Y859D01*
X888Y858D02*
X910Y858D01*
X890Y857D02*
X908Y857D01*
X895Y856D02*
X903Y856D01*
X902Y807D02*
X913Y807D01*
X901Y806D02*
X915Y806D01*
X901Y805D02*
X917Y805D01*
X901Y804D02*
X917Y804D01*
X901Y803D02*
X918Y803D01*
X903Y802D02*
X919Y802D01*
X914Y801D02*
X919Y801D01*
X914Y800D02*
X919Y800D01*
X915Y799D02*
X919Y799D01*
X915Y798D02*
X919Y798D01*
X915Y797D02*
X919Y797D01*
X915Y796D02*
X919Y796D01*
X915Y795D02*
X919Y795D01*
X915Y794D02*
X919Y794D01*
X914Y793D02*
X919Y793D01*
X914Y792D02*
X919Y792D01*
X879Y791D02*
X919Y791D01*
X878Y790D02*
X918Y790D01*
X878Y789D02*
X917Y789D01*
X878Y788D02*
X916Y788D01*
X878Y787D02*
X915Y787D01*
X879Y786D02*
X913Y786D01*
X896Y770D02*
X913Y770D01*
X894Y769D02*
X914Y769D01*
X893Y768D02*
X915Y768D01*
X892Y767D02*
X916Y767D01*
X891Y766D02*
X917Y766D01*
X890Y765D02*
X897Y765D01*
X911Y765D02*
X918Y765D01*
X890Y764D02*
X896Y764D01*
X913Y764D02*
X918Y764D01*
X890Y763D02*
X895Y763D01*
X913Y763D02*
X919Y763D01*
X889Y762D02*
X894Y762D01*
X914Y762D02*
X919Y762D01*
X889Y761D02*
X894Y761D01*
X915Y761D02*
X919Y761D01*
X889Y760D02*
X894Y760D01*
X915Y760D02*
X919Y760D01*
X889Y759D02*
X894Y759D01*
X915Y759D02*
X919Y759D01*
X889Y758D02*
X894Y758D01*
X915Y758D02*
X919Y758D01*
X889Y757D02*
X894Y757D01*
X915Y757D02*
X919Y757D01*
X889Y756D02*
X894Y756D01*
X915Y756D02*
X919Y756D01*
X889Y755D02*
X894Y755D01*
X915Y755D02*
X919Y755D01*
X889Y754D02*
X894Y754D01*
X915Y754D02*
X919Y754D01*
X889Y753D02*
X894Y753D01*
X914Y753D02*
X919Y753D01*
X889Y752D02*
X894Y752D01*
X914Y752D02*
X919Y752D01*
X890Y751D02*
X895Y751D01*
X913Y751D02*
X919Y751D01*
X890Y750D02*
X896Y750D01*
X912Y750D02*
X918Y750D01*
X891Y749D02*
X918Y749D01*
X891Y748D02*
X917Y748D01*
X892Y747D02*
X916Y747D01*
X893Y746D02*
X915Y746D01*
X894Y745D02*
X914Y745D01*
X896Y744D02*
X912Y744D01*
X914Y731D02*
X915Y731D01*
X893Y730D02*
X898Y730D01*
X913Y730D02*
X916Y730D01*
X892Y729D02*
X900Y729D01*
X912Y729D02*
X917Y729D01*
X891Y728D02*
X901Y728D01*
X912Y728D02*
X918Y728D01*
X890Y727D02*
X901Y727D01*
X913Y727D02*
X918Y727D01*
X890Y726D02*
X902Y726D01*
X913Y726D02*
X919Y726D01*
X889Y725D02*
X895Y725D01*
X897Y725D02*
X902Y725D01*
X914Y725D02*
X919Y725D01*
X889Y724D02*
X894Y724D01*
X898Y724D02*
X903Y724D01*
X914Y724D02*
X919Y724D01*
X889Y723D02*
X894Y723D01*
X898Y723D02*
X903Y723D01*
X915Y723D02*
X919Y723D01*
X889Y722D02*
X894Y722D01*
X899Y722D02*
X903Y722D01*
X915Y722D02*
X919Y722D01*
X889Y721D02*
X894Y721D01*
X899Y721D02*
X904Y721D01*
X915Y721D02*
X919Y721D01*
X889Y720D02*
X894Y720D01*
X899Y720D02*
X904Y720D01*
X915Y720D02*
X919Y720D01*
X889Y719D02*
X894Y719D01*
X900Y719D02*
X905Y719D01*
X915Y719D02*
X919Y719D01*
X889Y718D02*
X894Y718D01*
X900Y718D02*
X905Y718D01*
X915Y718D02*
X919Y718D01*
X889Y717D02*
X894Y717D01*
X901Y717D02*
X906Y717D01*
X915Y717D02*
X919Y717D01*
X889Y716D02*
X894Y716D01*
X901Y716D02*
X906Y716D01*
X915Y716D02*
X919Y716D01*
X889Y715D02*
X894Y715D01*
X902Y715D02*
X907Y715D01*
X915Y715D02*
X919Y715D01*
X889Y714D02*
X894Y714D01*
X902Y714D02*
X907Y714D01*
X915Y714D02*
X919Y714D01*
X889Y713D02*
X894Y713D01*
X902Y713D02*
X907Y713D01*
X915Y713D02*
X919Y713D01*
X889Y712D02*
X894Y712D01*
X903Y712D02*
X908Y712D01*
X914Y712D02*
X919Y712D01*
X889Y711D02*
X894Y711D01*
X903Y711D02*
X908Y711D01*
X914Y711D02*
X919Y711D01*
X889Y710D02*
X895Y710D01*
X904Y710D02*
X910Y710D01*
X912Y710D02*
X919Y710D01*
X890Y709D02*
X895Y709D01*
X904Y709D02*
X918Y709D01*
X890Y708D02*
X896Y708D01*
X905Y708D02*
X918Y708D01*
X891Y707D02*
X896Y707D01*
X906Y707D02*
X917Y707D01*
X892Y706D02*
X895Y706D01*
X907Y706D02*
X916Y706D01*
X893Y705D02*
X894Y705D01*
X908Y705D02*
X914Y705D01*
X878Y691D02*
X918Y691D01*
X878Y690D02*
X919Y690D01*
X878Y689D02*
X919Y689D01*
X878Y688D02*
X919Y688D01*
X879Y687D02*
X918Y687D01*
X893Y686D02*
X899Y686D01*
X893Y685D02*
X898Y685D01*
X892Y684D02*
X898Y684D01*
X892Y683D02*
X897Y683D01*
X891Y682D02*
X897Y682D01*
X890Y681D02*
X896Y681D01*
X890Y680D02*
X895Y680D01*
X889Y679D02*
X895Y679D01*
X889Y678D02*
X894Y678D01*
X889Y677D02*
X894Y677D01*
X889Y676D02*
X894Y676D01*
X889Y675D02*
X894Y675D01*
X889Y674D02*
X894Y674D01*
X889Y673D02*
X894Y673D01*
X889Y672D02*
X894Y672D01*
X890Y671D02*
X896Y671D01*
X890Y670D02*
X917Y670D01*
X891Y669D02*
X919Y669D01*
X891Y668D02*
X919Y668D01*
X893Y667D02*
X919Y667D01*
X895Y666D02*
X919Y666D01*
X913Y665D02*
X917Y665D01*
X882Y613D02*
X884Y613D01*
X912Y613D02*
X913Y613D01*
X880Y612D02*
X886Y612D01*
X911Y612D02*
X916Y612D01*
X879Y611D02*
X888Y611D01*
X910Y611D02*
X917Y611D01*
X878Y610D02*
X889Y610D01*
X910Y610D02*
X918Y610D01*
X878Y609D02*
X890Y609D01*
X910Y609D02*
X918Y609D01*
X878Y608D02*
X892Y608D01*
X912Y608D02*
X919Y608D01*
X878Y607D02*
X882Y607D01*
X885Y607D02*
X893Y607D01*
X914Y607D02*
X919Y607D01*
X878Y606D02*
X882Y606D01*
X886Y606D02*
X894Y606D01*
X915Y606D02*
X919Y606D01*
X878Y605D02*
X882Y605D01*
X887Y605D02*
X895Y605D01*
X915Y605D02*
X919Y605D01*
X878Y604D02*
X882Y604D01*
X889Y604D02*
X897Y604D01*
X915Y604D02*
X919Y604D01*
X878Y603D02*
X882Y603D01*
X890Y603D02*
X898Y603D01*
X915Y603D02*
X919Y603D01*
X878Y602D02*
X882Y602D01*
X891Y602D02*
X899Y602D01*
X915Y602D02*
X919Y602D01*
X878Y601D02*
X882Y601D01*
X893Y601D02*
X901Y601D01*
X915Y601D02*
X919Y601D01*
X878Y600D02*
X882Y600D01*
X894Y600D02*
X902Y600D01*
X915Y600D02*
X919Y600D01*
X878Y599D02*
X882Y599D01*
X895Y599D02*
X903Y599D01*
X915Y599D02*
X919Y599D01*
X878Y598D02*
X882Y598D01*
X896Y598D02*
X905Y598D01*
X915Y598D02*
X919Y598D01*
X878Y597D02*
X882Y597D01*
X898Y597D02*
X906Y597D01*
X915Y597D02*
X919Y597D01*
X878Y596D02*
X882Y596D01*
X899Y596D02*
X907Y596D01*
X915Y596D02*
X919Y596D01*
X878Y595D02*
X882Y595D01*
X900Y595D02*
X908Y595D01*
X915Y595D02*
X919Y595D01*
X878Y594D02*
X882Y594D01*
X902Y594D02*
X910Y594D01*
X915Y594D02*
X919Y594D01*
X878Y593D02*
X882Y593D01*
X903Y593D02*
X911Y593D01*
X915Y593D02*
X919Y593D01*
X878Y592D02*
X883Y592D01*
X904Y592D02*
X912Y592D01*
X914Y592D02*
X919Y592D01*
X878Y591D02*
X886Y591D01*
X905Y591D02*
X919Y591D01*
X878Y590D02*
X886Y590D01*
X907Y590D02*
X919Y590D01*
X879Y589D02*
X887Y589D01*
X908Y589D02*
X918Y589D01*
X880Y588D02*
X887Y588D01*
X909Y588D02*
X917Y588D01*
X881Y587D02*
X886Y587D01*
X911Y587D02*
X916Y587D01*
X890Y573D02*
X893Y573D01*
X889Y572D02*
X893Y572D01*
X889Y571D02*
X894Y571D01*
X889Y570D02*
X894Y570D01*
X889Y569D02*
X894Y569D01*
X881Y568D02*
X913Y568D01*
X880Y567D02*
X915Y567D01*
X880Y566D02*
X917Y566D01*
X880Y565D02*
X917Y565D01*
X880Y564D02*
X918Y564D01*
X882Y563D02*
X919Y563D01*
X889Y562D02*
X894Y562D01*
X914Y562D02*
X919Y562D01*
X889Y561D02*
X894Y561D01*
X914Y561D02*
X919Y561D01*
X889Y560D02*
X894Y560D01*
X915Y560D02*
X919Y560D01*
X889Y559D02*
X894Y559D01*
X915Y559D02*
X919Y559D01*
X889Y558D02*
X894Y558D01*
X915Y558D02*
X919Y558D01*
X889Y557D02*
X894Y557D01*
X915Y557D02*
X919Y557D01*
X889Y556D02*
X894Y556D01*
X915Y556D02*
X919Y556D01*
X889Y555D02*
X894Y555D01*
X915Y555D02*
X919Y555D01*
X889Y554D02*
X894Y554D01*
X914Y554D02*
X919Y554D01*
X889Y553D02*
X894Y553D01*
X914Y553D02*
X919Y553D01*
X889Y552D02*
X894Y552D01*
X912Y552D02*
X919Y552D01*
X889Y551D02*
X893Y551D01*
X911Y551D02*
X918Y551D01*
X890Y550D02*
X893Y550D01*
X910Y550D02*
X917Y550D01*
X910Y549D02*
X916Y549D01*
X910Y548D02*
X915Y548D01*
X911Y547D02*
X913Y547D01*
X897Y534D02*
X912Y534D01*
X895Y533D02*
X914Y533D01*
X893Y532D02*
X915Y532D01*
X892Y531D02*
X916Y531D01*
X892Y530D02*
X917Y530D01*
X891Y529D02*
X918Y529D01*
X890Y528D02*
X896Y528D01*
X903Y528D02*
X908Y528D01*
X912Y528D02*
X918Y528D01*
X890Y527D02*
X895Y527D01*
X903Y527D02*
X908Y527D01*
X913Y527D02*
X919Y527D01*
X889Y526D02*
X894Y526D01*
X903Y526D02*
X908Y526D01*
X914Y526D02*
X919Y526D01*
X889Y525D02*
X894Y525D01*
X903Y525D02*
X908Y525D01*
X914Y525D02*
X919Y525D01*
X889Y524D02*
X894Y524D01*
X903Y524D02*
X908Y524D01*
X915Y524D02*
X919Y524D01*
X889Y523D02*
X894Y523D01*
X903Y523D02*
X908Y523D01*
X915Y523D02*
X919Y523D01*
X889Y522D02*
X894Y522D01*
X903Y522D02*
X908Y522D01*
X915Y522D02*
X919Y522D01*
X889Y521D02*
X894Y521D01*
X903Y521D02*
X908Y521D01*
X915Y521D02*
X919Y521D01*
X889Y520D02*
X894Y520D01*
X903Y520D02*
X908Y520D01*
X915Y520D02*
X919Y520D01*
X889Y519D02*
X894Y519D01*
X903Y519D02*
X908Y519D01*
X915Y519D02*
X919Y519D01*
X889Y518D02*
X894Y518D01*
X903Y518D02*
X908Y518D01*
X915Y518D02*
X919Y518D01*
X889Y517D02*
X894Y517D01*
X903Y517D02*
X908Y517D01*
X915Y517D02*
X919Y517D01*
X889Y516D02*
X894Y516D01*
X903Y516D02*
X908Y516D01*
X915Y516D02*
X919Y516D01*
X890Y515D02*
X895Y515D01*
X903Y515D02*
X908Y515D01*
X915Y515D02*
X919Y515D01*
X890Y514D02*
X896Y514D01*
X903Y514D02*
X908Y514D01*
X915Y514D02*
X919Y514D01*
X890Y513D02*
X897Y513D01*
X903Y513D02*
X908Y513D01*
X915Y513D02*
X919Y513D01*
X891Y512D02*
X908Y512D01*
X915Y512D02*
X919Y512D01*
X892Y511D02*
X908Y511D01*
X915Y511D02*
X919Y511D01*
X893Y510D02*
X908Y510D01*
X915Y510D02*
X919Y510D01*
X894Y509D02*
X907Y509D01*
X915Y509D02*
X919Y509D01*
X896Y508D02*
X907Y508D01*
X916Y508D02*
X918Y508D01*
X890Y495D02*
X907Y495D01*
X889Y494D02*
X911Y494D01*
X889Y493D02*
X914Y493D01*
X889Y492D02*
X918Y492D01*
X890Y491D02*
X919Y491D01*
X895Y490D02*
X919Y490D01*
X909Y489D02*
X919Y489D01*
X913Y488D02*
X919Y488D01*
X912Y487D02*
X919Y487D01*
X910Y486D02*
X919Y486D01*
X909Y485D02*
X918Y485D01*
X900Y484D02*
X917Y484D01*
X899Y483D02*
X915Y483D01*
X899Y482D02*
X914Y482D01*
X898Y481D02*
X913Y481D01*
X899Y480D02*
X915Y480D01*
X900Y479D02*
X917Y479D01*
X909Y478D02*
X918Y478D01*
X910Y477D02*
X919Y477D01*
X912Y476D02*
X919Y476D01*
X913Y475D02*
X919Y475D01*
X910Y474D02*
X919Y474D01*
X897Y473D02*
X919Y473D01*
X890Y472D02*
X919Y472D01*
X889Y471D02*
X918Y471D01*
X889Y470D02*
X915Y470D01*
X889Y469D02*
X911Y469D01*
X890Y468D02*
X908Y468D01*
X906Y455D02*
X914Y455D01*
X904Y454D02*
X916Y454D01*
X903Y453D02*
X917Y453D01*
X902Y452D02*
X918Y452D01*
X902Y451D02*
X918Y451D01*
X891Y450D02*
X892Y450D01*
X901Y450D02*
X907Y450D01*
X912Y450D02*
X919Y450D01*
X890Y449D02*
X893Y449D01*
X901Y449D02*
X906Y449D01*
X914Y449D02*
X919Y449D01*
X889Y448D02*
X894Y448D01*
X901Y448D02*
X905Y448D01*
X914Y448D02*
X919Y448D01*
X889Y447D02*
X894Y447D01*
X901Y447D02*
X905Y447D01*
X915Y447D02*
X919Y447D01*
X889Y446D02*
X894Y446D01*
X901Y446D02*
X905Y446D01*
X915Y446D02*
X919Y446D01*
X889Y445D02*
X894Y445D01*
X901Y445D02*
X905Y445D01*
X915Y445D02*
X919Y445D01*
X889Y444D02*
X894Y444D01*
X901Y444D02*
X905Y444D01*
X915Y444D02*
X919Y444D01*
X889Y443D02*
X894Y443D01*
X901Y443D02*
X905Y443D01*
X915Y443D02*
X919Y443D01*
X889Y442D02*
X894Y442D01*
X901Y442D02*
X905Y442D01*
X915Y442D02*
X919Y442D01*
X889Y441D02*
X894Y441D01*
X901Y441D02*
X905Y441D01*
X915Y441D02*
X919Y441D01*
X889Y440D02*
X894Y440D01*
X901Y440D02*
X905Y440D01*
X914Y440D02*
X919Y440D01*
X889Y439D02*
X894Y439D01*
X901Y439D02*
X905Y439D01*
X914Y439D02*
X919Y439D01*
X889Y438D02*
X894Y438D01*
X901Y438D02*
X905Y438D01*
X913Y438D02*
X919Y438D01*
X889Y437D02*
X894Y437D01*
X901Y437D02*
X905Y437D01*
X913Y437D02*
X918Y437D01*
X889Y436D02*
X894Y436D01*
X901Y436D02*
X905Y436D01*
X912Y436D02*
X918Y436D01*
X889Y435D02*
X895Y435D01*
X901Y435D02*
X906Y435D01*
X912Y435D02*
X917Y435D01*
X890Y434D02*
X917Y434D01*
X890Y433D02*
X918Y433D01*
X891Y432D02*
X919Y432D01*
X892Y431D02*
X919Y431D01*
X894Y430D02*
X919Y430D01*
X903Y429D02*
X918Y429D01*
X891Y416D02*
X917Y416D01*
X890Y415D02*
X919Y415D01*
X889Y414D02*
X919Y414D01*
X889Y413D02*
X919Y413D01*
X890Y412D02*
X919Y412D01*
X891Y411D02*
X917Y411D01*
X895Y410D02*
X901Y410D01*
X894Y409D02*
X900Y409D01*
X893Y408D02*
X899Y408D01*
X892Y407D02*
X898Y407D01*
X891Y406D02*
X897Y406D01*
X890Y405D02*
X897Y405D01*
X889Y404D02*
X896Y404D01*
X889Y403D02*
X895Y403D01*
X889Y402D02*
X894Y402D01*
X889Y401D02*
X894Y401D01*
X889Y400D02*
X894Y400D01*
X889Y399D02*
X894Y399D01*
X889Y398D02*
X894Y398D01*
X889Y397D02*
X894Y397D01*
X889Y396D02*
X894Y396D01*
X889Y395D02*
X895Y395D01*
X890Y394D02*
X899Y394D01*
X890Y393D02*
X900Y393D01*
X891Y392D02*
X901Y392D01*
X892Y391D02*
X900Y391D01*
X894Y390D02*
X900Y390D01*
X890Y376D02*
X893Y376D01*
X889Y375D02*
X893Y375D01*
X889Y374D02*
X894Y374D01*
X889Y373D02*
X894Y373D01*
X889Y372D02*
X894Y372D01*
X881Y371D02*
X914Y371D01*
X880Y370D02*
X915Y370D01*
X880Y369D02*
X917Y369D01*
X880Y368D02*
X918Y368D01*
X881Y367D02*
X918Y367D01*
X882Y366D02*
X919Y366D01*
X889Y365D02*
X894Y365D01*
X914Y365D02*
X919Y365D01*
X889Y364D02*
X894Y364D01*
X914Y364D02*
X919Y364D01*
X889Y363D02*
X894Y363D01*
X915Y363D02*
X919Y363D01*
X889Y362D02*
X894Y362D01*
X915Y362D02*
X919Y362D01*
X889Y361D02*
X894Y361D01*
X915Y361D02*
X919Y361D01*
X889Y360D02*
X894Y360D01*
X915Y360D02*
X919Y360D01*
X889Y359D02*
X894Y359D01*
X915Y359D02*
X919Y359D01*
X889Y358D02*
X894Y358D01*
X915Y358D02*
X919Y358D01*
X889Y357D02*
X894Y357D01*
X914Y357D02*
X919Y357D01*
X889Y356D02*
X894Y356D01*
X914Y356D02*
X919Y356D01*
X889Y355D02*
X894Y355D01*
X912Y355D02*
X919Y355D01*
X889Y354D02*
X893Y354D01*
X911Y354D02*
X918Y354D01*
X890Y353D02*
X892Y353D01*
X910Y353D02*
X917Y353D01*
X910Y352D02*
X916Y352D01*
X910Y351D02*
X915Y351D01*
X912Y350D02*
X913Y350D01*
X449Y310D02*
X480Y310D01*
X446Y309D02*
X480Y309D01*
X444Y308D02*
X480Y308D01*
X443Y307D02*
X480Y307D01*
X268Y306D02*
X272Y306D01*
X333Y306D02*
X338Y306D01*
X442Y306D02*
X480Y306D01*
X267Y305D02*
X273Y305D01*
X332Y305D02*
X339Y305D01*
X441Y305D02*
X480Y305D01*
X266Y304D02*
X274Y304D01*
X332Y304D02*
X339Y304D01*
X440Y304D02*
X480Y304D01*
X266Y303D02*
X274Y303D01*
X332Y303D02*
X339Y303D01*
X439Y303D02*
X480Y303D01*
X266Y302D02*
X274Y302D01*
X331Y302D02*
X340Y302D01*
X438Y302D02*
X480Y302D01*
X266Y301D02*
X274Y301D01*
X331Y301D02*
X340Y301D01*
X438Y301D02*
X450Y301D01*
X472Y301D02*
X480Y301D01*
X266Y300D02*
X274Y300D01*
X331Y300D02*
X340Y300D01*
X437Y300D02*
X448Y300D01*
X472Y300D02*
X480Y300D01*
X266Y299D02*
X274Y299D01*
X331Y299D02*
X340Y299D01*
X437Y299D02*
X447Y299D01*
X472Y299D02*
X480Y299D01*
X266Y298D02*
X274Y298D01*
X331Y298D02*
X340Y298D01*
X437Y298D02*
X446Y298D01*
X472Y298D02*
X480Y298D01*
X266Y297D02*
X274Y297D01*
X331Y297D02*
X340Y297D01*
X436Y297D02*
X445Y297D01*
X472Y297D02*
X480Y297D01*
X266Y296D02*
X274Y296D01*
X331Y296D02*
X340Y296D01*
X436Y296D02*
X445Y296D01*
X472Y296D02*
X480Y296D01*
X266Y295D02*
X274Y295D01*
X331Y295D02*
X340Y295D01*
X436Y295D02*
X444Y295D01*
X472Y295D02*
X480Y295D01*
X266Y294D02*
X274Y294D01*
X331Y294D02*
X340Y294D01*
X436Y294D02*
X444Y294D01*
X472Y294D02*
X480Y294D01*
X266Y293D02*
X274Y293D01*
X331Y293D02*
X340Y293D01*
X436Y293D02*
X444Y293D01*
X472Y293D02*
X480Y293D01*
X266Y292D02*
X274Y292D01*
X331Y292D02*
X340Y292D01*
X436Y292D02*
X444Y292D01*
X472Y292D02*
X480Y292D01*
X117Y291D02*
X121Y291D01*
X133Y291D02*
X139Y291D01*
X147Y291D02*
X150Y291D01*
X186Y291D02*
X204Y291D01*
X246Y291D02*
X281Y291D01*
X311Y291D02*
X346Y291D01*
X383Y291D02*
X401Y291D01*
X436Y291D02*
X444Y291D01*
X472Y291D02*
X480Y291D01*
X114Y290D02*
X123Y290D01*
X131Y290D02*
X141Y290D01*
X145Y290D02*
X151Y290D01*
X184Y290D02*
X207Y290D01*
X245Y290D02*
X282Y290D01*
X310Y290D02*
X347Y290D01*
X381Y290D02*
X404Y290D01*
X436Y290D02*
X444Y290D01*
X472Y290D02*
X480Y290D01*
X112Y289D02*
X125Y289D01*
X130Y289D02*
X143Y289D01*
X145Y289D02*
X152Y289D01*
X182Y289D02*
X208Y289D01*
X244Y289D02*
X282Y289D01*
X310Y289D02*
X348Y289D01*
X379Y289D02*
X405Y289D01*
X436Y289D02*
X444Y289D01*
X472Y289D02*
X480Y289D01*
X111Y288D02*
X126Y288D01*
X129Y288D02*
X152Y288D01*
X181Y288D02*
X210Y288D01*
X244Y288D02*
X283Y288D01*
X309Y288D02*
X348Y288D01*
X378Y288D02*
X407Y288D01*
X436Y288D02*
X444Y288D01*
X472Y288D02*
X480Y288D01*
X110Y287D02*
X152Y287D01*
X180Y287D02*
X211Y287D01*
X243Y287D02*
X283Y287D01*
X309Y287D02*
X349Y287D01*
X377Y287D02*
X408Y287D01*
X436Y287D02*
X444Y287D01*
X472Y287D02*
X480Y287D01*
X110Y286D02*
X152Y286D01*
X178Y286D02*
X212Y286D01*
X244Y286D02*
X283Y286D01*
X309Y286D02*
X348Y286D01*
X375Y286D02*
X409Y286D01*
X436Y286D02*
X444Y286D01*
X472Y286D02*
X480Y286D01*
X109Y285D02*
X152Y285D01*
X177Y285D02*
X213Y285D01*
X244Y285D02*
X282Y285D01*
X309Y285D02*
X348Y285D01*
X374Y285D02*
X410Y285D01*
X436Y285D02*
X445Y285D01*
X472Y285D02*
X480Y285D01*
X109Y284D02*
X152Y284D01*
X176Y284D02*
X214Y284D01*
X245Y284D02*
X282Y284D01*
X310Y284D02*
X348Y284D01*
X373Y284D02*
X411Y284D01*
X436Y284D02*
X446Y284D01*
X472Y284D02*
X480Y284D01*
X108Y283D02*
X152Y283D01*
X176Y283D02*
X215Y283D01*
X246Y283D02*
X281Y283D01*
X311Y283D02*
X346Y283D01*
X373Y283D02*
X412Y283D01*
X437Y283D02*
X446Y283D01*
X472Y283D02*
X480Y283D01*
X108Y282D02*
X117Y282D01*
X120Y282D02*
X134Y282D01*
X138Y282D02*
X152Y282D01*
X175Y282D02*
X187Y282D01*
X203Y282D02*
X215Y282D01*
X266Y282D02*
X274Y282D01*
X331Y282D02*
X340Y282D01*
X372Y282D02*
X384Y282D01*
X400Y282D02*
X412Y282D01*
X437Y282D02*
X447Y282D01*
X472Y282D02*
X480Y282D01*
X108Y281D02*
X116Y281D01*
X121Y281D02*
X134Y281D01*
X139Y281D02*
X152Y281D01*
X174Y281D02*
X185Y281D01*
X205Y281D02*
X216Y281D01*
X266Y281D02*
X274Y281D01*
X331Y281D02*
X340Y281D01*
X371Y281D02*
X382Y281D01*
X402Y281D02*
X413Y281D01*
X438Y281D02*
X449Y281D01*
X472Y281D02*
X480Y281D01*
X108Y280D02*
X116Y280D01*
X122Y280D02*
X134Y280D01*
X140Y280D02*
X152Y280D01*
X174Y280D02*
X184Y280D01*
X206Y280D02*
X216Y280D01*
X266Y280D02*
X274Y280D01*
X331Y280D02*
X340Y280D01*
X371Y280D02*
X381Y280D01*
X403Y280D02*
X413Y280D01*
X438Y280D02*
X480Y280D01*
X108Y279D02*
X116Y279D01*
X123Y279D02*
X134Y279D01*
X141Y279D02*
X152Y279D01*
X174Y279D02*
X183Y279D01*
X207Y279D02*
X217Y279D01*
X266Y279D02*
X274Y279D01*
X331Y279D02*
X340Y279D01*
X371Y279D02*
X380Y279D01*
X404Y279D02*
X414Y279D01*
X439Y279D02*
X480Y279D01*
X108Y278D02*
X116Y278D01*
X125Y278D02*
X134Y278D01*
X143Y278D02*
X152Y278D01*
X173Y278D02*
X182Y278D01*
X208Y278D02*
X217Y278D01*
X266Y278D02*
X274Y278D01*
X331Y278D02*
X340Y278D01*
X370Y278D02*
X379Y278D01*
X405Y278D02*
X414Y278D01*
X440Y278D02*
X480Y278D01*
X108Y277D02*
X116Y277D01*
X125Y277D02*
X134Y277D01*
X144Y277D02*
X152Y277D01*
X173Y277D02*
X182Y277D01*
X209Y277D02*
X217Y277D01*
X266Y277D02*
X274Y277D01*
X331Y277D02*
X340Y277D01*
X370Y277D02*
X379Y277D01*
X406Y277D02*
X414Y277D01*
X441Y277D02*
X480Y277D01*
X108Y276D02*
X116Y276D01*
X126Y276D02*
X134Y276D01*
X144Y276D02*
X152Y276D01*
X173Y276D02*
X181Y276D01*
X209Y276D02*
X217Y276D01*
X266Y276D02*
X274Y276D01*
X331Y276D02*
X340Y276D01*
X370Y276D02*
X378Y276D01*
X406Y276D02*
X414Y276D01*
X441Y276D02*
X480Y276D01*
X108Y275D02*
X116Y275D01*
X126Y275D02*
X134Y275D01*
X144Y275D02*
X152Y275D01*
X173Y275D02*
X181Y275D01*
X209Y275D02*
X217Y275D01*
X266Y275D02*
X274Y275D01*
X331Y275D02*
X340Y275D01*
X370Y275D02*
X378Y275D01*
X406Y275D02*
X414Y275D01*
X442Y275D02*
X480Y275D01*
X108Y274D02*
X116Y274D01*
X126Y274D02*
X134Y274D01*
X144Y274D02*
X152Y274D01*
X173Y274D02*
X181Y274D01*
X209Y274D02*
X217Y274D01*
X266Y274D02*
X274Y274D01*
X331Y274D02*
X340Y274D01*
X370Y274D02*
X378Y274D01*
X406Y274D02*
X414Y274D01*
X441Y274D02*
X480Y274D01*
X108Y273D02*
X116Y273D01*
X126Y273D02*
X134Y273D01*
X144Y273D02*
X152Y273D01*
X173Y273D02*
X181Y273D01*
X209Y273D02*
X217Y273D01*
X266Y273D02*
X274Y273D01*
X331Y273D02*
X340Y273D01*
X370Y273D02*
X378Y273D01*
X406Y273D02*
X414Y273D01*
X440Y273D02*
X480Y273D01*
X108Y272D02*
X116Y272D01*
X126Y272D02*
X134Y272D01*
X144Y272D02*
X152Y272D01*
X173Y272D02*
X181Y272D01*
X209Y272D02*
X217Y272D01*
X266Y272D02*
X274Y272D01*
X331Y272D02*
X340Y272D01*
X370Y272D02*
X378Y272D01*
X406Y272D02*
X414Y272D01*
X439Y272D02*
X480Y272D01*
X108Y271D02*
X116Y271D01*
X126Y271D02*
X134Y271D01*
X144Y271D02*
X152Y271D01*
X173Y271D02*
X181Y271D01*
X209Y271D02*
X217Y271D01*
X266Y271D02*
X274Y271D01*
X331Y271D02*
X340Y271D01*
X370Y271D02*
X378Y271D01*
X406Y271D02*
X414Y271D01*
X438Y271D02*
X480Y271D01*
X108Y270D02*
X116Y270D01*
X126Y270D02*
X134Y270D01*
X144Y270D02*
X152Y270D01*
X173Y270D02*
X181Y270D01*
X209Y270D02*
X217Y270D01*
X266Y270D02*
X274Y270D01*
X331Y270D02*
X340Y270D01*
X370Y270D02*
X378Y270D01*
X406Y270D02*
X414Y270D01*
X438Y270D02*
X449Y270D01*
X472Y270D02*
X480Y270D01*
X108Y269D02*
X116Y269D01*
X126Y269D02*
X134Y269D01*
X144Y269D02*
X152Y269D01*
X173Y269D02*
X181Y269D01*
X209Y269D02*
X217Y269D01*
X266Y269D02*
X274Y269D01*
X331Y269D02*
X340Y269D01*
X370Y269D02*
X378Y269D01*
X406Y269D02*
X414Y269D01*
X437Y269D02*
X448Y269D01*
X472Y269D02*
X480Y269D01*
X108Y268D02*
X116Y268D01*
X126Y268D02*
X134Y268D01*
X144Y268D02*
X152Y268D01*
X173Y268D02*
X181Y268D01*
X209Y268D02*
X217Y268D01*
X266Y268D02*
X274Y268D01*
X331Y268D02*
X340Y268D01*
X370Y268D02*
X378Y268D01*
X406Y268D02*
X414Y268D01*
X437Y268D02*
X446Y268D01*
X472Y268D02*
X480Y268D01*
X108Y267D02*
X116Y267D01*
X126Y267D02*
X134Y267D01*
X144Y267D02*
X152Y267D01*
X173Y267D02*
X181Y267D01*
X209Y267D02*
X217Y267D01*
X266Y267D02*
X274Y267D01*
X331Y267D02*
X340Y267D01*
X370Y267D02*
X378Y267D01*
X406Y267D02*
X414Y267D01*
X437Y267D02*
X446Y267D01*
X472Y267D02*
X480Y267D01*
X108Y266D02*
X116Y266D01*
X126Y266D02*
X134Y266D01*
X144Y266D02*
X152Y266D01*
X173Y266D02*
X181Y266D01*
X209Y266D02*
X217Y266D01*
X266Y266D02*
X274Y266D01*
X331Y266D02*
X340Y266D01*
X370Y266D02*
X378Y266D01*
X406Y266D02*
X414Y266D01*
X436Y266D02*
X445Y266D01*
X472Y266D02*
X480Y266D01*
X108Y265D02*
X116Y265D01*
X126Y265D02*
X134Y265D01*
X144Y265D02*
X152Y265D01*
X173Y265D02*
X181Y265D01*
X209Y265D02*
X217Y265D01*
X266Y265D02*
X274Y265D01*
X331Y265D02*
X340Y265D01*
X370Y265D02*
X378Y265D01*
X406Y265D02*
X414Y265D01*
X436Y265D02*
X444Y265D01*
X472Y265D02*
X480Y265D01*
X108Y264D02*
X116Y264D01*
X126Y264D02*
X134Y264D01*
X144Y264D02*
X152Y264D01*
X173Y264D02*
X181Y264D01*
X209Y264D02*
X217Y264D01*
X266Y264D02*
X274Y264D01*
X331Y264D02*
X340Y264D01*
X370Y264D02*
X378Y264D01*
X406Y264D02*
X414Y264D01*
X436Y264D02*
X444Y264D01*
X472Y264D02*
X480Y264D01*
X108Y263D02*
X116Y263D01*
X126Y263D02*
X134Y263D01*
X144Y263D02*
X152Y263D01*
X173Y263D02*
X181Y263D01*
X209Y263D02*
X217Y263D01*
X266Y263D02*
X274Y263D01*
X331Y263D02*
X340Y263D01*
X370Y263D02*
X378Y263D01*
X406Y263D02*
X414Y263D01*
X436Y263D02*
X444Y263D01*
X472Y263D02*
X480Y263D01*
X107Y262D02*
X116Y262D01*
X126Y262D02*
X134Y262D01*
X144Y262D02*
X152Y262D01*
X173Y262D02*
X181Y262D01*
X209Y262D02*
X217Y262D01*
X266Y262D02*
X274Y262D01*
X331Y262D02*
X340Y262D01*
X370Y262D02*
X378Y262D01*
X406Y262D02*
X414Y262D01*
X436Y262D02*
X444Y262D01*
X472Y262D02*
X480Y262D01*
X107Y261D02*
X116Y261D01*
X126Y261D02*
X134Y261D01*
X144Y261D02*
X152Y261D01*
X173Y261D02*
X181Y261D01*
X209Y261D02*
X217Y261D01*
X266Y261D02*
X274Y261D01*
X331Y261D02*
X340Y261D01*
X370Y261D02*
X378Y261D01*
X406Y261D02*
X414Y261D01*
X436Y261D02*
X444Y261D01*
X472Y261D02*
X480Y261D01*
X107Y260D02*
X116Y260D01*
X126Y260D02*
X134Y260D01*
X144Y260D02*
X152Y260D01*
X173Y260D02*
X181Y260D01*
X209Y260D02*
X217Y260D01*
X266Y260D02*
X274Y260D01*
X331Y260D02*
X340Y260D01*
X370Y260D02*
X378Y260D01*
X406Y260D02*
X414Y260D01*
X436Y260D02*
X444Y260D01*
X472Y260D02*
X480Y260D01*
X107Y259D02*
X115Y259D01*
X126Y259D02*
X134Y259D01*
X144Y259D02*
X152Y259D01*
X173Y259D02*
X181Y259D01*
X209Y259D02*
X217Y259D01*
X266Y259D02*
X274Y259D01*
X331Y259D02*
X340Y259D01*
X370Y259D02*
X378Y259D01*
X406Y259D02*
X414Y259D01*
X436Y259D02*
X444Y259D01*
X472Y259D02*
X480Y259D01*
X107Y258D02*
X115Y258D01*
X126Y258D02*
X134Y258D01*
X144Y258D02*
X152Y258D01*
X173Y258D02*
X181Y258D01*
X209Y258D02*
X217Y258D01*
X266Y258D02*
X274Y258D01*
X331Y258D02*
X340Y258D01*
X370Y258D02*
X378Y258D01*
X406Y258D02*
X414Y258D01*
X436Y258D02*
X444Y258D01*
X472Y258D02*
X480Y258D01*
X107Y257D02*
X115Y257D01*
X126Y257D02*
X134Y257D01*
X144Y257D02*
X152Y257D01*
X173Y257D02*
X181Y257D01*
X209Y257D02*
X217Y257D01*
X266Y257D02*
X274Y257D01*
X331Y257D02*
X340Y257D01*
X370Y257D02*
X378Y257D01*
X406Y257D02*
X414Y257D01*
X436Y257D02*
X444Y257D01*
X472Y257D02*
X480Y257D01*
X107Y256D02*
X115Y256D01*
X126Y256D02*
X134Y256D01*
X144Y256D02*
X152Y256D01*
X173Y256D02*
X181Y256D01*
X209Y256D02*
X217Y256D01*
X241Y256D02*
X245Y256D01*
X266Y256D02*
X274Y256D01*
X306Y256D02*
X311Y256D01*
X331Y256D02*
X340Y256D01*
X370Y256D02*
X378Y256D01*
X406Y256D02*
X414Y256D01*
X436Y256D02*
X444Y256D01*
X472Y256D02*
X480Y256D01*
X107Y255D02*
X115Y255D01*
X126Y255D02*
X134Y255D01*
X144Y255D02*
X152Y255D01*
X173Y255D02*
X182Y255D01*
X209Y255D02*
X217Y255D01*
X240Y255D02*
X246Y255D01*
X266Y255D02*
X274Y255D01*
X305Y255D02*
X311Y255D01*
X331Y255D02*
X340Y255D01*
X370Y255D02*
X379Y255D01*
X406Y255D02*
X414Y255D01*
X436Y255D02*
X445Y255D01*
X472Y255D02*
X480Y255D01*
X107Y254D02*
X115Y254D01*
X126Y254D02*
X134Y254D01*
X144Y254D02*
X152Y254D01*
X173Y254D02*
X182Y254D01*
X208Y254D02*
X217Y254D01*
X239Y254D02*
X246Y254D01*
X266Y254D02*
X274Y254D01*
X305Y254D02*
X312Y254D01*
X331Y254D02*
X340Y254D01*
X370Y254D02*
X379Y254D01*
X405Y254D02*
X414Y254D01*
X436Y254D02*
X445Y254D01*
X472Y254D02*
X480Y254D01*
X107Y253D02*
X115Y253D01*
X126Y253D02*
X134Y253D01*
X144Y253D02*
X152Y253D01*
X174Y253D02*
X183Y253D01*
X208Y253D02*
X217Y253D01*
X239Y253D02*
X247Y253D01*
X266Y253D02*
X274Y253D01*
X305Y253D02*
X313Y253D01*
X331Y253D02*
X340Y253D01*
X370Y253D02*
X380Y253D01*
X405Y253D02*
X414Y253D01*
X437Y253D02*
X446Y253D01*
X472Y253D02*
X480Y253D01*
X107Y252D02*
X115Y252D01*
X126Y252D02*
X134Y252D01*
X144Y252D02*
X152Y252D01*
X174Y252D02*
X184Y252D01*
X206Y252D02*
X217Y252D01*
X239Y252D02*
X247Y252D01*
X265Y252D02*
X274Y252D01*
X304Y252D02*
X313Y252D01*
X331Y252D02*
X339Y252D01*
X371Y252D02*
X381Y252D01*
X403Y252D02*
X414Y252D01*
X437Y252D02*
X447Y252D01*
X472Y252D02*
X480Y252D01*
X107Y251D02*
X115Y251D01*
X126Y251D02*
X134Y251D01*
X144Y251D02*
X152Y251D01*
X174Y251D02*
X185Y251D01*
X205Y251D02*
X216Y251D01*
X239Y251D02*
X248Y251D01*
X265Y251D02*
X274Y251D01*
X305Y251D02*
X314Y251D01*
X331Y251D02*
X339Y251D01*
X371Y251D02*
X382Y251D01*
X402Y251D02*
X413Y251D01*
X437Y251D02*
X448Y251D01*
X472Y251D02*
X480Y251D01*
X107Y250D02*
X115Y250D01*
X126Y250D02*
X134Y250D01*
X144Y250D02*
X152Y250D01*
X175Y250D02*
X186Y250D01*
X204Y250D02*
X216Y250D01*
X239Y250D02*
X249Y250D01*
X264Y250D02*
X273Y250D01*
X305Y250D02*
X315Y250D01*
X329Y250D02*
X339Y250D01*
X372Y250D02*
X383Y250D01*
X401Y250D02*
X413Y250D01*
X438Y250D02*
X449Y250D01*
X472Y250D02*
X480Y250D01*
X107Y249D02*
X115Y249D01*
X126Y249D02*
X134Y249D01*
X144Y249D02*
X152Y249D01*
X175Y249D02*
X215Y249D01*
X240Y249D02*
X273Y249D01*
X305Y249D02*
X339Y249D01*
X372Y249D02*
X412Y249D01*
X438Y249D02*
X480Y249D01*
X107Y248D02*
X115Y248D01*
X126Y248D02*
X134Y248D01*
X144Y248D02*
X152Y248D01*
X176Y248D02*
X214Y248D01*
X240Y248D02*
X273Y248D01*
X306Y248D02*
X338Y248D01*
X373Y248D02*
X411Y248D01*
X439Y248D02*
X480Y248D01*
X107Y247D02*
X115Y247D01*
X126Y247D02*
X134Y247D01*
X144Y247D02*
X152Y247D01*
X177Y247D02*
X213Y247D01*
X241Y247D02*
X272Y247D01*
X306Y247D02*
X338Y247D01*
X374Y247D02*
X410Y247D01*
X440Y247D02*
X480Y247D01*
X107Y246D02*
X115Y246D01*
X126Y246D02*
X134Y246D01*
X144Y246D02*
X152Y246D01*
X178Y246D02*
X212Y246D01*
X241Y246D02*
X272Y246D01*
X307Y246D02*
X337Y246D01*
X375Y246D02*
X409Y246D01*
X441Y246D02*
X480Y246D01*
X107Y245D02*
X115Y245D01*
X126Y245D02*
X134Y245D01*
X144Y245D02*
X152Y245D01*
X179Y245D02*
X211Y245D01*
X242Y245D02*
X271Y245D01*
X308Y245D02*
X336Y245D01*
X376Y245D02*
X408Y245D01*
X442Y245D02*
X480Y245D01*
X107Y244D02*
X115Y244D01*
X126Y244D02*
X134Y244D01*
X144Y244D02*
X152Y244D01*
X180Y244D02*
X210Y244D01*
X243Y244D02*
X270Y244D01*
X309Y244D02*
X336Y244D01*
X377Y244D02*
X407Y244D01*
X443Y244D02*
X480Y244D01*
X107Y243D02*
X115Y243D01*
X126Y243D02*
X133Y243D01*
X145Y243D02*
X152Y243D01*
X182Y243D02*
X209Y243D01*
X244Y243D02*
X269Y243D01*
X310Y243D02*
X334Y243D01*
X379Y243D02*
X406Y243D01*
X444Y243D02*
X480Y243D01*
X108Y242D02*
X114Y242D01*
X126Y242D02*
X133Y242D01*
X145Y242D02*
X151Y242D01*
X183Y242D02*
X207Y242D01*
X245Y242D02*
X267Y242D01*
X311Y242D02*
X333Y242D01*
X380Y242D02*
X404Y242D01*
X446Y242D02*
X480Y242D01*
X109Y241D02*
X113Y241D01*
X127Y241D02*
X132Y241D01*
X146Y241D02*
X151Y241D01*
X185Y241D02*
X205Y241D01*
X247Y241D02*
X265Y241D01*
X313Y241D02*
X331Y241D01*
X382Y241D02*
X402Y241D01*
X448Y241D02*
X480Y241D01*
D02*
G04 End of Silk0*
M02*