G04 MADE WITH FRITZING*
G04 WWW.FRITZING.ORG*
G04 DOUBLE SIDED*
G04 HOLES PLATED*
G04 CONTOUR ON CENTER OF CONTOUR VECTOR*
%ASAXBY*%
%FSLAX23Y23*%
%MOIN*%
%OFA0B0*%
%SFA1.0B1.0*%
%ADD10R,0.055118X0.059055*%
%ADD11R,0.059055X0.055118*%
%ADD12C,0.016000*%
%LNPASTEMASK0*%
G90*
G70*
G54D10*
X869Y240D03*
X789Y240D03*
X869Y440D03*
X789Y440D03*
G54D11*
X244Y465D03*
X244Y546D03*
G54D10*
X119Y640D03*
X200Y640D03*
X144Y365D03*
X225Y365D03*
X114Y865D03*
X194Y865D03*
X194Y765D03*
X114Y765D03*
X569Y915D03*
X650Y915D03*
G54D11*
X544Y615D03*
X544Y534D03*
X119Y465D03*
X119Y546D03*
G54D10*
X344Y915D03*
X425Y915D03*
X869Y340D03*
X789Y340D03*
G54D11*
X569Y140D03*
X569Y221D03*
G54D10*
X794Y640D03*
X875Y640D03*
G54D11*
X669Y215D03*
X669Y134D03*
G54D12*
X330Y240D02*
X308Y240D01*
D02*
X330Y215D02*
X308Y215D01*
D02*
X330Y190D02*
X308Y190D01*
D02*
X330Y165D02*
X308Y165D01*
D02*
X330Y140D02*
X308Y140D01*
D02*
X330Y115D02*
X308Y115D01*
D02*
X330Y90D02*
X308Y90D01*
D02*
X330Y65D02*
X308Y65D01*
D02*
X118Y64D02*
X96Y64D01*
D02*
X118Y89D02*
X96Y89D01*
D02*
X118Y114D02*
X96Y114D01*
D02*
X118Y139D02*
X96Y139D01*
D02*
X118Y164D02*
X96Y164D01*
D02*
X118Y189D02*
X96Y189D01*
D02*
X118Y214D02*
X96Y214D01*
D02*
X118Y239D02*
X96Y239D01*
G04 End of PasteMask0*
M02*