G04 MADE WITH FRITZING*
G04 WWW.FRITZING.ORG*
G04 DOUBLE SIDED*
G04 HOLES PLATED*
G04 CONTOUR ON CENTER OF CONTOUR VECTOR*
%ASAXBY*%
%FSLAX23Y23*%
%MOIN*%
%OFA0B0*%
%SFA1.0B1.0*%
%ADD10R,0.055118X0.059055*%
%ADD11R,0.059055X0.055118*%
%ADD12C,0.016000*%
%LNPASTEMASK1*%
G90*
G70*
G54D10*
X830Y714D03*
X910Y714D03*
X830Y614D03*
X910Y614D03*
X830Y514D03*
X910Y514D03*
G54D11*
X830Y426D03*
X830Y345D03*
X930Y426D03*
X930Y345D03*
G54D10*
X317Y914D03*
X398Y914D03*
X767Y1001D03*
X848Y1001D03*
G54D11*
X242Y914D03*
X242Y994D03*
G54D10*
X242Y664D03*
X323Y664D03*
X317Y564D03*
X236Y564D03*
X242Y464D03*
X323Y464D03*
G54D12*
X690Y138D02*
X668Y138D01*
D02*
X690Y163D02*
X668Y163D01*
D02*
X690Y188D02*
X668Y188D01*
D02*
X690Y213D02*
X668Y213D01*
D02*
X690Y238D02*
X668Y238D01*
D02*
X690Y263D02*
X668Y263D01*
D02*
X690Y288D02*
X668Y288D01*
D02*
X690Y313D02*
X668Y313D01*
D02*
X478Y314D02*
X456Y314D01*
D02*
X478Y289D02*
X456Y289D01*
D02*
X478Y264D02*
X456Y264D01*
D02*
X478Y239D02*
X456Y239D01*
D02*
X478Y214D02*
X456Y214D01*
D02*
X478Y189D02*
X456Y189D01*
D02*
X478Y164D02*
X456Y164D01*
D02*
X478Y139D02*
X456Y139D01*
G04 End of PasteMask1*
M02*