G04 MADE WITH FRITZING*
G04 WWW.FRITZING.ORG*
G04 DOUBLE SIDED*
G04 HOLES PLATED*
G04 CONTOUR ON CENTER OF CONTOUR VECTOR*
%ASAXBY*%
%FSLAX23Y23*%
%MOIN*%
%OFA0B0*%
%SFA1.0B1.0*%
%ADD10C,0.075000*%
%ADD11C,0.039370*%
%ADD12C,0.079370*%
%ADD13R,0.059055X0.055118*%
%ADD14R,0.024000X0.087000*%
%ADD15R,0.055118X0.059055*%
%ADD16R,0.079370X0.079370*%
%ADD17C,0.012000*%
%ADD18C,0.024000*%
%ADD19C,0.016000*%
%LNCOPPER1*%
G90*
G70*
G54D10*
X819Y815D03*
X419Y815D03*
G54D11*
X819Y740D03*
X619Y815D03*
X544Y315D03*
X194Y140D03*
X269Y115D03*
X69Y715D03*
G54D10*
X819Y140D03*
X419Y140D03*
G54D12*
X369Y615D03*
X669Y615D03*
X369Y515D03*
X669Y515D03*
X369Y415D03*
X669Y415D03*
X369Y315D03*
X669Y315D03*
G54D11*
X494Y115D03*
X244Y265D03*
X144Y265D03*
X44Y915D03*
X294Y690D03*
X494Y415D03*
G54D10*
X469Y720D03*
X770Y426D03*
X594Y114D03*
G54D13*
X194Y365D03*
X194Y446D03*
G54D14*
X94Y584D03*
X144Y584D03*
X194Y584D03*
X244Y584D03*
X244Y790D03*
X194Y790D03*
X144Y790D03*
X94Y790D03*
G54D15*
X219Y65D03*
X139Y65D03*
G54D16*
X369Y615D03*
G54D17*
X83Y715D02*
X120Y715D01*
D02*
X244Y140D02*
X260Y124D01*
D02*
X208Y140D02*
X244Y140D01*
G54D18*
D02*
X645Y396D02*
X559Y327D01*
G54D17*
D02*
X269Y590D02*
X294Y615D01*
D02*
X294Y615D02*
X294Y640D01*
D02*
X294Y640D02*
X344Y690D01*
D02*
X619Y840D02*
X619Y828D01*
D02*
X344Y690D02*
X344Y840D01*
D02*
X370Y865D02*
X594Y864D01*
D02*
X251Y585D02*
X269Y590D01*
G54D18*
D02*
X769Y715D02*
X619Y715D01*
D02*
X619Y715D02*
X594Y690D01*
D02*
X594Y690D02*
X594Y490D01*
D02*
X594Y490D02*
X648Y437D01*
D02*
X802Y731D02*
X769Y715D01*
G54D17*
D02*
X219Y690D02*
X194Y715D01*
D02*
X194Y752D02*
X194Y715D01*
D02*
X194Y715D02*
X120Y715D01*
D02*
X120Y715D02*
X101Y771D01*
D02*
X281Y690D02*
X219Y690D01*
G54D18*
D02*
X770Y190D02*
X799Y160D01*
D02*
X470Y515D02*
X544Y590D01*
D02*
X770Y764D02*
X799Y794D01*
D02*
X544Y590D02*
X544Y740D01*
D02*
X419Y168D02*
X419Y215D01*
D02*
X569Y765D02*
X770Y764D01*
D02*
X400Y515D02*
X470Y515D01*
D02*
X394Y765D02*
X407Y789D01*
D02*
X420Y414D02*
X444Y364D01*
G54D19*
D02*
X803Y124D02*
X719Y40D01*
G54D18*
D02*
X444Y364D02*
X444Y290D01*
D02*
X470Y265D02*
X470Y215D01*
D02*
X519Y190D02*
X770Y190D01*
D02*
X400Y415D02*
X420Y414D01*
D02*
X394Y240D02*
X379Y286D01*
D02*
X394Y665D02*
X394Y765D01*
D02*
X383Y642D02*
X394Y665D01*
G54D19*
D02*
X44Y640D02*
X44Y340D01*
D02*
X169Y315D02*
X194Y289D01*
D02*
X44Y340D02*
X69Y315D01*
D02*
X169Y665D02*
X69Y665D01*
D02*
X69Y315D02*
X169Y315D01*
D02*
X69Y665D02*
X44Y640D01*
D02*
X194Y240D02*
X144Y190D01*
D02*
X144Y190D02*
X144Y90D01*
D02*
X194Y289D02*
X194Y240D01*
D02*
X194Y622D02*
X194Y640D01*
D02*
X144Y90D02*
X144Y89D01*
D02*
X94Y546D02*
X94Y465D01*
D02*
X94Y465D02*
X120Y440D01*
D02*
X120Y440D02*
X169Y440D01*
D02*
X169Y440D02*
X170Y440D01*
G54D18*
D02*
X320Y514D02*
X339Y515D01*
D02*
X218Y365D02*
X269Y364D01*
D02*
X269Y364D02*
X295Y389D01*
D02*
X295Y489D02*
X320Y514D01*
D02*
X295Y389D02*
X295Y489D01*
G54D19*
D02*
X719Y40D02*
X320Y40D01*
D02*
X269Y40D02*
X241Y54D01*
D02*
X320Y40D02*
X269Y40D01*
D02*
X270Y890D02*
X244Y865D01*
D02*
X244Y865D02*
X244Y828D01*
D02*
X844Y890D02*
X270Y890D01*
G54D17*
D02*
X269Y215D02*
X295Y190D01*
D02*
X295Y190D02*
X320Y190D01*
D02*
X320Y190D02*
X344Y165D01*
D02*
X344Y165D02*
X344Y115D01*
D02*
X344Y115D02*
X395Y64D01*
D02*
X395Y64D02*
X444Y64D01*
D02*
X444Y64D02*
X485Y105D01*
D02*
X250Y253D02*
X269Y215D01*
G54D18*
D02*
X894Y515D02*
X944Y565D01*
D02*
X944Y565D02*
X944Y840D01*
D02*
X944Y840D02*
X844Y940D01*
D02*
X844Y940D02*
X194Y940D01*
D02*
X194Y940D02*
X144Y890D01*
D02*
X144Y890D02*
X144Y828D01*
D02*
X700Y515D02*
X894Y515D01*
G54D19*
D02*
X844Y614D02*
X894Y664D01*
D02*
X894Y664D02*
X894Y840D01*
D02*
X894Y840D02*
X844Y890D01*
D02*
X695Y615D02*
X844Y614D01*
D02*
X44Y265D02*
X19Y290D01*
D02*
X131Y265D02*
X44Y265D01*
G54D18*
D02*
X544Y740D02*
X569Y765D01*
G54D19*
D02*
X569Y265D02*
X519Y265D01*
D02*
X619Y315D02*
X569Y265D01*
D02*
X144Y540D02*
X170Y514D01*
D02*
X244Y540D02*
X244Y546D01*
D02*
X144Y546D02*
X144Y540D01*
D02*
X494Y365D02*
X519Y390D01*
D02*
X494Y290D02*
X494Y365D01*
D02*
X519Y390D02*
X504Y405D01*
D02*
X519Y265D02*
X494Y290D01*
D02*
X644Y315D02*
X619Y315D01*
D02*
X194Y640D02*
X169Y665D01*
D02*
X20Y815D02*
X41Y902D01*
D02*
X19Y290D02*
X20Y815D01*
D02*
X220Y514D02*
X244Y540D01*
D02*
X170Y514D02*
X220Y514D01*
G54D17*
D02*
X594Y864D02*
X619Y840D01*
D02*
X344Y840D02*
X370Y865D01*
G54D18*
D02*
X444Y290D02*
X470Y265D01*
D02*
X470Y215D02*
X519Y190D01*
D02*
X419Y215D02*
X394Y240D01*
G36*
X70Y944D02*
X70Y920D01*
X72Y920D01*
X72Y908D01*
X70Y908D01*
X70Y904D01*
X68Y904D01*
X68Y900D01*
X66Y900D01*
X66Y898D01*
X64Y898D01*
X64Y896D01*
X62Y896D01*
X62Y894D01*
X60Y894D01*
X60Y892D01*
X58Y892D01*
X58Y890D01*
X54Y890D01*
X54Y882D01*
X52Y882D01*
X52Y874D01*
X50Y874D01*
X50Y866D01*
X48Y866D01*
X48Y858D01*
X46Y858D01*
X46Y850D01*
X44Y850D01*
X44Y842D01*
X42Y842D01*
X42Y834D01*
X40Y834D01*
X40Y740D01*
X62Y740D01*
X62Y742D01*
X74Y742D01*
X74Y840D01*
X76Y840D01*
X76Y842D01*
X124Y842D01*
X124Y894D01*
X126Y894D01*
X126Y900D01*
X128Y900D01*
X128Y902D01*
X130Y902D01*
X130Y904D01*
X132Y904D01*
X132Y906D01*
X134Y906D01*
X134Y908D01*
X136Y908D01*
X136Y910D01*
X138Y910D01*
X138Y912D01*
X140Y912D01*
X140Y914D01*
X142Y914D01*
X142Y916D01*
X144Y916D01*
X144Y918D01*
X146Y918D01*
X146Y920D01*
X148Y920D01*
X148Y922D01*
X150Y922D01*
X150Y924D01*
X152Y924D01*
X152Y944D01*
X70Y944D01*
G37*
D02*
G36*
X888Y944D02*
X888Y924D01*
X890Y924D01*
X890Y922D01*
X892Y922D01*
X892Y920D01*
X894Y920D01*
X894Y918D01*
X896Y918D01*
X896Y916D01*
X898Y916D01*
X898Y914D01*
X900Y914D01*
X900Y912D01*
X902Y912D01*
X902Y910D01*
X904Y910D01*
X904Y908D01*
X906Y908D01*
X906Y906D01*
X908Y906D01*
X908Y904D01*
X910Y904D01*
X910Y902D01*
X912Y902D01*
X912Y900D01*
X914Y900D01*
X914Y898D01*
X916Y898D01*
X916Y896D01*
X918Y896D01*
X918Y894D01*
X920Y894D01*
X920Y892D01*
X922Y892D01*
X922Y890D01*
X924Y890D01*
X924Y888D01*
X944Y888D01*
X944Y944D01*
X888Y944D01*
G37*
D02*
G36*
X202Y920D02*
X202Y918D01*
X200Y918D01*
X200Y916D01*
X198Y916D01*
X198Y914D01*
X196Y914D01*
X196Y912D01*
X194Y912D01*
X194Y910D01*
X192Y910D01*
X192Y908D01*
X190Y908D01*
X190Y906D01*
X188Y906D01*
X188Y904D01*
X186Y904D01*
X186Y902D01*
X184Y902D01*
X184Y900D01*
X182Y900D01*
X182Y898D01*
X180Y898D01*
X180Y896D01*
X178Y896D01*
X178Y894D01*
X176Y894D01*
X176Y892D01*
X174Y892D01*
X174Y890D01*
X172Y890D01*
X172Y888D01*
X170Y888D01*
X170Y886D01*
X168Y886D01*
X168Y884D01*
X166Y884D01*
X166Y882D01*
X164Y882D01*
X164Y842D01*
X228Y842D01*
X228Y868D01*
X230Y868D01*
X230Y874D01*
X232Y874D01*
X232Y876D01*
X234Y876D01*
X234Y878D01*
X236Y878D01*
X236Y880D01*
X238Y880D01*
X238Y882D01*
X240Y882D01*
X240Y884D01*
X242Y884D01*
X242Y886D01*
X244Y886D01*
X244Y888D01*
X246Y888D01*
X246Y890D01*
X248Y890D01*
X248Y892D01*
X250Y892D01*
X250Y894D01*
X252Y894D01*
X252Y896D01*
X254Y896D01*
X254Y898D01*
X256Y898D01*
X256Y900D01*
X258Y900D01*
X258Y920D01*
X202Y920D01*
G37*
D02*
G36*
X276Y874D02*
X276Y872D01*
X274Y872D01*
X274Y870D01*
X272Y870D01*
X272Y868D01*
X270Y868D01*
X270Y866D01*
X268Y866D01*
X268Y864D01*
X266Y864D01*
X266Y862D01*
X264Y862D01*
X264Y738D01*
X210Y738D01*
X210Y718D01*
X296Y718D01*
X296Y716D01*
X304Y716D01*
X304Y714D01*
X308Y714D01*
X308Y712D01*
X310Y712D01*
X310Y710D01*
X330Y710D01*
X330Y844D01*
X332Y844D01*
X332Y848D01*
X334Y848D01*
X334Y850D01*
X336Y850D01*
X336Y852D01*
X338Y852D01*
X338Y854D01*
X340Y854D01*
X340Y874D01*
X276Y874D01*
G37*
D02*
G36*
X212Y718D02*
X212Y716D01*
X214Y716D01*
X214Y714D01*
X216Y714D01*
X216Y712D01*
X218Y712D01*
X218Y710D01*
X220Y710D01*
X220Y708D01*
X222Y708D01*
X222Y706D01*
X224Y706D01*
X224Y704D01*
X272Y704D01*
X272Y706D01*
X274Y706D01*
X274Y708D01*
X276Y708D01*
X276Y710D01*
X278Y710D01*
X278Y712D01*
X282Y712D01*
X282Y714D01*
X284Y714D01*
X284Y716D01*
X292Y716D01*
X292Y718D01*
X212Y718D01*
G37*
D02*
G36*
X624Y874D02*
X624Y854D01*
X626Y854D01*
X626Y852D01*
X628Y852D01*
X628Y850D01*
X630Y850D01*
X630Y846D01*
X632Y846D01*
X632Y840D01*
X634Y840D01*
X634Y836D01*
X636Y836D01*
X636Y834D01*
X638Y834D01*
X638Y832D01*
X640Y832D01*
X640Y830D01*
X642Y830D01*
X642Y828D01*
X644Y828D01*
X644Y824D01*
X646Y824D01*
X646Y816D01*
X648Y816D01*
X648Y814D01*
X646Y814D01*
X646Y806D01*
X644Y806D01*
X644Y784D01*
X762Y784D01*
X762Y786D01*
X764Y786D01*
X764Y788D01*
X766Y788D01*
X766Y790D01*
X768Y790D01*
X768Y792D01*
X770Y792D01*
X770Y794D01*
X772Y794D01*
X772Y796D01*
X774Y796D01*
X774Y824D01*
X776Y824D01*
X776Y828D01*
X778Y828D01*
X778Y834D01*
X780Y834D01*
X780Y836D01*
X782Y836D01*
X782Y840D01*
X784Y840D01*
X784Y842D01*
X786Y842D01*
X786Y844D01*
X788Y844D01*
X788Y846D01*
X790Y846D01*
X790Y848D01*
X792Y848D01*
X792Y850D01*
X794Y850D01*
X794Y852D01*
X798Y852D01*
X798Y854D01*
X800Y854D01*
X800Y874D01*
X624Y874D01*
G37*
D02*
G36*
X462Y850D02*
X462Y826D01*
X464Y826D01*
X464Y804D01*
X462Y804D01*
X462Y798D01*
X460Y798D01*
X460Y794D01*
X458Y794D01*
X458Y792D01*
X456Y792D01*
X456Y788D01*
X454Y788D01*
X454Y786D01*
X452Y786D01*
X452Y784D01*
X450Y784D01*
X450Y782D01*
X448Y782D01*
X448Y780D01*
X446Y780D01*
X446Y778D01*
X442Y778D01*
X442Y776D01*
X440Y776D01*
X440Y774D01*
X436Y774D01*
X436Y772D01*
X430Y772D01*
X430Y770D01*
X420Y770D01*
X420Y768D01*
X418Y768D01*
X418Y764D01*
X416Y764D01*
X416Y760D01*
X414Y760D01*
X414Y662D01*
X418Y662D01*
X418Y568D01*
X416Y568D01*
X416Y566D01*
X402Y566D01*
X402Y546D01*
X404Y546D01*
X404Y544D01*
X406Y544D01*
X406Y542D01*
X408Y542D01*
X408Y538D01*
X410Y538D01*
X410Y536D01*
X412Y536D01*
X412Y534D01*
X462Y534D01*
X462Y536D01*
X464Y536D01*
X464Y538D01*
X466Y538D01*
X466Y540D01*
X468Y540D01*
X468Y542D01*
X470Y542D01*
X470Y544D01*
X472Y544D01*
X472Y546D01*
X474Y546D01*
X474Y548D01*
X476Y548D01*
X476Y550D01*
X478Y550D01*
X478Y552D01*
X480Y552D01*
X480Y554D01*
X482Y554D01*
X482Y556D01*
X484Y556D01*
X484Y558D01*
X486Y558D01*
X486Y560D01*
X488Y560D01*
X488Y562D01*
X490Y562D01*
X490Y564D01*
X492Y564D01*
X492Y566D01*
X494Y566D01*
X494Y568D01*
X496Y568D01*
X496Y570D01*
X498Y570D01*
X498Y572D01*
X500Y572D01*
X500Y574D01*
X502Y574D01*
X502Y576D01*
X504Y576D01*
X504Y578D01*
X506Y578D01*
X506Y580D01*
X508Y580D01*
X508Y582D01*
X510Y582D01*
X510Y584D01*
X512Y584D01*
X512Y586D01*
X514Y586D01*
X514Y588D01*
X516Y588D01*
X516Y590D01*
X518Y590D01*
X518Y592D01*
X520Y592D01*
X520Y594D01*
X522Y594D01*
X522Y596D01*
X524Y596D01*
X524Y744D01*
X526Y744D01*
X526Y750D01*
X528Y750D01*
X528Y752D01*
X530Y752D01*
X530Y754D01*
X532Y754D01*
X532Y756D01*
X534Y756D01*
X534Y758D01*
X536Y758D01*
X536Y760D01*
X538Y760D01*
X538Y762D01*
X540Y762D01*
X540Y764D01*
X542Y764D01*
X542Y766D01*
X544Y766D01*
X544Y768D01*
X546Y768D01*
X546Y770D01*
X548Y770D01*
X548Y772D01*
X550Y772D01*
X550Y774D01*
X552Y774D01*
X552Y776D01*
X554Y776D01*
X554Y778D01*
X556Y778D01*
X556Y780D01*
X558Y780D01*
X558Y782D01*
X562Y782D01*
X562Y784D01*
X596Y784D01*
X596Y804D01*
X594Y804D01*
X594Y808D01*
X592Y808D01*
X592Y822D01*
X594Y822D01*
X594Y846D01*
X592Y846D01*
X592Y848D01*
X590Y848D01*
X590Y850D01*
X462Y850D01*
G37*
D02*
G36*
X858Y794D02*
X858Y792D01*
X856Y792D01*
X856Y788D01*
X854Y788D01*
X854Y786D01*
X852Y786D01*
X852Y784D01*
X850Y784D01*
X850Y782D01*
X848Y782D01*
X848Y780D01*
X846Y780D01*
X846Y778D01*
X842Y778D01*
X842Y776D01*
X840Y776D01*
X840Y756D01*
X842Y756D01*
X842Y752D01*
X844Y752D01*
X844Y748D01*
X846Y748D01*
X846Y740D01*
X848Y740D01*
X848Y738D01*
X846Y738D01*
X846Y730D01*
X844Y730D01*
X844Y726D01*
X842Y726D01*
X842Y724D01*
X840Y724D01*
X840Y722D01*
X838Y722D01*
X838Y720D01*
X836Y720D01*
X836Y718D01*
X834Y718D01*
X834Y716D01*
X830Y716D01*
X830Y714D01*
X826Y714D01*
X826Y712D01*
X808Y712D01*
X808Y710D01*
X804Y710D01*
X804Y708D01*
X800Y708D01*
X800Y706D01*
X796Y706D01*
X796Y704D01*
X792Y704D01*
X792Y702D01*
X788Y702D01*
X788Y700D01*
X784Y700D01*
X784Y698D01*
X780Y698D01*
X780Y696D01*
X774Y696D01*
X774Y694D01*
X626Y694D01*
X626Y692D01*
X624Y692D01*
X624Y690D01*
X622Y690D01*
X622Y688D01*
X620Y688D01*
X620Y686D01*
X618Y686D01*
X618Y684D01*
X616Y684D01*
X616Y682D01*
X614Y682D01*
X614Y662D01*
X678Y662D01*
X678Y660D01*
X684Y660D01*
X684Y658D01*
X688Y658D01*
X688Y656D01*
X692Y656D01*
X692Y654D01*
X696Y654D01*
X696Y652D01*
X698Y652D01*
X698Y650D01*
X700Y650D01*
X700Y648D01*
X702Y648D01*
X702Y646D01*
X704Y646D01*
X704Y644D01*
X706Y644D01*
X706Y642D01*
X708Y642D01*
X708Y638D01*
X710Y638D01*
X710Y636D01*
X712Y636D01*
X712Y632D01*
X714Y632D01*
X714Y630D01*
X838Y630D01*
X838Y632D01*
X840Y632D01*
X840Y634D01*
X842Y634D01*
X842Y636D01*
X844Y636D01*
X844Y638D01*
X846Y638D01*
X846Y640D01*
X848Y640D01*
X848Y642D01*
X850Y642D01*
X850Y644D01*
X852Y644D01*
X852Y646D01*
X854Y646D01*
X854Y648D01*
X856Y648D01*
X856Y650D01*
X858Y650D01*
X858Y652D01*
X860Y652D01*
X860Y654D01*
X862Y654D01*
X862Y656D01*
X864Y656D01*
X864Y658D01*
X866Y658D01*
X866Y660D01*
X868Y660D01*
X868Y662D01*
X870Y662D01*
X870Y664D01*
X872Y664D01*
X872Y666D01*
X874Y666D01*
X874Y668D01*
X876Y668D01*
X876Y670D01*
X878Y670D01*
X878Y794D01*
X858Y794D01*
G37*
D02*
G36*
X614Y662D02*
X614Y644D01*
X634Y644D01*
X634Y646D01*
X636Y646D01*
X636Y648D01*
X638Y648D01*
X638Y650D01*
X640Y650D01*
X640Y652D01*
X644Y652D01*
X644Y654D01*
X646Y654D01*
X646Y656D01*
X650Y656D01*
X650Y658D01*
X654Y658D01*
X654Y660D01*
X660Y660D01*
X660Y662D01*
X614Y662D01*
G37*
D02*
G36*
X92Y700D02*
X92Y680D01*
X176Y680D01*
X176Y678D01*
X180Y678D01*
X180Y676D01*
X182Y676D01*
X182Y674D01*
X184Y674D01*
X184Y672D01*
X186Y672D01*
X186Y670D01*
X188Y670D01*
X188Y668D01*
X190Y668D01*
X190Y666D01*
X192Y666D01*
X192Y664D01*
X194Y664D01*
X194Y662D01*
X196Y662D01*
X196Y660D01*
X198Y660D01*
X198Y658D01*
X200Y658D01*
X200Y656D01*
X202Y656D01*
X202Y654D01*
X204Y654D01*
X204Y652D01*
X206Y652D01*
X206Y650D01*
X208Y650D01*
X208Y646D01*
X210Y646D01*
X210Y636D01*
X280Y636D01*
X280Y644D01*
X282Y644D01*
X282Y666D01*
X280Y666D01*
X280Y668D01*
X278Y668D01*
X278Y670D01*
X276Y670D01*
X276Y672D01*
X274Y672D01*
X274Y674D01*
X272Y674D01*
X272Y676D01*
X214Y676D01*
X214Y678D01*
X210Y678D01*
X210Y680D01*
X208Y680D01*
X208Y682D01*
X206Y682D01*
X206Y684D01*
X204Y684D01*
X204Y686D01*
X202Y686D01*
X202Y688D01*
X200Y688D01*
X200Y690D01*
X198Y690D01*
X198Y692D01*
X196Y692D01*
X196Y694D01*
X194Y694D01*
X194Y696D01*
X192Y696D01*
X192Y698D01*
X190Y698D01*
X190Y700D01*
X92Y700D01*
G37*
D02*
G36*
X904Y652D02*
X904Y650D01*
X902Y650D01*
X902Y648D01*
X900Y648D01*
X900Y646D01*
X898Y646D01*
X898Y644D01*
X896Y644D01*
X896Y642D01*
X894Y642D01*
X894Y640D01*
X892Y640D01*
X892Y638D01*
X890Y638D01*
X890Y636D01*
X888Y636D01*
X888Y634D01*
X886Y634D01*
X886Y632D01*
X884Y632D01*
X884Y630D01*
X882Y630D01*
X882Y628D01*
X880Y628D01*
X880Y626D01*
X878Y626D01*
X878Y624D01*
X876Y624D01*
X876Y622D01*
X874Y622D01*
X874Y620D01*
X872Y620D01*
X872Y618D01*
X870Y618D01*
X870Y616D01*
X868Y616D01*
X868Y614D01*
X866Y614D01*
X866Y612D01*
X864Y612D01*
X864Y610D01*
X862Y610D01*
X862Y608D01*
X860Y608D01*
X860Y606D01*
X858Y606D01*
X858Y604D01*
X856Y604D01*
X856Y602D01*
X854Y602D01*
X854Y600D01*
X848Y600D01*
X848Y598D01*
X712Y598D01*
X712Y594D01*
X710Y594D01*
X710Y590D01*
X708Y590D01*
X708Y588D01*
X706Y588D01*
X706Y586D01*
X704Y586D01*
X704Y582D01*
X702Y582D01*
X702Y580D01*
X698Y580D01*
X698Y578D01*
X696Y578D01*
X696Y576D01*
X694Y576D01*
X694Y574D01*
X692Y574D01*
X692Y554D01*
X696Y554D01*
X696Y552D01*
X698Y552D01*
X698Y550D01*
X700Y550D01*
X700Y548D01*
X702Y548D01*
X702Y546D01*
X704Y546D01*
X704Y544D01*
X706Y544D01*
X706Y542D01*
X708Y542D01*
X708Y538D01*
X710Y538D01*
X710Y536D01*
X712Y536D01*
X712Y534D01*
X886Y534D01*
X886Y536D01*
X888Y536D01*
X888Y538D01*
X890Y538D01*
X890Y540D01*
X892Y540D01*
X892Y542D01*
X894Y542D01*
X894Y544D01*
X896Y544D01*
X896Y546D01*
X898Y546D01*
X898Y548D01*
X900Y548D01*
X900Y550D01*
X902Y550D01*
X902Y552D01*
X904Y552D01*
X904Y554D01*
X906Y554D01*
X906Y556D01*
X908Y556D01*
X908Y558D01*
X910Y558D01*
X910Y560D01*
X912Y560D01*
X912Y562D01*
X914Y562D01*
X914Y564D01*
X916Y564D01*
X916Y566D01*
X918Y566D01*
X918Y568D01*
X920Y568D01*
X920Y570D01*
X922Y570D01*
X922Y572D01*
X924Y572D01*
X924Y652D01*
X904Y652D01*
G37*
D02*
G36*
X302Y604D02*
X302Y602D01*
X300Y602D01*
X300Y600D01*
X298Y600D01*
X298Y598D01*
X296Y598D01*
X296Y596D01*
X294Y596D01*
X294Y594D01*
X292Y594D01*
X292Y592D01*
X290Y592D01*
X290Y590D01*
X288Y590D01*
X288Y588D01*
X286Y588D01*
X286Y586D01*
X284Y586D01*
X284Y584D01*
X282Y584D01*
X282Y582D01*
X280Y582D01*
X280Y580D01*
X278Y580D01*
X278Y578D01*
X276Y578D01*
X276Y576D01*
X268Y576D01*
X268Y574D01*
X264Y574D01*
X264Y532D01*
X258Y532D01*
X258Y530D01*
X256Y530D01*
X256Y528D01*
X254Y528D01*
X254Y526D01*
X252Y526D01*
X252Y524D01*
X250Y524D01*
X250Y522D01*
X248Y522D01*
X248Y520D01*
X246Y520D01*
X246Y518D01*
X244Y518D01*
X244Y516D01*
X242Y516D01*
X242Y514D01*
X240Y514D01*
X240Y510D01*
X238Y510D01*
X238Y508D01*
X236Y508D01*
X236Y506D01*
X234Y506D01*
X234Y504D01*
X232Y504D01*
X232Y502D01*
X228Y502D01*
X228Y500D01*
X224Y500D01*
X224Y480D01*
X232Y480D01*
X232Y384D01*
X262Y384D01*
X262Y386D01*
X264Y386D01*
X264Y388D01*
X266Y388D01*
X266Y390D01*
X268Y390D01*
X268Y392D01*
X270Y392D01*
X270Y394D01*
X272Y394D01*
X272Y396D01*
X274Y396D01*
X274Y398D01*
X276Y398D01*
X276Y498D01*
X278Y498D01*
X278Y500D01*
X280Y500D01*
X280Y504D01*
X282Y504D01*
X282Y506D01*
X284Y506D01*
X284Y508D01*
X286Y508D01*
X286Y510D01*
X288Y510D01*
X288Y512D01*
X290Y512D01*
X290Y514D01*
X292Y514D01*
X292Y516D01*
X294Y516D01*
X294Y518D01*
X296Y518D01*
X296Y520D01*
X298Y520D01*
X298Y522D01*
X300Y522D01*
X300Y524D01*
X302Y524D01*
X302Y526D01*
X304Y526D01*
X304Y528D01*
X306Y528D01*
X306Y530D01*
X308Y530D01*
X308Y532D01*
X312Y532D01*
X312Y534D01*
X328Y534D01*
X328Y538D01*
X330Y538D01*
X330Y540D01*
X332Y540D01*
X332Y544D01*
X334Y544D01*
X334Y546D01*
X336Y546D01*
X336Y566D01*
X322Y566D01*
X322Y604D01*
X302Y604D01*
G37*
D02*
G36*
X554Y572D02*
X554Y570D01*
X552Y570D01*
X552Y568D01*
X550Y568D01*
X550Y566D01*
X548Y566D01*
X548Y564D01*
X546Y564D01*
X546Y562D01*
X544Y562D01*
X544Y560D01*
X542Y560D01*
X542Y558D01*
X540Y558D01*
X540Y556D01*
X538Y556D01*
X538Y554D01*
X536Y554D01*
X536Y552D01*
X534Y552D01*
X534Y550D01*
X532Y550D01*
X532Y548D01*
X530Y548D01*
X530Y546D01*
X528Y546D01*
X528Y544D01*
X526Y544D01*
X526Y542D01*
X524Y542D01*
X524Y540D01*
X522Y540D01*
X522Y538D01*
X520Y538D01*
X520Y536D01*
X518Y536D01*
X518Y534D01*
X516Y534D01*
X516Y532D01*
X514Y532D01*
X514Y530D01*
X512Y530D01*
X512Y528D01*
X510Y528D01*
X510Y526D01*
X508Y526D01*
X508Y524D01*
X506Y524D01*
X506Y522D01*
X504Y522D01*
X504Y520D01*
X502Y520D01*
X502Y518D01*
X500Y518D01*
X500Y516D01*
X498Y516D01*
X498Y514D01*
X496Y514D01*
X496Y512D01*
X494Y512D01*
X494Y510D01*
X492Y510D01*
X492Y508D01*
X490Y508D01*
X490Y506D01*
X488Y506D01*
X488Y504D01*
X486Y504D01*
X486Y502D01*
X484Y502D01*
X484Y500D01*
X482Y500D01*
X482Y498D01*
X480Y498D01*
X480Y496D01*
X474Y496D01*
X474Y494D01*
X410Y494D01*
X410Y490D01*
X408Y490D01*
X408Y488D01*
X406Y488D01*
X406Y486D01*
X404Y486D01*
X404Y482D01*
X402Y482D01*
X402Y480D01*
X398Y480D01*
X398Y478D01*
X396Y478D01*
X396Y476D01*
X394Y476D01*
X394Y474D01*
X392Y474D01*
X392Y454D01*
X396Y454D01*
X396Y452D01*
X398Y452D01*
X398Y450D01*
X400Y450D01*
X400Y448D01*
X402Y448D01*
X402Y446D01*
X404Y446D01*
X404Y444D01*
X406Y444D01*
X406Y442D01*
X502Y442D01*
X502Y440D01*
X506Y440D01*
X506Y438D01*
X510Y438D01*
X510Y436D01*
X512Y436D01*
X512Y434D01*
X514Y434D01*
X514Y432D01*
X516Y432D01*
X516Y428D01*
X518Y428D01*
X518Y426D01*
X520Y426D01*
X520Y420D01*
X522Y420D01*
X522Y408D01*
X524Y408D01*
X524Y406D01*
X526Y406D01*
X526Y404D01*
X528Y404D01*
X528Y402D01*
X530Y402D01*
X530Y400D01*
X532Y400D01*
X532Y398D01*
X534Y398D01*
X534Y394D01*
X536Y394D01*
X536Y386D01*
X534Y386D01*
X534Y382D01*
X532Y382D01*
X532Y378D01*
X530Y378D01*
X530Y376D01*
X528Y376D01*
X528Y374D01*
X526Y374D01*
X526Y372D01*
X524Y372D01*
X524Y370D01*
X522Y370D01*
X522Y368D01*
X520Y368D01*
X520Y366D01*
X518Y366D01*
X518Y364D01*
X516Y364D01*
X516Y362D01*
X514Y362D01*
X514Y360D01*
X512Y360D01*
X512Y358D01*
X510Y358D01*
X510Y336D01*
X530Y336D01*
X530Y338D01*
X534Y338D01*
X534Y340D01*
X538Y340D01*
X538Y342D01*
X548Y342D01*
X548Y344D01*
X550Y344D01*
X550Y346D01*
X552Y346D01*
X552Y348D01*
X556Y348D01*
X556Y350D01*
X558Y350D01*
X558Y352D01*
X560Y352D01*
X560Y354D01*
X562Y354D01*
X562Y356D01*
X566Y356D01*
X566Y358D01*
X568Y358D01*
X568Y360D01*
X570Y360D01*
X570Y362D01*
X572Y362D01*
X572Y364D01*
X576Y364D01*
X576Y366D01*
X578Y366D01*
X578Y368D01*
X580Y368D01*
X580Y370D01*
X582Y370D01*
X582Y372D01*
X586Y372D01*
X586Y374D01*
X588Y374D01*
X588Y376D01*
X590Y376D01*
X590Y378D01*
X592Y378D01*
X592Y380D01*
X596Y380D01*
X596Y382D01*
X598Y382D01*
X598Y384D01*
X600Y384D01*
X600Y386D01*
X602Y386D01*
X602Y388D01*
X606Y388D01*
X606Y390D01*
X608Y390D01*
X608Y392D01*
X610Y392D01*
X610Y394D01*
X612Y394D01*
X612Y396D01*
X616Y396D01*
X616Y398D01*
X618Y398D01*
X618Y400D01*
X620Y400D01*
X620Y402D01*
X622Y402D01*
X622Y434D01*
X620Y434D01*
X620Y436D01*
X618Y436D01*
X618Y438D01*
X616Y438D01*
X616Y440D01*
X614Y440D01*
X614Y442D01*
X612Y442D01*
X612Y444D01*
X610Y444D01*
X610Y446D01*
X608Y446D01*
X608Y448D01*
X606Y448D01*
X606Y450D01*
X604Y450D01*
X604Y452D01*
X602Y452D01*
X602Y454D01*
X600Y454D01*
X600Y456D01*
X598Y456D01*
X598Y458D01*
X596Y458D01*
X596Y460D01*
X594Y460D01*
X594Y462D01*
X592Y462D01*
X592Y464D01*
X590Y464D01*
X590Y466D01*
X588Y466D01*
X588Y468D01*
X586Y468D01*
X586Y470D01*
X584Y470D01*
X584Y472D01*
X582Y472D01*
X582Y474D01*
X580Y474D01*
X580Y476D01*
X578Y476D01*
X578Y480D01*
X576Y480D01*
X576Y486D01*
X574Y486D01*
X574Y572D01*
X554Y572D01*
G37*
D02*
G36*
X408Y442D02*
X408Y438D01*
X410Y438D01*
X410Y436D01*
X412Y436D01*
X412Y434D01*
X426Y434D01*
X426Y432D01*
X430Y432D01*
X430Y430D01*
X434Y430D01*
X434Y428D01*
X436Y428D01*
X436Y424D01*
X438Y424D01*
X438Y420D01*
X440Y420D01*
X440Y416D01*
X442Y416D01*
X442Y412D01*
X444Y412D01*
X444Y408D01*
X446Y408D01*
X446Y404D01*
X448Y404D01*
X448Y400D01*
X450Y400D01*
X450Y396D01*
X452Y396D01*
X452Y392D01*
X454Y392D01*
X454Y388D01*
X456Y388D01*
X456Y384D01*
X458Y384D01*
X458Y380D01*
X460Y380D01*
X460Y376D01*
X480Y376D01*
X480Y392D01*
X478Y392D01*
X478Y394D01*
X476Y394D01*
X476Y396D01*
X474Y396D01*
X474Y398D01*
X472Y398D01*
X472Y402D01*
X470Y402D01*
X470Y406D01*
X468Y406D01*
X468Y412D01*
X466Y412D01*
X466Y416D01*
X468Y416D01*
X468Y424D01*
X470Y424D01*
X470Y428D01*
X472Y428D01*
X472Y430D01*
X474Y430D01*
X474Y432D01*
X476Y432D01*
X476Y434D01*
X478Y434D01*
X478Y436D01*
X480Y436D01*
X480Y438D01*
X484Y438D01*
X484Y440D01*
X488Y440D01*
X488Y442D01*
X408Y442D01*
G37*
D02*
G36*
X110Y532D02*
X110Y470D01*
X112Y470D01*
X112Y468D01*
X114Y468D01*
X114Y466D01*
X116Y466D01*
X116Y464D01*
X118Y464D01*
X118Y462D01*
X120Y462D01*
X120Y460D01*
X122Y460D01*
X122Y458D01*
X124Y458D01*
X124Y456D01*
X156Y456D01*
X156Y480D01*
X164Y480D01*
X164Y500D01*
X160Y500D01*
X160Y502D01*
X158Y502D01*
X158Y504D01*
X156Y504D01*
X156Y506D01*
X154Y506D01*
X154Y508D01*
X152Y508D01*
X152Y510D01*
X150Y510D01*
X150Y512D01*
X148Y512D01*
X148Y514D01*
X146Y514D01*
X146Y516D01*
X144Y516D01*
X144Y518D01*
X142Y518D01*
X142Y520D01*
X140Y520D01*
X140Y522D01*
X138Y522D01*
X138Y524D01*
X136Y524D01*
X136Y526D01*
X134Y526D01*
X134Y528D01*
X132Y528D01*
X132Y530D01*
X130Y530D01*
X130Y532D01*
X110Y532D01*
G37*
D02*
G36*
X60Y458D02*
X60Y346D01*
X62Y346D01*
X62Y344D01*
X64Y344D01*
X64Y342D01*
X66Y342D01*
X66Y340D01*
X68Y340D01*
X68Y338D01*
X70Y338D01*
X70Y336D01*
X72Y336D01*
X72Y334D01*
X74Y334D01*
X74Y332D01*
X76Y332D01*
X76Y330D01*
X156Y330D01*
X156Y424D01*
X114Y424D01*
X114Y426D01*
X110Y426D01*
X110Y428D01*
X108Y428D01*
X108Y430D01*
X106Y430D01*
X106Y432D01*
X104Y432D01*
X104Y434D01*
X102Y434D01*
X102Y436D01*
X100Y436D01*
X100Y438D01*
X98Y438D01*
X98Y440D01*
X96Y440D01*
X96Y442D01*
X94Y442D01*
X94Y444D01*
X90Y444D01*
X90Y446D01*
X88Y446D01*
X88Y448D01*
X86Y448D01*
X86Y450D01*
X84Y450D01*
X84Y452D01*
X82Y452D01*
X82Y456D01*
X80Y456D01*
X80Y458D01*
X60Y458D01*
G37*
D02*
G36*
X314Y386D02*
X314Y380D01*
X312Y380D01*
X312Y376D01*
X310Y376D01*
X310Y374D01*
X308Y374D01*
X308Y372D01*
X306Y372D01*
X306Y370D01*
X304Y370D01*
X304Y368D01*
X300Y368D01*
X300Y366D01*
X298Y366D01*
X298Y364D01*
X296Y364D01*
X296Y362D01*
X294Y362D01*
X294Y360D01*
X292Y360D01*
X292Y358D01*
X290Y358D01*
X290Y356D01*
X288Y356D01*
X288Y354D01*
X286Y354D01*
X286Y352D01*
X284Y352D01*
X284Y350D01*
X282Y350D01*
X282Y348D01*
X280Y348D01*
X280Y346D01*
X274Y346D01*
X274Y344D01*
X232Y344D01*
X232Y330D01*
X230Y330D01*
X230Y328D01*
X196Y328D01*
X196Y308D01*
X198Y308D01*
X198Y306D01*
X200Y306D01*
X200Y304D01*
X202Y304D01*
X202Y302D01*
X204Y302D01*
X204Y300D01*
X206Y300D01*
X206Y298D01*
X208Y298D01*
X208Y294D01*
X210Y294D01*
X210Y292D01*
X252Y292D01*
X252Y290D01*
X256Y290D01*
X256Y288D01*
X260Y288D01*
X260Y286D01*
X262Y286D01*
X262Y284D01*
X264Y284D01*
X264Y282D01*
X266Y282D01*
X266Y278D01*
X268Y278D01*
X268Y276D01*
X270Y276D01*
X270Y270D01*
X272Y270D01*
X272Y238D01*
X274Y238D01*
X274Y234D01*
X276Y234D01*
X276Y230D01*
X278Y230D01*
X278Y226D01*
X280Y226D01*
X280Y222D01*
X282Y222D01*
X282Y220D01*
X284Y220D01*
X284Y218D01*
X286Y218D01*
X286Y216D01*
X288Y216D01*
X288Y214D01*
X290Y214D01*
X290Y212D01*
X292Y212D01*
X292Y210D01*
X294Y210D01*
X294Y208D01*
X296Y208D01*
X296Y206D01*
X298Y206D01*
X298Y204D01*
X322Y204D01*
X322Y202D01*
X328Y202D01*
X328Y200D01*
X330Y200D01*
X330Y198D01*
X332Y198D01*
X332Y196D01*
X334Y196D01*
X334Y194D01*
X336Y194D01*
X336Y192D01*
X338Y192D01*
X338Y190D01*
X340Y190D01*
X340Y188D01*
X342Y188D01*
X342Y186D01*
X344Y186D01*
X344Y184D01*
X346Y184D01*
X346Y182D01*
X348Y182D01*
X348Y180D01*
X350Y180D01*
X350Y178D01*
X352Y178D01*
X352Y176D01*
X354Y176D01*
X354Y174D01*
X356Y174D01*
X356Y170D01*
X358Y170D01*
X358Y154D01*
X378Y154D01*
X378Y158D01*
X380Y158D01*
X380Y162D01*
X382Y162D01*
X382Y164D01*
X384Y164D01*
X384Y168D01*
X386Y168D01*
X386Y170D01*
X388Y170D01*
X388Y172D01*
X390Y172D01*
X390Y174D01*
X394Y174D01*
X394Y176D01*
X396Y176D01*
X396Y178D01*
X400Y178D01*
X400Y206D01*
X398Y206D01*
X398Y208D01*
X396Y208D01*
X396Y210D01*
X394Y210D01*
X394Y212D01*
X392Y212D01*
X392Y214D01*
X390Y214D01*
X390Y216D01*
X388Y216D01*
X388Y218D01*
X386Y218D01*
X386Y220D01*
X384Y220D01*
X384Y222D01*
X382Y222D01*
X382Y224D01*
X380Y224D01*
X380Y226D01*
X378Y226D01*
X378Y230D01*
X376Y230D01*
X376Y234D01*
X374Y234D01*
X374Y240D01*
X372Y240D01*
X372Y246D01*
X370Y246D01*
X370Y252D01*
X368Y252D01*
X368Y258D01*
X366Y258D01*
X366Y264D01*
X364Y264D01*
X364Y268D01*
X358Y268D01*
X358Y270D01*
X352Y270D01*
X352Y272D01*
X348Y272D01*
X348Y274D01*
X346Y274D01*
X346Y276D01*
X342Y276D01*
X342Y278D01*
X340Y278D01*
X340Y280D01*
X338Y280D01*
X338Y282D01*
X336Y282D01*
X336Y284D01*
X334Y284D01*
X334Y286D01*
X332Y286D01*
X332Y288D01*
X330Y288D01*
X330Y292D01*
X328Y292D01*
X328Y296D01*
X326Y296D01*
X326Y300D01*
X324Y300D01*
X324Y306D01*
X322Y306D01*
X322Y324D01*
X324Y324D01*
X324Y330D01*
X326Y330D01*
X326Y334D01*
X328Y334D01*
X328Y338D01*
X330Y338D01*
X330Y340D01*
X332Y340D01*
X332Y344D01*
X334Y344D01*
X334Y346D01*
X336Y346D01*
X336Y348D01*
X338Y348D01*
X338Y350D01*
X340Y350D01*
X340Y352D01*
X344Y352D01*
X344Y354D01*
X346Y354D01*
X346Y376D01*
X342Y376D01*
X342Y378D01*
X340Y378D01*
X340Y380D01*
X338Y380D01*
X338Y382D01*
X336Y382D01*
X336Y384D01*
X334Y384D01*
X334Y386D01*
X314Y386D01*
G37*
D02*
G36*
X210Y292D02*
X210Y286D01*
X230Y286D01*
X230Y288D01*
X234Y288D01*
X234Y290D01*
X238Y290D01*
X238Y292D01*
X210Y292D01*
G37*
D02*
G36*
X406Y284D02*
X406Y266D01*
X408Y266D01*
X408Y260D01*
X410Y260D01*
X410Y254D01*
X412Y254D01*
X412Y250D01*
X414Y250D01*
X414Y248D01*
X416Y248D01*
X416Y246D01*
X418Y246D01*
X418Y244D01*
X420Y244D01*
X420Y242D01*
X422Y242D01*
X422Y240D01*
X424Y240D01*
X424Y238D01*
X426Y238D01*
X426Y236D01*
X428Y236D01*
X428Y234D01*
X430Y234D01*
X430Y232D01*
X450Y232D01*
X450Y258D01*
X448Y258D01*
X448Y260D01*
X446Y260D01*
X446Y262D01*
X444Y262D01*
X444Y264D01*
X442Y264D01*
X442Y266D01*
X438Y266D01*
X438Y268D01*
X436Y268D01*
X436Y270D01*
X434Y270D01*
X434Y272D01*
X432Y272D01*
X432Y274D01*
X430Y274D01*
X430Y276D01*
X428Y276D01*
X428Y280D01*
X426Y280D01*
X426Y284D01*
X406Y284D01*
G37*
D02*
G36*
X924Y518D02*
X924Y516D01*
X922Y516D01*
X922Y514D01*
X920Y514D01*
X920Y512D01*
X918Y512D01*
X918Y510D01*
X916Y510D01*
X916Y508D01*
X914Y508D01*
X914Y506D01*
X912Y506D01*
X912Y504D01*
X910Y504D01*
X910Y502D01*
X908Y502D01*
X908Y500D01*
X906Y500D01*
X906Y498D01*
X904Y498D01*
X904Y496D01*
X896Y496D01*
X896Y494D01*
X710Y494D01*
X710Y490D01*
X708Y490D01*
X708Y488D01*
X706Y488D01*
X706Y486D01*
X704Y486D01*
X704Y482D01*
X702Y482D01*
X702Y480D01*
X698Y480D01*
X698Y478D01*
X696Y478D01*
X696Y476D01*
X694Y476D01*
X694Y474D01*
X692Y474D01*
X692Y454D01*
X696Y454D01*
X696Y452D01*
X698Y452D01*
X698Y450D01*
X700Y450D01*
X700Y448D01*
X702Y448D01*
X702Y446D01*
X704Y446D01*
X704Y444D01*
X706Y444D01*
X706Y442D01*
X708Y442D01*
X708Y438D01*
X710Y438D01*
X710Y436D01*
X712Y436D01*
X712Y432D01*
X714Y432D01*
X714Y426D01*
X716Y426D01*
X716Y416D01*
X718Y416D01*
X718Y412D01*
X716Y412D01*
X716Y402D01*
X714Y402D01*
X714Y398D01*
X712Y398D01*
X712Y394D01*
X710Y394D01*
X710Y390D01*
X708Y390D01*
X708Y388D01*
X706Y388D01*
X706Y386D01*
X704Y386D01*
X704Y382D01*
X702Y382D01*
X702Y380D01*
X698Y380D01*
X698Y378D01*
X696Y378D01*
X696Y376D01*
X694Y376D01*
X694Y374D01*
X692Y374D01*
X692Y354D01*
X696Y354D01*
X696Y352D01*
X698Y352D01*
X698Y350D01*
X700Y350D01*
X700Y348D01*
X702Y348D01*
X702Y346D01*
X704Y346D01*
X704Y344D01*
X706Y344D01*
X706Y342D01*
X708Y342D01*
X708Y338D01*
X710Y338D01*
X710Y336D01*
X712Y336D01*
X712Y332D01*
X714Y332D01*
X714Y326D01*
X716Y326D01*
X716Y316D01*
X718Y316D01*
X718Y312D01*
X716Y312D01*
X716Y302D01*
X714Y302D01*
X714Y298D01*
X712Y298D01*
X712Y294D01*
X710Y294D01*
X710Y290D01*
X708Y290D01*
X708Y288D01*
X706Y288D01*
X706Y286D01*
X704Y286D01*
X704Y282D01*
X702Y282D01*
X702Y280D01*
X698Y280D01*
X698Y278D01*
X696Y278D01*
X696Y276D01*
X694Y276D01*
X694Y274D01*
X690Y274D01*
X690Y272D01*
X686Y272D01*
X686Y270D01*
X682Y270D01*
X682Y268D01*
X672Y268D01*
X672Y266D01*
X944Y266D01*
X944Y518D01*
X924Y518D01*
G37*
D02*
G36*
X612Y286D02*
X612Y284D01*
X610Y284D01*
X610Y282D01*
X608Y282D01*
X608Y280D01*
X606Y280D01*
X606Y278D01*
X604Y278D01*
X604Y276D01*
X602Y276D01*
X602Y274D01*
X600Y274D01*
X600Y272D01*
X598Y272D01*
X598Y270D01*
X596Y270D01*
X596Y268D01*
X594Y268D01*
X594Y266D01*
X668Y266D01*
X668Y268D01*
X658Y268D01*
X658Y270D01*
X652Y270D01*
X652Y272D01*
X648Y272D01*
X648Y274D01*
X646Y274D01*
X646Y276D01*
X642Y276D01*
X642Y278D01*
X640Y278D01*
X640Y280D01*
X638Y280D01*
X638Y282D01*
X636Y282D01*
X636Y284D01*
X634Y284D01*
X634Y286D01*
X612Y286D01*
G37*
D02*
G36*
X592Y266D02*
X592Y264D01*
X944Y264D01*
X944Y266D01*
X592Y266D01*
G37*
D02*
G36*
X592Y266D02*
X592Y264D01*
X944Y264D01*
X944Y266D01*
X592Y266D01*
G37*
D02*
G36*
X590Y264D02*
X590Y262D01*
X588Y262D01*
X588Y260D01*
X586Y260D01*
X586Y258D01*
X584Y258D01*
X584Y256D01*
X582Y256D01*
X582Y254D01*
X580Y254D01*
X580Y252D01*
X578Y252D01*
X578Y250D01*
X572Y250D01*
X572Y248D01*
X944Y248D01*
X944Y264D01*
X590Y264D01*
G37*
D02*
G36*
X490Y252D02*
X490Y248D01*
X516Y248D01*
X516Y250D01*
X512Y250D01*
X512Y252D01*
X490Y252D01*
G37*
D02*
G36*
X490Y248D02*
X490Y246D01*
X944Y246D01*
X944Y248D01*
X490Y248D01*
G37*
D02*
G36*
X490Y248D02*
X490Y246D01*
X944Y246D01*
X944Y248D01*
X490Y248D01*
G37*
D02*
G36*
X490Y246D02*
X490Y226D01*
X494Y226D01*
X494Y224D01*
X498Y224D01*
X498Y222D01*
X502Y222D01*
X502Y220D01*
X506Y220D01*
X506Y218D01*
X510Y218D01*
X510Y216D01*
X514Y216D01*
X514Y214D01*
X518Y214D01*
X518Y212D01*
X522Y212D01*
X522Y210D01*
X774Y210D01*
X774Y208D01*
X780Y208D01*
X780Y206D01*
X782Y206D01*
X782Y204D01*
X784Y204D01*
X784Y202D01*
X786Y202D01*
X786Y200D01*
X788Y200D01*
X788Y198D01*
X790Y198D01*
X790Y196D01*
X792Y196D01*
X792Y194D01*
X794Y194D01*
X794Y192D01*
X796Y192D01*
X796Y190D01*
X798Y190D01*
X798Y188D01*
X800Y188D01*
X800Y186D01*
X820Y186D01*
X820Y184D01*
X830Y184D01*
X830Y182D01*
X836Y182D01*
X836Y180D01*
X840Y180D01*
X840Y178D01*
X844Y178D01*
X844Y176D01*
X846Y176D01*
X846Y174D01*
X848Y174D01*
X848Y172D01*
X850Y172D01*
X850Y170D01*
X852Y170D01*
X852Y168D01*
X854Y168D01*
X854Y166D01*
X856Y166D01*
X856Y164D01*
X858Y164D01*
X858Y160D01*
X860Y160D01*
X860Y156D01*
X862Y156D01*
X862Y150D01*
X864Y150D01*
X864Y128D01*
X862Y128D01*
X862Y124D01*
X860Y124D01*
X860Y120D01*
X858Y120D01*
X858Y116D01*
X856Y116D01*
X856Y114D01*
X854Y114D01*
X854Y112D01*
X852Y112D01*
X852Y108D01*
X850Y108D01*
X850Y106D01*
X846Y106D01*
X846Y104D01*
X844Y104D01*
X844Y102D01*
X842Y102D01*
X842Y100D01*
X838Y100D01*
X838Y98D01*
X834Y98D01*
X834Y96D01*
X828Y96D01*
X828Y94D01*
X796Y94D01*
X796Y92D01*
X794Y92D01*
X794Y90D01*
X792Y90D01*
X792Y88D01*
X790Y88D01*
X790Y86D01*
X788Y86D01*
X788Y84D01*
X786Y84D01*
X786Y82D01*
X784Y82D01*
X784Y80D01*
X782Y80D01*
X782Y78D01*
X780Y78D01*
X780Y76D01*
X778Y76D01*
X778Y74D01*
X776Y74D01*
X776Y72D01*
X774Y72D01*
X774Y70D01*
X772Y70D01*
X772Y68D01*
X770Y68D01*
X770Y66D01*
X768Y66D01*
X768Y64D01*
X766Y64D01*
X766Y62D01*
X764Y62D01*
X764Y60D01*
X762Y60D01*
X762Y40D01*
X944Y40D01*
X944Y246D01*
X490Y246D01*
G37*
D02*
G36*
X40Y248D02*
X40Y40D01*
X104Y40D01*
X104Y102D01*
X128Y102D01*
X128Y194D01*
X130Y194D01*
X130Y198D01*
X132Y198D01*
X132Y200D01*
X134Y200D01*
X134Y202D01*
X136Y202D01*
X136Y204D01*
X138Y204D01*
X138Y206D01*
X140Y206D01*
X140Y208D01*
X142Y208D01*
X142Y210D01*
X144Y210D01*
X144Y212D01*
X146Y212D01*
X146Y214D01*
X148Y214D01*
X148Y216D01*
X150Y216D01*
X150Y218D01*
X152Y218D01*
X152Y236D01*
X144Y236D01*
X144Y238D01*
X136Y238D01*
X136Y240D01*
X132Y240D01*
X132Y242D01*
X128Y242D01*
X128Y244D01*
X126Y244D01*
X126Y246D01*
X124Y246D01*
X124Y248D01*
X40Y248D01*
G37*
D02*
G36*
X210Y242D02*
X210Y234D01*
X208Y234D01*
X208Y230D01*
X206Y230D01*
X206Y228D01*
X204Y228D01*
X204Y226D01*
X202Y226D01*
X202Y224D01*
X200Y224D01*
X200Y222D01*
X198Y222D01*
X198Y220D01*
X196Y220D01*
X196Y218D01*
X194Y218D01*
X194Y216D01*
X192Y216D01*
X192Y214D01*
X190Y214D01*
X190Y212D01*
X188Y212D01*
X188Y210D01*
X186Y210D01*
X186Y208D01*
X184Y208D01*
X184Y206D01*
X182Y206D01*
X182Y204D01*
X180Y204D01*
X180Y202D01*
X178Y202D01*
X178Y200D01*
X176Y200D01*
X176Y198D01*
X174Y198D01*
X174Y196D01*
X172Y196D01*
X172Y194D01*
X170Y194D01*
X170Y192D01*
X168Y192D01*
X168Y190D01*
X166Y190D01*
X166Y188D01*
X164Y188D01*
X164Y186D01*
X162Y186D01*
X162Y184D01*
X160Y184D01*
X160Y168D01*
X196Y168D01*
X196Y166D01*
X204Y166D01*
X204Y164D01*
X208Y164D01*
X208Y162D01*
X210Y162D01*
X210Y160D01*
X212Y160D01*
X212Y158D01*
X214Y158D01*
X214Y156D01*
X216Y156D01*
X216Y154D01*
X248Y154D01*
X248Y152D01*
X252Y152D01*
X252Y150D01*
X254Y150D01*
X254Y148D01*
X256Y148D01*
X256Y146D01*
X258Y146D01*
X258Y144D01*
X260Y144D01*
X260Y142D01*
X276Y142D01*
X276Y140D01*
X280Y140D01*
X280Y138D01*
X284Y138D01*
X284Y136D01*
X286Y136D01*
X286Y134D01*
X288Y134D01*
X288Y132D01*
X290Y132D01*
X290Y130D01*
X292Y130D01*
X292Y128D01*
X294Y128D01*
X294Y124D01*
X296Y124D01*
X296Y116D01*
X298Y116D01*
X298Y114D01*
X296Y114D01*
X296Y106D01*
X294Y106D01*
X294Y102D01*
X292Y102D01*
X292Y98D01*
X290Y98D01*
X290Y96D01*
X288Y96D01*
X288Y94D01*
X286Y94D01*
X286Y92D01*
X282Y92D01*
X282Y90D01*
X278Y90D01*
X278Y88D01*
X270Y88D01*
X270Y86D01*
X256Y86D01*
X256Y64D01*
X258Y64D01*
X258Y62D01*
X262Y62D01*
X262Y60D01*
X266Y60D01*
X266Y58D01*
X270Y58D01*
X270Y56D01*
X364Y56D01*
X364Y76D01*
X362Y76D01*
X362Y78D01*
X360Y78D01*
X360Y80D01*
X358Y80D01*
X358Y82D01*
X356Y82D01*
X356Y84D01*
X354Y84D01*
X354Y86D01*
X352Y86D01*
X352Y88D01*
X350Y88D01*
X350Y90D01*
X348Y90D01*
X348Y92D01*
X346Y92D01*
X346Y94D01*
X344Y94D01*
X344Y96D01*
X342Y96D01*
X342Y98D01*
X340Y98D01*
X340Y100D01*
X338Y100D01*
X338Y102D01*
X336Y102D01*
X336Y104D01*
X334Y104D01*
X334Y106D01*
X332Y106D01*
X332Y110D01*
X330Y110D01*
X330Y160D01*
X328Y160D01*
X328Y162D01*
X326Y162D01*
X326Y164D01*
X324Y164D01*
X324Y166D01*
X322Y166D01*
X322Y168D01*
X320Y168D01*
X320Y170D01*
X318Y170D01*
X318Y172D01*
X316Y172D01*
X316Y174D01*
X314Y174D01*
X314Y176D01*
X288Y176D01*
X288Y178D01*
X286Y178D01*
X286Y180D01*
X284Y180D01*
X284Y182D01*
X282Y182D01*
X282Y184D01*
X280Y184D01*
X280Y186D01*
X278Y186D01*
X278Y188D01*
X276Y188D01*
X276Y190D01*
X274Y190D01*
X274Y192D01*
X272Y192D01*
X272Y194D01*
X270Y194D01*
X270Y196D01*
X268Y196D01*
X268Y198D01*
X266Y198D01*
X266Y200D01*
X264Y200D01*
X264Y202D01*
X262Y202D01*
X262Y204D01*
X260Y204D01*
X260Y206D01*
X258Y206D01*
X258Y208D01*
X256Y208D01*
X256Y212D01*
X254Y212D01*
X254Y216D01*
X252Y216D01*
X252Y220D01*
X250Y220D01*
X250Y224D01*
X248Y224D01*
X248Y228D01*
X246Y228D01*
X246Y232D01*
X244Y232D01*
X244Y236D01*
X242Y236D01*
X242Y238D01*
X236Y238D01*
X236Y240D01*
X232Y240D01*
X232Y242D01*
X210Y242D01*
G37*
D02*
G36*
X160Y168D02*
X160Y162D01*
X182Y162D01*
X182Y164D01*
X184Y164D01*
X184Y166D01*
X192Y166D01*
X192Y168D01*
X160Y168D01*
G37*
D02*
G36*
X440Y198D02*
X440Y178D01*
X444Y178D01*
X444Y176D01*
X446Y176D01*
X446Y174D01*
X448Y174D01*
X448Y172D01*
X450Y172D01*
X450Y170D01*
X452Y170D01*
X452Y168D01*
X454Y168D01*
X454Y166D01*
X456Y166D01*
X456Y164D01*
X458Y164D01*
X458Y160D01*
X460Y160D01*
X460Y156D01*
X462Y156D01*
X462Y150D01*
X464Y150D01*
X464Y142D01*
X502Y142D01*
X502Y140D01*
X506Y140D01*
X506Y138D01*
X510Y138D01*
X510Y136D01*
X512Y136D01*
X512Y134D01*
X514Y134D01*
X514Y132D01*
X516Y132D01*
X516Y128D01*
X518Y128D01*
X518Y126D01*
X520Y126D01*
X520Y120D01*
X522Y120D01*
X522Y108D01*
X520Y108D01*
X520Y104D01*
X518Y104D01*
X518Y100D01*
X516Y100D01*
X516Y98D01*
X514Y98D01*
X514Y96D01*
X512Y96D01*
X512Y94D01*
X510Y94D01*
X510Y92D01*
X508Y92D01*
X508Y90D01*
X504Y90D01*
X504Y88D01*
X496Y88D01*
X496Y86D01*
X484Y86D01*
X484Y84D01*
X482Y84D01*
X482Y82D01*
X480Y82D01*
X480Y80D01*
X478Y80D01*
X478Y78D01*
X476Y78D01*
X476Y76D01*
X474Y76D01*
X474Y56D01*
X714Y56D01*
X714Y58D01*
X716Y58D01*
X716Y60D01*
X718Y60D01*
X718Y62D01*
X720Y62D01*
X720Y64D01*
X722Y64D01*
X722Y66D01*
X724Y66D01*
X724Y68D01*
X726Y68D01*
X726Y70D01*
X728Y70D01*
X728Y72D01*
X730Y72D01*
X730Y74D01*
X732Y74D01*
X732Y76D01*
X734Y76D01*
X734Y78D01*
X736Y78D01*
X736Y80D01*
X738Y80D01*
X738Y82D01*
X740Y82D01*
X740Y84D01*
X742Y84D01*
X742Y86D01*
X744Y86D01*
X744Y88D01*
X746Y88D01*
X746Y90D01*
X748Y90D01*
X748Y92D01*
X750Y92D01*
X750Y94D01*
X752Y94D01*
X752Y96D01*
X754Y96D01*
X754Y98D01*
X756Y98D01*
X756Y100D01*
X758Y100D01*
X758Y102D01*
X760Y102D01*
X760Y104D01*
X762Y104D01*
X762Y106D01*
X764Y106D01*
X764Y108D01*
X766Y108D01*
X766Y110D01*
X768Y110D01*
X768Y112D01*
X770Y112D01*
X770Y114D01*
X772Y114D01*
X772Y116D01*
X774Y116D01*
X774Y158D01*
X772Y158D01*
X772Y160D01*
X770Y160D01*
X770Y162D01*
X768Y162D01*
X768Y164D01*
X766Y164D01*
X766Y166D01*
X764Y166D01*
X764Y168D01*
X762Y168D01*
X762Y170D01*
X512Y170D01*
X512Y172D01*
X508Y172D01*
X508Y174D01*
X504Y174D01*
X504Y176D01*
X500Y176D01*
X500Y178D01*
X496Y178D01*
X496Y180D01*
X492Y180D01*
X492Y182D01*
X488Y182D01*
X488Y184D01*
X484Y184D01*
X484Y186D01*
X480Y186D01*
X480Y188D01*
X476Y188D01*
X476Y190D01*
X472Y190D01*
X472Y192D01*
X468Y192D01*
X468Y194D01*
X464Y194D01*
X464Y196D01*
X462Y196D01*
X462Y198D01*
X440Y198D01*
G37*
D02*
G36*
X464Y142D02*
X464Y138D01*
X484Y138D01*
X484Y140D01*
X488Y140D01*
X488Y142D01*
X464Y142D01*
G37*
D02*
G04 End of Copper1*
M02*