G04 MADE WITH FRITZING*
G04 WWW.FRITZING.ORG*
G04 DOUBLE SIDED*
G04 HOLES PLATED*
G04 CONTOUR ON CENTER OF CONTOUR VECTOR*
%ASAXBY*%
%FSLAX23Y23*%
%MOIN*%
%OFA0B0*%
%SFA1.0B1.0*%
%ADD10C,0.075000*%
%ADD11C,0.039370*%
%ADD12C,0.079370*%
%ADD13C,0.078000*%
%ADD14R,0.079370X0.079370*%
%ADD15C,0.012000*%
%ADD16C,0.010000*%
%LNCOPPER0*%
G90*
G70*
G54D10*
X685Y949D03*
X817Y723D03*
G54D11*
X580Y301D03*
X767Y664D03*
G54D10*
X592Y814D03*
X992Y814D03*
G54D12*
X417Y714D03*
X717Y714D03*
X417Y614D03*
X717Y614D03*
X417Y514D03*
X717Y514D03*
X417Y414D03*
X717Y414D03*
G54D10*
X992Y914D03*
X592Y914D03*
G54D11*
X767Y314D03*
G54D13*
X892Y151D03*
X792Y151D03*
G54D11*
X542Y189D03*
X355Y326D03*
G54D14*
X417Y714D03*
G54D15*
X604Y327D02*
X730Y327D01*
D02*
X730Y327D02*
X792Y388D01*
D02*
X792Y388D02*
X792Y501D01*
D02*
X792Y501D02*
X779Y514D01*
D02*
X779Y514D02*
X742Y514D01*
D02*
X589Y311D02*
X604Y327D01*
D02*
X467Y513D02*
X567Y513D01*
D02*
X567Y513D02*
X592Y539D01*
D02*
X442Y513D02*
X467Y513D01*
D02*
X592Y539D02*
X592Y791D01*
G54D16*
D02*
X517Y839D02*
X542Y863D01*
D02*
X542Y863D02*
X941Y863D01*
D02*
X517Y639D02*
X517Y839D01*
D02*
X941Y863D02*
X976Y897D01*
D02*
X442Y613D02*
X492Y613D01*
G54D15*
D02*
X617Y413D02*
X442Y414D01*
D02*
X692Y813D02*
X642Y764D01*
D02*
X642Y764D02*
X643Y439D01*
D02*
X643Y439D02*
X617Y413D01*
D02*
X969Y814D02*
X692Y813D01*
D02*
X428Y736D02*
X442Y764D01*
D02*
X442Y764D02*
X442Y889D01*
D02*
X468Y913D02*
X569Y913D01*
D02*
X442Y889D02*
X468Y913D01*
G54D16*
D02*
X492Y613D02*
X517Y639D01*
G54D15*
D02*
X805Y614D02*
X830Y589D01*
D02*
X830Y376D02*
X777Y323D01*
D02*
X830Y589D02*
X830Y376D01*
D02*
X742Y614D02*
X805Y614D01*
D02*
X892Y189D02*
X892Y176D01*
D02*
X792Y213D02*
X868Y213D01*
D02*
X768Y239D02*
X792Y213D01*
D02*
X868Y213D02*
X892Y189D01*
D02*
X767Y300D02*
X768Y239D01*
D02*
X692Y389D02*
X699Y396D01*
D02*
X568Y389D02*
X692Y389D01*
D02*
X542Y364D02*
X568Y389D01*
D02*
X542Y202D02*
X542Y364D01*
G36*
X252Y1006D02*
X252Y1004D01*
X242Y1004D01*
X242Y1002D01*
X234Y1002D01*
X234Y1000D01*
X228Y1000D01*
X228Y998D01*
X222Y998D01*
X222Y996D01*
X218Y996D01*
X218Y994D01*
X214Y994D01*
X214Y992D01*
X208Y992D01*
X208Y990D01*
X206Y990D01*
X206Y988D01*
X202Y988D01*
X202Y986D01*
X198Y986D01*
X198Y984D01*
X196Y984D01*
X196Y982D01*
X192Y982D01*
X192Y980D01*
X190Y980D01*
X190Y978D01*
X188Y978D01*
X188Y976D01*
X184Y976D01*
X184Y974D01*
X182Y974D01*
X182Y972D01*
X180Y972D01*
X180Y970D01*
X178Y970D01*
X178Y968D01*
X176Y968D01*
X176Y966D01*
X174Y966D01*
X174Y964D01*
X172Y964D01*
X172Y962D01*
X170Y962D01*
X170Y960D01*
X168Y960D01*
X168Y958D01*
X596Y958D01*
X596Y956D01*
X606Y956D01*
X606Y954D01*
X610Y954D01*
X610Y952D01*
X614Y952D01*
X614Y950D01*
X618Y950D01*
X618Y948D01*
X620Y948D01*
X620Y946D01*
X622Y946D01*
X622Y944D01*
X624Y944D01*
X624Y942D01*
X626Y942D01*
X626Y940D01*
X628Y940D01*
X628Y936D01*
X630Y936D01*
X630Y934D01*
X632Y934D01*
X632Y928D01*
X634Y928D01*
X634Y920D01*
X636Y920D01*
X636Y906D01*
X634Y906D01*
X634Y900D01*
X632Y900D01*
X632Y894D01*
X630Y894D01*
X630Y874D01*
X938Y874D01*
X938Y876D01*
X940Y876D01*
X940Y878D01*
X942Y878D01*
X942Y880D01*
X944Y880D01*
X944Y882D01*
X946Y882D01*
X946Y884D01*
X948Y884D01*
X948Y886D01*
X950Y886D01*
X950Y908D01*
X948Y908D01*
X948Y918D01*
X950Y918D01*
X950Y928D01*
X952Y928D01*
X952Y932D01*
X954Y932D01*
X954Y936D01*
X956Y936D01*
X956Y940D01*
X958Y940D01*
X958Y942D01*
X960Y942D01*
X960Y944D01*
X962Y944D01*
X962Y946D01*
X964Y946D01*
X964Y948D01*
X966Y948D01*
X966Y968D01*
X964Y968D01*
X964Y970D01*
X962Y970D01*
X962Y972D01*
X958Y972D01*
X958Y974D01*
X956Y974D01*
X956Y976D01*
X954Y976D01*
X954Y978D01*
X952Y978D01*
X952Y980D01*
X948Y980D01*
X948Y982D01*
X946Y982D01*
X946Y984D01*
X942Y984D01*
X942Y986D01*
X940Y986D01*
X940Y988D01*
X936Y988D01*
X936Y990D01*
X932Y990D01*
X932Y992D01*
X928Y992D01*
X928Y994D01*
X924Y994D01*
X924Y996D01*
X920Y996D01*
X920Y998D01*
X914Y998D01*
X914Y1000D01*
X908Y1000D01*
X908Y1002D01*
X900Y1002D01*
X900Y1004D01*
X890Y1004D01*
X890Y1006D01*
X252Y1006D01*
G37*
D02*
G36*
X166Y958D02*
X166Y954D01*
X164Y954D01*
X164Y952D01*
X162Y952D01*
X162Y950D01*
X160Y950D01*
X160Y946D01*
X158Y946D01*
X158Y944D01*
X156Y944D01*
X156Y940D01*
X154Y940D01*
X154Y936D01*
X152Y936D01*
X152Y934D01*
X150Y934D01*
X150Y928D01*
X148Y928D01*
X148Y924D01*
X146Y924D01*
X146Y920D01*
X144Y920D01*
X144Y914D01*
X142Y914D01*
X142Y908D01*
X140Y908D01*
X140Y900D01*
X138Y900D01*
X138Y890D01*
X136Y890D01*
X136Y368D01*
X408Y368D01*
X408Y370D01*
X402Y370D01*
X402Y372D01*
X398Y372D01*
X398Y374D01*
X394Y374D01*
X394Y376D01*
X390Y376D01*
X390Y378D01*
X388Y378D01*
X388Y380D01*
X386Y380D01*
X386Y382D01*
X384Y382D01*
X384Y384D01*
X382Y384D01*
X382Y386D01*
X380Y386D01*
X380Y388D01*
X378Y388D01*
X378Y392D01*
X376Y392D01*
X376Y396D01*
X374Y396D01*
X374Y402D01*
X372Y402D01*
X372Y424D01*
X374Y424D01*
X374Y432D01*
X376Y432D01*
X376Y436D01*
X378Y436D01*
X378Y438D01*
X380Y438D01*
X380Y442D01*
X382Y442D01*
X382Y444D01*
X384Y444D01*
X384Y446D01*
X386Y446D01*
X386Y448D01*
X388Y448D01*
X388Y450D01*
X390Y450D01*
X390Y452D01*
X394Y452D01*
X394Y454D01*
X398Y454D01*
X398Y474D01*
X394Y474D01*
X394Y476D01*
X390Y476D01*
X390Y478D01*
X388Y478D01*
X388Y480D01*
X386Y480D01*
X386Y482D01*
X384Y482D01*
X384Y484D01*
X382Y484D01*
X382Y486D01*
X380Y486D01*
X380Y488D01*
X378Y488D01*
X378Y492D01*
X376Y492D01*
X376Y496D01*
X374Y496D01*
X374Y502D01*
X372Y502D01*
X372Y524D01*
X374Y524D01*
X374Y532D01*
X376Y532D01*
X376Y536D01*
X378Y536D01*
X378Y538D01*
X380Y538D01*
X380Y542D01*
X382Y542D01*
X382Y544D01*
X384Y544D01*
X384Y546D01*
X386Y546D01*
X386Y548D01*
X388Y548D01*
X388Y550D01*
X390Y550D01*
X390Y552D01*
X394Y552D01*
X394Y554D01*
X398Y554D01*
X398Y574D01*
X394Y574D01*
X394Y576D01*
X390Y576D01*
X390Y578D01*
X388Y578D01*
X388Y580D01*
X386Y580D01*
X386Y582D01*
X384Y582D01*
X384Y584D01*
X382Y584D01*
X382Y586D01*
X380Y586D01*
X380Y588D01*
X378Y588D01*
X378Y592D01*
X376Y592D01*
X376Y596D01*
X374Y596D01*
X374Y602D01*
X372Y602D01*
X372Y624D01*
X374Y624D01*
X374Y632D01*
X376Y632D01*
X376Y636D01*
X378Y636D01*
X378Y638D01*
X380Y638D01*
X380Y642D01*
X382Y642D01*
X382Y644D01*
X384Y644D01*
X384Y646D01*
X386Y646D01*
X386Y648D01*
X388Y648D01*
X388Y668D01*
X372Y668D01*
X372Y760D01*
X428Y760D01*
X428Y764D01*
X430Y764D01*
X430Y894D01*
X432Y894D01*
X432Y896D01*
X434Y896D01*
X434Y898D01*
X436Y898D01*
X436Y900D01*
X438Y900D01*
X438Y902D01*
X440Y902D01*
X440Y904D01*
X442Y904D01*
X442Y906D01*
X444Y906D01*
X444Y908D01*
X446Y908D01*
X446Y910D01*
X448Y910D01*
X448Y912D01*
X450Y912D01*
X450Y914D01*
X452Y914D01*
X452Y916D01*
X454Y916D01*
X454Y918D01*
X456Y918D01*
X456Y920D01*
X458Y920D01*
X458Y922D01*
X462Y922D01*
X462Y924D01*
X466Y924D01*
X466Y926D01*
X550Y926D01*
X550Y928D01*
X552Y928D01*
X552Y932D01*
X554Y932D01*
X554Y936D01*
X556Y936D01*
X556Y940D01*
X558Y940D01*
X558Y942D01*
X560Y942D01*
X560Y944D01*
X562Y944D01*
X562Y946D01*
X564Y946D01*
X564Y948D01*
X566Y948D01*
X566Y950D01*
X570Y950D01*
X570Y952D01*
X574Y952D01*
X574Y954D01*
X578Y954D01*
X578Y956D01*
X588Y956D01*
X588Y958D01*
X166Y958D01*
G37*
D02*
G36*
X760Y602D02*
X760Y596D01*
X758Y596D01*
X758Y592D01*
X756Y592D01*
X756Y588D01*
X754Y588D01*
X754Y586D01*
X752Y586D01*
X752Y584D01*
X750Y584D01*
X750Y582D01*
X748Y582D01*
X748Y580D01*
X746Y580D01*
X746Y578D01*
X744Y578D01*
X744Y576D01*
X740Y576D01*
X740Y574D01*
X738Y574D01*
X738Y554D01*
X740Y554D01*
X740Y552D01*
X744Y552D01*
X744Y550D01*
X746Y550D01*
X746Y548D01*
X748Y548D01*
X748Y546D01*
X750Y546D01*
X750Y544D01*
X752Y544D01*
X752Y542D01*
X754Y542D01*
X754Y540D01*
X756Y540D01*
X756Y536D01*
X758Y536D01*
X758Y532D01*
X760Y532D01*
X760Y526D01*
X762Y526D01*
X762Y502D01*
X760Y502D01*
X760Y496D01*
X758Y496D01*
X758Y492D01*
X756Y492D01*
X756Y488D01*
X754Y488D01*
X754Y486D01*
X752Y486D01*
X752Y484D01*
X750Y484D01*
X750Y482D01*
X748Y482D01*
X748Y480D01*
X746Y480D01*
X746Y478D01*
X744Y478D01*
X744Y476D01*
X740Y476D01*
X740Y474D01*
X738Y474D01*
X738Y454D01*
X740Y454D01*
X740Y452D01*
X744Y452D01*
X744Y450D01*
X746Y450D01*
X746Y448D01*
X748Y448D01*
X748Y446D01*
X750Y446D01*
X750Y444D01*
X752Y444D01*
X752Y442D01*
X754Y442D01*
X754Y440D01*
X756Y440D01*
X756Y436D01*
X758Y436D01*
X758Y432D01*
X760Y432D01*
X760Y426D01*
X762Y426D01*
X762Y402D01*
X760Y402D01*
X760Y396D01*
X758Y396D01*
X758Y392D01*
X756Y392D01*
X756Y388D01*
X754Y388D01*
X754Y386D01*
X752Y386D01*
X752Y384D01*
X750Y384D01*
X750Y382D01*
X748Y382D01*
X748Y380D01*
X746Y380D01*
X746Y378D01*
X744Y378D01*
X744Y376D01*
X740Y376D01*
X740Y374D01*
X738Y374D01*
X738Y372D01*
X732Y372D01*
X732Y370D01*
X726Y370D01*
X726Y368D01*
X806Y368D01*
X806Y370D01*
X808Y370D01*
X808Y372D01*
X810Y372D01*
X810Y374D01*
X812Y374D01*
X812Y376D01*
X814Y376D01*
X814Y378D01*
X816Y378D01*
X816Y380D01*
X818Y380D01*
X818Y586D01*
X816Y586D01*
X816Y588D01*
X814Y588D01*
X814Y590D01*
X812Y590D01*
X812Y592D01*
X810Y592D01*
X810Y594D01*
X808Y594D01*
X808Y596D01*
X806Y596D01*
X806Y598D01*
X804Y598D01*
X804Y600D01*
X802Y600D01*
X802Y602D01*
X760Y602D01*
G37*
D02*
G36*
X460Y402D02*
X460Y396D01*
X458Y396D01*
X458Y392D01*
X456Y392D01*
X456Y388D01*
X454Y388D01*
X454Y386D01*
X452Y386D01*
X452Y384D01*
X450Y384D01*
X450Y382D01*
X448Y382D01*
X448Y380D01*
X446Y380D01*
X446Y378D01*
X444Y378D01*
X444Y376D01*
X440Y376D01*
X440Y374D01*
X438Y374D01*
X438Y372D01*
X432Y372D01*
X432Y370D01*
X426Y370D01*
X426Y368D01*
X532Y368D01*
X532Y372D01*
X534Y372D01*
X534Y374D01*
X536Y374D01*
X536Y376D01*
X538Y376D01*
X538Y378D01*
X540Y378D01*
X540Y380D01*
X542Y380D01*
X542Y382D01*
X544Y382D01*
X544Y402D01*
X460Y402D01*
G37*
D02*
G36*
X570Y376D02*
X570Y374D01*
X568Y374D01*
X568Y372D01*
X566Y372D01*
X566Y370D01*
X564Y370D01*
X564Y368D01*
X708Y368D01*
X708Y370D01*
X702Y370D01*
X702Y372D01*
X698Y372D01*
X698Y374D01*
X694Y374D01*
X694Y376D01*
X570Y376D01*
G37*
D02*
G36*
X136Y368D02*
X136Y366D01*
X530Y366D01*
X530Y368D01*
X136Y368D01*
G37*
D02*
G36*
X136Y368D02*
X136Y366D01*
X530Y366D01*
X530Y368D01*
X136Y368D01*
G37*
D02*
G36*
X562Y368D02*
X562Y366D01*
X804Y366D01*
X804Y368D01*
X562Y368D01*
G37*
D02*
G36*
X562Y368D02*
X562Y366D01*
X804Y366D01*
X804Y368D01*
X562Y368D01*
G37*
D02*
G36*
X136Y366D02*
X136Y352D01*
X360Y352D01*
X360Y350D01*
X366Y350D01*
X366Y348D01*
X370Y348D01*
X370Y346D01*
X372Y346D01*
X372Y344D01*
X374Y344D01*
X374Y342D01*
X376Y342D01*
X376Y338D01*
X378Y338D01*
X378Y334D01*
X380Y334D01*
X380Y320D01*
X378Y320D01*
X378Y314D01*
X376Y314D01*
X376Y310D01*
X374Y310D01*
X374Y308D01*
X372Y308D01*
X372Y306D01*
X368Y306D01*
X368Y304D01*
X364Y304D01*
X364Y302D01*
X358Y302D01*
X358Y300D01*
X530Y300D01*
X530Y366D01*
X136Y366D01*
G37*
D02*
G36*
X560Y366D02*
X560Y364D01*
X558Y364D01*
X558Y362D01*
X556Y362D01*
X556Y360D01*
X554Y360D01*
X554Y326D01*
X588Y326D01*
X588Y324D01*
X592Y324D01*
X592Y322D01*
X596Y322D01*
X596Y320D01*
X598Y320D01*
X598Y318D01*
X600Y318D01*
X600Y316D01*
X602Y316D01*
X602Y312D01*
X604Y312D01*
X604Y304D01*
X606Y304D01*
X606Y298D01*
X604Y298D01*
X604Y292D01*
X602Y292D01*
X602Y288D01*
X600Y288D01*
X600Y284D01*
X598Y284D01*
X598Y282D01*
X596Y282D01*
X596Y280D01*
X592Y280D01*
X592Y278D01*
X586Y278D01*
X586Y276D01*
X554Y276D01*
X554Y210D01*
X558Y210D01*
X558Y208D01*
X560Y208D01*
X560Y206D01*
X562Y206D01*
X562Y204D01*
X564Y204D01*
X564Y200D01*
X566Y200D01*
X566Y194D01*
X568Y194D01*
X568Y184D01*
X566Y184D01*
X566Y178D01*
X564Y178D01*
X564Y174D01*
X562Y174D01*
X562Y172D01*
X560Y172D01*
X560Y170D01*
X558Y170D01*
X558Y168D01*
X556Y168D01*
X556Y166D01*
X550Y166D01*
X550Y164D01*
X750Y164D01*
X750Y170D01*
X752Y170D01*
X752Y174D01*
X754Y174D01*
X754Y176D01*
X756Y176D01*
X756Y180D01*
X758Y180D01*
X758Y182D01*
X760Y182D01*
X760Y184D01*
X762Y184D01*
X762Y186D01*
X766Y186D01*
X766Y188D01*
X768Y188D01*
X768Y190D01*
X772Y190D01*
X772Y192D01*
X776Y192D01*
X776Y214D01*
X774Y214D01*
X774Y216D01*
X772Y216D01*
X772Y218D01*
X770Y218D01*
X770Y220D01*
X768Y220D01*
X768Y222D01*
X766Y222D01*
X766Y224D01*
X764Y224D01*
X764Y226D01*
X762Y226D01*
X762Y228D01*
X760Y228D01*
X760Y230D01*
X758Y230D01*
X758Y234D01*
X756Y234D01*
X756Y292D01*
X752Y292D01*
X752Y294D01*
X750Y294D01*
X750Y296D01*
X748Y296D01*
X748Y298D01*
X746Y298D01*
X746Y302D01*
X744Y302D01*
X744Y306D01*
X742Y306D01*
X742Y322D01*
X744Y322D01*
X744Y326D01*
X746Y326D01*
X746Y330D01*
X748Y330D01*
X748Y332D01*
X750Y332D01*
X750Y334D01*
X752Y334D01*
X752Y336D01*
X756Y336D01*
X756Y338D01*
X762Y338D01*
X762Y340D01*
X778Y340D01*
X778Y342D01*
X780Y342D01*
X780Y344D01*
X782Y344D01*
X782Y346D01*
X784Y346D01*
X784Y348D01*
X786Y348D01*
X786Y350D01*
X788Y350D01*
X788Y352D01*
X790Y352D01*
X790Y354D01*
X792Y354D01*
X792Y356D01*
X794Y356D01*
X794Y358D01*
X796Y358D01*
X796Y360D01*
X798Y360D01*
X798Y362D01*
X800Y362D01*
X800Y364D01*
X802Y364D01*
X802Y366D01*
X560Y366D01*
G37*
D02*
G36*
X136Y352D02*
X136Y300D01*
X352Y300D01*
X352Y302D01*
X344Y302D01*
X344Y304D01*
X340Y304D01*
X340Y306D01*
X338Y306D01*
X338Y308D01*
X336Y308D01*
X336Y310D01*
X334Y310D01*
X334Y312D01*
X332Y312D01*
X332Y318D01*
X330Y318D01*
X330Y336D01*
X332Y336D01*
X332Y340D01*
X334Y340D01*
X334Y342D01*
X336Y342D01*
X336Y344D01*
X338Y344D01*
X338Y346D01*
X340Y346D01*
X340Y348D01*
X344Y348D01*
X344Y350D01*
X348Y350D01*
X348Y352D01*
X136Y352D01*
G37*
D02*
G36*
X136Y300D02*
X136Y298D01*
X530Y298D01*
X530Y300D01*
X136Y300D01*
G37*
D02*
G36*
X136Y300D02*
X136Y298D01*
X530Y298D01*
X530Y300D01*
X136Y300D01*
G37*
D02*
G36*
X136Y298D02*
X136Y252D01*
X138Y252D01*
X138Y242D01*
X140Y242D01*
X140Y234D01*
X142Y234D01*
X142Y228D01*
X144Y228D01*
X144Y222D01*
X146Y222D01*
X146Y218D01*
X148Y218D01*
X148Y214D01*
X150Y214D01*
X150Y210D01*
X152Y210D01*
X152Y206D01*
X154Y206D01*
X154Y202D01*
X156Y202D01*
X156Y200D01*
X158Y200D01*
X158Y196D01*
X160Y196D01*
X160Y194D01*
X162Y194D01*
X162Y190D01*
X164Y190D01*
X164Y188D01*
X166Y188D01*
X166Y186D01*
X168Y186D01*
X168Y184D01*
X170Y184D01*
X170Y180D01*
X172Y180D01*
X172Y178D01*
X174Y178D01*
X174Y176D01*
X176Y176D01*
X176Y174D01*
X178Y174D01*
X178Y172D01*
X180Y172D01*
X180Y170D01*
X184Y170D01*
X184Y168D01*
X186Y168D01*
X186Y166D01*
X188Y166D01*
X188Y164D01*
X534Y164D01*
X534Y166D01*
X530Y166D01*
X530Y168D01*
X526Y168D01*
X526Y170D01*
X524Y170D01*
X524Y172D01*
X522Y172D01*
X522Y174D01*
X520Y174D01*
X520Y178D01*
X518Y178D01*
X518Y184D01*
X516Y184D01*
X516Y194D01*
X518Y194D01*
X518Y200D01*
X520Y200D01*
X520Y204D01*
X522Y204D01*
X522Y206D01*
X524Y206D01*
X524Y208D01*
X526Y208D01*
X526Y210D01*
X530Y210D01*
X530Y298D01*
X136Y298D01*
G37*
D02*
G36*
X190Y164D02*
X190Y162D01*
X748Y162D01*
X748Y164D01*
X190Y164D01*
G37*
D02*
G36*
X190Y164D02*
X190Y162D01*
X748Y162D01*
X748Y164D01*
X190Y164D01*
G37*
D02*
G36*
X194Y162D02*
X194Y160D01*
X196Y160D01*
X196Y158D01*
X200Y158D01*
X200Y156D01*
X202Y156D01*
X202Y154D01*
X206Y154D01*
X206Y152D01*
X210Y152D01*
X210Y150D01*
X214Y150D01*
X214Y148D01*
X218Y148D01*
X218Y146D01*
X222Y146D01*
X222Y144D01*
X228Y144D01*
X228Y142D01*
X234Y142D01*
X234Y140D01*
X242Y140D01*
X242Y138D01*
X254Y138D01*
X254Y136D01*
X748Y136D01*
X748Y162D01*
X194Y162D01*
G37*
D02*
G36*
X472Y902D02*
X472Y900D01*
X470Y900D01*
X470Y898D01*
X468Y898D01*
X468Y896D01*
X466Y896D01*
X466Y894D01*
X464Y894D01*
X464Y892D01*
X462Y892D01*
X462Y890D01*
X460Y890D01*
X460Y888D01*
X458Y888D01*
X458Y886D01*
X456Y886D01*
X456Y884D01*
X454Y884D01*
X454Y760D01*
X462Y760D01*
X462Y668D01*
X446Y668D01*
X446Y648D01*
X448Y648D01*
X448Y646D01*
X450Y646D01*
X450Y644D01*
X452Y644D01*
X452Y642D01*
X454Y642D01*
X454Y640D01*
X456Y640D01*
X456Y636D01*
X458Y636D01*
X458Y632D01*
X460Y632D01*
X460Y626D01*
X462Y626D01*
X462Y624D01*
X488Y624D01*
X488Y626D01*
X490Y626D01*
X490Y628D01*
X492Y628D01*
X492Y630D01*
X494Y630D01*
X494Y632D01*
X496Y632D01*
X496Y634D01*
X498Y634D01*
X498Y636D01*
X500Y636D01*
X500Y638D01*
X502Y638D01*
X502Y640D01*
X504Y640D01*
X504Y642D01*
X506Y642D01*
X506Y842D01*
X508Y842D01*
X508Y846D01*
X510Y846D01*
X510Y848D01*
X512Y848D01*
X512Y850D01*
X514Y850D01*
X514Y852D01*
X516Y852D01*
X516Y854D01*
X518Y854D01*
X518Y856D01*
X520Y856D01*
X520Y858D01*
X522Y858D01*
X522Y860D01*
X524Y860D01*
X524Y862D01*
X526Y862D01*
X526Y864D01*
X528Y864D01*
X528Y866D01*
X530Y866D01*
X530Y868D01*
X532Y868D01*
X532Y870D01*
X534Y870D01*
X534Y872D01*
X538Y872D01*
X538Y874D01*
X554Y874D01*
X554Y896D01*
X552Y896D01*
X552Y900D01*
X550Y900D01*
X550Y902D01*
X472Y902D01*
G37*
D02*
G36*
X958Y866D02*
X958Y864D01*
X956Y864D01*
X956Y862D01*
X954Y862D01*
X954Y860D01*
X952Y860D01*
X952Y858D01*
X950Y858D01*
X950Y856D01*
X948Y856D01*
X948Y854D01*
X946Y854D01*
X946Y852D01*
X632Y852D01*
X632Y828D01*
X634Y828D01*
X634Y820D01*
X636Y820D01*
X636Y806D01*
X634Y806D01*
X634Y800D01*
X632Y800D01*
X632Y794D01*
X630Y794D01*
X630Y792D01*
X628Y792D01*
X628Y788D01*
X626Y788D01*
X626Y786D01*
X624Y786D01*
X624Y784D01*
X622Y784D01*
X622Y782D01*
X620Y782D01*
X620Y780D01*
X618Y780D01*
X618Y778D01*
X614Y778D01*
X614Y776D01*
X612Y776D01*
X612Y774D01*
X606Y774D01*
X606Y772D01*
X604Y772D01*
X604Y534D01*
X602Y534D01*
X602Y530D01*
X600Y530D01*
X600Y528D01*
X598Y528D01*
X598Y526D01*
X596Y526D01*
X596Y524D01*
X594Y524D01*
X594Y522D01*
X592Y522D01*
X592Y520D01*
X590Y520D01*
X590Y518D01*
X588Y518D01*
X588Y516D01*
X586Y516D01*
X586Y514D01*
X584Y514D01*
X584Y512D01*
X582Y512D01*
X582Y510D01*
X580Y510D01*
X580Y508D01*
X578Y508D01*
X578Y506D01*
X576Y506D01*
X576Y504D01*
X572Y504D01*
X572Y502D01*
X460Y502D01*
X460Y496D01*
X458Y496D01*
X458Y492D01*
X456Y492D01*
X456Y488D01*
X454Y488D01*
X454Y486D01*
X452Y486D01*
X452Y484D01*
X450Y484D01*
X450Y482D01*
X448Y482D01*
X448Y480D01*
X446Y480D01*
X446Y478D01*
X444Y478D01*
X444Y476D01*
X440Y476D01*
X440Y474D01*
X438Y474D01*
X438Y454D01*
X440Y454D01*
X440Y452D01*
X444Y452D01*
X444Y450D01*
X446Y450D01*
X446Y448D01*
X448Y448D01*
X448Y446D01*
X450Y446D01*
X450Y444D01*
X452Y444D01*
X452Y442D01*
X454Y442D01*
X454Y440D01*
X456Y440D01*
X456Y436D01*
X458Y436D01*
X458Y432D01*
X460Y432D01*
X460Y426D01*
X614Y426D01*
X614Y428D01*
X616Y428D01*
X616Y430D01*
X618Y430D01*
X618Y432D01*
X620Y432D01*
X620Y434D01*
X622Y434D01*
X622Y436D01*
X624Y436D01*
X624Y438D01*
X626Y438D01*
X626Y440D01*
X628Y440D01*
X628Y442D01*
X630Y442D01*
X630Y770D01*
X632Y770D01*
X632Y772D01*
X634Y772D01*
X634Y774D01*
X636Y774D01*
X636Y776D01*
X638Y776D01*
X638Y778D01*
X640Y778D01*
X640Y780D01*
X642Y780D01*
X642Y782D01*
X644Y782D01*
X644Y784D01*
X646Y784D01*
X646Y786D01*
X648Y786D01*
X648Y788D01*
X650Y788D01*
X650Y790D01*
X652Y790D01*
X652Y792D01*
X654Y792D01*
X654Y794D01*
X656Y794D01*
X656Y796D01*
X658Y796D01*
X658Y798D01*
X660Y798D01*
X660Y800D01*
X662Y800D01*
X662Y802D01*
X664Y802D01*
X664Y804D01*
X666Y804D01*
X666Y806D01*
X668Y806D01*
X668Y808D01*
X670Y808D01*
X670Y810D01*
X672Y810D01*
X672Y812D01*
X674Y812D01*
X674Y814D01*
X676Y814D01*
X676Y816D01*
X678Y816D01*
X678Y818D01*
X680Y818D01*
X680Y820D01*
X682Y820D01*
X682Y822D01*
X686Y822D01*
X686Y824D01*
X688Y824D01*
X688Y826D01*
X950Y826D01*
X950Y828D01*
X952Y828D01*
X952Y832D01*
X954Y832D01*
X954Y836D01*
X956Y836D01*
X956Y840D01*
X958Y840D01*
X958Y842D01*
X960Y842D01*
X960Y844D01*
X962Y844D01*
X962Y846D01*
X964Y846D01*
X964Y848D01*
X966Y848D01*
X966Y850D01*
X970Y850D01*
X970Y852D01*
X974Y852D01*
X974Y854D01*
X978Y854D01*
X978Y866D01*
X958Y866D01*
G37*
D02*
G36*
X534Y840D02*
X534Y838D01*
X532Y838D01*
X532Y836D01*
X530Y836D01*
X530Y834D01*
X528Y834D01*
X528Y634D01*
X526Y634D01*
X526Y630D01*
X524Y630D01*
X524Y628D01*
X522Y628D01*
X522Y626D01*
X520Y626D01*
X520Y624D01*
X518Y624D01*
X518Y622D01*
X516Y622D01*
X516Y620D01*
X514Y620D01*
X514Y618D01*
X512Y618D01*
X512Y616D01*
X510Y616D01*
X510Y614D01*
X508Y614D01*
X508Y612D01*
X506Y612D01*
X506Y610D01*
X504Y610D01*
X504Y608D01*
X502Y608D01*
X502Y606D01*
X498Y606D01*
X498Y604D01*
X494Y604D01*
X494Y602D01*
X460Y602D01*
X460Y596D01*
X458Y596D01*
X458Y592D01*
X456Y592D01*
X456Y588D01*
X454Y588D01*
X454Y586D01*
X452Y586D01*
X452Y584D01*
X450Y584D01*
X450Y582D01*
X448Y582D01*
X448Y580D01*
X446Y580D01*
X446Y578D01*
X444Y578D01*
X444Y576D01*
X440Y576D01*
X440Y574D01*
X438Y574D01*
X438Y554D01*
X440Y554D01*
X440Y552D01*
X444Y552D01*
X444Y550D01*
X446Y550D01*
X446Y548D01*
X448Y548D01*
X448Y546D01*
X450Y546D01*
X450Y544D01*
X452Y544D01*
X452Y542D01*
X454Y542D01*
X454Y540D01*
X456Y540D01*
X456Y536D01*
X458Y536D01*
X458Y532D01*
X460Y532D01*
X460Y526D01*
X564Y526D01*
X564Y528D01*
X566Y528D01*
X566Y530D01*
X568Y530D01*
X568Y532D01*
X570Y532D01*
X570Y534D01*
X572Y534D01*
X572Y536D01*
X574Y536D01*
X574Y538D01*
X576Y538D01*
X576Y540D01*
X578Y540D01*
X578Y542D01*
X580Y542D01*
X580Y772D01*
X578Y772D01*
X578Y774D01*
X572Y774D01*
X572Y776D01*
X570Y776D01*
X570Y778D01*
X566Y778D01*
X566Y780D01*
X564Y780D01*
X564Y782D01*
X562Y782D01*
X562Y784D01*
X560Y784D01*
X560Y786D01*
X558Y786D01*
X558Y788D01*
X556Y788D01*
X556Y792D01*
X554Y792D01*
X554Y796D01*
X552Y796D01*
X552Y800D01*
X550Y800D01*
X550Y808D01*
X548Y808D01*
X548Y818D01*
X550Y818D01*
X550Y828D01*
X552Y828D01*
X552Y832D01*
X554Y832D01*
X554Y840D01*
X534Y840D01*
G37*
D02*
G36*
X696Y802D02*
X696Y800D01*
X694Y800D01*
X694Y798D01*
X692Y798D01*
X692Y796D01*
X690Y796D01*
X690Y794D01*
X688Y794D01*
X688Y792D01*
X686Y792D01*
X686Y790D01*
X684Y790D01*
X684Y788D01*
X682Y788D01*
X682Y786D01*
X680Y786D01*
X680Y784D01*
X678Y784D01*
X678Y782D01*
X676Y782D01*
X676Y780D01*
X674Y780D01*
X674Y778D01*
X672Y778D01*
X672Y776D01*
X670Y776D01*
X670Y774D01*
X668Y774D01*
X668Y772D01*
X666Y772D01*
X666Y770D01*
X664Y770D01*
X664Y768D01*
X662Y768D01*
X662Y766D01*
X660Y766D01*
X660Y764D01*
X658Y764D01*
X658Y762D01*
X656Y762D01*
X656Y760D01*
X724Y760D01*
X724Y758D01*
X732Y758D01*
X732Y756D01*
X736Y756D01*
X736Y754D01*
X740Y754D01*
X740Y752D01*
X744Y752D01*
X744Y750D01*
X746Y750D01*
X746Y748D01*
X748Y748D01*
X748Y746D01*
X750Y746D01*
X750Y744D01*
X752Y744D01*
X752Y742D01*
X754Y742D01*
X754Y740D01*
X756Y740D01*
X756Y736D01*
X758Y736D01*
X758Y732D01*
X760Y732D01*
X760Y726D01*
X762Y726D01*
X762Y690D01*
X772Y690D01*
X772Y688D01*
X778Y688D01*
X778Y686D01*
X782Y686D01*
X782Y684D01*
X784Y684D01*
X784Y682D01*
X786Y682D01*
X786Y680D01*
X788Y680D01*
X788Y676D01*
X790Y676D01*
X790Y672D01*
X792Y672D01*
X792Y656D01*
X790Y656D01*
X790Y650D01*
X788Y650D01*
X788Y648D01*
X786Y648D01*
X786Y646D01*
X784Y646D01*
X784Y626D01*
X810Y626D01*
X810Y624D01*
X814Y624D01*
X814Y622D01*
X816Y622D01*
X816Y620D01*
X818Y620D01*
X818Y618D01*
X820Y618D01*
X820Y616D01*
X822Y616D01*
X822Y614D01*
X824Y614D01*
X824Y612D01*
X826Y612D01*
X826Y610D01*
X828Y610D01*
X828Y608D01*
X830Y608D01*
X830Y606D01*
X832Y606D01*
X832Y604D01*
X834Y604D01*
X834Y602D01*
X836Y602D01*
X836Y600D01*
X838Y600D01*
X838Y598D01*
X840Y598D01*
X840Y594D01*
X842Y594D01*
X842Y370D01*
X840Y370D01*
X840Y368D01*
X838Y368D01*
X838Y366D01*
X836Y366D01*
X836Y364D01*
X834Y364D01*
X834Y362D01*
X832Y362D01*
X832Y360D01*
X830Y360D01*
X830Y358D01*
X828Y358D01*
X828Y356D01*
X826Y356D01*
X826Y354D01*
X824Y354D01*
X824Y352D01*
X822Y352D01*
X822Y350D01*
X820Y350D01*
X820Y348D01*
X818Y348D01*
X818Y346D01*
X816Y346D01*
X816Y344D01*
X814Y344D01*
X814Y342D01*
X812Y342D01*
X812Y340D01*
X810Y340D01*
X810Y338D01*
X808Y338D01*
X808Y336D01*
X806Y336D01*
X806Y334D01*
X804Y334D01*
X804Y332D01*
X802Y332D01*
X802Y330D01*
X800Y330D01*
X800Y328D01*
X798Y328D01*
X798Y326D01*
X796Y326D01*
X796Y324D01*
X794Y324D01*
X794Y322D01*
X792Y322D01*
X792Y306D01*
X790Y306D01*
X790Y300D01*
X788Y300D01*
X788Y298D01*
X786Y298D01*
X786Y296D01*
X784Y296D01*
X784Y294D01*
X782Y294D01*
X782Y292D01*
X780Y292D01*
X780Y242D01*
X782Y242D01*
X782Y240D01*
X784Y240D01*
X784Y238D01*
X786Y238D01*
X786Y236D01*
X788Y236D01*
X788Y234D01*
X790Y234D01*
X790Y232D01*
X792Y232D01*
X792Y230D01*
X794Y230D01*
X794Y228D01*
X796Y228D01*
X796Y226D01*
X870Y226D01*
X870Y224D01*
X874Y224D01*
X874Y222D01*
X876Y222D01*
X876Y220D01*
X878Y220D01*
X878Y218D01*
X880Y218D01*
X880Y216D01*
X882Y216D01*
X882Y214D01*
X884Y214D01*
X884Y212D01*
X886Y212D01*
X886Y210D01*
X888Y210D01*
X888Y208D01*
X890Y208D01*
X890Y206D01*
X892Y206D01*
X892Y204D01*
X894Y204D01*
X894Y202D01*
X896Y202D01*
X896Y200D01*
X898Y200D01*
X898Y198D01*
X900Y198D01*
X900Y196D01*
X902Y196D01*
X902Y194D01*
X908Y194D01*
X908Y192D01*
X912Y192D01*
X912Y190D01*
X916Y190D01*
X916Y188D01*
X920Y188D01*
X920Y186D01*
X922Y186D01*
X922Y184D01*
X924Y184D01*
X924Y182D01*
X926Y182D01*
X926Y180D01*
X928Y180D01*
X928Y176D01*
X930Y176D01*
X930Y174D01*
X932Y174D01*
X932Y170D01*
X934Y170D01*
X934Y164D01*
X954Y164D01*
X954Y166D01*
X956Y166D01*
X956Y168D01*
X958Y168D01*
X958Y170D01*
X960Y170D01*
X960Y172D01*
X964Y172D01*
X964Y174D01*
X966Y174D01*
X966Y176D01*
X968Y176D01*
X968Y178D01*
X970Y178D01*
X970Y182D01*
X972Y182D01*
X972Y184D01*
X974Y184D01*
X974Y186D01*
X976Y186D01*
X976Y188D01*
X978Y188D01*
X978Y190D01*
X980Y190D01*
X980Y194D01*
X982Y194D01*
X982Y196D01*
X984Y196D01*
X984Y200D01*
X986Y200D01*
X986Y202D01*
X988Y202D01*
X988Y206D01*
X990Y206D01*
X990Y210D01*
X992Y210D01*
X992Y214D01*
X994Y214D01*
X994Y218D01*
X996Y218D01*
X996Y224D01*
X998Y224D01*
X998Y228D01*
X1000Y228D01*
X1000Y234D01*
X1002Y234D01*
X1002Y242D01*
X1004Y242D01*
X1004Y254D01*
X1006Y254D01*
X1006Y770D01*
X986Y770D01*
X986Y772D01*
X978Y772D01*
X978Y774D01*
X972Y774D01*
X972Y776D01*
X970Y776D01*
X970Y778D01*
X966Y778D01*
X966Y780D01*
X964Y780D01*
X964Y782D01*
X962Y782D01*
X962Y784D01*
X960Y784D01*
X960Y786D01*
X958Y786D01*
X958Y788D01*
X956Y788D01*
X956Y792D01*
X954Y792D01*
X954Y796D01*
X952Y796D01*
X952Y800D01*
X950Y800D01*
X950Y802D01*
X696Y802D01*
G37*
D02*
G36*
X654Y760D02*
X654Y724D01*
X674Y724D01*
X674Y732D01*
X676Y732D01*
X676Y736D01*
X678Y736D01*
X678Y738D01*
X680Y738D01*
X680Y742D01*
X682Y742D01*
X682Y744D01*
X684Y744D01*
X684Y746D01*
X686Y746D01*
X686Y748D01*
X688Y748D01*
X688Y750D01*
X690Y750D01*
X690Y752D01*
X694Y752D01*
X694Y754D01*
X698Y754D01*
X698Y756D01*
X702Y756D01*
X702Y758D01*
X712Y758D01*
X712Y760D01*
X654Y760D01*
G37*
D02*
G36*
X654Y702D02*
X654Y624D01*
X674Y624D01*
X674Y632D01*
X676Y632D01*
X676Y636D01*
X678Y636D01*
X678Y638D01*
X680Y638D01*
X680Y642D01*
X682Y642D01*
X682Y644D01*
X684Y644D01*
X684Y646D01*
X686Y646D01*
X686Y648D01*
X688Y648D01*
X688Y650D01*
X690Y650D01*
X690Y652D01*
X694Y652D01*
X694Y654D01*
X698Y654D01*
X698Y674D01*
X694Y674D01*
X694Y676D01*
X690Y676D01*
X690Y678D01*
X688Y678D01*
X688Y680D01*
X686Y680D01*
X686Y682D01*
X684Y682D01*
X684Y684D01*
X682Y684D01*
X682Y686D01*
X680Y686D01*
X680Y688D01*
X678Y688D01*
X678Y692D01*
X676Y692D01*
X676Y696D01*
X674Y696D01*
X674Y702D01*
X654Y702D01*
G37*
D02*
G36*
X654Y602D02*
X654Y524D01*
X674Y524D01*
X674Y532D01*
X676Y532D01*
X676Y536D01*
X678Y536D01*
X678Y538D01*
X680Y538D01*
X680Y542D01*
X682Y542D01*
X682Y544D01*
X684Y544D01*
X684Y546D01*
X686Y546D01*
X686Y548D01*
X688Y548D01*
X688Y550D01*
X690Y550D01*
X690Y552D01*
X694Y552D01*
X694Y554D01*
X698Y554D01*
X698Y574D01*
X694Y574D01*
X694Y576D01*
X690Y576D01*
X690Y578D01*
X688Y578D01*
X688Y580D01*
X686Y580D01*
X686Y582D01*
X684Y582D01*
X684Y584D01*
X682Y584D01*
X682Y586D01*
X680Y586D01*
X680Y588D01*
X678Y588D01*
X678Y592D01*
X676Y592D01*
X676Y596D01*
X674Y596D01*
X674Y602D01*
X654Y602D01*
G37*
D02*
G36*
X654Y502D02*
X654Y434D01*
X652Y434D01*
X652Y430D01*
X650Y430D01*
X650Y428D01*
X648Y428D01*
X648Y426D01*
X646Y426D01*
X646Y424D01*
X644Y424D01*
X644Y422D01*
X642Y422D01*
X642Y420D01*
X640Y420D01*
X640Y400D01*
X672Y400D01*
X672Y424D01*
X674Y424D01*
X674Y432D01*
X676Y432D01*
X676Y436D01*
X678Y436D01*
X678Y438D01*
X680Y438D01*
X680Y442D01*
X682Y442D01*
X682Y444D01*
X684Y444D01*
X684Y446D01*
X686Y446D01*
X686Y448D01*
X688Y448D01*
X688Y450D01*
X690Y450D01*
X690Y452D01*
X694Y452D01*
X694Y454D01*
X698Y454D01*
X698Y474D01*
X694Y474D01*
X694Y476D01*
X690Y476D01*
X690Y478D01*
X688Y478D01*
X688Y480D01*
X686Y480D01*
X686Y482D01*
X684Y482D01*
X684Y484D01*
X682Y484D01*
X682Y486D01*
X680Y486D01*
X680Y488D01*
X678Y488D01*
X678Y492D01*
X676Y492D01*
X676Y496D01*
X674Y496D01*
X674Y502D01*
X654Y502D01*
G37*
D02*
G36*
X341Y322D02*
X366Y322D01*
X366Y300D01*
X341Y300D01*
X341Y322D01*
G37*
D02*
G36*
X326Y341D02*
X346Y341D01*
X346Y316D01*
X326Y316D01*
X326Y341D01*
G37*
D02*
G36*
X360Y341D02*
X380Y341D01*
X380Y316D01*
X360Y316D01*
X360Y341D01*
G37*
D02*
G36*
X565Y298D02*
X590Y298D01*
X590Y276D01*
X565Y276D01*
X565Y298D01*
G37*
D02*
G36*
X770Y679D02*
X792Y679D01*
X792Y654D01*
X770Y654D01*
X770Y679D01*
G37*
D02*
G04 End of Copper0*
M02*