G04 MADE WITH FRITZING*
G04 WWW.FRITZING.ORG*
G04 DOUBLE SIDED*
G04 HOLES PLATED*
G04 CONTOUR ON CENTER OF CONTOUR VECTOR*
%ASAXBY*%
%FSLAX23Y23*%
%MOIN*%
%OFA0B0*%
%SFA1.0B1.0*%
%ADD10C,0.075000*%
%ADD11C,0.039370*%
%ADD12C,0.079370*%
%ADD13C,0.078000*%
%ADD14R,0.079370X0.079370*%
%ADD15R,0.055118X0.059055*%
%ADD16R,0.059055X0.055118*%
%ADD17C,0.016000*%
%ADD18C,0.024000*%
%ADD19C,0.012000*%
%ADD20C,0.008000*%
%LNCOPPER1*%
G90*
G70*
G54D10*
X708Y897D03*
G54D11*
X580Y301D03*
X767Y664D03*
G54D10*
X592Y814D03*
X992Y814D03*
G54D12*
X417Y714D03*
X717Y714D03*
X417Y614D03*
X717Y614D03*
X417Y514D03*
X717Y514D03*
X417Y414D03*
X717Y414D03*
G54D10*
X992Y914D03*
X592Y914D03*
G54D11*
X767Y314D03*
G54D13*
X892Y151D03*
X792Y151D03*
G54D11*
X542Y189D03*
X355Y326D03*
G54D14*
X417Y714D03*
G54D15*
X830Y714D03*
X910Y714D03*
X830Y614D03*
X910Y614D03*
X830Y514D03*
X910Y514D03*
G54D16*
X830Y426D03*
X830Y345D03*
X930Y426D03*
X930Y345D03*
G54D15*
X317Y914D03*
X398Y914D03*
X767Y1001D03*
X848Y1001D03*
G54D16*
X242Y914D03*
X242Y994D03*
G54D15*
X242Y664D03*
X323Y664D03*
X317Y564D03*
X236Y564D03*
X242Y464D03*
X323Y464D03*
G54D17*
X690Y138D02*
X668Y138D01*
D02*
X690Y163D02*
X668Y163D01*
D02*
X690Y188D02*
X668Y188D01*
D02*
X690Y213D02*
X668Y213D01*
D02*
X690Y238D02*
X668Y238D01*
D02*
X690Y263D02*
X668Y263D01*
D02*
X690Y288D02*
X668Y288D01*
D02*
X690Y313D02*
X668Y313D01*
D02*
X478Y314D02*
X456Y314D01*
D02*
X478Y289D02*
X456Y289D01*
D02*
X478Y264D02*
X456Y264D01*
D02*
X478Y239D02*
X456Y239D01*
D02*
X478Y214D02*
X456Y214D01*
D02*
X478Y189D02*
X456Y189D01*
D02*
X478Y164D02*
X456Y164D01*
D02*
X478Y139D02*
X456Y139D01*
G54D18*
D02*
X808Y696D02*
X782Y675D01*
G54D19*
D02*
X618Y302D02*
X593Y301D01*
D02*
X992Y977D02*
X992Y937D01*
D02*
X870Y1001D02*
X967Y1000D01*
G54D18*
D02*
X930Y448D02*
X930Y500D01*
D02*
X930Y500D02*
X910Y514D01*
D02*
X808Y514D02*
X748Y514D01*
D02*
X910Y590D02*
X910Y538D01*
D02*
X910Y638D02*
X910Y690D01*
D02*
X830Y638D02*
X830Y690D01*
D02*
X830Y538D02*
X830Y590D01*
G54D19*
D02*
X792Y213D02*
X905Y213D01*
D02*
X768Y239D02*
X693Y238D01*
D02*
X805Y239D02*
X768Y239D01*
D02*
X905Y213D02*
X930Y239D01*
D02*
X830Y323D02*
X830Y264D01*
D02*
X830Y264D02*
X805Y239D01*
D02*
X693Y213D02*
X792Y213D01*
D02*
X930Y239D02*
X930Y323D01*
G54D18*
D02*
X754Y426D02*
X746Y423D01*
D02*
X806Y426D02*
X754Y426D01*
D02*
X906Y426D02*
X854Y426D01*
G54D19*
D02*
X992Y377D02*
X967Y351D01*
D02*
X992Y739D02*
X992Y377D01*
D02*
X767Y764D02*
X967Y764D01*
D02*
X967Y351D02*
X954Y349D01*
D02*
X735Y731D02*
X767Y764D01*
D02*
X967Y764D02*
X992Y739D01*
D02*
X618Y189D02*
X666Y188D01*
D02*
X618Y163D02*
X618Y189D01*
D02*
X642Y139D02*
X618Y163D01*
D02*
X666Y313D02*
X618Y314D01*
D02*
X492Y213D02*
X517Y239D01*
D02*
X517Y239D02*
X518Y263D01*
D02*
X481Y213D02*
X492Y213D01*
D02*
X518Y263D02*
X618Y263D01*
D02*
X481Y263D02*
X518Y263D01*
D02*
X666Y263D02*
X617Y264D01*
D02*
X618Y302D02*
X617Y264D01*
D02*
X617Y264D02*
X618Y189D01*
D02*
X666Y138D02*
X642Y139D01*
D02*
X242Y640D02*
X242Y589D01*
D02*
X242Y589D02*
X242Y588D01*
D02*
X529Y189D02*
X481Y189D01*
D02*
X792Y213D02*
X792Y176D01*
D02*
X767Y300D02*
X768Y239D01*
D02*
X192Y913D02*
X218Y913D01*
D02*
X518Y313D02*
X542Y339D01*
D02*
X280Y288D02*
X242Y325D01*
D02*
X468Y813D02*
X342Y813D01*
D02*
X479Y838D02*
X267Y839D01*
D02*
X267Y839D02*
X242Y814D01*
D02*
X205Y163D02*
X167Y202D01*
D02*
X318Y689D02*
X318Y688D01*
D02*
X318Y789D02*
X318Y689D01*
D02*
X368Y463D02*
X345Y463D01*
D02*
X260Y488D02*
X299Y540D01*
D02*
X492Y539D02*
X492Y789D01*
D02*
X242Y814D02*
X242Y688D01*
D02*
X542Y776D02*
X479Y838D01*
D02*
X542Y339D02*
X542Y776D01*
D02*
X481Y313D02*
X518Y313D01*
D02*
X168Y889D02*
X192Y913D01*
D02*
X454Y164D02*
X205Y163D01*
D02*
X167Y202D02*
X168Y889D01*
D02*
X454Y289D02*
X280Y288D01*
D02*
X242Y325D02*
X242Y440D01*
D02*
X967Y1000D02*
X992Y977D01*
D02*
X342Y813D02*
X318Y789D01*
D02*
X468Y513D02*
X492Y539D01*
D02*
X442Y513D02*
X468Y513D01*
D02*
X492Y789D02*
X468Y813D01*
D02*
X266Y914D02*
X295Y914D01*
D02*
X218Y989D02*
X218Y989D01*
D02*
X168Y989D02*
X218Y989D01*
D02*
X192Y138D02*
X142Y188D01*
D02*
X142Y188D02*
X142Y963D01*
D02*
X454Y139D02*
X192Y138D01*
D02*
X142Y963D02*
X168Y989D01*
G54D20*
D02*
X420Y914D02*
X569Y914D01*
G54D19*
D02*
X399Y431D02*
X368Y463D01*
D02*
X743Y989D02*
X267Y988D01*
D02*
X745Y990D02*
X743Y989D01*
D02*
X267Y988D02*
X266Y988D01*
D02*
X618Y314D02*
X618Y302D01*
G54D18*
D02*
X579Y514D02*
X580Y320D01*
D02*
X686Y514D02*
X579Y514D01*
G36*
X184Y976D02*
X184Y974D01*
X182Y974D01*
X182Y972D01*
X180Y972D01*
X180Y970D01*
X178Y970D01*
X178Y968D01*
X176Y968D01*
X176Y966D01*
X174Y966D01*
X174Y964D01*
X172Y964D01*
X172Y962D01*
X170Y962D01*
X170Y960D01*
X168Y960D01*
X168Y958D01*
X166Y958D01*
X166Y954D01*
X164Y954D01*
X164Y952D01*
X162Y952D01*
X162Y950D01*
X160Y950D01*
X160Y946D01*
X158Y946D01*
X158Y944D01*
X156Y944D01*
X156Y940D01*
X154Y940D01*
X154Y912D01*
X174Y912D01*
X174Y914D01*
X176Y914D01*
X176Y916D01*
X178Y916D01*
X178Y918D01*
X180Y918D01*
X180Y920D01*
X182Y920D01*
X182Y922D01*
X186Y922D01*
X186Y924D01*
X190Y924D01*
X190Y926D01*
X206Y926D01*
X206Y976D01*
X184Y976D01*
G37*
D02*
G36*
X432Y904D02*
X432Y878D01*
X566Y878D01*
X566Y880D01*
X564Y880D01*
X564Y882D01*
X562Y882D01*
X562Y884D01*
X560Y884D01*
X560Y886D01*
X558Y886D01*
X558Y888D01*
X556Y888D01*
X556Y892D01*
X554Y892D01*
X554Y896D01*
X552Y896D01*
X552Y900D01*
X550Y900D01*
X550Y904D01*
X432Y904D01*
G37*
D02*
G36*
X186Y892D02*
X186Y890D01*
X184Y890D01*
X184Y888D01*
X182Y888D01*
X182Y886D01*
X180Y886D01*
X180Y878D01*
X284Y878D01*
X284Y880D01*
X206Y880D01*
X206Y892D01*
X186Y892D01*
G37*
D02*
G36*
X180Y878D02*
X180Y876D01*
X570Y876D01*
X570Y878D01*
X180Y878D01*
G37*
D02*
G36*
X180Y878D02*
X180Y876D01*
X570Y876D01*
X570Y878D01*
X180Y878D01*
G37*
D02*
G36*
X180Y876D02*
X180Y850D01*
X484Y850D01*
X484Y848D01*
X486Y848D01*
X486Y846D01*
X488Y846D01*
X488Y844D01*
X490Y844D01*
X490Y842D01*
X492Y842D01*
X492Y840D01*
X496Y840D01*
X496Y838D01*
X498Y838D01*
X498Y836D01*
X500Y836D01*
X500Y834D01*
X502Y834D01*
X502Y832D01*
X504Y832D01*
X504Y830D01*
X506Y830D01*
X506Y828D01*
X508Y828D01*
X508Y826D01*
X510Y826D01*
X510Y824D01*
X512Y824D01*
X512Y822D01*
X514Y822D01*
X514Y820D01*
X516Y820D01*
X516Y818D01*
X518Y818D01*
X518Y816D01*
X520Y816D01*
X520Y814D01*
X522Y814D01*
X522Y812D01*
X524Y812D01*
X524Y810D01*
X526Y810D01*
X526Y808D01*
X528Y808D01*
X528Y806D01*
X530Y806D01*
X530Y804D01*
X550Y804D01*
X550Y808D01*
X548Y808D01*
X548Y818D01*
X550Y818D01*
X550Y828D01*
X552Y828D01*
X552Y832D01*
X554Y832D01*
X554Y836D01*
X556Y836D01*
X556Y840D01*
X558Y840D01*
X558Y842D01*
X560Y842D01*
X560Y844D01*
X562Y844D01*
X562Y846D01*
X564Y846D01*
X564Y848D01*
X566Y848D01*
X566Y850D01*
X570Y850D01*
X570Y852D01*
X574Y852D01*
X574Y854D01*
X578Y854D01*
X578Y874D01*
X572Y874D01*
X572Y876D01*
X180Y876D01*
G37*
D02*
G36*
X180Y850D02*
X180Y424D01*
X178Y424D01*
X178Y206D01*
X180Y206D01*
X180Y204D01*
X182Y204D01*
X182Y202D01*
X184Y202D01*
X184Y200D01*
X186Y200D01*
X186Y198D01*
X188Y198D01*
X188Y196D01*
X190Y196D01*
X190Y194D01*
X192Y194D01*
X192Y192D01*
X194Y192D01*
X194Y190D01*
X196Y190D01*
X196Y188D01*
X198Y188D01*
X198Y186D01*
X200Y186D01*
X200Y184D01*
X202Y184D01*
X202Y182D01*
X204Y182D01*
X204Y180D01*
X206Y180D01*
X206Y178D01*
X208Y178D01*
X208Y176D01*
X442Y176D01*
X442Y276D01*
X278Y276D01*
X278Y278D01*
X274Y278D01*
X274Y280D01*
X272Y280D01*
X272Y282D01*
X268Y282D01*
X268Y284D01*
X266Y284D01*
X266Y286D01*
X264Y286D01*
X264Y288D01*
X262Y288D01*
X262Y290D01*
X260Y290D01*
X260Y292D01*
X258Y292D01*
X258Y294D01*
X256Y294D01*
X256Y296D01*
X254Y296D01*
X254Y298D01*
X252Y298D01*
X252Y300D01*
X250Y300D01*
X250Y302D01*
X248Y302D01*
X248Y304D01*
X246Y304D01*
X246Y306D01*
X244Y306D01*
X244Y308D01*
X242Y308D01*
X242Y310D01*
X240Y310D01*
X240Y312D01*
X238Y312D01*
X238Y314D01*
X236Y314D01*
X236Y316D01*
X234Y316D01*
X234Y318D01*
X232Y318D01*
X232Y320D01*
X230Y320D01*
X230Y428D01*
X208Y428D01*
X208Y498D01*
X210Y498D01*
X210Y500D01*
X256Y500D01*
X256Y504D01*
X258Y504D01*
X258Y506D01*
X260Y506D01*
X260Y508D01*
X262Y508D01*
X262Y528D01*
X204Y528D01*
X204Y530D01*
X202Y530D01*
X202Y598D01*
X204Y598D01*
X204Y600D01*
X230Y600D01*
X230Y628D01*
X208Y628D01*
X208Y698D01*
X210Y698D01*
X210Y700D01*
X230Y700D01*
X230Y818D01*
X232Y818D01*
X232Y822D01*
X234Y822D01*
X234Y824D01*
X236Y824D01*
X236Y826D01*
X238Y826D01*
X238Y828D01*
X240Y828D01*
X240Y830D01*
X242Y830D01*
X242Y832D01*
X244Y832D01*
X244Y834D01*
X246Y834D01*
X246Y836D01*
X248Y836D01*
X248Y838D01*
X250Y838D01*
X250Y840D01*
X252Y840D01*
X252Y842D01*
X254Y842D01*
X254Y844D01*
X256Y844D01*
X256Y846D01*
X258Y846D01*
X258Y848D01*
X260Y848D01*
X260Y850D01*
X180Y850D01*
G37*
D02*
G36*
X270Y826D02*
X270Y824D01*
X268Y824D01*
X268Y822D01*
X266Y822D01*
X266Y820D01*
X264Y820D01*
X264Y818D01*
X262Y818D01*
X262Y816D01*
X260Y816D01*
X260Y814D01*
X258Y814D01*
X258Y812D01*
X256Y812D01*
X256Y810D01*
X254Y810D01*
X254Y700D01*
X306Y700D01*
X306Y794D01*
X308Y794D01*
X308Y796D01*
X310Y796D01*
X310Y800D01*
X312Y800D01*
X312Y802D01*
X314Y802D01*
X314Y804D01*
X316Y804D01*
X316Y806D01*
X318Y806D01*
X318Y826D01*
X270Y826D01*
G37*
D02*
G36*
X346Y802D02*
X346Y800D01*
X344Y800D01*
X344Y798D01*
X342Y798D01*
X342Y796D01*
X340Y796D01*
X340Y794D01*
X338Y794D01*
X338Y792D01*
X336Y792D01*
X336Y790D01*
X334Y790D01*
X334Y788D01*
X332Y788D01*
X332Y786D01*
X330Y786D01*
X330Y700D01*
X372Y700D01*
X372Y760D01*
X480Y760D01*
X480Y786D01*
X478Y786D01*
X478Y788D01*
X476Y788D01*
X476Y790D01*
X474Y790D01*
X474Y792D01*
X472Y792D01*
X472Y794D01*
X468Y794D01*
X468Y796D01*
X466Y796D01*
X466Y798D01*
X464Y798D01*
X464Y800D01*
X462Y800D01*
X462Y802D01*
X346Y802D01*
G37*
D02*
G36*
X770Y752D02*
X770Y750D01*
X768Y750D01*
X768Y748D01*
X766Y748D01*
X766Y746D01*
X764Y746D01*
X764Y744D01*
X762Y744D01*
X762Y690D01*
X772Y690D01*
X772Y688D01*
X796Y688D01*
X796Y752D01*
X770Y752D01*
G37*
D02*
G36*
X944Y750D02*
X944Y678D01*
X928Y678D01*
X928Y650D01*
X944Y650D01*
X944Y578D01*
X928Y578D01*
X928Y550D01*
X944Y550D01*
X944Y510D01*
X946Y510D01*
X946Y508D01*
X948Y508D01*
X948Y460D01*
X980Y460D01*
X980Y734D01*
X978Y734D01*
X978Y736D01*
X976Y736D01*
X976Y738D01*
X974Y738D01*
X974Y740D01*
X972Y740D01*
X972Y742D01*
X970Y742D01*
X970Y744D01*
X968Y744D01*
X968Y746D01*
X966Y746D01*
X966Y748D01*
X964Y748D01*
X964Y750D01*
X944Y750D01*
G37*
D02*
G36*
X788Y678D02*
X788Y676D01*
X790Y676D01*
X790Y672D01*
X792Y672D01*
X792Y656D01*
X790Y656D01*
X790Y650D01*
X892Y650D01*
X892Y678D01*
X788Y678D01*
G37*
D02*
G36*
X772Y640D02*
X772Y638D01*
X762Y638D01*
X762Y602D01*
X760Y602D01*
X760Y596D01*
X758Y596D01*
X758Y592D01*
X756Y592D01*
X756Y588D01*
X754Y588D01*
X754Y586D01*
X752Y586D01*
X752Y584D01*
X750Y584D01*
X750Y582D01*
X748Y582D01*
X748Y580D01*
X746Y580D01*
X746Y578D01*
X744Y578D01*
X744Y576D01*
X740Y576D01*
X740Y574D01*
X738Y574D01*
X738Y554D01*
X740Y554D01*
X740Y552D01*
X744Y552D01*
X744Y550D01*
X746Y550D01*
X746Y548D01*
X748Y548D01*
X748Y546D01*
X750Y546D01*
X750Y544D01*
X752Y544D01*
X752Y542D01*
X754Y542D01*
X754Y540D01*
X756Y540D01*
X756Y536D01*
X758Y536D01*
X758Y532D01*
X760Y532D01*
X760Y526D01*
X762Y526D01*
X762Y502D01*
X760Y502D01*
X760Y496D01*
X758Y496D01*
X758Y492D01*
X756Y492D01*
X756Y488D01*
X754Y488D01*
X754Y486D01*
X752Y486D01*
X752Y484D01*
X750Y484D01*
X750Y482D01*
X748Y482D01*
X748Y480D01*
X746Y480D01*
X746Y478D01*
X744Y478D01*
X744Y476D01*
X740Y476D01*
X740Y474D01*
X738Y474D01*
X738Y454D01*
X740Y454D01*
X740Y452D01*
X744Y452D01*
X744Y450D01*
X746Y450D01*
X746Y448D01*
X748Y448D01*
X748Y446D01*
X750Y446D01*
X750Y444D01*
X794Y444D01*
X794Y460D01*
X796Y460D01*
X796Y550D01*
X892Y550D01*
X892Y578D01*
X796Y578D01*
X796Y640D01*
X772Y640D01*
G37*
D02*
G36*
X254Y628D02*
X254Y600D01*
X350Y600D01*
X350Y528D01*
X304Y528D01*
X304Y524D01*
X302Y524D01*
X302Y522D01*
X300Y522D01*
X300Y520D01*
X298Y520D01*
X298Y500D01*
X374Y500D01*
X374Y502D01*
X372Y502D01*
X372Y524D01*
X374Y524D01*
X374Y532D01*
X376Y532D01*
X376Y536D01*
X378Y536D01*
X378Y538D01*
X380Y538D01*
X380Y542D01*
X382Y542D01*
X382Y544D01*
X384Y544D01*
X384Y546D01*
X386Y546D01*
X386Y548D01*
X388Y548D01*
X388Y550D01*
X390Y550D01*
X390Y552D01*
X394Y552D01*
X394Y554D01*
X398Y554D01*
X398Y574D01*
X394Y574D01*
X394Y576D01*
X390Y576D01*
X390Y578D01*
X388Y578D01*
X388Y580D01*
X386Y580D01*
X386Y582D01*
X384Y582D01*
X384Y584D01*
X382Y584D01*
X382Y586D01*
X380Y586D01*
X380Y588D01*
X378Y588D01*
X378Y592D01*
X376Y592D01*
X376Y596D01*
X374Y596D01*
X374Y602D01*
X372Y602D01*
X372Y624D01*
X374Y624D01*
X374Y628D01*
X254Y628D01*
G37*
D02*
G36*
X460Y602D02*
X460Y596D01*
X458Y596D01*
X458Y592D01*
X456Y592D01*
X456Y588D01*
X454Y588D01*
X454Y586D01*
X452Y586D01*
X452Y584D01*
X450Y584D01*
X450Y582D01*
X448Y582D01*
X448Y580D01*
X446Y580D01*
X446Y578D01*
X444Y578D01*
X444Y576D01*
X440Y576D01*
X440Y574D01*
X438Y574D01*
X438Y554D01*
X440Y554D01*
X440Y552D01*
X444Y552D01*
X444Y550D01*
X446Y550D01*
X446Y548D01*
X448Y548D01*
X448Y546D01*
X450Y546D01*
X450Y544D01*
X452Y544D01*
X452Y542D01*
X454Y542D01*
X454Y540D01*
X456Y540D01*
X456Y538D01*
X476Y538D01*
X476Y540D01*
X478Y540D01*
X478Y542D01*
X480Y542D01*
X480Y602D01*
X460Y602D01*
G37*
D02*
G36*
X504Y778D02*
X504Y534D01*
X502Y534D01*
X502Y530D01*
X500Y530D01*
X500Y528D01*
X498Y528D01*
X498Y526D01*
X496Y526D01*
X496Y524D01*
X494Y524D01*
X494Y522D01*
X492Y522D01*
X492Y520D01*
X490Y520D01*
X490Y518D01*
X488Y518D01*
X488Y516D01*
X486Y516D01*
X486Y514D01*
X484Y514D01*
X484Y512D01*
X482Y512D01*
X482Y510D01*
X480Y510D01*
X480Y508D01*
X478Y508D01*
X478Y506D01*
X476Y506D01*
X476Y504D01*
X474Y504D01*
X474Y502D01*
X460Y502D01*
X460Y496D01*
X458Y496D01*
X458Y492D01*
X456Y492D01*
X456Y488D01*
X454Y488D01*
X454Y486D01*
X452Y486D01*
X452Y484D01*
X450Y484D01*
X450Y482D01*
X448Y482D01*
X448Y480D01*
X446Y480D01*
X446Y478D01*
X444Y478D01*
X444Y476D01*
X440Y476D01*
X440Y474D01*
X438Y474D01*
X438Y454D01*
X440Y454D01*
X440Y452D01*
X444Y452D01*
X444Y450D01*
X446Y450D01*
X446Y448D01*
X448Y448D01*
X448Y446D01*
X450Y446D01*
X450Y444D01*
X452Y444D01*
X452Y442D01*
X454Y442D01*
X454Y440D01*
X456Y440D01*
X456Y436D01*
X458Y436D01*
X458Y432D01*
X460Y432D01*
X460Y426D01*
X462Y426D01*
X462Y402D01*
X460Y402D01*
X460Y396D01*
X458Y396D01*
X458Y392D01*
X456Y392D01*
X456Y388D01*
X454Y388D01*
X454Y386D01*
X452Y386D01*
X452Y384D01*
X450Y384D01*
X450Y382D01*
X448Y382D01*
X448Y380D01*
X446Y380D01*
X446Y378D01*
X444Y378D01*
X444Y376D01*
X440Y376D01*
X440Y374D01*
X438Y374D01*
X438Y372D01*
X432Y372D01*
X432Y370D01*
X426Y370D01*
X426Y368D01*
X530Y368D01*
X530Y772D01*
X528Y772D01*
X528Y774D01*
X526Y774D01*
X526Y776D01*
X524Y776D01*
X524Y778D01*
X504Y778D01*
G37*
D02*
G36*
X254Y428D02*
X254Y368D01*
X408Y368D01*
X408Y370D01*
X402Y370D01*
X402Y372D01*
X398Y372D01*
X398Y374D01*
X394Y374D01*
X394Y376D01*
X390Y376D01*
X390Y378D01*
X388Y378D01*
X388Y380D01*
X386Y380D01*
X386Y382D01*
X384Y382D01*
X384Y384D01*
X382Y384D01*
X382Y386D01*
X380Y386D01*
X380Y388D01*
X378Y388D01*
X378Y392D01*
X376Y392D01*
X376Y396D01*
X374Y396D01*
X374Y402D01*
X372Y402D01*
X372Y428D01*
X254Y428D01*
G37*
D02*
G36*
X254Y368D02*
X254Y366D01*
X530Y366D01*
X530Y368D01*
X254Y368D01*
G37*
D02*
G36*
X254Y368D02*
X254Y366D01*
X530Y366D01*
X530Y368D01*
X254Y368D01*
G37*
D02*
G36*
X254Y366D02*
X254Y352D01*
X360Y352D01*
X360Y350D01*
X366Y350D01*
X366Y348D01*
X370Y348D01*
X370Y346D01*
X372Y346D01*
X372Y344D01*
X374Y344D01*
X374Y342D01*
X376Y342D01*
X376Y338D01*
X378Y338D01*
X378Y334D01*
X380Y334D01*
X380Y328D01*
X492Y328D01*
X492Y326D01*
X514Y326D01*
X514Y328D01*
X516Y328D01*
X516Y330D01*
X518Y330D01*
X518Y332D01*
X520Y332D01*
X520Y334D01*
X522Y334D01*
X522Y336D01*
X524Y336D01*
X524Y338D01*
X526Y338D01*
X526Y340D01*
X528Y340D01*
X528Y342D01*
X530Y342D01*
X530Y366D01*
X254Y366D01*
G37*
D02*
G36*
X254Y352D02*
X254Y330D01*
X256Y330D01*
X256Y328D01*
X258Y328D01*
X258Y326D01*
X260Y326D01*
X260Y324D01*
X262Y324D01*
X262Y322D01*
X264Y322D01*
X264Y320D01*
X266Y320D01*
X266Y318D01*
X268Y318D01*
X268Y316D01*
X270Y316D01*
X270Y314D01*
X272Y314D01*
X272Y312D01*
X274Y312D01*
X274Y310D01*
X276Y310D01*
X276Y308D01*
X278Y308D01*
X278Y306D01*
X280Y306D01*
X280Y304D01*
X282Y304D01*
X282Y302D01*
X284Y302D01*
X284Y300D01*
X330Y300D01*
X330Y336D01*
X332Y336D01*
X332Y340D01*
X334Y340D01*
X334Y342D01*
X336Y342D01*
X336Y344D01*
X338Y344D01*
X338Y346D01*
X340Y346D01*
X340Y348D01*
X344Y348D01*
X344Y350D01*
X348Y350D01*
X348Y352D01*
X254Y352D01*
G37*
D02*
G36*
X380Y328D02*
X380Y320D01*
X378Y320D01*
X378Y300D01*
X442Y300D01*
X442Y328D01*
X380Y328D01*
G37*
D02*
G36*
X866Y408D02*
X866Y312D01*
X842Y312D01*
X842Y260D01*
X840Y260D01*
X840Y256D01*
X838Y256D01*
X838Y254D01*
X836Y254D01*
X836Y252D01*
X834Y252D01*
X834Y250D01*
X832Y250D01*
X832Y248D01*
X830Y248D01*
X830Y246D01*
X828Y246D01*
X828Y226D01*
X902Y226D01*
X902Y228D01*
X904Y228D01*
X904Y230D01*
X906Y230D01*
X906Y232D01*
X908Y232D01*
X908Y234D01*
X910Y234D01*
X910Y236D01*
X912Y236D01*
X912Y238D01*
X914Y238D01*
X914Y240D01*
X916Y240D01*
X916Y242D01*
X918Y242D01*
X918Y312D01*
X894Y312D01*
X894Y408D01*
X866Y408D01*
G37*
D02*
G36*
X986Y354D02*
X986Y352D01*
X984Y352D01*
X984Y350D01*
X982Y350D01*
X982Y348D01*
X980Y348D01*
X980Y346D01*
X978Y346D01*
X978Y344D01*
X976Y344D01*
X976Y342D01*
X972Y342D01*
X972Y340D01*
X966Y340D01*
X966Y312D01*
X942Y312D01*
X942Y234D01*
X940Y234D01*
X940Y230D01*
X938Y230D01*
X938Y228D01*
X936Y228D01*
X936Y226D01*
X934Y226D01*
X934Y224D01*
X932Y224D01*
X932Y222D01*
X930Y222D01*
X930Y220D01*
X928Y220D01*
X928Y218D01*
X926Y218D01*
X926Y216D01*
X924Y216D01*
X924Y214D01*
X922Y214D01*
X922Y212D01*
X920Y212D01*
X920Y210D01*
X918Y210D01*
X918Y208D01*
X916Y208D01*
X916Y188D01*
X920Y188D01*
X920Y186D01*
X922Y186D01*
X922Y184D01*
X924Y184D01*
X924Y182D01*
X926Y182D01*
X926Y180D01*
X928Y180D01*
X928Y176D01*
X930Y176D01*
X930Y174D01*
X932Y174D01*
X932Y170D01*
X934Y170D01*
X934Y164D01*
X954Y164D01*
X954Y166D01*
X956Y166D01*
X956Y168D01*
X958Y168D01*
X958Y170D01*
X960Y170D01*
X960Y172D01*
X964Y172D01*
X964Y174D01*
X966Y174D01*
X966Y176D01*
X968Y176D01*
X968Y178D01*
X970Y178D01*
X970Y182D01*
X972Y182D01*
X972Y184D01*
X974Y184D01*
X974Y186D01*
X976Y186D01*
X976Y188D01*
X978Y188D01*
X978Y190D01*
X980Y190D01*
X980Y194D01*
X982Y194D01*
X982Y196D01*
X984Y196D01*
X984Y200D01*
X986Y200D01*
X986Y202D01*
X988Y202D01*
X988Y206D01*
X990Y206D01*
X990Y210D01*
X992Y210D01*
X992Y214D01*
X994Y214D01*
X994Y218D01*
X996Y218D01*
X996Y224D01*
X998Y224D01*
X998Y228D01*
X1000Y228D01*
X1000Y234D01*
X1002Y234D01*
X1002Y242D01*
X1004Y242D01*
X1004Y254D01*
X1006Y254D01*
X1006Y354D01*
X986Y354D01*
G37*
D02*
G36*
X792Y312D02*
X792Y306D01*
X790Y306D01*
X790Y300D01*
X788Y300D01*
X788Y298D01*
X786Y298D01*
X786Y296D01*
X784Y296D01*
X784Y294D01*
X782Y294D01*
X782Y292D01*
X780Y292D01*
X780Y250D01*
X800Y250D01*
X800Y252D01*
X802Y252D01*
X802Y254D01*
X804Y254D01*
X804Y256D01*
X806Y256D01*
X806Y258D01*
X808Y258D01*
X808Y260D01*
X810Y260D01*
X810Y262D01*
X812Y262D01*
X812Y264D01*
X814Y264D01*
X814Y266D01*
X816Y266D01*
X816Y268D01*
X818Y268D01*
X818Y312D01*
X792Y312D01*
G37*
D02*
G36*
X724Y202D02*
X724Y200D01*
X704Y200D01*
X704Y136D01*
X748Y136D01*
X748Y164D01*
X750Y164D01*
X750Y170D01*
X752Y170D01*
X752Y174D01*
X754Y174D01*
X754Y176D01*
X756Y176D01*
X756Y180D01*
X758Y180D01*
X758Y182D01*
X760Y182D01*
X760Y202D01*
X724Y202D01*
G37*
D02*
G36*
X882Y990D02*
X882Y966D01*
X966Y966D01*
X966Y968D01*
X964Y968D01*
X964Y970D01*
X962Y970D01*
X962Y972D01*
X958Y972D01*
X958Y974D01*
X956Y974D01*
X956Y976D01*
X954Y976D01*
X954Y978D01*
X952Y978D01*
X952Y980D01*
X948Y980D01*
X948Y982D01*
X946Y982D01*
X946Y984D01*
X942Y984D01*
X942Y986D01*
X940Y986D01*
X940Y988D01*
X914Y988D01*
X914Y990D01*
X882Y990D01*
G37*
D02*
G36*
X558Y978D02*
X558Y976D01*
X278Y976D01*
X278Y966D01*
X734Y966D01*
X734Y978D01*
X558Y978D01*
G37*
D02*
G36*
X278Y966D02*
X278Y964D01*
X966Y964D01*
X966Y966D01*
X278Y966D01*
G37*
D02*
G36*
X278Y966D02*
X278Y964D01*
X966Y964D01*
X966Y966D01*
X278Y966D01*
G37*
D02*
G36*
X278Y964D02*
X278Y958D01*
X596Y958D01*
X596Y956D01*
X606Y956D01*
X606Y954D01*
X610Y954D01*
X610Y952D01*
X614Y952D01*
X614Y950D01*
X618Y950D01*
X618Y948D01*
X620Y948D01*
X620Y946D01*
X622Y946D01*
X622Y944D01*
X624Y944D01*
X624Y942D01*
X626Y942D01*
X626Y940D01*
X628Y940D01*
X628Y936D01*
X630Y936D01*
X630Y934D01*
X632Y934D01*
X632Y928D01*
X634Y928D01*
X634Y920D01*
X636Y920D01*
X636Y906D01*
X634Y906D01*
X634Y900D01*
X632Y900D01*
X632Y894D01*
X630Y894D01*
X630Y892D01*
X628Y892D01*
X628Y888D01*
X626Y888D01*
X626Y886D01*
X624Y886D01*
X624Y884D01*
X622Y884D01*
X622Y882D01*
X620Y882D01*
X620Y880D01*
X618Y880D01*
X618Y878D01*
X614Y878D01*
X614Y876D01*
X612Y876D01*
X612Y874D01*
X606Y874D01*
X606Y854D01*
X610Y854D01*
X610Y852D01*
X614Y852D01*
X614Y850D01*
X618Y850D01*
X618Y848D01*
X620Y848D01*
X620Y846D01*
X622Y846D01*
X622Y844D01*
X624Y844D01*
X624Y842D01*
X626Y842D01*
X626Y840D01*
X628Y840D01*
X628Y836D01*
X630Y836D01*
X630Y834D01*
X632Y834D01*
X632Y828D01*
X634Y828D01*
X634Y820D01*
X636Y820D01*
X636Y806D01*
X634Y806D01*
X634Y800D01*
X632Y800D01*
X632Y794D01*
X630Y794D01*
X630Y792D01*
X628Y792D01*
X628Y788D01*
X626Y788D01*
X626Y786D01*
X624Y786D01*
X624Y784D01*
X622Y784D01*
X622Y782D01*
X620Y782D01*
X620Y780D01*
X618Y780D01*
X618Y778D01*
X614Y778D01*
X614Y776D01*
X612Y776D01*
X612Y774D01*
X606Y774D01*
X606Y772D01*
X598Y772D01*
X598Y770D01*
X756Y770D01*
X756Y772D01*
X760Y772D01*
X760Y774D01*
X762Y774D01*
X762Y776D01*
X954Y776D01*
X954Y796D01*
X952Y796D01*
X952Y800D01*
X950Y800D01*
X950Y808D01*
X948Y808D01*
X948Y818D01*
X950Y818D01*
X950Y828D01*
X952Y828D01*
X952Y832D01*
X954Y832D01*
X954Y836D01*
X956Y836D01*
X956Y840D01*
X958Y840D01*
X958Y842D01*
X960Y842D01*
X960Y844D01*
X962Y844D01*
X962Y846D01*
X964Y846D01*
X964Y848D01*
X966Y848D01*
X966Y850D01*
X970Y850D01*
X970Y852D01*
X974Y852D01*
X974Y854D01*
X978Y854D01*
X978Y874D01*
X972Y874D01*
X972Y876D01*
X970Y876D01*
X970Y878D01*
X966Y878D01*
X966Y880D01*
X964Y880D01*
X964Y882D01*
X962Y882D01*
X962Y884D01*
X960Y884D01*
X960Y886D01*
X958Y886D01*
X958Y888D01*
X956Y888D01*
X956Y892D01*
X954Y892D01*
X954Y896D01*
X952Y896D01*
X952Y900D01*
X950Y900D01*
X950Y908D01*
X948Y908D01*
X948Y918D01*
X950Y918D01*
X950Y928D01*
X952Y928D01*
X952Y932D01*
X954Y932D01*
X954Y936D01*
X956Y936D01*
X956Y940D01*
X958Y940D01*
X958Y942D01*
X960Y942D01*
X960Y944D01*
X962Y944D01*
X962Y946D01*
X964Y946D01*
X964Y948D01*
X966Y948D01*
X966Y964D01*
X278Y964D01*
G37*
D02*
G36*
X278Y958D02*
X278Y950D01*
X430Y950D01*
X430Y948D01*
X432Y948D01*
X432Y924D01*
X550Y924D01*
X550Y928D01*
X552Y928D01*
X552Y932D01*
X554Y932D01*
X554Y936D01*
X556Y936D01*
X556Y940D01*
X558Y940D01*
X558Y942D01*
X560Y942D01*
X560Y944D01*
X562Y944D01*
X562Y946D01*
X564Y946D01*
X564Y948D01*
X566Y948D01*
X566Y950D01*
X570Y950D01*
X570Y952D01*
X574Y952D01*
X574Y954D01*
X578Y954D01*
X578Y956D01*
X588Y956D01*
X588Y958D01*
X278Y958D01*
G37*
D02*
G36*
X554Y774D02*
X554Y770D01*
X586Y770D01*
X586Y772D01*
X578Y772D01*
X578Y774D01*
X554Y774D01*
G37*
D02*
G36*
X554Y770D02*
X554Y768D01*
X754Y768D01*
X754Y770D01*
X554Y770D01*
G37*
D02*
G36*
X554Y770D02*
X554Y768D01*
X754Y768D01*
X754Y770D01*
X554Y770D01*
G37*
D02*
G36*
X554Y768D02*
X554Y760D01*
X724Y760D01*
X724Y758D01*
X744Y758D01*
X744Y760D01*
X746Y760D01*
X746Y762D01*
X748Y762D01*
X748Y764D01*
X750Y764D01*
X750Y766D01*
X752Y766D01*
X752Y768D01*
X554Y768D01*
G37*
D02*
G36*
X554Y760D02*
X554Y368D01*
X708Y368D01*
X708Y370D01*
X702Y370D01*
X702Y372D01*
X698Y372D01*
X698Y374D01*
X694Y374D01*
X694Y376D01*
X690Y376D01*
X690Y378D01*
X688Y378D01*
X688Y380D01*
X686Y380D01*
X686Y382D01*
X684Y382D01*
X684Y384D01*
X682Y384D01*
X682Y386D01*
X680Y386D01*
X680Y388D01*
X678Y388D01*
X678Y392D01*
X676Y392D01*
X676Y396D01*
X674Y396D01*
X674Y402D01*
X672Y402D01*
X672Y424D01*
X674Y424D01*
X674Y432D01*
X676Y432D01*
X676Y436D01*
X678Y436D01*
X678Y438D01*
X680Y438D01*
X680Y442D01*
X682Y442D01*
X682Y444D01*
X684Y444D01*
X684Y446D01*
X686Y446D01*
X686Y448D01*
X688Y448D01*
X688Y450D01*
X690Y450D01*
X690Y452D01*
X694Y452D01*
X694Y454D01*
X698Y454D01*
X698Y474D01*
X694Y474D01*
X694Y476D01*
X690Y476D01*
X690Y478D01*
X688Y478D01*
X688Y480D01*
X686Y480D01*
X686Y482D01*
X684Y482D01*
X684Y484D01*
X682Y484D01*
X682Y486D01*
X680Y486D01*
X680Y488D01*
X678Y488D01*
X678Y492D01*
X676Y492D01*
X676Y496D01*
X674Y496D01*
X674Y502D01*
X672Y502D01*
X672Y524D01*
X674Y524D01*
X674Y532D01*
X676Y532D01*
X676Y536D01*
X678Y536D01*
X678Y538D01*
X680Y538D01*
X680Y542D01*
X682Y542D01*
X682Y544D01*
X684Y544D01*
X684Y546D01*
X686Y546D01*
X686Y548D01*
X688Y548D01*
X688Y550D01*
X690Y550D01*
X690Y552D01*
X694Y552D01*
X694Y554D01*
X698Y554D01*
X698Y574D01*
X694Y574D01*
X694Y576D01*
X690Y576D01*
X690Y578D01*
X688Y578D01*
X688Y580D01*
X686Y580D01*
X686Y582D01*
X684Y582D01*
X684Y584D01*
X682Y584D01*
X682Y586D01*
X680Y586D01*
X680Y588D01*
X678Y588D01*
X678Y592D01*
X676Y592D01*
X676Y596D01*
X674Y596D01*
X674Y602D01*
X672Y602D01*
X672Y624D01*
X674Y624D01*
X674Y632D01*
X676Y632D01*
X676Y636D01*
X678Y636D01*
X678Y638D01*
X680Y638D01*
X680Y642D01*
X682Y642D01*
X682Y644D01*
X684Y644D01*
X684Y646D01*
X686Y646D01*
X686Y648D01*
X688Y648D01*
X688Y650D01*
X690Y650D01*
X690Y652D01*
X694Y652D01*
X694Y654D01*
X698Y654D01*
X698Y674D01*
X694Y674D01*
X694Y676D01*
X690Y676D01*
X690Y678D01*
X688Y678D01*
X688Y680D01*
X686Y680D01*
X686Y682D01*
X684Y682D01*
X684Y684D01*
X682Y684D01*
X682Y686D01*
X680Y686D01*
X680Y688D01*
X678Y688D01*
X678Y692D01*
X676Y692D01*
X676Y696D01*
X674Y696D01*
X674Y702D01*
X672Y702D01*
X672Y724D01*
X674Y724D01*
X674Y732D01*
X676Y732D01*
X676Y736D01*
X678Y736D01*
X678Y738D01*
X680Y738D01*
X680Y742D01*
X682Y742D01*
X682Y744D01*
X684Y744D01*
X684Y746D01*
X686Y746D01*
X686Y748D01*
X688Y748D01*
X688Y750D01*
X690Y750D01*
X690Y752D01*
X694Y752D01*
X694Y754D01*
X698Y754D01*
X698Y756D01*
X702Y756D01*
X702Y758D01*
X712Y758D01*
X712Y760D01*
X554Y760D01*
G37*
D02*
G36*
X762Y408D02*
X762Y402D01*
X760Y402D01*
X760Y396D01*
X758Y396D01*
X758Y392D01*
X756Y392D01*
X756Y388D01*
X754Y388D01*
X754Y386D01*
X752Y386D01*
X752Y384D01*
X750Y384D01*
X750Y382D01*
X748Y382D01*
X748Y380D01*
X746Y380D01*
X746Y378D01*
X744Y378D01*
X744Y376D01*
X740Y376D01*
X740Y374D01*
X738Y374D01*
X738Y372D01*
X732Y372D01*
X732Y370D01*
X726Y370D01*
X726Y368D01*
X794Y368D01*
X794Y408D01*
X762Y408D01*
G37*
D02*
G36*
X554Y368D02*
X554Y366D01*
X794Y366D01*
X794Y368D01*
X554Y368D01*
G37*
D02*
G36*
X554Y368D02*
X554Y366D01*
X794Y366D01*
X794Y368D01*
X554Y368D01*
G37*
D02*
G36*
X554Y366D02*
X554Y340D01*
X772Y340D01*
X772Y338D01*
X794Y338D01*
X794Y366D01*
X554Y366D01*
G37*
D02*
G36*
X554Y340D02*
X554Y334D01*
X552Y334D01*
X552Y330D01*
X550Y330D01*
X550Y328D01*
X548Y328D01*
X548Y326D01*
X704Y326D01*
X704Y250D01*
X756Y250D01*
X756Y292D01*
X752Y292D01*
X752Y294D01*
X750Y294D01*
X750Y296D01*
X748Y296D01*
X748Y298D01*
X746Y298D01*
X746Y302D01*
X744Y302D01*
X744Y306D01*
X742Y306D01*
X742Y322D01*
X744Y322D01*
X744Y326D01*
X746Y326D01*
X746Y330D01*
X748Y330D01*
X748Y332D01*
X750Y332D01*
X750Y334D01*
X752Y334D01*
X752Y336D01*
X756Y336D01*
X756Y338D01*
X762Y338D01*
X762Y340D01*
X554Y340D01*
G37*
D02*
G36*
X546Y326D02*
X546Y324D01*
X544Y324D01*
X544Y322D01*
X542Y322D01*
X542Y320D01*
X540Y320D01*
X540Y318D01*
X538Y318D01*
X538Y316D01*
X536Y316D01*
X536Y314D01*
X534Y314D01*
X534Y312D01*
X532Y312D01*
X532Y310D01*
X530Y310D01*
X530Y308D01*
X528Y308D01*
X528Y306D01*
X526Y306D01*
X526Y304D01*
X524Y304D01*
X524Y302D01*
X492Y302D01*
X492Y276D01*
X572Y276D01*
X572Y278D01*
X568Y278D01*
X568Y280D01*
X564Y280D01*
X564Y282D01*
X562Y282D01*
X562Y284D01*
X560Y284D01*
X560Y286D01*
X558Y286D01*
X558Y290D01*
X556Y290D01*
X556Y296D01*
X554Y296D01*
X554Y308D01*
X556Y308D01*
X556Y312D01*
X558Y312D01*
X558Y316D01*
X560Y316D01*
X560Y318D01*
X562Y318D01*
X562Y320D01*
X564Y320D01*
X564Y322D01*
X566Y322D01*
X566Y324D01*
X570Y324D01*
X570Y326D01*
X546Y326D01*
G37*
D02*
G36*
X588Y326D02*
X588Y324D01*
X592Y324D01*
X592Y322D01*
X596Y322D01*
X596Y320D01*
X598Y320D01*
X598Y318D01*
X600Y318D01*
X600Y316D01*
X602Y316D01*
X602Y312D01*
X604Y312D01*
X604Y304D01*
X606Y304D01*
X606Y298D01*
X604Y298D01*
X604Y292D01*
X602Y292D01*
X602Y288D01*
X600Y288D01*
X600Y284D01*
X598Y284D01*
X598Y282D01*
X596Y282D01*
X596Y280D01*
X592Y280D01*
X592Y278D01*
X586Y278D01*
X586Y276D01*
X654Y276D01*
X654Y326D01*
X588Y326D01*
G37*
D02*
G36*
X492Y276D02*
X492Y274D01*
X654Y274D01*
X654Y276D01*
X492Y276D01*
G37*
D02*
G36*
X492Y276D02*
X492Y274D01*
X654Y274D01*
X654Y276D01*
X492Y276D01*
G37*
D02*
G36*
X492Y274D02*
X492Y214D01*
X550Y214D01*
X550Y212D01*
X554Y212D01*
X554Y210D01*
X558Y210D01*
X558Y208D01*
X560Y208D01*
X560Y206D01*
X562Y206D01*
X562Y204D01*
X564Y204D01*
X564Y200D01*
X566Y200D01*
X566Y194D01*
X568Y194D01*
X568Y184D01*
X566Y184D01*
X566Y178D01*
X564Y178D01*
X564Y174D01*
X562Y174D01*
X562Y172D01*
X560Y172D01*
X560Y170D01*
X558Y170D01*
X558Y168D01*
X556Y168D01*
X556Y166D01*
X550Y166D01*
X550Y164D01*
X654Y164D01*
X654Y274D01*
X492Y274D01*
G37*
D02*
G36*
X492Y214D02*
X492Y200D01*
X520Y200D01*
X520Y204D01*
X522Y204D01*
X522Y206D01*
X524Y206D01*
X524Y208D01*
X526Y208D01*
X526Y210D01*
X530Y210D01*
X530Y212D01*
X534Y212D01*
X534Y214D01*
X492Y214D01*
G37*
D02*
G36*
X492Y176D02*
X492Y164D01*
X534Y164D01*
X534Y166D01*
X530Y166D01*
X530Y168D01*
X526Y168D01*
X526Y170D01*
X524Y170D01*
X524Y172D01*
X522Y172D01*
X522Y174D01*
X520Y174D01*
X520Y176D01*
X492Y176D01*
G37*
D02*
G36*
X492Y164D02*
X492Y162D01*
X654Y162D01*
X654Y164D01*
X492Y164D01*
G37*
D02*
G36*
X492Y164D02*
X492Y162D01*
X654Y162D01*
X654Y164D01*
X492Y164D01*
G37*
D02*
G36*
X492Y162D02*
X492Y136D01*
X654Y136D01*
X654Y162D01*
X492Y162D01*
G37*
D02*
G36*
X326Y341D02*
X346Y341D01*
X346Y316D01*
X326Y316D01*
X326Y341D01*
G37*
D02*
G36*
X360Y341D02*
X380Y341D01*
X380Y316D01*
X360Y316D01*
X360Y341D01*
G37*
D02*
G36*
X438Y273D02*
X464Y273D01*
X464Y260D01*
X438Y260D01*
X438Y273D01*
G37*
D02*
G36*
X678Y273D02*
X704Y273D01*
X704Y260D01*
X678Y260D01*
X678Y273D01*
G37*
D02*
G36*
X665Y140D02*
X690Y140D01*
X690Y126D01*
X665Y126D01*
X665Y140D01*
G37*
D02*
G36*
X438Y223D02*
X464Y223D01*
X464Y210D01*
X438Y210D01*
X438Y223D01*
G37*
D02*
G36*
X678Y197D02*
X704Y197D01*
X704Y184D01*
X678Y184D01*
X678Y197D01*
G37*
D02*
G04 End of Copper1*
M02*