G04 MADE WITH FRITZING*
G04 WWW.FRITZING.ORG*
G04 DOUBLE SIDED*
G04 HOLES PLATED*
G04 CONTOUR ON CENTER OF CONTOUR VECTOR*
%ASAXBY*%
%FSLAX23Y23*%
%MOIN*%
%OFA0B0*%
%SFA1.0B1.0*%
%ADD10C,0.075000*%
%ADD11C,0.039370*%
%ADD12C,0.079370*%
%ADD13R,0.055118X0.059055*%
%ADD14R,0.059055X0.055118*%
%ADD15R,0.079370X0.079370*%
%ADD16C,0.016000*%
%ADD17C,0.012000*%
%ADD18C,0.024000*%
%LNCOPPER0*%
G90*
G70*
G54D10*
X891Y880D03*
X222Y535D03*
X839Y528D03*
G54D11*
X569Y740D03*
X644Y740D03*
X944Y740D03*
G54D10*
X819Y815D03*
X419Y815D03*
G54D11*
X519Y840D03*
X544Y315D03*
X194Y140D03*
X269Y115D03*
X69Y715D03*
G54D10*
X819Y140D03*
X419Y140D03*
G54D12*
X369Y615D03*
X669Y615D03*
X369Y515D03*
X669Y515D03*
X369Y415D03*
X669Y415D03*
X369Y315D03*
X669Y315D03*
G54D11*
X494Y115D03*
X244Y265D03*
X144Y265D03*
X44Y915D03*
X294Y690D03*
X494Y415D03*
G54D13*
X869Y240D03*
X789Y240D03*
X869Y440D03*
X789Y440D03*
X119Y640D03*
X200Y640D03*
X144Y365D03*
X225Y365D03*
X114Y865D03*
X194Y865D03*
X569Y915D03*
X650Y915D03*
G54D14*
X544Y615D03*
X544Y534D03*
X119Y465D03*
X119Y546D03*
G54D13*
X344Y915D03*
X425Y915D03*
X869Y340D03*
X789Y340D03*
G54D14*
X569Y140D03*
X569Y221D03*
G54D13*
X794Y640D03*
X875Y640D03*
G54D14*
X669Y215D03*
X669Y134D03*
G54D15*
X369Y615D03*
G54D16*
X330Y240D02*
X308Y240D01*
D02*
X330Y215D02*
X308Y215D01*
D02*
X330Y190D02*
X308Y190D01*
D02*
X330Y165D02*
X308Y165D01*
D02*
X330Y140D02*
X308Y140D01*
D02*
X330Y115D02*
X308Y115D01*
D02*
X330Y90D02*
X308Y90D01*
D02*
X330Y65D02*
X308Y65D01*
D02*
X118Y64D02*
X96Y64D01*
D02*
X118Y89D02*
X96Y89D01*
D02*
X118Y114D02*
X96Y114D01*
D02*
X118Y139D02*
X96Y139D01*
D02*
X118Y164D02*
X96Y164D01*
D02*
X118Y189D02*
X96Y189D01*
D02*
X118Y214D02*
X96Y214D01*
D02*
X118Y239D02*
X96Y239D01*
G54D17*
D02*
X306Y190D02*
X269Y191D01*
G54D18*
D02*
X663Y740D02*
X925Y740D01*
G54D17*
D02*
X283Y115D02*
X306Y115D01*
D02*
X270Y90D02*
X269Y101D01*
D02*
X295Y65D02*
X270Y90D01*
D02*
X306Y65D02*
X295Y65D01*
D02*
X295Y240D02*
X270Y215D01*
D02*
X269Y191D02*
X269Y128D01*
D02*
X270Y215D02*
X269Y191D01*
D02*
X306Y240D02*
X295Y240D01*
G54D16*
D02*
X94Y540D02*
X95Y540D01*
D02*
X19Y540D02*
X94Y540D01*
D02*
X144Y415D02*
X144Y389D01*
D02*
X130Y443D02*
X144Y415D01*
G54D17*
D02*
X169Y115D02*
X121Y114D01*
D02*
X185Y130D02*
X169Y115D01*
D02*
X194Y165D02*
X121Y164D01*
D02*
X194Y153D02*
X194Y165D01*
D02*
X244Y140D02*
X219Y115D01*
D02*
X219Y115D02*
X219Y40D01*
D02*
X244Y190D02*
X244Y140D01*
D02*
X220Y189D02*
X220Y240D01*
D02*
X219Y40D02*
X919Y40D01*
D02*
X220Y240D02*
X235Y255D01*
D02*
X121Y189D02*
X220Y189D01*
D02*
X944Y65D02*
X944Y665D01*
D02*
X494Y740D02*
X419Y740D01*
D02*
X544Y690D02*
X494Y740D01*
D02*
X919Y690D02*
X544Y690D01*
D02*
X145Y765D02*
X120Y790D01*
D02*
X120Y816D02*
X117Y841D01*
D02*
X120Y790D02*
X120Y816D01*
D02*
X395Y765D02*
X145Y765D01*
D02*
X419Y740D02*
X395Y765D01*
D02*
X944Y665D02*
X919Y690D01*
D02*
X195Y240D02*
X195Y290D01*
D02*
X294Y265D02*
X244Y215D01*
D02*
X294Y290D02*
X294Y265D01*
D02*
X244Y215D02*
X244Y190D01*
D02*
X270Y314D02*
X294Y290D01*
D02*
X170Y215D02*
X195Y240D01*
D02*
X144Y215D02*
X170Y215D01*
D02*
X220Y314D02*
X270Y314D01*
D02*
X195Y290D02*
X220Y314D01*
D02*
X121Y214D02*
X144Y215D01*
G54D16*
D02*
X144Y915D02*
X322Y915D01*
D02*
X128Y889D02*
X144Y915D01*
D02*
X44Y940D02*
X44Y928D01*
D02*
X69Y965D02*
X44Y940D01*
D02*
X395Y965D02*
X69Y965D01*
D02*
X411Y939D02*
X395Y965D01*
G54D18*
D02*
X820Y915D02*
X820Y843D01*
G54D16*
D02*
X396Y815D02*
X244Y815D01*
D02*
X347Y326D02*
X320Y340D01*
G54D17*
D02*
X369Y115D02*
X369Y90D01*
D02*
X333Y140D02*
X344Y140D01*
D02*
X897Y627D02*
X919Y615D01*
G54D18*
D02*
X789Y264D02*
X789Y316D01*
D02*
X789Y364D02*
X789Y416D01*
G54D16*
D02*
X744Y315D02*
X695Y315D01*
D02*
X767Y327D02*
X744Y315D01*
D02*
X44Y65D02*
X94Y64D01*
D02*
X19Y165D02*
X19Y90D01*
D02*
X19Y440D02*
X19Y165D01*
D02*
X44Y115D02*
X69Y89D01*
D02*
X44Y340D02*
X44Y115D01*
D02*
X69Y365D02*
X44Y340D01*
D02*
X122Y365D02*
X69Y365D01*
G54D17*
D02*
X670Y65D02*
X670Y112D01*
D02*
X895Y65D02*
X670Y65D01*
D02*
X919Y90D02*
X895Y65D01*
D02*
X919Y615D02*
X919Y90D01*
G54D16*
D02*
X69Y89D02*
X94Y89D01*
G54D18*
D02*
X670Y240D02*
X670Y284D01*
D02*
X670Y237D02*
X670Y240D01*
G54D16*
D02*
X645Y197D02*
X593Y158D01*
G54D17*
D02*
X344Y140D02*
X369Y115D01*
D02*
X395Y65D02*
X670Y65D01*
D02*
X419Y215D02*
X519Y215D01*
D02*
X519Y215D02*
X545Y218D01*
D02*
X370Y165D02*
X419Y215D01*
D02*
X344Y165D02*
X370Y165D01*
D02*
X333Y165D02*
X344Y165D01*
G54D16*
D02*
X545Y140D02*
X519Y140D01*
D02*
X519Y140D02*
X504Y124D01*
D02*
X769Y565D02*
X794Y590D01*
D02*
X719Y565D02*
X769Y565D01*
D02*
X687Y533D02*
X719Y565D01*
D02*
X794Y590D02*
X794Y616D01*
G54D17*
D02*
X594Y265D02*
X594Y440D01*
D02*
X582Y243D02*
X594Y265D01*
D02*
X594Y440D02*
X544Y489D01*
D02*
X544Y489D02*
X544Y512D01*
D02*
X469Y715D02*
X394Y715D01*
D02*
X219Y665D02*
X219Y664D01*
D02*
X244Y690D02*
X219Y665D01*
D02*
X244Y715D02*
X244Y690D01*
D02*
X269Y740D02*
X244Y715D01*
D02*
X370Y740D02*
X269Y740D01*
D02*
X494Y490D02*
X494Y690D01*
D02*
X394Y715D02*
X370Y740D01*
D02*
X494Y690D02*
X469Y715D01*
D02*
X544Y440D02*
X494Y490D01*
D02*
X544Y390D02*
X544Y440D01*
D02*
X469Y365D02*
X520Y365D01*
D02*
X395Y415D02*
X419Y415D01*
D02*
X419Y415D02*
X469Y365D01*
G54D18*
D02*
X547Y915D02*
X447Y915D01*
G54D16*
D02*
X19Y440D02*
X19Y540D01*
D02*
X44Y640D02*
X97Y640D01*
D02*
X20Y615D02*
X44Y640D01*
D02*
X19Y540D02*
X20Y615D01*
G54D17*
D02*
X111Y241D02*
X133Y257D01*
G54D18*
D02*
X672Y915D02*
X820Y915D01*
G54D16*
D02*
X644Y615D02*
X568Y615D01*
D02*
X294Y365D02*
X269Y365D01*
D02*
X269Y365D02*
X247Y365D01*
D02*
X320Y340D02*
X294Y365D01*
D02*
X244Y815D02*
X216Y843D01*
D02*
X444Y690D02*
X469Y665D01*
D02*
X469Y665D02*
X469Y440D01*
D02*
X469Y440D02*
X485Y424D01*
D02*
X308Y690D02*
X444Y690D01*
G54D17*
D02*
X369Y90D02*
X395Y65D01*
D02*
X520Y365D02*
X544Y390D01*
D02*
X919Y40D02*
X944Y65D01*
G54D16*
D02*
X19Y90D02*
X44Y65D01*
D02*
X844Y514D02*
X769Y515D01*
D02*
X769Y515D02*
X687Y433D01*
D02*
X870Y464D02*
X870Y490D01*
D02*
X870Y490D02*
X844Y514D01*
G54D18*
D02*
X869Y364D02*
X869Y416D01*
D02*
X869Y316D02*
X869Y264D01*
G36*
X74Y944D02*
X74Y942D01*
X72Y942D01*
X72Y922D01*
X74Y922D01*
X74Y908D01*
X72Y908D01*
X72Y904D01*
X118Y904D01*
X118Y908D01*
X120Y908D01*
X120Y910D01*
X122Y910D01*
X122Y914D01*
X124Y914D01*
X124Y918D01*
X126Y918D01*
X126Y920D01*
X128Y920D01*
X128Y924D01*
X130Y924D01*
X130Y944D01*
X74Y944D01*
G37*
D02*
G36*
X840Y944D02*
X840Y920D01*
X842Y920D01*
X842Y854D01*
X846Y854D01*
X846Y852D01*
X848Y852D01*
X848Y850D01*
X850Y850D01*
X850Y848D01*
X852Y848D01*
X852Y846D01*
X854Y846D01*
X854Y844D01*
X856Y844D01*
X856Y842D01*
X858Y842D01*
X858Y838D01*
X860Y838D01*
X860Y834D01*
X862Y834D01*
X862Y832D01*
X864Y832D01*
X864Y826D01*
X866Y826D01*
X866Y804D01*
X864Y804D01*
X864Y798D01*
X862Y798D01*
X862Y794D01*
X860Y794D01*
X860Y790D01*
X858Y790D01*
X858Y788D01*
X856Y788D01*
X856Y786D01*
X854Y786D01*
X854Y784D01*
X852Y784D01*
X852Y782D01*
X850Y782D01*
X850Y762D01*
X928Y762D01*
X928Y764D01*
X932Y764D01*
X932Y766D01*
X934Y766D01*
X934Y768D01*
X942Y768D01*
X942Y770D01*
X944Y770D01*
X944Y944D01*
X840Y944D01*
G37*
D02*
G36*
X232Y896D02*
X232Y852D01*
X234Y852D01*
X234Y850D01*
X236Y850D01*
X236Y848D01*
X238Y848D01*
X238Y846D01*
X240Y846D01*
X240Y844D01*
X242Y844D01*
X242Y842D01*
X244Y842D01*
X244Y840D01*
X246Y840D01*
X246Y838D01*
X248Y838D01*
X248Y836D01*
X250Y836D01*
X250Y834D01*
X252Y834D01*
X252Y832D01*
X376Y832D01*
X376Y834D01*
X378Y834D01*
X378Y836D01*
X380Y836D01*
X380Y840D01*
X382Y840D01*
X382Y842D01*
X384Y842D01*
X384Y844D01*
X386Y844D01*
X386Y848D01*
X390Y848D01*
X390Y850D01*
X392Y850D01*
X392Y852D01*
X394Y852D01*
X394Y854D01*
X398Y854D01*
X398Y856D01*
X400Y856D01*
X400Y876D01*
X306Y876D01*
X306Y896D01*
X232Y896D01*
G37*
D02*
G36*
X462Y892D02*
X462Y876D01*
X438Y876D01*
X438Y856D01*
X442Y856D01*
X442Y854D01*
X446Y854D01*
X446Y852D01*
X448Y852D01*
X448Y850D01*
X450Y850D01*
X450Y848D01*
X452Y848D01*
X452Y846D01*
X454Y846D01*
X454Y844D01*
X456Y844D01*
X456Y842D01*
X458Y842D01*
X458Y838D01*
X460Y838D01*
X460Y834D01*
X462Y834D01*
X462Y832D01*
X464Y832D01*
X464Y826D01*
X466Y826D01*
X466Y810D01*
X512Y810D01*
X512Y812D01*
X508Y812D01*
X508Y814D01*
X504Y814D01*
X504Y816D01*
X502Y816D01*
X502Y818D01*
X500Y818D01*
X500Y820D01*
X498Y820D01*
X498Y822D01*
X496Y822D01*
X496Y824D01*
X494Y824D01*
X494Y828D01*
X492Y828D01*
X492Y832D01*
X490Y832D01*
X490Y846D01*
X492Y846D01*
X492Y852D01*
X494Y852D01*
X494Y854D01*
X496Y854D01*
X496Y858D01*
X498Y858D01*
X498Y860D01*
X500Y860D01*
X500Y862D01*
X504Y862D01*
X504Y864D01*
X506Y864D01*
X506Y866D01*
X510Y866D01*
X510Y868D01*
X518Y868D01*
X518Y870D01*
X532Y870D01*
X532Y892D01*
X462Y892D01*
G37*
D02*
G36*
X688Y892D02*
X688Y876D01*
X542Y876D01*
X542Y856D01*
X544Y856D01*
X544Y852D01*
X546Y852D01*
X546Y848D01*
X548Y848D01*
X548Y840D01*
X550Y840D01*
X550Y838D01*
X548Y838D01*
X548Y830D01*
X546Y830D01*
X546Y826D01*
X544Y826D01*
X544Y824D01*
X542Y824D01*
X542Y822D01*
X540Y822D01*
X540Y818D01*
X536Y818D01*
X536Y816D01*
X534Y816D01*
X534Y814D01*
X530Y814D01*
X530Y812D01*
X526Y812D01*
X526Y810D01*
X772Y810D01*
X772Y824D01*
X774Y824D01*
X774Y828D01*
X776Y828D01*
X776Y834D01*
X778Y834D01*
X778Y836D01*
X780Y836D01*
X780Y840D01*
X782Y840D01*
X782Y842D01*
X784Y842D01*
X784Y844D01*
X786Y844D01*
X786Y848D01*
X790Y848D01*
X790Y850D01*
X792Y850D01*
X792Y852D01*
X794Y852D01*
X794Y854D01*
X798Y854D01*
X798Y892D01*
X688Y892D01*
G37*
D02*
G36*
X466Y810D02*
X466Y808D01*
X772Y808D01*
X772Y810D01*
X466Y810D01*
G37*
D02*
G36*
X466Y810D02*
X466Y808D01*
X772Y808D01*
X772Y810D01*
X466Y810D01*
G37*
D02*
G36*
X466Y808D02*
X466Y804D01*
X464Y804D01*
X464Y798D01*
X462Y798D01*
X462Y794D01*
X460Y794D01*
X460Y790D01*
X458Y790D01*
X458Y788D01*
X456Y788D01*
X456Y786D01*
X454Y786D01*
X454Y784D01*
X452Y784D01*
X452Y782D01*
X450Y782D01*
X450Y780D01*
X448Y780D01*
X448Y778D01*
X446Y778D01*
X446Y776D01*
X444Y776D01*
X444Y770D01*
X646Y770D01*
X646Y768D01*
X654Y768D01*
X654Y766D01*
X658Y766D01*
X658Y764D01*
X660Y764D01*
X660Y762D01*
X788Y762D01*
X788Y782D01*
X786Y782D01*
X786Y784D01*
X784Y784D01*
X784Y786D01*
X782Y786D01*
X782Y788D01*
X780Y788D01*
X780Y792D01*
X778Y792D01*
X778Y796D01*
X776Y796D01*
X776Y800D01*
X774Y800D01*
X774Y806D01*
X772Y806D01*
X772Y808D01*
X466Y808D01*
G37*
D02*
G36*
X444Y770D02*
X444Y756D01*
X498Y756D01*
X498Y754D01*
X504Y754D01*
X504Y752D01*
X506Y752D01*
X506Y750D01*
X508Y750D01*
X508Y748D01*
X510Y748D01*
X510Y746D01*
X512Y746D01*
X512Y744D01*
X514Y744D01*
X514Y742D01*
X516Y742D01*
X516Y740D01*
X518Y740D01*
X518Y738D01*
X520Y738D01*
X520Y736D01*
X540Y736D01*
X540Y746D01*
X542Y746D01*
X542Y752D01*
X544Y752D01*
X544Y754D01*
X546Y754D01*
X546Y758D01*
X548Y758D01*
X548Y760D01*
X550Y760D01*
X550Y762D01*
X554Y762D01*
X554Y764D01*
X556Y764D01*
X556Y766D01*
X560Y766D01*
X560Y768D01*
X568Y768D01*
X568Y770D01*
X444Y770D01*
G37*
D02*
G36*
X572Y770D02*
X572Y768D01*
X580Y768D01*
X580Y766D01*
X582Y766D01*
X582Y764D01*
X586Y764D01*
X586Y762D01*
X588Y762D01*
X588Y760D01*
X590Y760D01*
X590Y758D01*
X592Y758D01*
X592Y756D01*
X594Y756D01*
X594Y752D01*
X596Y752D01*
X596Y748D01*
X616Y748D01*
X616Y750D01*
X618Y750D01*
X618Y752D01*
X620Y752D01*
X620Y756D01*
X622Y756D01*
X622Y758D01*
X624Y758D01*
X624Y760D01*
X626Y760D01*
X626Y762D01*
X628Y762D01*
X628Y764D01*
X632Y764D01*
X632Y766D01*
X634Y766D01*
X634Y768D01*
X642Y768D01*
X642Y770D01*
X572Y770D01*
G37*
D02*
G36*
X54Y888D02*
X54Y886D01*
X46Y886D01*
X46Y884D01*
X40Y884D01*
X40Y744D01*
X76Y744D01*
X76Y742D01*
X82Y742D01*
X82Y740D01*
X84Y740D01*
X84Y738D01*
X86Y738D01*
X86Y736D01*
X90Y736D01*
X90Y734D01*
X92Y734D01*
X92Y730D01*
X94Y730D01*
X94Y728D01*
X96Y728D01*
X96Y724D01*
X98Y724D01*
X98Y716D01*
X100Y716D01*
X100Y714D01*
X98Y714D01*
X98Y706D01*
X96Y706D01*
X96Y702D01*
X94Y702D01*
X94Y680D01*
X214Y680D01*
X214Y682D01*
X216Y682D01*
X216Y684D01*
X218Y684D01*
X218Y686D01*
X220Y686D01*
X220Y688D01*
X222Y688D01*
X222Y690D01*
X224Y690D01*
X224Y692D01*
X226Y692D01*
X226Y694D01*
X228Y694D01*
X228Y718D01*
X230Y718D01*
X230Y724D01*
X232Y724D01*
X232Y726D01*
X234Y726D01*
X234Y728D01*
X236Y728D01*
X236Y748D01*
X144Y748D01*
X144Y750D01*
X138Y750D01*
X138Y752D01*
X134Y752D01*
X134Y754D01*
X132Y754D01*
X132Y756D01*
X130Y756D01*
X130Y758D01*
X128Y758D01*
X128Y760D01*
X126Y760D01*
X126Y762D01*
X124Y762D01*
X124Y764D01*
X122Y764D01*
X122Y766D01*
X120Y766D01*
X120Y768D01*
X118Y768D01*
X118Y770D01*
X116Y770D01*
X116Y772D01*
X114Y772D01*
X114Y774D01*
X112Y774D01*
X112Y776D01*
X110Y776D01*
X110Y778D01*
X108Y778D01*
X108Y780D01*
X106Y780D01*
X106Y784D01*
X104Y784D01*
X104Y820D01*
X102Y820D01*
X102Y826D01*
X76Y826D01*
X76Y888D01*
X54Y888D01*
G37*
D02*
G36*
X40Y744D02*
X40Y742D01*
X62Y742D01*
X62Y744D01*
X40Y744D01*
G37*
D02*
G36*
X136Y826D02*
X136Y796D01*
X138Y796D01*
X138Y794D01*
X140Y794D01*
X140Y792D01*
X142Y792D01*
X142Y790D01*
X144Y790D01*
X144Y788D01*
X146Y788D01*
X146Y786D01*
X148Y786D01*
X148Y784D01*
X150Y784D01*
X150Y782D01*
X152Y782D01*
X152Y780D01*
X236Y780D01*
X236Y800D01*
X232Y800D01*
X232Y802D01*
X230Y802D01*
X230Y804D01*
X228Y804D01*
X228Y806D01*
X226Y806D01*
X226Y808D01*
X224Y808D01*
X224Y810D01*
X222Y810D01*
X222Y812D01*
X220Y812D01*
X220Y814D01*
X218Y814D01*
X218Y816D01*
X216Y816D01*
X216Y818D01*
X214Y818D01*
X214Y820D01*
X212Y820D01*
X212Y822D01*
X210Y822D01*
X210Y824D01*
X208Y824D01*
X208Y826D01*
X136Y826D01*
G37*
D02*
G36*
X318Y724D02*
X318Y704D01*
X320Y704D01*
X320Y700D01*
X322Y700D01*
X322Y696D01*
X324Y696D01*
X324Y684D01*
X322Y684D01*
X322Y664D01*
X420Y664D01*
X420Y566D01*
X418Y566D01*
X418Y564D01*
X406Y564D01*
X406Y544D01*
X408Y544D01*
X408Y542D01*
X410Y542D01*
X410Y540D01*
X412Y540D01*
X412Y536D01*
X414Y536D01*
X414Y532D01*
X416Y532D01*
X416Y528D01*
X418Y528D01*
X418Y516D01*
X420Y516D01*
X420Y512D01*
X418Y512D01*
X418Y502D01*
X416Y502D01*
X416Y496D01*
X414Y496D01*
X414Y494D01*
X412Y494D01*
X412Y490D01*
X410Y490D01*
X410Y486D01*
X408Y486D01*
X408Y484D01*
X406Y484D01*
X406Y482D01*
X404Y482D01*
X404Y480D01*
X402Y480D01*
X402Y478D01*
X400Y478D01*
X400Y476D01*
X398Y476D01*
X398Y474D01*
X396Y474D01*
X396Y454D01*
X398Y454D01*
X398Y452D01*
X400Y452D01*
X400Y450D01*
X404Y450D01*
X404Y446D01*
X406Y446D01*
X406Y444D01*
X408Y444D01*
X408Y442D01*
X410Y442D01*
X410Y440D01*
X412Y440D01*
X412Y436D01*
X414Y436D01*
X414Y432D01*
X416Y432D01*
X416Y430D01*
X426Y430D01*
X426Y428D01*
X430Y428D01*
X430Y426D01*
X432Y426D01*
X432Y424D01*
X434Y424D01*
X434Y422D01*
X436Y422D01*
X436Y420D01*
X438Y420D01*
X438Y418D01*
X440Y418D01*
X440Y416D01*
X442Y416D01*
X442Y414D01*
X444Y414D01*
X444Y412D01*
X446Y412D01*
X446Y410D01*
X466Y410D01*
X466Y412D01*
X464Y412D01*
X464Y416D01*
X466Y416D01*
X466Y424D01*
X468Y424D01*
X468Y428D01*
X470Y428D01*
X470Y430D01*
X472Y430D01*
X472Y434D01*
X474Y434D01*
X474Y436D01*
X476Y436D01*
X476Y438D01*
X480Y438D01*
X480Y440D01*
X482Y440D01*
X482Y442D01*
X488Y442D01*
X488Y444D01*
X498Y444D01*
X498Y464D01*
X496Y464D01*
X496Y466D01*
X494Y466D01*
X494Y468D01*
X492Y468D01*
X492Y470D01*
X490Y470D01*
X490Y472D01*
X488Y472D01*
X488Y474D01*
X486Y474D01*
X486Y476D01*
X484Y476D01*
X484Y478D01*
X482Y478D01*
X482Y480D01*
X480Y480D01*
X480Y486D01*
X478Y486D01*
X478Y684D01*
X476Y684D01*
X476Y686D01*
X474Y686D01*
X474Y688D01*
X472Y688D01*
X472Y690D01*
X470Y690D01*
X470Y692D01*
X468Y692D01*
X468Y694D01*
X466Y694D01*
X466Y696D01*
X464Y696D01*
X464Y698D01*
X390Y698D01*
X390Y700D01*
X386Y700D01*
X386Y702D01*
X384Y702D01*
X384Y704D01*
X382Y704D01*
X382Y706D01*
X380Y706D01*
X380Y708D01*
X378Y708D01*
X378Y710D01*
X376Y710D01*
X376Y712D01*
X374Y712D01*
X374Y714D01*
X372Y714D01*
X372Y716D01*
X370Y716D01*
X370Y718D01*
X368Y718D01*
X368Y720D01*
X366Y720D01*
X366Y722D01*
X364Y722D01*
X364Y724D01*
X318Y724D01*
G37*
D02*
G36*
X510Y682D02*
X510Y652D01*
X584Y652D01*
X584Y632D01*
X624Y632D01*
X624Y634D01*
X626Y634D01*
X626Y638D01*
X628Y638D01*
X628Y642D01*
X630Y642D01*
X630Y644D01*
X632Y644D01*
X632Y646D01*
X634Y646D01*
X634Y648D01*
X636Y648D01*
X636Y650D01*
X638Y650D01*
X638Y652D01*
X640Y652D01*
X640Y654D01*
X642Y654D01*
X642Y674D01*
X538Y674D01*
X538Y676D01*
X534Y676D01*
X534Y678D01*
X532Y678D01*
X532Y680D01*
X530Y680D01*
X530Y682D01*
X510Y682D01*
G37*
D02*
G36*
X250Y674D02*
X250Y672D01*
X248Y672D01*
X248Y670D01*
X246Y670D01*
X246Y668D01*
X244Y668D01*
X244Y666D01*
X242Y666D01*
X242Y664D01*
X240Y664D01*
X240Y662D01*
X238Y662D01*
X238Y660D01*
X288Y660D01*
X288Y662D01*
X284Y662D01*
X284Y664D01*
X280Y664D01*
X280Y666D01*
X278Y666D01*
X278Y668D01*
X274Y668D01*
X274Y670D01*
X272Y670D01*
X272Y674D01*
X250Y674D01*
G37*
D02*
G36*
X300Y662D02*
X300Y660D01*
X320Y660D01*
X320Y662D01*
X300Y662D01*
G37*
D02*
G36*
X238Y660D02*
X238Y658D01*
X320Y658D01*
X320Y660D01*
X238Y660D01*
G37*
D02*
G36*
X238Y660D02*
X238Y658D01*
X320Y658D01*
X320Y660D01*
X238Y660D01*
G37*
D02*
G36*
X238Y658D02*
X238Y600D01*
X156Y600D01*
X156Y582D01*
X158Y582D01*
X158Y426D01*
X160Y426D01*
X160Y422D01*
X162Y422D01*
X162Y404D01*
X262Y404D01*
X262Y382D01*
X302Y382D01*
X302Y380D01*
X306Y380D01*
X306Y378D01*
X308Y378D01*
X308Y376D01*
X310Y376D01*
X310Y374D01*
X312Y374D01*
X312Y372D01*
X314Y372D01*
X314Y370D01*
X316Y370D01*
X316Y368D01*
X318Y368D01*
X318Y366D01*
X320Y366D01*
X320Y364D01*
X322Y364D01*
X322Y362D01*
X342Y362D01*
X342Y376D01*
X340Y376D01*
X340Y378D01*
X338Y378D01*
X338Y380D01*
X334Y380D01*
X334Y384D01*
X332Y384D01*
X332Y386D01*
X330Y386D01*
X330Y388D01*
X328Y388D01*
X328Y392D01*
X326Y392D01*
X326Y394D01*
X324Y394D01*
X324Y398D01*
X322Y398D01*
X322Y404D01*
X320Y404D01*
X320Y424D01*
X322Y424D01*
X322Y430D01*
X324Y430D01*
X324Y434D01*
X326Y434D01*
X326Y438D01*
X328Y438D01*
X328Y442D01*
X330Y442D01*
X330Y444D01*
X332Y444D01*
X332Y446D01*
X334Y446D01*
X334Y448D01*
X336Y448D01*
X336Y450D01*
X338Y450D01*
X338Y452D01*
X340Y452D01*
X340Y454D01*
X342Y454D01*
X342Y476D01*
X340Y476D01*
X340Y478D01*
X338Y478D01*
X338Y480D01*
X334Y480D01*
X334Y484D01*
X332Y484D01*
X332Y486D01*
X330Y486D01*
X330Y488D01*
X328Y488D01*
X328Y492D01*
X326Y492D01*
X326Y494D01*
X324Y494D01*
X324Y498D01*
X322Y498D01*
X322Y504D01*
X320Y504D01*
X320Y524D01*
X322Y524D01*
X322Y530D01*
X324Y530D01*
X324Y534D01*
X326Y534D01*
X326Y538D01*
X328Y538D01*
X328Y542D01*
X330Y542D01*
X330Y544D01*
X332Y544D01*
X332Y564D01*
X320Y564D01*
X320Y658D01*
X238Y658D01*
G37*
D02*
G36*
X696Y674D02*
X696Y654D01*
X698Y654D01*
X698Y652D01*
X700Y652D01*
X700Y650D01*
X704Y650D01*
X704Y646D01*
X706Y646D01*
X706Y644D01*
X708Y644D01*
X708Y642D01*
X710Y642D01*
X710Y640D01*
X712Y640D01*
X712Y636D01*
X714Y636D01*
X714Y632D01*
X716Y632D01*
X716Y628D01*
X718Y628D01*
X718Y616D01*
X720Y616D01*
X720Y612D01*
X718Y612D01*
X718Y602D01*
X716Y602D01*
X716Y582D01*
X756Y582D01*
X756Y674D01*
X696Y674D01*
G37*
D02*
G36*
X52Y622D02*
X52Y620D01*
X50Y620D01*
X50Y618D01*
X48Y618D01*
X48Y616D01*
X46Y616D01*
X46Y614D01*
X44Y614D01*
X44Y612D01*
X42Y612D01*
X42Y610D01*
X40Y610D01*
X40Y558D01*
X80Y558D01*
X80Y582D01*
X82Y582D01*
X82Y622D01*
X52Y622D01*
G37*
D02*
G36*
X812Y600D02*
X812Y582D01*
X810Y582D01*
X810Y580D01*
X808Y580D01*
X808Y576D01*
X806Y576D01*
X806Y574D01*
X804Y574D01*
X804Y572D01*
X802Y572D01*
X802Y570D01*
X800Y570D01*
X800Y568D01*
X798Y568D01*
X798Y566D01*
X796Y566D01*
X796Y564D01*
X794Y564D01*
X794Y562D01*
X792Y562D01*
X792Y560D01*
X790Y560D01*
X790Y558D01*
X788Y558D01*
X788Y556D01*
X786Y556D01*
X786Y554D01*
X784Y554D01*
X784Y552D01*
X782Y552D01*
X782Y550D01*
X778Y550D01*
X778Y548D01*
X774Y548D01*
X774Y546D01*
X726Y546D01*
X726Y544D01*
X724Y544D01*
X724Y542D01*
X722Y542D01*
X722Y540D01*
X720Y540D01*
X720Y538D01*
X718Y538D01*
X718Y516D01*
X720Y516D01*
X720Y512D01*
X718Y512D01*
X718Y502D01*
X716Y502D01*
X716Y496D01*
X714Y496D01*
X714Y494D01*
X712Y494D01*
X712Y490D01*
X710Y490D01*
X710Y486D01*
X708Y486D01*
X708Y484D01*
X706Y484D01*
X706Y482D01*
X704Y482D01*
X704Y480D01*
X702Y480D01*
X702Y478D01*
X700Y478D01*
X700Y476D01*
X698Y476D01*
X698Y474D01*
X696Y474D01*
X696Y454D01*
X698Y454D01*
X698Y452D01*
X700Y452D01*
X700Y450D01*
X704Y450D01*
X704Y446D01*
X706Y446D01*
X706Y444D01*
X708Y444D01*
X708Y442D01*
X710Y442D01*
X710Y440D01*
X712Y440D01*
X712Y436D01*
X714Y436D01*
X714Y432D01*
X716Y432D01*
X716Y428D01*
X718Y428D01*
X718Y416D01*
X720Y416D01*
X720Y412D01*
X718Y412D01*
X718Y402D01*
X716Y402D01*
X716Y396D01*
X714Y396D01*
X714Y394D01*
X712Y394D01*
X712Y390D01*
X710Y390D01*
X710Y386D01*
X708Y386D01*
X708Y384D01*
X706Y384D01*
X706Y382D01*
X704Y382D01*
X704Y380D01*
X702Y380D01*
X702Y378D01*
X700Y378D01*
X700Y376D01*
X698Y376D01*
X698Y374D01*
X696Y374D01*
X696Y354D01*
X698Y354D01*
X698Y352D01*
X700Y352D01*
X700Y350D01*
X704Y350D01*
X704Y346D01*
X706Y346D01*
X706Y344D01*
X708Y344D01*
X708Y342D01*
X710Y342D01*
X710Y340D01*
X712Y340D01*
X712Y336D01*
X714Y336D01*
X714Y332D01*
X740Y332D01*
X740Y334D01*
X744Y334D01*
X744Y336D01*
X748Y336D01*
X748Y338D01*
X752Y338D01*
X752Y380D01*
X766Y380D01*
X766Y400D01*
X752Y400D01*
X752Y480D01*
X904Y480D01*
X904Y600D01*
X812Y600D01*
G37*
D02*
G36*
X584Y596D02*
X584Y496D01*
X580Y496D01*
X580Y476D01*
X582Y476D01*
X582Y474D01*
X584Y474D01*
X584Y472D01*
X586Y472D01*
X586Y470D01*
X588Y470D01*
X588Y468D01*
X590Y468D01*
X590Y466D01*
X592Y466D01*
X592Y464D01*
X594Y464D01*
X594Y462D01*
X596Y462D01*
X596Y460D01*
X598Y460D01*
X598Y458D01*
X600Y458D01*
X600Y456D01*
X602Y456D01*
X602Y454D01*
X604Y454D01*
X604Y452D01*
X606Y452D01*
X606Y450D01*
X608Y450D01*
X608Y446D01*
X610Y446D01*
X610Y442D01*
X630Y442D01*
X630Y444D01*
X632Y444D01*
X632Y446D01*
X634Y446D01*
X634Y448D01*
X636Y448D01*
X636Y450D01*
X638Y450D01*
X638Y452D01*
X640Y452D01*
X640Y454D01*
X642Y454D01*
X642Y476D01*
X640Y476D01*
X640Y478D01*
X638Y478D01*
X638Y480D01*
X634Y480D01*
X634Y484D01*
X632Y484D01*
X632Y486D01*
X630Y486D01*
X630Y488D01*
X628Y488D01*
X628Y492D01*
X626Y492D01*
X626Y494D01*
X624Y494D01*
X624Y498D01*
X622Y498D01*
X622Y504D01*
X620Y504D01*
X620Y524D01*
X622Y524D01*
X622Y530D01*
X624Y530D01*
X624Y534D01*
X626Y534D01*
X626Y538D01*
X628Y538D01*
X628Y542D01*
X630Y542D01*
X630Y544D01*
X632Y544D01*
X632Y546D01*
X634Y546D01*
X634Y548D01*
X636Y548D01*
X636Y550D01*
X638Y550D01*
X638Y552D01*
X640Y552D01*
X640Y554D01*
X642Y554D01*
X642Y576D01*
X640Y576D01*
X640Y578D01*
X638Y578D01*
X638Y580D01*
X634Y580D01*
X634Y584D01*
X632Y584D01*
X632Y586D01*
X630Y586D01*
X630Y588D01*
X628Y588D01*
X628Y592D01*
X626Y592D01*
X626Y594D01*
X624Y594D01*
X624Y596D01*
X584Y596D01*
G37*
D02*
G36*
X40Y522D02*
X40Y380D01*
X62Y380D01*
X62Y382D01*
X106Y382D01*
X106Y404D01*
X120Y404D01*
X120Y426D01*
X80Y426D01*
X80Y522D01*
X40Y522D01*
G37*
D02*
G36*
X810Y400D02*
X810Y380D01*
X904Y380D01*
X904Y400D01*
X810Y400D01*
G37*
D02*
G36*
X76Y346D02*
X76Y344D01*
X74Y344D01*
X74Y342D01*
X72Y342D01*
X72Y340D01*
X70Y340D01*
X70Y338D01*
X68Y338D01*
X68Y336D01*
X66Y336D01*
X66Y334D01*
X64Y334D01*
X64Y332D01*
X62Y332D01*
X62Y294D01*
X152Y294D01*
X152Y292D01*
X156Y292D01*
X156Y290D01*
X178Y290D01*
X178Y292D01*
X180Y292D01*
X180Y298D01*
X182Y298D01*
X182Y300D01*
X184Y300D01*
X184Y302D01*
X186Y302D01*
X186Y304D01*
X188Y304D01*
X188Y306D01*
X190Y306D01*
X190Y326D01*
X106Y326D01*
X106Y346D01*
X76Y346D01*
G37*
D02*
G36*
X62Y294D02*
X62Y256D01*
X106Y256D01*
X106Y258D01*
X108Y258D01*
X108Y260D01*
X112Y260D01*
X112Y262D01*
X114Y262D01*
X114Y266D01*
X116Y266D01*
X116Y274D01*
X118Y274D01*
X118Y278D01*
X120Y278D01*
X120Y280D01*
X122Y280D01*
X122Y284D01*
X124Y284D01*
X124Y286D01*
X126Y286D01*
X126Y288D01*
X130Y288D01*
X130Y290D01*
X132Y290D01*
X132Y292D01*
X138Y292D01*
X138Y294D01*
X62Y294D01*
G37*
D02*
G36*
X810Y300D02*
X810Y280D01*
X904Y280D01*
X904Y300D01*
X810Y300D01*
G37*
D02*
G36*
X714Y296D02*
X714Y294D01*
X712Y294D01*
X712Y290D01*
X710Y290D01*
X710Y286D01*
X708Y286D01*
X708Y284D01*
X706Y284D01*
X706Y282D01*
X704Y282D01*
X704Y280D01*
X702Y280D01*
X702Y278D01*
X700Y278D01*
X700Y276D01*
X698Y276D01*
X698Y274D01*
X694Y274D01*
X694Y272D01*
X692Y272D01*
X692Y252D01*
X708Y252D01*
X708Y80D01*
X798Y80D01*
X798Y100D01*
X794Y100D01*
X794Y102D01*
X792Y102D01*
X792Y104D01*
X790Y104D01*
X790Y106D01*
X786Y106D01*
X786Y110D01*
X784Y110D01*
X784Y112D01*
X782Y112D01*
X782Y114D01*
X780Y114D01*
X780Y118D01*
X778Y118D01*
X778Y120D01*
X776Y120D01*
X776Y126D01*
X774Y126D01*
X774Y130D01*
X772Y130D01*
X772Y148D01*
X774Y148D01*
X774Y154D01*
X776Y154D01*
X776Y158D01*
X778Y158D01*
X778Y162D01*
X780Y162D01*
X780Y166D01*
X782Y166D01*
X782Y168D01*
X784Y168D01*
X784Y170D01*
X786Y170D01*
X786Y172D01*
X788Y172D01*
X788Y174D01*
X790Y174D01*
X790Y176D01*
X792Y176D01*
X792Y178D01*
X796Y178D01*
X796Y180D01*
X798Y180D01*
X798Y200D01*
X752Y200D01*
X752Y296D01*
X714Y296D01*
G37*
D02*
G36*
X406Y384D02*
X406Y382D01*
X404Y382D01*
X404Y380D01*
X402Y380D01*
X402Y378D01*
X400Y378D01*
X400Y376D01*
X398Y376D01*
X398Y374D01*
X396Y374D01*
X396Y354D01*
X398Y354D01*
X398Y352D01*
X400Y352D01*
X400Y350D01*
X404Y350D01*
X404Y346D01*
X406Y346D01*
X406Y344D01*
X408Y344D01*
X408Y342D01*
X410Y342D01*
X410Y340D01*
X412Y340D01*
X412Y336D01*
X414Y336D01*
X414Y332D01*
X416Y332D01*
X416Y328D01*
X418Y328D01*
X418Y316D01*
X420Y316D01*
X420Y312D01*
X418Y312D01*
X418Y302D01*
X416Y302D01*
X416Y296D01*
X414Y296D01*
X414Y294D01*
X412Y294D01*
X412Y290D01*
X410Y290D01*
X410Y286D01*
X408Y286D01*
X408Y284D01*
X544Y284D01*
X544Y286D01*
X536Y286D01*
X536Y288D01*
X532Y288D01*
X532Y290D01*
X528Y290D01*
X528Y292D01*
X526Y292D01*
X526Y294D01*
X524Y294D01*
X524Y296D01*
X522Y296D01*
X522Y298D01*
X520Y298D01*
X520Y302D01*
X518Y302D01*
X518Y304D01*
X516Y304D01*
X516Y312D01*
X514Y312D01*
X514Y316D01*
X516Y316D01*
X516Y324D01*
X518Y324D01*
X518Y328D01*
X520Y328D01*
X520Y330D01*
X522Y330D01*
X522Y348D01*
X466Y348D01*
X466Y350D01*
X462Y350D01*
X462Y352D01*
X458Y352D01*
X458Y354D01*
X456Y354D01*
X456Y356D01*
X454Y356D01*
X454Y358D01*
X452Y358D01*
X452Y360D01*
X450Y360D01*
X450Y362D01*
X448Y362D01*
X448Y364D01*
X446Y364D01*
X446Y366D01*
X444Y366D01*
X444Y368D01*
X442Y368D01*
X442Y370D01*
X440Y370D01*
X440Y372D01*
X438Y372D01*
X438Y374D01*
X436Y374D01*
X436Y376D01*
X434Y376D01*
X434Y378D01*
X432Y378D01*
X432Y380D01*
X430Y380D01*
X430Y382D01*
X428Y382D01*
X428Y384D01*
X406Y384D01*
G37*
D02*
G36*
X558Y290D02*
X558Y288D01*
X554Y288D01*
X554Y286D01*
X546Y286D01*
X546Y284D01*
X578Y284D01*
X578Y290D01*
X558Y290D01*
G37*
D02*
G36*
X310Y288D02*
X310Y264D01*
X368Y264D01*
X368Y266D01*
X356Y266D01*
X356Y268D01*
X352Y268D01*
X352Y270D01*
X348Y270D01*
X348Y272D01*
X344Y272D01*
X344Y274D01*
X342Y274D01*
X342Y276D01*
X340Y276D01*
X340Y278D01*
X338Y278D01*
X338Y280D01*
X334Y280D01*
X334Y284D01*
X332Y284D01*
X332Y286D01*
X330Y286D01*
X330Y288D01*
X310Y288D01*
G37*
D02*
G36*
X406Y284D02*
X406Y282D01*
X578Y282D01*
X578Y284D01*
X406Y284D01*
G37*
D02*
G36*
X406Y284D02*
X406Y282D01*
X578Y282D01*
X578Y284D01*
X406Y284D01*
G37*
D02*
G36*
X404Y282D02*
X404Y280D01*
X402Y280D01*
X402Y278D01*
X400Y278D01*
X400Y276D01*
X398Y276D01*
X398Y274D01*
X394Y274D01*
X394Y272D01*
X390Y272D01*
X390Y270D01*
X388Y270D01*
X388Y268D01*
X382Y268D01*
X382Y266D01*
X372Y266D01*
X372Y264D01*
X576Y264D01*
X576Y266D01*
X578Y266D01*
X578Y282D01*
X404Y282D01*
G37*
D02*
G36*
X310Y264D02*
X310Y262D01*
X576Y262D01*
X576Y264D01*
X310Y264D01*
G37*
D02*
G36*
X310Y264D02*
X310Y262D01*
X576Y262D01*
X576Y264D01*
X310Y264D01*
G37*
D02*
G36*
X310Y262D02*
X310Y258D01*
X334Y258D01*
X334Y256D01*
X340Y256D01*
X340Y254D01*
X342Y254D01*
X342Y252D01*
X344Y252D01*
X344Y250D01*
X346Y250D01*
X346Y246D01*
X348Y246D01*
X348Y184D01*
X368Y184D01*
X368Y186D01*
X370Y186D01*
X370Y188D01*
X372Y188D01*
X372Y190D01*
X374Y190D01*
X374Y192D01*
X376Y192D01*
X376Y194D01*
X378Y194D01*
X378Y196D01*
X380Y196D01*
X380Y198D01*
X382Y198D01*
X382Y200D01*
X384Y200D01*
X384Y202D01*
X386Y202D01*
X386Y204D01*
X388Y204D01*
X388Y206D01*
X390Y206D01*
X390Y208D01*
X392Y208D01*
X392Y210D01*
X394Y210D01*
X394Y212D01*
X396Y212D01*
X396Y214D01*
X398Y214D01*
X398Y216D01*
X400Y216D01*
X400Y218D01*
X402Y218D01*
X402Y220D01*
X404Y220D01*
X404Y222D01*
X406Y222D01*
X406Y224D01*
X408Y224D01*
X408Y226D01*
X410Y226D01*
X410Y228D01*
X412Y228D01*
X412Y230D01*
X524Y230D01*
X524Y232D01*
X530Y232D01*
X530Y258D01*
X572Y258D01*
X572Y260D01*
X574Y260D01*
X574Y262D01*
X310Y262D01*
G37*
D02*
G36*
X610Y288D02*
X610Y258D01*
X608Y258D01*
X608Y206D01*
X630Y206D01*
X630Y252D01*
X648Y252D01*
X648Y272D01*
X644Y272D01*
X644Y274D01*
X642Y274D01*
X642Y276D01*
X640Y276D01*
X640Y278D01*
X638Y278D01*
X638Y280D01*
X634Y280D01*
X634Y284D01*
X632Y284D01*
X632Y286D01*
X630Y286D01*
X630Y288D01*
X610Y288D01*
G37*
D02*
G36*
X270Y218D02*
X270Y216D01*
X268Y216D01*
X268Y214D01*
X266Y214D01*
X266Y212D01*
X264Y212D01*
X264Y210D01*
X262Y210D01*
X262Y208D01*
X260Y208D01*
X260Y144D01*
X290Y144D01*
X290Y218D01*
X270Y218D01*
G37*
D02*
G36*
X840Y200D02*
X840Y180D01*
X844Y180D01*
X844Y178D01*
X846Y178D01*
X846Y176D01*
X848Y176D01*
X848Y174D01*
X850Y174D01*
X850Y172D01*
X852Y172D01*
X852Y170D01*
X854Y170D01*
X854Y168D01*
X856Y168D01*
X856Y166D01*
X858Y166D01*
X858Y164D01*
X860Y164D01*
X860Y160D01*
X862Y160D01*
X862Y156D01*
X864Y156D01*
X864Y150D01*
X866Y150D01*
X866Y128D01*
X864Y128D01*
X864Y122D01*
X862Y122D01*
X862Y120D01*
X860Y120D01*
X860Y116D01*
X858Y116D01*
X858Y112D01*
X856Y112D01*
X856Y110D01*
X854Y110D01*
X854Y108D01*
X852Y108D01*
X852Y106D01*
X850Y106D01*
X850Y104D01*
X848Y104D01*
X848Y102D01*
X844Y102D01*
X844Y100D01*
X842Y100D01*
X842Y80D01*
X888Y80D01*
X888Y82D01*
X890Y82D01*
X890Y84D01*
X892Y84D01*
X892Y86D01*
X894Y86D01*
X894Y88D01*
X896Y88D01*
X896Y90D01*
X898Y90D01*
X898Y92D01*
X900Y92D01*
X900Y94D01*
X902Y94D01*
X902Y96D01*
X904Y96D01*
X904Y200D01*
X840Y200D01*
G37*
D02*
G36*
X444Y198D02*
X444Y178D01*
X446Y178D01*
X446Y176D01*
X448Y176D01*
X448Y174D01*
X450Y174D01*
X450Y172D01*
X452Y172D01*
X452Y170D01*
X454Y170D01*
X454Y168D01*
X456Y168D01*
X456Y166D01*
X458Y166D01*
X458Y164D01*
X460Y164D01*
X460Y160D01*
X462Y160D01*
X462Y156D01*
X464Y156D01*
X464Y150D01*
X466Y150D01*
X466Y142D01*
X488Y142D01*
X488Y144D01*
X500Y144D01*
X500Y146D01*
X502Y146D01*
X502Y148D01*
X504Y148D01*
X504Y150D01*
X506Y150D01*
X506Y152D01*
X508Y152D01*
X508Y154D01*
X510Y154D01*
X510Y156D01*
X516Y156D01*
X516Y158D01*
X530Y158D01*
X530Y198D01*
X444Y198D01*
G37*
D02*
G36*
X136Y172D02*
X136Y40D01*
X204Y40D01*
X204Y110D01*
X188Y110D01*
X188Y112D01*
X184Y112D01*
X184Y114D01*
X180Y114D01*
X180Y116D01*
X178Y116D01*
X178Y118D01*
X174Y118D01*
X174Y120D01*
X172Y120D01*
X172Y124D01*
X170Y124D01*
X170Y126D01*
X168Y126D01*
X168Y130D01*
X166Y130D01*
X166Y138D01*
X164Y138D01*
X164Y142D01*
X166Y142D01*
X166Y150D01*
X168Y150D01*
X168Y152D01*
X170Y152D01*
X170Y172D01*
X136Y172D01*
G37*
D02*
G36*
X610Y148D02*
X610Y146D01*
X608Y146D01*
X608Y102D01*
X520Y102D01*
X520Y100D01*
X518Y100D01*
X518Y80D01*
X630Y80D01*
X630Y148D01*
X610Y148D01*
G37*
D02*
G36*
X236Y90D02*
X236Y84D01*
X268Y84D01*
X268Y86D01*
X260Y86D01*
X260Y88D01*
X256Y88D01*
X256Y90D01*
X236Y90D01*
G37*
D02*
G36*
X270Y86D02*
X270Y84D01*
X290Y84D01*
X290Y86D01*
X270Y86D01*
G37*
D02*
G36*
X236Y84D02*
X236Y82D01*
X290Y82D01*
X290Y84D01*
X236Y84D01*
G37*
D02*
G36*
X236Y84D02*
X236Y82D01*
X290Y82D01*
X290Y84D01*
X236Y84D01*
G37*
D02*
G36*
X236Y82D02*
X236Y56D01*
X290Y56D01*
X290Y82D01*
X236Y82D01*
G37*
D02*
G36*
X55Y748D02*
X80Y748D01*
X80Y724D01*
X55Y724D01*
X55Y748D01*
G37*
D02*
G36*
X36Y729D02*
X60Y729D01*
X60Y704D01*
X36Y704D01*
X36Y729D01*
G37*
D02*
G36*
X74Y729D02*
X100Y729D01*
X100Y704D01*
X74Y704D01*
X74Y729D01*
G37*
D02*
G36*
X510Y329D02*
X536Y329D01*
X536Y304D01*
X510Y304D01*
X510Y329D01*
G37*
D02*
G36*
X505Y834D02*
X530Y834D01*
X530Y810D01*
X505Y810D01*
X505Y834D01*
G37*
D02*
G36*
X524Y853D02*
X550Y853D01*
X550Y828D01*
X524Y828D01*
X524Y853D01*
G37*
D02*
G36*
X555Y774D02*
X580Y774D01*
X580Y748D01*
X555Y748D01*
X555Y774D01*
G37*
D02*
G36*
X318Y247D02*
X348Y247D01*
X348Y234D01*
X318Y234D01*
X318Y247D01*
G37*
D02*
G36*
X281Y684D02*
X306Y684D01*
X306Y660D01*
X281Y660D01*
X281Y684D01*
G37*
D02*
G04 End of Copper0*
M02*