G04 MADE WITH FRITZING*
G04 WWW.FRITZING.ORG*
G04 DOUBLE SIDED*
G04 HOLES PLATED*
G04 CONTOUR ON CENTER OF CONTOUR VECTOR*
%ASAXBY*%
%FSLAX23Y23*%
%MOIN*%
%OFA0B0*%
%SFA1.0B1.0*%
%ADD10C,0.085000*%
%ADD11C,0.049370*%
%ADD12C,0.089370*%
%ADD13R,0.069055X0.065118*%
%ADD14R,0.065118X0.069055*%
%ADD15R,0.034000X0.097000*%
%ADD16R,0.089370X0.089370*%
%LNMASK1*%
G90*
G70*
G54D10*
X819Y815D03*
X419Y815D03*
G54D11*
X519Y840D03*
X544Y315D03*
X194Y140D03*
X269Y115D03*
X69Y715D03*
G54D10*
X819Y140D03*
X419Y140D03*
G54D12*
X369Y615D03*
X669Y615D03*
X369Y515D03*
X669Y515D03*
X369Y415D03*
X669Y415D03*
X369Y315D03*
X669Y315D03*
G54D11*
X494Y115D03*
X244Y265D03*
X144Y265D03*
X44Y915D03*
X294Y690D03*
X494Y415D03*
X644Y740D03*
X944Y740D03*
G54D13*
X819Y590D03*
X819Y509D03*
G54D14*
X819Y665D03*
X900Y665D03*
G54D13*
X194Y365D03*
X194Y446D03*
G54D15*
X94Y584D03*
X144Y584D03*
X194Y584D03*
X244Y584D03*
X244Y790D03*
X194Y790D03*
X144Y790D03*
X94Y790D03*
G54D14*
X219Y65D03*
X139Y65D03*
G54D16*
X369Y615D03*
G04 End of Mask1*
M02*